<svg width="551" height="206" fill="none" xmlns="http://www.w3.org/2000/svg"><path d="M4.108 149.911l59.648-39.187L67.88 2.375 63.742 0 0 36.799v110.737l4.108 2.375zM59.334 7.644v100.541L4.409 139.893V39.351L59.334 7.644z" fill="#9D9D9C"/><path d="M4.109 149.911l63.756-36.812.014-86.087-.014-1.406V2.375L4.122 39.188 4.11 149.91zm4.422-7.616l.014-3.44L8.53 41.74l54.94-31.721v9.827l-.014 9.541v81.173L8.531 142.295z" fill="#EDEDED"/><path d="M8.53 138.855V41.74l51.964-29.988v97.102L8.531 138.855z" fill="#A4D9F5"/><path opacity=".3" d="M9.841 136.59V98.753l37.823-78.088 11.52-6.647v24.446L11.26 135.771l-1.42.819zm6.702-3.877l42.64-84.899v15.205l-32.785 64.002-9.855 5.692z" fill="#fff"/><path d="M27.872 72.219l.369-1.529c.45-1.351 1.556-1.651 1.256-.082l-1.352 7.22-.273-5.609z" fill="#FCAF75"/><path d="M30.739 63.825l-3.44-2.007-10.537 6.088.027 7.398 3.44 1.993 10.523-6.074-.013-7.398z" fill="#15ABEB"/><path d="M20.229 77.297l-3.44-1.993-.027-7.398 3.44 1.993.026 7.398z" fill="#2F608F"/><path d="M20.229 77.297l-3.44-1.993-.027-7.398 3.44 1.993.026 7.398z" fill="#2F608F"/><path d="M20.201 69.899l-3.44-1.993L27.3 61.818l3.44 2.007-10.54 6.074z" fill="#4A8BC9"/><path d="M30.739 63.825l.013 7.398-10.523 6.074-.028-7.398 10.538-6.074z" fill="#15ABEB"/><path d="M25.088 85.513c-.41.273-2.225-3.002-2.921-4.627-.82-2.456-1.379-4.45-.778-7.302l-2.102-4.545c-.382-.833.423-1.747 1.01-.97l1.856 3.276-1.024-5.541c-.382-1.406.778-2.225 1.147-1.188l2.13 5.651-.656-6.347c-.11-1.187 1.12-1.843 1.447-.737l1.27 6.702.368-5.105c.055-1.379 1.228-1.61 1.31-.355l.191 12.585c-.232 1.256-1.678 4.013-1.842 4.19l.75 3.55-2.156.763zm57.027 35.639l-.287 3.385-.668 1.993-1.748 2.361c-.436.737-2.21 1.625-2.21 1.625-2.39 1.378-4.15-1.87-3.85-3.072l1.624-4.777s.232-1.01-.163-1.815c-.314-.628-2.758.682-2.758.682-.86.492-1.624.928-2.238 1.283-.82.123-1.174-.082-1.051-.628l1.692-1.76 1.884-1.652.833-.723c1.378-.888 2.675-1.584 3.699-1.72l.095-.355.205-.696 1.843.286 2.743.424-.136 2.088.163.983.328 2.088z" fill="#FCAF75"/><path opacity=".3" d="M74.553 120.551l3.713-.859 1.993 3.357-1.72 6.061c.068-1.611.136-3.549-.928-3.931l-1.857-.26 1.515-1.023-.232-1.502-3.22-.505.736-1.338zm-2.211-1.788l6.633-.764c-1.01-.532-1.76-1.187-2.006-2.02l-.11.355c-1.01.136-2.306.833-3.698 1.706l-.82.723z" fill="#FCAF75"/><path d="M72.178 76.013l2.675 13.158.901 11.016c.806 6.387 1.72 11.52 1.147 14.864a2.3 2.3 0 00.068.928c.246.833.997 1.488 2.007 2.02.805.45 1.774.792 2.798 1.051 1.597-6.565 2.825-12.885 2.293-17.99l-1.065-13.008c-.286-7.452-3.63-12.98-10.824-12.039z" fill="#EDEDED"/><path opacity=".5" d="M75.754 100.173c.806 6.388 1.72 11.52 1.147 14.864-.041.341-.014.642.068.928.246.833.997 1.488 2.007 2.02-.014-.819.013-1.624.04-2.443.424-12.339 4.136-22.671-.095-28.363l-4.068 1.965.901 11.029z" fill="#15ABEB"/><path d="M42.627 196.401c0-2.375 1.843-3.289 4.56-3.589 2.374 0 5.582 1.064 9.786 2.033l4.79 2.621c.915 2.457.874 4.654.355 6.661-1.35 1.16-3.057 1.884-4.64 1.46l-5.378-2.279-.382-.778c-4.3-.478-9.09-2.416-9.09-6.129zm17.485-9.541c0-1.938 1.747-2.279 4.34-2.484 4.696 0 4.887 2.348 9.214 2.252l4.245 2.58c.874 2.484.696 5.146.191 7.139-1.283 1.119-3.249 1.365-4.723 1.146l-4.354-2.566-.368-.792c-4.109-.614-8.545-3.658-8.545-7.275z" fill="#1D1D1B"/><path d="M75.481 120.552l-15.628 6.538c-.028 2.77.04 5.377.314 7.316.982 7.207 3.89 18.085 3.89 18.085 2.102 9.254 2.934 20.747 3.426 32.854.082 4.354 6.565 8.176 10.715 4.054 1.187-14.782 1.187-29.128-2.294-38.641 1.666-7.508.123-16.025-.34-24.665.108-1.119-.52-5.35-.083-5.541z" fill="#0F7BAA"/><path d="M46.968 142.855c.587 7.193 2.88 18.058 2.88 18.058l1.597 32.799c-.3 2.171.587 3.945 2.047 5.023 2.266 1.652 5.91 1.625 8.45-1.16 2.02-14.755 2.825-28.896-.137-38.382 2.088-7.493 1.979-14.468 1.993-23.108 4.818-1.966 12.257-4.764 11.956-12.353a37.473 37.473 0 00-1.283-8.422 33.716 33.716 0 00-.45-1.556c-.136-.396-.26-.791-.396-1.174-2.662 5.324-11.206 8.64-20.501 7.467-.41-.055-.806-.11-1.215-.178a34.624 34.624 0 01-2.99-.641l-.218 1.446c-.095.751-.245 1.734-.395 2.908-.71 5.35-1.734 14.414-1.338 19.273z" fill="#15ABEB"/><path opacity=".5" d="M46.968 142.841c.573 7.193 2.88 18.058 2.88 18.058l1.597 32.813c-.314 2.171.587 3.931 2.06 5.01-1.432-13.8-2.06-26.74 0-36.758-3.084-11.37-4.49-23.272-.941-32.049-.041-3.508-.423-6.675.328-9.227a34.596 34.596 0 01-3.959-1.501c-.013.027-2.552 16.474-1.965 23.654z" fill="#15ABEB"/><path d="M78.675 86.77a293.09 293.09 0 01-.914 9.213c-1.01 8.844-2.307 16.761-3.303 19.313-3.467 9.241-11.316 10.838-21.962 6.934a52.577 52.577 0 01-3.809-1.569c-.068-.028-.136-.055-.218-.096-1.337-5.241-1.065-8.285-1.283-14.7a67.586 67.586 0 00-.082-2.212c-.04-.75-.082-1.556-.136-2.402-.123-2.034-.082-3.945-.191-6.347a56.926 56.926 0 00-.383-4.463c.137-.123.45-.287.82-.423a1.6 1.6 0 01.272-.096c.055-.013.697-.573.737-.587.697-.204.287-.737.574-.914.75-.437 1.474-.888 2.197-1.324.737-.464 1.474-.915 2.184-1.365 5.651-3.59 10.401-6.907 15.956-8.845.478-.164.956-.328 1.447-.478.519-.15 1.024-.286 1.556-.41 4.723 1.311 6.525 5.242 6.538 10.77z" fill="#15ABEB"/><path d="M73.884 90.427c-4.108 3.563-7.889 5.61-13.021 7.398.9-7.384-2.116-13.199-7.644-12.08 5.474-3.917 9.159-6.442 14.7-8.38 5.42 0 7.48 7.753 5.965 13.062z" fill="#EDEDED"/><path d="M66.282 77.965l-1.597-6.715-10.278 3.494 1.679 9.172c3.767-.013 11.479-3.48 10.196-5.95z" fill="#FCAF75"/><path d="M56.03 77.46s-1.814 2.13-3.452-.273c-1.652-2.402-3.604-9.5-1.27-14.29 2.334-4.791 9.214 4.067 9.214 4.067L56.03 77.46z" fill="#FCAF75"/><path d="M65.927 75.386s-3.918 1.214-7.385 2.457c-.887.313-2.456-.82-3.057-1.543l-1.078-1.296-.26-3.03-1.842-1.297.641-2.062c-1.05-.573-1.843-1.637-2.525-2.907-1.624-5.364 5.323-9.213 11.425-7.33 7.807 2.28 7.766 11.234 4.08 17.008z" fill="#000"/><path d="M52.864 71.55c.014-.314.041-.628.15-.914.11-.287.314-.56.615-.67.546-.204 1.16.233 1.365.779.204.546.109 1.146.027 1.72l-.205 1.242c-.055.341-.123.71-.314.996-.19.3-.546.519-.887.437-.246-.055-.45-.273-.546-.505-.11-.232-.137-.492-.15-.75a14.81 14.81 0 01-.055-2.335z" fill="#FCAF75"/><path d="M57.669 100.118c-.642 6.839-3.48 9.746-7.234 8.313l-3.235-2.566a67.53 67.53 0 00-.082-2.211c-.041-.751-.082-1.556-.137-2.403-.123-2.034-.081-3.944-.19-6.347l.436-4.886c.082-.041.178-.068.273-.096.055-.013.696-.573.737-.587.696-.204.287-.737.573-.914.751-.437 1.474-.887 2.198-1.324 7.248-.587 8.108 5.282 6.66 13.021z" fill="#EDEDED"/><path d="M22.262 81.692c.56 4.231.915 7.903 2.048 11.574l.368 1.188c1.283 4.081 2.635 7.739 5.05 10.687 5.87.587 11.67.014 17.404-1.487a61.345 61.345 0 003.07-.901c.042-.014.096-.028.137-.041.573-.178 1.133-.382 1.706-.573 6.511-1.147 9.296-16.257-2.388-13.868-.246.027-.519.095-.806.163a18.39 18.39 0 00-1.76.56c-.041.014-.096.041-.137.055-.355.136-.71.3-1.078.45-1.925.833-3.918 1.938-5.064 2.798-2.853.15-4.286.464-6.443 1.61-.013 0-3.917-9.636-6.893-15.396-2.58-.314-4.804 1.065-5.214 3.18z" fill="#EDEDED"/><path opacity=".5" d="M24.678 94.44c1.283 4.081 2.635 7.739 5.05 10.688 5.87.587 11.67.013 17.404-1.488.382 7.985-.123 11.097 1.365 16.911.068.028.136.055.218.096 1.31.601 2.58 1.119 3.794 1.57a43.24 43.24 0 01-.6-2.375c-1.228-5.296-1.61-11.097-1.57-17.144 0-1.187.028-2.375.055-3.576a20.12 20.12 0 01-3.399 2.116c-4.695 2.293-10.264 2.689-16.393 1.856l-5.924-8.654z" fill="#15ABEB"/><path d="M78.92 87.192c-.258 3.058-.804 5.76-1.146 8.79-.9.396-1.501.069-1.474-1.774 1.324-9.036.696-15.888-5.678-17.785.505-.15 1.024-.287 1.542-.41 5.242 1.352 6.743 5.665 6.757 11.18z" fill="#EDEDED"/><path d="M229.419 180.437l-76.546-44.183 107.585-62.119 76.532 44.197-107.571 62.105z" fill="#F9B233"/><path opacity=".4" d="M160.667 131.763l76.532 44.183-4.572 2.648-76.532-44.196 4.572-2.635zm92.011-53.123l76.532 44.183 4.573-2.635-76.533-44.196-4.572 2.648z" fill="#F9B233"/><path d="M164.694 129.429l76.546 44.183-2.293 1.324-76.533-44.183 2.28-1.324zm83.944-48.469l76.532 44.197 2.293-1.324-76.532-44.183-2.293 1.31z" fill="#fff"/><path opacity=".4" d="M169.034 126.931l76.533 44.184-2.28 1.324-76.546-44.197 2.293-1.311zm75.277-43.459l76.532 44.183 2.279-1.324-76.532-44.183-2.279 1.324z" fill="#F9B233"/><path d="M203.444 112.34v29.961l3.235 1.87v-33.687l-3.235 1.856zm15.602-9.008h51.895l3.235 1.87h-58.365l3.235-1.87z" fill="#fff"/><path opacity=".4" d="M192.429 118.701v17.239l7.74 4.477v-26.18l-7.74 4.464zm37.632-21.731h29.865l7.739 4.478h-45.343l7.739-4.477z" fill="#F9B233"/><path d="M274.203 149.385h-58.501l3.235 1.856h52.031l3.235-1.856zm8.995-5.201v-33.769l3.235 1.857v30.042l-3.235 1.87z" fill="#fff"/><path opacity=".4" d="M267.692 153.138h-45.48l7.739 4.464h30.002l7.739-4.464zm22.003-12.707v-26.262l7.753 4.463v17.335l-7.753 4.464zm-78.511-32.636v38.983h67.523v-38.983h-67.523zm57.75 33.359h-48.005v-27.722h48.005v27.722z" fill="#F9B233"/><path d="M225.98 116.353v21.88h37.918v-21.88H225.98zm32.431 18.713h-26.944v-15.56h26.944v15.56z" fill="#F9B233"/><path opacity=".2" d="M295.1 101.489c3.645.942 1.884 7.343.614 9.377-2.143 3.453-5.145 5.692-8.844 7.357-6.539 2.935-13.172 6.975-20.01 9.063-7.207 2.212-15.37-.901-22.467 1.324-4.191 1.311-8.258 3.344-12.408 5.064-2.334.969-8.244 5.078-9.609.724-1.01-3.167 4.068-7.821 5.747-10.005 2.361-3.099 3.876-6.784 5.664-10.183 4.218-8.053 11.602-12.844 20.133-15.683 7.698-2.552 13.745-6.538 22.057-5.705 3.44.34 7.002.464 10.224 1.76 3.289 1.338 4.968 2.99 7.507 5.378.628.601.6 1.311 1.392 1.529z" fill="#634E42"/><path d="M284.222 96.602l1.433-1.665 3.085-4.777c1.992-1.556 4.599-.887 6.06 1.501l1.993 4.423s1.529 4.436 1.733 6.633c.205 2.212.478 5.542-1.187 6.279-2.416 1.119-5.064.014-5.255-1.583l-1.679-4.341-3.863 2.908-2.32-9.378zm-43.842 33.319c-.355 1.665-4.75 2.729-4.75 2.729s-6.17 5.801-11.397 5.406c-3.085-.232-4.136-1.051-4.614-1.966-.478-.901-.027-2.061.573-2.907.615-.846 7.002-3.563 8.613-6.115.778-1.242 2.075-3.863 2.075-3.863l.532-4.873 7.043-.832 1.024 6.237c1.051 1.283 1.092 5.255.901 6.184z" fill="#000"/><path d="M227.126 99.66c1.556 8.353 2.471 16.693 2.443 25.019 2.607 1.775 5.665 2.539 7.849 2.116 1.406-.273 2.457-1.037 2.771-2.334 1.078-7.616.232-16.325-.451-23.682.178-.027.341-.068.505-.123 1.87-.464 3.699-1.324 5.61-2.443.178-.095.341-.205.519-.3a72.32 72.32 0 002.238-1.392c.328-.219.669-.437 1.01-.656.778-.505 1.584-1.023 2.416-1.556.355-.232.724-.464 1.092-.696.437-.273.874-.546 1.324-.819.314-.19.642-.382.969-.573a57.217 57.217 0 012.43-1.379c-.423 3.522-.532 7.03-.45 10.524 0 .164 0 .328.013.491 0 .355.014.71.041 1.051.014.533.041 1.065.082 1.584.055.996.123 1.979.218 2.962.041.505.082 1.01.137 1.515.15 1.501.328 3.003.519 4.504.136.997.259 1.993.409 2.989l.369 2.457c.082.546.163 1.079.245 1.611.096.628.205 1.242.301 1.87.163.983.314 1.965.477 2.934.956 1.98 2.293 3.167 4.204 3.208 7.194 1.215 15.615-12.626 25.074-23.231 1.161-3.999.164-9.65-4.477-9.76-1.528.492-3.535 1.816-5.541 3.536-2.293 1.965-4.614 4.449-6.293 6.879l2.99-13.731a35.13 35.13 0 00.832-4.314c.164-1.283.219-2.457.15-3.548-.177-3.263-1.31-5.747-3.426-7.849l-9.568-.19-12.789-.247a37.78 37.78 0 00-3.044 1.434c-6.456 3.344-12.708 8.585-18.877 14.632-2.334 2.934-3.099 5.446-2.321 7.507z" fill="#15ABEB"/><path opacity=".3" d="M237.418 126.795c1.406-.273 2.457-1.038 2.771-2.334 1.078-7.617.232-16.325-.451-23.682.178-.027.342-.068.505-.123 1.87-.464 3.699-1.324 5.61-2.443.178-.096.341-.205.519-.3a72.32 72.32 0 002.238-1.392c.328-.219.669-.437 1.01-.656.778-.505 1.584-1.023 2.416-1.556.355-.232.724-.464 1.092-.696.437-.273.874-.546 1.324-.819.314-.19.642-.382.969-.573a57.217 57.217 0 012.43-1.379c-.423 3.522-.532 7.03-.45 10.524.013.177.013.328.013.491 0 .355.014.71.041 1.051.014.533.041 1.065.082 1.584.055.996.123 1.979.219 2.962.04.505.081 1.01.136 1.515.15 1.501.328 3.003.519 4.504.136.996.259 1.993.409 2.989l.369 2.457c.082.546.164 1.078.245 1.611.096.628.205 1.242.301 1.87.163.982.314 1.965.477 2.934.956 1.98 2.294 3.167 4.204 3.208 7.194 1.215 15.615-12.626 25.074-23.231l-19.395 18.344c-2.826 1.966-5.187 2.171-6.907 0-.3-1.378-.614-2.77-.915-4.19a38.416 38.416 0 01-.682-11.315l1.051-11.862c5.228-2.825 9.95-7.097 14.482-11.93-.177-3.261-1.31-5.746-3.426-7.848l-9.568-.19-15.834 1.173.014.068c1.447 4.682.492 9.8-2.675 13.554-2.512 2.99-5.637 5.938-9.814 8.517 2.703 6.934 2.73 16.462 1.597 27.163z" fill="#3F668A"/><path d="M242.455 64.13l1.979-17.948c2.225-12.19 16.215-10.279 12.393 2.415l-4.872 18.605c-1.939 3.166-3.727 5.773-5.569 8.08l-7.289-5.173 3.358-5.978z" fill="#EDEDED"/><path d="M246.358 51.491c0 .491.232 5.01.259 5.569.123 7.125 1.229 14.714 1.802 18.263.219 1.297.355 2.047.355 2.047 1.938 4.436 13.622 7.685 17.662 7.876 7.74.369 9.091-5.132 9.091-5.132l.56-18.74.013-.287.082-1.911.56-12.544c-2.621-3.167-5.378-4.832-7.999-6.21-6.279-4.177-12.025-5.965-19.669-3.781 0 0-1.542 4.572-2.593 10.291-.123.655-.109 3.412-.123 4.56z" fill="#15ABEB"/><path d="M264.826 60.077c-.096 7.097 4.955 8.08 4.955 8.08l5.418-2.361.219-4.982.014-.3.818-14.496c-.764-.928-1.392-1.652-2.238-2.157-6.388 1.27-9.104 9.664-9.186 16.216zm-14.81-10.729c2.375 2.935 6.252 4.504 11.548 6.101 1.651-7.03 4.34-13.062 9.896-13.444-1.051-.71-2.048-1.502-3.072-2.034-3.494-2.32-6.674-3.685-9.977-4.231-5.173 2.893-8.285 7.247-8.395 13.608z" fill="#EDEDED"/><path d="M260.868 36.053c.177 0 2.921 2.062 2.921 2.062 4.013 2.279-.587 13.198-6.457 10.455l-5.473-3.808 9.009-8.709z" fill="#FFAD73"/><path opacity=".3" d="M250.48 44.885c0 4.04-.054 8.694 4.532 8.885 5.665-1.57 6.17-11.165 5.555-14.29l-10.087 5.405z" fill="#15ABEB"/><path d="M254.084 24.806c4.914.055 7.725 2.362 7.917 7.494-.137 5.391-.41 8.64-3.017 12.325-1.624 2.034-3.822 3.508-6.333 3.372-2.989-.15-7.412-7.316-7.835-12.503-.737-5.241 3.726-9.254 9.268-10.688z" fill="#FFAD73"/><path d="M245.416 39.275c1.106 2.62 7.63 2.143 10.497-1.065l.314 1.925 2.634-2.184 2.293 2.975.833-1.173c2.088-4.19 1.979-11.084-3.958-14.537-7.958-3.194-17.799 6.06-12.613 14.059z" fill="#807070"/><path d="M259.598 40.203c.314-.532.587-1.106.655-1.72.069-.614-.109-1.256-.573-1.665-.464-.41-1.228-.478-1.72-.082-.341.273-.491.724-.491 1.147 0 .423.109.832.232 1.242l.328 1.105c.068.26.163.533.409.656.218.109.505.04.71-.096.191-.164.327-.369.45-.587z" fill="#FFAD73"/><path opacity=".3" d="M248.228 73.453l.191 1.87c.219 1.297.355 2.048.355 2.048 1.938 4.436 13.622 7.684 17.662 7.875 7.74.369 9.091-5.132 9.091-5.132l.56-18.74.013-.287.082-1.911-.682-3.167h-8.504l-2.143 15.274c-3.508 6.947-10.701 5.132-16.625 2.17z" fill="#3F668A"/><path d="M239.22 80.892c.696 1.242 1.037 2.853 1.242 3.917l-.287 2.13-.928 2.334c-.491 1.242-1.474.764-1.16-.519l.614-2.006-.519-1.256-2.074 2.99-1.816 4.026c-.682.914-1.024.614-1.215-.205l-.655 1.133c-.559.955-1.542.286-1.337-.45l-.26.3c-.532.928-1.529.355-1.174-.724l.287-.737c-.723.669-.833-.246-.287-1.501l1.625-4.409c.314-.996 2.511-4.764 3.958-5.583l1.802-1.474 2.975.778-.791 1.256z" fill="#FFAD73"/><path d="M239.097 70.109c2.975-.246 5.296 1.856 7.289 5.173-1.461 1.993-3.781 4.45-6.498 7.22-2.429-1.596-3.262-2.893-5.787-1.16l4.996-11.233z" fill="#EDEDED"/><path d="M262.096 101.516c.341-.177.696-.355 1.037-.559.574-.328 1.038-1.01 1.12-1.61l.696-5.133c.054-.369-.055-.628-.26-.764.028.013-2.033-1.57-2.033-1.57-.137-.11-.328-.15-.56-.096-2.375.533-5.009 1.993-7.63 3.754a98.865 98.865 0 00-3.863 2.743c-.259.191-.45.505-.491.778l-.341 2.498c-.028.178.027.314.123.382l2.061 1.584a.257.257 0 00.204.054c3.112-.095 6.538-.382 9.937-2.061zm2.553-8.107l-.082-.041.082.04zm-.314-.069a.8.8 0 00-.178.028c.068-.014.123-.014.178-.028zm.163.028c-.027-.014-.068-.014-.109-.014.041 0 .082 0 .109.014z" fill="#DB981F"/><path d="M249.894 101.954c-.096-.068-.137-.205-.123-.382l.341-2.498c.041-.273.232-.587.492-.778a97.976 97.976 0 013.862-2.744c2.621-1.76 5.255-3.22 7.63-3.753.232-.055.424-.014.56.095l2.061 1.584c-.136-.11-.328-.137-.56-.096-2.375.532-5.009 1.993-7.63 3.754a97.974 97.974 0 00-3.862 2.743c-.26.191-.451.505-.492.778l-.341 2.498c-.027.178.027.314.123.382l-2.061-1.583z" fill="#9D9D9C"/><path d="M251.845 103.154c-.041.273.096.451.328.451 3.098-.109 6.524-.396 9.937-2.075.341-.177.696-.355 1.037-.56.573-.327 1.037-1.01 1.119-1.61l.696-5.132c.082-.601-.245-.956-.791-.847-2.375.533-5.01 1.993-7.63 3.754a98.012 98.012 0 00-3.863 2.743c-.259.192-.45.505-.491.778l-.342 2.498zm-2.784 2.935l-.137.983c-.027.163-.15.3-.368.395-.451.192-1.133.096-1.515-.204-.191-.15-.273-.328-.26-.478l.137-.983 2.143.287z" fill="#fff"/><path d="M247.287 105.406c-.45.192-.505.574-.123.874.382.3 1.065.396 1.515.205.451-.191.505-.574.123-.874-.382-.3-1.064-.396-1.515-.205zm6.046-.778l-1.092-.846c-1.078-.846-2.361-1.296-3.917-.71l-.205 1.556 1.092.847.205-1.556c1.556-.587 2.825-.137 3.917.709z" fill="#DADADA"/><path d="M249.402 103.919c1.829-.697 3.262.054 4.464 1.173.122.123.027.424-.191.601a.527.527 0 01-.137.082c-.068.027-.136.041-.191.014-1.31-.587-2.198-1.161-3.617-.587-.164.068-.341.15-.532.259l.204-1.542z" fill="#fff"/><path d="M250.317 98.937l-2.348.969c-.3.123-.573.505-.614.819l-.15 1.119-.096.696-.382 2.853 1.365 1.064.382-2.852.095-.696.151-1.12c.041-.314.314-.696.614-.819l2.348-.969-1.365-1.064z" fill="#DADADA"/><path d="M251.682 100.001l-.396 3.017-.587.245c-.41.164-.805.615-.956 1.079l-.505 1.638-1.146.464.382-2.853.096-.696.15-1.119c.041-.314.314-.696.614-.819l2.348-.956z" fill="#fff"/><path d="M253.456 102.008s.096-2.635.041-3.85c-.014-.19-.71-1.378-.71-1.378l-1.897 1.297c.054-.67.109-1.502.164-2.212a4.212 4.212 0 011.228-2.702 271.977 271.977 0 003.18-3.194c.192-.218 1.502-.805 1.502-.805l2.238-2.32 3.317.381.519 1.939-2.048 4.176-.109 3.03-.191 2.293c-.655 4.054-2.498 5.378-2.771 4.245-.286 1.215-1.788 1.488-1.692.314l-.068.151c-.355.737-1.01.873-1.447.546l-.778 1.91c-.519.97-1.611.874-1.447-.191l.969-3.63z" fill="#FCAF75"/><path d="M279.485 55.859l-.805 18.973c-4.927 8.34-10.155 13.758-17.731 18.508-.955-2.28-3.33-3.03-6.046-3.18l13.854-19.096-1.925-16.488c4-12.926 10.811-13.608 12.653 1.283z" fill="#EDEDED"/><path opacity=".4" d="M252.773 131.886c1.447-.737 3.74-1.706 5.119-.45 1.802 1.651-.055 2.975 3.112 3.562 2.648.492 8.981.382 8.463 4.464-.56 4.367-6.593 2.839-9.146 4.818-3.166 2.47-2.006 6.279-7.329 5.842-1.747-.15-3.413-.915-5.16-.069-1.528.738-2.634 2.58-3.999 3.577-2.28 1.665-7.78 4.176-8.394-.396-.301-2.198 1.801-2.635-.451-4.068-1.378-.873-3.521-.054-4.736-1.215-3.181-3.043 4.19-4.9 5.35-6.51 1.188-1.652.492-3.208 2.334-4.614 1.775-1.351 3.645-1.078 5.72-1.392 2.265-.341 2.402-1.774 4.163-2.716 1.61-.86 3.344-.028 4.954-.833zm-24.009 20.897c2.58 1.843-2.689 4.109-4.067 2.73-2.28-2.279 2.689-3.712 4.067-2.73zm19.341 2.88c1.133 1.188-1.023 1.857-1.719 1.051-.983-1.133 1.214-1.583 1.719-1.051zm-12.898 2.894c.955.955 1.774 3.44.709 4.504-.941.942-2.975.11-4.217.655-1.72.738-6.293 5.583-6.675 1.065-.027-.327.614-1.419.642-2.006.027-.751-.669-1.338-.451-2.225.341-1.406 1.706-1.925 3.112-2.17 2.444-.424 5.146.737 6.88.177z" fill="#EA4A49"/><path d="M247.928 108.682l11.52 32.977c1.338 10.933-27.012 12.53-28.718 3.917l17.198-36.894z" fill="#fff" fill-opacity=".24"/><path d="M477.647 150.081l-5.255.792c-1.092.614-1.105 1.378-.477 2.238 1.951 1.843 5.159 3.508 8.094 3.754.86.928 1.897 1.419 3.098 1.487 1.515-.286 2.771-.859 3.645-1.815.286-2.73-.424-4.927-1.72-6.811l-7.385.355zm-39.255 2.252l-5.433-.341c-3.644 0-3.139 3.808 1.133 5.173 4.204 1.829 8.244 3.412 11.534 3.904 1.46.095 2.457-.423 3.003-1.543.709-1.91.204-3.617-.574-5.282l-9.663-1.911z" fill="#1D1D1B"/><path d="M460.531 101.339c-.478.232-.969.464-1.488.696-1.528 6.047-3.385 13.417-6.429 19.942l-.15.942-.464 2.852c.314 1.447.287 3.181.027 5.119-.764 6.128-3.603 14.455-3.958 23.34.478 3.14-.546 2.921-1.802 3.14-5.459-.587-12.243-3.14-8.244-5.023l4.709-.164c-.341-8.736-.655-17.458-.396-24.269.055-1.474.137-2.866.246-4.135v-5.146c-1.174-11.793 1.406-24.637 6.688-35.748l20.938-7.616c2.089 3.521 3.618 7.015 3.754 10.428.191 5.446-3.153 10.715-13.431 15.642z" fill="#FCAF75"/><path d="M485.346 151.091c-.819.955-2.525 1.46-5.173 1.488-1.584-.123-2.908-.533-3.809-1.379l2.471-2.156c-.669-5.924-3.522-12.926-6.211-21.034a158.656 158.656 0 01-1.556-4.859l-1.774-3.344-1.133-2.143c-3.085-4.396-5.542-9.992-7.616-16.311-.232-.724-.478-1.46-.696-2.198l5.569-16.475 8.53 3.058c.014 0 2.143 26.998 2.143 26.998l1.447 3.522.041.095c2.375 2.798 3.604 5.788 4.436 8.818l.041.123c1.952 11.192 1.324 17.471 3.29 25.797z" fill="#FCAF75"/><path opacity=".3" d="M451.987 125.758c.313 1.447.286 3.18.027 5.118-3.672.314-7.603-1.692-9.691-2.975.054-1.474.136-2.867.245-4.136v-3.194l9.883 2.32-.464 2.867zm30.028-.614c-3.344 1.801-7.002 2.552-9.404 2.866a158.656 158.656 0 01-1.556-4.859l-1.775-3.344 8.245-3.577.041.096c2.388 2.798 3.603 5.774 4.449 8.818z" fill="#15ABEB"/><path d="M465.022 50.932c.054.587.164 1.16.341 1.72-2.348-.342-4.764-.874-7.248-1.543l-1.297-2.02-4.094-6.388c3.303-1.57 6.674-1.392 10.1.341 1.543.396 3.044.833 4.504 1.283-1.801 1.57-2.566 4.163-2.306 6.607z" fill="#EDEDED"/><path d="M484.745 68.471h-3.767l-.451-.819c-3.262-5.965-6.783-12.407-7.971-14.591-2.279.11-4.695-.055-7.193-.423a7.931 7.931 0 01-.341-1.72c-.26-2.443.518-5.037 2.306-6.606 3.74 1.16 7.166 2.498 10.155 4.108 3.577 4.177 5.528 11.875 7.262 20.051z" fill="#FCAF75"/><path opacity=".5" d="M480.514 67.639c-3.249-5.952-6.784-12.394-7.972-14.578-2.279.11-4.695-.055-7.193-.423-2.347-.341-4.763-.874-7.248-1.542l-1.296-2.02-.109-.492c2.634 1.174 5.405 1.91 8.312 2.334 2.88.423 5.869.519 8.94.382-.327 3.071 4.423 9.637 6.566 16.339z" fill="#15ABEB"/><path d="M518.418 151.064c-1.883 0-4.286-1.42-7.698-4.518a1.558 1.558 0 01-.109-2.211 1.559 1.559 0 012.211-.11c4.477 4.054 5.651 3.713 5.692 3.686.082-.028.491-.287.873-2.689l.928-19.533c.041-.859.779-1.542 1.638-1.487.86.041 1.529.778 1.488 1.638l-.955 19.778c-.246 1.556-.696 4.449-2.935 5.241a3.05 3.05 0 01-1.133.205zm-130.775-31.271l.014 2.498 7.098 4.204-1.27-5.924-5.842-.778z" fill="#DADADA"/><path d="M393.485 120.571l1.27 5.924 19.15-11.056-1.27-5.924-19.15 11.056z" fill="#878787"/><path d="M387.643 119.793l5.842.778 19.15-11.056-5.842-.778-19.15 11.056z" fill="#9D9D9C"/><path d="M402.685 118.06a2.498 2.498 0 01-2.225-1.352 2.51 2.51 0 011.065-3.385l2.334-1.215a2.51 2.51 0 012.32 4.45l-2.334 1.215a2.6 2.6 0 01-1.16.287z" fill="#3C3C3B"/><path d="M484.745 68.471c.969 1.87 1.106 4 .833 6.251l-4.177 3.14-1.87-3.85 1.379-5.596 3.835.055z" fill="#E89B61"/><path d="M405.701 115.862a1.902 1.902 0 01-1.679-1.01 1.88 1.88 0 01.806-2.539l80.518-41.808a1.878 1.878 0 012.538.805 1.878 1.878 0 01-.805 2.54l-80.518 41.807a1.934 1.934 0 01-.86.205z" fill="#575756"/><path d="M438.569 75.705c-.355.232-.723.45-1.106.642-1.951.996-4.285 1.433-6.278.6l-1.01-3.712c-3.044-4.71-3.795-9.268-1.72-13.131 3.781.519 6.852 3.603 8.08 7.78.301 1.01.492 2.088.56 3.208 0 .068 0 .15.014.218 1.146 1.447.805 2.061 1.46 4.395z" fill="#EDEDED"/><path d="M440.794 93.218l-2.907.873-4.832-10.196-1.884-6.961c1.993.832 4.327.396 6.279-.6a8.65 8.65 0 001.105-.642 60.31 60.31 0 01.874 3.603l1.297 13.295.013.109.055.519zm-13.295-64.33c-3.385 1.078-4.558 3.699-3.685 7.766.778 2.635 2.116 4.996 3.917 7.139 1.011 1.201 2.416 2.28 4.245 3.14.533.245 1.161.272 1.693.04l.409-.177s1.092 1.747 1.42 2.962c.328 1.214.996 3.29.996 3.29l10.388-5.42-5.965-4.627c.15-4.408.327-7.944-2.321-11.492-2.456-3.495-6.661-4.027-11.097-2.621z" fill="#FCAF75"/><path d="M481.496 121.363c-13.704 4.067-26.575 9.418-39.651 1.255-.123-5.541-.082-11.179.396-16.652.737-8.695 2.552-16.925 6.456-23.559l4.258-1.528 17.24-6.197c3.371 4.422 5.227 9.95 5.023 16.952 1.119 10.851 3.016 20.938 6.278 29.729z" fill="#15ABEB"/><path d="M464.981 83.909l-12.489-1.147-3.795-.341c-3.617-6.347-6.811-6.006-11.588-11.33a2.471 2.471 0 01-.191-.218c-.26-1.092-.724-2.184-1.324-3.22-1.843-3.29-4.941-6.143-7.139-7.549 0 0 7.507-9.91 11.916-12.612 4.409-2.703 12.353-4.791 12.353-4.791 2.593 1.72 4.613 4.122 5.964 7.303 0 0 3.454 10.045 4.914 16.638.942 4.245 4.532 5.2 6.593 8.067 5.719 7.862-5.214 9.2-5.214 9.2z" fill="#15ABEB"/><path d="M430.434 43.042l-2.307-.805c-1.883-1.242-3.357-2.689-4.231-4.395-1.652-4.204.232-8.613 4.818-9.964 5.242-1.543 7.63.15 10.21 3.262 2.361 2.825 3.18 7.958 1.761 11.575l-3.14 1.842c-2.334 1.202-4.818.287-7.111-1.515z" fill="#1D1D1B"/><path d="M428.373 42.47c-.109-.383-.396-.765-.232-1.202.164-.45.833-.492 1.201-.3.874.477 1.256 1.528 1.474 2.416.055.259.219.778.055 1.023-.232.328-.778-.027-1.024-.177-.382-.232-.819-.546-1.024-.956-.136-.232-.409-.641-.45-.805z" fill="#FCAF75"/><path d="M438.255 40.858c2.13-1.692 19.041 6.498.314 25.184.792-10.988-4.941-21.498-.314-25.184z" fill="#1D1D1B"/><path d="M436.358 95.948l.751-.342c-.055 1.72.314 2.28 1.351 3.467l.778.423 2.825-.928a1.27 1.27 0 00.792-.75l.464-1.256-.641.259c-.86-.737-1.529-2.225-1.379-3.44l-.546-.805-3.194.792c-.6.75-1.01 1.597-1.201 2.58zm48.046-29.047l.273 3.235c-.669 1.53-1.829 2.02-3.399 3.058l-.314 1.706.41 2.034c.054.955-.901 1.133-1.133.204l-.901-2.32.123-1.924c-.041-1.243.245-2.498.942-3.768l1.242-2.757 2.757.532z" fill="#FCAF75"/><path d="M486.369 74.3l-.314-.847a.965.965 0 00-1.419-.478l-3.836 1.911.273 2.034-1.092.655 1.27.369c.491 0 .969-.164 1.351-.478l3.099-2.02.668-1.147z" fill="#FCAF75"/><path d="M521.926 172.862a2.894 2.894 0 11-2.894-2.894 2.904 2.904 0 012.894 2.894zm22.112 3.535a2.896 2.896 0 01-2.894 2.894 2.895 2.895 0 010-5.788 2.887 2.887 0 012.894 2.894z" fill="#000"/><path d="M550.617 163.171l-.014 4.272c-.013 2.634-1.747 5.269-5.2 7.289-6.975 4.054-18.318 4.054-25.333 0-3.536-2.034-5.296-4.723-5.296-7.385l.013-4.272c-.013 2.675 1.761 5.351 5.296 7.385 7.016 4.053 18.359 4.053 25.334 0 3.453-2.007 5.186-4.641 5.2-7.289z" fill="#575756"/><path d="M545.321 155.786c7.016 4.054 7.057 10.619.082 14.673-6.975 4.054-18.317 4.054-25.333 0-7.03-4.054-7.057-10.619-.082-14.673 6.975-4.054 18.317-4.054 25.333 0z" fill="#B2B2B2"/><path d="M517.559 140.867c-.028 8.368 6.729 15.165 15.096 15.179 8.367.027 15.164-6.73 15.178-15.097.027-8.367-6.729-15.164-15.096-15.178-8.367-.027-15.165 6.729-15.178 15.096z" fill="#EA4A49"/><path d="M547.833 140.949l-.014 20.297c0 2.225-1.474 4.463-4.395 6.156-5.897 3.426-15.478 3.426-21.416 0-2.989-1.72-4.477-3.986-4.477-6.238l.014-20.296c0 2.252 1.487 4.518 4.477 6.237 5.923 3.426 15.519 3.426 21.416 0 2.921-1.692 4.395-3.917 4.395-6.156z" fill="#EA4A49"/><path d="M547.819 143.597c.014 2.239-1.447 4.491-4.395 6.197-5.897 3.426-15.478 3.426-21.416 0-2.962-1.72-4.463-3.958-4.477-6.197v4.614c.014 2.238 1.501 4.491 4.477 6.197 5.924 3.426 15.519 3.426 21.416 0 2.948-1.706 4.409-3.959 4.395-6.197v-4.614z" fill="#fff"/><path d="M547.819 149.685c.014 2.238-1.447 4.491-4.395 6.197-5.897 3.426-15.478 3.426-21.416 0-2.962-1.72-4.463-3.959-4.477-6.197v1.638c.014 2.238 1.501 4.491 4.477 6.197 5.924 3.426 15.519 3.426 21.416 0 2.948-1.706 4.409-3.959 4.395-6.197v-1.638z" fill="#fff"/><path d="M519.879 159.103l.832-.477c.519-.301 1.215-.26 1.993.191 1.57.901 2.839 3.098 2.839 4.927 0 .915-.327 1.556-.846 1.856l-.833.478c.519-.3.847-.942.847-1.856 0-1.816-1.27-4.027-2.839-4.928-.765-.45-1.475-.491-1.993-.191z" fill="#B2B2B2"/><path d="M519.046 160.96c0-1.816 1.269-2.566 2.839-1.666 1.57.901 2.839 3.099 2.839 4.928 0 1.815-1.269 2.566-2.839 1.665-1.57-.914-2.839-3.112-2.839-4.927z" fill="#575756"/><path d="M520.042 161.383c-.068-1.229.71-1.679 1.734-1.01s1.911 2.197 1.979 3.426c.068 1.228-.71 1.679-1.733 1.01-1.024-.669-1.911-2.198-1.98-3.426z" fill="#000"/><path opacity=".3" d="M530.73 126.536c-7.057.955-12.53 7.015-12.544 14.332 0 1.76.314 3.48.915 5.091.819.805 1.678 1.556 2.607 2.156-.301-10.209 2.661-17.457 9.022-21.579z" fill="#fff"/><path d="M538.264 127.218v1.324c0 .819-.546 1.638-1.624 2.266-2.17 1.256-5.705 1.256-7.889 0-1.106-.642-1.652-1.474-1.652-2.293v-1.324c0 .833.546 1.665 1.652 2.293 2.184 1.256 5.719 1.256 7.889 0 1.078-.628 1.624-1.447 1.624-2.266z" fill="#000"/><path d="M536.626 124.925c2.184 1.256 2.198 3.303.028 4.573-2.17 1.255-5.706 1.255-7.89 0-2.183-1.256-2.197-3.304-.027-4.573 2.17-1.269 5.692-1.269 7.889 0z" fill="#B2B2B2"/><path d="M521.899 127.341h-.137a1.565 1.565 0 01-1.419-1.706c.901-10.183 5.637-10.783 7.084-10.729 3.904.164 6.865 4.805 6.893 10.797 0 .86-.696 1.597-1.556 1.597-.874 0-1.57-.669-1.584-1.529-.027-4.968-2.279-7.671-3.89-7.739-1.569-.082-3.33 2.348-3.822 7.862a1.583 1.583 0 01-1.569 1.447zm-10.128 19.614c-.369 0-.751-.136-1.051-.409-8.859-7.999-11.547-23.791-11.739-31.858-.286-11.848-1.951-31.23-2.62-36.594a6.234 6.234 0 00-3.03-4.627 6.233 6.233 0 00-5.515-.437l-.095.041c-.806.314-1.72-.068-2.034-.873-.314-.806.068-1.72.874-2.034l.095-.041a9.355 9.355 0 018.272.655 9.384 9.384 0 014.545 6.947c.669 5.406 2.361 24.952 2.634 36.908.164 7.044 2.621 22.304 10.701 29.592a1.56 1.56 0 01.11 2.212c-.287.341-.71.518-1.147.518z" fill="#DADADA"/><path opacity=".5" d="M453.461 81.247c-.328.491-.656.996-.97 1.515-4.231 6.825-7.52 15.383-10.018 25.374l-.246-2.17c.737-8.695 2.553-16.925 6.456-23.559-3.617-6.347-6.811-6.005-11.588-11.329 0 .069 0 .15.014.219 1.132 1.446.791 2.06 1.446 4.395.314 1.146.615 2.361.874 3.603l1.297 13.295-2.225-11.343-1.051-4.9-1.87-8.695c.327.069.641.137.955.232 5.569 1.693 10.128 8.517 16.407 13.008.177.123.355.232.519.355z" fill="#15ABEB"/></svg>