<svg width="551" height="206" viewBox="0 0 551 206" fill="none" xmlns="http://www.w3.org/2000/svg">
<path d="M4.10847 149.911L63.7564 110.724L67.8785 2.375L63.7427 0L0 36.7988V38.5186V39.8836V147.536L4.10847 149.911ZM59.334 7.64367V12.421V38.4777V63.033V108.185L4.40876 139.893V39.3512L59.334 7.64367Z" fill="#9D9D9C"/>
<path d="M4.10852 149.911L67.8649 113.099L67.8786 27.0122L67.8649 25.6063V24.2414V23.1085C67.8649 23.0812 67.8649 2.375 67.8649 2.375L4.12217 39.1875L4.10852 149.911ZM8.53093 142.295L8.54458 138.855L8.53093 41.7399L63.4698 10.0187V19.8462L63.4562 29.3872V110.56L8.53093 142.295Z" fill="#EDEDED"/>
<path d="M8.53088 138.855V41.7398L60.4942 11.7521V108.854L8.53088 138.855Z" fill="#A4D9F5"/>
<path opacity="0.3" d="M9.84119 136.59V98.7535L47.6637 20.6652L59.1838 14.0179V38.464L11.2607 135.771L9.84119 136.59Z" fill="white"/>
<path opacity="0.3" d="M16.5431 132.713L59.1838 47.814V63.0194L26.398 127.021L16.5431 132.713Z" fill="white"/>
<path d="M27.8722 72.219L28.2407 70.6903C28.6912 69.339 29.7968 69.0387 29.4965 70.6084L28.1452 77.8289L27.8722 72.219Z" fill="#FCAF75"/>
<path d="M30.7386 63.8247L27.2989 61.8182L16.7616 67.9059L16.7889 75.3038L20.2285 77.2967L30.7522 71.2227L30.7386 63.8247Z" fill="#15ABEB"/>
<path d="M20.2285 77.2966L16.7889 75.3037L16.7616 67.9058L20.2012 69.8986L20.2285 77.2966Z" fill="#2F608F"/>
<path d="M20.2285 77.2966L16.7889 75.3037L16.7616 67.9058L20.2012 69.8986L20.2285 77.2966Z" fill="#2F608F"/>
<path d="M20.2012 69.8987L16.7616 67.9059L27.2989 61.8182L30.7386 63.8247L20.2012 69.8987Z" fill="#4A8BC9"/>
<path d="M30.7386 63.8247L30.7523 71.2227L20.2286 77.2967L20.2013 69.8987L30.7386 63.8247Z" fill="#15ABEB"/>
<path d="M25.0878 85.5135C24.6783 85.7865 22.8629 82.5107 22.1668 80.8864C21.3478 78.4295 20.7882 76.4367 21.3888 73.584L19.2868 69.0387C18.9046 68.2061 19.7099 67.2916 20.2968 68.0696L22.1532 71.3455L21.1294 65.8038C20.7473 64.3979 21.9075 63.5789 22.276 64.6163L24.4053 70.2672L23.7501 63.9202C23.6409 62.7327 24.8694 62.0775 25.197 63.1831L26.4664 69.885L26.8349 64.7801C26.8895 63.4015 28.0633 63.1695 28.1452 64.4252L28.3363 77.01C28.1043 78.2657 26.6575 81.0229 26.4937 81.2003L27.2444 84.7492L25.0878 85.5135Z" fill="#FCAF75"/>
<path d="M82.115 121.152L81.8284 124.537L81.1596 126.53L79.4124 128.891C78.9757 129.628 77.2012 130.516 77.2012 130.516C74.8126 131.894 73.0518 128.646 73.3521 127.444L74.9764 122.667C74.9764 122.667 75.2084 121.657 74.8126 120.852C74.4987 120.224 72.0554 121.534 72.0554 121.534C71.1955 122.026 70.4311 122.462 69.8169 122.817C68.9979 122.94 68.6431 122.735 68.7659 122.189L70.4584 120.429L72.3421 118.777L73.1747 118.054C74.5533 117.166 75.8499 116.47 76.8737 116.334L76.9692 115.979L77.1739 115.283L79.0166 115.569L81.7601 115.993L81.6236 118.081L81.7874 119.064L82.115 121.152Z" fill="#FCAF75"/>
<path opacity="0.3" d="M74.5532 120.551L78.2659 119.692L80.2587 123.049L78.5389 129.11C78.6071 127.499 78.6753 125.561 77.6107 125.179L75.7544 124.919L77.2695 123.896L77.0374 122.394L73.8162 121.889L74.5532 120.551Z" fill="#FCAF75"/>
<path opacity="0.3" d="M72.3419 118.763L78.9755 117.999C77.9655 117.467 77.2148 116.812 76.9691 115.979L76.8599 116.334C75.8498 116.47 74.5531 117.167 73.1609 118.04L72.3419 118.763Z" fill="#FCAF75"/>
<path d="M72.1782 76.0135L74.8535 89.1715L75.7544 100.187C76.5597 106.574 77.4742 111.707 76.9009 115.051C76.86 115.392 76.8873 115.692 76.9692 115.979C77.2149 116.812 77.9656 117.467 78.9756 117.999C79.7809 118.449 80.75 118.791 81.7738 119.05C83.3707 112.485 84.5992 106.165 84.0669 101.06L83.0022 88.0522C82.7156 80.5997 79.3715 75.0717 72.1782 76.0135Z" fill="#EDEDED"/>
<path opacity="0.5" d="M75.7544 100.173C76.5597 106.561 77.4742 111.693 76.9009 115.037C76.86 115.378 76.8873 115.679 76.9692 115.965C77.2149 116.798 77.9656 117.453 78.9756 117.985C78.962 117.166 78.9893 116.361 79.0166 115.542C79.4397 103.203 83.1524 92.8705 78.921 87.1787L74.8535 89.1442L75.7544 100.173Z" fill="#15ABEB"/>
<path d="M42.6272 196.401C42.6272 194.026 44.4699 193.112 47.1861 192.812C49.5611 192.812 52.7687 193.876 56.9727 194.845L61.7637 197.466C62.6782 199.923 62.6372 202.12 62.1185 204.127C60.7673 205.287 59.0611 206.011 57.4778 205.587L52.0999 203.308L51.7177 202.53C47.4181 202.052 42.6272 200.114 42.6272 196.401Z" fill="#1D1D1B"/>
<path d="M60.1122 186.86C60.1122 184.922 61.8593 184.581 64.4527 184.376C69.1481 184.376 69.3392 186.724 73.666 186.628L77.911 189.208C78.7846 191.692 78.6071 194.354 78.1021 196.347C76.8191 197.466 74.8535 197.712 73.3794 197.493L69.0252 194.927L68.6567 194.135C64.5482 193.521 60.1122 190.477 60.1122 186.86Z" fill="#1D1D1B"/>
<path d="M75.4813 120.552L59.8527 127.09C59.8254 129.86 59.8937 132.467 60.1667 134.406C61.1494 141.613 64.0568 152.491 64.0568 152.491C66.1588 161.745 66.9914 173.238 67.4828 185.345C67.5646 189.699 74.0481 193.521 78.1975 189.399C79.385 174.617 79.385 160.271 75.9044 150.758C77.5697 143.25 76.0273 134.733 75.5632 126.093C75.6724 124.974 75.0445 120.743 75.4813 120.552Z" fill="#0F7BAA"/>
<path d="M46.9678 142.855C47.5548 150.048 49.8479 160.913 49.8479 160.913L51.4449 193.712C51.1446 195.883 52.0318 197.657 53.4923 198.735C55.7581 200.387 59.4025 200.36 61.9412 197.575C63.9614 182.82 64.7667 168.679 61.8048 159.193C63.8931 151.7 63.7839 144.725 63.7976 136.085C68.6158 134.119 76.0547 131.321 75.7544 123.732C75.6453 120.838 75.2085 118.026 74.4714 115.31C74.3349 114.792 74.1848 114.273 74.021 113.754C73.8845 113.358 73.7616 112.963 73.6251 112.58C70.9635 117.904 62.419 121.22 53.1237 120.047C52.7142 119.992 52.3184 119.937 51.9089 119.869C50.9125 119.705 49.9298 119.487 48.9197 119.228C48.9197 119.228 48.8378 119.76 48.7013 120.674C48.6058 121.425 48.4556 122.408 48.3055 123.582C47.5957 128.932 46.572 137.996 46.9678 142.855Z" fill="#15ABEB"/>
<path opacity="0.5" d="M46.9677 142.841C47.541 150.034 49.8477 160.899 49.8477 160.899L51.4447 193.712C51.1308 195.883 52.0316 197.643 53.5058 198.722C52.0726 184.922 51.4447 171.982 53.5058 161.964C50.421 150.594 49.0151 138.692 52.5639 129.915C52.523 126.407 52.1408 123.24 52.8915 120.688C51.5812 120.278 50.2572 119.787 48.9332 119.187C48.9196 119.214 46.3808 135.661 46.9677 142.841Z" fill="#15ABEB"/>
<path d="M78.6753 86.7691C78.4159 89.8266 78.1156 92.966 77.7607 95.9825C76.7507 104.827 75.454 112.744 74.4576 115.296C70.9906 124.537 63.1422 126.134 52.4957 122.23C51.2672 121.78 49.9978 121.261 48.6875 120.661C48.6193 120.633 48.551 120.606 48.4691 120.565C47.1315 115.324 47.4045 112.28 47.1861 105.865C47.1724 105.169 47.1451 104.431 47.1042 103.653C47.0632 102.903 47.0223 102.097 46.9677 101.251C46.8448 99.2174 46.8858 97.3065 46.7766 94.9042C46.722 93.5938 46.5992 92.1334 46.3944 90.4408C46.5309 90.318 46.8448 90.1542 47.2134 90.0177C47.2953 89.9767 47.3908 89.9494 47.4864 89.9221C47.541 89.9085 48.1825 89.3489 48.2234 89.3352C48.9195 89.1305 48.5101 88.5982 48.7967 88.4207C49.5474 87.9839 50.2708 87.5335 50.9943 87.0967C51.7313 86.6326 52.4684 86.1822 53.1782 85.7318C58.829 82.142 63.579 78.8252 69.1343 76.887C69.6121 76.7232 70.0898 76.5594 70.5812 76.4092C71.0998 76.2591 71.6049 76.1226 72.1372 75.9998C76.8599 77.3101 78.6616 81.2411 78.6753 86.7691Z" fill="#15ABEB"/>
<path d="M73.8843 90.4272C69.7758 93.9897 65.995 96.0371 60.8628 97.8252C61.7636 90.4409 58.7471 84.6262 53.2191 85.7455C58.6925 81.8281 62.3779 79.303 67.9195 77.3647C73.3383 77.3647 75.3994 85.1176 73.8843 90.4272Z" fill="#EDEDED"/>
<path d="M66.2816 77.9654L64.6846 71.2499L54.4066 74.7441L56.0855 83.9165C59.8527 83.9029 67.5646 80.4359 66.2816 77.9654Z" fill="#FCAF75"/>
<path d="M56.0309 77.4604C56.0309 77.4604 54.2156 79.5897 52.5776 77.1874C50.926 74.7851 48.9742 67.6874 51.3082 62.8965C53.6423 58.1055 60.5216 66.964 60.5216 66.964L56.0309 77.4604Z" fill="#FCAF75"/>
<path d="M65.9268 75.3857C65.9268 75.3857 62.0094 76.6004 58.5425 77.8425C57.6553 78.1565 56.0856 77.0236 55.485 76.3002L54.4067 75.0035L54.1474 71.9733L52.3047 70.6766L52.9462 68.6155C51.8952 68.0423 51.1035 66.9776 50.4211 65.7082C48.7968 60.344 55.7443 56.4949 61.8456 58.3785C69.6531 60.6579 69.6121 69.612 65.9268 75.3857Z" fill="black"/>
<path d="M52.8643 71.5502C52.8779 71.2362 52.9052 70.9223 53.0144 70.6356C53.1236 70.349 53.3284 70.076 53.6286 69.9668C54.1746 69.7621 54.7888 70.1989 54.9936 70.7448C55.1983 71.2908 55.1028 71.8914 55.0209 72.4647C54.9526 72.8742 54.8844 73.2973 54.8161 73.7068C54.7615 74.048 54.6933 74.4165 54.5022 74.7032C54.3111 75.0035 53.9562 75.2218 53.615 75.14C53.3693 75.0854 53.1646 74.867 53.069 74.6349C52.9598 74.4029 52.9325 74.1435 52.9189 73.8842C52.837 73.1062 52.8233 72.3282 52.8643 71.5502Z" fill="#FCAF75"/>
<path d="M57.6689 100.118C57.0273 106.957 54.1883 109.864 50.4347 108.431L47.1998 105.865C47.1861 105.169 47.1588 104.432 47.1179 103.654C47.0769 102.903 47.036 102.098 46.9814 101.251C46.8585 99.2175 46.8995 97.3066 46.7903 94.9043L47.2271 90.0178C47.309 89.9769 47.4045 89.9496 47.5001 89.9223C47.5547 89.9086 48.1962 89.349 48.2371 89.3354C48.9332 89.1306 48.5238 88.5983 48.8104 88.4208C49.5611 87.9841 50.2845 87.5336 51.008 87.0969C58.2558 86.5099 59.1157 92.3792 57.6689 100.118Z" fill="#EDEDED"/>
<path d="M22.2623 81.6917C22.822 85.923 23.1768 89.5947 24.3097 93.2664C24.4326 93.6622 24.5554 94.0581 24.6783 94.4539C25.9613 98.5351 27.3126 102.193 29.7286 105.141C35.5978 105.728 41.3988 105.155 47.1315 103.654C48.1689 103.381 49.179 103.08 50.2027 102.753C50.2436 102.739 50.2982 102.725 50.3392 102.712C50.9124 102.534 51.4721 102.33 52.0453 102.139C58.5561 100.992 61.3406 85.8821 49.6567 88.2707C49.411 88.298 49.138 88.3663 48.8514 88.4345C48.319 88.571 47.7185 88.7621 47.0906 88.9941C47.0497 89.0078 46.9951 89.0351 46.9541 89.0487C46.5992 89.1852 46.2443 89.349 45.8758 89.4992C43.9512 90.3318 41.9584 91.4374 40.8119 92.2973C37.9591 92.4474 36.526 92.7614 34.3694 93.9079C34.3557 93.9079 30.452 84.2714 27.4764 78.5114C24.8967 78.1974 22.6718 79.576 22.2623 81.6917Z" fill="#EDEDED"/>
<path opacity="0.5" d="M24.6783 94.4402C25.9614 98.5214 27.3127 102.179 29.7286 105.128C35.5979 105.715 41.3989 105.141 47.1316 103.64C47.5138 111.625 47.0088 114.737 48.4966 120.551C48.5648 120.579 48.6331 120.606 48.715 120.647C50.0253 121.248 51.2947 121.766 52.5095 122.217C52.2911 121.439 52.0864 120.647 51.9089 119.842C50.6805 114.546 50.2983 108.745 50.3392 102.698C50.3392 101.511 50.3665 100.323 50.3938 99.1219C49.3155 99.9545 48.1826 100.651 46.9951 101.238C42.2997 103.531 36.7308 103.927 30.6022 103.094L24.6783 94.4402Z" fill="#15ABEB"/>
<path d="M78.9209 87.1923C78.6616 90.2498 78.1156 92.9523 77.7744 95.9825C76.8735 96.3783 76.2729 96.0508 76.3002 94.2081C77.6242 85.1722 76.9963 78.3202 70.6221 76.4229C71.1271 76.2728 71.6458 76.1363 72.1644 76.0134C77.4058 77.3647 78.9073 81.6779 78.9209 87.1923Z" fill="#EDEDED"/>
<path d="M229.419 180.437L152.873 136.254L260.458 74.1354L336.99 118.332L229.419 180.437Z" fill="#F9B233"/>
<path opacity="0.4" d="M160.667 131.763L237.199 175.946L232.627 178.594L156.095 134.398L160.667 131.763Z" fill="#F9B233"/>
<path opacity="0.4" d="M252.678 78.6397L329.21 122.823L333.783 120.188L257.25 75.9917L252.678 78.6397Z" fill="#F9B233"/>
<path d="M164.694 129.429L241.24 173.612L238.947 174.936L162.414 130.753L164.694 129.429Z" fill="white"/>
<path d="M248.638 80.9601L325.17 125.157L327.463 123.833L250.931 79.6498L248.638 80.9601Z" fill="white"/>
<path opacity="0.4" d="M169.034 126.931L245.567 171.115L243.287 172.439L166.741 128.242L169.034 126.931Z" fill="#F9B233"/>
<path opacity="0.4" d="M244.311 83.4716L320.843 127.655L323.122 126.331L246.59 82.1476L244.311 83.4716Z" fill="#F9B233"/>
<path d="M203.444 112.34V142.301L206.679 144.171V110.484L203.444 112.34Z" fill="white"/>
<path d="M219.046 103.332H270.941L274.176 105.202H215.811L219.046 103.332Z" fill="white"/>
<path opacity="0.4" d="M192.429 118.701V135.94L200.169 140.417V114.237L192.429 118.701Z" fill="#F9B233"/>
<path opacity="0.4" d="M230.061 96.9708H259.926L267.665 101.448H222.322L230.061 96.9708Z" fill="#F9B233"/>
<path d="M274.203 149.385H215.702L218.937 151.241H270.968L274.203 149.385Z" fill="white"/>
<path d="M283.198 144.184V110.415L286.433 112.272V142.314L283.198 144.184Z" fill="white"/>
<path opacity="0.4" d="M267.692 153.138H222.212L229.951 157.602H259.953L267.692 153.138Z" fill="#F9B233"/>
<path opacity="0.4" d="M289.695 140.431V114.169L297.448 118.632V135.967L289.695 140.431Z" fill="#F9B233"/>
<path opacity="0.4" d="M211.184 107.795V146.778H278.707V107.795H211.184ZM268.934 141.154H220.929V113.432H268.934V141.154Z" fill="#F9B233"/>
<path d="M225.98 116.353V138.233C225.98 138.233 263.884 138.233 263.898 138.233V116.353H225.98ZM258.411 135.066H231.467V119.506H258.411V135.066Z" fill="#F9B233"/>
<path opacity="0.2" d="M295.1 101.489C298.745 102.431 296.984 108.832 295.714 110.866C293.571 114.319 290.569 116.558 286.87 118.223C280.331 121.158 273.698 125.198 266.86 127.286C259.653 129.498 251.49 126.385 244.393 128.61C240.202 129.921 236.135 131.954 231.985 133.674C229.651 134.643 223.741 138.752 222.376 134.398C221.366 131.231 226.444 126.577 228.123 124.393C230.484 121.294 231.999 117.609 233.787 114.21C238.005 106.157 245.389 101.366 253.92 98.527C261.618 95.9746 267.665 91.9889 275.977 92.8216C279.417 93.1628 282.979 93.2856 286.201 94.5823C289.49 95.92 291.169 97.5715 293.708 99.9602C294.336 100.561 294.308 101.271 295.1 101.489Z" fill="#634E42"/>
<path d="M284.222 96.6024L285.655 94.9372L288.74 90.1599C290.732 88.6038 293.339 89.2727 294.8 91.6613L296.793 96.0837C296.793 96.0837 298.322 100.52 298.526 102.717C298.731 104.929 299.004 108.259 297.339 108.996C294.923 110.115 292.275 109.01 292.084 107.413L290.405 103.072L286.542 105.98L284.222 96.6024Z" fill="black"/>
<path d="M240.38 129.921C240.025 131.586 235.63 132.65 235.63 132.65C235.63 132.65 229.46 138.451 224.233 138.056C221.148 137.824 220.097 137.005 219.619 136.09C219.141 135.189 219.592 134.029 220.192 133.183C220.807 132.337 227.194 129.62 228.805 127.068C229.583 125.826 230.88 123.205 230.88 123.205L231.412 118.332L238.455 117.5L239.479 123.737C240.53 125.02 240.571 128.992 240.38 129.921Z" fill="black"/>
<path d="M227.126 99.6599C228.682 108.013 229.597 116.353 229.569 124.679C232.176 126.454 235.234 127.218 237.418 126.795C238.824 126.522 239.875 125.758 240.189 124.461C241.267 116.845 240.421 108.136 239.738 100.779C239.916 100.752 240.079 100.711 240.243 100.656C242.113 100.192 243.942 99.3323 245.853 98.2131C246.031 98.1175 246.194 98.0083 246.372 97.9128C247.109 97.476 247.846 97.0119 248.61 96.5206C248.938 96.3022 249.279 96.0838 249.62 95.8654C250.398 95.3604 251.204 94.8417 252.036 94.3094C252.391 94.0773 252.76 93.8453 253.128 93.6132C253.565 93.3403 254.002 93.0673 254.452 92.7943C254.766 92.6032 255.094 92.4121 255.421 92.221C256.199 91.7569 257.005 91.2928 257.851 90.8424C257.428 94.364 257.319 97.8719 257.401 101.366C257.401 101.53 257.401 101.694 257.414 101.857C257.414 102.212 257.428 102.567 257.455 102.908C257.469 103.441 257.496 103.973 257.537 104.492C257.592 105.488 257.66 106.471 257.755 107.454C257.796 107.959 257.837 108.464 257.892 108.969C258.042 110.47 258.22 111.972 258.411 113.473C258.547 114.47 258.67 115.466 258.82 116.462C258.943 117.281 259.066 118.1 259.189 118.919C259.271 119.465 259.352 119.998 259.434 120.53C259.53 121.158 259.639 121.772 259.735 122.4C259.898 123.383 260.049 124.365 260.212 125.334C261.168 127.314 262.505 128.501 264.416 128.542C271.61 129.757 280.031 115.916 289.49 105.311C290.651 101.312 289.654 95.6607 285.013 95.5515C283.485 96.0428 281.478 97.3668 279.472 99.0867C277.179 101.052 274.858 103.536 273.179 105.966L276.169 92.2346C276.564 90.6786 276.837 89.2454 277.001 87.9214C277.165 86.6384 277.22 85.4645 277.151 84.3726C276.974 81.1104 275.841 78.6262 273.725 76.5242L264.157 76.3331L251.368 76.0874C250.357 76.5105 249.334 76.9883 248.324 77.5206C241.868 80.8647 235.616 86.1061 229.447 92.1528C227.113 95.0874 226.348 97.5989 227.126 99.6599Z" fill="#15ABEB"/>
<path opacity="0.3" d="M237.418 126.795C238.824 126.522 239.875 125.757 240.189 124.461C241.267 116.844 240.421 108.136 239.738 100.779C239.916 100.752 240.08 100.711 240.243 100.656C242.113 100.192 243.942 99.3322 245.853 98.213C246.031 98.1174 246.194 98.0082 246.372 97.9127C247.109 97.4759 247.846 97.0118 248.61 96.5205C248.938 96.3021 249.279 96.0837 249.62 95.8653C250.398 95.3603 251.204 94.8416 252.036 94.3093C252.391 94.0772 252.76 93.8452 253.128 93.6131C253.565 93.3402 254.002 93.0672 254.452 92.7942C254.766 92.6031 255.094 92.412 255.421 92.2209C256.199 91.7568 257.005 91.2927 257.851 90.8423C257.428 94.3639 257.319 97.8717 257.401 101.366C257.414 101.543 257.414 101.694 257.414 101.857C257.414 102.212 257.428 102.567 257.455 102.908C257.469 103.441 257.496 103.973 257.537 104.492C257.592 105.488 257.66 106.471 257.756 107.454C257.796 107.959 257.837 108.464 257.892 108.969C258.042 110.47 258.22 111.972 258.411 113.473C258.547 114.469 258.67 115.466 258.82 116.462C258.943 117.281 259.066 118.1 259.189 118.919C259.271 119.465 259.353 119.997 259.434 120.53C259.53 121.158 259.639 121.772 259.735 122.4C259.898 123.382 260.049 124.365 260.212 125.334C261.168 127.314 262.506 128.501 264.416 128.542C271.61 129.757 280.031 115.916 289.49 105.311L270.095 123.655C267.269 125.621 264.908 125.826 263.188 123.655C262.888 122.277 262.574 120.885 262.273 119.465C261.482 115.752 261.263 111.931 261.591 108.15L262.642 96.2884C267.87 93.463 272.592 89.1907 277.124 84.3588C276.947 81.0966 275.814 78.6124 273.698 76.5104L264.13 76.3193L248.296 77.4932L248.31 77.5614C249.757 82.2432 248.802 87.3617 245.635 91.1153C243.123 94.1045 239.998 97.0528 235.821 99.6325C238.524 106.566 238.551 116.094 237.418 126.795Z" fill="#3F668A"/>
<path d="M242.455 64.1305L244.434 46.1815C246.659 33.9926 260.649 35.9035 256.827 48.5975L251.955 67.2016C250.016 70.3683 248.228 72.9753 246.386 75.2821L239.097 70.1089L242.455 64.1305Z" fill="#EDEDED"/>
<path d="M246.358 51.4911C246.358 51.9824 246.59 56.5004 246.617 57.06C246.74 64.185 247.846 71.7741 248.419 75.3229C248.638 76.6196 248.774 77.3703 248.774 77.3703C250.712 81.8064 262.396 85.055 266.436 85.246C274.176 85.6146 275.527 80.1139 275.527 80.1139L276.087 61.3732L276.1 61.0866L276.182 59.1757L276.742 46.6319C274.121 43.4652 271.364 41.8 268.743 40.4214C262.464 36.2447 256.718 34.4566 249.074 36.6405C249.074 36.6405 247.532 41.2131 246.481 46.9322C246.358 47.5873 246.372 50.3445 246.358 51.4911Z" fill="#15ABEB"/>
<path d="M264.826 60.0766C264.73 67.1743 269.781 68.157 269.781 68.157L275.199 65.7957L275.418 60.8136L275.432 60.5134L276.25 46.0177C275.486 45.0895 274.858 44.3661 274.012 43.8611C267.624 45.1305 264.908 53.5249 264.826 60.0766Z" fill="#EDEDED"/>
<path d="M250.016 49.3481C252.391 52.2827 256.268 53.8524 261.564 55.4494C263.215 48.4199 265.904 42.3869 271.46 42.0047C270.409 41.2949 269.412 40.5033 268.388 39.9709C264.894 37.6505 261.714 36.2856 258.411 35.7396C253.238 38.6333 250.126 42.9875 250.016 49.3481Z" fill="#EDEDED"/>
<path d="M260.868 36.0535C261.045 36.0535 263.789 38.1145 263.789 38.1145C267.802 40.394 263.202 51.3135 257.332 48.57L251.859 44.7618L260.868 36.0535Z" fill="#FFAD73"/>
<path opacity="0.3" d="M250.48 44.8847C250.48 48.9249 250.426 53.5793 255.012 53.7704C260.677 52.2007 261.182 42.6052 260.567 39.4795L250.48 44.8847Z" fill="#15ABEB"/>
<path d="M254.084 24.8064C258.998 24.861 261.809 27.1677 262.001 32.2999C261.864 37.6914 261.591 40.94 258.984 44.6253C257.36 46.6591 255.162 48.1332 252.651 47.9967C249.662 47.8466 245.239 40.6807 244.816 35.4939C244.079 30.2525 248.542 26.2396 254.084 24.8064Z" fill="#FFAD73"/>
<path d="M245.416 39.2749C246.522 41.8956 253.046 41.4178 255.913 38.2102L256.227 40.1348L258.861 37.9509L261.154 40.9265L261.987 39.7526C264.075 35.5622 263.966 28.6693 258.029 25.216C250.071 22.022 240.23 31.2763 245.416 39.2749Z" fill="#807070"/>
<path d="M259.598 40.203C259.912 39.6707 260.185 39.0974 260.253 38.4832C260.322 37.869 260.144 37.2274 259.68 36.818C259.216 36.4085 258.452 36.3402 257.96 36.7361C257.619 37.0091 257.469 37.4595 257.469 37.8826C257.469 38.3058 257.578 38.7152 257.701 39.1247C257.81 39.4932 257.919 39.8618 258.029 40.2303C258.097 40.4897 258.192 40.7626 258.438 40.8855C258.656 40.9947 258.943 40.9264 259.148 40.7899C259.339 40.6262 259.475 40.4214 259.598 40.203Z" fill="#FFAD73"/>
<path opacity="0.3" d="M248.228 73.4531L248.419 75.3231C248.638 76.6198 248.774 77.3705 248.774 77.3705C250.712 81.8065 262.396 85.0551 266.436 85.2462C274.176 85.6147 275.527 80.114 275.527 80.114L276.087 61.3734L276.1 61.0867L276.182 59.1758L275.5 56.0092H266.996L264.853 71.2828C261.345 78.2304 254.152 76.415 248.228 73.4531Z" fill="#3F668A"/>
<path d="M239.22 80.892C239.916 82.1341 240.257 83.7448 240.462 84.8094L240.175 86.9387L239.247 89.2728C238.756 90.5149 237.773 90.0371 238.087 88.7541L238.701 86.7476L238.182 85.4919L236.108 88.4811L234.292 92.5077C233.61 93.4222 233.268 93.1219 233.077 92.3029L232.422 93.4358C231.863 94.3913 230.88 93.7225 231.085 92.9854L230.825 93.2857C230.293 94.2139 229.296 93.6406 229.651 92.5623L229.938 91.8252C229.215 92.494 229.105 91.5795 229.651 90.3238L231.276 85.915C231.59 84.9186 233.787 81.1514 235.234 80.3324L237.036 78.8583L240.011 79.6363L239.22 80.892Z" fill="#FFAD73"/>
<path d="M239.097 70.1088C242.072 69.8631 244.393 71.9651 246.386 75.2819C244.925 77.2747 242.605 79.7316 239.888 82.5025C237.459 80.9055 236.626 79.6088 234.101 81.3423L239.097 70.1088Z" fill="#EDEDED"/>
<path d="M262.096 101.516C262.437 101.339 262.792 101.161 263.133 100.957C263.707 100.629 264.171 99.9467 264.253 99.3461L264.949 94.2139C265.003 93.8454 264.894 93.5861 264.689 93.4496C264.717 93.4632 262.656 91.8799 262.656 91.8799C262.519 91.7707 262.328 91.7297 262.096 91.7843C259.721 92.3167 257.087 93.7771 254.466 95.5379C253.156 96.4115 251.859 97.3533 250.603 98.2814C250.344 98.4725 250.153 98.7865 250.112 99.0595L249.771 101.557C249.743 101.735 249.798 101.871 249.894 101.939L251.955 103.523C252.009 103.564 252.077 103.591 252.159 103.577C255.271 103.482 258.697 103.195 262.096 101.516ZM264.649 93.4086C264.621 93.395 264.594 93.3813 264.567 93.3677C264.594 93.3813 264.621 93.395 264.649 93.4086ZM264.335 93.3404C264.28 93.3404 264.212 93.354 264.157 93.3677C264.225 93.354 264.28 93.354 264.335 93.3404ZM264.498 93.3677C264.471 93.354 264.43 93.354 264.389 93.354C264.43 93.354 264.471 93.354 264.498 93.3677Z" fill="#DB981F"/>
<path d="M249.894 101.954C249.798 101.886 249.757 101.749 249.771 101.572L250.112 99.074C250.153 98.801 250.344 98.4871 250.604 98.296C251.859 97.3678 253.156 96.426 254.466 95.5524C257.087 93.7917 259.721 92.3312 262.096 91.7989C262.328 91.7443 262.52 91.7852 262.656 91.8944L264.717 93.4777C264.581 93.3685 264.389 93.3412 264.157 93.3822C261.782 93.9145 259.148 95.375 256.527 97.1358C255.217 98.0093 253.92 98.9512 252.665 99.8793C252.405 100.07 252.214 100.384 252.173 100.657L251.832 103.155C251.805 103.333 251.859 103.469 251.955 103.537L249.894 101.954Z" fill="#9D9D9C"/>
<path d="M251.845 103.154C251.804 103.427 251.941 103.605 252.173 103.605C255.271 103.496 258.697 103.209 262.11 101.53C262.451 101.353 262.806 101.175 263.147 100.97C263.72 100.643 264.184 99.9604 264.266 99.3598L264.962 94.2276C265.044 93.627 264.717 93.2721 264.171 93.3813C261.796 93.9137 259.161 95.3741 256.541 97.1349C255.23 98.0085 253.934 98.9503 252.678 99.8785C252.419 100.07 252.228 100.383 252.187 100.656L251.845 103.154Z" fill="white"/>
<path d="M249.061 106.089L248.924 107.072C248.897 107.235 248.774 107.372 248.556 107.467C248.105 107.659 247.423 107.563 247.041 107.263C246.85 107.113 246.768 106.935 246.781 106.785L246.918 105.802L249.061 106.089Z" fill="white"/>
<path d="M247.287 105.406C246.837 105.598 246.782 105.98 247.164 106.28C247.546 106.58 248.229 106.676 248.679 106.485C249.13 106.294 249.184 105.911 248.802 105.611C248.42 105.311 247.738 105.215 247.287 105.406Z" fill="#DADADA"/>
<path d="M253.333 104.628L252.241 103.782C251.163 102.936 249.88 102.486 248.324 103.072L248.119 104.628L249.211 105.475L249.416 103.919C250.972 103.332 252.241 103.782 253.333 104.628Z" fill="#DADADA"/>
<path d="M249.402 103.919C251.231 103.222 252.664 103.973 253.866 105.092C253.988 105.215 253.893 105.516 253.675 105.693C253.62 105.734 253.579 105.761 253.538 105.775C253.47 105.802 253.402 105.816 253.347 105.789C252.037 105.202 251.149 104.628 249.73 105.202C249.566 105.27 249.389 105.352 249.198 105.461L249.402 103.919Z" fill="white"/>
<path d="M250.317 98.9366L247.969 99.9058C247.669 100.029 247.396 100.411 247.355 100.725L247.205 101.844L247.109 102.54L246.727 105.393L248.092 106.457L248.474 103.605L248.569 102.909L248.72 101.789C248.761 101.475 249.034 101.093 249.334 100.97L251.682 100.001L250.317 98.9366Z" fill="#DADADA"/>
<path d="M251.682 100.001L251.286 103.018L250.699 103.263C250.289 103.427 249.894 103.878 249.743 104.342L249.238 105.98L248.092 106.444L248.474 103.591L248.57 102.895L248.72 101.776C248.761 101.462 249.034 101.08 249.334 100.957L251.682 100.001Z" fill="white"/>
<path d="M253.456 102.008C253.456 102.008 253.552 99.3733 253.497 98.1585C253.483 97.9674 252.787 96.7799 252.787 96.7799L250.89 98.0766C250.944 97.4078 250.999 96.5752 251.054 95.8654C251.122 94.8417 251.559 93.8862 252.282 93.1628C253.524 91.9344 255.34 90.1053 255.462 89.9689C255.654 89.7505 256.964 89.1635 256.964 89.1635L259.202 86.8431L262.519 87.2253L263.038 89.1635L260.99 93.3403L260.881 96.3704L260.69 98.6635C260.035 102.717 258.192 104.041 257.919 102.908C257.633 104.123 256.131 104.396 256.227 103.222L256.159 103.373C255.804 104.11 255.149 104.246 254.712 103.919L253.934 105.829C253.415 106.799 252.323 106.703 252.487 105.638L253.456 102.008Z" fill="#FCAF75"/>
<path d="M279.485 55.859L278.68 74.8316C273.753 83.1714 268.525 88.5902 260.949 93.3402C259.994 91.0608 257.619 90.3101 254.903 90.1599L268.757 71.0644L266.832 54.5759C270.832 41.6499 277.643 40.9675 279.485 55.859Z" fill="#EDEDED"/>
<path opacity="0.4" d="M252.773 131.886C254.22 131.149 256.513 130.18 257.892 131.436C259.694 133.087 257.837 134.411 261.004 134.998C263.652 135.49 269.985 135.38 269.467 139.462C268.907 143.829 262.874 142.301 260.321 144.28C257.155 146.75 258.315 150.559 252.992 150.122C251.245 149.972 249.579 149.207 247.832 150.053C246.304 150.791 245.198 152.633 243.833 153.63C241.553 155.295 236.053 157.806 235.439 153.234C235.138 151.036 237.24 150.599 234.988 149.166C233.61 148.293 231.467 149.112 230.252 147.951C227.071 144.908 234.442 143.051 235.602 141.441C236.79 139.789 236.094 138.233 237.936 136.827C239.711 135.476 241.581 135.749 243.656 135.435C245.921 135.094 246.058 133.661 247.819 132.719C249.429 131.859 251.163 132.691 252.773 131.886Z" fill="#EA4A49"/>
<path opacity="0.4" d="M228.764 152.783C231.344 154.626 226.075 156.892 224.697 155.513C222.417 153.234 227.386 151.801 228.764 152.783Z" fill="#EA4A49"/>
<path opacity="0.4" d="M248.105 155.663C249.238 156.851 247.082 157.52 246.386 156.714C245.403 155.581 247.6 155.131 248.105 155.663Z" fill="#EA4A49"/>
<path opacity="0.4" d="M235.207 158.557C236.162 159.512 236.981 161.997 235.916 163.061C234.975 164.003 232.941 163.171 231.699 163.716C229.979 164.454 225.406 169.299 225.024 164.781C224.997 164.454 225.638 163.362 225.666 162.775C225.693 162.024 224.997 161.437 225.215 160.55C225.556 159.144 226.921 158.625 228.327 158.38C230.771 157.956 233.473 159.117 235.207 158.557Z" fill="#EA4A49"/>
<path d="M247.928 108.682L259.448 141.659C260.786 152.592 232.436 154.189 230.73 145.576L247.928 108.682Z" fill="white" fill-opacity="0.24"/>
<path d="M477.647 150.081L472.392 150.873C471.3 151.487 471.287 152.251 471.915 153.111C473.866 154.954 477.074 156.619 480.009 156.865C480.869 157.793 481.906 158.284 483.107 158.352C484.622 158.066 485.878 157.493 486.752 156.537C487.038 153.807 486.328 151.61 485.032 149.726L477.647 150.081Z" fill="#1D1D1B"/>
<path d="M438.392 152.333L432.959 151.992C429.315 151.992 429.82 155.8 434.092 157.165C438.296 158.994 442.336 160.577 445.626 161.069C447.086 161.164 448.083 160.646 448.629 159.526C449.338 157.616 448.833 155.909 448.055 154.244L438.392 152.333Z" fill="#1D1D1B"/>
<path d="M460.531 101.339C460.053 101.571 459.562 101.803 459.043 102.035C457.515 108.082 455.658 115.452 452.614 121.977L452.464 122.919L452 125.771C452.314 127.218 452.287 128.952 452.027 130.89C451.263 137.018 448.424 145.345 448.069 154.23C448.547 157.37 447.523 157.151 446.267 157.37C440.808 156.783 434.024 154.23 438.023 152.347L442.732 152.183C442.391 143.447 442.077 134.725 442.336 127.914C442.391 126.44 442.473 125.048 442.582 123.779V118.633C441.408 106.84 443.988 93.9955 449.27 82.8849L470.208 75.2686C472.297 78.7901 473.826 82.2843 473.962 85.6967C474.153 91.1428 470.809 96.4115 460.531 101.339Z" fill="#FCAF75"/>
<path d="M485.346 151.091C484.527 152.046 482.821 152.551 480.173 152.579C478.589 152.456 477.265 152.046 476.364 151.2L478.835 149.044C478.166 143.12 475.313 136.118 472.624 128.01C472.092 126.44 471.573 124.816 471.068 123.151L469.294 119.807L468.161 117.664C465.076 113.268 462.619 107.672 460.545 101.353C460.313 100.629 460.067 99.8921 459.849 99.155L465.418 82.6802L473.948 85.7376C473.962 85.7376 476.091 112.736 476.091 112.736L477.538 116.258L477.579 116.353C479.954 119.151 481.183 122.141 482.015 125.171C482.029 125.212 482.043 125.253 482.056 125.294C484.008 136.486 483.38 142.765 485.346 151.091Z" fill="#FCAF75"/>
<path opacity="0.3" d="M451.987 125.758C452.3 127.205 452.273 128.938 452.014 130.876C448.342 131.19 444.411 129.184 442.323 127.901C442.377 126.427 442.459 125.034 442.568 123.765V120.571L452.451 122.891L451.987 125.758Z" fill="#15ABEB"/>
<path opacity="0.3" d="M482.015 125.144C478.671 126.945 475.013 127.696 472.611 128.01C472.079 126.44 471.56 124.816 471.055 123.151L469.28 119.807L477.525 116.23L477.566 116.326C479.954 119.124 481.169 122.1 482.015 125.144Z" fill="#15ABEB"/>
<path d="M465.022 50.9317C465.076 51.5186 465.186 52.0919 465.363 52.6515C463.015 52.3102 460.599 51.7779 458.115 51.1091L456.818 49.089L452.724 42.7011C456.027 41.1314 459.398 41.3088 462.824 43.0423C464.367 43.4381 465.868 43.8749 467.328 44.3253C465.527 45.895 464.762 48.4884 465.022 50.9317Z" fill="#EDEDED"/>
<path d="M484.745 68.4712H480.978C480.828 68.1982 480.677 67.9252 480.527 67.6523C477.265 61.6875 473.744 55.2449 472.556 53.061C470.277 53.1702 467.861 53.0064 465.363 52.6379C465.185 52.0919 465.076 51.505 465.022 50.9181C464.762 48.4748 465.54 45.8814 467.328 44.3118C471.068 45.472 474.494 46.8096 477.483 48.4202C481.06 52.597 483.011 60.2952 484.745 68.4712Z" fill="#FCAF75"/>
<path opacity="0.5" d="M480.514 67.6386C477.265 61.6874 473.73 55.2449 472.542 53.061C470.263 53.1702 467.847 53.0064 465.349 52.6379C463.002 52.2966 460.586 51.7643 458.101 51.0955L456.805 49.0754L456.696 48.584C459.33 49.7578 462.101 50.4949 465.008 50.918C467.888 51.3412 470.877 51.4367 473.948 51.3002C473.621 54.3713 478.371 60.9367 480.514 67.6386Z" fill="#15ABEB"/>
<path d="M518.418 151.064C516.535 151.064 514.132 149.644 510.72 146.546C510.078 145.959 510.024 144.976 510.611 144.335C511.198 143.693 512.18 143.638 512.822 144.225C517.299 148.279 518.473 147.938 518.514 147.911C518.596 147.883 519.005 147.624 519.387 145.222L520.315 125.689C520.356 124.83 521.094 124.147 521.953 124.202C522.813 124.243 523.482 124.98 523.441 125.84L522.486 145.618C522.24 147.174 521.79 150.067 519.551 150.859C519.21 150.995 518.828 151.064 518.418 151.064Z" fill="#DADADA"/>
<path d="M387.643 119.793L387.657 122.291L394.755 126.495L393.485 120.571L387.643 119.793Z" fill="#DADADA"/>
<path d="M393.485 120.571L394.755 126.495L413.905 115.439L412.635 109.515L393.485 120.571Z" fill="#878787"/>
<path d="M387.643 119.793L393.485 120.571L412.635 109.515L406.793 108.737L387.643 119.793Z" fill="#9D9D9C"/>
<path d="M402.685 118.06C401.784 118.06 400.897 117.568 400.46 116.708C399.819 115.48 400.296 113.965 401.525 113.323L403.859 112.108C405.087 111.467 406.602 111.945 407.244 113.173C407.885 114.401 407.408 115.917 406.179 116.558L403.845 117.773C403.463 117.964 403.067 118.06 402.685 118.06Z" fill="#3C3C3B"/>
<path d="M484.745 68.4711C485.714 70.3411 485.851 72.4704 485.578 74.7225L481.401 77.8619L479.531 74.0128L480.91 68.4165L484.745 68.4711Z" fill="#E89B61"/>
<path d="M405.701 115.862C405.019 115.862 404.364 115.493 404.022 114.852C403.545 113.924 403.9 112.791 404.828 112.313L485.346 70.505C486.274 70.0273 487.407 70.3822 487.884 71.3103C488.362 72.2385 488.007 73.3714 487.079 73.8491L406.561 115.657C406.288 115.794 405.988 115.862 405.701 115.862Z" fill="#575756"/>
<path d="M438.569 75.7053C438.214 75.9373 437.846 76.1557 437.463 76.3468C435.512 77.3432 433.178 77.78 431.185 76.9474L430.175 73.2347C427.131 68.5257 426.38 63.9668 428.455 60.104C432.236 60.6227 435.307 63.7074 436.535 67.8842C436.836 68.8942 437.027 69.9725 437.095 71.0918C437.095 71.16 437.095 71.2419 437.109 71.3102C438.255 72.757 437.914 73.3712 438.569 75.7053Z" fill="#EDEDED"/>
<path d="M440.794 93.2176L437.887 94.0912L433.055 83.8951L431.171 76.9339C433.164 77.7665 435.498 77.3297 437.45 76.3333C437.846 76.1422 438.214 75.9238 438.555 75.6918C438.869 76.8383 439.17 78.0531 439.429 79.2952L440.726 92.5897L440.739 92.6989L440.794 93.2176Z" fill="#FCAF75"/>
<path d="M427.499 28.8878C424.114 29.9661 422.941 32.5868 423.814 36.6543C424.592 39.2886 425.93 41.65 427.731 43.7929C428.742 44.9941 430.147 46.0724 431.976 46.9323C432.509 47.178 433.137 47.2053 433.669 46.9733L434.078 46.7958C434.078 46.7958 435.17 48.5429 435.498 49.7577C435.826 50.9725 436.494 53.0472 436.494 53.0472L446.882 47.6284L440.917 43.0013C441.067 38.5925 441.244 35.0573 438.596 31.5085C436.14 28.0142 431.935 27.4819 427.499 28.8878Z" fill="#FCAF75"/>
<path d="M481.496 121.363C467.792 125.43 454.921 130.781 441.845 122.618C441.722 117.077 441.763 111.439 442.241 105.966C442.978 97.2714 444.793 89.0408 448.697 82.4072L452.955 80.8785L470.195 74.6816C473.566 79.104 475.422 84.6321 475.218 91.6342C476.337 102.485 478.234 112.572 481.496 121.363Z" fill="#15ABEB"/>
<path d="M464.981 83.9086L452.492 82.7621L448.697 82.4208C445.08 76.0739 441.886 76.4151 437.109 71.0918C437.04 71.0236 436.972 70.9417 436.918 70.8734C436.658 69.7815 436.194 68.6895 435.594 67.6522C433.751 64.3627 430.653 61.5099 428.455 60.104C428.455 60.104 435.962 50.1946 440.371 47.492C444.78 44.7894 452.724 42.701 452.724 42.701C455.317 44.4209 457.337 46.8232 458.688 50.0035C458.688 50.0035 462.142 60.0494 463.602 66.6421C464.544 70.8871 468.134 71.8425 470.195 74.7089C475.914 82.571 464.981 83.9086 464.981 83.9086Z" fill="#15ABEB"/>
<path d="M430.434 43.0423L428.127 42.237C426.244 40.9949 424.77 39.5481 423.896 37.8419C422.244 33.6379 424.128 29.2291 428.714 27.8778C433.956 26.3355 436.344 28.028 438.924 31.14C441.285 33.9655 442.104 39.0976 440.685 42.7147L437.545 44.5574C435.211 45.7586 432.727 44.844 430.434 43.0423Z" fill="#1D1D1B"/>
<path d="M428.373 42.4691C428.264 42.0869 427.977 41.7047 428.141 41.2679C428.305 40.8175 428.974 40.7765 429.342 40.9676C430.216 41.4454 430.598 42.4964 430.816 43.3836C430.871 43.6429 431.035 44.1616 430.871 44.4073C430.639 44.7349 430.093 44.38 429.847 44.2298C429.465 43.9978 429.028 43.6839 428.823 43.2744C428.687 43.0423 428.414 42.6329 428.373 42.4691Z" fill="#FCAF75"/>
<path d="M438.255 40.8584C440.385 39.1659 457.296 47.3555 438.569 66.0415C439.361 55.0538 433.628 44.5437 438.255 40.8584Z" fill="#1D1D1B"/>
<path d="M436.358 95.9475L437.109 95.6062C437.054 97.326 437.423 97.8857 438.46 99.0732L439.238 99.4963L442.063 98.5681C442.432 98.4453 442.719 98.1723 442.855 97.8174L443.319 96.5617L442.678 96.821C441.818 96.0839 441.149 94.5962 441.299 93.3814L440.753 92.576L437.559 93.3677C436.959 94.1184 436.549 94.9647 436.358 95.9475Z" fill="#FCAF75"/>
<path d="M484.404 66.9015L484.677 70.1364C484.008 71.6651 482.848 72.1565 481.278 73.1938L480.964 74.9L481.374 76.9338C481.428 77.8892 480.473 78.0667 480.241 77.1385L479.34 74.8181L479.463 72.8936C479.422 71.6515 479.708 70.3957 480.405 69.1263L481.647 66.3691L484.404 66.9015Z" fill="#FCAF75"/>
<path d="M486.369 74.2995L486.055 73.4532C485.837 72.88 485.155 72.6479 484.636 72.9755L480.8 74.8864L481.073 76.9202L479.981 77.5754L481.251 77.9439C481.742 77.9439 482.22 77.7801 482.602 77.4662L485.701 75.4461L486.369 74.2995Z" fill="#FCAF75"/>
<path d="M521.926 172.862C521.926 174.459 520.629 175.755 519.032 175.755C517.435 175.755 516.139 174.459 516.139 172.862C516.139 171.265 517.435 169.968 519.032 169.968C520.643 169.982 521.926 171.278 521.926 172.862Z" fill="black"/>
<path d="M544.038 176.397C544.038 177.994 542.741 179.291 541.144 179.291C539.547 179.291 538.251 177.994 538.251 176.397C538.251 174.8 539.547 173.503 541.144 173.503C542.755 173.503 544.038 174.8 544.038 176.397Z" fill="black"/>
<path d="M550.617 163.171L550.603 167.443C550.59 170.077 548.856 172.712 545.403 174.732C538.428 178.786 527.085 178.786 520.07 174.732C516.534 172.698 514.774 170.009 514.774 167.347L514.787 163.075C514.774 165.75 516.548 168.426 520.083 170.46C527.099 174.513 538.442 174.513 545.417 170.46C548.87 168.453 550.603 165.819 550.617 163.171Z" fill="#575756"/>
<path d="M545.321 155.786C552.337 159.84 552.378 166.405 545.403 170.459C538.428 174.513 527.086 174.513 520.07 170.459C513.04 166.405 513.013 159.84 519.988 155.786C526.963 151.732 538.305 151.732 545.321 155.786Z" fill="#B2B2B2"/>
<path d="M517.559 140.867C517.531 149.235 524.288 156.032 532.655 156.046C541.022 156.073 547.819 149.316 547.833 140.949C547.86 132.582 541.104 125.785 532.737 125.771C524.37 125.744 517.572 132.5 517.559 140.867Z" fill="#EA4A49"/>
<path d="M547.833 140.949L547.819 161.246C547.819 163.471 546.345 165.709 543.424 167.402C537.527 170.828 527.946 170.828 522.008 167.402C519.019 165.682 517.531 163.416 517.531 161.164L517.545 140.868C517.545 143.12 519.032 145.386 522.022 147.105C527.945 150.531 537.541 150.531 543.438 147.105C546.359 145.413 547.833 143.188 547.833 140.949Z" fill="#EA4A49"/>
<path d="M547.819 143.597C547.833 145.836 546.372 148.088 543.424 149.794C537.527 153.22 527.946 153.22 522.008 149.794C519.046 148.074 517.545 145.836 517.531 143.597V148.211C517.545 150.449 519.032 152.702 522.008 154.408C527.932 157.834 537.527 157.834 543.424 154.408C546.372 152.702 547.833 150.449 547.819 148.211V143.597Z" fill="white"/>
<path d="M547.819 149.685C547.833 151.923 546.372 154.176 543.424 155.882C537.527 159.308 527.946 159.308 522.008 155.882C519.046 154.162 517.545 151.923 517.531 149.685V151.323C517.545 153.561 519.032 155.814 522.008 157.52C527.932 160.946 537.527 160.946 543.424 157.52C546.372 155.814 547.833 153.561 547.819 151.323V149.685Z" fill="white"/>
<path d="M519.879 159.103L520.711 158.626C521.23 158.325 521.926 158.366 522.704 158.817C524.274 159.718 525.543 161.915 525.543 163.744C525.543 164.659 525.216 165.3 524.697 165.6L523.864 166.078C524.383 165.778 524.711 165.136 524.711 164.222C524.711 162.406 523.441 160.195 521.872 159.294C521.107 158.844 520.397 158.803 519.879 159.103Z" fill="#B2B2B2"/>
<path d="M519.046 160.96C519.046 159.144 520.315 158.394 521.885 159.294C523.455 160.195 524.724 162.393 524.724 164.222C524.724 166.037 523.455 166.788 521.885 165.887C520.315 164.973 519.046 162.775 519.046 160.96Z" fill="#575756"/>
<path d="M520.042 161.383C519.974 160.154 520.752 159.704 521.776 160.373C522.8 161.042 523.687 162.57 523.755 163.799C523.823 165.027 523.045 165.478 522.022 164.809C520.998 164.14 520.111 162.611 520.042 161.383Z" fill="black"/>
<path opacity="0.3" d="M530.73 126.536C523.673 127.491 518.2 133.551 518.186 140.868C518.186 142.628 518.5 144.348 519.101 145.959C519.92 146.764 520.779 147.515 521.708 148.115C521.407 137.906 524.369 130.658 530.73 126.536Z" fill="white"/>
<path d="M538.264 127.218V128.542C538.264 129.361 537.718 130.18 536.64 130.808C534.47 132.064 530.935 132.064 528.751 130.808C527.645 130.166 527.099 129.334 527.099 128.515V127.191C527.099 128.024 527.645 128.856 528.751 129.484C530.935 130.74 534.47 130.74 536.64 129.484C537.718 128.856 538.264 128.037 538.264 127.218Z" fill="black"/>
<path d="M536.626 124.925C538.81 126.181 538.824 128.228 536.654 129.498C534.484 130.753 530.948 130.753 528.764 129.498C526.581 128.242 526.567 126.194 528.737 124.925C530.907 123.656 534.429 123.656 536.626 124.925Z" fill="#B2B2B2"/>
<path d="M521.899 127.341C521.858 127.341 521.803 127.341 521.762 127.341C520.902 127.259 520.261 126.508 520.343 125.635C521.244 115.452 525.98 114.852 527.427 114.906C531.331 115.07 534.292 119.711 534.32 125.703C534.32 126.563 533.624 127.3 532.764 127.3C531.89 127.3 531.194 126.631 531.18 125.771C531.153 120.803 528.901 118.1 527.29 118.032C525.721 117.95 523.96 120.38 523.468 125.894C523.387 126.727 522.704 127.341 521.899 127.341Z" fill="#DADADA"/>
<path d="M511.771 146.955C511.402 146.955 511.02 146.819 510.72 146.546C501.861 138.547 499.173 122.755 498.981 114.688C498.695 102.84 497.03 83.4582 496.361 78.094C496.115 76.1558 495.023 74.4633 493.331 73.4668C491.652 72.4704 489.645 72.3066 487.816 73.0301L487.721 73.071C486.915 73.3849 486.001 73.0028 485.687 72.1975C485.373 71.3921 485.755 70.4776 486.561 70.1637L486.656 70.1227C489.386 69.0444 492.402 69.2765 494.928 70.7779C497.453 72.2793 499.104 74.8045 499.473 77.7255C500.142 83.1306 501.834 102.677 502.107 114.633C502.271 121.677 504.728 136.937 512.808 144.225C513.45 144.812 513.504 145.795 512.918 146.437C512.631 146.778 512.208 146.955 511.771 146.955Z" fill="#DADADA"/>
<path opacity="0.5" d="M453.461 81.247C453.133 81.7384 452.805 82.2434 452.491 82.7621C448.26 89.5868 444.971 98.145 442.473 108.136L442.227 105.966C442.964 97.2714 444.78 89.0408 448.683 82.4072C445.066 76.0603 441.872 76.4015 437.095 71.0782C437.095 71.1465 437.095 71.2284 437.109 71.2966C438.241 72.7434 437.9 73.3577 438.555 75.6917C438.869 76.8383 439.17 78.0531 439.429 79.2952L440.726 92.5897L438.501 81.247L437.45 76.3469L435.58 67.6522C435.907 67.7205 436.221 67.7887 436.535 67.8843C442.104 69.5768 446.663 76.4015 452.942 80.8921C453.119 81.015 453.297 81.1242 453.461 81.247Z" fill="#15ABEB"/>
</svg>
