<svg width="592" height="181" viewBox="0 0 592 181" fill="none" xmlns="http://www.w3.org/2000/svg">
<path d="M548.87 135.049V142.212C548.87 143.091 550.208 143.793 551.843 143.793C553.492 143.793 554.816 143.091 554.816 142.212V135.049H548.87Z" fill="#352221"/>
<path d="M581.495 116.02V123.183C581.495 124.062 582.833 124.765 584.468 124.765C586.117 124.765 587.441 124.062 587.441 123.183V116.02H581.495Z" fill="#352221"/>
<path d="M452.198 79.6923V86.8552C452.198 87.7336 453.536 88.4364 455.171 88.4364C456.82 88.4364 458.144 87.7336 458.144 86.8552V79.6923H452.198Z" fill="#352221"/>
<path d="M540.437 44.148L501.825 21.9836C501.176 21.6187 500.581 21.5241 500.068 21.6592L500.013 21.5916C500.013 21.5916 498.135 21.4024 496.351 22.808C494.567 24.2135 493.378 26.1597 493.378 26.1597L498.5 30.3358V51.5272C498.5 53.9734 500 56.8385 501.838 57.8927L540.45 80.0571C542.288 81.1113 543.788 79.976 543.788 77.5434V50.5135C543.761 48.0809 542.261 45.2157 540.437 44.148Z" fill="#15ABEB"/>
<path d="M538.207 76.462C538.207 76.462 537.707 78.246 535.679 79.4218C532.449 81.2869 530.936 80.8679 530.936 80.8679L530.544 74.4753L536.274 72.9617L538.207 76.462Z" fill="#15ABEB"/>
<path d="M535.031 83.3412L496.419 61.1768C494.58 60.1226 493.08 57.2575 493.08 54.8113V27.7814C493.08 25.3352 494.58 24.2 496.419 25.2677L535.031 47.4321C536.869 48.4863 538.369 51.3514 538.369 53.7976V80.8275C538.355 83.2737 536.855 84.4089 535.031 83.3412Z" fill="#0B8EC7"/>
<path d="M586.712 70.7723L548.1 48.6078C547.451 48.2429 546.856 48.1483 546.343 48.2835L546.289 48.2159C546.289 48.2159 544.41 48.0267 542.626 49.4322C540.842 50.8378 539.653 52.784 539.653 52.784L544.775 56.9601V78.1514C544.775 80.5976 546.275 83.4628 548.113 84.517L586.725 106.681C588.563 107.736 590.063 106.6 590.063 104.168V77.1378C590.05 74.6916 588.55 71.8265 586.712 70.7723Z" fill="#15ABEB"/>
<path d="M584.482 103.086C584.482 103.086 583.981 104.87 581.954 106.046C578.724 107.911 577.211 107.492 577.211 107.492L576.819 101.1L582.549 99.5861L584.482 103.086Z" fill="#15ABEB"/>
<path d="M581.306 109.965L542.694 87.801C540.856 86.7469 539.355 83.8817 539.355 81.4355V54.4057C539.355 51.9595 540.856 50.8243 542.694 51.8919L581.306 74.0564C583.144 75.1105 584.644 77.9757 584.644 80.4219V107.452C584.644 109.884 583.144 111.02 581.306 109.965Z" fill="#0B8EC7"/>
<path d="M493.175 28.4977C493.175 28.4977 491.986 26.5515 490.202 25.146C488.418 23.7404 486.539 23.9297 486.539 23.9297L486.485 23.9972C485.971 23.8621 485.377 23.9567 484.728 24.3216L451.319 43.6074C449.481 44.6615 447.981 47.5267 447.981 49.9729V77.0027C447.981 77.719 448.13 78.3136 448.359 78.7867L448.346 78.8002C448.346 78.8002 448.846 80.5841 450.873 81.7599C454.103 83.625 455.617 83.2061 455.617 83.2061L456.009 76.8135L484.728 60.2307C486.566 59.1765 488.066 56.3114 488.066 53.8652V32.6738L493.175 28.4977Z" fill="#15ABEB"/>
<path d="M456.725 82.8006L490.134 63.5148C491.972 62.4606 493.472 59.5955 493.472 57.1493V30.1195C493.472 27.6733 491.972 26.538 490.134 27.6057L456.725 46.8915C454.887 47.9456 453.387 50.8108 453.387 53.257V80.2868C453.387 82.733 454.887 83.8682 456.725 82.8006Z" fill="#1798CF"/>
<path d="M580.292 109.06L500.27 60.8659C498.405 59.7847 495.121 59.9334 492.972 61.1633L468.078 75.5296L457.806 69.4749C455.604 71.6373 455.185 76.2864 455.185 79.8003C455.185 83.3277 456.266 84.2197 458.023 85.2333L539.761 132.427C541.626 133.509 544.91 133.36 547.059 132.13L579.765 113.25C581.914 112.02 582.157 110.128 580.292 109.06Z" fill="#0B8EC7"/>
<path d="M458.023 73.1781L539.761 120.372C541.626 121.453 544.91 121.305 547.059 120.075L579.765 101.194C581.914 99.9511 582.144 98.059 580.292 96.9778L498.554 49.7838C496.689 48.7026 493.405 48.8512 491.256 50.0811L458.55 68.9614C456.401 70.2048 456.171 72.1104 458.023 73.1781Z" fill="#15ABEB"/>
<g opacity="0.5">
<path opacity="0.5" d="M530.017 74.989L502.879 90.6528C500.811 91.8421 497.162 91.6934 494.783 90.3149L464.537 72.8536C462.145 71.4751 461.888 69.3668 463.956 68.1775L491.094 52.5137C493.161 51.3244 496.81 51.473 499.189 52.8516L529.435 70.3128C531.814 71.6914 532.084 73.7997 530.017 74.989Z" fill="#99C7FF"/>
<path opacity="0.5" d="M525.759 73.5428L502.122 87.1929C500.324 88.2335 497.148 88.0984 495.067 86.8955L468.726 71.6778C466.645 70.4749 466.415 68.6504 468.226 67.6098L491.864 53.9597C493.661 52.9191 496.837 53.0542 498.919 54.257L525.259 69.4748C527.327 70.6777 527.557 72.5022 525.759 73.5428Z" fill="#B3D9FF"/>
<path opacity="0.5" d="M496.797 69.1505C495.216 69.1505 493.932 69.8262 493.932 70.6777C493.932 71.5156 495.216 72.2049 496.797 72.2049C498.378 72.2049 499.662 71.5291 499.662 70.6777C499.648 69.8262 498.378 69.1505 496.797 69.1505Z" fill="#1798CF"/>
<path opacity="0.5" d="M495.094 55.9871C495.094 55.9871 494.824 57.4061 495.364 60.4199C495.891 63.4338 496.621 66.8801 496.621 66.8801C496.621 66.8801 497.067 62.9878 496.81 60.501C496.526 58.0278 495.094 55.9871 495.094 55.9871Z" fill="#15ABEB"/>
<path opacity="0.5" d="M502.622 70.2858C502.622 70.2858 506.433 68.0018 510.947 67.8126C515.461 67.6369 521.218 69.4073 521.218 69.4073C521.218 69.4073 513.947 68.4613 510.947 68.7586C507.933 69.0559 502.622 70.2858 502.622 70.2858Z" fill="#15ABEB"/>
<path opacity="0.5" d="M471.767 68.7045C471.767 68.7045 475.741 66.7178 480.268 66.8934C484.782 67.0691 490.391 69.2856 490.391 69.2856C490.391 69.2856 483.228 67.7719 480.201 67.826C477.16 67.8936 471.767 68.7045 471.767 68.7045Z" fill="#15ABEB"/>
<path opacity="0.5" d="M497.148 74.3538C497.148 74.3538 496.675 76.6243 496.986 79.9895C497.229 82.5843 498.365 85.5711 498.365 85.5711C498.365 85.5711 498.297 82.5168 498.189 78.8407C498.108 75.6512 497.148 74.3538 497.148 74.3538Z" fill="#15ABEB"/>
</g>
<g opacity="0.57">
<path opacity="0.57" d="M573.494 100.667L546.356 116.331C544.288 117.52 540.639 117.372 538.261 115.993L508.014 98.532C505.622 97.1535 505.365 95.0451 507.433 93.8558L534.571 78.192C536.639 77.0027 540.288 77.1514 542.666 78.5299L572.913 95.9912C575.291 97.3697 575.562 99.478 573.494 100.667Z" fill="#99C7FF"/>
<path opacity="0.57" d="M569.237 99.2212L545.599 112.871C543.801 113.912 540.625 113.777 538.544 112.574L512.204 97.3561C510.122 96.1533 509.893 94.3288 511.704 93.2881L535.341 79.6381C537.139 78.5974 540.315 78.7326 542.396 79.9354L568.736 95.1532C570.804 96.3425 571.034 98.1805 569.237 99.2212Z" fill="#B3D9FF"/>
<path opacity="0.57" d="M540.274 94.8289C538.693 94.8289 537.409 95.5046 537.409 96.356C537.409 97.194 538.693 97.8832 540.274 97.8832C541.855 97.8832 543.139 97.2075 543.139 96.356C543.126 95.5046 541.855 94.8289 540.274 94.8289Z" fill="#1798CF"/>
<path opacity="0.57" d="M538.571 81.6654C538.571 81.6654 538.301 83.0845 538.842 86.0983C539.369 89.1121 540.099 92.5584 540.099 92.5584C540.099 92.5584 540.545 88.6661 540.288 86.1794C540.004 83.6926 538.571 81.6654 538.571 81.6654Z" fill="#15ABEB"/>
<path opacity="0.57" d="M546.099 95.964C546.099 95.964 549.91 93.68 554.424 93.4908C558.938 93.3151 564.696 95.0856 564.696 95.0856C564.696 95.0856 557.425 94.1395 554.424 94.4368C551.41 94.7342 546.099 95.964 546.099 95.964Z" fill="#15ABEB"/>
<path opacity="0.57" d="M515.245 94.3693C515.245 94.3693 519.218 92.3825 523.746 92.5582C528.259 92.7339 533.868 94.9504 533.868 94.9504C533.868 94.9504 526.705 93.4367 523.678 93.4908C520.651 93.5448 515.245 94.3693 515.245 94.3693Z" fill="#15ABEB"/>
<path opacity="0.57" d="M540.626 100.032C540.626 100.032 540.153 102.303 540.464 105.668C540.707 108.263 541.842 111.249 541.842 111.249C541.842 111.249 541.775 108.195 541.667 104.519C541.572 101.316 540.626 100.032 540.626 100.032Z" fill="#15ABEB"/>
</g>
<path d="M536.436 74.3538C536.436 74.3538 524.624 79.8408 517.596 83.9088C510.568 87.9633 500.405 95.6803 500.405 95.6803C500.405 95.6803 511.825 88.8282 518.583 85.2603C525.354 81.6789 536.436 74.3538 536.436 74.3538Z" fill="#1798CF"/>
<path d="M494.567 49.0538C494.662 52.7704 498.567 56.6627 500.135 57.9061C503.298 60.4199 506.852 62.1633 510.366 64.15C514.096 66.2583 520.854 68.0963 526.016 65.7582C529.503 64.177 530.517 59.5008 530.679 57.4195C530.855 55.149 530.3 53.0813 529.976 50.8648C532.733 50.2972 534.017 49.4728 533.652 48.3781C533.247 47.1888 532.206 47.0401 529.652 47.1077C529.287 44.0668 528.327 42.4585 526.746 40.107C525.516 39.2825 524.246 38.5122 523.07 37.7418C517.502 34.0388 511.704 30.5654 505.947 27.1732C503.595 25.7947 499.095 23.862 496.351 23.8756C495.608 23.2944 494.472 22.6457 493.107 22.8754C490.796 23.2539 490.432 25.3352 491.459 26.7677C490.148 29.1193 489.242 38.35 489.296 39.8502C489.323 40.8232 489.594 42.391 489.959 44.1885C491.026 46.1076 492.459 47.6888 494.567 49.0538Z" fill="#F9423E"/>
<path d="M490.35 54.0004C490.837 55.2843 492.986 55.433 494.27 55.1492C498.243 61.1363 504.946 66.1368 511.352 68.8803C515.083 70.4886 524.8 72.6104 529.003 71.7725C529.868 73.5024 531.8 74.462 532.828 73.7727C534.233 72.8537 533.747 71.4346 533.503 70.0831C534.787 69.083 536.396 68.3938 537.436 61.5687C537.815 59.1225 537.707 52.1894 535.787 50.2973C536.369 49.5269 537.382 47.2429 536.517 46.3239C535.436 45.1616 533.22 45.2698 531.99 45.3103C530.909 43.1749 528.881 41.5532 526.719 40.1071C528.3 42.4586 529.26 44.0669 529.625 47.1078C532.192 47.0537 533.22 47.1889 533.625 48.3782C534.003 49.4594 532.72 50.2838 529.949 50.8649C530.273 53.0679 530.827 55.1491 530.652 57.4197C530.49 59.4874 529.476 64.1771 525.989 65.7583C520.826 68.1099 514.069 66.2719 510.339 64.1501C506.825 62.1634 503.271 60.42 500.108 57.9062C498.54 56.6628 494.635 52.7705 494.54 49.0539C492.432 47.6889 490.985 46.1077 489.904 44.2021C490.323 46.2293 490.864 48.5403 491.364 50.6352C491.04 51.7704 489.783 52.5002 490.35 54.0004Z" fill="#E52C2C"/>
<path d="M495.905 24.7271C495.54 24.3622 495.027 24.0648 494.5 24.1054C494.337 24.1189 494.216 24.3216 494.351 24.4433C494.783 24.8487 495.256 25.146 495.594 25.6461C495.756 25.8894 496.121 26.3218 496.392 25.9299C496.675 25.538 496.175 24.9974 495.905 24.7271Z" fill="#E52C2C"/>
<path d="M493.959 26.6055C493.459 26.7407 493.013 26.984 492.688 27.4164C492.486 27.6867 492.08 28.3219 492.351 28.6598C492.567 28.9166 492.851 28.7409 492.972 28.4976C493.297 27.9165 493.526 27.4164 494.134 27.0651C494.405 26.9164 494.243 26.538 493.959 26.6055Z" fill="#E52C2C"/>
<path d="M492.743 44.2291C492.58 43.7426 492.215 43.3777 492.053 42.8911C491.891 42.4046 491.972 41.891 491.837 41.4045C491.81 41.3099 491.675 41.2558 491.594 41.3369C490.932 42.1613 491.513 44.1345 492.526 44.4454C492.648 44.4859 492.783 44.3643 492.743 44.2291Z" fill="#E52C2C"/>
<path d="M496.229 47.4996C496.013 47.013 495.648 46.6346 495.445 46.121C495.27 45.6615 495.256 45.1615 495.094 44.6885C495.053 44.5804 494.932 44.5803 494.878 44.6614C494.188 45.6075 494.851 47.5131 495.891 47.932C496.162 48.0402 496.31 47.7158 496.229 47.4996Z" fill="#E52C2C"/>
<path d="M525.908 58.271C525.8 58.1764 525.651 58.244 525.638 58.3792C525.584 58.9468 525.746 59.4468 525.597 60.0144C525.476 60.501 525.124 60.8659 525.084 61.3659C525.07 61.5281 525.259 61.6498 525.395 61.6092C526.489 61.2713 526.678 58.9873 525.908 58.271Z" fill="#E52C2C"/>
<path d="M523.53 64.2851C522.921 64.2175 522.313 64.2716 521.719 64.1094C521.124 63.9337 520.651 63.5823 520.11 63.285C520.016 63.2309 519.894 63.3255 519.921 63.4336C520.313 64.7986 522.502 65.596 523.651 64.7716C523.881 64.6229 523.8 64.3121 523.53 64.2851Z" fill="#E52C2C"/>
<path opacity="0.5" d="M503.311 30.0114C500.865 28.9707 497.283 27.2949 494.851 28.9166C490.512 31.8224 496.5 38.4987 499.635 40.1746C502.865 41.891 512.258 45.6076 513.704 39.5123C514.637 35.6336 504.581 30.5519 503.311 30.0114Z" fill="#FF6464"/>
<path d="M538.531 74.6377C538.626 78.3543 542.531 82.2466 544.099 83.49C547.262 86.0037 550.816 87.7472 554.33 89.7339C558.06 91.8422 564.817 93.6802 569.98 91.3421C573.467 89.7609 574.481 85.0847 574.643 83.0034C574.818 80.7329 574.264 78.6651 573.94 76.4487C576.697 75.8811 577.981 75.0567 577.616 73.962C577.211 72.7726 576.17 72.624 573.616 72.6916C573.251 69.6507 572.291 68.0424 570.71 65.6908C569.48 64.8664 568.21 64.0961 567.034 63.3257C561.466 59.6226 555.668 56.1493 549.91 52.7571C547.559 51.3785 543.058 49.4459 540.315 49.4594C539.572 48.8783 538.436 48.2296 537.071 48.4593C534.76 48.8377 534.395 50.919 535.423 52.3516C534.112 54.7032 533.206 63.9339 533.26 65.4341C533.287 66.4071 533.557 67.9748 533.922 69.7723C534.977 71.6779 536.423 73.2727 538.531 74.6377Z" fill="#F9423E"/>
<path d="M534.314 79.5841C534.801 80.8681 536.95 81.0167 538.234 80.7329C542.207 86.72 548.91 91.7205 555.317 94.464C559.047 96.0723 568.764 98.1942 572.967 97.3562C573.832 99.0861 575.765 100.046 576.792 99.3565C578.197 98.4374 577.711 97.0184 577.468 95.6669C578.751 94.6668 580.36 93.9775 581.4 87.1525C581.779 84.7063 581.671 77.7731 579.751 75.881C580.333 75.1107 581.346 72.8267 580.481 71.9077C579.4 70.7454 577.184 70.8535 575.954 70.894C574.873 68.7587 572.845 67.1369 570.683 65.6908C572.264 68.0424 573.224 69.6507 573.589 72.6915C576.157 72.6375 577.184 72.7726 577.589 73.9619C577.968 75.0431 576.684 75.8675 573.913 76.4487C574.237 78.6516 574.792 80.7329 574.616 83.0034C574.454 85.0712 573.44 89.7609 569.953 91.3421C564.79 93.6937 558.033 91.8422 554.303 89.7338C550.789 87.7471 547.235 86.0037 544.072 83.49C542.504 82.2466 538.599 78.3408 538.504 74.6377C536.396 73.2727 534.95 71.6914 533.868 69.7858C534.287 71.8131 534.828 74.1241 535.328 76.2189C535.004 77.3407 533.733 78.0705 534.314 79.5841Z" fill="#E52C2C"/>
<path d="M539.856 50.2973C539.491 49.9324 538.977 49.635 538.45 49.6756C538.288 49.6891 538.166 49.8918 538.301 50.0135C538.734 50.4189 539.207 50.7162 539.545 51.2163C539.707 51.4596 540.072 51.892 540.342 51.5001C540.626 51.1217 540.126 50.5676 539.856 50.2973Z" fill="#E52C2C"/>
<path d="M537.923 52.1893C537.423 52.3244 536.977 52.5677 536.652 53.0002C536.45 53.2705 536.044 53.9057 536.315 54.2435C536.531 54.5003 536.815 54.3246 536.936 54.0814C537.261 53.5002 537.49 53.0002 538.099 52.6488C538.355 52.5001 538.193 52.1082 537.923 52.1893Z" fill="#E52C2C"/>
<path d="M536.693 69.8129C536.531 69.3263 536.166 68.9614 536.004 68.4749C535.842 67.9884 535.923 67.4748 535.787 66.9882C535.76 66.8936 535.625 66.8396 535.544 66.9207C534.882 67.7451 535.463 69.7183 536.477 70.0291C536.598 70.0696 536.747 69.9345 536.693 69.8129Z" fill="#E52C2C"/>
<path d="M540.18 73.0834C539.963 72.5969 539.599 72.2185 539.396 71.7049C539.22 71.2454 539.207 70.7453 539.044 70.2723C539.004 70.1642 538.882 70.1642 538.828 70.2453C538.139 71.1914 538.801 73.097 539.842 73.5159C540.112 73.624 540.274 73.2862 540.18 73.0834Z" fill="#E52C2C"/>
<path d="M569.859 83.8413C569.75 83.7467 569.602 83.8143 569.588 83.9495C569.534 84.5171 569.696 85.0171 569.548 85.5848C569.426 86.0713 569.075 86.4362 569.034 86.9362C569.021 87.0984 569.21 87.2201 569.345 87.1795C570.44 86.8552 570.642 84.5711 569.859 83.8413Z" fill="#E52C2C"/>
<path d="M567.494 89.869C566.886 89.8015 566.277 89.8555 565.683 89.6934C565.088 89.5177 564.615 89.1663 564.074 88.8689C563.98 88.8149 563.858 88.9095 563.885 89.0176C564.277 90.3826 566.467 91.18 567.615 90.3556C567.832 90.1934 567.75 89.8961 567.494 89.869Z" fill="#E52C2C"/>
<path opacity="0.5" d="M547.262 55.5817C544.816 54.541 541.234 52.8652 538.801 54.5005C534.463 57.4062 540.45 64.0826 543.586 65.7584C546.816 67.4748 556.209 71.1914 557.655 65.0962C558.587 61.2174 548.532 56.1223 547.262 55.5817Z" fill="#FF6464"/>
<path d="M589.861 84.5306C589.861 84.5306 588.671 82.5845 586.887 81.1789C585.103 79.7734 583.225 79.9626 583.225 79.9626L583.171 80.0302C582.657 79.895 582.063 79.9896 581.414 80.3545L548.005 99.6403C546.167 100.694 544.667 103.56 544.667 106.006V133.036C544.667 133.752 544.815 134.347 545.045 134.82L545.032 134.833C545.032 134.833 545.532 136.617 547.559 137.793C550.789 139.658 552.303 139.239 552.303 139.239L552.695 132.846L581.414 116.264C583.252 115.209 584.752 112.344 584.752 109.898V88.7068L589.861 84.5306Z" fill="#15ABEB"/>
<path d="M553.397 138.847L586.806 119.561C588.644 118.507 590.144 115.642 590.144 113.196V86.166C590.144 83.7198 588.644 82.5845 586.806 83.6522L553.397 102.938C551.559 103.992 550.059 106.857 550.059 109.303V136.333C550.073 138.766 551.573 139.901 553.397 138.847Z" fill="#1798CF"/>
<path d="M553.884 135.712C553.708 135.13 553.262 134.752 552.992 134.211C552.843 133.914 552.722 133.603 552.667 133.279C552.613 132.954 552.654 132.63 552.532 132.306C552.451 132.103 552.208 132.063 552.073 132.252C551.654 132.86 551.911 133.928 552.167 134.563C552.451 135.252 552.884 135.928 553.668 135.995C553.816 136.022 553.924 135.847 553.884 135.712Z" fill="#0B8EC7"/>
<path d="M557.438 134.374C557.127 133.928 556.587 133.779 556.087 133.617C555.559 133.455 555.032 133.346 554.478 133.441C554.33 133.468 554.303 133.698 554.438 133.765C554.87 133.995 555.343 134.103 555.803 134.292C556.262 134.482 556.681 134.793 557.181 134.82C557.398 134.833 557.573 134.549 557.438 134.374Z" fill="#0B8EC7"/>
<path d="M585.414 86.4361C585.36 86.4767 585.36 86.5713 585.387 86.6253C585.59 86.9632 586.076 87.0713 586.401 87.274C586.82 87.5308 587.144 87.9363 587.577 88.1525C587.847 88.2877 588.09 88.0714 588.05 87.7876C587.928 86.9362 586.185 85.7198 585.414 86.4361Z" fill="#0B8EC7"/>
<path d="M588.698 90.3284C588.658 90.1257 588.333 90.1257 588.293 90.3284C588.171 90.8015 588.036 91.2745 587.779 91.6799C587.536 92.0719 587.157 92.3557 586.982 92.7881C586.914 92.9503 586.982 93.2206 587.211 93.1801C588.401 93.0314 588.914 91.3556 588.698 90.3284Z" fill="#0B8EC7"/>
<path d="M586.887 111.182C586.82 110.966 586.522 111.02 586.509 111.236C586.468 111.979 586.468 112.709 586.347 113.452C586.252 114.02 586.049 114.534 586.13 115.115C586.157 115.331 586.509 115.426 586.644 115.25C587.401 114.263 587.225 112.304 586.887 111.182Z" fill="#0B8EC7"/>
<path d="M584.59 116.466C584.306 115.993 584.036 115.52 583.725 115.088C583.603 114.926 583.292 115.02 583.373 115.237C583.536 115.723 583.738 116.196 583.941 116.683C584.13 117.115 584.252 117.615 584.617 117.939C584.792 118.102 585.184 118.007 585.144 117.723C585.103 117.237 584.833 116.872 584.59 116.466Z" fill="#0B8EC7"/>
<path d="M582.089 119.44C581.698 119.331 581.265 119.372 580.873 119.264C580.427 119.142 580.13 118.845 579.738 118.669C579.63 118.615 579.441 118.669 579.454 118.831C579.576 119.859 581.319 120.683 582.171 120.034C582.373 119.859 582.373 119.521 582.089 119.44Z" fill="#0B8EC7"/>
<path d="M457.901 49.4865C456.941 49.9325 455.617 51.4056 456.009 52.5543C456.09 52.7976 456.387 52.8246 456.536 52.6219C456.833 52.1894 456.874 51.6083 457.117 51.1488C457.387 50.6352 457.766 50.2298 458.171 49.8378C458.347 49.6486 458.117 49.3919 457.901 49.4865Z" fill="#0B8EC7"/>
<path d="M458.644 54.96C458.09 54.7843 457.482 54.8789 456.901 54.7167C456.333 54.5545 455.874 54.2167 455.333 54.0004C455.198 53.9464 455.036 54.1085 455.09 54.2437C455.536 55.3654 457.658 56.2979 458.712 55.5546C458.955 55.406 458.928 55.0546 458.644 54.96Z" fill="#0B8EC7"/>
<path d="M461.347 46.3374C461.023 46.8915 460.807 47.5132 460.563 48.1078C460.307 48.7701 459.915 49.4458 459.793 50.1351C459.725 50.5405 460.212 50.7568 460.455 50.4189C460.861 49.8513 461.023 49.0944 461.226 48.4457C461.415 47.7835 461.59 47.1077 461.604 46.405C461.604 46.2698 461.415 46.2293 461.347 46.3374Z" fill="#0B8EC7"/>
<path d="M456.941 64.4609C456.806 64.0014 456.806 63.4743 456.509 63.0959C456.441 63.0148 456.333 63.0554 456.293 63.1229C455.968 63.5419 456.103 64.1771 456.198 64.6636C456.306 65.1907 456.455 65.907 456.901 66.2584C457.104 66.4206 457.522 66.3395 457.482 66.0151C457.441 65.4745 457.104 64.988 456.941 64.4609Z" fill="#0B8EC7"/>
<path d="M451.211 78.5839C450.968 78.1649 450.522 77.9217 450.265 77.5027C450.022 77.0973 449.887 76.6513 449.698 76.2188C449.643 76.0972 449.454 76.1107 449.4 76.2188C448.914 77.2189 449.711 79.084 450.927 79.0975C451.171 79.0975 451.333 78.8001 451.211 78.5839Z" fill="#1798CF"/>
<path d="M548.343 136.104C548.126 135.59 547.653 135.252 547.343 134.793C547.018 134.293 546.87 133.725 546.599 133.211C546.437 132.914 546.045 133.076 546.018 133.374C545.964 134.009 546.275 134.684 546.613 135.225C546.91 135.712 547.356 136.374 547.964 136.482C548.153 136.523 548.437 136.333 548.343 136.104Z" fill="#1798CF"/>
<path d="M585.684 74.7052C585.346 74.0835 584.968 73.4348 584.36 73.0564C584.252 72.9888 584.13 73.0969 584.157 73.205C584.319 73.8402 584.711 74.3808 584.982 74.9755C585.252 75.5701 585.387 76.2459 585.86 76.7189C585.968 76.827 586.211 76.7865 586.238 76.6243C586.347 75.9215 586.009 75.2998 585.684 74.7052Z" fill="#1798CF"/>
<path d="M587.806 72.9752C587.739 72.813 587.496 72.9076 587.496 73.0563C587.482 73.7321 587.577 74.4078 587.55 75.0835C587.523 75.8134 587.252 76.4215 587.09 77.1243C587.023 77.4216 587.36 77.5973 587.577 77.4081C588.793 76.435 588.347 74.2051 587.806 72.9752Z" fill="#1798CF"/>
<path d="M459.793 83.625C459.536 83.2061 459.144 82.8952 458.874 82.4627C458.617 82.0438 458.468 81.5843 458.252 81.1383C458.171 80.9761 457.941 81.0707 457.928 81.2194C457.847 82.1519 458.509 83.598 459.374 84.017C459.644 84.1521 459.955 83.8953 459.793 83.625Z" fill="#4283D1"/>
<path d="M460.401 82.4357C460.293 82.4222 460.185 82.5439 460.28 82.6385C460.685 82.9763 461.145 83.2466 461.523 83.6386C461.902 84.017 462.212 84.463 462.618 84.8279C462.753 84.9495 462.956 84.8279 462.915 84.6522C462.672 83.6115 461.442 82.6114 460.401 82.4357Z" fill="#4283D1"/>
<path d="M529.895 122.183C529.354 122.21 528.841 122.399 528.3 122.413C527.692 122.413 527.151 122.224 526.57 122.129C526.408 122.102 526.273 122.291 526.408 122.413C527.259 123.264 529.165 123.44 530.097 122.67C530.287 122.508 530.138 122.17 529.895 122.183Z" fill="#4283D1"/>
<path d="M531.463 121.332C531.274 121.115 530.841 121.345 530.949 121.629C531.152 122.129 531.382 122.602 531.517 123.129C531.652 123.643 531.611 124.224 531.787 124.724C531.909 125.048 532.328 125.048 532.449 124.724C532.855 123.697 532.152 122.089 531.463 121.332Z" fill="#4283D1"/>
<path d="M541.977 124.521C541.585 124.237 541.058 124.143 540.612 123.967C540.139 123.791 539.693 123.508 539.193 123.399C539.099 123.386 539.031 123.467 539.072 123.562C539.477 124.454 540.977 125.251 541.923 124.994C542.153 124.94 542.153 124.643 541.977 124.521Z" fill="#4283D1"/>
<path d="M541.802 127.224C541.315 126.954 540.748 127.265 540.22 127.332C539.531 127.427 538.828 127.332 538.139 127.386C537.991 127.4 537.95 127.576 538.072 127.657C538.68 128.089 539.423 128.184 540.166 128.17C540.734 128.157 541.626 128.143 541.883 127.548C541.937 127.427 541.923 127.292 541.802 127.224Z" fill="#4283D1"/>
<path d="M541.964 130.63C541.68 129.941 541.004 129.373 540.409 128.967C540.261 128.859 540.112 129.062 540.18 129.197C540.463 129.819 540.936 130.603 541.531 130.968C541.72 131.103 542.058 130.887 541.964 130.63Z" fill="#4283D1"/>
<path d="M460.847 37.6879C462.172 36.5391 463.564 33.9443 464.523 32.5657C464.537 30.2277 460.847 24.4433 458.347 21.8079C458.915 20.0915 458.063 17.2533 456.779 15.5505C455.495 13.8476 453.022 12.5907 453.022 12.5907L448.481 15.5505C448.481 15.5505 454.549 35.2012 460.847 37.6879Z" fill="#E52C2C"/>
<path d="M457.049 92.5854C457.049 92.5854 456.901 93.8152 456.522 95.0991C456.13 96.383 456.617 98.1805 456.617 98.1805C456.617 98.1805 456.901 98.9779 458.09 99.2077C459.198 99.4239 460.104 99.1536 460.104 99.1536C460.104 99.1536 461.198 100.478 462.631 101.478C464.064 102.478 467.213 103.276 468.064 103.141C469.443 102.924 470.186 101.857 470.078 101.154C469.97 100.465 468.348 98.5319 467.01 97.694C466.145 97.1534 464.172 95.3154 463.577 94.6802C462.59 93.626 461.874 92.4637 461.874 92.4637L457.049 92.5854Z" fill="#2C1D1B"/>
<path d="M455.157 37.6879C455.157 37.6879 459.158 47.9051 459.779 52.0407C460.401 56.1763 461.644 62.4336 462.388 67.6369C463.131 72.8401 463.131 77.9217 462.78 83.0034C462.645 85.0171 461.901 90.3014 462.293 93.1665C461.861 95.0316 457.482 95.2614 456.968 93.099C456.644 91.761 453.292 79.8679 452.954 76.1242C452.617 72.3806 453.495 69.7047 453.495 69.7047C453.495 69.7047 448.035 58.0278 446.129 53.4327C444.224 48.8377 445.521 43.1479 445.521 43.1479L455.157 37.6879Z" fill="#2C1D1B"/>
<path d="M436.507 103.073C436.507 103.073 435.764 105.816 435.858 107.398C435.953 108.979 436.331 109.357 436.804 109.898C437.291 110.439 437.845 110.209 437.845 110.209C437.845 110.209 438.061 113.479 439.615 114.804C441.17 116.128 443.981 116.25 445.278 115.777C446.575 115.29 445.724 112.952 444.454 110.655C443.183 108.357 441.575 105.884 441.17 103.803C438.088 103.37 436.507 103.073 436.507 103.073Z" fill="#2C1D1B"/>
<path d="M440.818 41.9181C440.818 41.9181 438.858 44.6887 437.291 49.5676C436.196 53.0004 436.372 61.2174 436.372 61.2174C436.372 61.2174 436.088 69.3129 436.615 72.1104C437.142 74.908 437.088 75.4757 437.088 75.4757C437.088 75.4757 434.844 82.1926 435.182 90.1258C435.534 98.0591 436.182 103.762 436.182 103.762C436.182 103.762 436.628 105.263 438.669 105.465C440.521 105.654 441.886 104.371 441.886 104.371C441.886 104.371 445.292 87.558 446.548 83.7333C447.805 79.9086 448.278 75.4892 448.278 75.4892L450.86 56.6224C450.86 56.6224 455.955 53.2977 453.346 44.8914C451.698 39.6341 440.818 41.9181 440.818 41.9181Z" fill="#3F2A28"/>
<path d="M444.846 15.8342C445.9 15.4964 450.049 14.1584 450.468 14.3611C453.441 15.8343 456.793 21.6051 457.225 25.4974C457.401 27.1057 457.09 34.4578 456.13 37.0527C457.536 37.6744 457.293 38.9583 456.698 39.7421C457.266 40.526 457.658 40.6611 457.969 41.418C458.55 42.8641 457.779 43.5533 456.766 44.648C455.293 46.2428 452.711 47.5267 448.481 48.1214C443.589 48.7971 439.832 46.7699 438.318 44.7426C437.953 44.2696 438.021 43.0127 439.088 42.3235C438.277 39.8503 437.669 35.12 436.872 32.1468C435.669 27.6733 434.493 22.3484 437.074 18.9697C438.223 17.4966 442.548 16.5911 444.846 15.8342Z" fill="#F9423E"/>
<path d="M450.522 15.3341C450.522 15.3341 452.144 17.2668 453.306 19.4291C454.441 21.5375 454.725 23.9566 454.725 23.9566L447.549 27.8489C447.549 27.8489 445.021 23.4701 443.197 21.3077C441.21 18.9426 439.777 17.4154 439.777 17.4154L438.521 17.9425C438.521 17.9425 441.21 21.5375 442.345 23.6458C442.926 24.7135 444.927 27.8624 445.413 30.4708C445.602 31.4709 444.994 37.1472 444.616 40.107C443.954 45.3643 438.129 44.2831 438.129 44.2831C438.129 44.2831 436.655 47.0671 435.52 52.8785C434.696 57.1222 435.426 61.6362 435.52 68.0963C435.588 73.0293 434.804 78.9893 434.804 78.9893C434.804 78.9893 444.629 81.5166 449.751 80.6382C456.036 79.5705 460.604 76.827 462.145 75.7863C464.577 74.151 465.442 72.2319 465.442 72.2319C465.442 72.2319 462.956 62.839 460.699 53.8516C459.171 47.7429 458.847 44.2966 458.063 40.107C457.563 37.458 456.941 31.7953 456.901 28.1327C456.847 24.4702 454.982 18.7804 453.765 16.9154C452.09 14.334 450.643 13.8745 450.643 13.8745L450.522 15.3341Z" fill="#15ABEB"/>
<path d="M451.819 45.3373C451.4 45.3643 449.441 47.0267 447.292 47.3375C444.913 47.6754 443.805 47.1077 442.913 46.7023C443.48 46.6753 444.994 46.9321 447.184 46.3644C449.359 45.7968 451.819 45.3373 451.819 45.3373Z" fill="#F4EBEA"/>
<path d="M455.428 39.634C455.428 39.634 454.13 41.4315 452.346 42.4992C450.562 43.5669 448.819 43.9047 448.819 43.9047C448.819 43.9047 450.657 42.4587 451.819 41.5396C452.968 40.6206 455.428 39.634 455.428 39.634Z" fill="#F4EBEA"/>
<path d="M446.562 59.9874C446.562 59.9874 448.427 64.9744 450.103 69.3668C451.049 71.84 452.522 75.2187 452.522 75.2187C452.522 75.2187 450.522 74.1105 448.805 70.3534C446.954 66.2583 446.562 59.9874 446.562 59.9874Z" fill="#F4EBEA"/>
<path d="M444.346 10.4823C444.346 10.4823 448.292 13.4826 449.603 15.4963C451.819 18.9021 452.117 19.9157 450.143 21.7943C445.102 22.5106 442.21 19.3886 441.345 16.8748C442.602 16.1856 444.346 10.4823 444.346 10.4823Z" fill="#FFB9A4"/>
<path d="M442.345 15.5774C442.345 15.5774 442.913 18.1993 444.629 19.4832C446.697 21.0374 450.576 21.2942 450.576 22.3484C449.454 22.3484 449.224 22.4159 449.224 23.2268C449.224 24.754 448.778 25.1054 448.778 25.1054C448.778 25.1054 445.602 24.1053 443.589 23.2674C441.061 22.2132 440.278 17.3884 440.278 17.3884C440.278 17.3884 440.845 15.4423 442.345 15.5774Z" fill="#E52C2C"/>
<path d="M450.562 16.064C450.562 16.064 452.198 17.8479 452.901 18.6588C453.603 19.4832 453.198 20.9834 453.549 21.6726C453.901 22.3484 454.063 22.8079 454.063 22.8079C454.063 22.8079 452.603 22.5106 452.319 21.6726C452.036 20.8347 450.576 22.3484 450.576 22.3484L449.549 21.4969C449.549 21.4969 451.103 20.4968 450.576 19.4292C450.049 18.3615 449.17 16.9559 449.17 16.9559L450.562 16.064Z" fill="#E52C2C"/>
<path d="M454.049 8.6309C453.982 6.90099 453.603 4.73859 452.279 3.50873C450.968 2.29239 448.711 2.17077 447.008 2.2924C444.372 2.48161 442.507 5.40081 442.98 8.77954C443.413 11.9015 445.494 16.6993 448.968 17.3615C450.738 17.6994 452.117 16.3614 452.927 14.6585C453.887 12.6313 454.117 10.0635 454.049 8.6309Z" fill="#FFC9B6"/>
<path d="M453.319 5.88721C453.319 5.88721 453.319 5.87378 453.333 5.87378C453.319 5.90066 453.319 5.90065 453.319 5.88721Z" fill="#301333"/>
<path d="M440.886 6.92791C440.832 4.53577 441.886 1.50843 444.413 0.548873C445.792 0.0217912 448.968 -0.4242 450.414 0.697537C450.522 0.548873 450.657 0.413733 450.819 0.305614C451.63 -0.234982 452.698 0.0758574 453.347 0.724573C453.806 1.18408 454.076 1.80576 454.238 2.46799C455.617 1.68412 457.387 3.5492 456.779 5.29262C455.874 7.87397 452.279 8.15777 450.157 7.07658C449.846 9.19842 447.751 10.9824 445.589 11.0365C445.116 12.1582 444.264 13.5908 442.913 13.8475C442.535 11.7257 440.886 9.29302 440.886 6.92791Z" fill="#3F2A28"/>
<path d="M445.643 11.1039C445.643 11.1039 445.008 9.72538 443.913 10.4822C442.832 11.239 444.778 13.5231 444.778 13.5231L445.643 11.1039Z" fill="#FFC9B6"/>
<path d="M452.928 38.4042C452.928 38.4042 451.765 40.4855 449.4 41.2423C447.035 42.0126 445.521 41.6477 445.521 41.6477C445.521 41.6477 448.157 40.8098 449.184 40.3368C450.211 39.8773 452.928 38.4042 452.928 38.4042Z" fill="#F4EBEA"/>
<path d="M438.088 43.9047C438.088 43.9047 440.886 46.0941 441.67 47.2023C442.454 48.3105 442.048 50.0945 441.913 52.2028C441.778 54.3247 439.764 53.7706 438.129 53.5678C436.507 53.3651 436.115 52.5812 437.075 52.2028C438.034 51.8244 439.291 52.2028 439.291 52.2028C439.291 52.2028 436.71 50.7702 436.548 48.1348C436.412 45.5129 438.088 43.9047 438.088 43.9047Z" fill="#FFC9B6"/>
<path d="M424.546 37.8365C425.533 35.6066 425.965 34.9173 427.614 32.2414C429.249 29.5519 429.682 28.6194 431.709 26.011C432.425 21.3889 434.615 18.5913 437.588 18.4562C439.386 19.8347 440.737 29.8357 438.967 32.8901C437.548 35.3498 436.831 36.0256 435.372 36.8635C434.993 37.8231 434.101 38.6069 433.534 39.4178C434.561 40.1476 435.764 41.0126 436.71 41.7153C438.791 43.2696 440.115 45.3103 440.115 45.3103C440.115 45.3103 439.507 46.4456 438.575 47.4186C437.642 48.3917 436.791 49.2161 436.791 49.2161C436.791 49.2161 430.155 47.2835 428.195 45.6887C427.209 44.8913 426.073 43.5669 425.614 42.2019C425.249 41.1612 424.033 38.9988 424.546 37.8365Z" fill="#E52C2C"/>
<path d="M499.865 116.061C499.5 115.75 499.189 115.466 498.946 115.25L496.445 112.993C489.647 106.857 483.241 101.059 473.227 91.2879C467.821 86.0171 462.699 78.7056 461.793 61.1091C461.307 51.6487 464.253 43.256 467.307 41.3504C468.186 40.7962 468.767 41.0125 469.145 41.2152C473.416 43.5803 480.89 49.4323 480.971 49.4863C481.43 49.8512 482.106 49.7702 482.471 49.2971C482.836 48.8376 482.755 48.1619 482.282 47.797C481.971 47.5537 474.592 41.7963 470.186 39.3366C468.929 38.6339 467.51 38.7014 466.186 39.5258C462.036 42.1072 459.171 51.6352 459.671 61.2038C460.617 79.5435 466.037 87.2335 471.754 92.8016C481.795 102.6 488.228 108.411 495.04 114.561L497.527 116.818C497.783 117.047 498.108 117.331 498.473 117.656C501.365 120.196 508.136 126.129 507.649 130.103C507.514 131.157 506.568 132.022 505.622 133.022C505.73 133.765 505.703 134.252 505.636 135.049C505.838 134.995 506.041 134.928 506.244 134.819C508.352 133.738 509.541 132.238 509.771 130.373C510.379 125.278 503.27 119.048 499.865 116.061Z" fill="#593D3D"/>
<path d="M496.31 70.9617L510.176 77.5434L493.567 86.247L496.31 70.9617Z" fill="#C6AFAF"/>
<path d="M497.094 70.5426L510.947 77.1244L494.351 85.828L497.094 70.5426Z" fill="#EFDFDF"/>
<path d="M510.947 77.1244L511.406 78.1921L494.351 87.166L493.918 87.3552L493.567 86.247L510.947 77.1244Z" fill="#C6AFAF"/>
<path d="M480.39 45.3779C480.39 45.3779 483.201 48.5404 484.755 50.6217C485.742 51.9462 488.607 56.0006 488.607 56.0006L485.796 58.0279C485.796 58.0279 482.971 53.8923 481.795 52.3922C480.944 51.311 477.768 47.662 477.768 47.662C477.768 47.662 478.376 45.3779 480.39 45.3779Z" fill="#352221"/>
<path d="M485.769 57.9467C485.985 58.2711 486.81 58.1089 487.607 57.5683C488.404 57.0277 488.864 56.3384 488.648 56.0141C488.431 55.6897 487.607 55.8519 486.81 56.3925C486.012 56.9331 485.553 57.6223 485.769 57.9467Z" fill="#472F2E"/>
<path d="M486.35 57.7034C486.485 57.9062 487.012 57.8115 487.526 57.4602C488.039 57.1223 488.323 56.6763 488.188 56.4601C488.053 56.2573 487.526 56.3519 487.012 56.7033C486.499 57.0547 486.215 57.5007 486.35 57.7034Z" fill="#EFDFDF"/>
<path d="M500.041 77.7596L501.865 76.5027L488.188 56.4465L486.35 57.7034L500.041 77.7596Z" fill="#EFDFDF"/>
<path d="M494.351 85.8281L494.729 86.9634L493.918 87.3553L493.567 86.2471L494.351 85.8281Z" fill="#B29A9A"/>
<path d="M461.834 30.7141C461.834 30.7141 465.037 31.552 467.821 33.5658C470.605 35.5795 473.916 38.6338 473.916 38.6338L470.767 42.8505C470.767 42.8505 465.213 41.2422 462.415 39.6339C459.618 38.0257 458.982 35.8363 458.982 35.8363L461.834 30.7141Z" fill="#E52C2C"/>
<path d="M473.119 37.8907C473.119 37.8907 471.578 37.6879 470.375 39.1611C469.308 40.472 469.551 42.3235 470.565 42.7155C471.024 42.9047 473.024 43.4318 473.457 43.8778C473.876 44.3238 475.984 47.4457 476.457 46.8781C476.998 46.2158 476.214 45.5671 475.93 44.8644C475.754 44.4319 476.011 43.648 476.349 43.3507C477.336 44.0535 479.376 45.6482 479.376 45.6482C479.376 45.6482 483.174 45.0671 480.782 41.7424C479.863 40.472 477.403 40.2558 476.092 39.8098C474.768 39.3908 473.119 37.8907 473.119 37.8907Z" fill="#FFC9B6"/>
<path d="M478.025 134.508L480.147 133.306V133.319C480.417 133.171 480.782 133.171 481.16 133.4C482.039 133.9 482.741 135.265 482.741 136.428C482.741 136.995 482.566 137.414 482.295 137.63H482.282C482.241 137.671 482.187 137.684 482.133 137.712L480.038 138.901L478.025 134.508Z" fill="#281818"/>
<path d="M477.444 135.819C477.444 136.982 478.16 138.347 479.025 138.847C479.903 139.347 480.606 138.82 480.606 137.644C480.606 136.482 479.89 135.117 479.025 134.617C478.16 134.116 477.444 134.644 477.444 135.819Z" fill="#3F2A28"/>
<path d="M478.025 136.279C478.025 136.914 478.417 137.658 478.89 137.941C479.363 138.212 479.755 137.928 479.755 137.279C479.755 136.63 479.363 135.901 478.89 135.617C478.417 135.347 478.025 135.63 478.025 136.279Z" fill="#EDEDED"/>
<path d="M489.756 127.873L491.878 126.67C492.148 126.521 492.513 126.521 492.891 126.751C493.77 127.251 494.473 128.616 494.473 129.778C494.473 130.346 494.297 130.765 494.027 130.981H494.013C493.973 131.022 493.918 131.035 493.864 131.062L491.77 132.252L489.756 127.873Z" fill="#281818"/>
<path d="M489.175 129.17C489.175 130.333 489.891 131.697 490.756 132.198C491.635 132.698 492.337 132.17 492.337 130.995C492.337 129.832 491.621 128.467 490.756 127.967C489.878 127.467 489.175 128.008 489.175 129.17Z" fill="#3F2A28"/>
<path d="M489.756 129.643C489.756 130.278 490.148 131.022 490.621 131.306C491.094 131.589 491.486 131.292 491.486 130.643C491.486 130.008 491.094 129.265 490.621 128.981C490.148 128.711 489.756 128.994 489.756 129.643Z" fill="#EDEDED"/>
<path d="M458.807 121.697C458.807 118.804 457.05 115.439 454.874 114.182C454.32 113.871 453.671 113.709 453.158 113.709C452.752 113.709 451.711 113.75 450.644 114.412C449.414 115.182 449.252 117.061 449.252 117.061L453.658 125.981C453.658 125.981 455.077 126.684 456.536 125.873C457.442 125.373 457.996 124.548 458.239 124.102C458.347 123.899 458.509 123.494 458.564 123.345C458.712 122.886 458.807 122.332 458.807 121.697Z" fill="#281818"/>
<path d="M449.157 118.196C449.157 121.088 450.914 124.454 453.09 125.711C455.266 126.967 457.023 125.629 457.023 122.737C457.023 119.845 455.266 116.48 453.09 115.223C450.914 113.966 449.157 115.291 449.157 118.196Z" fill="#3F2A28"/>
<path d="M449.616 118.777C449.616 120.926 450.927 123.426 452.536 124.359C454.144 125.291 455.455 124.305 455.455 122.156C455.455 120.007 454.144 117.507 452.536 116.574C450.927 115.642 449.616 116.628 449.616 118.777Z" fill="#FFC373"/>
<path d="M453.333 113.871C452.738 113.533 452.184 113.358 451.657 113.317V108.155L467.591 110.412C469.132 110.344 470.645 110.547 471.902 111.02L495.689 114.385V126.048C495.824 127.359 494.932 128.765 493.053 129.846L485.336 134.306C482.133 136.157 477.241 136.36 474.47 134.752L457.063 124.805C457.266 124.21 457.374 123.521 457.374 122.724C457.387 119.183 455.995 115.399 453.333 113.871Z" fill="#EDEDED"/>
<path d="M452.306 113.831C451.684 113.479 451.09 113.29 450.549 113.25V107.817L467.294 110.182C468.916 110.114 470.511 110.33 471.822 110.817L496.824 114.358V121.223V124.197C496.959 125.575 496.027 127.048 494.054 128.184L485.945 132.873C482.579 134.819 477.444 135.022 474.525 133.346L457.82 123.697C457.82 123.697 457.482 123.521 457.347 123.44C457.347 123.345 457.347 123.088 457.347 122.98C457.158 119.399 454.968 115.372 452.306 113.831Z" fill="#EDEDED"/>
<path d="M450.549 107.492V105.668C450.549 105.668 450.86 105.681 451.252 105.708C451.725 105.073 452.401 104.465 453.32 103.924L461.429 99.2346C464.794 97.2885 469.929 97.0722 472.849 98.7616L494.864 111.479C495.486 111.844 495.946 112.263 496.27 112.709L496.811 112.587L496.797 114.101C496.919 115.466 495.986 116.939 494.027 118.074L485.918 122.764C482.552 124.71 477.417 124.926 474.497 123.237L452.482 110.52C451.117 109.709 450.481 108.614 450.549 107.492Z" fill="#352221"/>
<path d="M474.525 121.386L452.509 108.668C449.59 106.992 449.968 104.019 453.333 102.073L461.442 97.3832C464.807 95.437 469.943 95.2208 472.862 96.9102L494.878 109.628C497.797 111.304 497.419 114.277 494.054 116.223L485.945 120.913C482.579 122.859 477.444 123.075 474.525 121.386Z" fill="#FFC373"/>
<path d="M486.026 107.492L470.835 98.7212C468.821 97.5589 465.28 97.7075 462.956 99.0455L457.361 102.276C456.293 102.884 455.685 103.654 455.509 104.411C455.239 103.384 455.86 102.235 457.361 101.37L462.956 98.14C465.28 96.802 468.821 96.6534 470.835 97.8157L486.026 106.587C487.12 107.222 487.512 108.101 487.31 109.006C487.161 108.438 486.742 107.911 486.026 107.492Z" fill="#EDEDED"/>
<path d="M485.472 111.141L479.876 114.371C477.552 115.709 474.011 115.858 471.997 114.696L456.806 105.925C456.09 105.506 455.671 104.979 455.522 104.411C455.698 103.654 456.306 102.897 457.374 102.276L462.969 99.0455C465.294 97.7075 468.835 97.5589 470.848 98.7212L486.039 107.492C486.755 107.911 487.174 108.438 487.323 109.006C487.134 109.763 486.526 110.52 485.472 111.141Z" fill="#EDEDED"/>
<path d="M478.862 118.642L462.847 109.398C460.725 108.168 460.996 106.019 463.442 104.6L469.334 101.194C471.781 99.7753 475.511 99.6266 477.633 100.856L493.648 110.101C495.77 111.331 495.499 113.479 493.053 114.898L487.161 118.304C484.714 119.723 480.984 119.872 478.862 118.642Z" fill="#EFDFDF"/>
<path d="M479.147 116.71L464.915 108.492C463.037 107.411 463.267 105.492 465.442 104.235L470.686 101.208C472.862 99.951 476.187 99.8158 478.065 100.897L492.297 109.114C494.175 110.195 493.945 112.114 491.77 113.371L486.526 116.399C484.35 117.669 481.025 117.804 479.147 116.71Z" fill="#15ABEB"/>
<path d="M491.337 109.857C491.337 109.857 488.229 110.155 485.823 111.776C483.417 113.385 480.525 116.088 480.525 116.088L479.674 115.601C479.674 115.601 482.796 112.344 485.201 111.02C487.607 109.695 490.513 109.344 490.513 109.344L491.337 109.857Z" fill="#EFDFDF"/>
<path d="M487.931 107.911C487.931 107.911 484.823 108.209 482.417 109.83C480.011 111.452 477.119 114.142 477.119 114.142L476.268 113.655C476.268 113.655 479.39 110.398 481.795 109.074C484.201 107.749 487.107 107.398 487.107 107.398L487.931 107.911Z" fill="#EFDFDF"/>
<path d="M484.525 105.898C484.525 105.898 481.417 106.195 479.011 107.817C476.606 109.438 473.714 112.128 473.714 112.128L472.862 111.641C472.862 111.641 475.984 108.384 478.39 107.046C480.795 105.722 483.701 105.37 483.701 105.37L484.525 105.898Z" fill="#EFDFDF"/>
<path d="M481.12 103.951C481.12 103.951 478.011 104.249 475.606 105.871C473.2 107.492 470.308 110.182 470.308 110.182L469.456 109.695C469.456 109.695 472.578 106.438 474.984 105.114C477.39 103.789 480.295 103.438 480.295 103.438L481.12 103.951Z" fill="#EFDFDF"/>
<path d="M477.728 102.005C477.728 102.005 474.619 102.303 472.214 103.924C469.808 105.546 466.916 108.236 466.916 108.236L466.064 107.749C466.064 107.749 469.186 104.492 471.592 103.154C473.997 101.83 476.903 101.478 476.903 101.478L477.728 102.005Z" fill="#EFDFDF"/>
<path d="M465.483 121.913L458.726 118.007V116.128L465.483 120.034V121.913Z" fill="#352221"/>
<path d="M465.483 123.859L458.726 119.953V119.021L465.483 122.913V123.859Z" fill="#352221"/>
<path d="M463.51 100.329C463.118 100.329 462.807 100.492 462.807 100.694C462.807 100.897 463.118 101.059 463.51 101.059C463.902 101.059 464.212 100.897 464.212 100.694C464.212 100.492 463.888 100.329 463.51 100.329Z" fill="#3F2A28"/>
<path d="M465.55 99.1266C465.158 99.1266 464.848 99.2888 464.848 99.4915C464.848 99.6942 465.158 99.8564 465.55 99.8564C465.929 99.8564 466.253 99.6942 466.253 99.4915C466.253 99.2888 465.929 99.1266 465.55 99.1266Z" fill="#3F2A28"/>
<path d="M457.468 103.681C457.076 103.681 456.766 103.843 456.766 104.046C456.766 104.249 457.076 104.411 457.468 104.411C457.86 104.411 458.171 104.249 458.171 104.046C458.171 103.843 457.86 103.681 457.468 103.681Z" fill="#3F2A28"/>
<path d="M459.523 102.492C459.131 102.492 458.82 102.654 458.82 102.857C458.82 103.059 459.131 103.222 459.523 103.222C459.915 103.222 460.226 103.059 460.226 102.857C460.226 102.654 459.915 102.492 459.523 102.492Z" fill="#3F2A28"/>
<path d="M461.577 101.289C461.185 101.289 460.874 101.451 460.874 101.654C460.874 101.857 461.185 102.019 461.577 102.019C461.969 102.019 462.28 101.857 462.28 101.654C462.266 101.465 461.955 101.289 461.577 101.289Z" fill="#3F2A28"/>
<path d="M467.605 97.9508C467.213 97.9508 466.902 98.113 466.902 98.3157C466.902 98.5184 467.213 98.6806 467.605 98.6806C467.997 98.6806 468.307 98.5184 468.307 98.3157C468.307 98.113 467.997 97.9508 467.605 97.9508Z" fill="#3F2A28"/>
<path d="M470.497 99.3158L465.388 102.262L464.307 101.64L469.416 98.6941L470.497 99.3158Z" fill="#3F2A28"/>
<path d="M464.415 102.884L459.307 105.83L458.239 105.208L463.348 102.262L464.415 102.884Z" fill="#3F2A28"/>
<path d="M489.783 122.183C489.458 121.926 488.999 121.899 488.485 122.197C487.485 122.778 486.674 124.318 486.674 125.656C486.674 126.373 486.918 126.873 487.296 127.102V127.116L488.715 127.981L491.08 122.953L489.783 122.183Z" fill="#3F2A28"/>
<path d="M491.675 124.413C491.675 125.751 490.864 127.292 489.864 127.873C488.864 128.454 488.053 127.832 488.053 126.508C488.053 125.17 488.864 123.629 489.864 123.048C490.864 122.467 491.675 123.088 491.675 124.413Z" fill="#493130"/>
<path d="M501.365 137.509C501.324 137.509 501.297 137.509 501.257 137.509C499.662 137.482 498.189 136.671 496.891 135.13C496.148 134.252 495.513 133.306 494.837 132.306C493.472 130.292 492.066 128.211 489.593 126.292C489.12 125.927 489.039 125.264 489.404 124.791C489.755 124.318 490.431 124.237 490.904 124.602C493.661 126.724 495.229 129.049 496.621 131.103C497.27 132.062 497.878 132.954 498.54 133.752C499.446 134.819 500.351 135.347 501.311 135.374C501.324 135.374 501.351 135.374 501.365 135.374C503.297 135.374 505.392 133.373 506.987 131.616C507.392 131.184 508.055 131.157 508.501 131.549C508.933 131.954 508.96 132.63 508.568 133.063C506.554 135.265 504.122 137.509 501.365 137.509Z" fill="#593D3D"/>
<path d="M590.658 138.306C590.509 138.469 575.143 155.038 558.695 160.957C554.492 162.471 550.154 162.849 545.802 162.755C543.964 159.457 540.856 156.727 537.234 155.605C530.49 153.497 523.597 153.862 516.299 154.24C511.488 154.484 506.528 154.741 501.027 154.389C479.606 153.011 460.374 142.51 453.266 136.225C446.359 130.103 445.359 123.183 446.724 118.75C448.008 114.574 449.657 112.223 450.576 111.141V110.344C449.765 111.182 447.751 113.615 446.211 118.602C444.792 123.197 445.805 130.346 452.901 136.644C460.05 142.983 479.43 153.565 500.987 154.943C506.514 155.295 511.501 155.038 516.326 154.795C523.881 154.403 530.409 154.065 537.071 156.133C540.464 157.187 543.383 159.7 545.18 162.755C542.315 162.674 539.437 162.403 536.612 162.133C528.327 161.349 520.489 160.606 515.448 165.444C513.015 167.782 512.407 170.675 513.772 173.391C515.786 177.378 521.867 180.716 530.328 180.716C532.22 180.716 534.22 180.554 536.328 180.189C543.126 179.027 547.221 175.31 547.573 170.012C547.721 167.755 547.167 165.431 546.086 163.309C550.37 163.363 554.749 162.971 558.885 161.484C575.454 155.524 590.915 138.86 591.064 138.685L590.658 138.306ZM547.032 169.958C546.694 174.999 542.761 178.527 536.234 179.648C524.935 181.581 516.61 177.837 514.245 173.134C512.974 170.607 513.528 167.999 515.813 165.809C518.867 162.876 522.908 162.066 527.611 162.066C530.382 162.066 533.395 162.349 536.558 162.647C539.41 162.917 542.423 163.201 545.478 163.268C546.586 165.377 547.181 167.701 547.032 169.958Z" fill="#593D3D"/>
<path d="M305.093 50.331C300.653 48.3274 298.441 41.5312 297.928 37.1714C297.415 32.7475 298.12 27.971 296.421 23.7554C295.091 20.4535 292.51 18.8506 288.952 19.0109C287.205 19.0911 285.377 19.604 284.207 20.71C283.278 21.3992 282.765 22.5052 282.957 23.6753C282.957 23.7234 282.957 23.7715 282.957 23.8035C282.957 23.8356 282.973 23.8516 283.005 23.8516C283.037 23.9638 283.037 24.076 283.085 24.1882C283.213 24.5569 283.47 24.9255 283.79 25.2621C283.839 25.3102 283.871 25.3583 283.919 25.3904C284.544 25.9674 285.361 26.3521 286.115 26.1918C287.429 26.4162 288.872 26.5124 289.545 27.1695C291.164 28.7083 290.667 32.2506 290.939 34.2863C291.212 36.2899 291.388 39.8001 291.837 41.7717C292.975 46.8688 298.232 52.2865 305.093 50.331Z" fill="#2C1D1B"/>
<path d="M280.104 23.4989C280.104 23.4989 282.043 20.8702 284.624 22.6013C288.054 24.9095 287.044 27.2657 286.163 27.8908C285.297 28.5159 280.104 23.4989 280.104 23.4989Z" fill="#F9423E"/>
<path d="M306.487 117.395L308.074 120.809C308.074 120.809 307.257 123.101 306.584 124.464C305.91 125.826 304.74 125.618 303.73 127.333C302.721 129.048 303.843 130.122 307.016 130.234C310.174 130.346 310.863 128.759 311.841 126.692C312.819 124.624 314.293 121.947 314.309 120.232C314.341 117.523 312.017 117.619 310.671 116.674C309.773 116.065 306.487 117.395 306.487 117.395Z" fill="#FFC9B6"/>
<path d="M268.371 130.923C267.842 132.238 267.073 133.905 264.396 134.353C260.966 134.914 260.196 134.369 258.69 135.363C257.183 136.373 259.299 138.296 260.966 139.483C263.418 141.23 266.239 140.396 268.05 139.995C270.455 139.467 272.939 138.649 272.827 136.261C272.699 133.889 273.676 132.286 273.676 132.286C273.676 132.286 269.252 128.695 268.371 130.923Z" fill="#FFC9B6"/>
<path d="M264.011 134.401C264.011 134.401 263.979 135.523 265.374 136.213C266.768 136.886 269.541 136.998 270.551 136.277C271.561 135.539 272.859 134.93 272.859 134.93C272.859 134.93 273.885 137.735 270.519 139.274C267.153 140.813 265.326 141.903 261.895 140.861C258.481 139.819 256.285 137.591 258.161 135.379C259.074 134.289 264.011 134.401 264.011 134.401Z" fill="#3F2A28"/>
<path d="M304.195 105.646C302.801 104.684 301.438 104.316 299.739 103.979C303.923 96.686 303.971 89.377 302.336 81.1863C301.887 78.9263 300.941 73.6368 298.601 72.3865C297.655 71.8897 286.66 72.2904 285.538 71.9538C285.522 71.9538 285.49 71.9377 285.474 71.9377C284.48 75.3999 283.294 79.8719 283.182 81.7794C282.893 86.6681 286.82 87.8542 286.82 87.8542C286.82 87.8542 286.98 90.4188 287.493 92.6308C288.487 97.3272 290.507 103.979 293.312 107.81C293.103 110.391 294.786 111.064 296.918 111.577C298.569 111.977 304.644 118.132 308.074 120.809C308.09 120.809 311.616 120.392 311.616 117.042C309.517 114.446 309.276 109.14 304.195 105.646Z" fill="#15ABEB"/>
<path d="M283.181 81.7632C283.294 79.8558 284.48 75.3838 285.474 71.9216C283.47 71.3125 280.697 70.8477 279.976 70.5271C273.436 80.2565 271.513 92.7268 271.384 104.364C269.846 106.784 270.423 109.926 270.439 112.699C270.487 118.068 269.22 123.454 268.595 128.791C268.515 129.545 268.227 130.603 268.018 131.709C269.172 132.366 272.907 133.247 273.26 133.119C275.103 127.701 278.469 121.835 279.383 116.145C279.639 114.606 279.735 113.051 279.591 111.48C279.463 110.054 278.725 108.515 279.27 107.121C279.719 105.967 281.034 104.684 281.723 103.61C282.781 101.943 283.742 100.212 284.64 98.4491C285.602 96.5737 286.58 94.6182 287.477 92.5986C286.964 90.3867 286.804 87.8221 286.804 87.8221C286.804 87.8221 282.909 86.652 283.181 81.7632Z" fill="#F4EBEA"/>
<path d="M275.68 40.9701C278.613 37.2515 280.328 37.7163 283.887 39.752C288.247 42.2524 291.773 43.8232 293.68 45.4101C296.918 48.1029 298.794 53.6488 299.339 60.6213C299.419 61.6792 300.06 65.2857 300.428 66.3596C301.775 70.1744 301.118 70.7995 300.156 71.6811C300.685 72.194 301.198 74.422 300.092 75.0632C295.043 78.0285 283.839 78.5574 279.928 71.3766C279.687 70.9278 280.312 69.389 280.617 68.9883C279.8 68.5235 279.222 67.4015 279.222 66.3596C277.732 65.5582 276.45 64.3239 276.113 62.2082C273.116 61.535 269.894 59.8519 270.872 56.2295C271.352 54.4663 272.827 50.4431 273.388 48.4235C274.526 44.4003 274.831 42.028 275.68 40.9701Z" fill="#F9423E"/>
<path d="M277.94 42.9258C278.758 42.7976 280.905 41.6916 280.264 37.7165C280.088 36.6105 285.089 33.6131 285.089 33.7734C285.041 37.3799 285.602 41.4992 287.253 43.3586C284.865 45.843 282.156 52.1423 278.084 51.2767C275.84 50.8119 276.321 47.51 277.94 42.9258Z" fill="#FFB9A4"/>
<path d="M276.049 41.6755C276.049 41.6755 275.327 45.4102 274.862 46.7566C274.398 48.1191 273.42 51.1966 273.42 51.1966C273.42 51.1966 274.75 50.4913 275.472 50.86C276.209 51.2286 276.786 52.1904 277.411 52.3506C278.036 52.5109 278.854 52.3506 278.854 52.3506L279.286 50.6356C279.286 50.6356 277.988 50.2669 277.924 48.087C277.876 45.8911 278.132 42.9258 278.132 42.9258L276.049 41.6755Z" fill="#E52C2C"/>
<path d="M285.65 40.1528C285.618 40.2169 284.544 42.7494 283.486 44.6729C282.38 46.7085 280.12 48.7281 278.902 49.7539C277.123 51.2606 277.78 53.6649 277.78 53.6649C277.78 53.6649 278.421 52.1262 279.27 52.3666C280.104 52.6071 280.969 53.3604 281.963 54.226C282.701 53.0559 284.448 51.8537 285.65 49.8181C286.82 47.8305 288.663 44.4004 287.99 41.9961C287.301 39.6078 285.65 40.1528 285.65 40.1528Z" fill="#E52C2C"/>
<path d="M273.725 29.3332C276.914 28.6119 278.581 28.4837 281.418 29.6377C283.005 30.0705 284.512 30.7758 285.954 31.7215C286.067 31.7856 286.147 31.9459 286.131 32.0901C285.409 36.2896 283.999 40.7456 279.27 42.621C275.392 44.1597 273.212 39.8961 272.538 37.043C271.753 33.709 271.513 29.8301 273.725 29.3332Z" fill="#FFC9B6"/>
<path d="M283.967 25.0698C280.921 22.6014 277.075 22.906 274.975 24.605C272.747 26.4163 270.984 29.093 271.977 31.9622C273.019 32.1706 274.494 31.2409 275.199 30.6478C276.482 32.0744 278.742 33.7574 281.499 33.3727C282.043 35.1198 283.214 38.9827 284.816 38.8705C288.022 32.2828 288.856 29.045 283.967 25.0698Z" fill="#3F2A28"/>
<path d="M280.922 35.328C280.922 35.328 281.691 32.7474 283.374 34.0778C285.057 35.4082 282.669 38.0209 282.669 38.0209L280.922 35.328Z" fill="#FFC9B6"/>
<path d="M306.567 124.464C306.567 124.464 306.343 125.057 304.756 126.115C303.169 127.173 302.752 128.535 302.752 129.368C302.752 130.202 304.596 131.404 307.064 131.228C309.532 131.052 310.975 130.122 312.161 127.75C313.347 125.377 315.062 120.088 314.565 118.918C314.293 118.261 313.267 117.972 313.043 117.796C313.043 117.796 313.427 118.982 313.107 120.04C312.562 121.835 311.921 123.101 311.071 124.512C310.222 125.922 308.731 126.163 307.721 125.65C306.695 125.169 306.567 124.464 306.567 124.464Z" fill="#3F2A28"/>
<path d="M329.28 161.57C327.805 161.57 326.251 161.346 324.68 160.769C318.268 158.412 318.3 154.518 318.364 148.619C318.38 147.497 318.38 146.343 318.364 145.093C318.268 140.925 316.681 137.944 313.892 136.71C311.135 135.491 307.465 136.229 304.788 138.569C303.586 139.611 302.512 140.621 301.454 141.598C296.822 145.894 293.151 149.292 287.012 148.811C284.496 148.619 282.46 147.593 280.937 145.766C278.213 142.496 277.203 136.581 278.02 128.679C278.485 124.127 279.318 118.934 280.12 113.901C281.322 106.399 282.444 99.3307 282.204 95.4999C281.498 84.6164 279.03 80.6252 279.014 80.5772L279.591 80.2085C279.703 80.3688 282.172 84.3599 282.893 95.4518C283.149 99.3468 282.011 106.463 280.809 113.997C280.008 119.014 279.174 124.207 278.709 128.727C277.908 136.453 278.87 142.191 281.482 145.317C282.877 147 284.768 147.946 287.092 148.122C292.959 148.587 296.341 145.445 301.021 141.085C302.079 140.108 303.169 139.082 304.371 138.04C307.289 135.491 311.135 134.722 314.197 136.068C317.242 137.415 318.974 140.605 319.07 145.061C319.102 146.327 319.086 147.481 319.07 148.603C319.022 154.405 318.973 157.916 324.952 160.112C331.732 162.612 338.593 158.06 338.657 158.012L339.041 158.573C338.769 158.749 334.505 161.57 329.28 161.57Z" fill="#593D3D"/>
<path d="M222 136.79V147.16C222 152.642 230.351 157.082 240.641 157.082C250.932 157.082 259.283 152.642 259.283 147.16V136.79H222Z" fill="#352221"/>
<path d="M240.641 152.786C230.351 152.786 222 148.346 222 142.865V144.403C222 149.885 230.351 154.325 240.641 154.325C250.932 154.325 259.283 149.885 259.283 144.403V142.865C259.283 148.346 250.948 152.786 240.641 152.786Z" fill="#44B7F0"/>
<path d="M279.687 75.8807C279.687 75.8807 277.748 81.4747 275.055 87.245C272.346 93.0154 267.778 95.1311 260.886 92.0216C253.977 88.928 268.211 68.9082 268.211 68.9082L279.687 75.8807Z" fill="#352221"/>
<path d="M240.641 127.317C230.351 127.317 222 131.757 222 137.239C222 142.72 230.351 147.16 240.641 147.16C250.932 147.16 259.283 142.72 259.283 137.239C259.283 131.757 250.948 127.317 240.641 127.317Z" fill="#472F2E"/>
<path d="M256.606 132.719C254.763 128.936 248.335 126.147 240.641 126.147C232.964 126.147 226.52 128.936 224.677 132.719H224.132V134.915C224.132 139.755 231.521 143.698 240.641 143.698C249.762 143.698 257.135 139.771 257.135 134.915V132.719H256.606Z" fill="#44B7F0"/>
<path d="M240.641 123.726C231.521 123.726 224.148 127.653 224.148 132.51C224.148 137.351 231.537 141.294 240.641 141.294C249.762 141.294 257.135 137.367 257.135 132.51C257.151 127.653 249.762 123.726 240.641 123.726Z" fill="#15ABEB"/>
<path d="M233.076 130.731C230.704 129.368 229.598 128.166 229.614 126.948C229.614 125.57 231.04 124.608 232.258 123.919C233.364 123.294 234.711 122.717 235.993 122.156C238.029 121.274 240.128 120.36 241.218 119.335C243.366 117.331 243.655 116.513 244.392 112.875C245.45 107.586 250.243 107.041 250.291 107.041L250.387 108.018C250.226 108.034 246.267 108.515 245.354 113.067C244.6 116.85 244.216 117.876 241.892 120.056C240.673 121.194 238.59 122.108 236.394 123.069C235.127 123.614 233.813 124.191 232.755 124.784C231.313 125.586 230.623 126.291 230.607 126.948C230.607 127.509 231.12 128.455 233.573 129.865L233.076 130.731Z" fill="#15ABEB"/>
<path d="M251.124 152.161C251.124 149.212 252.919 145.798 255.131 144.516C255.692 144.195 256.349 144.035 256.878 144.035C257.295 144.035 258.353 144.083 259.443 144.756C260.709 145.542 260.87 147.305 260.87 147.305L256.382 156.537C256.382 156.537 254.939 157.243 253.448 156.441C252.519 155.928 251.958 155.095 251.717 154.63C251.605 154.422 251.429 154.021 251.381 153.861C251.22 153.364 251.124 152.803 251.124 152.161Z" fill="#281818"/>
<path d="M260.966 148.587C260.966 151.536 259.171 154.95 256.959 156.233C254.747 157.515 252.951 156.153 252.951 153.203C252.951 150.254 254.747 146.84 256.959 145.558C259.171 144.275 260.966 145.638 260.966 148.587Z" fill="#3F2A28"/>
<path d="M260.485 148.972C260.485 151.568 258.898 154.598 256.959 155.72C255.003 156.842 253.432 155.656 253.432 153.043C253.432 150.446 255.019 147.417 256.959 146.295C258.914 145.173 260.485 146.375 260.485 148.972Z" fill="#44B7F0"/>
<path d="M259.507 149.998C259.507 151.28 258.722 152.787 257.76 153.348C256.798 153.909 256.013 153.316 256.013 152.017C256.013 150.735 256.798 149.228 257.76 148.667C258.722 148.122 259.507 148.715 259.507 149.998Z" fill="#15ABEB"/>
<path d="M258.316 92.1232L243.977 125.374L249.482 127.748L263.821 94.4971L258.316 92.1232Z" fill="#352221"/>
<path d="M253.416 129.689L239.375 137.832L229.694 132.141L243.735 124.015L253.416 129.689Z" fill="#352221"/>
<path d="M231.249 127.461C229.998 128.327 229.678 130.635 229.678 132.157C231.249 132.157 236.426 130.314 236.426 130.314L235.544 128.23L231.249 127.461Z" fill="#352221"/>
<path d="M253.416 125.906L251.06 129.256L240.946 133.135L231.249 127.461L243.735 120.216L253.416 125.906Z" fill="#543A3A"/>
<path d="M253.416 125.906C253.416 125.906 253.865 126.323 253.865 127.605C253.865 128.711 253.865 129.433 253.865 129.433L250.339 131.5L251.3 128.455L253.416 125.906Z" fill="#472F2E"/>
<path d="M253.416 125.906C253.416 125.906 242.26 132.414 240.93 133.151C239.615 133.889 239.359 136.309 239.359 137.848C241.539 136.581 253.849 129.449 253.849 129.449L253.416 125.906Z" fill="#472F2E"/>
<path d="M237.083 122.412V126.131C237.083 127.846 239.68 129.224 242.901 129.224C246.107 129.224 248.72 127.846 248.72 126.131V122.412H237.083Z" fill="#44B7F0"/>
<path d="M242.901 119.318C239.696 119.318 237.083 120.697 237.083 122.412C237.083 124.127 239.68 125.506 242.901 125.506C246.107 125.506 248.72 124.127 248.72 122.412C248.72 120.713 246.123 119.318 242.901 119.318Z" fill="#15ABEB"/>
<path d="M248.447 136.758C245.162 136.758 241.876 135.443 241.699 135.363C241.443 135.267 241.331 134.978 241.427 134.722C241.523 134.466 241.828 134.353 242.068 134.45C242.116 134.466 247.149 136.485 250.707 135.491C254.634 134.385 256.606 132.093 255.965 129.336C255.708 128.214 255.163 127.285 254.683 126.467C254.138 125.538 253.625 124.656 253.641 123.694C253.737 120.521 255.324 118.437 256.366 117.042C256.638 116.674 256.894 116.353 257.071 116.065C258.722 113.372 257.856 110.615 257.84 110.599C257.76 110.342 257.904 110.054 258.161 109.974C258.417 109.894 258.706 110.038 258.786 110.294C258.834 110.422 259.812 113.516 257.904 116.594C257.712 116.914 257.439 117.267 257.151 117.651C256.125 119.014 254.715 120.873 254.634 123.726C254.618 124.416 255.035 125.137 255.532 125.97C256.045 126.852 256.638 127.83 256.927 129.112C257.696 132.382 255.404 135.187 250.964 136.437C250.162 136.677 249.313 136.758 248.447 136.758Z" fill="#15ABEB"/>
<path d="M272.763 72.002C271.625 70.6876 270.054 69.79 270.054 69.79C270.054 69.79 269.829 69.6297 269.461 69.4213C267.65 68.2352 265.181 67.5139 265.181 67.5139C265.181 67.5139 256.894 81.8756 253.993 88.9443C251.797 94.3299 247.598 107.121 247.598 107.121C247.598 107.121 247.566 113.644 248.175 115.84C248.191 115.953 248.207 116.081 248.223 116.193C248.607 118.517 250.242 119.543 251.99 118.565C252.711 118.165 253.592 117.588 254.666 116.818C258.93 113.757 263.434 103.755 266.319 96.6861C269.204 89.6175 275.039 76.5381 275.039 76.5381C275.039 76.5381 273.901 73.3163 272.763 72.002Z" fill="#44B7F0"/>
<path d="M270.92 71.1201C269.781 69.8058 268.211 68.9082 268.211 68.9082C268.211 68.9082 266.704 67.8663 265.165 67.4977C263.626 67.145 260.87 67.8984 260.87 67.8984C260.87 67.8984 256.734 78.0125 253.849 85.0811C250.964 92.1498 247.117 102.568 247.646 108.627C247.774 110.166 247.934 111.384 248.095 112.346C248.479 114.67 250.114 115.696 251.861 114.718C252.583 114.317 253.464 113.74 254.538 112.971C258.802 109.91 263.306 99.9077 266.191 92.839C269.076 85.7704 273.212 75.6563 273.212 75.6563C273.212 75.6563 272.058 72.4345 270.92 71.1201Z" fill="#15ABEB"/>
<path d="M286.099 81.4748L277.235 76.5059L275.712 79.0544L284.816 84.2798L286.099 81.4748Z" fill="#44B7F0"/>
<path d="M286.451 82.2921C286.451 83.0295 286.002 83.895 285.441 84.2156C284.88 84.5362 284.432 84.1996 284.432 83.4462C284.432 82.7089 284.88 81.8433 285.441 81.5228C286.002 81.2022 286.451 81.5388 286.451 82.2921Z" fill="#15ABEB"/>
<path d="M262.905 68.059L253.993 62.9458L252.631 65.7027L261.607 70.864L262.905 68.059Z" fill="#44B7F0"/>
<path d="M254.33 63.7472C254.33 64.4845 253.881 65.3501 253.32 65.6707C252.759 65.9912 252.31 65.6546 252.31 64.9013C252.31 64.164 252.759 63.2984 253.32 62.9778C253.881 62.6573 254.33 62.9939 254.33 63.7472Z" fill="#44B7F0"/>
<path d="M269.06 53.7932C269.06 53.7932 268.002 56.3097 267.666 57.4157C267.329 58.5216 267.329 58.5216 267.329 58.5216C267.329 58.5216 262.841 61.9678 261.094 63.4745C259.347 64.9812 257.92 64.0355 255.997 65.1735C253.785 66.4879 253.897 67.3534 253.865 68.9082C253.833 70.463 256.061 71.9216 256.061 71.9216C256.061 71.9216 261.655 67.9465 263.883 66.9046C268.339 64.8049 272.026 60.3329 272.026 60.3329C272.026 60.3329 270.631 59.2429 270.695 57.4958C270.743 56.3257 271.288 54.835 271.288 54.835C271.288 54.835 270.615 53.7451 269.06 53.7932Z" fill="#FFB9A4"/>
<path d="M279.607 76.3296L279.639 76.57L271.961 72.1141L262.12 66.4078C262.12 66.4078 258.802 68.4755 256.942 70.6875C256.798 70.8638 256.67 71.0401 256.558 71.2164L255.997 71.1684V73.0117C255.997 73.0597 255.997 73.0918 255.997 73.1399V73.1559C256.045 74.4062 256.83 75.5442 257.664 76.4899C259.026 78.0447 263.578 80.6734 266.143 81.3947C268.707 82.132 272.041 82.725 275.407 81.3786C278.773 80.0322 281.787 77.8042 281.787 77.8042V76.0411L279.607 76.3296Z" fill="#352221"/>
<path d="M281.803 76.0411L271.961 70.3349L262.12 64.6287C262.12 64.6287 258.802 66.6964 256.942 68.9083C255.083 71.1203 256.301 73.1559 257.68 74.7107C259.042 76.2655 263.594 78.8942 266.159 79.6155C268.724 80.3528 272.058 80.9459 275.424 79.5995C278.79 78.2851 281.803 76.0411 281.803 76.0411Z" fill="#472F2E"/>
<path d="M290.811 61.3906C290.507 63.0256 291.02 65.5741 290.891 67.0488C288.134 68.5875 283.31 73.4282 280.345 75.9286C278.229 76.3614 276.85 75.9287 275.392 78.7657C274.526 80.4648 275.76 82.4363 277.251 83.0935C278.982 83.8629 280.345 82.853 280.441 81.7471C279.687 81.0097 279.575 79.7595 281.819 79.0542C284.528 78.7657 290.667 75.2554 292.719 73.6045C294.674 72.0337 295.588 72.2741 295.972 71.1521C296.998 68.2188 298.986 62.5126 298.986 62.5126C298.986 62.5126 292.013 61.7433 290.811 61.3906Z" fill="#FFC9B6"/>
<path d="M293.087 44.9613C290.154 46.5481 288.808 51.7895 289.497 56.3096C290.074 60.0123 290.443 61.4709 290.443 61.4709C290.443 61.4709 295.219 62.112 298.986 62.8654C301.294 58.2812 300.909 55.0914 300.829 51.1163C300.749 47.2374 295.844 44.8331 293.087 44.9613Z" fill="#E52C2C"/>
<path d="M290.427 61.4709C290.427 61.4709 292.334 60.8779 294.802 61.1824C297.271 61.487 299.322 62.0961 299.322 62.0961L298.297 64.4523C298.297 64.4523 295.572 63.6829 294.097 63.5707C292.638 63.4745 290.763 63.8913 290.763 63.8913L290.427 61.4709Z" fill="#FF6969"/>
<path d="M273.404 39.4957C273.404 39.4957 272.074 41.1787 271.337 42.9259C270.599 44.673 270.134 47.1574 269.91 48.7443C269.686 50.3311 269.83 51.373 269.83 51.373C269.83 51.373 271.769 52.3828 272.09 52.5431C272.491 51.7897 272.971 49.8342 273.484 48.1512C274.238 45.6988 275.199 41.9481 275.199 41.9481C275.199 41.9481 274.093 40.6338 273.404 39.4957Z" fill="#E52C2C"/>
<path d="M269.846 51.3568L269.06 53.7932L271.32 54.835L272.234 52.2384C272.234 52.2384 271.288 51.437 269.846 51.3568Z" fill="#FF6969"/>
<path d="M31.5985 16.5689L85.0229 47.4099L106.782 34.8545L53.3575 4L31.5985 16.5689Z" fill="#EDDDDD"/>
<path d="M31.5985 44.5852L85.0229 75.4398L106.782 62.8709L53.3575 32.0299L31.5985 44.5852Z" fill="#C6ADAC"/>
<path d="M31.5985 16.569V44.5854L85.0229 75.4399V47.41L31.5985 16.569Z" fill="#DBC7C6"/>
<path opacity="0.3" d="M83.8607 73.4936V49.6398L53.3575 32.0299L32.7878 43.9095V43.95L83.8607 73.4936Z" fill="#AF9B9A"/>
<path d="M106.782 34.8545L85.0229 47.4098V75.4398L106.782 62.8709V34.8545Z" fill="#C1AFAE"/>
<path d="M32.7878 18.3934V43.9096L53.2764 32.0705V30.246L32.7878 18.3934Z" fill="#C1AFAE"/>
<path d="M83.8607 49.64V47.9236L53.2765 30.2461V32.0706L53.3576 32.0301L83.8607 49.64Z" fill="#AF9B9A"/>
<path d="M78.9548 45.0448L58.3175 33.1517V58.7625L78.9548 46.8423V45.0448Z" fill="#C1AFAE"/>
<path d="M58.3176 59.4247L56.858 58.5733V31.5975L58.3176 32.449V59.4247Z" fill="#DBC7C6"/>
<path d="M105.052 60.0464C105.011 59.8707 104.782 59.8977 104.728 60.0464C104.606 60.4113 104.565 60.7897 104.457 61.1546C104.349 61.5331 104.187 61.8709 104.065 62.2358C103.957 62.5737 104.457 62.7764 104.633 62.4791C104.998 61.8169 105.201 60.7897 105.052 60.0464Z" fill="#AF9B9A"/>
<path d="M104.092 63.4522C103.917 63.1414 103.606 63.0333 103.322 62.8576C103.038 62.6819 102.754 62.3981 102.417 62.344C102.376 62.344 102.335 62.3575 102.335 62.4116C102.349 63.0603 103.349 63.8442 103.971 63.7631C104.106 63.7225 104.16 63.5468 104.092 63.4522Z" fill="#AF9B9A"/>
<path d="M87.6043 47.964C87.1583 48.3289 86.8205 48.7749 86.6042 49.302C86.4556 49.6533 86.2393 50.1669 86.5502 50.4778C86.5907 50.5183 86.6583 50.5318 86.6988 50.4913C86.9962 50.275 86.9962 49.8831 87.1178 49.5587C87.307 49.0857 87.6179 48.6938 87.9963 48.3559C88.2666 48.1262 87.8746 47.7477 87.6043 47.964Z" fill="#AF9B9A"/>
<path d="M88.1177 50.0723C88.1042 49.9236 87.8474 49.9236 87.8339 50.0723C87.7528 50.5724 87.5906 51.0724 87.3609 51.5184C87.1311 51.9509 86.7933 52.2888 86.5905 52.7212C86.5095 52.8834 86.6446 53.1267 86.8473 53.0591C87.9555 52.6131 88.2664 51.14 88.1177 50.0723Z" fill="#AF9B9A"/>
<path d="M88.1718 71.5611C87.888 71.2908 87.5502 71.0745 87.2528 70.8042C86.9285 70.5069 86.7257 70.1285 86.4554 69.7906C86.3473 69.642 86.077 69.669 86.077 69.8852C86.1176 70.8448 87.0771 71.8719 88.0637 71.8179C88.1853 71.8043 88.2664 71.6557 88.1718 71.5611Z" fill="#AF9B9A"/>
<path d="M89.8883 66.1281C89.8748 66.0335 89.7396 66.0335 89.6856 66.1011C89.4153 66.5741 89.2531 67.0877 88.9963 67.5607C88.7801 67.9661 88.3881 68.3446 88.3746 68.8176C88.3746 68.9527 88.5098 69.0473 88.6314 69.0068C89.1585 68.8446 89.3883 68.2094 89.5775 67.7499C89.8207 67.2228 89.9694 66.6957 89.8883 66.1281Z" fill="#AF9B9A"/>
<path d="M105.322 37.5305C105.309 37.517 105.282 37.517 105.268 37.5305C104.984 37.7873 105.012 38.2333 104.944 38.5982C104.863 39.0577 104.687 39.5037 104.701 39.9632C104.701 40.2335 105.079 40.3416 105.214 40.0984C105.458 39.6794 105.485 39.1388 105.512 38.6658C105.552 38.3009 105.62 37.8143 105.322 37.5305Z" fill="#AF9B9A"/>
<path d="M60.2231 52.113C60.1555 51.9103 59.8852 51.9644 59.8582 52.1671C59.7636 52.8564 59.8582 53.6132 59.9663 54.3024C60.0204 54.6268 60.561 54.5592 60.5475 54.2214C60.5204 53.5186 60.4528 52.7618 60.2231 52.113Z" fill="#AF9B9A"/>
<path d="M62.1558 53.5997C62.1423 53.5186 62.0612 53.4916 62.0207 53.5592C61.7504 53.9376 61.5477 54.3701 61.2774 54.7485C61.0071 55.1404 60.6016 55.4107 60.3448 55.8027C60.2232 55.9919 60.4259 56.3027 60.6557 56.2081C61.5477 55.8567 62.2504 54.5322 62.1558 53.5997Z" fill="#AF9B9A"/>
<path d="M73.3732 45.7071C73.3191 45.6665 73.2515 45.7341 73.2651 45.7882C73.3597 46.126 73.4948 46.4504 73.5624 46.8018C73.6435 47.2072 73.6164 47.5721 73.5894 47.9641C73.5624 48.3019 74.1165 48.383 74.1841 48.0451C74.3462 47.2478 74.103 46.1801 73.3732 45.7071Z" fill="#AF9B9A"/>
<path d="M72.7244 47.0992C71.8189 47.3019 71.1566 48.1669 70.9945 49.0453C70.9269 49.4102 71.481 49.5724 71.5621 49.2075C71.7513 48.3696 72.1973 47.829 72.819 47.2614C72.8866 47.1938 72.8055 47.0722 72.7244 47.0992Z" fill="#AF9B9A"/>
<path d="M15.151 60.6005C14.9212 60.4248 14.8672 60.1004 15.0429 59.8707L33.1393 35.5168C33.315 35.2871 33.6394 35.233 33.8691 35.4087C34.0989 35.5844 34.1529 35.9087 33.9772 36.1385L15.8808 60.4924C15.7051 60.7221 15.3807 60.7627 15.151 60.6005Z" fill="#513534"/>
<path d="M34.4367 38.3414C34.5584 37.6656 33.6664 37.4224 32.9501 37.9494C33.3961 37.3413 33.9772 36.3682 33.1798 35.9492C32.7474 35.733 32.2338 35.8546 31.7743 36.0979C31.7743 35.8411 31.7067 35.6114 31.477 35.5168C31.2067 35.3951 30.9634 35.5573 30.7607 35.7871C30.7336 35.233 30.5985 34.6653 30.2201 34.422C29.7065 34.0842 29.3011 34.395 29.0578 34.8275C28.9632 34.6518 28.7334 34.4896 28.4767 34.3545C28.0577 34.2193 27.6387 34.1653 27.2873 34.4626C26.6386 34.9897 27.1927 35.9628 27.5171 36.6115C27.1252 36.9088 26.8684 37.3953 26.9495 37.8548C26.5035 37.7062 25.9629 37.8954 25.8142 38.3954C25.6115 39.0847 26.044 39.7334 26.5846 40.1253C26.0845 40.2064 25.598 40.3956 25.8142 40.9768C26.0169 41.5444 26.7197 41.6931 27.3414 41.666C27.0306 42.1796 26.9089 42.7878 27.5847 43.0851C28.0847 43.3013 28.7875 42.9635 29.2876 42.531C29.3957 43.0446 29.8011 43.4906 30.3417 43.5446C30.7066 43.5716 31.0039 43.3824 31.1661 43.1257C31.7743 43.7203 32.5852 44.2068 33.3555 43.6798C33.7069 43.4365 33.8691 42.9094 33.7745 42.5175C34.0853 42.5445 34.3962 42.4769 34.6124 42.1796C34.7881 41.9363 34.8151 41.6525 34.7341 41.3957C35.2476 41.2471 35.6801 40.9092 35.8828 40.3686C35.9774 40.0983 35.9909 39.774 35.9234 39.4766C35.7882 39.2063 35.4233 38.4495 34.4367 38.3414Z" fill="#E52C2C"/>
<path d="M26.3684 44.5988C25.7332 45.9908 24.3006 47.7477 24.7466 48.2613C25.4764 49.1127 26.7873 48.8965 26.7873 48.8965C26.7873 48.8965 26.2873 51.0454 25.2196 51.4778C23.3005 52.2752 21.8274 52.7077 21.8274 52.7077C21.8274 52.7077 16.2727 64.2224 12.5291 65.5739C10.9749 66.1415 9.83965 64.6954 9.7991 63.5196C9.65044 59.1003 15.9214 52.5725 19.9083 49.5452C21.2192 48.5856 23.6789 44.4501 26.3684 44.5988Z" fill="#FFC9B6"/>
<path d="M23.7465 49.5724C23.7465 49.5724 24.0438 48.775 24.7466 48.275C25.4493 47.7749 25.5034 47.0046 26.3548 46.8559C27.2063 46.7208 28.2469 47.0722 27.436 47.9101C26.6386 48.7615 26.7333 49.613 25.7332 50.1671C24.733 50.7482 23.7465 49.5724 23.7465 49.5724Z" fill="#FFC9B6"/>
<path d="M4.54175 104.064C-1.22912 97.9422 4.27145 91.4821 7.04201 89.4954C8.51513 91.3064 17.2593 94.9013 17.3133 95.1176C18.3675 99.618 17.4079 104.321 16.07 108.673C15.2456 111.39 14.5293 115.971 12.5966 123.404C13.4886 127.094 12.475 132.703 12.0966 136.879C11.8398 139.798 10.6775 147.447 10.5018 148.096C11.0289 147.934 11.9074 147.15 13.0967 146.745C14.2049 146.366 15.624 146.339 16.2592 146.582C18.2324 147.366 18.8 148.082 18.2729 149.353C17.489 151.218 15.0023 151.813 13.2454 152.191C10.5829 152.745 9.08276 156.975 6.24463 154.056C5.51482 153.299 6.16354 151.326 6.40681 150.285C6.35275 149.556 6.56898 143.136 5.75809 138.244C4.7715 132.351 4.25794 125.742 7.70424 122.283C3.82546 112.43 3.96061 107.092 4.54175 104.064Z" fill="#F9BBA7"/>
<path d="M6.37982 149.934C6.37982 149.934 8.04215 150.529 9.10983 150.867C10.1775 151.204 12.7453 151.34 14.7185 149.434C15.4889 148.691 16.0295 147.758 15.7592 147.231C15.2591 146.231 13.0967 146.731 13.0967 146.731C13.0967 146.731 16.7998 144.163 18.8811 145.852C19.8407 146.636 20.0839 148.218 18.4621 149.893C17.5026 150.894 14.678 152.678 12.2318 153.975C10.637 154.826 8.05567 156.516 6.29873 154.813C4.52828 153.137 6.37982 149.934 6.37982 149.934Z" fill="#2C1D1B"/>
<path d="M10.5963 108.43C4.82545 102.307 10.326 95.8473 13.0966 93.8606C14.5697 95.6716 23.3138 99.2665 23.3679 99.4828C24.4221 103.983 23.4625 108.686 22.1245 113.038C21.3001 115.755 20.5838 120.336 18.6512 127.769C19.5432 131.459 18.5296 137.068 18.1511 141.244C17.8944 144.163 16.7321 151.813 16.5564 152.461C17.0835 152.299 17.9619 151.515 19.1513 151.11C20.2595 150.731 21.6785 150.704 22.3137 150.948C24.2869 151.731 24.8545 152.448 24.3275 153.718C23.5436 155.583 21.0569 156.178 19.2999 156.556C16.6375 157.11 15.1373 161.341 12.2992 158.421C11.5694 157.664 12.2181 155.691 12.4614 154.651C12.4073 153.921 12.6236 147.501 11.8127 142.609C10.8261 136.716 10.3125 130.108 13.7588 126.648C9.88002 116.782 10.0287 111.443 10.5963 108.43Z" fill="#FFC9B6"/>
<path d="M12.4344 154.286C12.4344 154.286 14.0967 154.88 15.1644 155.218C16.2321 155.556 18.7999 155.691 20.7731 153.786C21.5434 153.042 22.084 152.11 21.8137 151.583C21.3137 150.583 19.1513 151.083 19.1513 151.083C19.1513 151.083 22.8544 148.515 24.9357 150.204C25.8952 150.988 26.1385 152.569 24.5167 154.245C23.5571 155.245 20.7325 157.029 18.2863 158.327C16.6916 159.178 14.1102 160.868 12.3533 159.165C10.5963 157.489 12.4344 154.286 12.4344 154.286Z" fill="#2C1D1B"/>
<path d="M4.02804 63.1008C6.59587 62.1817 9.73133 63.6414 9.86648 66.2903C11.2855 68.6959 9.89351 72.2233 7.67707 73.8316C5.09572 75.6967 1.12234 73.8046 0.270897 70.9124C-0.621087 67.9121 1.02773 64.182 4.02804 63.1008Z" fill="#EDEDED"/>
<path d="M10.2855 69.8852C12.6911 70.588 14.8535 70.0068 17.1646 69.6554C15.732 68.1418 13.9075 66.6686 15.313 62.506C13.4885 62.006 11.8397 61.2897 10.2314 60.2896C9.90707 60.0869 9.3935 60.2626 9.32592 60.6545C8.96102 62.5466 8.50152 64.7495 7.27166 65.682C7.28517 66.3578 7.24463 66.2226 7.24463 66.8849C7.24463 67.3714 7.24463 67.8579 7.24463 68.358C8.01498 69.1689 9.17726 69.5743 10.2855 69.8852Z" fill="#FFC9B6"/>
<path d="M8.60983 55.8027C8.89364 53.1808 11.0425 49.7074 13.9752 49.9237C16.962 50.1534 19.0028 54.5863 19.2325 56.6541C19.6245 60.168 19.3136 66.7903 13.7725 64.6549C9.46127 63.0061 8.19086 59.7085 8.60983 55.8027Z" fill="#FFC9B6"/>
<path d="M2.60914 77.886C0.690025 71.9394 1.86582 67.9931 3.55519 66.0469C4.25796 65.2495 6.36629 62.9115 8.17728 64.5333C7.59614 67.2362 12.9075 68.6958 16.2862 68.6958C18.8541 70.615 20.0434 72.0475 21.5165 74.6424C23.0707 77.3859 24.3681 79.6429 21.057 81.6431C22.0706 84.6434 19.9217 88.2789 20.8002 95.9689C17.7053 98.4286 11.7587 98.4016 8.47461 96.4014C5.90678 94.8472 4.54177 93.1038 4.67692 91.2252C5.52836 89.4007 5.87975 89.0223 5.78515 86.7518C5.66351 83.8866 3.48761 80.6025 2.60914 77.886Z" fill="#EDEDED"/>
<path d="M20.111 74.5748C20.5975 74.6424 23.0032 79.0483 23.1248 80.7106C23.2464 82.3729 22.5707 85.6706 22.3815 87.3734C22.1923 89.0763 21.9355 91.9145 21.9355 91.9145L18.0297 93.1984C18.0297 93.1984 19.1379 90.9549 19.3406 87.8465C19.5433 84.7381 18.4486 77.8454 18.4486 77.8454L20.111 74.5748Z" fill="#15ABEB"/>
<path d="M8.54213 130.405C14.4346 134.054 15.9618 133.513 20.1109 132.257C23.1247 131.338 24.5167 129.135 25.1925 126.797C25.4628 117.417 25.3682 104.078 24.8546 100.51C23.8951 93.8472 22.3814 92.739 22.3814 92.739L11.5965 93.8472L5.24449 89.8468C5.24449 89.8468 1.93334 94.0905 1.09541 98.1044C0.257487 102.132 -0.134445 106.578 0.0412485 112.714C0.243972 119.877 0.56833 122.837 0.0412485 126.391C1.0819 131.338 4.96068 128.189 8.54213 130.405Z" fill="#15ABEB"/>
<path d="M17.6647 69.7905C17.6647 69.7905 14.0697 68.8986 12.3669 71.3718C10.6505 73.845 11.2316 78.3995 11.2857 82.0756C11.3397 85.7516 11.2046 93.3876 11.2046 93.3876L9.50171 92.7794C9.50171 92.7794 9.86661 88.1032 9.78552 82.9405C9.70443 77.7914 9.78552 72.6692 10.9883 70.6825C12.1912 68.6958 15.9348 68.3309 15.9348 68.3309L17.6647 69.7905Z" fill="#15ABEB"/>
<path d="M3.66332 74.7642C3.42005 71.3854 3.64981 69.9934 4.51476 68.3446C5.70407 66.1146 7.37992 64.8578 8.32597 64.2766C8.42057 64.0604 8.51518 63.8576 8.60978 63.6414C8.15027 63.3981 7.70428 63.0332 7.4475 63.0603C5.12293 63.29 2.89297 65.9795 2.24426 69.7637C1.73069 72.7369 2.62267 77.4131 3.66332 81.1027C4.86615 85.4274 5.23105 86.3329 5.23105 89.2927C5.23105 89.9684 7.21774 91.0902 7.21774 91.0902C7.21774 91.0902 6.77175 87.6844 5.82571 83.8732C4.98778 80.481 3.81199 76.7374 3.66332 74.7642Z" fill="#15ABEB"/>
<path d="M21.9354 90.7658L22.3814 92.7524C22.3814 92.7524 16.7592 96.5772 11.2856 94.9689C5.70398 93.3336 4.28491 91.1982 4.28491 91.1982L5.10932 88.6439C5.93373 89.4818 8.78538 92.1308 12.7047 92.7389C14.8941 93.0768 18.9621 92.0902 21.9354 90.7658Z" fill="#F4EBEA"/>
<path d="M7.21777 110.484C7.21777 110.484 7.5151 113.849 8.54223 117.809C9.56937 121.769 10.4478 124.31 10.4478 124.31C10.4478 124.31 10.2857 120.728 9.51531 116.674C8.74496 112.619 7.21777 110.484 7.21777 110.484Z" fill="#0093D1"/>
<path d="M18.6379 107.2C18.6379 107.2 18.2189 112.322 18.4622 116.187C18.7054 120.052 20.584 125.134 20.584 125.134C20.584 125.134 20.1921 118.485 20.111 114.944C20.0299 111.416 18.6379 107.2 18.6379 107.2Z" fill="#0093D1"/>
<path d="M23.0572 76.8318C24.0573 77.94 25.2601 79.4401 25.8277 80.8322C26.4764 82.4269 27.8144 84.8461 28.3955 86.2246C29.72 86.8463 32.0175 87.6031 34.8286 89.252C37.7208 90.9413 38.8426 91.7522 40.3022 91.7928C41.7888 91.8333 42.7889 92.1306 43.8161 92.3063C45.8703 92.6577 44.1404 93.4146 43.5322 93.4956C42.8295 93.5902 41.6942 93.82 41.6942 93.82C41.6942 93.82 44.0863 96.996 45.1675 99.1314C46.2758 101.321 43.1403 103.686 41.2077 101.645C39.2615 99.5773 37.7479 96.4554 37.1937 95.5634C36.6532 94.6714 31.4499 93.2253 29.8416 92.8739C29.3416 92.7658 26.9224 92.2388 26.4088 92.1306C25.5844 91.982 25.3277 91.509 24.4762 90.671C23.5031 89.7115 23.3004 89.6709 21.111 86.8869C19.2324 84.4947 18.0161 83.4405 17.2593 80.3591C16.4213 76.9804 21.9084 75.5614 23.0572 76.8318Z" fill="#FFC9B6"/>
<path d="M18.9486 70.6825C22.4895 71.3583 25.6925 76.6696 25.6249 80.1295C26.5845 81.3593 21.5029 85.7246 19.8406 85.2516C17.1646 84.9002 14.7049 81.2377 13.9481 77.3589C13.0426 72.7773 15.3401 69.9933 18.9486 70.6825Z" fill="#EDEDED"/>
<path d="M25.625 80.1429L26.3548 81.7107C26.3548 81.7107 26.6251 82.9811 24.76 84.6164C22.8814 86.2382 20.6515 86.2922 20.6515 86.2922L19.8406 85.2786C19.8406 85.2786 22.1651 84.6705 23.6653 83.3865C25.179 82.1026 25.625 80.1429 25.625 80.1429Z" fill="#15ABEB"/>
<path d="M20.7326 52.978C21.0164 52.6266 21.2191 52.2482 21.2597 51.8833C21.4083 50.7751 19.6379 50.4913 18.5432 50.7616C16.989 48.2613 12.9885 47.3558 10.7316 49.6533C8.407 49.9777 6.9609 51.14 6.51491 53.424C5.59589 58.1272 6.83927 58.5867 8.32591 64.2765C10.3802 64.9522 12.2858 62.8844 13.7454 61.114C14.5833 60.1004 15.6375 58.2759 16.4889 55.9378C19.4352 57.046 21.8678 56.2486 22.3003 54.816C22.6247 53.7484 21.7597 53.1402 20.7326 52.978Z" fill="#A76038"/>
<path d="M15.6374 58.2894C15.6374 58.2894 13.4209 56.7622 13.0695 58.9246C12.7181 61.087 14.8265 61.8303 14.8265 61.8303L15.6374 58.2894Z" fill="#FFC9B6"/>
<path d="M9.23142 47.9776C8.37998 47.9235 7.52854 48.2749 7.04201 49.0182C6.20408 50.3292 6.97443 51.5996 7.28528 52.0321C8.42053 53.5998 10.5829 53.2078 11.61 51.7347C12.8129 50.0318 11.0154 48.0992 9.23142 47.9776Z" fill="#15ABEB"/>
<path d="M9.15025 48.5317C7.82579 47.6127 5.64989 46.4774 2.71715 48.0452C-0.215581 49.6129 -0.215581 54.289 0.243926 56.6812C0.703433 59.0733 2.25765 60.9654 2.582 63.0467C3.04151 66.047 0.716948 67.1282 0.716948 67.1282C0.716948 67.1282 2.82527 69.1014 5.23093 66.047C7.63658 62.9926 6.90678 59.6139 6.8392 56.2757C6.75811 52.9376 9.33946 51.978 9.94763 51.1401C10.5558 50.3022 10.1368 49.2209 9.15025 48.5317Z" fill="#DB7942"/>
<path d="M46.8975 23.7994C46.6948 23.5021 46.3975 23.3805 46.0596 23.3535C46.3029 23.0291 46.438 22.6642 46.1948 22.2047C46.0191 21.8668 45.6407 21.7182 45.1136 21.9074C45.5325 21.2722 45.046 20.1234 44.0189 20.5424C43.8702 19.8396 42.8296 19.353 42.3836 19.7315C42.4511 17.8123 40.6942 18.2989 40.4509 19.1773C39.9914 18.9206 39.1941 18.7854 38.7481 19.1773C38.4237 19.4612 38.3291 19.8396 38.3561 20.2045C38.1534 20.1639 37.9372 20.1504 37.7074 20.2315C37.1803 20.4207 37.0452 20.8397 37.0722 21.2992C36.7073 21.2316 36.3019 21.3397 36.0316 21.6371C35.6937 22.002 35.6802 22.5561 35.8829 23.0021C35.7072 23.0291 35.545 23.0967 35.3828 23.2318C35.0585 23.5021 34.9909 23.8941 35.0315 24.2725C34.7341 24.1779 34.4233 24.1779 34.153 24.2995C33.4772 24.5968 33.4367 25.3266 33.5583 25.9753C33.1799 25.9213 32.8015 26.0564 32.5177 26.3673C32.1528 26.7862 32.1393 27.3674 32.315 27.8674C32.5988 28.1783 32.842 28.6243 32.9366 28.9892C33.2069 28.7729 33.5583 28.6918 33.9368 28.8405C34.3692 29.0162 34.5855 29.4081 34.6666 29.8271C34.8423 29.6919 35.0585 29.6514 35.3018 29.7866C35.545 29.9217 35.6396 30.1379 35.6667 30.3812C36.2208 30.219 36.7614 30.3407 37.1668 30.9083C37.3695 31.1786 37.356 31.53 37.2209 31.8543C37.6534 31.4894 38.7616 31.7057 38.7075 32.6787C39.8698 32.5436 40.3158 33.1383 40.5591 34.2059C40.5996 34.2059 40.6401 34.2194 40.6807 34.2194C41.005 34.2059 41.3294 34.0437 41.5592 33.814C41.8835 33.4896 41.9916 33.0707 41.9241 32.6787C42.2484 32.6517 42.5593 32.503 42.7755 32.2463C42.9782 32.003 43.0728 31.7057 43.0728 31.3948C43.5188 31.557 43.9378 31.5029 44.0865 30.8542C44.1675 30.5028 44.154 30.0839 44.0459 29.6919C44.7487 29.9082 45.4515 29.8812 45.6542 29.1108C45.7758 28.6648 45.6001 28.1783 45.2758 27.7999C45.8839 27.6647 46.4651 27.2322 46.6948 26.6916C46.8705 26.2997 46.8165 25.8808 46.5191 25.5699C46.6678 25.4618 46.7894 25.3131 46.8975 25.1509C47.1408 24.7455 47.1814 24.2049 46.8975 23.7994Z" fill="#52CBFF"/>
<path d="M38.6939 32.6787C38.7479 31.7057 37.6397 31.5029 37.2072 31.8543C37.3289 31.53 37.3424 31.1786 37.1532 30.9083C36.7342 30.3407 36.2071 30.219 35.653 30.3812C35.626 30.1379 35.5179 29.9217 35.2881 29.7865C35.0449 29.6514 34.8421 29.6919 34.6529 29.8271C34.5718 29.4081 34.3691 29.0162 33.9231 28.8405C33.5447 28.6918 33.1933 28.7729 32.923 28.9892C32.8284 28.6243 32.5851 28.1783 32.3013 27.8674C32.3013 27.8809 32.3148 27.908 32.3148 27.9215C31.9499 27.8674 31.5715 27.9755 31.3012 28.2594C30.9228 28.6648 30.9363 29.2189 31.1526 29.6784C30.8147 29.8001 30.5174 30.0569 30.4363 30.4488C30.3822 30.7056 30.4498 31.0569 30.639 31.2597C30.2606 31.1245 29.8416 31.138 29.5173 31.4489C29.0713 31.8678 29.247 32.5841 29.4362 33.1923C29.1388 33.0842 28.8415 33.0572 28.6523 33.341C28.4631 33.6383 28.4496 34.0167 28.5307 34.3681C28.5036 34.3546 28.4766 34.3546 28.4496 34.3411C28.7064 34.4762 28.9361 34.6384 29.0307 34.8141C29.274 34.3816 29.6659 34.0708 30.193 34.4086C30.5714 34.6519 30.7066 35.2195 30.7336 35.7736C30.9228 35.5439 31.1796 35.3817 31.4499 35.5033C31.6796 35.6115 31.7472 35.8277 31.7472 36.0845C32.2067 35.8412 32.7338 35.7196 33.1528 35.9358C33.9637 36.3548 33.369 37.3279 32.923 37.936C33.6393 37.409 34.5313 37.6522 34.4097 38.328C35.3962 38.4226 35.7612 39.1794 35.8828 39.4362C36.045 39.4632 36.2071 39.4497 36.3693 39.3956C36.8829 39.2335 37.2748 38.7199 37.2072 38.1388C38.1533 38.1658 38.9101 37.3819 38.6533 36.4359C39.3561 36.3548 39.9913 36.0034 40.3562 35.3547C40.5589 34.9898 40.6265 34.5438 40.5184 34.1789C40.3022 33.1382 39.8562 32.5436 38.6939 32.6787Z" fill="#EDEDED"/>
<path d="M103.164 150.623V155.299C103.164 155.867 104.029 156.326 105.11 156.326C106.192 156.326 107.056 155.867 107.056 155.299V150.623H103.164Z" fill="#352221"/>
<path d="M84.6757 139.811V144.487C84.6757 145.055 85.5406 145.514 86.6218 145.514C87.6895 145.514 88.568 145.055 88.568 144.487V139.811H84.6757Z" fill="#352221"/>
<path d="M124.545 138.365V143.041C124.545 143.609 125.41 144.068 126.491 144.068C127.559 144.068 128.437 143.609 128.437 143.041V138.365H124.545Z" fill="#352221"/>
<path d="M84 112.89L105.11 125.066L129.478 110.997L108.367 98.807L84 112.89Z" fill="#EDDDDD"/>
<path d="M84 141.636L105.11 153.826L129.478 139.757L108.367 127.567L84 141.636Z" fill="#DEC9C5"/>
<path d="M129.478 110.997V139.757L105.11 153.826V125.066L129.478 110.997Z" fill="#C1AFAE"/>
<path d="M107.448 125.621L127.545 114.025V120.309L107.448 131.905V125.621Z" fill="#15ABEB"/>
<path d="M107.448 133.567L127.545 121.972V139.014L107.448 150.623V133.567Z" fill="#15ABEB"/>
<path d="M84 112.89V141.636L105.11 153.826V125.066L84 112.89Z" fill="#DBC7C6"/>
<path d="M113.746 124.012C113.746 123.837 113.854 123.634 113.989 123.553C114.044 123.526 114.098 123.526 114.138 123.539H114.152C114.152 123.539 114.165 123.539 114.165 123.553L115.409 124.296C115.855 124.553 116.571 124.593 116.949 124.377L121.909 121.512C122.004 121.458 122.058 121.404 122.058 121.35C122.058 121.296 122.004 121.174 121.774 121.039L120.49 120.296C120.436 120.269 120.409 120.201 120.409 120.107C120.409 119.931 120.517 119.728 120.652 119.647C120.706 119.606 120.76 119.62 120.815 119.634L122.139 120.404C122.544 120.647 122.788 120.985 122.788 121.336C122.788 121.647 122.598 121.945 122.274 122.134L117.314 124.999C117.044 125.161 116.679 125.242 116.301 125.242C115.868 125.242 115.409 125.134 115.044 124.931L113.854 124.215C113.787 124.175 113.746 124.12 113.746 124.012Z" fill="#422C2A"/>
<path d="M113.746 131.946C113.746 131.77 113.854 131.567 113.989 131.486C114.044 131.459 114.098 131.459 114.138 131.473H114.152C114.152 131.473 114.165 131.473 114.165 131.486L115.409 132.229C115.855 132.486 116.571 132.527 116.949 132.31L121.909 129.445C122.004 129.391 122.058 129.337 122.058 129.283C122.058 129.229 122.004 129.107 121.774 128.972L120.49 128.229C120.436 128.202 120.409 128.134 120.409 128.04C120.409 127.864 120.517 127.661 120.652 127.58C120.706 127.54 120.76 127.553 120.815 127.567L122.139 128.337C122.544 128.58 122.788 128.918 122.788 129.27C122.788 129.58 122.598 129.878 122.274 130.067L117.314 132.932C117.044 133.094 116.679 133.175 116.301 133.175C115.868 133.175 115.409 133.067 115.044 132.865L113.854 132.148C113.787 132.121 113.746 132.054 113.746 131.946Z" fill="#422C2A"/>
<path d="M86.4326 141.649C86.2434 141.298 86.0542 140.947 85.9731 140.555C85.892 140.217 85.9326 139.852 85.8245 139.514C85.7974 139.419 85.6758 139.406 85.6217 139.487C85.2028 140.176 85.6082 141.338 86.0677 141.92C86.2299 142.149 86.5408 141.879 86.4326 141.649Z" fill="#AF9B9A"/>
<path d="M88.4599 141.46C88.1491 141.163 87.7166 140.866 87.2706 140.839C87.149 140.839 87.1084 140.987 87.176 141.068C87.4463 141.393 87.8247 141.609 88.122 141.92C88.3653 142.163 88.514 142.555 88.8653 142.636C88.9464 142.649 89.0275 142.609 89.041 142.528C89.1627 142.109 88.7437 141.717 88.4599 141.46Z" fill="#AF9B9A"/>
<path d="M89.4059 117.89C89.0275 117.93 88.7842 118.214 88.4599 118.404C88.0814 118.62 87.6625 118.755 87.2976 118.998C87.2165 119.052 87.203 119.228 87.3246 119.255C88.0139 119.35 89.3789 118.904 89.6086 118.174C89.6492 118.039 89.5411 117.876 89.4059 117.89Z" fill="#AF9B9A"/>
<path d="M89.7033 119.147C89.6087 119.133 89.5276 119.228 89.5817 119.309C89.7168 119.566 89.9331 119.769 90.0817 120.025C90.2574 120.323 90.3385 120.62 90.4602 120.931C90.5683 121.215 91.0954 121.215 91.0548 120.85C90.9602 120.188 90.4196 119.296 89.7033 119.147Z" fill="#AF9B9A"/>
<path d="M86.3651 117.255C86.4326 117.039 86.1218 116.917 86.0002 117.106C85.4596 117.958 85.2028 119.066 85.4325 120.066C85.5136 120.431 86.1083 120.35 86.0948 119.971C86.0272 119.012 86.0542 118.174 86.3651 117.255Z" fill="#AF9B9A"/>
<path d="M102.178 145.569C101.853 145.974 101.502 146.326 101.11 146.65C100.732 146.961 100.299 147.218 99.9747 147.596C99.9477 147.636 99.9612 147.691 100.015 147.691C101.042 147.704 102.015 146.772 102.637 146.042C102.921 145.717 102.448 145.244 102.178 145.569Z" fill="#AF9B9A"/>
<path d="M101.934 147.961C101.84 147.934 101.759 148.028 101.786 148.109C101.907 148.488 102.164 148.799 102.34 149.137C102.502 149.447 102.556 149.745 102.894 149.88C102.961 149.907 103.069 149.866 103.11 149.799C103.407 149.191 102.502 148.163 101.934 147.961Z" fill="#AF9B9A"/>
<path d="M123.693 106.159C123.693 106.159 121.639 104.551 120.125 103.659C118.612 102.767 115.855 103.132 115.855 103.132C115.855 103.132 118.247 104.51 119.058 104.983C119.855 105.443 118.787 106.632 117.814 106.375C116.841 106.105 115.773 105.402 115.449 106.375C115.273 106.943 116.246 107.105 117.855 107.822C119.166 108.403 122.261 109.687 122.261 109.687L123.693 106.159Z" fill="#619BF7"/>
<path d="M139.465 105.281C139.465 105.281 142.668 101.199 145.344 101.726C148.02 102.253 152.696 105.105 152.696 111.146C152.696 113.809 147.29 111.781 145.02 112.903C142.749 114.025 136.384 116.782 133.262 117.052C130.14 117.322 120.666 109.7 120.666 109.7C120.666 109.7 120.112 109.24 121.288 107.173C122.463 105.118 123.153 104.862 123.153 104.862C123.153 104.862 127.099 106.375 128.423 107.362C129.748 108.349 132.654 109.713 132.654 109.713C132.654 109.713 134.924 107.267 136.357 106.389C137.789 105.456 139.465 105.281 139.465 105.281Z" fill="#EDEDED"/>
<path d="M141.533 148.177C141.533 148.177 145.777 149.474 146.858 150.907C147.939 152.34 148.452 153.488 148.669 155.272C148.871 157.043 148.142 158.151 146.236 158.07C144.574 158.002 143.736 157.137 143.452 156.178C143.452 156.178 138.762 155.678 136.37 154.015C133.951 152.353 137.586 147.731 141.533 148.177Z" fill="#2C1D1B"/>
<path d="M128.991 126.067C132.748 125.229 137.397 126.634 141.344 128.472C141.438 128.472 141.533 128.499 141.628 128.553C146.358 130.824 155.953 133.189 157.17 134.23C159.089 138.906 156.494 145.785 151.588 145.163C149.074 146.704 146.223 146.866 143.641 145.893C143.763 146.069 145.52 148.569 146.844 150.92C145.479 151.61 144.966 152.218 142.857 154.029C140.573 153.11 137.114 150.096 135.167 148.623C133.221 147.15 126.558 139.933 126.558 133.838C124.099 131.54 124.639 127.026 128.991 126.067Z" fill="#2C1D1B"/>
<path d="M128.221 152.461C128.437 149.799 130.059 146.069 131.18 144.379C134.154 139.933 135.303 137.027 138.492 134.987C142.344 132.527 144.777 136.946 148.817 137.514C148.858 137.487 153.034 135.838 153.331 135.689C153.264 135.811 154.142 141.92 152.683 145.177C151.345 148.164 148.115 148.61 144.371 148.718C142.857 151.326 140.479 153.178 139.817 153.515C140.979 154.434 142.303 155.097 144.276 156.962C147.115 159.638 150.628 162.624 154.061 164.949C153.196 165.436 152.358 166.206 152.007 166.679C151.48 167.382 151.142 168.003 150.953 169.166C144.533 167.693 139.438 164.341 134.167 160.611C132.275 159.273 131.235 157.894 129.883 156.232C127.288 155.786 127.396 153.218 128.221 152.461Z" fill="#3F2A28"/>
<path d="M135.14 106.578L138.911 109.673C140.952 108.943 142.492 106.551 143.371 104.24C142.628 103.645 139.992 102.132 139.803 101.334C140.587 99.1449 139.398 97.2934 137.37 95.3202C135.235 93.2524 131.383 93.2794 129.072 95.1039C128.734 95.2391 127.018 96.4825 127.248 98.5638C127.504 100.902 128.842 106.511 130.816 107.524C132.194 108.227 133.816 107.078 135.14 106.578Z" fill="#FFC9B6"/>
<path d="M140.573 95.2932C140.371 93.5092 139.411 91.9144 137.492 91.036C135.343 90.0494 131.491 89.9142 129.761 91.8469C129.734 91.7793 129.721 91.7117 129.667 91.6576C129.126 90.9684 128.248 91.0765 127.626 91.5495C127.126 91.9279 126.761 92.4821 126.518 93.0902C126.153 92.9686 125.734 92.9686 125.369 93.1038C124.112 93.6173 124.166 95.4013 124.612 96.4284C125.531 98.5773 128.923 100.929 131.41 100.334C131.289 101.591 131.897 102.267 132.897 103.078C134.465 104.362 136.708 104.429 138.478 103.551C140.479 102.551 142.303 100.253 142.168 97.9151C142.114 96.8474 141.479 95.8067 140.573 95.2932Z" fill="#2C1D1B"/>
<path d="M130.532 100.915C130.532 100.915 130.991 99.4558 132.37 100.375C133.748 101.294 132.099 104.024 132.099 104.024L130.532 100.915Z" fill="#FFC9B6"/>
<path d="M143.695 103.227C141.384 104.227 141.546 104.646 136.735 108.349C131.924 112.052 131.681 114.228 132.113 116.525C132.545 118.823 132.883 119.999 134.748 124.458C137.127 130.148 140.181 133.243 140.181 133.243C140.181 133.243 138.546 133.743 137.803 134.203C137.059 134.662 136.884 137.189 137.708 137.973C140.073 140.203 150.128 144.069 157.71 134.608C157.345 128.243 155.318 118.512 153.696 113.484C151.845 107.808 145.722 102.348 143.695 103.227Z" fill="#EDEDED"/>
<path d="M129.383 143.65C126.369 146.136 125.153 150.934 126.45 154.015C127.653 156.854 130.383 158.07 130.383 158.07C130.383 158.07 131.491 150.366 133.6 146.461C135.721 142.555 138.627 142.271 140.56 139.919C142.492 137.568 141.519 135.176 141.519 135.176L136.262 128.148C136.262 128.148 130.667 135.365 127.302 137.095C127.707 139.919 129.451 142.325 129.383 143.65Z" fill="#15ABEB"/>
<path d="M129.383 143.65C129.383 143.65 131.951 141.284 133.613 139.825C135.586 138.081 136.519 136.716 137.816 134.216C138.181 131.243 136.276 128.797 136.276 128.797C136.276 128.797 134.019 128.486 133.87 131.243C133.627 135.676 127.477 138.081 127.477 138.081C127.477 138.081 129.18 142.771 129.383 143.65Z" fill="#F4EBEA"/>
<path d="M140.749 134.608C140.749 134.608 143.749 136.243 146.506 136.973C149.277 137.703 149.615 137.608 151.588 137.987C150.818 137.987 146.52 138.419 144.749 137.351C142.992 136.297 140.749 134.608 140.749 134.608Z" fill="#EDEDED"/>
<path d="M150.142 133.297C150.142 133.297 148.547 134.608 146.182 134.378C143.817 134.149 142.317 133.865 142.317 133.865C142.317 133.865 144.871 133.135 146.182 133.297C147.493 133.459 150.142 133.297 150.142 133.297Z" fill="#EDEDED"/>
<path d="M150.764 162.503C150.764 162.503 154.25 162.26 155.683 162.503C157.102 162.746 157.318 165.314 158.562 166.53C159.819 167.747 163.441 168.368 164.4 170.869C165.36 173.369 163.603 177.248 161.346 176.288C157.629 174.72 150.128 168.463 150.128 168.463C150.128 168.463 148.385 165.801 150.764 162.503Z" fill="#2C1D1B"/>
<path d="M135.289 124.472C135.289 124.472 136.113 129.837 136.978 131.31C138.668 134.216 140.654 133.757 140.749 133.824C140.749 133.824 140.195 130.581 139.519 128.499C138.843 126.418 137.803 122.891 137.803 122.891L135.289 124.472Z" fill="#15ABEB"/>
<path d="M135.289 109.606C135.289 109.606 138.181 108.808 140.749 112.444C143.384 116.187 144.155 120.769 145.709 125.81C147.398 131.31 148.493 134.216 148.493 134.216L150.142 133.284C150.142 133.284 148.074 127.959 146.182 120.863C145.52 118.404 143.898 112.565 142.141 110.93C139.506 108.484 136.735 108.349 136.735 108.349L135.289 109.606Z" fill="#15ABEB"/>
<path d="M142.087 103.889C142.087 103.889 145.574 103.997 148.142 107.646C150.777 111.389 150.953 115.065 152.507 120.106C154.196 125.607 154.832 128.783 154.832 128.783L156.359 127.918C156.359 127.918 154.886 122.255 152.994 115.16C152.345 112.7 149.926 106.659 148.169 105.024C145.533 102.578 143.547 102.632 143.547 102.632L142.087 103.889Z" fill="#15ABEB"/>
<path d="M156.967 126.945C156.967 126.945 151.399 131.675 147.844 132.851C143.668 134.23 139.519 133.662 137.803 132.473C137.668 133.202 137.803 134.203 137.803 134.203C137.803 134.203 138.492 134.973 140.749 135.662C143.006 136.351 146.506 135.784 149.507 134.405C152.507 133.027 157.183 129.499 157.183 129.499L156.967 126.945Z" fill="#15ABEB"/>
<path d="M116.571 126.945C117.409 127.188 118.057 125.702 118.747 122.958C119.45 120.215 120.058 118.742 119.058 118.539C118.057 118.336 116.747 119.255 115.841 121.755C114.949 124.269 115.787 126.729 116.571 126.945Z" fill="#627DF4"/>
<path d="M134.911 111.984C133.032 111.214 130.964 112.89 127.532 116.701C124.139 118.052 117.922 119.066 117.287 119.634C115.314 121.972 114.841 124.837 117.287 126.229C117.814 126.526 121.558 128.351 122.031 127.986C123.855 128.797 129.302 127.742 130.762 124.972C132.235 125.526 135.668 126.404 138.641 121.282C140.168 118.674 139.857 114.025 134.911 111.984Z" fill="#EDEDED"/>
<path d="M114.598 119.498C113.746 118.606 110.313 117.012 109.084 116.052C107.57 114.863 106.732 114.214 105.691 113.795C104.083 114.052 102.448 114.12 100.664 115.093C98.6095 116.214 96.1769 118.512 95.2714 120.769C96.0417 122.188 97.1364 122.85 98.2041 123.607C99.069 124.229 100.664 124.729 101.569 125.256C102.542 125.837 103.218 126.58 104.38 127.837C107.286 127.107 108.313 124.229 110.232 123.08C111.151 122.526 114.881 121.12 114.598 119.498Z" fill="#E52C2C"/>
<path d="M119.058 118.539C119.058 118.539 116.355 117.944 114.071 117.782C111.557 117.593 109.097 117.62 108.421 117.323C107.867 116.728 107.394 116.174 106.867 115.485C105.786 114.052 106.029 112.957 105.435 113.052C104.84 113.146 104.853 114.12 104.881 114.998C104.894 115.268 104.935 115.593 104.989 115.917C104.772 115.822 104.57 115.728 104.38 115.647C100.272 113.782 98.6096 114.417 98.6907 117.039C98.7583 119.147 105.205 121.093 107.408 121.377C109.611 123.702 113.936 126.323 116.557 126.932C115.976 125.796 116.355 123.391 116.963 121.891C117.949 119.485 119.058 118.539 119.058 118.539Z" fill="#619BF7"/>
</svg>
