<svg width="578" height="190" viewBox="0 0 578 190" fill="none" xmlns="http://www.w3.org/2000/svg">
<path d="M93.4202 154.722C92.8782 154.496 80.2551 149.148 81.9487 140.143C82.5358 137.052 84.1843 134.614 86.8715 132.854C87.7748 132.267 88.7909 131.771 89.92 131.365C92.1782 127.212 95.4977 124.098 99.9011 122.044C100.353 120.013 101.369 118.162 102.904 116.538C107.285 111.911 114.895 109.948 121.444 109.135C121.534 106.788 122.054 104.441 123.025 102.207C128.535 89.2532 120.225 82.5054 116.386 80.2035C110.785 76.8409 106.472 77.3825 106.427 77.4051L106.314 76.6378C106.495 76.6152 110.921 76.0285 116.792 79.549C120.812 81.9412 129.528 89.0049 123.747 102.523C122.844 104.644 122.347 106.856 122.234 109.068C125.667 108.684 128.76 108.616 130.815 108.616C145.493 108.684 155.723 115.319 156.784 121.412C157.168 123.601 156.694 127.686 149.197 130.417C148.406 130.71 147.594 130.936 146.758 131.116C146.871 131.5 146.961 131.861 147.029 132.245C147.752 136.329 145.493 140.166 140.864 142.761C136.845 145.018 131.944 145.627 127.044 145.153C127.067 145.289 127.067 145.424 127.067 145.56C127.18 148.742 124.809 151.269 120.383 152.691C109.995 156.008 97.6204 151.472 91.6588 145.176C88.3393 141.655 87.2328 137.841 88.5425 134.411C88.7909 133.734 89.0845 133.08 89.3781 132.47C88.6329 132.786 87.9328 133.147 87.3006 133.576C84.794 135.201 83.2359 137.48 82.7165 140.346C81.1358 148.742 93.6008 154.023 93.7137 154.068L93.4202 154.722ZM90.462 131.974C90.0104 132.809 89.6265 133.689 89.2652 134.614C88.0683 137.751 89.1297 141.294 92.2234 144.567C97.9139 150.57 110.198 155.083 120.157 151.901C124.289 150.592 126.412 148.381 126.299 145.56C126.299 145.379 126.276 145.199 126.254 145.018C121.196 144.409 116.16 142.671 112.05 140.437C107.105 137.729 103.379 134.366 101.346 130.868C97.1913 130.552 93.4653 130.936 90.462 131.974ZM126.931 144.296C131.764 144.792 136.551 144.228 140.48 142.016C144.816 139.602 146.916 136.059 146.261 132.312C146.193 131.929 146.103 131.568 145.99 131.184C139.487 132.267 132.486 129.807 127.428 124.481C126.164 123.15 125.08 121.706 124.199 120.171C114.286 119.133 106.45 119.923 100.556 122.563C100.375 123.488 100.33 124.459 100.398 125.474C100.488 127.009 100.985 128.566 101.821 130.123C104.124 130.326 106.563 130.71 109.069 131.319C118.418 133.554 125.78 138.97 126.931 144.296ZM102.317 130.958C104.327 134.163 107.827 137.255 112.434 139.76C116.386 141.904 121.218 143.596 126.096 144.228C124.876 139.805 118.576 134.411 108.889 132.087C106.63 131.522 104.417 131.161 102.317 130.958ZM99.7205 122.992C95.9719 124.842 93.0815 127.505 91.0265 131.003C93.8492 130.168 97.2139 129.852 100.94 130.078C100.172 128.566 99.743 127.054 99.6527 125.542C99.585 124.662 99.6075 123.804 99.7205 122.992ZM125.193 120.306C125.983 121.593 126.931 122.811 128.015 123.962C132.848 129.063 139.532 131.432 145.742 130.462C143.868 125.926 138.177 122.337 130.612 121.074C128.715 120.758 126.931 120.509 125.193 120.306ZM124.696 119.471C126.638 119.674 128.625 119.968 130.725 120.306C138.651 121.638 144.59 125.452 146.51 130.326C147.323 130.168 148.135 129.92 148.926 129.649C154.074 127.776 156.604 124.888 156.016 121.525C155.023 115.748 145.087 109.451 130.815 109.384C127.812 109.361 124.922 109.519 122.212 109.835C122.189 113.13 123.025 116.425 124.696 119.471ZM121.421 109.903C113.292 110.941 106.856 113.468 103.469 117.057C102.182 118.411 101.279 119.945 100.804 121.638C106.63 119.178 114.263 118.433 123.77 119.381C122.212 116.38 121.421 113.152 121.421 109.903Z" fill="#593D3D"/>
<path d="M90.5977 155.196C90.5977 153.752 91.4783 152.06 92.5623 151.45C93.0365 151.179 93.4881 151.157 93.8268 151.36L94.843 151.902L94.5043 152.646C94.5043 152.737 94.5269 152.827 94.5269 152.917C94.5269 154.294 93.7139 155.851 92.7203 156.551L92.3364 157.386L91.2977 156.799C90.8686 156.551 90.5977 155.986 90.5977 155.196Z" fill="#352221"/>
<path d="M95.5881 153.504C95.5881 154.948 94.7075 156.641 93.6235 157.25C92.5396 157.882 91.6589 157.205 91.6589 155.761C91.6589 154.316 92.5396 152.624 93.6235 152.014C94.7075 151.405 95.5881 152.059 95.5881 153.504Z" fill="#472F2E"/>
<path d="M95.4753 154.068C95.4753 155.151 94.8204 156.415 94.0075 156.889C93.1945 157.363 92.5397 156.866 92.5397 155.783C92.5397 154.7 93.1945 153.436 94.0075 152.962C94.8204 152.488 95.4753 152.985 95.4753 154.068Z" fill="#5B3D3D"/>
<path d="M94.6849 154.339C94.6849 154.158 94.7978 153.933 94.9333 153.865C94.9785 153.842 95.0237 153.82 95.0688 153.842L97.4399 155.219C97.6206 155.332 97.6883 155.558 97.5754 155.738C97.4625 155.919 97.2367 155.986 97.056 155.873L94.7753 154.542C94.7075 154.497 94.6849 154.429 94.6849 154.339Z" fill="#EDDDDD"/>
<path d="M93.3298 155.693C93.3298 155.512 93.4427 155.287 93.5782 155.219C93.6234 155.196 93.6686 155.174 93.7137 155.196L96.0848 156.573C96.2654 156.686 96.3332 156.912 96.2203 157.092C96.1074 157.273 95.8816 157.34 95.7009 157.227L93.4202 155.896C93.3524 155.851 93.3298 155.806 93.3298 155.693Z" fill="#EDDDDD"/>
<path d="M62.3027 116.267L58.7574 114.259V114.281C58.3058 114.033 57.6961 114.033 57.0638 114.417C55.596 115.252 54.4218 117.531 54.4218 119.472C54.4218 120.42 54.7153 121.119 55.1669 121.48H55.1895C55.2573 121.548 55.3476 121.571 55.4379 121.616L58.9381 123.602L62.3027 116.267Z" fill="#281818"/>
<path d="M63.2963 118.433C63.2963 120.374 62.0995 122.654 60.6543 123.489C59.1865 124.324 58.0122 123.443 58.0122 121.48C58.0122 119.539 59.209 117.26 60.6543 116.425C62.0995 115.59 63.2963 116.493 63.2963 118.433Z" fill="#3F2A28"/>
<path d="M62.0204 120.531C62.5038 119.396 62.3747 118.254 61.732 117.981C61.0893 117.707 60.1765 118.406 59.6931 119.542C59.2097 120.677 59.3389 121.819 59.9815 122.092C60.6242 122.366 61.537 121.667 62.0204 120.531Z" fill="#FF9E55"/>
<path d="M42.7019 105.186L39.1566 103.178V103.2C38.705 102.952 38.0953 102.952 37.463 103.335C35.9952 104.17 34.8209 106.45 34.8209 108.391C34.8209 109.338 35.1145 110.038 35.5661 110.399H35.5887C35.6564 110.467 35.7468 110.489 35.8371 110.535L39.3373 112.521L42.7019 105.186Z" fill="#281818"/>
<path d="M43.6955 107.352C43.6955 109.293 42.4987 111.573 41.0534 112.408C39.5856 113.243 38.3888 112.363 38.3888 110.399C38.3888 108.436 39.5856 106.179 41.0308 105.344C42.4986 104.509 43.6955 105.389 43.6955 107.352Z" fill="#3F2A28"/>
<path d="M42.702 108.12C42.702 109.181 42.0471 110.422 41.2568 110.896C40.4664 111.347 39.8115 110.873 39.8115 109.79C39.8115 108.729 40.4664 107.488 41.2568 107.014C42.0697 106.563 42.702 107.059 42.702 108.12Z" fill="#FF9E55"/>
<path d="M94.4364 94.8727C94.4364 90.0432 97.372 84.4238 101.008 82.325C101.934 81.806 103.017 81.5352 103.876 81.5352C104.553 81.5352 106.292 81.6029 108.076 82.7087C110.131 83.995 110.402 87.132 110.402 87.132L103.04 102.027C103.04 102.027 100.669 103.2 98.2301 101.846C96.7171 101.011 95.7913 99.6345 95.3848 98.8897C95.2042 98.5512 94.9332 97.8742 94.8429 97.626C94.5719 96.8361 94.4364 95.9108 94.4364 94.8727Z" fill="#281818"/>
<path d="M110.56 89.005C110.56 93.8345 107.624 99.4539 103.988 101.553C100.353 103.651 97.417 101.417 97.417 96.5878C97.417 91.7583 100.353 86.1389 103.988 84.0401C107.624 81.9413 110.56 84.1755 110.56 89.005Z" fill="#3F2A28"/>
<path d="M109.769 89.9756C109.769 93.5638 107.579 97.7388 104.892 99.296C102.204 100.853 100.014 99.2058 100.014 95.6175C100.014 92.0292 102.204 87.8542 104.892 86.297C107.601 84.7398 109.769 86.3873 109.769 89.9756Z" fill="#FFC373"/>
<path d="M103.559 81.7832C104.553 81.219 105.479 80.9256 106.36 80.8579V72.2371L79.7358 76.0059C77.1615 75.893 74.6323 76.2315 72.5322 77.0214L32.7885 82.6408V102.117C32.5627 104.306 34.0531 106.653 37.192 108.458L50.0861 115.906C55.4379 118.997 63.6125 119.336 68.2417 116.65L97.3269 100.04C96.9881 99.0475 96.8075 97.8966 96.8075 96.5651C96.7849 90.6523 99.1334 84.3559 103.559 81.7832Z" fill="#E8871C"/>
<path d="M105.298 81.7382C106.337 81.1514 107.331 80.8355 108.234 80.7678V71.6956L80.2552 75.6449C77.5454 75.5321 74.8807 75.8932 72.6903 76.7056L30.9143 82.6183V94.0827V99.0476C30.6885 101.35 32.2466 103.809 35.5435 105.705L49.0925 113.536C54.7153 116.786 63.2963 117.147 68.174 114.326L96.0849 98.2126C96.0849 98.2126 96.6494 97.9193 96.8753 97.7838C96.8753 97.6259 96.8753 97.1971 96.8753 97.0165C97.1914 91.0135 100.827 84.3109 105.298 81.7382Z" fill="#F2982C"/>
<path d="M108.211 71.1316V68.085C108.211 68.085 107.692 68.1076 107.037 68.1527C106.269 67.092 105.117 66.0765 103.582 65.1738L90.0329 57.3428C84.4101 54.093 75.8291 53.7319 70.9514 56.5529L34.1659 77.7891C33.1272 78.3984 32.3594 79.098 31.8175 79.8428L30.9142 79.6397L30.9368 82.1672C30.7335 84.4466 32.2917 86.9065 35.566 88.8022L49.115 96.6332C54.7378 99.8829 63.3188 100.221 68.1965 97.423L104.982 76.1868C107.285 74.8553 108.324 73.0273 108.211 71.1316Z" fill="#352221"/>
<path d="M68.1739 94.3535L104.959 73.1172C109.837 70.3188 109.205 65.3539 103.582 62.1042L90.0329 54.2732C84.4101 51.0234 75.8291 50.6623 70.9514 53.4833L34.1659 74.7195C29.2883 77.5179 29.9206 82.4828 35.5434 85.7326L49.0924 93.5636C54.7152 96.7908 63.2962 97.1519 68.1739 94.3535Z" fill="#FFC373"/>
<path d="M48.9345 71.1538L74.3162 56.5074C77.6809 54.5665 83.5973 54.8148 87.4813 57.049L96.8301 62.4427C98.6141 63.4582 99.6303 64.7446 99.9238 66.0084C100.375 64.2932 99.3367 62.375 96.8301 60.9306L87.4813 55.537C83.5973 53.3028 77.6809 53.0545 74.3162 54.9953L48.9345 69.6418C47.1054 70.7025 46.4505 72.1694 46.7892 73.6814C47.0602 72.711 47.7377 71.8309 48.9345 71.1538Z" fill="#F2982C"/>
<path d="M49.8829 77.2243L59.2317 82.618C63.1157 84.8522 69.0321 85.1005 72.3968 83.1597L97.7785 68.5132C98.9754 67.8136 99.6754 66.9335 99.9238 65.9856C99.6302 64.7218 98.6141 63.458 96.8301 62.4199L87.4813 57.0262C83.5973 54.792 77.6809 54.5438 74.3162 56.4846L48.9344 71.131C47.7376 71.8306 47.0376 72.7108 46.7892 73.6586C47.0827 74.9224 48.0989 76.2088 49.8829 77.2243Z" fill="#F9B858"/>
<path d="M60.9254 89.7723L87.6847 74.336C91.23 72.2824 90.7784 68.6941 86.6911 66.3245L76.8455 60.6374C72.7582 58.2678 66.5257 58.0196 62.9804 60.0732L36.2211 75.5095C32.6758 77.5632 33.1274 81.1515 37.2147 83.5211L47.0603 89.2082C51.125 91.5552 57.3801 91.8034 60.9254 89.7723Z" fill="#EFDFDF"/>
<path d="M60.4509 86.5449L84.2294 72.8238C87.3683 71.0183 86.9844 67.8137 83.3487 65.7149L74.5871 60.6598C70.9514 58.561 65.3963 58.3353 62.2575 60.1407L38.479 73.8619C35.3402 75.6673 35.724 78.8719 39.3597 80.9707L48.1214 86.0259C51.757 88.1247 57.3121 88.3504 60.4509 86.5449Z" fill="white"/>
<path d="M40.0823 75.0807C40.0823 75.0807 45.2761 75.5772 49.3182 78.2853C53.3377 80.9935 58.1702 85.4845 58.1702 85.4845L59.5928 84.672C59.5928 84.672 54.3765 79.2332 50.3569 77.0215C46.3374 74.8099 41.4823 74.2231 41.4823 74.2231L40.0823 75.0807Z" fill="#EFDFDF"/>
<path d="M45.7729 71.8311C45.7729 71.8311 50.9667 72.3276 54.9863 75.0357C59.0058 77.7438 63.8383 82.2348 63.8383 82.2348L65.2609 81.4224C65.2609 81.4224 60.0445 75.9835 56.025 73.7493C52.0055 71.5377 47.1504 70.9509 47.1504 70.9509L45.7729 71.8311Z" fill="#EFDFDF"/>
<path d="M51.4409 68.4685C51.4409 68.4685 56.6347 68.965 60.6542 71.6731C64.6738 74.3587 69.5062 78.8722 69.5062 78.8722L70.9289 78.0598C70.9289 78.0598 65.7125 72.621 61.693 70.3868C57.6734 68.1751 52.8184 67.5884 52.8184 67.5884L51.4409 68.4685Z" fill="#EFDFDF"/>
<path d="M57.1316 65.2184C57.1316 65.2184 62.3254 65.7149 66.3449 68.423C70.3644 71.1311 75.1969 75.6221 75.1969 75.6221L76.6195 74.8097C76.6195 74.8097 71.4032 69.3709 67.3837 67.1592C63.3641 64.9476 58.5091 64.3608 58.5091 64.3608L57.1316 65.2184Z" fill="#EFDFDF"/>
<path d="M62.822 61.9915C62.822 61.9915 68.0158 62.488 72.0353 65.1961C76.0549 67.9042 80.8873 72.3952 80.8873 72.3952L82.31 71.5827C82.31 71.5827 77.0936 66.1439 73.0741 63.9097C69.0546 61.6981 64.1995 61.1113 64.1995 61.1113L62.822 61.9915Z" fill="#EFDFDF"/>
<path d="M83.2811 95.2114L94.5493 88.7119V85.575L83.2811 92.0745V95.2114Z" fill="#352221"/>
<path d="M83.2811 98.4611L94.5493 91.9616V90.3818L83.2811 96.9039V98.4611Z" fill="#352221"/>
<path d="M61.4672 131.703C54.3314 131.703 47.9408 129.492 42.2277 125.091C37.5081 121.457 34.979 117.124 34.7306 112.272C34.3241 104.441 39.9243 98.5964 39.9921 98.5512C40.7373 97.8516 41.9115 97.8742 42.6116 98.6189C43.3116 99.3637 43.289 100.537 42.5438 101.237C41.7986 101.959 38.1178 106.743 38.434 112.16C38.6372 115.861 40.6921 119.246 44.4858 122.18C56.0702 131.116 70.4547 129.92 89.7169 118.388C105.343 109.045 115.099 98.2804 117.921 87.2674C122.054 71.0863 112.795 44.7724 103.13 37.6635C100.33 35.6099 97.8237 35.3165 95.4978 36.7383C91.7041 39.0853 86.9393 42.3576 83.4392 44.7498C81.8359 45.8556 80.5036 46.7583 79.7132 47.2774C76.1905 49.5793 71.9225 55.3115 69.3708 58.7418C68.9418 59.3285 68.5353 59.8476 68.1966 60.299C67.5643 61.1114 66.4126 61.2694 65.5997 60.66C64.7867 60.0507 64.6287 58.8772 65.2384 58.0647C65.5771 57.636 65.961 57.1169 66.39 56.5302C69.2579 52.6711 73.6162 46.826 77.6809 44.163C78.4486 43.644 79.7584 42.7638 81.3391 41.6806C84.8618 39.2658 89.6717 35.9484 93.5557 33.5562C96.1075 31.9765 100.217 30.8932 105.321 34.6395C116.07 42.5382 126.028 70.4319 121.489 88.1475C118.396 100.312 108.324 111.55 91.5911 121.548C80.3229 128.318 70.3192 131.703 61.4672 131.703Z" fill="#593D3D"/>
<path d="M25.2463 120.69L2.07751 131.681L29.8303 146.214L25.2463 120.69Z" fill="#C6AFAF"/>
<path d="M23.9365 119.991L0.7677 131.004L28.5205 145.515L23.9365 119.991Z" fill="#DBC7C6"/>
<path d="M0.767776 131.004L0 132.764L28.5206 147.749L29.2432 148.065L29.8303 146.214L0.767776 131.004Z" fill="#C6AFAF"/>
<path d="M73.3227 46.5552C73.3227 46.5552 68.6257 51.836 66.0288 55.3115C64.3803 57.5231 59.593 64.2934 59.593 64.2934L64.29 67.6786C64.29 67.6786 69.0096 60.7728 70.9742 58.2678C72.3968 56.4624 77.7035 50.3691 77.7035 50.3691C77.7035 50.3691 76.6873 46.5552 73.3227 46.5552Z" fill="#352221"/>
<path d="M64.3351 67.5659C63.9738 68.1075 62.5963 67.8367 61.264 66.934C59.9317 66.0313 59.1639 64.8803 59.5252 64.3387C59.8865 63.7971 61.264 64.0679 62.5963 64.9706C63.9286 65.8507 64.6964 67.0243 64.3351 67.5659Z" fill="#472F2E"/>
<path d="M63.3641 67.1596C63.1383 67.4981 62.2576 67.3401 61.3995 66.7534C60.5414 66.1892 60.0672 65.4444 60.293 65.0834C60.5188 64.7448 61.3995 64.9028 62.2576 65.4896C63.0931 66.0538 63.5899 66.7985 63.3641 67.1596Z" fill="#DBC7C6"/>
<path d="M60.3047 65.0645L16.204 129.191L19.2559 131.287L63.3567 67.1609L60.3047 65.0645Z" fill="#DBC7C6"/>
<path d="M28.5206 145.515L27.8883 147.41L29.2432 148.065L29.8303 146.214L28.5206 145.515Z" fill="#B29A9A"/>
<path d="M86.5779 59.1707C87.2328 59.1707 87.7522 59.4415 87.7522 59.78C87.7522 60.1185 87.2328 60.3893 86.5779 60.3893C85.9456 60.3893 85.4037 60.1185 85.4037 59.78C85.4037 59.4415 85.9456 59.1707 86.5779 59.1707Z" fill="#3F2A28"/>
<path d="M83.1683 57.1846C83.8231 57.1846 84.3425 57.4554 84.3425 57.7939C84.3425 58.1324 83.8231 58.4032 83.1683 58.4032C82.5134 58.4032 81.994 58.1324 81.994 57.7939C81.994 57.4554 82.5134 57.1846 83.1683 57.1846Z" fill="#3F2A28"/>
<path d="M96.6493 64.7676C97.3042 64.7676 97.8236 65.0384 97.8236 65.3769C97.8236 65.7154 97.3042 65.9862 96.6493 65.9862C96.0171 65.9862 95.4751 65.7154 95.4751 65.3769C95.4751 65.0384 96.0171 64.7676 96.6493 64.7676Z" fill="#3F2A28"/>
<path d="M93.217 62.7817C93.8718 62.7817 94.3912 63.0526 94.3912 63.3911C94.3912 63.7296 93.8718 64.0004 93.217 64.0004C92.5621 64.0004 92.0427 63.7296 92.0427 63.3911C92.0653 63.0526 92.5847 62.7817 93.217 62.7817Z" fill="#3F2A28"/>
<path d="M89.8072 60.7957C90.4621 60.7957 90.9814 61.0665 90.9814 61.405C90.9814 61.7435 90.4621 62.0143 89.8072 62.0143C89.1749 62.0143 88.6329 61.7435 88.6329 61.405C88.6329 61.0665 89.1523 60.7957 89.8072 60.7957Z" fill="#3F2A28"/>
<path d="M79.7132 55.1987C80.3681 55.1987 80.8874 55.4695 80.8874 55.808C80.8874 56.1466 80.3681 56.4174 79.7132 56.4174C79.0809 56.4174 78.5389 56.1466 78.5389 55.808C78.5389 55.4695 79.0809 55.1987 79.7132 55.1987Z" fill="#3F2A28"/>
<path d="M74.9033 57.4778L83.4392 62.3976L85.2457 61.3595L76.7099 56.4397L74.9033 57.4778Z" fill="#3F2A28"/>
<path d="M85.0425 63.4584L93.5783 68.3782L95.3849 67.34L86.849 62.3977L85.0425 63.4584Z" fill="#3F2A28"/>
<path d="M297.038 178.193L296.745 177.245C296.903 177.2 310.271 172.844 316.571 162.643C312.755 162.327 309.571 161.267 307.019 159.732C301.667 159.145 297.264 157.317 295.209 154.496C293.809 152.578 293.719 150.412 294.961 148.245C296.18 146.124 298.235 144.567 300.629 143.619C302.458 139.421 307.155 135.991 315.126 135.923C315.239 135.923 315.352 135.923 315.465 135.923C326.485 135.923 331.001 141.249 331.498 145.83C332.062 150.908 328.111 157.001 319.462 158.987C319.101 159.935 318.694 160.861 318.242 161.741C318.265 161.741 318.265 161.741 318.288 161.741C332.13 162.079 340.079 156.866 341.885 151.608C343.195 147.749 341.389 143.687 336.94 140.414C334.501 138.631 331.701 137.21 328.743 135.698C321.81 132.177 314.652 128.544 310.813 119.674C307.019 110.873 310.023 88.8018 319.733 54.0927C323.775 39.6267 319.801 30.2611 319.755 30.1709L320.659 29.7646C320.839 30.1483 324.836 39.5139 320.681 54.3635C308.645 97.3324 309.165 113.401 311.716 119.291C315.397 127.821 322.397 131.387 329.172 134.817C332.175 136.329 334.998 137.774 337.505 139.602C342.337 143.145 344.256 147.613 342.811 151.901C340.914 157.521 332.559 163.05 318.265 162.711C318.084 162.711 317.881 162.711 317.7 162.689C311.265 173.589 297.196 178.147 297.038 178.193ZM309.481 159.935C311.649 160.883 314.2 161.538 317.113 161.718C317.542 160.928 317.949 160.116 318.288 159.258C315.284 159.822 312.281 160.048 309.481 159.935ZM307.29 158.784C310.678 159.145 314.562 159.01 318.671 158.152C320.749 151.969 318.988 147.072 313.794 144.702C310.203 143.055 305.303 142.919 301.374 144.364C300.922 145.515 300.696 146.711 300.674 147.929C300.651 151.901 302.932 156.076 307.29 158.784ZM300.132 144.883C298.28 145.763 296.745 147.072 295.774 148.764C294.735 150.592 294.803 152.33 295.977 153.932C297.467 155.963 300.764 157.656 305.145 158.468C301.532 155.602 299.68 151.675 299.703 147.907C299.703 146.891 299.838 145.876 300.132 144.883ZM307.245 142.4C309.707 142.4 312.145 142.874 314.2 143.799C319.755 146.35 321.765 151.45 319.801 157.882C327.478 155.896 331.001 150.457 330.504 145.943C330.03 141.746 325.807 136.916 315.442 136.916C315.329 136.916 315.239 136.916 315.126 136.916C308.194 136.984 303.903 139.692 301.961 143.167C303.632 142.648 305.461 142.4 307.245 142.4Z" fill="#593D3D"/>
<path d="M298.867 178.892C298.867 177.425 297.964 175.71 296.88 175.078C296.383 174.785 295.932 174.785 295.593 174.988L294.554 175.575L294.893 176.342C294.893 176.432 294.87 176.523 294.87 176.613C294.87 178.012 295.683 179.592 296.722 180.291L297.106 181.126L298.167 180.54C298.596 180.269 298.867 179.705 298.867 178.892Z" fill="#352221"/>
<path d="M293.809 177.177C293.809 178.644 294.712 180.359 295.796 180.991C296.903 181.623 297.783 180.946 297.783 179.479C297.783 178.012 296.88 176.297 295.796 175.665C294.712 175.033 293.809 175.71 293.809 177.177Z" fill="#472F2E"/>
<path d="M293.922 177.764C293.922 178.87 294.599 180.133 295.412 180.63C296.248 181.104 296.903 180.607 296.903 179.501C296.903 178.396 296.225 177.132 295.412 176.635C294.599 176.139 293.922 176.658 293.922 177.764Z" fill="#5B3D3D"/>
<path d="M294.735 178.035C294.735 177.854 294.622 177.628 294.487 177.561C294.441 177.538 294.396 177.516 294.351 177.538L291.957 178.915C291.777 179.028 291.709 179.253 291.822 179.434C291.935 179.614 292.161 179.682 292.341 179.569L294.667 178.215C294.69 178.193 294.735 178.125 294.735 178.035Z" fill="#EDDDDD"/>
<path d="M296.113 179.411C296.113 179.231 296 179.005 295.864 178.937C295.819 178.915 295.774 178.892 295.729 178.915L293.335 180.291C293.154 180.404 293.087 180.63 293.199 180.81C293.312 180.991 293.538 181.059 293.719 180.946L296.045 179.592C296.067 179.569 296.113 179.501 296.113 179.411Z" fill="#EDDDDD"/>
<path d="M236 118.817V134.276C236 142.445 248.442 149.058 263.798 149.058C279.154 149.058 291.596 142.445 291.596 134.276V118.817H236Z" fill="#352221"/>
<path d="M263.798 142.671C248.442 142.671 236 136.059 236 127.889V130.191C236 138.361 248.442 144.973 263.798 144.973C279.154 144.973 291.596 138.361 291.596 130.191V127.889C291.596 136.059 279.154 142.671 263.798 142.671Z" fill="#1798CF"/>
<path d="M322.014 28.0496C322.014 28.0496 319.123 36.3771 315.104 44.998C311.061 53.5963 304.264 56.7332 293.967 52.1294C283.67 47.5256 304.897 17.6685 304.897 17.6685L322.014 28.0496Z" fill="#352221"/>
<path d="M263.798 104.712C248.442 104.712 236 111.324 236 119.494C236 127.663 248.442 134.276 263.798 134.276C279.154 134.276 291.596 127.663 291.596 119.494C291.596 111.347 279.154 104.712 263.798 104.712Z" fill="#472F2E"/>
<path d="M287.599 112.746C284.867 107.104 275.247 102.952 263.798 102.952C252.349 102.952 242.729 107.127 239.997 112.746H239.184V116.018C239.184 123.24 250.204 129.108 263.798 129.108C277.392 129.108 288.412 123.24 288.412 116.018V112.746H287.599Z" fill="#1798CF"/>
<path d="M263.798 99.3408C250.204 99.3408 239.184 105.208 239.184 112.43C239.184 119.652 250.204 125.519 263.798 125.519C277.392 125.519 288.412 119.652 288.412 112.43C288.412 105.208 277.392 99.3408 263.798 99.3408Z" fill="#4DBAF2"/>
<path d="M252.53 109.79C248.984 107.759 247.336 105.976 247.359 104.171C247.359 102.117 249.481 100.695 251.31 99.657C252.981 98.7317 254.946 97.8742 256.888 97.0166C259.914 95.6851 263.053 94.331 264.679 92.7964C267.885 89.8175 268.314 88.5988 269.421 83.1826C271.001 75.3064 278.137 74.494 278.228 74.4714L278.386 75.9383C278.137 75.9609 272.243 76.6831 270.889 83.4534C269.76 89.0953 269.195 90.6299 265.717 93.8571C263.911 95.5497 260.795 96.9038 257.52 98.3481C255.623 99.1605 253.681 100.018 252.078 100.921C249.933 102.117 248.894 103.178 248.894 104.148C248.894 104.983 249.662 106.405 253.32 108.481L252.53 109.79Z" fill="white"/>
<path d="M279.425 141.723C279.425 137.322 282.089 132.222 285.386 130.326C286.222 129.852 287.215 129.604 287.983 129.604C288.593 129.604 290.173 129.672 291.799 130.665C293.674 131.816 293.922 134.456 293.922 134.456L287.215 148.223C287.215 148.223 285.047 149.283 282.834 148.065C281.457 147.32 280.621 146.056 280.238 145.379C280.079 145.086 279.808 144.454 279.741 144.228C279.56 143.529 279.425 142.694 279.425 141.723Z" fill="#281818"/>
<path d="M294.103 136.397C294.103 140.798 291.438 145.898 288.141 147.794C284.844 149.689 282.179 147.681 282.179 143.28C282.179 138.879 284.844 133.779 288.141 131.883C291.415 129.988 294.103 132.019 294.103 136.397Z" fill="#3F2A28"/>
<path d="M293.403 136.984C293.403 140.865 291.054 145.356 288.141 147.049C285.228 148.719 282.88 146.936 282.88 143.077C282.88 139.195 285.228 134.704 288.141 133.012C291.032 131.319 293.403 133.102 293.403 136.984Z" fill="#1798CF"/>
<path d="M291.912 138.518C291.912 140.437 290.738 142.671 289.293 143.506C287.847 144.341 286.673 143.461 286.673 141.542C286.673 139.624 287.847 137.39 289.293 136.555C290.76 135.72 291.912 136.6 291.912 138.518Z" fill="white"/>
<path d="M290.117 52.2689L268.736 101.82L276.947 105.359L298.329 55.8079L290.117 52.2689Z" fill="#352221"/>
<path d="M282.857 108.255L261.901 120.374L247.471 111.911L268.405 99.7698L282.857 108.255Z" fill="#352221"/>
<path d="M249.797 104.915C247.923 106.201 247.449 109.654 247.449 111.911C249.797 111.911 257.52 109.158 257.52 109.158L256.211 106.043L249.797 104.915Z" fill="#352221"/>
<path d="M282.857 102.591L279.334 107.601L264.25 113.378L249.797 104.915L268.405 94.1277L282.857 102.591Z" fill="#543A3A"/>
<path d="M282.857 102.591C282.857 102.591 283.512 103.2 283.512 105.118C283.512 106.766 283.512 107.849 283.512 107.849L278.25 110.918L279.695 106.382L282.857 102.591Z" fill="#472F2E"/>
<path d="M282.857 102.591C282.857 102.591 266.214 112.295 264.25 113.378C262.285 114.461 261.901 118.072 261.901 120.374C265.153 118.501 283.512 107.849 283.512 107.849L282.857 102.591Z" fill="#472F2E"/>
<path d="M258.491 97.3999V102.952C258.491 105.502 262.375 107.555 267.163 107.555C271.95 107.555 275.834 105.502 275.834 102.952V97.3999H258.491Z" fill="#1798CF"/>
<path d="M267.163 92.7964C262.375 92.7964 258.491 94.8501 258.491 97.4002C258.491 99.9504 262.375 102.004 267.163 102.004C271.95 102.004 275.834 99.9504 275.834 97.4002C275.857 94.8501 271.973 92.7964 267.163 92.7964Z" fill="#4DBAF2"/>
<path d="M275.428 118.794C270.527 118.794 265.627 116.831 265.356 116.718C264.972 116.56 264.792 116.131 264.95 115.748C265.108 115.364 265.537 115.184 265.921 115.341C265.989 115.364 273.508 118.366 278.815 116.876C284.686 115.229 287.622 111.798 286.651 107.714C286.267 106.044 285.454 104.667 284.731 103.448C283.918 102.072 283.151 100.763 283.196 99.3184C283.331 94.6018 285.702 91.4649 287.26 89.4112C287.667 88.8696 288.028 88.3956 288.299 87.9443C290.761 83.9498 289.473 79.8425 289.451 79.7973C289.315 79.4137 289.541 78.9849 289.925 78.8721C290.309 78.7367 290.738 78.9623 290.851 79.346C290.919 79.5491 292.364 84.1529 289.541 88.7342C289.248 89.2081 288.864 89.7271 288.412 90.3139C286.877 92.345 284.776 95.1208 284.641 99.3861C284.618 100.402 285.251 101.485 285.973 102.726C286.741 104.035 287.622 105.502 288.051 107.398C289.18 112.272 285.793 116.447 279.176 118.32C278.002 118.659 276.715 118.794 275.428 118.794Z" fill="white"/>
<path d="M311.694 22.2487C309.977 20.2853 307.629 18.9763 307.629 18.9763C307.629 18.9763 307.29 18.7281 306.726 18.4121C304.016 16.6293 300.335 15.5686 300.335 15.5686C300.335 15.5686 287.96 36.9628 283.647 47.5019C280.373 55.5135 274.095 74.5832 274.095 74.5832C274.095 74.5832 274.05 84.3099 274.976 87.5822C274.998 87.7628 275.021 87.9433 275.066 88.1238C275.653 91.5993 278.092 93.1339 280.689 91.6444C281.773 91.0351 283.083 90.2001 284.686 89.0491C291.031 84.4904 297.761 69.5732 302.051 59.034C306.364 48.4949 315.058 28.9964 315.058 28.9964C315.058 28.9964 313.387 24.2346 311.694 22.2487Z" fill="#1798CF"/>
<path d="M308.937 20.9407C307.221 18.9773 304.895 17.6458 304.895 17.6458C304.895 17.6458 302.637 16.0886 300.356 15.547C298.076 15.0054 293.943 16.1338 293.943 16.1338C293.943 16.1338 287.778 31.209 283.465 41.7256C279.152 52.2647 273.416 67.7913 274.207 76.8184C274.41 79.0977 274.636 80.9257 274.884 82.3475C275.471 85.8229 277.91 87.3575 280.507 85.868C281.591 85.2587 282.901 84.4237 284.504 83.2727C290.849 78.7141 297.579 63.7968 301.869 53.2577C306.182 42.7185 312.347 27.6659 312.347 27.6659C312.347 27.6659 310.654 22.9041 308.937 20.9407Z" fill="#4DBAF2"/>
<path d="M331.588 36.3771L318.378 28.9749L316.097 32.7662L329.669 40.5521L331.588 36.3771Z" fill="#1798CF"/>
<path d="M332.107 37.5956C332.107 38.7014 331.43 39.9877 330.595 40.4617C329.759 40.9356 329.082 40.4391 329.082 39.3333C329.082 38.2275 329.759 36.9411 330.595 36.4672C331.453 35.9707 332.107 36.4897 332.107 37.5956Z" fill="#4DBAF2"/>
<path d="M296.993 16.3819L283.715 8.77661L281.66 12.8839L295.051 20.557L296.993 16.3819Z" fill="#1798CF"/>
<path d="M284.212 9.9502C284.212 11.056 283.534 12.3424 282.699 12.8163C281.863 13.2902 281.186 12.7937 281.186 11.6879C281.186 10.5821 281.863 9.29574 282.699 8.82182C283.534 8.3479 284.212 8.84439 284.212 9.9502Z" fill="#1798CF"/>
<path d="M321.923 28.704L321.968 29.0651L310.519 22.4302L295.841 13.9221C295.841 13.9221 290.896 16.9913 288.118 20.3088C287.893 20.5796 287.712 20.8278 287.554 21.0987L286.696 21.0535V23.8068C286.696 23.8745 286.696 23.9422 286.696 23.9873V24.0099C286.764 25.8604 287.938 27.553 289.18 28.9748C291.212 31.2767 297.987 35.2035 301.825 36.2867C305.664 37.37 310.61 38.2727 315.645 36.2642C320.681 34.2556 325.175 30.9156 325.175 30.9156V28.2752L321.923 28.704Z" fill="#352221"/>
<path d="M325.196 28.2753L310.518 19.7673L295.84 11.2593C295.84 11.2593 290.895 14.3285 288.117 17.6459C285.34 20.9408 287.169 23.9875 289.201 26.2894C291.234 28.5913 298.008 32.5181 301.847 33.6013C305.686 34.6846 310.631 35.5873 315.667 33.5788C320.68 31.6154 325.196 28.2753 325.196 28.2753Z" fill="#472F2E"/>
<path d="M490.278 189.428C478.039 189.428 465.303 183.131 461.464 178.573C458.054 174.533 457.061 169.23 458.935 165.055C459.59 163.588 460.561 162.301 461.848 161.196C461.961 160.925 462.097 160.677 462.255 160.428C463.09 159.029 464.151 157.765 465.393 156.637C464.039 155.373 463.18 154.064 463.045 152.62C462.864 150.656 464.061 148.67 466.681 146.572C472.8 141.652 483.956 144.676 492.966 151.108C499.763 152.507 505.86 155.621 510.06 159.999C523.338 161.647 537.113 162.64 547.726 159.638C564.549 154.877 574.034 148.986 575.931 142.171C577.105 137.928 575.321 133.212 570.624 128.179C562.494 119.49 548.471 121.002 548.313 121.025L548.223 120.258C548.358 120.235 562.788 118.678 571.188 127.66C576.089 132.918 577.94 137.861 576.676 142.397C574.711 149.483 565.024 155.554 547.929 160.406C537.406 163.385 523.925 162.504 510.85 160.902C510.986 161.06 511.099 161.196 511.234 161.354C516.067 167.199 517.738 172.141 516.383 176.429C514.757 181.574 508.84 185.501 498.272 188.457C495.721 189.112 493.011 189.428 490.278 189.428ZM461.306 162.775C460.606 163.565 460.064 164.423 459.635 165.348C457.896 169.252 458.845 174.24 462.051 178.054C466.635 183.515 484.249 191.481 498.092 187.622C508.231 184.801 514.147 180.942 515.66 176.113C516.902 172.141 515.231 167.311 510.647 161.76C510.331 161.376 510.015 161.015 509.676 160.677C507.057 160.361 504.46 159.999 501.908 159.661C506.65 166.048 507.124 172.096 503.037 176.158C494.772 184.373 475.555 179.972 466.635 172.998C462.48 169.749 460.629 166.138 461.306 162.775ZM462.48 161.647C460.471 166.228 464.468 170.29 467.132 172.389C475.826 179.182 494.524 183.538 502.495 175.616C506.402 171.735 505.747 165.799 500.824 159.526C500.643 159.503 500.463 159.48 500.282 159.458C491.43 158.239 483.075 157.111 477.023 157.291C474.042 157.382 471.378 157.765 469.074 158.397C470.836 159.526 472.913 160.654 475.013 161.782C479.304 164.107 483.752 166.522 486.643 169.478L486.078 170.02C483.278 167.153 478.875 164.784 474.629 162.482C472.281 161.218 470 159.977 468.081 158.691C465.822 159.413 463.948 160.406 462.48 161.647ZM465.958 157.111C464.987 157.991 464.151 158.939 463.429 159.954C464.558 159.232 465.822 158.623 467.268 158.126C466.816 157.788 466.364 157.472 465.958 157.111ZM501.23 158.803C503.714 159.142 506.244 159.48 508.795 159.819C505.115 156.276 500.079 153.658 494.479 152.236C496.488 153.793 498.34 155.531 499.989 157.359C500.44 157.833 500.847 158.329 501.23 158.803ZM478.355 156.501C484.272 156.501 491.972 157.54 500.101 158.645C499.876 158.397 499.65 158.126 499.424 157.878C497.437 155.666 495.088 153.59 492.559 151.807C489.104 151.108 485.469 150.882 481.81 151.153C475.578 151.627 470.271 153.545 466.568 156.614C467.064 157.021 467.606 157.427 468.216 157.833C470.745 157.066 473.681 156.614 477 156.524C477.429 156.501 477.881 156.501 478.355 156.501ZM474.358 144.924C471.558 144.924 469.074 145.601 467.155 147.158C464.761 149.099 463.655 150.837 463.813 152.53C463.926 153.771 464.716 154.967 465.981 156.095C469.819 152.868 475.307 150.86 481.765 150.363C484.881 150.137 487.998 150.273 491.001 150.724C485.536 147.204 479.462 144.924 474.358 144.924Z" fill="#593D3D"/>
<path d="M483.662 170.584C483.662 169.14 484.543 167.447 485.627 166.838C486.101 166.567 486.553 166.544 486.891 166.747L487.907 167.334L487.569 168.079C487.569 168.169 487.591 168.259 487.591 168.35C487.591 169.726 486.778 171.284 485.785 171.983L485.401 172.818L484.362 172.231C483.933 171.938 483.662 171.374 483.662 170.584Z" fill="#352221"/>
<path d="M488.653 168.891C488.653 170.336 487.772 172.028 486.688 172.637C485.604 173.269 484.723 172.592 484.723 171.148C484.723 169.704 485.604 168.011 486.688 167.402C487.772 166.792 488.653 167.447 488.653 168.891Z" fill="#472F2E"/>
<path d="M488.54 169.455C488.54 170.539 487.885 171.802 487.072 172.276C486.259 172.75 485.604 172.254 485.604 171.171C485.604 170.087 486.259 168.823 487.072 168.35C487.885 167.876 488.54 168.372 488.54 169.455Z" fill="#5B3D3D"/>
<path d="M487.75 169.726C487.75 169.546 487.862 169.32 487.998 169.252C488.043 169.23 488.088 169.207 488.133 169.23L490.504 170.606C490.685 170.719 490.753 170.945 490.64 171.125C490.527 171.306 490.301 171.374 490.121 171.261L487.84 169.929C487.772 169.884 487.75 169.817 487.75 169.726Z" fill="#EDDDDD"/>
<path d="M486.395 171.08C486.395 170.9 486.507 170.674 486.643 170.606C486.688 170.584 486.733 170.561 486.778 170.584L489.15 171.96C489.33 172.073 489.398 172.299 489.285 172.479C489.172 172.66 488.946 172.728 488.766 172.615L486.485 171.283C486.417 171.238 486.395 171.193 486.395 171.08Z" fill="#EDDDDD"/>
<path d="M545.4 66.0046V116.421C545.4 116.94 546.213 117.369 547.207 117.369C548.201 117.369 549.013 116.94 549.013 116.421V66.0046H545.4Z" fill="#3D2828"/>
<path d="M547.184 65.0569C546.191 65.0569 545.378 65.4857 545.378 66.0047C545.378 66.5238 546.191 66.9526 547.184 66.9526C548.178 66.9526 548.991 66.5238 548.991 66.0047C548.991 65.4857 548.178 65.0569 547.184 65.0569Z" fill="#593D3D"/>
<path d="M545.897 65.8469H548.426V52.4417C548.426 47.7702 545.536 42.3088 541.991 40.2551L528.577 32.5144C526.771 31.4763 524.987 31.3635 523.519 32.221C521.825 33.1914 520.877 35.2902 520.877 37.9984V99.8113H523.406V38.0209C523.406 36.2832 523.925 34.9292 524.783 34.4327C525.438 34.0716 526.341 34.1844 527.312 34.726L540.726 42.4668C543.526 44.0917 545.897 48.6503 545.897 52.4643V65.8469Z" fill="white"/>
<path d="M547.162 66.524C547.86 66.524 548.426 66.2209 548.426 65.847C548.426 65.473 547.86 65.1699 547.162 65.1699C546.463 65.1699 545.897 65.473 545.897 65.847C545.897 66.2209 546.463 66.524 547.162 66.524Z" fill="white"/>
<path d="M553.62 120.777C553.62 120.777 553.62 126.012 551.136 127.57C548.584 129.149 543.413 118.385 543.413 118.385L553.146 119.513L553.62 120.777Z" fill="#2B1B1A"/>
<path d="M513.109 152.778C513.109 150.115 514.735 147 516.744 145.85C517.241 145.556 517.851 145.398 518.325 145.398C518.709 145.398 519.657 145.443 520.651 146.053C521.803 146.752 521.938 148.355 521.938 148.355L517.873 156.705C517.873 156.705 516.564 157.359 515.209 156.614C514.373 156.163 513.854 155.396 513.628 154.967C513.538 154.786 513.38 154.403 513.334 154.267C513.199 153.861 513.109 153.365 513.109 152.778Z" fill="#281818"/>
<path d="M522.029 149.55C522.029 152.213 520.403 155.328 518.393 156.479C516.383 157.63 514.757 156.411 514.757 153.748C514.757 151.085 516.383 147.971 518.393 146.82C520.403 145.646 522.029 146.865 522.029 149.55Z" fill="#3F2A28"/>
<path d="M520.673 150.589C520.673 152.056 519.793 153.748 518.686 154.38C517.58 155.012 516.699 154.335 516.699 152.891C516.699 151.424 517.58 149.731 518.686 149.099C519.793 148.467 520.673 149.144 520.673 150.589Z" fill="white"/>
<path d="M520.335 145.737H517.964V152.62C517.964 153.071 518.099 153.387 518.325 153.545L519.138 153.974L519.861 153.116L519.657 153.026C520.041 152.552 520.312 151.875 520.312 151.243V145.737H520.335Z" fill="#C6ADAC"/>
<path d="M518.686 145.737V153.004C518.686 153.884 519.206 154.267 519.861 153.906C520.515 153.523 521.035 152.53 521.035 151.65V145.759H518.686V145.737Z" fill="#DBC7C6"/>
<path d="M482.759 134.927C482.759 132.264 484.385 129.149 486.394 127.998C486.891 127.705 487.501 127.547 487.975 127.547C488.359 127.547 489.307 127.592 490.301 128.201C491.453 128.901 491.588 130.503 491.588 130.503L487.524 138.853C487.524 138.853 486.214 139.508 484.859 138.763C484.023 138.312 483.504 137.544 483.278 137.116C483.188 136.935 483.03 136.551 482.985 136.416C482.849 136.01 482.759 135.513 482.759 134.927Z" fill="#281818"/>
<path d="M491.656 131.677C491.656 134.34 490.03 137.454 488.02 138.605C486.011 139.756 484.385 138.538 484.385 135.875C484.385 133.212 486.011 130.097 488.02 128.946C490.053 127.795 491.656 129.014 491.656 131.677Z" fill="#3F2A28"/>
<path d="M490.324 132.737C490.324 134.204 489.443 135.897 488.337 136.529C487.23 137.161 486.349 136.484 486.349 135.039C486.349 133.572 487.23 131.88 488.337 131.248C489.443 130.616 490.324 131.27 490.324 132.737Z" fill="white"/>
<path d="M489.962 127.863H487.591V134.746C487.591 135.197 487.727 135.513 487.953 135.671L488.766 136.1L489.488 135.242L489.285 135.152C489.669 134.678 489.94 134.001 489.94 133.369V127.863H489.962Z" fill="#C6ADAC"/>
<path d="M488.336 127.863V135.13C488.336 136.01 488.856 136.393 489.511 136.032C490.166 135.671 490.685 134.656 490.685 133.776V127.885H488.336V127.863Z" fill="#DBC7C6"/>
<path d="M539.619 132.806C539.619 128.382 542.307 123.237 545.626 121.319C546.462 120.845 547.455 120.596 548.246 120.596C548.878 120.596 550.459 120.664 552.107 121.68C554.004 122.853 554.23 125.742 554.23 125.742L547.5 139.373C547.5 139.373 545.333 140.433 543.097 139.215C541.697 138.447 540.861 137.206 540.477 136.507C540.319 136.191 540.048 135.581 539.981 135.356C539.755 134.611 539.619 133.776 539.619 132.806Z" fill="#281818"/>
<path d="M554.388 127.435C554.388 131.858 551.701 137.003 548.381 138.921C545.062 140.84 542.375 138.809 542.375 134.385C542.375 129.962 545.062 124.817 548.381 122.898C551.701 120.98 554.388 123.011 554.388 127.435Z" fill="#3F2A28"/>
<path d="M552.175 129.172C552.175 131.587 550.707 134.408 548.878 135.468C547.049 136.529 545.581 135.401 545.581 132.986C545.581 130.571 547.049 127.75 548.878 126.69C550.684 125.651 552.175 126.757 552.175 129.172Z" fill="white"/>
<path d="M551.881 129.984C551.881 131.632 550.865 133.573 549.623 134.295C548.381 135.017 547.365 134.25 547.365 132.602C547.365 130.955 548.381 129.014 549.623 128.292C550.887 127.547 551.881 128.314 551.881 129.984Z" fill="#3F2A28"/>
<path d="M516.27 49.8238C516.18 49.8238 516.112 49.8238 516.022 49.8012C514.802 49.6658 513.899 48.56 514.034 47.3413C514.215 45.6036 514.418 43.8885 514.622 42.241C515.57 33.9135 516.496 26.0374 515.367 23.1939C513.854 19.3122 509.428 9.42755 509.383 9.31471C508.886 8.18632 512.973 6.35834 513.47 7.48673C513.651 7.89295 517.986 17.5745 519.544 21.5464C521.08 25.4281 520.199 33.0785 519.07 42.7375C518.889 44.385 518.686 46.0775 518.506 47.8153C518.37 48.9662 517.399 49.8238 516.27 49.8238Z" fill="white"/>
<path d="M540.613 131.903L539.236 126.87L517.603 114.39C513.741 112.156 507.825 111.908 504.483 113.848L487.095 123.891V123.71H481.291V129.51H481.314C481.449 130.91 482.511 132.354 484.498 133.505L508.683 147.474C512.544 149.708 518.461 149.957 521.803 148.016L540.658 137.138C540.478 136.394 540.387 135.559 540.387 134.656C540.365 133.731 540.455 132.805 540.613 131.903Z" fill="#352221"/>
<path d="M515.796 102.497C514.802 102.723 513.899 103.039 513.131 103.467L483.527 120.596C480.185 122.537 480.614 125.945 484.475 128.157L508.66 142.126C512.521 144.36 518.438 144.608 521.78 142.668L540.636 131.903C540.636 130.391 542.849 118.994 543.21 118.475L515.66 102.565L515.796 102.497Z" fill="#472F2E"/>
<path d="M515.164 102.316L518.144 88.1663L515.164 86.4512C515.164 86.4512 513.063 87.6698 508.841 90.1072C504.618 92.5445 503.511 92.6799 500.553 98.9086C498.024 104.257 495.427 112.043 494.75 114.097L497.731 115.812L515.164 102.316Z" fill="#593D3D"/>
<path d="M518.167 104.031V88.1663C518.167 88.1663 516.067 89.3849 511.844 91.8222C507.621 94.2595 506.515 94.3949 503.557 100.624C501.028 105.972 498.431 113.758 497.753 115.812L518.167 104.031Z" fill="#352221"/>
<path d="M513.583 105.904C502.201 105.904 492.966 101.007 492.966 94.9365V124.117C492.966 130.165 502.201 135.085 513.583 135.085C524.964 135.085 534.2 130.187 534.2 124.117V94.9591C534.2 101.007 524.964 105.904 513.583 105.904Z" fill="white"/>
<path d="M492.966 94.9593C492.966 101.007 502.201 105.927 513.583 105.927C524.964 105.927 534.2 101.03 534.2 94.9593V65.8921H492.966V94.9593Z" fill="#352221"/>
<path d="M492.966 91.8447C492.966 97.8929 502.201 102.813 513.583 102.813C524.964 102.813 534.2 97.9154 534.2 91.8447V62.8H492.966V91.8447Z" fill="#4DBAF2"/>
<path d="M513.583 124.094C502.201 124.094 492.966 119.197 492.966 113.126V114.887C492.966 120.935 502.201 125.854 513.583 125.854C524.964 125.854 534.2 120.957 534.2 114.887V113.126C534.2 119.197 524.964 124.094 513.583 124.094Z" fill="#CCB5B4"/>
<path d="M513.583 117.73C502.201 117.73 492.966 112.833 492.966 106.762V108.522C492.966 114.571 502.201 119.49 513.583 119.49C524.964 119.49 534.2 114.593 534.2 108.522V106.762C534.2 112.833 524.964 117.73 513.583 117.73Z" fill="#CCB5B4"/>
<path d="M544.452 117.685L553.62 108.545L550.639 106.83C550.639 106.83 548.539 108.048 544.316 110.486C540.094 112.923 538.987 113.059 536.029 119.287C533.5 124.636 530.903 132.422 530.225 134.475L533.206 136.19L539.529 131.293L544.452 117.685Z" fill="#593D3D"/>
<path d="M534.584 50.2527C534.584 50.185 534.561 50.1173 534.561 50.0496V50.4332C534.561 50.3881 534.584 50.3204 534.584 50.2527Z" fill="#352221"/>
<path d="M501.569 93.4249L492.446 88.1441V79.2073L501.569 84.4881V93.4249Z" fill="#3D2828"/>
<path d="M495.743 77.3567L492.446 79.2072L501.569 84.4881L504.866 82.6375L495.743 77.3567Z" fill="#593D3D"/>
<path d="M501.569 84.488V93.4249L504.866 91.5743V82.6375L501.569 84.488Z" fill="#352221"/>
<path d="M547.794 120.393C550.143 119.039 552.243 119.287 553.62 120.777V108.545C553.62 108.545 551.52 109.764 547.297 112.201C543.074 114.638 541.968 114.774 539.01 121.003C536.481 126.351 533.884 134.137 533.206 136.191L540.591 131.925C541.471 127.164 544.362 122.379 547.794 120.393Z" fill="#352221"/>
<path d="M480.907 113.6C479.055 113.6 475.939 112.336 474.268 104.731C472.597 97.1935 476.255 88.1213 479.801 79.3425C482.939 71.534 486.214 63.4774 485.672 56.7071L485.536 55.0822C484.023 35.5611 482.443 15.3856 489.24 7.08063C494.592 0.535992 499.627 -0.321582 502.924 0.0846366C507.079 0.626262 510.76 3.51493 512.747 7.82536C513.086 8.5701 510.376 9.81132 510.037 9.06658C508.502 5.74913 505.634 3.42466 502.54 3.04101C498.905 2.56708 495.088 4.62075 491.543 8.95375C485.491 16.3334 487.027 35.9222 488.494 54.8339L488.63 56.4588C489.217 63.9287 485.83 72.3239 482.533 80.4483C479.01 89.182 475.668 97.4418 477.136 104.077C478.22 109.019 479.846 110.644 480.93 110.621C482.578 110.508 484.701 107.236 485.107 102.678C486.44 87.8505 495.495 85.1424 495.879 85.0295C496.669 84.8039 497.505 85.2778 497.708 86.0677C497.934 86.8575 497.482 87.67 496.692 87.8956C496.353 87.9859 489.217 90.2878 488.065 102.948C487.546 108.793 484.543 113.375 481.11 113.578C481.088 113.578 480.997 113.6 480.907 113.6Z" fill="#593D3D"/>
<path d="M501.118 136.416L491.972 131.158V115L501.118 120.258V136.416Z" fill="#3D2828"/>
<path d="M495.269 113.149L491.972 114.999L501.118 120.258L504.415 118.407L495.269 113.149Z" fill="#593D3D"/>
<path d="M501.117 120.258V136.416L504.414 134.565V118.407L501.117 120.258Z" fill="#352221"/>
<path d="M501.637 143.909C500.734 143.909 499.83 143.773 498.927 143.503C493.869 141.991 491.927 139.079 491.204 136.913C489.917 133.122 491.091 128.111 494.388 123.508C494.862 122.831 495.788 122.673 496.466 123.169C497.143 123.643 497.279 124.591 496.804 125.245C494.704 128.179 492.853 132.535 494.004 135.942C494.749 138.132 496.691 139.711 499.763 140.637C501.614 141.201 503.443 140.93 505.182 139.847C508.818 137.635 511.618 132.377 512.905 125.426C514.486 116.805 513.718 97.8933 513.199 85.3908C513.018 81.0126 512.883 77.5598 512.883 75.5512C512.883 74.7388 513.56 74.0618 514.373 74.0618C515.186 74.0618 515.863 74.7388 515.863 75.5512C515.863 77.5146 515.999 80.9449 516.179 85.2779C516.699 97.9159 517.467 117.031 515.841 125.968C514.418 133.753 511.099 139.734 506.74 142.397C505.137 143.412 503.398 143.909 501.637 143.909Z" fill="#593D3D"/>
<path d="M536.729 64.8314V62.191H536.097C533.68 56.7747 524.535 52.7351 513.583 52.7351C502.631 52.7351 493.485 56.7747 491.069 62.191H490.414V65.0345C490.414 71.8274 500.779 77.3565 513.583 77.3565C526.364 77.3565 536.751 71.85 536.751 65.0345C536.751 64.9668 536.729 64.8991 536.729 64.8314Z" fill="#352221"/>
<path d="M513.583 49.395C500.801 49.395 490.414 54.9015 490.414 61.717C490.414 68.5099 500.779 74.039 513.583 74.039C526.364 74.039 536.751 68.5324 536.751 61.717C536.751 54.9015 526.364 49.395 513.583 49.395Z" fill="#472F2E"/>
<path d="M513.582 66.7043C502.63 66.7043 493.711 62.1682 493.033 56.436H492.988C492.988 56.6165 492.965 56.7745 492.965 56.9325V61.0398H493.033C493.711 66.772 502.63 71.3081 513.582 71.3081C524.964 71.3081 534.199 66.4109 534.199 60.3402V56.9099C534.199 56.6391 534.177 56.3908 534.154 56.1426C533.748 62.0102 524.693 66.7043 513.582 66.7043Z" fill="#4DBAF2"/>
<path d="M516.064 38.8108H511.096C501.296 38.8108 493.279 46.6869 492.986 56.4136H493.031C493.708 62.1458 502.628 66.6819 513.58 66.6819C524.69 66.6819 533.746 61.9878 534.152 56.1428C533.746 46.5515 525.774 38.8108 516.064 38.8108Z" fill="#352221"/>
<path d="M516.699 141.562C518.682 141.562 520.289 140.703 520.289 139.643C520.289 138.584 518.682 137.725 516.699 137.725C514.716 137.725 513.108 138.584 513.108 139.643C513.108 140.703 514.716 141.562 516.699 141.562Z" fill="#3D2828"/>
<path d="M487.298 122.108C485.31 122.108 483.707 122.966 483.707 124.027C483.707 125.087 485.31 125.945 487.298 125.945C489.285 125.945 490.888 125.087 490.888 124.027C490.888 122.966 489.285 122.108 487.298 122.108Z" fill="#3D2828"/>
<path d="M525.416 46.5742L503.873 59.009C506.605 60.1826 510.06 60.8822 513.854 60.8822C522.661 60.8822 529.797 57.0908 529.797 52.4193C529.797 50.1399 528.125 48.1088 525.416 46.5742Z" fill="#472F2E"/>
<path d="M503.895 59.0087C503.895 59.0087 503.895 51.7194 513.583 46.5739C522.164 42.0153 525.438 46.5739 525.438 46.5739L503.895 59.0087Z" fill="#3D2828"/>
<path d="M511.234 56.7749C510.444 56.7749 509.789 57.1134 509.789 57.5422C509.789 57.971 510.444 58.3095 511.234 58.3095C512.025 58.3095 512.68 57.971 512.68 57.5422C512.68 57.1134 512.025 56.7749 511.234 56.7749Z" fill="#C6ADAC"/>
<path d="M515.48 54.3147C514.689 54.3147 514.034 54.6532 514.034 55.082C514.034 55.5108 514.689 55.8493 515.48 55.8493C516.27 55.8493 516.925 55.5108 516.925 55.082C516.925 54.6758 516.293 54.3147 515.48 54.3147Z" fill="#C6ADAC"/>
<path d="M519.725 53.3896C520.523 53.3896 521.17 53.0461 521.17 52.6223C521.17 52.1985 520.523 51.855 519.725 51.855C518.927 51.855 518.28 52.1985 518.28 52.6223C518.28 53.0461 518.927 53.3896 519.725 53.3896Z" fill="#C6ADAC"/>
<path d="M523.993 49.3953C523.203 49.3953 522.548 49.7338 522.548 50.1626C522.548 50.5914 523.203 50.9299 523.993 50.9299C524.783 50.9299 525.438 50.5914 525.438 50.1626C525.416 49.7338 524.783 49.3953 523.993 49.3953Z" fill="#C6ADAC"/>
<path d="M528.057 53.4573L517.489 59.5505L515.254 58.2642L525.822 52.1709L528.057 53.4573Z" fill="#C6ADAC"/>
</svg>
