<svg width="26" height="26" viewBox="0 0 26 26" fill="none" xmlns="http://www.w3.org/2000/svg">
<path d="M23.88 6.12C20.04 0.2 12.2 -1.56 6.12001 2.12C0.200013 5.8 -1.71999 13.8 2.12001 19.72L2.44001 20.2L1.16001 25L5.96001 23.72L6.44001 24.04C8.52001 25.16 10.76 25.8 13 25.8C15.4 25.8 17.8 25.16 19.88 23.88C25.8 20.04 27.56 12.2 23.88 6.12ZM20.52 18.44C19.88 19.4 19.08 20.04 17.96 20.2C17.32 20.2 16.52 20.52 13.32 19.24C10.6 17.96 8.36001 15.88 6.76001 13.48C5.80001 12.36 5.32001 10.92 5.16001 9.48C5.16001 8.2 5.64001 7.08 6.44001 6.28C6.76001 5.96 7.08001 5.8 7.40001 5.8H8.20001C8.52001 5.8 8.84001 5.8 9.00001 6.44C9.32001 7.24 10.12 9.16 10.12 9.32C10.28 9.48 10.28 9.8 10.12 9.96C10.28 10.28 10.12 10.6 9.96001 10.76C9.80001 10.92 9.64001 11.24 9.48001 11.4C9.16001 11.56 9.00001 11.88 9.16001 12.2C9.80001 13.16 10.6 14.12 11.4 14.92C12.36 15.72 13.32 16.36 14.44 16.84C14.76 17 15.08 17 15.24 16.68C15.4 16.36 16.2 15.56 16.52 15.24C16.84 14.92 17 14.92 17.32 15.08L19.88 16.36C20.2 16.52 20.52 16.68 20.68 16.84C20.84 17.32 20.84 17.96 20.52 18.44Z" fill="white"/>
</svg>
