<svg width="168" height="181" viewBox="0 0 168 181" fill="none" xmlns="http://www.w3.org/2000/svg">
<path d="M124.87 135.049V142.212C124.87 143.091 126.208 143.793 127.843 143.793C129.492 143.793 130.816 143.091 130.816 142.212V135.049H124.87Z" fill="#352221"/>
<path d="M157.495 116.02V123.183C157.495 124.062 158.833 124.765 160.468 124.765C162.117 124.765 163.441 124.062 163.441 123.183V116.02H157.495Z" fill="#352221"/>
<path d="M28.1978 79.6923V86.8552C28.1978 87.7336 29.5357 88.4364 31.171 88.4364C32.8198 88.4364 34.1443 87.7336 34.1443 86.8552V79.6923H28.1978Z" fill="#352221"/>
<path d="M116.437 44.148L77.8245 21.9836C77.1758 21.6187 76.5811 21.5241 76.0675 21.6592L76.0135 21.5916C76.0135 21.5916 74.1349 21.4024 72.3509 22.808C70.567 24.2135 69.3777 26.1597 69.3777 26.1597L74.4998 30.3358V51.5272C74.4998 53.9734 76 56.8385 77.838 57.8927L116.45 80.0571C118.288 81.1113 119.788 79.976 119.788 77.5434V50.5135C119.761 48.0809 118.261 45.2157 116.437 44.148Z" fill="#15ABEB"/>
<path d="M114.207 76.462C114.207 76.462 113.707 78.246 111.679 79.4218C108.449 81.2869 106.936 80.8679 106.936 80.8679L106.544 74.4753L112.274 72.9617L114.207 76.462Z" fill="#15ABEB"/>
<path d="M111.031 83.3412L72.4185 61.1768C70.5805 60.1226 69.0803 57.2575 69.0803 54.8113V27.7814C69.0803 25.3352 70.5805 24.2 72.4185 25.2677L111.031 47.4321C112.869 48.4863 114.369 51.3514 114.369 53.7976V80.8275C114.355 83.2737 112.855 84.4089 111.031 83.3412Z" fill="#0B8EC7"/>
<path d="M162.712 70.7723L124.1 48.6078C123.451 48.2429 122.856 48.1483 122.343 48.2835L122.289 48.2159C122.289 48.2159 120.41 48.0267 118.626 49.4322C116.842 50.8378 115.653 52.784 115.653 52.784L120.775 56.9601V78.1514C120.775 80.5976 122.275 83.4628 124.113 84.517L162.725 106.681C164.563 107.736 166.063 106.6 166.063 104.168V77.1378C166.05 74.6916 164.55 71.8265 162.712 70.7723Z" fill="#15ABEB"/>
<path d="M160.482 103.086C160.482 103.086 159.981 104.87 157.954 106.046C154.724 107.911 153.211 107.492 153.211 107.492L152.819 101.1L158.549 99.5861L160.482 103.086Z" fill="#15ABEB"/>
<path d="M157.306 109.965L118.694 87.801C116.856 86.7469 115.355 83.8817 115.355 81.4355V54.4057C115.355 51.9595 116.856 50.8243 118.694 51.8919L157.306 74.0564C159.144 75.1105 160.644 77.9757 160.644 80.4219V107.452C160.644 109.884 159.144 111.02 157.306 109.965Z" fill="#0B8EC7"/>
<path d="M69.1748 28.4977C69.1748 28.4977 67.9855 26.5515 66.2016 25.146C64.4176 23.7404 62.539 23.9297 62.539 23.9297L62.485 23.9972C61.9714 23.8621 61.3767 23.9567 60.728 24.3216L27.3191 43.6074C25.4811 44.6615 23.981 47.5267 23.981 49.9729V77.0027C23.981 77.719 24.1296 78.3136 24.3594 78.7867L24.3459 78.8002C24.3459 78.8002 24.8459 80.5841 26.8732 81.7599C30.1032 83.625 31.6169 83.2061 31.6169 83.2061L32.0088 76.8135L60.728 60.2307C62.566 59.1765 64.0662 56.3114 64.0662 53.8652V32.6738L69.1748 28.4977Z" fill="#15ABEB"/>
<path d="M32.7251 82.8006L66.134 63.5148C67.972 62.4606 69.4722 59.5955 69.4722 57.1493V30.1195C69.4722 27.6733 67.972 26.538 66.134 27.6057L32.7251 46.8915C30.8871 47.9456 29.387 50.8108 29.387 53.257V80.2868C29.387 82.733 30.8871 83.8682 32.7251 82.8006Z" fill="#1798CF"/>
<path d="M156.292 109.06L76.2703 60.8659C74.4052 59.7847 71.1211 59.9334 68.9722 61.1633L44.0778 75.5296L33.8065 69.4749C31.6035 71.6373 31.1846 76.2864 31.1846 79.8003C31.1846 83.3277 32.2658 84.2197 34.0227 85.2333L115.761 132.427C117.626 133.509 120.91 133.36 123.059 132.13L155.765 113.25C157.914 112.02 158.157 110.128 156.292 109.06Z" fill="#0B8EC7"/>
<path d="M34.0227 73.1781L115.761 120.372C117.626 121.453 120.91 121.305 123.059 120.075L155.765 101.194C157.914 99.9511 158.144 98.059 156.292 96.9778L74.5539 49.7838C72.6889 48.7026 69.4048 48.8512 67.2559 50.0811L34.5498 68.9614C32.4009 70.2048 32.1712 72.1104 34.0227 73.1781Z" fill="#15ABEB"/>
<g opacity="0.5">
<path opacity="0.5" d="M106.017 74.989L78.8787 90.6528C76.8109 91.8421 73.1619 91.6934 70.7832 90.3149L40.5369 72.8536C38.1447 71.4751 37.8879 69.3668 39.9557 68.1775L67.0937 52.5137C69.1615 51.3244 72.8105 51.473 75.1891 52.8516L105.435 70.3128C107.814 71.6914 108.084 73.7997 106.017 74.989Z" fill="#99C7FF"/>
<path opacity="0.5" d="M101.759 73.5428L78.1217 87.1929C76.3242 88.2335 73.1482 88.0984 71.0669 86.8955L44.7263 71.6778C42.6451 70.4749 42.4153 68.6504 44.2263 67.6098L67.8639 53.9597C69.6613 52.9191 72.8374 53.0542 74.9186 54.257L101.259 69.4748C103.327 70.6777 103.557 72.5022 101.759 73.5428Z" fill="#B3D9FF"/>
<path opacity="0.5" d="M72.7968 69.1505C71.2156 69.1505 69.9316 69.8262 69.9316 70.6777C69.9316 71.5156 71.2156 72.2049 72.7968 72.2049C74.3781 72.2049 75.662 71.5291 75.662 70.6777C75.6485 69.8262 74.3781 69.1505 72.7968 69.1505Z" fill="#1798CF"/>
<path opacity="0.5" d="M71.0939 55.9871C71.0939 55.9871 70.8237 57.4061 71.3642 60.4199C71.8913 63.4338 72.6211 66.8801 72.6211 66.8801C72.6211 66.8801 73.0671 62.9878 72.8103 60.501C72.5265 58.0278 71.0939 55.9871 71.0939 55.9871Z" fill="#15ABEB"/>
<path opacity="0.5" d="M78.6216 70.2858C78.6216 70.2858 82.4328 68.0018 86.9468 67.8126C91.4608 67.6369 97.2181 69.4073 97.2181 69.4073C97.2181 69.4073 89.9471 68.4613 86.9468 68.7586C83.9329 69.0559 78.6216 70.2858 78.6216 70.2858Z" fill="#15ABEB"/>
<path opacity="0.5" d="M47.7673 68.7045C47.7673 68.7045 51.7407 66.7178 56.2682 66.8934C60.7822 67.0691 66.3909 69.2856 66.3909 69.2856C66.3909 69.2856 59.228 67.7719 56.2007 67.826C53.1598 67.8936 47.7673 68.7045 47.7673 68.7045Z" fill="#15ABEB"/>
<path opacity="0.5" d="M73.1484 74.3538C73.1484 74.3538 72.6753 76.6243 72.9862 79.9895C73.2294 82.5843 74.3647 85.5711 74.3647 85.5711C74.3647 85.5711 74.2971 82.5168 74.189 78.8407C74.1079 75.6512 73.1484 74.3538 73.1484 74.3538Z" fill="#15ABEB"/>
</g>
<g opacity="0.57">
<path opacity="0.57" d="M149.494 100.667L122.356 116.331C120.288 117.52 116.639 117.372 114.261 115.993L84.0142 98.532C81.622 97.1535 81.3652 95.0451 83.433 93.8558L110.571 78.192C112.639 77.0027 116.288 77.1514 118.666 78.5299L148.913 95.9912C151.291 97.3697 151.562 99.478 149.494 100.667Z" fill="#99C7FF"/>
<path opacity="0.57" d="M145.237 99.2212L121.599 112.871C119.801 113.912 116.625 113.777 114.544 112.574L88.2036 97.3561C86.1223 96.1533 85.8926 94.3288 87.7036 93.2881L111.341 79.6381C113.139 78.5974 116.315 78.7326 118.396 79.9354L144.736 95.1532C146.804 96.3425 147.034 98.1805 145.237 99.2212Z" fill="#B3D9FF"/>
<path opacity="0.57" d="M116.274 94.8289C114.693 94.8289 113.409 95.5046 113.409 96.356C113.409 97.194 114.693 97.8832 116.274 97.8832C117.855 97.8832 119.139 97.2075 119.139 96.356C119.126 95.5046 117.855 94.8289 116.274 94.8289Z" fill="#1798CF"/>
<path opacity="0.57" d="M114.571 81.6654C114.571 81.6654 114.301 83.0845 114.842 86.0983C115.369 89.1121 116.099 92.5584 116.099 92.5584C116.099 92.5584 116.545 88.6661 116.288 86.1794C116.004 83.6926 114.571 81.6654 114.571 81.6654Z" fill="#15ABEB"/>
<path opacity="0.57" d="M122.099 95.964C122.099 95.964 125.91 93.68 130.424 93.4908C134.938 93.3151 140.696 95.0856 140.696 95.0856C140.696 95.0856 133.425 94.1395 130.424 94.4368C127.41 94.7342 122.099 95.964 122.099 95.964Z" fill="#15ABEB"/>
<path opacity="0.57" d="M91.2446 94.3693C91.2446 94.3693 95.218 92.3825 99.7455 92.5582C104.259 92.7339 109.868 94.9504 109.868 94.9504C109.868 94.9504 102.705 93.4367 99.6779 93.4908C96.6506 93.5448 91.2446 94.3693 91.2446 94.3693Z" fill="#15ABEB"/>
<path opacity="0.57" d="M116.626 100.032C116.626 100.032 116.153 102.303 116.464 105.668C116.707 108.263 117.842 111.249 117.842 111.249C117.842 111.249 117.775 108.195 117.667 104.519C117.572 101.316 116.626 100.032 116.626 100.032Z" fill="#15ABEB"/>
</g>
<path d="M112.436 74.3538C112.436 74.3538 100.624 79.8408 93.5962 83.9088C86.5685 87.9633 76.4053 95.6803 76.4053 95.6803C76.4053 95.6803 87.8254 88.8282 94.5828 85.2603C101.354 81.6789 112.436 74.3538 112.436 74.3538Z" fill="#1798CF"/>
<path d="M70.567 49.0538C70.6617 52.7704 74.5675 56.6627 76.1352 57.9061C79.2977 60.4199 82.8521 62.1633 86.366 64.15C90.0961 66.2583 96.8536 68.0963 102.016 65.7582C105.503 64.177 106.517 59.5008 106.679 57.4195C106.855 55.149 106.3 53.0813 105.976 50.8648C108.733 50.2972 110.017 49.4728 109.652 48.3781C109.247 47.1888 108.206 47.0401 105.652 47.1077C105.287 44.0668 104.327 42.4585 102.746 40.107C101.516 39.2825 100.246 38.5122 99.07 37.7418C93.5019 34.0388 87.704 30.5654 81.9466 27.1732C79.595 25.7947 75.0946 23.862 72.351 23.8756C71.6077 23.2944 70.4725 22.6457 69.1075 22.8754C66.7964 23.2539 66.4315 25.3352 67.4586 26.7677C66.1477 29.1193 65.2422 38.35 65.2962 39.8502C65.3233 40.8232 65.5936 42.391 65.9585 44.1885C67.0262 46.1076 68.4587 47.6888 70.567 49.0538Z" fill="#F9423E"/>
<path d="M66.3503 54.0004C66.8368 55.2843 68.9857 55.433 70.2696 55.1492C74.243 61.1363 80.9464 66.1368 87.3524 68.8803C91.0826 70.4886 100.8 72.6104 105.003 71.7725C105.868 73.5024 107.8 74.462 108.828 73.7727C110.233 72.8537 109.747 71.4346 109.503 70.0831C110.787 69.083 112.396 68.3938 113.436 61.5687C113.815 59.1225 113.707 52.1894 111.787 50.2973C112.369 49.5269 113.382 47.2429 112.517 46.3239C111.436 45.1616 109.22 45.2698 107.99 45.3103C106.909 43.1749 104.881 41.5532 102.719 40.1071C104.3 42.4586 105.26 44.0669 105.625 47.1078C108.192 47.0537 109.22 47.1889 109.625 48.3782C110.003 49.4594 108.72 50.2838 105.949 50.8649C106.273 53.0679 106.827 55.1491 106.652 57.4197C106.49 59.4874 105.476 64.1771 101.989 65.7583C96.8264 68.1099 90.0689 66.2719 86.3388 64.1501C82.825 62.1634 79.2705 60.42 76.108 57.9062C74.5403 56.6628 70.6345 52.7705 70.5399 49.0539C68.4316 47.6889 66.9855 46.1077 65.9043 44.2021C66.3233 46.2293 66.8638 48.5403 67.3639 50.6352C67.0395 51.7704 65.7826 52.5002 66.3503 54.0004Z" fill="#E52C2C"/>
<path d="M71.9051 24.7271C71.5402 24.3622 71.0266 24.0648 70.4995 24.1054C70.3373 24.1189 70.2157 24.3216 70.3509 24.4433C70.7833 24.8487 71.2563 25.146 71.5942 25.6461C71.7564 25.8894 72.1213 26.3218 72.3916 25.9299C72.6754 25.538 72.1754 24.9974 71.9051 24.7271Z" fill="#E52C2C"/>
<path d="M69.9588 26.6055C69.4587 26.7407 69.0127 26.984 68.6884 27.4164C68.4857 27.6867 68.0802 28.3219 68.3505 28.6598C68.5667 28.9166 68.8505 28.7409 68.9722 28.4976C69.2965 27.9165 69.5263 27.4164 70.1345 27.0651C70.4048 26.9164 70.2426 26.538 69.9588 26.6055Z" fill="#E52C2C"/>
<path d="M68.7426 44.2291C68.5804 43.7426 68.2155 43.3777 68.0533 42.8911C67.8911 42.4046 67.9722 41.891 67.8371 41.4045C67.81 41.3099 67.6749 41.2558 67.5938 41.3369C66.9316 42.1613 67.5127 44.1345 68.5263 44.4454C68.648 44.4859 68.7831 44.3643 68.7426 44.2291Z" fill="#E52C2C"/>
<path d="M72.2292 47.4996C72.013 47.013 71.6481 46.6346 71.4454 46.121C71.2697 45.6615 71.2562 45.1615 71.094 44.6885C71.0534 44.5804 70.9318 44.5803 70.8777 44.6614C70.1885 45.6075 70.8507 47.5131 71.8914 47.932C72.1617 48.0402 72.3103 47.7158 72.2292 47.4996Z" fill="#E52C2C"/>
<path d="M101.908 58.271C101.8 58.1764 101.651 58.244 101.638 58.3792C101.584 58.9468 101.746 59.4468 101.597 60.0144C101.476 60.501 101.124 60.8659 101.084 61.3659C101.07 61.5281 101.259 61.6498 101.395 61.6092C102.489 61.2713 102.678 58.9873 101.908 58.271Z" fill="#E52C2C"/>
<path d="M99.5296 64.2851C98.9214 64.2175 98.3132 64.2716 97.7186 64.1094C97.1239 63.9337 96.6509 63.5823 96.1103 63.285C96.0157 63.2309 95.894 63.3255 95.9211 63.4336C96.313 64.7986 98.5024 65.596 99.6512 64.7716C99.8809 64.6229 99.7999 64.3121 99.5296 64.2851Z" fill="#E52C2C"/>
<path opacity="0.5" d="M79.3111 30.0114C76.8649 28.9707 73.2834 27.2949 70.8507 28.9166C66.5125 31.8224 72.4995 38.4987 75.635 40.1746C78.8651 41.891 88.2579 45.6076 89.704 39.5123C90.6366 35.6336 80.5815 30.5519 79.3111 30.0114Z" fill="#FF6464"/>
<path d="M114.531 74.6377C114.626 78.3543 118.531 82.2466 120.099 83.49C123.262 86.0037 126.816 87.7472 130.33 89.7339C134.06 91.8422 140.817 93.6802 145.98 91.3421C149.467 89.7609 150.481 85.0847 150.643 83.0034C150.818 80.7329 150.264 78.6651 149.94 76.4487C152.697 75.8811 153.981 75.0567 153.616 73.962C153.211 72.7726 152.17 72.624 149.616 72.6916C149.251 69.6507 148.291 68.0424 146.71 65.6908C145.48 64.8664 144.21 64.0961 143.034 63.3257C137.466 59.6226 131.668 56.1493 125.91 52.7571C123.559 51.3785 119.058 49.4459 116.315 49.4594C115.572 48.8783 114.436 48.2296 113.071 48.4593C110.76 48.8377 110.395 50.919 111.423 52.3516C110.112 54.7032 109.206 63.9339 109.26 65.4341C109.287 66.4071 109.557 67.9748 109.922 69.7723C110.977 71.6779 112.423 73.2727 114.531 74.6377Z" fill="#F9423E"/>
<path d="M110.314 79.5841C110.801 80.8681 112.95 81.0167 114.234 80.7329C118.207 86.72 124.91 91.7205 131.317 94.464C135.047 96.0723 144.764 98.1942 148.967 97.3562C149.832 99.0861 151.765 100.046 152.792 99.3565C154.197 98.4374 153.711 97.0184 153.468 95.6669C154.751 94.6668 156.36 93.9775 157.4 87.1525C157.779 84.7063 157.671 77.7731 155.751 75.881C156.333 75.1107 157.346 72.8267 156.481 71.9077C155.4 70.7454 153.184 70.8535 151.954 70.894C150.873 68.7587 148.845 67.1369 146.683 65.6908C148.264 68.0424 149.224 69.6507 149.589 72.6915C152.157 72.6375 153.184 72.7726 153.589 73.9619C153.968 75.0431 152.684 75.8675 149.913 76.4487C150.237 78.6516 150.792 80.7329 150.616 83.0034C150.454 85.0712 149.44 89.7609 145.953 91.3421C140.79 93.6937 134.033 91.8422 130.303 89.7338C126.789 87.7471 123.235 86.0037 120.072 83.49C118.504 82.2466 114.599 78.3408 114.504 74.6377C112.396 73.2727 110.95 71.6914 109.868 69.7858C110.287 71.8131 110.828 74.1241 111.328 76.2189C111.004 77.3407 109.733 78.0705 110.314 79.5841Z" fill="#E52C2C"/>
<path d="M115.856 50.2973C115.491 49.9324 114.977 49.635 114.45 49.6756C114.288 49.6891 114.166 49.8918 114.301 50.0135C114.734 50.4189 115.207 50.7162 115.545 51.2163C115.707 51.4596 116.072 51.892 116.342 51.5001C116.626 51.1217 116.126 50.5676 115.856 50.2973Z" fill="#E52C2C"/>
<path d="M113.923 52.1893C113.423 52.3244 112.977 52.5677 112.652 53.0002C112.45 53.2705 112.044 53.9057 112.315 54.2435C112.531 54.5003 112.815 54.3246 112.936 54.0814C113.261 53.5002 113.49 53.0002 114.099 52.6488C114.355 52.5001 114.193 52.1082 113.923 52.1893Z" fill="#E52C2C"/>
<path d="M112.693 69.8129C112.531 69.3263 112.166 68.9614 112.004 68.4749C111.842 67.9884 111.923 67.4748 111.787 66.9882C111.76 66.8936 111.625 66.8396 111.544 66.9207C110.882 67.7451 111.463 69.7183 112.477 70.0291C112.598 70.0696 112.747 69.9345 112.693 69.8129Z" fill="#E52C2C"/>
<path d="M116.18 73.0834C115.963 72.5969 115.599 72.2185 115.396 71.7049C115.22 71.2454 115.207 70.7453 115.044 70.2723C115.004 70.1642 114.882 70.1642 114.828 70.2453C114.139 71.1914 114.801 73.097 115.842 73.5159C116.112 73.624 116.274 73.2862 116.18 73.0834Z" fill="#E52C2C"/>
<path d="M145.859 83.8413C145.75 83.7467 145.602 83.8143 145.588 83.9495C145.534 84.5171 145.696 85.0171 145.548 85.5848C145.426 86.0713 145.075 86.4362 145.034 86.9362C145.021 87.0984 145.21 87.2201 145.345 87.1795C146.44 86.8552 146.642 84.5711 145.859 83.8413Z" fill="#E52C2C"/>
<path d="M143.494 89.869C142.886 89.8015 142.277 89.8555 141.683 89.6934C141.088 89.5177 140.615 89.1663 140.074 88.8689C139.98 88.8149 139.858 88.9095 139.885 89.0176C140.277 90.3826 142.467 91.18 143.615 90.3556C143.832 90.1934 143.75 89.8961 143.494 89.869Z" fill="#E52C2C"/>
<path opacity="0.5" d="M123.262 55.5817C120.816 54.541 117.234 52.8652 114.801 54.5005C110.463 57.4062 116.45 64.0826 119.586 65.7584C122.816 67.4748 132.209 71.1914 133.655 65.0962C134.587 61.2174 124.532 56.1223 123.262 55.5817Z" fill="#FF6464"/>
<path d="M165.861 84.5306C165.861 84.5306 164.671 82.5845 162.887 81.1789C161.103 79.7734 159.225 79.9626 159.225 79.9626L159.171 80.0302C158.657 79.895 158.063 79.9896 157.414 80.3545L124.005 99.6403C122.167 100.694 120.667 103.56 120.667 106.006V133.036C120.667 133.752 120.815 134.347 121.045 134.82L121.032 134.833C121.032 134.833 121.532 136.617 123.559 137.793C126.789 139.658 128.303 139.239 128.303 139.239L128.695 132.846L157.414 116.264C159.252 115.209 160.752 112.344 160.752 109.898V88.7068L165.861 84.5306Z" fill="#15ABEB"/>
<path d="M129.397 138.847L162.806 119.561C164.644 118.507 166.144 115.642 166.144 113.196V86.166C166.144 83.7198 164.644 82.5845 162.806 83.6522L129.397 102.938C127.559 103.992 126.059 106.857 126.059 109.303V136.333C126.073 138.766 127.573 139.901 129.397 138.847Z" fill="#1798CF"/>
<path d="M129.884 135.712C129.708 135.13 129.262 134.752 128.992 134.211C128.843 133.914 128.722 133.603 128.667 133.279C128.613 132.954 128.654 132.63 128.532 132.306C128.451 132.103 128.208 132.063 128.073 132.252C127.654 132.86 127.911 133.928 128.167 134.563C128.451 135.252 128.884 135.928 129.668 135.995C129.816 136.022 129.924 135.847 129.884 135.712Z" fill="#0B8EC7"/>
<path d="M133.438 134.374C133.127 133.928 132.587 133.779 132.087 133.617C131.559 133.455 131.032 133.346 130.478 133.441C130.33 133.468 130.303 133.698 130.438 133.765C130.87 133.995 131.343 134.103 131.803 134.292C132.262 134.482 132.681 134.793 133.181 134.82C133.398 134.833 133.573 134.549 133.438 134.374Z" fill="#0B8EC7"/>
<path d="M161.414 86.4361C161.36 86.4767 161.36 86.5713 161.387 86.6253C161.59 86.9632 162.076 87.0713 162.401 87.274C162.82 87.5308 163.144 87.9363 163.577 88.1525C163.847 88.2877 164.09 88.0714 164.05 87.7876C163.928 86.9362 162.185 85.7198 161.414 86.4361Z" fill="#0B8EC7"/>
<path d="M164.698 90.3284C164.658 90.1257 164.333 90.1257 164.293 90.3284C164.171 90.8015 164.036 91.2745 163.779 91.6799C163.536 92.0719 163.157 92.3557 162.982 92.7881C162.914 92.9503 162.982 93.2206 163.211 93.1801C164.401 93.0314 164.914 91.3556 164.698 90.3284Z" fill="#0B8EC7"/>
<path d="M162.887 111.182C162.82 110.966 162.522 111.02 162.509 111.236C162.468 111.979 162.468 112.709 162.347 113.452C162.252 114.02 162.049 114.534 162.13 115.115C162.157 115.331 162.509 115.426 162.644 115.25C163.401 114.263 163.225 112.304 162.887 111.182Z" fill="#0B8EC7"/>
<path d="M160.59 116.466C160.306 115.993 160.036 115.52 159.725 115.088C159.603 114.926 159.292 115.02 159.373 115.237C159.536 115.723 159.738 116.196 159.941 116.683C160.13 117.115 160.252 117.615 160.617 117.939C160.792 118.102 161.184 118.007 161.144 117.723C161.103 117.237 160.833 116.872 160.59 116.466Z" fill="#0B8EC7"/>
<path d="M158.089 119.44C157.698 119.331 157.265 119.372 156.873 119.264C156.427 119.142 156.13 118.845 155.738 118.669C155.63 118.615 155.441 118.669 155.454 118.831C155.576 119.859 157.319 120.683 158.171 120.034C158.373 119.859 158.373 119.521 158.089 119.44Z" fill="#0B8EC7"/>
<path d="M33.9009 49.4865C32.9414 49.9325 31.6169 51.4056 32.0088 52.5543C32.0899 52.7976 32.3873 52.8246 32.5359 52.6219C32.8333 52.1894 32.8738 51.6083 33.1171 51.1488C33.3874 50.6352 33.7658 50.2298 34.1712 49.8378C34.3469 49.6486 34.1172 49.3919 33.9009 49.4865Z" fill="#0B8EC7"/>
<path d="M34.6444 54.96C34.0903 54.7843 33.4822 54.8789 32.901 54.7167C32.3334 54.5545 31.8739 54.2167 31.3333 54.0004C31.1981 53.9464 31.036 54.1085 31.09 54.2437C31.536 55.3654 33.6578 56.2979 34.712 55.5546C34.9553 55.406 34.9283 55.0546 34.6444 54.96Z" fill="#0B8EC7"/>
<path d="M37.3472 46.3374C37.0228 46.8915 36.8066 47.5132 36.5634 48.1078C36.3066 48.7701 35.9146 49.4458 35.793 50.1351C35.7254 50.5405 36.2119 50.7568 36.4552 50.4189C36.8607 49.8513 37.0228 49.0944 37.2256 48.4457C37.4148 47.7835 37.5905 47.1077 37.604 46.405C37.604 46.2698 37.4148 46.2293 37.3472 46.3374Z" fill="#0B8EC7"/>
<path d="M32.9414 64.4609C32.8062 64.0014 32.8062 63.4743 32.5089 63.0959C32.4413 63.0148 32.3332 63.0554 32.2927 63.1229C31.9683 63.5419 32.1035 64.1771 32.1981 64.6636C32.3062 65.1907 32.4548 65.907 32.9008 66.2584C33.1035 66.4206 33.5225 66.3395 33.4819 66.0151C33.4414 65.4745 33.1035 64.988 32.9414 64.4609Z" fill="#0B8EC7"/>
<path d="M27.2112 78.5839C26.9679 78.1649 26.5219 77.9217 26.2651 77.5027C26.0218 77.0973 25.8867 76.6513 25.6975 76.2188C25.6435 76.0972 25.4542 76.1107 25.4002 76.2188C24.9136 77.2189 25.711 79.084 26.9274 79.0975C27.1706 79.0975 27.3328 78.8001 27.2112 78.5839Z" fill="#1798CF"/>
<path d="M124.343 136.104C124.126 135.59 123.653 135.252 123.343 134.793C123.018 134.293 122.87 133.725 122.599 133.211C122.437 132.914 122.045 133.076 122.018 133.374C121.964 134.009 122.275 134.684 122.613 135.225C122.91 135.712 123.356 136.374 123.964 136.482C124.153 136.523 124.437 136.333 124.343 136.104Z" fill="#1798CF"/>
<path d="M161.684 74.7052C161.346 74.0835 160.968 73.4348 160.36 73.0564C160.252 72.9888 160.13 73.0969 160.157 73.205C160.319 73.8402 160.711 74.3808 160.982 74.9755C161.252 75.5701 161.387 76.2459 161.86 76.7189C161.968 76.827 162.211 76.7865 162.238 76.6243C162.347 75.9215 162.009 75.2998 161.684 74.7052Z" fill="#1798CF"/>
<path d="M163.806 72.9752C163.739 72.813 163.496 72.9076 163.496 73.0563C163.482 73.7321 163.577 74.4078 163.55 75.0835C163.523 75.8134 163.252 76.4215 163.09 77.1243C163.023 77.4216 163.36 77.5973 163.577 77.4081C164.793 76.435 164.347 74.2051 163.806 72.9752Z" fill="#1798CF"/>
<path d="M35.7929 83.625C35.5361 83.2061 35.1442 82.8952 34.8739 82.4627C34.6171 82.0438 34.4685 81.5843 34.2522 81.1383C34.1711 80.9761 33.9414 81.0707 33.9279 81.2194C33.8468 82.1519 34.509 83.598 35.374 84.017C35.6443 84.1521 35.9551 83.8953 35.7929 83.625Z" fill="#4283D1"/>
<path d="M36.4013 82.4357C36.2932 82.4222 36.1851 82.5439 36.2797 82.6385C36.6851 82.9763 37.1447 83.2466 37.5231 83.6386C37.9015 84.017 38.2123 84.463 38.6178 84.8279C38.7529 84.9495 38.9557 84.8279 38.9151 84.6522C38.6718 83.6115 37.442 82.6114 36.4013 82.4357Z" fill="#4283D1"/>
<path d="M105.895 122.183C105.354 122.21 104.841 122.399 104.3 122.413C103.692 122.413 103.151 122.224 102.57 122.129C102.408 122.102 102.273 122.291 102.408 122.413C103.259 123.264 105.165 123.44 106.097 122.67C106.287 122.508 106.138 122.17 105.895 122.183Z" fill="#4283D1"/>
<path d="M107.463 121.332C107.274 121.115 106.841 121.345 106.949 121.629C107.152 122.129 107.382 122.602 107.517 123.129C107.652 123.643 107.611 124.224 107.787 124.724C107.909 125.048 108.328 125.048 108.449 124.724C108.855 123.697 108.152 122.089 107.463 121.332Z" fill="#4283D1"/>
<path d="M117.977 124.521C117.585 124.237 117.058 124.143 116.612 123.967C116.139 123.791 115.693 123.508 115.193 123.399C115.099 123.386 115.031 123.467 115.072 123.562C115.477 124.454 116.977 125.251 117.923 124.994C118.153 124.94 118.153 124.643 117.977 124.521Z" fill="#4283D1"/>
<path d="M117.802 127.224C117.315 126.954 116.748 127.265 116.22 127.332C115.531 127.427 114.828 127.332 114.139 127.386C113.991 127.4 113.95 127.576 114.072 127.657C114.68 128.089 115.423 128.184 116.166 128.17C116.734 128.157 117.626 128.143 117.883 127.548C117.937 127.427 117.923 127.292 117.802 127.224Z" fill="#4283D1"/>
<path d="M117.964 130.63C117.68 129.941 117.004 129.373 116.409 128.967C116.261 128.859 116.112 129.062 116.18 129.197C116.463 129.819 116.936 130.603 117.531 130.968C117.72 131.103 118.058 130.887 117.964 130.63Z" fill="#4283D1"/>
<path d="M36.8473 37.6879C38.1718 36.5391 39.5638 33.9443 40.5234 32.5657C40.5369 30.2277 36.8473 24.4433 34.3471 21.8079C34.9147 20.0915 34.0632 17.2533 32.7793 15.5505C31.4954 13.8476 29.0222 12.5907 29.0222 12.5907L24.4812 15.5505C24.4812 15.5505 30.5494 35.2012 36.8473 37.6879Z" fill="#E52C2C"/>
<path d="M33.0494 92.5854C33.0494 92.5854 32.9007 93.8152 32.5223 95.0991C32.1303 96.383 32.6169 98.1805 32.6169 98.1805C32.6169 98.1805 32.9007 98.9779 34.09 99.2077C35.1982 99.4239 36.1037 99.1536 36.1037 99.1536C36.1037 99.1536 37.1985 100.478 38.631 101.478C40.0636 102.478 43.2126 103.276 44.064 103.141C45.4425 102.924 46.1858 101.857 46.0777 101.154C45.9696 100.465 44.3478 98.5319 43.0099 97.694C42.1449 97.1534 40.1717 95.3154 39.5771 94.6802C38.5905 93.626 37.8742 92.4637 37.8742 92.4637L33.0494 92.5854Z" fill="#2C1D1B"/>
<path d="M31.1573 37.6879C31.1573 37.6879 35.1577 47.9051 35.7794 52.0407C36.4011 56.1763 37.6444 62.4336 38.3878 67.6369C39.1311 72.8401 39.1311 77.9217 38.7797 83.0034C38.6446 85.0171 37.9013 90.3014 38.2932 93.1665C37.8607 95.0316 33.4819 95.2614 32.9683 93.099C32.6439 91.761 29.2923 79.8679 28.9544 76.1242C28.6165 72.3806 29.495 69.7047 29.495 69.7047C29.495 69.7047 24.0349 58.0278 22.1293 53.4327C20.2237 48.8377 21.5212 43.1479 21.5212 43.1479L31.1573 37.6879Z" fill="#2C1D1B"/>
<path d="M12.5069 103.073C12.5069 103.073 11.7636 105.816 11.8582 107.398C11.9528 108.979 12.3312 109.357 12.8042 109.898C13.2908 110.439 13.8449 110.209 13.8449 110.209C13.8449 110.209 14.0611 113.479 15.6154 114.804C17.1696 116.128 19.9806 116.25 21.2781 115.777C22.5755 115.29 21.7241 112.952 20.4537 110.655C19.1833 108.357 17.575 105.884 17.1696 103.803C14.0882 103.37 12.5069 103.073 12.5069 103.073Z" fill="#2C1D1B"/>
<path d="M16.8181 41.9181C16.8181 41.9181 14.8585 44.6887 13.2907 49.5676C12.196 53.0004 12.3717 61.2174 12.3717 61.2174C12.3717 61.2174 12.0879 69.3129 12.615 72.1104C13.1421 74.908 13.088 75.4757 13.088 75.4757C13.088 75.4757 10.8445 82.1926 11.1824 90.1258C11.5338 98.0591 12.1825 103.762 12.1825 103.762C12.1825 103.762 12.6285 105.263 14.6692 105.465C16.5208 105.654 17.8858 104.371 17.8858 104.371C17.8858 104.371 21.2915 87.558 22.5484 83.7333C23.8053 79.9086 24.2783 75.4892 24.2783 75.4892L26.8597 56.6224C26.8597 56.6224 31.9548 53.2977 29.3464 44.8914C27.6976 39.6341 16.8181 41.9181 16.8181 41.9181Z" fill="#3F2A28"/>
<path d="M20.8456 15.8342C21.8997 15.4964 26.0488 14.1584 26.4678 14.3611C29.441 15.8343 32.7927 21.6051 33.2252 25.4974C33.4009 27.1057 33.09 34.4578 32.1305 37.0527C33.536 37.6744 33.2928 38.9583 32.6981 39.7421C33.2657 40.526 33.6577 40.6611 33.9685 41.418C34.5497 42.8641 33.7793 43.5533 32.7657 44.648C31.2926 46.2428 28.7112 47.5267 24.4811 48.1214C19.5887 48.7971 15.8315 46.7699 14.3178 44.7426C13.9529 44.2696 14.0205 43.0127 15.0882 42.3235C14.2773 39.8503 13.6691 35.12 12.8717 32.1468C11.6689 27.6733 10.4931 22.3484 13.0745 18.9697C14.2233 17.4966 18.548 16.5911 20.8456 15.8342Z" fill="#F9423E"/>
<path d="M26.5218 15.3341C26.5218 15.3341 28.1436 17.2668 29.3059 19.4291C30.4411 21.5375 30.725 23.9566 30.725 23.9566L23.5485 27.8489C23.5485 27.8489 21.0213 23.4701 19.1967 21.3077C17.2101 18.9426 15.7775 17.4154 15.7775 17.4154L14.5206 17.9425C14.5206 17.9425 17.21 21.5375 18.3453 23.6458C18.9264 24.7135 20.9266 27.8624 21.4132 30.4708C21.6024 31.4709 20.9942 37.1472 20.6158 40.107C19.9536 45.3643 14.1287 44.2831 14.1287 44.2831C14.1287 44.2831 12.6555 47.0671 11.5202 52.8785C10.6958 57.1222 11.4256 61.6362 11.5202 68.0963C11.5878 73.0293 10.804 78.9893 10.804 78.9893C10.804 78.9893 20.6293 81.5166 25.7515 80.6382C32.0359 79.5705 36.6039 76.827 38.1446 75.7863C40.5773 74.151 41.4423 72.2319 41.4423 72.2319C41.4423 72.2319 38.9555 62.839 36.6985 53.8516C35.1713 47.7429 34.847 44.2966 34.0631 40.107C33.5631 37.458 32.9414 31.7953 32.9008 28.1327C32.8468 24.4702 30.9817 18.7804 29.7654 16.9154C28.0895 14.334 26.6434 13.8745 26.6434 13.8745L26.5218 15.3341Z" fill="#15ABEB"/>
<path d="M27.8192 45.3373C27.4002 45.3643 25.4406 47.0267 23.2917 47.3375C20.9131 47.6754 19.8048 47.1077 18.9128 46.7023C19.4805 46.6753 20.9941 46.9321 23.1836 46.3644C25.3595 45.7968 27.8192 45.3373 27.8192 45.3373Z" fill="#F4EBEA"/>
<path d="M31.4279 39.634C31.4279 39.634 30.1304 41.4315 28.3465 42.4992C26.5625 43.5669 24.8191 43.9047 24.8191 43.9047C24.8191 43.9047 26.6571 42.4587 27.8194 41.5396C28.9682 40.6206 31.4279 39.634 31.4279 39.634Z" fill="#F4EBEA"/>
<path d="M22.5618 59.9874C22.5618 59.9874 24.4268 64.9744 26.1027 69.3668C27.0487 71.84 28.5218 75.2187 28.5218 75.2187C28.5218 75.2187 26.5216 74.1105 24.8052 70.3534C22.9537 66.2583 22.5618 59.9874 22.5618 59.9874Z" fill="#F4EBEA"/>
<path d="M20.3455 10.4823C20.3455 10.4823 24.2919 13.4826 25.6028 15.4963C27.8192 18.9021 28.1166 19.9157 26.1434 21.7943C21.1023 22.5106 18.2102 19.3886 17.3452 16.8748C18.6021 16.1856 20.3455 10.4823 20.3455 10.4823Z" fill="#FFB9A4"/>
<path d="M18.3454 15.5774C18.3454 15.5774 18.913 18.1993 20.6294 19.4832C22.6972 21.0374 26.5759 21.2942 26.5759 22.3484C25.4542 22.3484 25.2245 22.4159 25.2245 23.2268C25.2245 24.754 24.7785 25.1054 24.7785 25.1054C24.7785 25.1054 21.6024 24.1053 19.5887 23.2674C17.0614 22.2132 16.2776 17.3884 16.2776 17.3884C16.2776 17.3884 16.8452 15.4423 18.3454 15.5774Z" fill="#E52C2C"/>
<path d="M26.5624 16.064C26.5624 16.064 28.1978 17.8479 28.9005 18.6588C29.6033 19.4832 29.1979 20.9834 29.5493 21.6726C29.9007 22.3484 30.0628 22.8079 30.0628 22.8079C30.0628 22.8079 28.6032 22.5106 28.3194 21.6726C28.0356 20.8347 26.576 22.3484 26.576 22.3484L25.5488 21.4969C25.5488 21.4969 27.1031 20.4968 26.576 19.4292C26.0489 18.3615 25.1704 16.9559 25.1704 16.9559L26.5624 16.064Z" fill="#E52C2C"/>
<path d="M30.0492 8.6309C29.9816 6.90099 29.6032 4.73859 28.2787 3.50873C26.9678 2.29239 24.7108 2.17077 23.0079 2.2924C20.3725 2.48161 18.5074 5.40081 18.9805 8.77954C19.4129 11.9015 21.4942 16.6993 24.9676 17.3615C26.738 17.6994 28.1165 16.3614 28.9274 14.6585C29.887 12.6313 30.1168 10.0635 30.0492 8.6309Z" fill="#FFC9B6"/>
<path d="M29.3193 5.88721C29.3193 5.88721 29.3193 5.87378 29.3328 5.87378C29.3193 5.90066 29.3193 5.90065 29.3193 5.88721Z" fill="#301333"/>
<path d="M16.8858 6.92791C16.8317 4.53577 17.8859 1.50843 20.4132 0.548873C21.7917 0.0217912 24.9677 -0.4242 26.4138 0.697537C26.5219 0.548873 26.657 0.413733 26.8192 0.305614C27.6301 -0.234982 28.6978 0.0758574 29.3465 0.724573C29.806 1.18408 30.0763 1.80576 30.2385 2.46799C31.617 1.68412 33.3875 3.5492 32.7793 5.29262C31.8738 7.87397 28.2789 8.15777 26.157 7.07658C25.8462 9.19842 23.7513 10.9824 21.589 11.0365C21.1159 12.1582 20.2645 13.5908 18.913 13.8475C18.5346 11.7257 16.8858 9.29302 16.8858 6.92791Z" fill="#3F2A28"/>
<path d="M21.6429 11.1039C21.6429 11.1039 21.0077 9.72538 19.913 10.4822C18.8318 11.239 20.7779 13.5231 20.7779 13.5231L21.6429 11.1039Z" fill="#FFC9B6"/>
<path d="M28.9276 38.4042C28.9276 38.4042 27.7654 40.4855 25.4003 41.2423C23.0351 42.0126 21.5215 41.6477 21.5215 41.6477C21.5215 41.6477 24.1569 40.8098 25.184 40.3368C26.2111 39.8773 28.9276 38.4042 28.9276 38.4042Z" fill="#F4EBEA"/>
<path d="M14.0883 43.9047C14.0883 43.9047 16.8858 46.0941 17.6697 47.2023C18.4536 48.3105 18.0481 50.0945 17.913 52.2028C17.7778 54.3247 15.7641 53.7706 14.1288 53.5678C12.507 53.3651 12.1151 52.5812 13.0747 52.2028C14.0342 51.8244 15.2911 52.2028 15.2911 52.2028C15.2911 52.2028 12.7097 50.7702 12.5476 48.1348C12.4124 45.5129 14.0883 43.9047 14.0883 43.9047Z" fill="#FFC9B6"/>
<path d="M0.546248 37.8365C1.53284 35.6066 1.96534 34.9173 3.61416 32.2414C5.24946 29.5519 5.68194 28.6194 7.70917 26.011C8.42546 21.3889 10.6149 18.5913 13.5882 18.4562C15.3857 19.8347 16.7371 29.8357 14.9667 32.8901C13.5476 35.3498 12.8313 36.0256 11.3717 36.8635C10.9933 37.8231 10.1013 38.6069 9.5337 39.4178C10.5608 40.1476 11.7636 41.0126 12.7097 41.7153C14.791 43.2696 16.1154 45.3103 16.1154 45.3103C16.1154 45.3103 15.5073 46.4456 14.5747 47.4186C13.6422 48.3917 12.7908 49.2161 12.7908 49.2161C12.7908 49.2161 6.15495 47.2835 4.19529 45.6887C3.2087 44.8913 2.07344 43.5669 1.61394 42.2019C1.24903 41.1612 0.0326815 38.9988 0.546248 37.8365Z" fill="#E52C2C"/>
<path d="M75.8647 116.061C75.4998 115.75 75.1889 115.466 74.9457 115.25L72.4454 112.993C65.6474 106.857 59.2414 101.059 49.2268 91.2879C43.8208 86.0171 38.6987 78.7056 37.7932 61.1091C37.3066 51.6487 40.2529 43.256 43.3073 41.3504C44.1857 40.7962 44.7669 41.0125 45.1453 41.2152C49.416 43.5803 56.8897 49.4323 56.9708 49.4863C57.4303 49.8512 58.1061 49.7702 58.471 49.2971C58.8359 48.8376 58.7548 48.1619 58.2818 47.797C57.9709 47.5537 50.5918 41.7963 46.186 39.3366C44.9291 38.6339 43.51 38.7014 42.1855 39.5258C38.0364 42.1072 35.1713 51.6352 35.6714 61.2038C36.6174 79.5435 42.0369 87.2335 47.7537 92.8016C57.7953 102.6 64.2283 108.411 71.0399 114.561L73.5266 116.818C73.7834 117.047 74.1077 117.331 74.4726 117.656C77.3648 120.196 84.1358 126.129 83.6493 130.103C83.5141 131.157 82.5681 132.022 81.622 133.022C81.7302 133.765 81.7031 134.252 81.6355 135.049C81.8383 134.995 82.041 134.928 82.2437 134.819C84.352 133.738 85.5413 132.238 85.7711 130.373C86.3793 125.278 79.2704 119.048 75.8647 116.061Z" fill="#593D3D"/>
<path d="M72.3102 70.9617L86.1765 77.5434L69.5667 86.247L72.3102 70.9617Z" fill="#C6AFAF"/>
<path d="M73.0944 70.5426L86.9471 77.1244L70.3508 85.828L73.0944 70.5426Z" fill="#EFDFDF"/>
<path d="M86.9468 77.1244L87.4063 78.1921L70.3505 87.166L69.9181 87.3552L69.5667 86.247L86.9468 77.1244Z" fill="#C6AFAF"/>
<path d="M56.3897 45.3779C56.3897 45.3779 59.2008 48.5404 60.755 50.6217C61.7416 51.9462 64.6068 56.0006 64.6068 56.0006L61.7957 58.0279C61.7957 58.0279 58.9711 53.8923 57.7953 52.3922C56.9438 51.311 53.7678 47.662 53.7678 47.662C53.7678 47.662 54.376 45.3779 56.3897 45.3779Z" fill="#352221"/>
<path d="M61.7689 57.9467C61.9852 58.2711 62.8096 58.1089 63.607 57.5683C64.4043 57.0277 64.8639 56.3384 64.6476 56.0141C64.4314 55.6897 63.607 55.8519 62.8096 56.3925C62.0122 56.9331 61.5527 57.6223 61.7689 57.9467Z" fill="#472F2E"/>
<path d="M62.3499 57.7034C62.4851 57.9062 63.0122 57.8115 63.5257 57.4602C64.0393 57.1223 64.3231 56.6763 64.188 56.4601C64.0528 56.2573 63.5257 56.3519 63.0122 56.7033C62.4986 57.0547 62.2148 57.5007 62.3499 57.7034Z" fill="#EFDFDF"/>
<path d="M76.0407 77.7596L77.8652 76.5027L64.1881 56.4465L62.3501 57.7034L76.0407 77.7596Z" fill="#EFDFDF"/>
<path d="M70.3505 85.8281L70.729 86.9634L69.9181 87.3553L69.5667 86.2471L70.3505 85.8281Z" fill="#B29A9A"/>
<path d="M37.834 30.7141C37.834 30.7141 41.0371 31.552 43.8212 33.5658C46.6053 35.5795 49.9164 38.6338 49.9164 38.6338L46.7674 42.8505C46.7674 42.8505 41.2128 41.2422 38.4152 39.6339C35.6176 38.0257 34.9824 35.8363 34.9824 35.8363L37.834 30.7141Z" fill="#E52C2C"/>
<path d="M49.1189 37.8907C49.1189 37.8907 47.5782 37.6879 46.3754 39.1611C45.3077 40.472 45.551 42.3235 46.5646 42.7155C47.0241 42.9047 49.0243 43.4318 49.4568 43.8778C49.8757 44.3238 51.9841 47.4457 52.4571 46.8781C52.9977 46.2158 52.2138 45.5671 51.93 44.8644C51.7543 44.4319 52.0111 43.648 52.349 43.3507C53.3356 44.0535 55.3763 45.6482 55.3763 45.6482C55.3763 45.6482 59.174 45.0671 56.7819 41.7424C55.8629 40.472 53.4031 40.2558 52.0922 39.8098C50.7677 39.3908 49.1189 37.8907 49.1189 37.8907Z" fill="#FFC9B6"/>
<path d="M54.0247 134.508L56.1465 133.306V133.319C56.4168 133.171 56.7817 133.171 57.1601 133.4C58.0386 133.9 58.7413 135.265 58.7413 136.428C58.7413 136.995 58.5657 137.414 58.2954 137.63H58.2818C58.2413 137.671 58.1873 137.684 58.1332 137.712L56.0384 138.901L54.0247 134.508Z" fill="#281818"/>
<path d="M53.4436 135.819C53.4436 136.982 54.1599 138.347 55.0248 138.847C55.9033 139.347 56.6061 138.82 56.6061 137.644C56.6061 136.482 55.8898 135.117 55.0248 134.617C54.1599 134.116 53.4436 134.644 53.4436 135.819Z" fill="#3F2A28"/>
<path d="M54.0247 136.279C54.0247 136.914 54.4166 137.658 54.8896 137.941C55.3627 138.212 55.7546 137.928 55.7546 137.279C55.7546 136.63 55.3627 135.901 54.8896 135.617C54.4166 135.347 54.0247 135.63 54.0247 136.279Z" fill="#EDEDED"/>
<path d="M65.7559 127.873L67.8777 126.67C68.148 126.521 68.5129 126.521 68.8913 126.751C69.7698 127.251 70.4726 128.616 70.4726 129.778C70.4726 130.346 70.2969 130.765 70.0266 130.981H70.0131C69.9725 131.022 69.9185 131.035 69.8644 131.062L67.7696 132.252L65.7559 127.873Z" fill="#281818"/>
<path d="M65.1748 129.17C65.1748 130.333 65.8911 131.697 66.7561 132.198C67.6345 132.698 68.3373 132.17 68.3373 130.995C68.3373 129.832 67.621 128.467 66.7561 127.967C65.8776 127.467 65.1748 128.008 65.1748 129.17Z" fill="#3F2A28"/>
<path d="M65.7559 129.643C65.7559 130.278 66.1478 131.022 66.6208 131.306C67.0939 131.589 67.4858 131.292 67.4858 130.643C67.4858 130.008 67.0939 129.265 66.6208 128.981C66.1478 128.711 65.7559 128.994 65.7559 129.643Z" fill="#EDEDED"/>
<path d="M34.8068 121.697C34.8068 118.804 33.0498 115.439 30.8739 114.182C30.3198 113.871 29.6711 113.709 29.1575 113.709C28.7521 113.709 27.7114 113.75 26.6437 114.412C25.4139 115.182 25.2517 117.061 25.2517 117.061L29.6576 125.981C29.6576 125.981 31.0767 126.684 32.5363 125.873C33.4418 125.373 33.9959 124.548 34.2392 124.102C34.3473 123.899 34.5094 123.494 34.5635 123.345C34.7122 122.886 34.8068 122.332 34.8068 121.697Z" fill="#281818"/>
<path d="M25.157 118.196C25.157 121.088 26.9139 124.454 29.0898 125.711C31.2657 126.967 33.0226 125.629 33.0226 122.737C33.0226 119.845 31.2657 116.48 29.0898 115.223C26.9139 113.966 25.157 115.291 25.157 118.196Z" fill="#3F2A28"/>
<path d="M25.6165 118.777C25.6165 120.926 26.9274 123.426 28.5357 124.359C30.144 125.291 31.4549 124.305 31.4549 122.156C31.4549 120.007 30.144 117.507 28.5357 116.574C26.9274 115.642 25.6165 116.628 25.6165 118.777Z" fill="#FFC373"/>
<path d="M29.3329 113.871C28.7382 113.533 28.1841 113.358 27.657 113.317V108.155L43.5911 110.412C45.1318 110.344 46.6454 110.547 47.9023 111.02L71.6886 114.385V126.048C71.8237 127.359 70.9317 128.765 69.0532 129.846L61.3362 134.306C58.1331 136.157 53.2407 136.36 50.4702 134.752L33.0629 124.805C33.2657 124.21 33.3738 123.521 33.3738 122.724C33.3873 119.183 31.9953 115.399 29.3329 113.871Z" fill="#EDEDED"/>
<path d="M28.306 113.831C27.6843 113.479 27.0897 113.29 26.5491 113.25V107.817L43.294 110.182C44.9158 110.114 46.5106 110.33 47.8215 110.817L72.8241 114.358V121.223V124.197C72.9593 125.575 72.0267 127.048 70.0536 128.184L61.9446 132.873C58.5794 134.819 53.4437 135.022 50.5245 133.346L33.8201 123.697C33.8201 123.697 33.4822 123.521 33.3471 123.44C33.3471 123.345 33.3471 123.088 33.3471 122.98C33.1579 119.399 30.9684 115.372 28.306 113.831Z" fill="#EDEDED"/>
<path d="M26.5491 107.492V105.668C26.5491 105.668 26.8599 105.681 27.2518 105.708C27.7248 105.073 28.4006 104.465 29.3196 103.924L37.4285 99.2346C40.7938 97.2885 45.9294 97.0722 48.8487 98.7616L70.8644 111.479C71.4861 111.844 71.9456 112.263 72.27 112.709L72.8106 112.587L72.7971 114.101C72.9187 115.466 71.9862 116.939 70.0265 118.074L61.9176 122.764C58.5523 124.71 53.4167 124.926 50.4975 123.237L28.4817 110.52C27.1167 109.709 26.4815 108.614 26.5491 107.492Z" fill="#352221"/>
<path d="M50.5245 121.386L28.5087 108.668C25.5895 106.992 25.9679 104.019 29.3332 102.073L37.4421 97.3832C40.8073 95.437 45.943 95.2208 48.8622 96.9102L70.878 109.628C73.7972 111.304 73.4188 114.277 70.0536 116.223L61.9446 120.913C58.5794 122.859 53.4437 123.075 50.5245 121.386Z" fill="#FFC373"/>
<path d="M62.0257 107.492L46.8349 98.7212C44.8212 97.5589 41.2803 97.7075 38.9557 99.0455L33.3605 102.276C32.2928 102.884 31.6847 103.654 31.509 104.411C31.2387 103.384 31.8604 102.235 33.3605 101.37L38.9557 98.14C41.2803 96.802 44.8212 96.6534 46.8349 97.8157L62.0257 106.587C63.1204 107.222 63.5123 108.101 63.3096 109.006C63.1609 108.438 62.742 107.911 62.0257 107.492Z" fill="#EDEDED"/>
<path d="M61.4715 111.141L55.8763 114.371C53.5517 115.709 50.0109 115.858 47.9971 114.696L32.8064 105.925C32.0901 105.506 31.6711 104.979 31.5225 104.411C31.6982 103.654 32.3063 102.897 33.374 102.276L38.9692 99.0455C41.2938 97.7075 44.8346 97.5589 46.8484 98.7212L62.0391 107.492C62.7554 107.911 63.1744 108.438 63.323 109.006C63.1338 109.763 62.5257 110.52 61.4715 111.141Z" fill="#EDEDED"/>
<path d="M54.8625 118.642L38.8473 109.398C36.7254 108.168 36.9957 106.019 39.4419 104.6L45.3345 101.194C47.7807 99.7753 51.5107 99.6266 53.6326 100.856L69.6478 110.101C71.7696 111.331 71.4993 113.479 69.0531 114.898L63.1606 118.304C60.7144 119.723 56.9843 119.872 54.8625 118.642Z" fill="#EFDFDF"/>
<path d="M55.1466 116.71L40.9154 108.492C39.0368 107.411 39.2666 105.492 41.4425 104.235L46.6863 101.208C48.8622 99.951 52.1868 99.8158 54.0654 100.897L68.2966 109.114C70.1752 110.195 69.9454 112.114 67.7695 113.371L62.5257 116.399C60.3498 117.669 57.0252 117.804 55.1466 116.71Z" fill="#15ABEB"/>
<path d="M67.3372 109.857C67.3372 109.857 64.2287 110.155 61.8231 111.776C59.4174 113.385 56.5253 116.088 56.5253 116.088L55.6738 115.601C55.6738 115.601 58.7958 112.344 61.2014 111.02C63.6071 109.695 66.5128 109.344 66.5128 109.344L67.3372 109.857Z" fill="#EFDFDF"/>
<path d="M63.9312 107.911C63.9312 107.911 60.8227 108.209 58.4171 109.83C56.0114 111.452 53.1193 114.142 53.1193 114.142L52.2678 113.655C52.2678 113.655 55.3898 110.398 57.7954 109.074C60.2011 107.749 63.1068 107.398 63.1068 107.398L63.9312 107.911Z" fill="#EFDFDF"/>
<path d="M60.5254 105.898C60.5254 105.898 57.417 106.195 55.0114 107.817C52.6057 109.438 49.7135 112.128 49.7135 112.128L48.8621 111.641C48.8621 111.641 51.984 108.384 54.3897 107.046C56.7953 105.722 59.701 105.37 59.701 105.37L60.5254 105.898Z" fill="#EFDFDF"/>
<path d="M57.1197 103.951C57.1197 103.951 54.0112 104.249 51.6056 105.871C49.1999 107.492 46.3077 110.182 46.3077 110.182L45.4563 109.695C45.4563 109.695 48.5782 106.438 50.9839 105.114C53.3895 103.789 56.2952 103.438 56.2952 103.438L57.1197 103.951Z" fill="#EFDFDF"/>
<path d="M53.7276 102.005C53.7276 102.005 50.6192 102.303 48.2135 103.924C45.8079 105.546 42.9157 108.236 42.9157 108.236L42.0642 107.749C42.0642 107.749 45.1861 104.492 47.5918 103.154C49.9975 101.83 52.9032 101.478 52.9032 101.478L53.7276 102.005Z" fill="#EFDFDF"/>
<path d="M41.483 121.913L34.7256 118.007V116.128L41.483 120.034V121.913Z" fill="#352221"/>
<path d="M41.483 123.859L34.7256 119.953V119.021L41.483 122.913V123.859Z" fill="#352221"/>
<path d="M39.5097 100.329C39.1178 100.329 38.8069 100.492 38.8069 100.694C38.8069 100.897 39.1178 101.059 39.5097 101.059C39.9016 101.059 40.2124 100.897 40.2124 100.694C40.2124 100.492 39.8881 100.329 39.5097 100.329Z" fill="#3F2A28"/>
<path d="M41.5504 99.1266C41.1585 99.1266 40.8477 99.2888 40.8477 99.4915C40.8477 99.6942 41.1585 99.8564 41.5504 99.8564C41.9288 99.8564 42.2532 99.6942 42.2532 99.4915C42.2532 99.2888 41.9288 99.1266 41.5504 99.1266Z" fill="#3F2A28"/>
<path d="M33.4684 103.681C33.0765 103.681 32.7656 103.843 32.7656 104.046C32.7656 104.249 33.0765 104.411 33.4684 104.411C33.8604 104.411 34.1712 104.249 34.1712 104.046C34.1712 103.843 33.8604 103.681 33.4684 103.681Z" fill="#3F2A28"/>
<path d="M35.5228 102.492C35.1309 102.492 34.8201 102.654 34.8201 102.857C34.8201 103.059 35.1309 103.222 35.5228 103.222C35.9148 103.222 36.2256 103.059 36.2256 102.857C36.2256 102.654 35.9148 102.492 35.5228 102.492Z" fill="#3F2A28"/>
<path d="M37.5771 101.289C37.1851 101.289 36.8743 101.451 36.8743 101.654C36.8743 101.857 37.1851 102.019 37.5771 102.019C37.969 102.019 38.2798 101.857 38.2798 101.654C38.2663 101.465 37.9555 101.289 37.5771 101.289Z" fill="#3F2A28"/>
<path d="M43.6047 97.9508C43.2127 97.9508 42.9019 98.113 42.9019 98.3157C42.9019 98.5184 43.2127 98.6806 43.6047 98.6806C43.9966 98.6806 44.3074 98.5184 44.3074 98.3157C44.3074 98.113 43.9966 97.9508 43.6047 97.9508Z" fill="#3F2A28"/>
<path d="M46.4969 99.3158L41.3883 102.262L40.3071 101.64L45.4158 98.6941L46.4969 99.3158Z" fill="#3F2A28"/>
<path d="M40.4153 102.884L35.3067 105.83L34.239 105.208L39.3476 102.262L40.4153 102.884Z" fill="#3F2A28"/>
<path d="M65.7828 122.183C65.4584 121.926 64.9989 121.899 64.4853 122.197C63.4852 122.778 62.6743 124.318 62.6743 125.656C62.6743 126.373 62.9176 126.873 63.296 127.102V127.116L64.7151 127.981L67.0802 122.953L65.7828 122.183Z" fill="#3F2A28"/>
<path d="M67.675 124.413C67.675 125.751 66.8641 127.292 65.864 127.873C64.8639 128.454 64.053 127.832 64.053 126.508C64.053 125.17 64.8639 123.629 65.864 123.048C66.8641 122.467 67.675 123.088 67.675 124.413Z" fill="#493130"/>
<path d="M77.3647 137.509C77.3242 137.509 77.2971 137.509 77.2566 137.509C75.6618 137.482 74.1887 136.671 72.8913 135.13C72.148 134.252 71.5128 133.306 70.837 132.306C69.472 130.292 68.0665 128.211 65.5932 126.292C65.1202 125.927 65.0391 125.264 65.404 124.791C65.7554 124.318 66.4312 124.237 66.9042 124.602C69.6612 126.724 71.229 129.049 72.621 131.103C73.2697 132.062 73.8779 132.954 74.5401 133.752C75.4456 134.819 76.3511 135.347 77.3107 135.374C77.3242 135.374 77.3512 135.374 77.3647 135.374C79.2973 135.374 81.3921 133.373 82.9869 131.616C83.3924 131.184 84.0546 131.157 84.5006 131.549C84.933 131.954 84.9601 132.63 84.5682 133.063C82.5544 135.265 80.1217 137.509 77.3647 137.509Z" fill="#593D3D"/>
<path d="M166.658 138.306C166.509 138.469 151.143 155.038 134.695 160.957C130.492 162.471 126.154 162.849 121.802 162.755C119.964 159.457 116.856 156.727 113.234 155.605C106.49 153.497 99.5971 153.862 92.2991 154.24C87.4878 154.484 82.5278 154.741 77.0272 154.389C55.6061 153.011 36.3743 142.51 29.2655 136.225C22.3594 130.103 21.3593 123.183 22.7243 118.75C24.0082 114.574 25.657 112.223 26.5761 111.141V110.344C25.7652 111.182 23.7514 113.615 22.2107 118.602C20.7917 123.197 21.8053 130.346 28.9006 136.644C36.05 142.983 55.4304 153.565 76.9866 154.943C82.5142 155.295 87.5013 155.038 92.3261 154.795C99.8809 154.403 106.409 154.065 113.071 156.133C116.464 157.187 119.383 159.7 121.18 162.755C118.315 162.674 115.437 162.403 112.612 162.133C104.327 161.349 96.4887 160.606 91.4476 165.444C89.0149 167.782 88.4068 170.675 89.7718 173.391C91.7855 177.378 97.8672 180.716 106.328 180.716C108.22 180.716 110.22 180.554 112.328 180.189C119.126 179.027 123.221 175.31 123.573 170.012C123.721 167.755 123.167 165.431 122.086 163.309C126.37 163.363 130.749 162.971 134.885 161.484C151.454 155.524 166.915 138.86 167.064 138.685L166.658 138.306ZM123.032 169.958C122.694 174.999 118.761 178.527 112.234 179.648C100.935 181.581 92.6099 177.837 90.2448 173.134C88.9744 170.607 89.5285 167.999 91.8125 165.809C94.8669 162.876 98.9078 162.066 103.611 162.066C106.382 162.066 109.395 162.349 112.558 162.647C115.41 162.917 118.423 163.201 121.478 163.268C122.586 165.377 123.181 167.701 123.032 169.958Z" fill="#593D3D"/>
</svg>
