<svg width="185" height="157" viewBox="0 0 185 157" fill="none" xmlns="http://www.w3.org/2000/svg">
<path d="M77.4193 156.437L0.873413 112.254L108.458 50.1354L184.99 94.3322L77.4193 156.437Z" fill="#F9B233"/>
<path opacity="0.4" d="M8.66715 107.763L85.1994 151.946L80.6268 154.594L4.0946 110.398L8.66715 107.763Z" fill="#F9B233"/>
<path opacity="0.4" d="M100.678 54.6397L177.21 98.8228L181.783 96.1885L105.25 51.9917L100.678 54.6397Z" fill="#F9B233"/>
<path d="M12.6938 105.429L89.2396 149.612L86.9465 150.936L10.4143 106.753L12.6938 105.429Z" fill="white"/>
<path d="M96.6377 56.9601L173.17 101.157L175.463 99.8329L98.9308 55.6498L96.6377 56.9601Z" fill="white"/>
<path opacity="0.4" d="M17.0343 102.931L93.5665 147.115L91.2871 148.439L14.7412 104.242L17.0343 102.931Z" fill="#F9B233"/>
<path opacity="0.4" d="M92.3108 59.4716L168.843 103.655L171.122 102.331L94.5902 58.1476L92.3108 59.4716Z" fill="#F9B233"/>
<path d="M51.4443 88.3401V118.301L54.6792 120.171V86.4838L51.4443 88.3401Z" fill="white"/>
<path d="M67.0457 79.3315H118.941L122.176 81.2015H63.8108L67.0457 79.3315Z" fill="white"/>
<path opacity="0.4" d="M40.4293 94.7007V111.94L48.1685 116.417V90.2373L40.4293 94.7007Z" fill="#F9B233"/>
<path opacity="0.4" d="M78.0607 72.9708H107.926L115.665 77.4478H70.3215L78.0607 72.9708Z" fill="#F9B233"/>
<path d="M122.203 125.385H63.7017L66.9366 127.241H118.968L122.203 125.385Z" fill="white"/>
<path d="M131.198 120.184V86.4154L134.433 88.2717V118.314L131.198 120.184Z" fill="white"/>
<path opacity="0.4" d="M115.692 129.138H70.2123L77.9515 133.602H107.953L115.692 129.138Z" fill="#F9B233"/>
<path opacity="0.4" d="M137.695 116.431V90.1691L145.448 94.6324V111.967L137.695 116.431Z" fill="#F9B233"/>
<path opacity="0.4" d="M59.1836 83.7949V122.778H126.707V83.7949H59.1836ZM116.934 117.154H68.9293V89.4321H116.934V117.154Z" fill="#F9B233"/>
<path d="M73.9797 92.353V114.233C73.9797 114.233 111.884 114.233 111.898 114.233V92.353H73.9797ZM106.411 111.066H79.4668V95.506H106.411V111.066Z" fill="#F9B233"/>
<path opacity="0.2" d="M143.1 77.4889C146.745 78.4307 144.984 84.8323 143.714 86.8661C141.571 90.3194 138.569 92.5579 134.87 94.2231C128.331 97.1577 121.698 101.198 114.86 103.286C107.653 105.498 99.4903 102.385 92.3926 104.61C88.2022 105.921 84.1347 107.954 79.9853 109.674C77.6512 110.643 71.741 114.752 70.3761 110.398C69.366 107.231 74.4436 102.577 76.1225 100.393C78.4839 97.2942 79.9989 93.6089 81.787 90.2102C86.0047 82.157 93.389 77.3661 101.92 74.527C109.618 71.9746 115.665 67.9889 123.977 68.8216C127.417 69.1628 130.979 69.2856 134.201 70.5823C137.49 71.92 139.169 73.5715 141.708 75.9602C142.336 76.5608 142.308 77.2705 143.1 77.4889Z" fill="#634E42"/>
<path d="M132.222 72.6024L133.655 70.9372L136.74 66.1599C138.732 64.6038 141.339 65.2727 142.8 67.6613L144.793 72.0837C144.793 72.0837 146.322 76.5198 146.526 78.7173C146.731 80.9285 147.004 84.259 145.339 84.9961C142.923 86.1153 140.275 85.0097 140.084 83.4127L138.405 79.0722L134.542 81.9795L132.222 72.6024Z" fill="black"/>
<path d="M88.3798 105.921C88.0249 107.586 83.6298 108.65 83.6298 108.65C83.6298 108.65 77.4603 114.451 72.2325 114.056C69.1478 113.824 68.0968 113.005 67.619 112.09C67.1413 111.189 67.5917 110.029 68.1923 109.183C68.8065 108.337 75.1945 105.62 76.8051 103.068C77.5831 101.826 78.8798 99.2051 78.8798 99.2051L79.4121 94.3322L86.4552 93.4996L87.4789 99.7374C88.5299 101.02 88.5709 104.992 88.3798 105.921Z" fill="black"/>
<path d="M75.1262 75.6599C76.6822 84.0134 77.5967 92.3532 77.5694 100.679C80.1765 102.454 83.2339 103.218 85.4178 102.795C86.8237 102.522 87.8747 101.758 88.1887 100.461C89.267 92.8445 88.4207 84.1362 87.7382 76.7792C87.9157 76.7519 88.0795 76.7109 88.2433 76.6563C90.1132 76.1923 91.9422 75.3323 93.8532 74.2131C94.0306 74.1175 94.1944 74.0083 94.3718 73.9128C95.1089 73.476 95.846 73.0119 96.6103 72.5206C96.9379 72.3022 97.2792 72.0838 97.6204 71.8654C98.3984 71.3604 99.2037 70.8417 100.036 70.3094C100.391 70.0773 100.76 69.8453 101.128 69.6132C101.565 69.3403 102.002 69.0673 102.452 68.7943C102.766 68.6032 103.094 68.4121 103.421 68.221C104.199 67.7569 105.005 67.2928 105.851 66.8424C105.428 70.364 105.319 73.8719 105.401 77.3661C105.401 77.5299 105.401 77.6937 105.414 77.8575C105.414 78.2124 105.428 78.5673 105.455 78.9085C105.469 79.4408 105.496 79.9731 105.537 80.4918C105.592 81.4882 105.66 82.471 105.755 83.4537C105.796 83.9588 105.837 84.4638 105.892 84.9688C106.042 86.4703 106.22 87.9717 106.411 89.4731C106.547 90.4695 106.67 91.4659 106.82 92.4624C106.943 93.2813 107.066 94.1003 107.189 94.9192C107.271 95.4652 107.352 95.9975 107.434 96.5299C107.53 97.1577 107.639 97.772 107.735 98.3998C107.898 99.3826 108.049 100.365 108.212 101.334C109.168 103.314 110.505 104.501 112.416 104.542C119.61 105.757 128.031 91.9164 137.49 81.3108C138.651 77.3115 137.654 71.6607 133.013 71.5515C131.485 72.0428 129.478 73.3668 127.472 75.0867C125.179 77.0522 122.858 79.5364 121.179 81.966L124.169 68.2346C124.564 66.6786 124.837 65.2454 125.001 63.9214C125.165 62.6384 125.22 61.4645 125.151 60.3726C124.974 57.1104 123.841 54.6262 121.725 52.5242L112.157 52.3331L99.3675 52.0874C98.3575 52.5105 97.3338 52.9883 96.3237 53.5206C89.8676 56.8647 83.6161 62.1061 77.4466 68.1528C75.1125 71.0874 74.3482 73.5989 75.1262 75.6599Z" fill="#15ABEB"/>
<path opacity="0.3" d="M85.4179 102.795C86.8238 102.522 87.8748 101.757 88.1887 100.461C89.267 92.8444 88.4208 84.1361 87.7383 76.7791C87.9157 76.7518 88.0795 76.7108 88.2433 76.6562C90.1133 76.1922 91.9423 75.3322 93.8532 74.213C94.0307 74.1174 94.1945 74.0082 94.3719 73.9127C95.109 73.4759 95.846 73.0118 96.6104 72.5205C96.938 72.3021 97.2792 72.0837 97.6205 71.8653C98.3985 71.3603 99.2038 70.8416 100.036 70.3093C100.391 70.0772 100.76 69.8452 101.128 69.6131C101.565 69.3402 102.002 69.0672 102.452 68.7942C102.766 68.6031 103.094 68.412 103.421 68.2209C104.199 67.7568 105.005 67.2927 105.851 66.8423C105.428 70.3639 105.319 73.8717 105.401 77.366C105.414 77.5434 105.414 77.6936 105.414 77.8574C105.414 78.2123 105.428 78.5672 105.455 78.9084C105.469 79.4407 105.496 79.973 105.537 80.4917C105.592 81.4881 105.66 82.4709 105.756 83.4536C105.796 83.9587 105.837 84.4637 105.892 84.9687C106.042 86.4701 106.22 87.9716 106.411 89.473C106.547 90.4694 106.67 91.4658 106.82 92.4622C106.943 93.2812 107.066 94.1002 107.189 94.9191C107.271 95.4651 107.353 95.9974 107.434 96.5298C107.53 97.1576 107.639 97.7719 107.735 98.3997C107.898 99.3825 108.049 100.365 108.212 101.334C109.168 103.314 110.506 104.501 112.416 104.542C119.61 105.757 128.031 91.9163 137.49 81.3107L118.095 99.6555C115.269 101.621 112.908 101.826 111.188 99.6555C110.888 98.2769 110.574 96.8847 110.273 95.4651C109.482 91.7525 109.263 87.9306 109.591 84.1498L110.642 72.2884C115.87 69.463 120.592 65.1907 125.124 60.3588C124.947 57.0966 123.814 54.6124 121.698 52.5104L112.13 52.3193L96.2965 53.4932L96.3101 53.5614C97.757 58.2432 96.8015 63.3617 93.6349 67.1153C91.1234 70.1045 87.9976 73.0528 83.8209 75.6325C86.5235 82.5664 86.5508 92.0937 85.4179 102.795Z" fill="#3F668A"/>
<path d="M90.4546 40.1305L92.4337 22.1815C94.6586 9.99261 108.649 11.9035 104.827 24.5975L99.9545 43.2016C98.0163 46.3683 96.2283 48.9753 94.3856 51.2821L87.0968 46.1089L90.4546 40.1305Z" fill="#EDEDED"/>
<path d="M94.3582 27.4911C94.3582 27.9824 94.5902 32.5004 94.6175 33.06C94.7403 40.185 95.8459 47.7741 96.4192 51.3229C96.6376 52.6196 96.7741 53.3703 96.7741 53.3703C98.7123 57.8064 110.396 61.055 114.436 61.246C122.176 61.6146 123.527 56.1139 123.527 56.1139L124.087 37.3732L124.1 37.0866L124.182 35.1757L124.742 22.6319C122.121 19.4652 119.364 17.8 116.743 16.4214C110.464 12.2447 104.718 10.4566 97.0744 12.6405C97.0744 12.6405 95.532 17.2131 94.481 22.9322C94.3581 23.5873 94.3718 26.3445 94.3582 27.4911Z" fill="#15ABEB"/>
<path d="M112.826 36.0766C112.73 43.1743 117.781 44.157 117.781 44.157L123.199 41.7957L123.418 36.8136L123.432 36.5134L124.25 22.0177C123.486 21.0895 122.858 20.3661 122.012 19.8611C115.624 21.1305 112.908 29.5249 112.826 36.0766Z" fill="#EDEDED"/>
<path d="M98.0164 25.3481C100.391 28.2827 104.268 29.8524 109.564 31.4494C111.215 24.4199 113.904 18.3869 119.46 18.0047C118.409 17.2949 117.412 16.5033 116.388 15.9709C112.894 13.6505 109.714 12.2856 106.411 11.7396C101.238 14.6333 98.1256 18.9875 98.0164 25.3481Z" fill="#EDEDED"/>
<path d="M108.868 12.0535C109.045 12.0535 111.789 14.1145 111.789 14.1145C115.802 16.394 111.202 27.3135 105.332 24.57L99.859 20.7618L108.868 12.0535Z" fill="#FFAD73"/>
<path opacity="0.3" d="M98.4805 20.8847C98.4805 24.9249 98.4259 29.5793 103.012 29.7704C108.677 28.2007 109.182 18.6052 108.567 15.4795L98.4805 20.8847Z" fill="#15ABEB"/>
<path d="M102.084 0.806396C106.998 0.860994 109.809 3.16774 110.001 8.29992C109.864 13.6914 109.591 16.94 106.984 20.6253C105.36 22.6591 103.162 24.1332 100.651 23.9967C97.6615 23.8466 93.2391 16.6807 92.816 11.4939C92.0789 6.25251 96.5422 2.23958 102.084 0.806396Z" fill="#FFAD73"/>
<path d="M93.4165 15.2749C94.5221 17.8956 101.046 17.4178 103.913 14.2102L104.227 16.1348L106.861 13.9509L109.154 16.9265L109.987 15.7526C112.075 11.5622 111.966 4.6693 106.029 1.216C98.0709 -1.97797 88.2297 7.27633 93.4165 15.2749Z" fill="#807070"/>
<path d="M107.598 16.203C107.912 15.6707 108.185 15.0974 108.253 14.4832C108.322 13.869 108.144 13.2274 107.68 12.818C107.216 12.4085 106.452 12.3402 105.96 12.7361C105.619 13.0091 105.469 13.4595 105.469 13.8826C105.469 14.3058 105.578 14.7152 105.701 15.1247C105.81 15.4932 105.919 15.8618 106.029 16.2303C106.097 16.4897 106.192 16.7626 106.438 16.8855C106.656 16.9947 106.943 16.9264 107.148 16.7899C107.339 16.6262 107.475 16.4214 107.598 16.203Z" fill="#FFAD73"/>
<path opacity="0.3" d="M96.2281 49.4531L96.4192 51.3231C96.6376 52.6198 96.7741 53.3705 96.7741 53.3705C98.7123 57.8065 110.396 61.0551 114.436 61.2462C122.176 61.6147 123.527 56.114 123.527 56.114L124.087 37.3734L124.1 37.0867L124.182 35.1758L123.5 32.0092H114.996L112.853 47.2828C109.345 54.2304 102.152 52.415 96.2281 49.4531Z" fill="#3F668A"/>
<path d="M87.2196 56.892C87.9157 58.1341 88.257 59.7448 88.4617 60.8094L88.1751 62.9387L87.2469 65.2728C86.7555 66.5149 85.7728 66.0371 86.0867 64.7541L86.7009 62.7476L86.1823 61.4919L84.1075 64.4811L82.2922 68.5077C81.6097 69.4222 81.2685 69.1219 81.0774 68.3029L80.4222 69.4358C79.8626 70.3913 78.8798 69.7225 79.0846 68.9854L78.8252 69.2857C78.2929 70.2139 77.2965 69.6406 77.6514 68.5623L77.938 67.8252C77.2146 68.494 77.1054 67.5795 77.6514 66.3238L79.2757 61.915C79.5896 60.9186 81.7871 57.1514 83.234 56.3324L85.0357 54.8583L88.0113 55.6363L87.2196 56.892Z" fill="#FFAD73"/>
<path d="M87.0968 46.1088C90.0723 45.8631 92.3927 47.9651 94.3855 51.2819C92.9251 53.2747 90.6047 55.7316 87.8884 58.5025C85.4588 56.9055 84.6262 55.6088 82.1011 57.3423L87.0968 46.1088Z" fill="#EDEDED"/>
<path d="M110.096 77.5164C110.437 77.3389 110.792 77.1615 111.133 76.9567C111.707 76.6292 112.171 75.9467 112.253 75.3461L112.949 70.2139C113.003 69.8454 112.894 69.5861 112.689 69.4496C112.717 69.4632 110.656 67.8799 110.656 67.8799C110.519 67.7707 110.328 67.7297 110.096 67.7843C107.721 68.3167 105.087 69.7771 102.466 71.5379C101.156 72.4115 99.8591 73.3533 98.6033 74.2814C98.344 74.4725 98.1529 74.7865 98.1119 75.0595L97.7707 77.5573C97.7434 77.7347 97.798 77.8712 97.8935 77.9395L99.9546 79.5228C100.009 79.5638 100.077 79.5911 100.159 79.5774C103.271 79.4819 106.697 79.1952 110.096 77.5164ZM112.649 69.4086C112.621 69.395 112.594 69.3813 112.567 69.3677C112.594 69.3813 112.621 69.395 112.649 69.4086ZM112.335 69.3404C112.28 69.3404 112.212 69.354 112.157 69.3677C112.225 69.354 112.28 69.354 112.335 69.3404ZM112.498 69.3677C112.471 69.354 112.43 69.354 112.389 69.354C112.43 69.354 112.471 69.354 112.498 69.3677Z" fill="#DB981F"/>
<path d="M97.8938 77.954C97.7983 77.8858 97.7573 77.7493 97.771 77.5718L98.1122 75.074C98.1532 74.801 98.3443 74.4871 98.6036 74.296C99.8594 73.3678 101.156 72.426 102.466 71.5524C105.087 69.7917 107.721 68.3312 110.096 67.7989C110.328 67.7443 110.52 67.7852 110.656 67.8944L112.717 69.4777C112.581 69.3685 112.389 69.3412 112.157 69.3822C109.782 69.9145 107.148 71.375 104.527 73.1358C103.217 74.0093 101.92 74.9512 100.665 75.8793C100.405 76.0704 100.214 76.3843 100.173 76.6573L99.832 79.1552C99.8047 79.3326 99.8593 79.4691 99.9549 79.5374L97.8938 77.954Z" fill="#9D9D9C"/>
<path d="M99.8454 79.1543C99.8044 79.4273 99.9409 79.6047 100.173 79.6047C103.271 79.4955 106.697 79.2089 110.11 77.53C110.451 77.3526 110.806 77.1751 111.147 76.9704C111.72 76.6428 112.184 75.9604 112.266 75.3598L112.962 70.2276C113.044 69.627 112.717 69.2721 112.171 69.3813C109.796 69.9137 107.161 71.3741 104.541 73.1349C103.23 74.0085 101.934 74.9503 100.678 75.8785C100.419 76.0695 100.228 76.3835 100.187 76.6565L99.8454 79.1543Z" fill="white"/>
<path d="M97.0608 82.0889L96.9243 83.0716C96.897 83.2354 96.7742 83.3719 96.5558 83.4675C96.1054 83.6586 95.4229 83.563 95.0407 83.2627C94.8496 83.1126 94.7677 82.9351 94.7814 82.785L94.9178 81.8022L97.0608 82.0889Z" fill="white"/>
<path d="M95.2871 81.4064C94.8367 81.5975 94.7821 81.9797 95.1643 82.28C95.5464 82.5803 96.2289 82.6758 96.6793 82.4847C97.1298 82.2936 97.1844 81.9115 96.8022 81.6112C96.42 81.3109 95.7375 81.2153 95.2871 81.4064Z" fill="#DADADA"/>
<path d="M101.333 80.6285L100.241 79.7822C99.163 78.9359 97.8799 78.4855 96.3239 79.0724L96.1191 80.6285L97.2111 81.4747L97.4158 79.9187C98.9719 79.3318 100.241 79.7822 101.333 80.6285Z" fill="#DADADA"/>
<path d="M97.4022 79.9186C99.2313 79.2225 100.664 79.9732 101.866 81.0924C101.988 81.2153 101.893 81.5156 101.675 81.693C101.62 81.734 101.579 81.7613 101.538 81.7749C101.47 81.8022 101.402 81.8159 101.347 81.7886C100.037 81.2016 99.1494 80.6284 97.7298 81.2016C97.566 81.2699 97.3886 81.3518 97.1975 81.461L97.4022 79.9186Z" fill="white"/>
<path d="M98.3166 74.9366L95.9689 75.9058C95.6686 76.0286 95.3956 76.4108 95.3547 76.7247L95.2045 77.844L95.109 78.5401L94.7268 81.3928L96.0917 82.4575L96.474 79.6047L96.5695 78.9086L96.7196 77.7894C96.7606 77.4754 97.0336 77.0932 97.3338 76.9704L99.6815 76.0013L98.3166 74.9366Z" fill="#DADADA"/>
<path d="M99.6816 76.0012L99.2858 79.0177L98.6988 79.2634C98.2894 79.4272 97.8935 79.8776 97.7434 80.3417L97.2384 81.9797L96.0918 82.4437L96.474 79.591L96.5695 78.8949L96.7197 77.7756C96.7606 77.4617 97.0336 77.0795 97.3339 76.9567L99.6816 76.0012Z" fill="white"/>
<path d="M101.456 78.0076C101.456 78.0076 101.552 75.3733 101.497 74.1585C101.483 73.9674 100.787 72.7799 100.787 72.7799L98.8899 74.0766C98.9445 73.4078 98.9991 72.5752 99.0537 71.8654C99.1219 70.8417 99.5587 69.8862 100.282 69.1628C101.524 67.9344 103.34 66.1053 103.462 65.9689C103.654 65.7505 104.964 65.1635 104.964 65.1635L107.202 62.8431L110.519 63.2253L111.038 65.1635L108.99 69.3403L108.881 72.3704L108.69 74.6635C108.035 78.7174 106.192 80.0414 105.919 78.9085C105.633 80.1233 104.131 80.3963 104.227 79.2224L104.159 79.3726C103.804 80.1096 103.149 80.2461 102.712 79.9185L101.934 81.8295C101.415 82.7986 100.323 82.703 100.487 81.6384L101.456 78.0076Z" fill="#FCAF75"/>
<path d="M127.485 31.859L126.68 50.8316C121.753 59.1714 116.525 64.5902 108.949 69.3402C107.994 67.0608 105.619 66.3101 102.903 66.1599L116.757 47.0644L114.832 30.5759C118.832 17.6499 125.643 16.9675 127.485 31.859Z" fill="#EDEDED"/>
<path opacity="0.4" d="M100.773 107.886C102.22 107.149 104.513 106.18 105.892 107.436C107.694 109.087 105.837 110.411 109.004 110.998C111.652 111.49 117.985 111.38 117.467 115.462C116.907 119.829 110.874 118.301 108.321 120.28C105.155 122.75 106.315 126.559 100.992 126.122C99.2446 125.972 97.5794 125.207 95.8322 126.053C94.3035 126.791 93.1979 128.633 91.833 129.63C89.5535 131.295 84.0528 133.806 83.4386 129.234C83.1383 127.036 85.2403 126.599 82.9881 125.166C81.6095 124.293 79.4666 125.112 78.2518 123.951C75.0715 120.908 82.4422 119.051 83.6024 117.441C84.7899 115.789 84.0937 114.233 85.9364 112.827C87.7108 111.476 89.5808 111.749 91.6555 111.435C93.9213 111.094 94.0578 109.661 95.8186 108.719C97.4292 107.859 99.1627 108.691 100.773 107.886Z" fill="#EA4A49"/>
<path opacity="0.4" d="M76.7642 128.783C79.3439 130.626 74.0752 132.892 72.6966 131.513C70.4172 129.234 75.3856 127.801 76.7642 128.783Z" fill="#EA4A49"/>
<path opacity="0.4" d="M96.1054 131.663C97.2383 132.851 95.0817 133.52 94.3856 132.714C93.4028 131.581 95.6004 131.131 96.1054 131.663Z" fill="#EA4A49"/>
<path opacity="0.4" d="M83.2066 134.557C84.1621 135.512 84.981 137.997 83.9164 139.061C82.9746 140.003 80.9408 139.171 79.6987 139.716C77.9789 140.454 73.4063 145.299 73.0242 140.781C72.9969 140.454 73.6384 139.362 73.6657 138.775C73.693 138.024 72.9969 137.437 73.2153 136.55C73.5565 135.144 74.9214 134.625 76.3273 134.38C78.7706 133.956 81.4732 135.117 83.2066 134.557Z" fill="#EA4A49"/>
<path d="M95.928 84.6821L107.448 117.659C108.786 128.592 80.4359 130.189 78.7297 121.576L95.928 84.6821Z" fill="white" fill-opacity="0.24"/>
</svg>
