<svg width="217" height="186" viewBox="0 0 217 186" fill="none" xmlns="http://www.w3.org/2000/svg">
<path fill-rule="evenodd" clip-rule="evenodd" d="M6.37218 160.073C4.98907 160.073 3.87765 159.925 3.0379 159.654C2.19816 159.383 1.556 158.988 1.11143 158.495C0.666856 158.001 0.370476 157.409 0.222285 156.743C0.0740952 156.077 0 155.312 0 154.474V119.913C0 119.124 0.0740952 118.384 0.222285 117.668C0.370476 116.978 0.666856 116.386 1.11143 115.868C1.556 115.374 2.19816 114.98 3.0379 114.708C3.87765 114.437 4.98907 114.289 6.37218 114.289H23.3153C24.0315 114.289 24.5996 114.511 25.0442 114.98C25.4887 115.448 25.711 116.016 25.711 116.682C25.711 117.397 25.4887 117.94 25.0442 118.31C24.5996 118.68 24.0315 118.877 23.3153 118.877H4.79149V132.963H18.1286C18.7955 132.963 19.3635 133.21 19.8328 133.678C20.3021 134.172 20.5244 134.714 20.5244 135.356C20.5244 135.997 20.3021 136.54 19.8328 137.033C19.3635 137.526 18.7955 137.749 18.1286 137.749H4.79149V155.485H23.2906C24.0068 155.485 24.5749 155.682 25.0195 156.052C25.464 156.423 25.6863 156.965 25.6863 157.681C25.6863 158.347 25.464 158.914 25.0195 159.383C24.5749 159.851 24.0068 160.073 23.2906 160.073H6.37218ZM34.7506 157.681C34.7506 158.347 34.5283 158.914 34.0838 159.383C33.6392 159.851 33.0711 160.073 32.3549 160.073C31.6386 160.073 31.0706 159.851 30.626 159.383C30.1814 158.914 29.9591 158.347 29.9591 157.681V131.335C29.9591 129.879 30.4284 128.72 31.3669 127.906C32.3055 127.092 33.4663 126.475 34.8 126.08C36.1337 125.686 37.5662 125.439 39.0481 125.365C40.53 125.291 41.8391 125.242 42.9752 125.242C46.2848 125.242 49.298 126.327 51.9901 128.523C52.7063 127.733 53.5708 127.116 54.6081 126.672C55.6455 126.228 56.7075 125.908 57.8436 125.686C58.9797 125.488 60.0912 125.34 61.1779 125.316C62.2646 125.266 63.2279 125.242 64.0676 125.242C65.7965 125.242 67.4266 125.538 69.0073 126.13C70.588 126.722 71.9711 127.536 73.1566 128.621C74.3421 129.682 75.3054 130.94 76.0216 132.395C76.7379 133.851 77.0836 135.454 77.0836 137.206V157.582C77.0836 158.248 76.8367 158.84 76.3674 159.309C75.8734 159.802 75.2807 160.024 74.5644 160.024C73.8976 160.024 73.3295 159.777 72.8849 159.309C72.4404 158.815 72.2181 158.248 72.2181 157.582V137.206C72.144 135.824 71.7982 134.665 71.2054 133.752C70.6127 132.839 69.8717 132.099 68.9579 131.557C68.044 131.014 67.0314 130.619 65.8706 130.397C64.7098 130.175 63.5242 130.052 62.314 130.052C61.1038 130.052 59.943 130.175 58.8809 130.397C57.8189 130.619 56.7816 130.743 55.8183 130.743V157.73C55.8183 158.396 55.5961 158.963 55.1515 159.432C54.7069 159.901 54.1389 160.123 53.4226 160.123C52.7063 160.123 52.1383 159.901 51.6937 159.432C51.2491 158.963 51.0269 158.396 51.0269 157.73V136.86C51.0269 135.553 50.7305 134.468 50.1377 133.58C49.545 132.691 48.804 132.001 47.8655 131.483C46.9516 130.965 45.8896 130.595 44.6794 130.373C43.4939 130.151 42.3083 130.052 41.1228 130.052C40.0361 130.052 38.9 130.126 37.7638 130.299C36.603 130.471 35.5657 130.644 34.6518 130.866V157.681H34.7506ZM109.858 148.134C109.858 150.157 109.439 151.908 108.623 153.413C107.808 154.918 106.746 156.176 105.413 157.163C104.079 158.149 102.572 158.889 100.868 159.358C99.164 159.851 97.4351 160.073 95.6815 160.073C94.4713 160.073 93.1623 159.999 91.8039 159.876C90.4455 159.753 89.1612 159.481 88.0003 159.062C86.8148 158.643 85.8516 158.026 85.0612 157.212C84.2956 156.398 83.9004 155.288 83.9004 153.906V116.558C83.9004 115.892 84.1227 115.325 84.592 114.856C85.0612 114.387 85.6293 114.165 86.3455 114.165C87.0124 114.165 87.5805 114.387 88.0497 114.832C88.519 115.276 88.7413 115.818 88.7413 116.509V126.006C90.5443 125.636 92.125 125.414 93.4587 125.34C94.7924 125.266 95.9532 125.242 96.9165 125.242C98.5959 125.242 100.226 125.538 101.807 126.13C103.387 126.722 104.746 127.536 105.931 128.572C107.117 129.608 108.055 130.866 108.772 132.346C109.488 133.802 109.834 135.43 109.834 137.181V148.134H109.858ZM105.067 137.255C105.067 136.046 104.82 134.986 104.301 134.073C103.807 133.16 103.14 132.42 102.35 131.853C101.56 131.261 100.621 130.817 99.5839 130.521C98.5465 130.225 97.4845 130.077 96.4472 130.077C95.3605 130.077 94.1008 130.151 92.693 130.299C91.2852 130.447 89.9762 130.644 88.766 130.891V154.276C89.1365 154.523 89.7292 154.72 90.569 154.844C91.384 154.967 92.2485 155.066 93.1129 155.115C94.002 155.189 94.7924 155.214 95.5333 155.214C96.2743 155.214 96.7436 155.214 96.9411 155.214C97.9785 155.214 98.9911 155.041 99.9544 154.72C100.918 154.375 101.782 153.906 102.548 153.314C103.313 152.698 103.906 151.958 104.375 151.094C104.845 150.206 105.067 149.219 105.067 148.134V137.255ZM121.516 157.681C121.516 158.347 121.269 158.914 120.8 159.383C120.306 159.851 119.738 160.073 119.071 160.073C118.404 160.073 117.836 159.851 117.367 159.383C116.897 158.914 116.675 158.347 116.675 157.681V131.335C116.675 129.83 117.144 128.671 118.083 127.856C119.022 127.042 120.182 126.45 121.516 126.056C122.85 125.686 124.282 125.439 125.764 125.365C127.246 125.291 128.555 125.242 129.691 125.242C130.358 125.242 130.926 125.464 131.395 125.932C131.865 126.401 132.087 126.968 132.087 127.634C132.087 128.597 131.741 129.238 131.025 129.583C130.309 129.929 129.42 130.126 128.382 130.249C127.345 130.348 126.184 130.397 124.949 130.397C123.714 130.397 122.578 130.545 121.516 130.841V157.681ZM153.624 136.688L154.118 136.811C154.069 136.737 154.044 136.614 154.019 136.441C153.994 136.268 153.97 136.145 153.92 136.071C153.698 135.158 153.451 134.344 153.13 133.629C152.809 132.913 152.364 132.297 151.772 131.803C151.179 131.31 150.413 130.915 149.45 130.644C148.487 130.373 147.276 130.225 145.795 130.225C144.461 130.299 143.3 130.57 142.312 131.014C141.324 131.458 140.41 132.173 139.571 133.185C139.077 133.777 138.459 134.073 137.743 134.073C137.076 134.073 136.508 133.826 136.039 133.308C135.569 132.815 135.347 132.272 135.347 131.68C135.347 131.014 135.52 130.496 135.841 130.175C137.274 128.621 138.83 127.462 140.509 126.648C142.189 125.858 144.09 125.464 146.239 125.464C148.511 125.464 150.438 125.809 152.019 126.475C153.624 127.141 154.933 128.054 155.946 129.213C156.983 130.373 157.724 131.729 158.168 133.259C158.638 134.813 158.86 136.49 158.86 138.291V153.882C158.86 155.436 158.366 156.62 157.403 157.459C156.44 158.297 155.279 158.914 153.92 159.309C152.562 159.703 151.129 159.925 149.598 159.999C148.091 160.073 146.758 160.098 145.622 160.098C143.942 160.098 142.337 159.802 140.805 159.185C139.274 158.569 137.916 157.73 136.755 156.669C135.569 155.608 134.631 154.326 133.915 152.87C133.198 151.415 132.853 149.811 132.853 148.085C132.853 146.481 133.223 145.001 133.964 143.62C134.705 142.238 135.668 141.029 136.903 139.993C138.113 138.957 139.521 138.168 141.102 137.576C142.683 136.984 144.313 136.688 145.992 136.688H153.624ZM154.044 141.473H145.992C145.078 141.473 144.115 141.621 143.152 141.942C142.189 142.263 141.324 142.707 140.534 143.299C139.768 143.891 139.101 144.582 138.583 145.396C138.064 146.21 137.768 147.098 137.743 148.06C137.743 149.269 138.015 150.329 138.533 151.242C139.052 152.155 139.719 152.895 140.558 153.487C141.374 154.079 142.312 154.523 143.349 154.819C144.411 155.115 145.449 155.263 146.486 155.263C147.573 155.263 148.808 155.189 150.191 155.066C151.574 154.942 152.858 154.72 154.019 154.449V141.473H154.044ZM183.015 152.525C183.435 151.982 184.028 151.711 184.769 151.711C185.534 151.711 186.102 151.958 186.522 152.476C186.942 152.969 187.164 153.512 187.164 154.104C187.164 154.72 186.967 155.263 186.522 155.682C185.312 157.113 183.879 158.199 182.274 158.963C180.669 159.728 178.841 160.098 176.84 160.098C175.087 160.098 173.432 159.753 171.876 159.087C170.32 158.421 168.962 157.483 167.776 156.324C166.591 155.14 165.677 153.783 164.985 152.204C164.294 150.625 163.948 148.973 163.948 147.197V138.464C163.948 136.663 164.294 134.986 164.96 133.407C165.627 131.828 166.541 130.471 167.702 129.287C168.863 128.103 170.221 127.19 171.753 126.524C173.309 125.858 174.963 125.513 176.717 125.513C178.149 125.513 179.409 125.686 180.496 126.006C181.583 126.352 182.521 126.746 183.336 127.19C184.126 127.659 184.793 128.128 185.312 128.646C185.831 129.139 186.25 129.559 186.547 129.904C186.967 130.323 187.189 130.841 187.189 131.483C187.189 132.025 186.967 132.568 186.522 133.086C186.078 133.604 185.51 133.876 184.793 133.876C184.028 133.876 183.46 133.604 183.04 133.061L182.719 132.815C182.521 132.568 182.249 132.297 181.928 132.001C181.607 131.705 181.237 131.433 180.767 131.211C180.298 130.989 179.755 130.792 179.137 130.619C178.52 130.447 177.754 130.373 176.865 130.373C175.778 130.373 174.741 130.57 173.753 130.989C172.765 131.409 171.901 131.976 171.135 132.716C170.369 133.456 169.777 134.32 169.332 135.306C168.888 136.293 168.665 137.354 168.665 138.489V147.221C168.665 148.356 168.888 149.417 169.332 150.403C169.777 151.39 170.369 152.254 171.135 152.969C171.901 153.709 172.765 154.276 173.778 154.671C174.79 155.066 175.852 155.263 176.989 155.263C178.075 155.263 179.162 155.066 180.273 154.646C181.385 154.227 182.249 153.512 183.015 152.525ZM195.784 140.339H212.159C212.159 138.957 211.962 137.65 211.591 136.441C211.221 135.232 210.677 134.172 209.961 133.259C209.245 132.346 208.38 131.655 207.392 131.113C206.38 130.595 205.244 130.323 203.984 130.323C202.798 130.323 201.736 130.521 200.748 130.94C199.761 131.359 198.896 131.927 198.18 132.667C197.439 133.407 196.871 134.27 196.451 135.282C196.031 136.293 195.833 137.354 195.833 138.489V140.339H195.784ZM210.084 152.525C210.504 151.982 211.097 151.711 211.838 151.711C212.505 151.711 213.073 151.958 213.542 152.476C214.011 152.969 214.234 153.536 214.234 154.178C214.234 154.4 214.209 154.622 214.16 154.868C214.11 155.115 213.987 155.362 213.789 155.559C210.801 158.569 207.54 160.098 203.959 160.098C202.156 160.098 200.477 159.753 198.896 159.087C197.315 158.421 195.957 157.508 194.771 156.349C193.586 155.189 192.672 153.832 191.981 152.254C191.289 150.675 190.943 148.997 190.943 147.197V138.513C190.943 136.712 191.289 135.035 191.981 133.456C192.672 131.877 193.611 130.521 194.771 129.337C195.957 128.152 197.315 127.24 198.896 126.549C200.477 125.858 202.156 125.513 203.959 125.513C205.762 125.513 207.466 125.858 209.047 126.574C210.652 127.289 212.036 128.276 213.196 129.534C214.382 130.792 215.296 132.272 215.963 133.999C216.63 135.726 216.975 137.576 216.975 139.599C216.975 141.35 216.457 142.732 215.395 143.694C214.357 144.656 212.925 145.149 211.122 145.149H196.253L195.636 145.026L195.759 145.642V147.221C195.759 148.307 195.982 149.343 196.426 150.305C196.871 151.267 197.464 152.106 198.229 152.846C198.995 153.586 199.859 154.178 200.847 154.597C201.835 155.041 202.873 155.263 203.959 155.263C205.565 155.263 206.849 154.967 207.862 154.35C208.899 153.709 209.615 153.117 210.084 152.525Z" fill="white"/>
<path fill-rule="evenodd" clip-rule="evenodd" d="M77.7751 116.238C77.8986 116.559 77.948 116.855 77.948 117.077C77.948 117.57 77.7751 118.014 77.4294 118.409C77.2318 118.656 76.9601 118.828 76.6637 118.952C76.392 119.05 76.0956 119.1 75.7746 119.1C75.3794 119.1 75.0089 119.001 74.6878 118.804C74.3668 118.606 74.1198 118.335 73.9469 117.965L70.6867 111.477L67.4265 118.014C67.2289 118.36 66.9819 118.631 66.6609 118.828C66.3398 119.026 65.994 119.124 65.5988 119.124C65.2778 119.124 64.9814 119.075 64.7097 118.976C64.4133 118.853 64.1663 118.68 63.9687 118.458C63.7958 118.261 63.6724 118.064 63.5983 117.842C63.4995 117.595 63.4501 117.373 63.4501 117.126C63.4501 116.978 63.4748 116.83 63.4995 116.657C63.5242 116.509 63.5736 116.361 63.6477 116.213L68.4144 107.061L63.6477 97.8848C63.5983 97.7614 63.5489 97.6134 63.4995 97.4407C63.4748 97.268 63.4501 97.12 63.4501 96.972C63.4501 96.7253 63.4995 96.5033 63.5983 96.2566C63.6724 96.0346 63.7958 95.8373 63.9687 95.6399C64.3392 95.1959 64.8826 94.9739 65.5988 94.9739C66.4139 94.9739 67.0066 95.3439 67.4265 96.1086L70.6867 102.621L73.9469 96.158C74.021 95.9853 74.1445 95.8126 74.268 95.6646C74.3915 95.5166 74.5643 95.3932 74.7372 95.2946C74.8854 95.1959 75.0583 95.1219 75.2312 95.0726C75.4041 95.0232 75.6017 94.9985 75.7746 94.9985C76.5155 94.9985 77.0589 95.2206 77.4541 95.6646C77.7998 96.0593 77.9727 96.528 77.9727 96.9967C77.9727 97.1447 77.948 97.2927 77.9233 97.4654C77.8986 97.6134 77.8492 97.7614 77.7751 97.9094L73.0083 107.086C74.2433 109.479 76.886 113.895 77.7751 116.238Z" fill="white"/>
<path fill-rule="evenodd" clip-rule="evenodd" d="M50.4589 111.847C50.4589 112.069 50.4836 112.291 50.5083 112.488C50.5577 112.685 50.6071 112.883 50.7058 113.055C50.7799 113.253 50.9034 113.425 51.0269 113.598C51.1504 113.771 51.2739 113.919 51.4221 114.067C51.5703 114.215 51.7432 114.363 51.8914 114.461C52.0643 114.585 52.2371 114.684 52.4347 114.758C52.6323 114.832 52.8052 114.906 53.0028 114.93C53.2004 114.98 53.398 114.98 53.6203 114.98C53.8178 114.98 54.0154 114.955 54.213 114.93C54.4106 114.881 54.6082 114.832 54.7811 114.733C54.9787 114.659 55.1516 114.535 55.3244 114.437C55.4973 114.313 55.6455 114.19 55.7937 114.042C56.0901 113.746 56.3124 113.401 56.4853 113.031C56.5594 112.858 56.6335 112.661 56.6582 112.463C56.7076 112.266 56.7075 112.069 56.7075 111.847V96.9469C56.7075 96.6755 56.7569 96.4289 56.8557 96.1822C56.9545 95.9602 57.1027 95.7381 57.2756 95.5408C57.4732 95.3434 57.6955 95.1954 57.9425 95.0721C58.1895 94.9734 58.4611 94.9241 58.7328 94.9241C59.0045 94.9241 59.2762 94.9734 59.5232 95.0721C59.7702 95.1708 59.9924 95.3434 60.19 95.5408C60.3629 95.7381 60.5111 95.9602 60.6099 96.1822C60.7087 96.4289 60.7581 96.6755 60.7581 96.9222V111.822C60.7581 112.291 60.7087 112.784 60.6099 113.253C60.5111 113.721 60.3629 114.165 60.19 114.609C59.9924 115.054 59.7702 115.448 59.5232 115.818C59.2515 116.213 58.9551 116.558 58.6587 116.879C58.3376 117.2 57.9919 117.496 57.5967 117.742C57.2262 117.989 56.8063 118.211 56.3865 118.408C55.9419 118.606 55.4973 118.729 55.0281 118.828C54.5588 118.926 54.0895 118.976 53.5956 118.976C53.1263 118.976 52.657 118.926 52.1877 118.828C51.7432 118.729 51.2739 118.606 50.854 118.408C49.9896 118.038 49.2239 117.545 48.5571 116.928C48.236 116.608 47.9396 116.262 47.6679 115.892C47.3963 115.522 47.174 115.128 47.0011 114.708C46.8035 114.289 46.6553 113.82 46.5565 113.351C46.4577 112.883 46.4083 112.414 46.4083 111.921V96.8976C46.4083 96.6262 46.4577 96.3795 46.5812 96.1328C46.68 95.8862 46.8282 95.6888 47.0258 95.4915C47.2234 95.2941 47.4457 95.1461 47.6926 95.0474C47.9396 94.9487 48.2113 94.8994 48.483 94.8994C48.7547 94.8994 49.0264 94.9488 49.2733 95.0721C49.5203 95.1708 49.7426 95.3434 49.9155 95.5408C50.0884 95.7381 50.2366 95.9355 50.3107 96.1822C50.4095 96.4289 50.4589 96.6755 50.4589 96.9222V111.847Z" fill="white"/>
<path fill-rule="evenodd" clip-rule="evenodd" d="M41.9379 115.079C42.2096 115.079 42.4813 115.128 42.7036 115.227C42.9505 115.325 43.1728 115.473 43.3704 115.671C43.568 115.868 43.7162 116.09 43.815 116.312C43.9138 116.559 43.9632 116.805 43.9632 117.077C43.9632 117.348 43.9138 117.62 43.815 117.842C43.7162 118.088 43.568 118.31 43.3951 118.508C43.1975 118.705 42.9752 118.853 42.7282 118.952C42.4813 119.05 42.2096 119.1 41.9379 119.1H35.5163C35.1458 119.1 34.7754 119.075 34.4543 119.026C34.1085 118.976 33.8121 118.927 33.5404 118.828C33.2688 118.73 33.0218 118.631 32.8242 118.483C32.6019 118.335 32.4043 118.162 32.2314 117.965C32.0832 117.768 31.9351 117.57 31.861 117.348C31.7622 117.126 31.7128 116.904 31.6634 116.657C31.6387 116.46 31.614 116.263 31.5893 116.041C31.5646 115.819 31.5646 115.597 31.5646 115.399V96.9967C31.5646 96.7253 31.614 96.4786 31.7128 96.232C31.8116 95.9853 31.9598 95.7633 32.1573 95.5659C32.3549 95.3686 32.5772 95.2206 32.8242 95.1219C33.0712 95.0232 33.3182 94.9739 33.5898 94.9739C33.8615 94.9739 34.1332 95.0232 34.3555 95.1219C34.6025 95.2206 34.8248 95.3686 34.9977 95.5659C35.1952 95.7633 35.3187 95.9853 35.4175 96.232C35.5163 96.4786 35.5657 96.7253 35.5657 96.9967V115.054H41.9379V115.079Z" fill="white"/>
<path fill-rule="evenodd" clip-rule="evenodd" d="M135.1 65.692C135.149 65.2727 139.62 58.2175 144.436 51.7297C149.277 45.1926 150.685 39.7655 153.723 41.369C156.909 44.4279 137.743 63.2005 135.1 65.692ZM118.7 116.188C111.686 91.2732 156.686 67.6162 171.975 49.7316C175.334 45.8093 172.617 43.8358 168.986 45.5873C165.924 47.0427 160.688 52.5931 154.908 57.1814C148.61 62.1891 141.645 66.3334 136.137 69.491C132.433 71.6125 131.074 71.8592 130.926 71.0698C130.704 69.8363 132.704 66.1114 134.433 63.1019C136.977 59.1056 138.459 56.1947 139.101 54.4432C140.089 51.8037 137.718 51.2117 136.162 53.0618C134.384 55.1586 131.42 58.8589 127.493 62.9539C116.255 74.696 100.473 94.5788 118.7 116.188ZM133.964 69.0223C141.62 64.4833 160.613 50.5456 165.034 45.3406C167.06 43.0958 168.443 41.739 167.109 40.3329C165.825 39.0008 163.182 39.9629 160.342 42.7504C153.253 49.7316 141.546 63.2745 133.964 69.0223Z" fill="white"/>
<path fill-rule="evenodd" clip-rule="evenodd" d="M94.3231 95.0475C96.6447 100.623 97.9785 108.763 95.6815 115.078C113.588 94.7762 101.831 76.1268 90.89 62.2138C89.2352 60.117 78.4914 44.8226 75.6758 46.8701C71.6253 49.0162 90.6183 69.343 82.295 65.0507C67.5006 57.2801 58.8809 46.0067 50.2118 41.369C47.4703 39.9136 43.2962 39.8642 47.1739 44.0085C50.4588 47.5114 57.3496 53.6785 63.3513 59.525C60.1652 57.6502 54.1388 54.7393 50.5329 52.9632C47.1986 51.335 44.5558 50.9157 43.7902 52.2478C43.4938 52.5685 43.1727 53.8019 44.6546 54.7146C52.237 59.3029 60.2393 62.7319 67.8711 67.4929C63.8453 66.1608 51.5949 63.1759 50.2365 65.8894C49.866 67.5915 55.2996 68.6029 57.2755 69.0716C73.7493 73.0433 87.2347 78.0263 94.3231 95.0475Z" fill="white"/>
<path fill-rule="evenodd" clip-rule="evenodd" d="M111.76 0C113.316 0 114.823 0.123342 116.329 0.345358C110.97 1.08541 107.759 8.16525 106.277 9.25066C103.955 10.9281 93.2364 10.4347 94.8171 6.68515C95.1135 5.96976 95.7803 5.67374 97.9291 5.40239C96.7436 5.10637 95.6568 5.03236 94.6936 5.13103C99.5592 1.89947 105.437 0 111.76 0ZM120.355 1.20875C122.134 2.96021 119.392 6.80849 112.946 9.52202L109.34 10.8541C106.574 20.7215 102.844 30.6875 97.1388 38.3594C101.708 39.0008 107.907 41.7883 112.304 39.3462L117.021 37.2493C106.228 31.921 116.329 15.8865 130.729 17.3912C133.1 17.6379 136.088 18.822 136.088 21.6342C136.088 27.0613 128.926 28.5907 124.752 28.27C137.2 26.1979 129.691 16.2565 121.244 21.8069C117.07 24.5698 114.255 33.2284 125.789 36.0899C123.517 39.8642 118.923 37.6194 113.538 41.813C107.858 46.2286 107.24 52.4944 110.179 55.504C120.256 65.7907 142.608 49.1889 142.608 30.8602C142.608 16.7745 133.223 4.93369 120.355 1.20875ZM115.169 61.4737C107.981 61.5231 102.177 57.3048 103.807 49.3122C104.252 47.1414 105.437 45.1432 106.895 43.5151C102.078 43.8111 96.8918 43.0218 92.4461 41.443C86.3209 47.2154 81.8998 39.7162 91.7298 38.0634C96.3978 37.274 101.831 18.3286 104.869 11.7915C94.3972 13.913 90.3714 11.1255 90.4455 8.53528C84.5673 14.1597 80.8872 22.0783 80.8872 30.8355C80.8872 47.8568 94.7183 61.6711 111.76 61.6711C112.896 61.6464 114.032 61.5971 115.169 61.4737ZM116.478 3.25623C116.478 1.50477 112.402 4.31698 110.575 8.23926C112.723 7.4992 116.478 6.0191 116.478 3.25623Z" fill="white"/>
<path fill-rule="evenodd" clip-rule="evenodd" d="M6.94025 174.801C6.94025 174.406 6.86615 174.061 6.69326 173.764C6.52037 173.468 6.29809 173.222 6.02641 173.024C5.75472 172.827 5.45834 172.679 5.11256 172.58C4.76679 172.482 4.42101 172.432 4.07523 172.432C3.72946 172.432 3.30958 172.457 2.84031 172.506C2.37104 172.556 1.95117 172.605 1.5807 172.704V180.4C1.70419 180.474 1.87708 180.524 2.07466 180.573C2.27225 180.622 2.49454 180.647 2.71682 180.672C2.93911 180.696 3.16139 180.696 3.40838 180.721C3.63066 180.721 3.82825 180.721 4.02584 180.721C4.89028 180.721 5.60653 180.524 6.1499 180.129C6.69326 179.734 6.96494 179.142 6.96494 178.377V174.801H6.94025ZM8.52094 178.377C8.52094 178.92 8.42215 179.414 8.22456 179.882C8.02697 180.351 7.73059 180.77 7.33542 181.14C6.94025 181.51 6.44628 181.782 5.85352 182.004C5.26076 182.226 4.5692 182.324 3.77885 182.324C3.23549 182.324 2.49454 182.25 1.5807 182.078V185.161C1.5807 185.383 1.5066 185.581 1.35841 185.729C1.21022 185.877 1.03733 185.951 0.815047 185.951C0.592761 185.951 0.395174 185.877 0.246984 185.753C0.0740951 185.605 0 185.433 0 185.186V172.901C0 172.408 0.14819 172.013 0.469269 171.766C0.790348 171.495 1.16082 171.298 1.60539 171.174C2.04997 171.051 2.51923 170.977 3.0132 170.928C3.50717 170.903 3.92704 170.878 4.29752 170.878C4.84088 170.878 5.38425 170.977 5.90291 171.174C6.42158 171.372 6.86615 171.643 7.26132 171.988C7.6565 172.334 7.95288 172.753 8.19986 173.222C8.42215 173.715 8.54564 174.233 8.54564 174.825V178.377H8.52094ZM12.3245 181.56C12.3245 181.782 12.2504 181.954 12.0775 182.127C11.9293 182.275 11.7317 182.349 11.5094 182.349C11.2872 182.349 11.1143 182.275 10.9414 182.127C10.7932 181.979 10.7191 181.782 10.7191 181.56V172.926C10.7191 172.432 10.8673 172.038 11.1884 171.791C11.5094 171.52 11.8799 171.322 12.3245 171.199C12.7691 171.076 13.2383 171.002 13.7076 170.977C14.2016 170.952 14.6214 170.928 14.9919 170.928C15.2142 170.928 15.3871 171.002 15.56 171.15C15.7082 171.298 15.7823 171.495 15.7823 171.717C15.7823 172.038 15.6588 172.235 15.4365 172.358C15.2142 172.457 14.9178 172.531 14.572 172.58C14.2263 172.605 13.8558 172.63 13.4359 172.63C13.0407 172.63 12.6456 172.679 12.2998 172.778V181.56H12.3245ZM18.0051 175.861H23.3647C23.3647 175.417 23.2906 174.973 23.1671 174.579C23.0436 174.184 22.8707 173.838 22.6237 173.542C22.4014 173.246 22.1051 173.024 21.784 172.852C21.4629 172.679 21.0924 172.605 20.6725 172.605C20.2774 172.605 19.9316 172.679 19.6105 172.802C19.2894 172.926 19.0178 173.123 18.7708 173.37C18.5238 173.616 18.3509 173.888 18.2027 174.233C18.0545 174.554 18.0051 174.924 18.0051 175.294V175.861ZM22.6731 179.858C22.8213 179.685 22.9942 179.586 23.2412 179.586C23.4635 179.586 23.6364 179.66 23.8092 179.833C23.9574 180.006 24.0315 180.178 24.0315 180.4C24.0315 180.474 24.0315 180.548 24.0068 180.622C23.9821 180.696 23.9574 180.77 23.8833 180.844C22.8954 181.831 21.8334 182.324 20.6725 182.324C20.0798 182.324 19.5364 182.226 19.0178 182.004C18.4991 181.782 18.0545 181.486 17.6593 181.116C17.2889 180.746 16.9678 180.302 16.7455 179.784C16.5232 179.266 16.3997 178.723 16.3997 178.131V175.294C16.3997 174.702 16.5232 174.159 16.7455 173.641C16.9678 173.123 17.2889 172.679 17.6593 172.284C18.0545 171.89 18.4991 171.594 19.0178 171.372C19.5364 171.15 20.0798 171.026 20.6725 171.026C21.2653 171.026 21.8334 171.15 22.352 171.372C22.8707 171.594 23.34 171.939 23.7104 172.334C24.1056 172.753 24.402 173.246 24.6243 173.789C24.8466 174.357 24.9454 174.973 24.9454 175.615C24.9454 176.182 24.7725 176.651 24.4267 176.947C24.0809 177.267 23.6117 177.415 23.0189 177.415H18.1533L17.9557 177.366L18.0051 177.563V178.081C18.0051 178.427 18.0792 178.772 18.2274 179.093C18.3756 179.414 18.5732 179.685 18.8202 179.932C19.0672 180.178 19.3635 180.376 19.6846 180.499C20.0057 180.647 20.3515 180.721 20.6972 180.721C21.2159 180.721 21.6358 180.622 21.9816 180.425C22.2779 180.252 22.5249 180.055 22.6731 179.858ZM28.7489 181.56C28.7489 181.782 28.6748 181.954 28.5266 182.127C28.3784 182.275 28.1809 182.349 27.9586 182.349C27.7363 182.349 27.5387 182.275 27.3905 182.127C27.2423 181.979 27.1682 181.782 27.1682 181.56V172.926C27.1682 172.457 27.3164 172.062 27.6375 171.791C27.9586 171.52 28.329 171.322 28.7736 171.199C29.2182 171.076 29.6875 171.002 30.1567 170.952C30.6507 170.928 31.0706 170.903 31.441 170.903C32.5278 170.903 33.5157 171.273 34.4048 171.964C34.6271 171.692 34.9235 171.495 35.2693 171.347C35.6151 171.199 35.9608 171.1 36.3313 171.026C36.7018 170.952 37.0723 170.928 37.418 170.903C37.7638 170.878 38.0849 170.878 38.3566 170.878C38.9246 170.878 39.468 170.977 39.9867 171.174C40.5053 171.372 40.9499 171.643 41.3451 171.988C41.7403 172.334 42.0613 172.753 42.2836 173.222C42.5059 173.69 42.6294 174.233 42.6294 174.801V181.486C42.6294 181.708 42.5553 181.905 42.3824 182.053C42.2342 182.201 42.0366 182.3 41.7897 182.3C41.5674 182.3 41.3945 182.226 41.2463 182.053C41.0981 181.905 41.024 181.708 41.024 181.486V174.801C40.9993 174.357 40.8758 173.962 40.7029 173.666C40.5053 173.37 40.2584 173.123 39.962 172.95C39.6656 172.778 39.3198 172.654 38.9493 172.58C38.5789 172.506 38.1837 172.457 37.7885 172.457C37.3933 172.457 37.0229 172.506 36.6524 172.58C36.3066 172.654 35.9608 172.704 35.6398 172.704V181.56C35.6398 181.782 35.5657 181.954 35.4175 182.127C35.2693 182.275 35.0717 182.349 34.8494 182.349C34.6271 182.349 34.4295 182.275 34.2814 182.127C34.1332 181.979 34.0591 181.782 34.0591 181.56V174.702C34.0591 174.283 33.9603 173.912 33.7627 173.641C33.5651 173.345 33.3181 173.123 33.0217 172.95C32.7254 172.778 32.3796 172.654 31.9844 172.58C31.5892 172.506 31.1941 172.482 30.8236 172.482C30.4778 172.482 30.1073 172.506 29.7122 172.556C29.3417 172.605 28.9959 172.679 28.6995 172.753V181.56H28.7489ZM45.9143 169.003C45.692 169.003 45.4944 168.929 45.3462 168.757C45.198 168.609 45.1239 168.411 45.1239 168.189C45.1239 167.967 45.198 167.77 45.3462 167.622C45.4944 167.474 45.692 167.4 45.9143 167.4C46.1366 167.4 46.3342 167.474 46.4824 167.622C46.6305 167.77 46.7046 167.967 46.7046 168.189C46.7046 168.411 46.6305 168.609 46.4824 168.757C46.3589 168.929 46.1613 169.003 45.9143 169.003ZM45.1486 171.766C45.1486 171.544 45.2227 171.372 45.3709 171.199C45.5191 171.051 45.7167 170.977 45.939 170.977C46.1613 170.977 46.3589 171.051 46.5071 171.199C46.6552 171.347 46.7293 171.544 46.7293 171.766V181.56C46.7293 181.782 46.6552 181.954 46.5071 182.127C46.3589 182.275 46.1613 182.349 45.939 182.349C45.7167 182.349 45.5438 182.275 45.3709 182.127C45.2227 181.979 45.1486 181.782 45.1486 181.56V171.766ZM55.8677 171.643C55.8677 171.446 55.9418 171.248 56.09 171.1C56.2382 170.952 56.4358 170.878 56.6581 170.878C56.8804 170.878 57.078 170.952 57.2262 171.1C57.3743 171.248 57.4484 171.421 57.4484 171.643V180.277C57.4484 180.795 57.3002 181.19 56.9792 181.461C56.6581 181.732 56.2876 181.93 55.843 182.053C55.3985 182.176 54.9292 182.25 54.4352 182.275C53.9413 182.3 53.5214 182.3 53.1756 182.3C52.6076 182.3 52.0642 182.201 51.5455 182.004C51.0269 181.806 50.5823 181.535 50.1871 181.19C49.7919 180.844 49.4956 180.425 49.2733 179.956C49.051 179.463 48.9275 178.945 48.9275 178.353V171.692C48.9275 171.47 49.0016 171.273 49.1498 171.125C49.298 170.977 49.4956 170.903 49.7178 170.903C49.9401 170.903 50.113 170.977 50.2612 171.125C50.4094 171.273 50.4835 171.47 50.4835 171.692V178.353C50.4835 178.772 50.5823 179.118 50.7552 179.414C50.9281 179.71 51.175 179.956 51.4467 180.154C51.7431 180.351 52.0642 180.499 52.41 180.573C52.7804 180.672 53.1262 180.696 53.4967 180.696C53.6943 180.696 53.9166 180.696 54.1389 180.672C54.3611 180.647 54.5834 180.622 54.781 180.598C55.0033 180.573 55.2009 180.548 55.3738 180.524C55.5714 180.499 55.7196 180.474 55.8183 180.474V171.643H55.8677ZM61.2767 181.56C61.2767 181.782 61.2026 181.954 61.0544 182.127C60.9062 182.275 60.7086 182.349 60.4863 182.349C60.2394 182.349 60.0665 182.275 59.9183 182.127C59.7701 181.979 59.696 181.782 59.696 181.56V172.926C59.696 172.457 59.8442 172.062 60.1653 171.791C60.4863 171.52 60.8568 171.322 61.3014 171.199C61.746 171.076 62.2152 171.002 62.6845 170.952C63.1785 170.928 63.5983 170.903 63.9688 170.903C65.0555 170.903 66.0435 171.273 66.9326 171.964C67.1549 171.692 67.4513 171.495 67.7971 171.347C68.1428 171.199 68.4886 171.1 68.8591 171.026C69.2296 170.952 69.6 170.928 69.9458 170.903C70.2916 170.878 70.6127 170.878 70.8844 170.878C71.4524 170.878 71.9958 170.977 72.5145 171.174C73.0331 171.372 73.4777 171.643 73.8729 171.988C74.268 172.334 74.5891 172.753 74.8114 173.222C75.0337 173.69 75.1572 174.233 75.1572 174.801V181.486C75.1572 181.708 75.0831 181.905 74.9102 182.053C74.762 182.201 74.5644 182.3 74.3174 182.3C74.0951 182.3 73.9223 182.226 73.7741 182.053C73.6259 181.905 73.5518 181.708 73.5518 181.486V174.801C73.5271 174.357 73.4036 173.962 73.2307 173.666C73.0331 173.37 72.7861 173.123 72.4898 172.95C72.1934 172.778 71.8476 172.654 71.4771 172.58C71.1066 172.506 70.7115 172.457 70.3163 172.457C69.9211 172.457 69.5506 172.506 69.1802 172.58C68.8097 172.654 68.4886 172.704 68.1675 172.704V181.56C68.1675 181.782 68.0934 181.954 67.9453 182.127C67.7971 182.275 67.5995 182.349 67.3772 182.349C67.1549 182.349 66.9573 182.275 66.8091 182.127C66.6609 181.979 66.5868 181.782 66.5868 181.56V174.702C66.5868 174.283 66.488 173.912 66.2905 173.641C66.0929 173.345 65.8459 173.123 65.5495 172.95C65.2531 172.778 64.9073 172.654 64.5122 172.58C64.117 172.506 63.7218 172.482 63.3513 172.482C62.9809 172.482 62.6351 172.506 62.2399 172.556C61.8694 172.605 61.5237 172.679 61.2273 172.753V181.56H61.2767ZM90.322 179.858C90.4702 179.685 90.6431 179.586 90.89 179.586C91.137 179.586 91.3346 179.66 91.4581 179.833C91.6063 180.006 91.6557 180.178 91.6557 180.376C91.6557 180.573 91.5816 180.746 91.4581 180.894C91.0629 181.362 90.5937 181.708 90.075 181.979C89.5563 182.226 88.9389 182.349 88.2967 182.349C87.7287 182.349 87.1853 182.25 86.6666 182.028C86.148 181.806 85.7034 181.51 85.3329 181.116C84.9377 180.721 84.6414 180.277 84.4191 179.759C84.1968 179.241 84.0733 178.698 84.0733 178.131V175.269C84.0733 174.677 84.1721 174.134 84.3944 173.616C84.6167 173.098 84.913 172.654 85.2835 172.26C85.654 171.865 86.0986 171.569 86.6172 171.347C87.1359 171.125 87.6793 171.026 88.2473 171.026C88.7166 171.026 89.1365 171.076 89.4822 171.199C89.828 171.298 90.1491 171.446 90.4208 171.594C90.6925 171.742 90.89 171.914 91.0629 172.062C91.2358 172.235 91.3593 172.358 91.4581 172.482C91.6063 172.63 91.6557 172.802 91.6557 173C91.6557 173.172 91.5816 173.345 91.4334 173.518C91.2852 173.69 91.0876 173.764 90.8653 173.764C90.6184 173.764 90.4208 173.666 90.2973 173.493L90.1985 173.419C90.1244 173.345 90.0503 173.246 89.9515 173.148C89.8527 173.049 89.7292 172.975 89.581 172.901C89.4328 172.827 89.2599 172.753 89.0377 172.704C88.8401 172.654 88.5931 172.63 88.2967 172.63C87.9509 172.63 87.6052 172.704 87.2841 172.827C86.963 172.975 86.6666 173.148 86.4196 173.394C86.1727 173.641 85.9751 173.912 85.8269 174.233C85.6787 174.554 85.6046 174.899 85.6046 175.269V178.131C85.6046 178.501 85.6787 178.846 85.8269 179.167C85.9751 179.488 86.1727 179.784 86.4196 180.006C86.6666 180.252 86.963 180.425 87.2841 180.573C87.6052 180.696 87.9756 180.77 88.3461 180.77C88.6919 180.77 89.0624 180.696 89.4081 180.573C89.7539 180.4 90.075 180.178 90.322 179.858ZM95.6074 180.746C95.8297 180.746 96.0273 180.82 96.1755 180.992C96.3237 181.14 96.3978 181.338 96.3978 181.56C96.3978 181.782 96.3237 181.954 96.1755 182.127C96.0273 182.275 95.8297 182.349 95.6074 182.349C95.1876 182.349 94.8418 182.275 94.5948 182.152C94.3231 182.028 94.1255 181.88 93.9526 181.683C93.8045 181.486 93.681 181.264 93.6069 181.017C93.5328 180.77 93.5081 180.524 93.5081 180.252V168.041C93.5081 167.819 93.5822 167.647 93.7304 167.499C93.8785 167.351 94.0761 167.277 94.2984 167.277C94.5207 167.277 94.6936 167.351 94.8665 167.499C95.0147 167.647 95.0888 167.819 95.0888 168.041V180.104C95.0641 180.548 95.237 180.746 95.6074 180.746ZM99.2134 175.861H104.573C104.573 175.417 104.499 174.973 104.375 174.579C104.252 174.184 104.079 173.838 103.832 173.542C103.61 173.246 103.313 173.024 102.992 172.852C102.671 172.679 102.301 172.605 101.881 172.605C101.486 172.605 101.14 172.679 100.819 172.802C100.498 172.95 100.201 173.123 99.979 173.37C99.7321 173.616 99.5592 173.888 99.411 174.233C99.2628 174.554 99.2134 174.924 99.2134 175.294V175.861ZM103.906 179.858C104.054 179.685 104.227 179.586 104.474 179.586C104.696 179.586 104.869 179.66 105.042 179.833C105.19 180.006 105.264 180.178 105.264 180.4C105.264 180.474 105.265 180.548 105.24 180.622C105.215 180.696 105.19 180.77 105.116 180.844C104.128 181.831 103.066 182.324 101.906 182.324C101.313 182.324 100.769 182.226 100.251 182.004C99.7321 181.782 99.2875 181.486 98.8923 181.116C98.4971 180.746 98.2008 180.302 97.9785 179.784C97.7562 179.266 97.6327 178.723 97.6327 178.131V175.294C97.6327 174.702 97.7562 174.159 97.9785 173.641C98.2008 173.123 98.5218 172.679 98.8923 172.284C99.2875 171.89 99.7321 171.594 100.251 171.372C100.769 171.15 101.313 171.026 101.906 171.026C102.498 171.026 103.066 171.15 103.585 171.372C104.104 171.594 104.573 171.939 104.943 172.334C105.339 172.753 105.635 173.246 105.857 173.789C106.08 174.357 106.178 174.973 106.178 175.615C106.178 176.182 106.005 176.651 105.66 176.947C105.314 177.267 104.845 177.415 104.252 177.415H99.3863L99.1887 177.366L99.2381 177.563V178.081C99.2381 178.427 99.3122 178.772 99.4604 179.093C99.6086 179.414 99.8062 179.685 100.053 179.932C100.3 180.178 100.597 180.376 100.918 180.499C101.239 180.647 101.584 180.721 101.93 180.721C102.449 180.721 102.869 180.622 103.215 180.425C103.511 180.252 103.758 180.055 103.906 179.858ZM113.983 174.677L114.156 174.727C114.131 174.702 114.131 174.653 114.131 174.603C114.131 174.554 114.107 174.505 114.107 174.48C114.032 174.184 113.958 173.912 113.86 173.666C113.761 173.444 113.613 173.222 113.415 173.074C113.217 172.901 112.97 172.778 112.649 172.704C112.328 172.605 111.933 172.58 111.439 172.58C110.995 172.605 110.624 172.704 110.303 172.827C109.982 172.975 109.686 173.197 109.414 173.542C109.241 173.74 109.043 173.838 108.821 173.838C108.599 173.838 108.426 173.764 108.253 173.592C108.105 173.419 108.031 173.246 108.031 173.049C108.031 172.827 108.08 172.654 108.204 172.556C108.673 172.038 109.192 171.668 109.735 171.396C110.278 171.125 110.92 171.002 111.612 171.002C112.353 171.002 112.995 171.1 113.514 171.322C114.032 171.544 114.477 171.84 114.798 172.21C115.144 172.58 115.391 173.024 115.539 173.542C115.687 174.06 115.761 174.603 115.761 175.195V180.302C115.761 180.82 115.613 181.214 115.292 181.486C114.971 181.757 114.6 181.954 114.156 182.102C113.711 182.226 113.242 182.3 112.748 182.324C112.254 182.349 111.81 182.349 111.439 182.349C110.896 182.349 110.352 182.25 109.858 182.053C109.364 181.856 108.92 181.584 108.525 181.239C108.13 180.894 107.833 180.474 107.586 179.981C107.364 179.512 107.24 178.97 107.24 178.402C107.24 177.884 107.364 177.391 107.611 176.947C107.858 176.503 108.179 176.108 108.574 175.763C108.969 175.417 109.439 175.171 109.957 174.973C110.476 174.776 111.019 174.677 111.563 174.677H113.983ZM114.131 176.231H111.488C111.192 176.231 110.871 176.281 110.55 176.379C110.229 176.478 109.957 176.626 109.686 176.823C109.439 177.021 109.216 177.243 109.043 177.514C108.87 177.785 108.772 178.081 108.772 178.402C108.772 178.797 108.87 179.142 109.019 179.438C109.192 179.734 109.414 179.981 109.686 180.178C109.957 180.376 110.254 180.524 110.599 180.622C110.945 180.721 111.291 180.77 111.637 180.77C111.982 180.77 112.402 180.746 112.847 180.696C113.291 180.647 113.711 180.598 114.107 180.499V176.231H114.131ZM118.972 181.51C118.972 181.732 118.898 181.905 118.75 182.078C118.602 182.226 118.404 182.3 118.182 182.3C117.959 182.3 117.762 182.226 117.614 182.078C117.465 181.93 117.391 181.732 117.391 181.51V172.876C117.391 172.383 117.54 171.988 117.861 171.742C118.182 171.47 118.552 171.273 118.997 171.15C119.441 171.026 119.911 170.952 120.405 170.928C120.899 170.903 121.318 170.878 121.664 170.878C122.232 170.878 122.776 170.977 123.294 171.174C123.813 171.372 124.258 171.643 124.653 171.988C125.048 172.334 125.344 172.753 125.591 173.222C125.814 173.715 125.937 174.233 125.937 174.801V181.461C125.937 181.708 125.863 181.88 125.715 182.053C125.567 182.201 125.369 182.3 125.147 182.3C124.924 182.3 124.752 182.226 124.603 182.053C124.455 181.905 124.381 181.708 124.381 181.461V174.801C124.381 174.406 124.282 174.061 124.109 173.764C123.936 173.468 123.689 173.222 123.418 173.024C123.121 172.827 122.8 172.679 122.455 172.58C122.084 172.482 121.738 172.432 121.368 172.432C121.17 172.432 120.973 172.432 120.75 172.457C120.528 172.482 120.306 172.506 120.084 172.531C119.861 172.556 119.664 172.58 119.466 172.605C119.268 172.63 119.12 172.654 119.021 172.679V181.51H118.972ZM128.926 169.003C128.703 169.003 128.506 168.929 128.357 168.757C128.209 168.609 128.135 168.411 128.135 168.189C128.135 167.967 128.209 167.77 128.357 167.622C128.506 167.474 128.703 167.4 128.926 167.4C129.148 167.4 129.345 167.474 129.494 167.622C129.642 167.77 129.716 167.967 129.716 168.189C129.716 168.411 129.642 168.609 129.494 168.757C129.345 168.929 129.148 169.003 128.926 169.003ZM128.135 171.766C128.135 171.544 128.209 171.372 128.357 171.199C128.506 171.051 128.703 170.977 128.926 170.977C129.148 170.977 129.345 171.051 129.494 171.199C129.642 171.347 129.716 171.544 129.716 171.766V181.56C129.716 181.782 129.642 181.954 129.494 182.127C129.345 182.275 129.148 182.349 128.926 182.349C128.703 182.349 128.53 182.275 128.357 182.127C128.209 181.979 128.135 181.782 128.135 181.56V171.766ZM133.544 181.51C133.544 181.732 133.47 181.905 133.322 182.078C133.174 182.226 132.976 182.3 132.754 182.3C132.532 182.3 132.334 182.226 132.186 182.078C132.038 181.93 131.963 181.732 131.963 181.51V172.876C131.963 172.383 132.112 171.988 132.433 171.742C132.754 171.47 133.124 171.273 133.569 171.15C134.013 171.026 134.483 170.952 134.977 170.928C135.471 170.903 135.89 170.878 136.236 170.878C136.804 170.878 137.348 170.977 137.866 171.174C138.385 171.372 138.83 171.643 139.225 171.988C139.62 172.334 139.916 172.753 140.163 173.222C140.386 173.715 140.509 174.233 140.509 174.801V181.461C140.509 181.708 140.435 181.88 140.287 182.053C140.139 182.201 139.941 182.3 139.719 182.3C139.496 182.3 139.324 182.226 139.175 182.053C139.027 181.905 138.953 181.708 138.953 181.461V174.801C138.953 174.406 138.854 174.061 138.681 173.764C138.509 173.468 138.262 173.222 137.99 173.024C137.693 172.827 137.372 172.679 137.027 172.58C136.656 172.482 136.31 172.432 135.94 172.432C135.742 172.432 135.545 172.432 135.322 172.457C135.1 172.482 134.878 172.506 134.656 172.531C134.433 172.556 134.236 172.58 134.038 172.605C133.841 172.63 133.692 172.654 133.594 172.679V181.51H133.544ZM149.055 172.753C148.684 172.679 148.264 172.605 147.845 172.556C147.4 172.506 147.005 172.506 146.659 172.506H146.412C146.066 172.506 145.72 172.556 145.399 172.679C145.078 172.778 144.807 172.95 144.56 173.148C144.313 173.345 144.115 173.592 143.967 173.888C143.819 174.184 143.745 174.505 143.745 174.85V178.427C143.745 178.797 143.819 179.142 143.967 179.438C144.115 179.734 144.313 179.981 144.56 180.178C144.807 180.376 145.078 180.524 145.399 180.622C145.72 180.721 146.042 180.77 146.412 180.77H146.61C146.98 180.77 147.4 180.746 147.845 180.696C148.289 180.647 148.709 180.598 149.055 180.499V172.753ZM150.66 181.757C150.66 182.3 150.586 182.818 150.463 183.336C150.339 183.854 150.117 184.298 149.796 184.693C149.475 185.087 149.055 185.408 148.487 185.63C147.943 185.877 147.227 186 146.387 186C145.992 186 145.572 185.926 145.177 185.803C144.757 185.679 144.387 185.507 144.066 185.309C143.745 185.112 143.473 184.89 143.251 184.643C143.028 184.397 142.93 184.175 142.93 183.977C142.93 183.755 143.004 183.558 143.177 183.41C143.325 183.262 143.522 183.163 143.745 183.163C143.917 183.163 144.066 183.237 144.214 183.36C144.362 183.484 144.535 183.632 144.708 183.805C144.905 183.953 145.128 184.101 145.399 184.249C145.671 184.372 145.992 184.446 146.412 184.446C146.906 184.446 147.301 184.397 147.622 184.323C147.943 184.224 148.215 184.101 148.437 183.928C148.635 183.755 148.808 183.533 148.882 183.262C148.981 182.99 149.03 182.67 149.079 182.3L149.129 182.078C149.104 182.102 149.055 182.102 149.005 182.127C148.956 182.152 148.931 182.176 148.882 182.176C148.338 182.275 147.869 182.349 147.474 182.374C147.079 182.398 146.708 182.398 146.412 182.398C145.844 182.398 145.301 182.3 144.807 182.102C144.288 181.905 143.843 181.634 143.448 181.288C143.053 180.943 142.732 180.524 142.51 180.055C142.287 179.562 142.164 179.044 142.164 178.451V174.875C142.164 174.258 142.287 173.715 142.51 173.246C142.732 172.778 143.053 172.358 143.448 172.013C143.843 171.668 144.288 171.396 144.807 171.224C145.325 171.051 145.844 170.952 146.412 170.952C146.758 170.952 147.178 170.977 147.672 171.002C148.166 171.026 148.635 171.1 149.079 171.224C149.524 171.347 149.894 171.544 150.216 171.816C150.537 172.087 150.685 172.457 150.685 172.926V181.757H150.66ZM167.159 173.567C167.183 173.592 167.208 173.641 167.208 173.74C167.208 173.962 167.134 174.184 167.01 174.357C166.887 174.529 166.689 174.628 166.418 174.628C166.27 174.628 166.146 174.579 166.047 174.505C165.948 174.406 165.85 174.307 165.776 174.184C165.701 174.06 165.603 173.937 165.529 173.789C165.454 173.641 165.356 173.518 165.232 173.419C164.96 173.148 164.639 172.926 164.269 172.778C163.898 172.63 163.528 172.531 163.182 172.531C162.861 172.531 162.54 172.58 162.244 172.704C161.923 172.802 161.651 172.95 161.404 173.148C161.157 173.32 160.959 173.542 160.811 173.789C160.663 174.036 160.589 174.283 160.589 174.554C160.589 174.751 160.762 174.924 161.083 175.047C161.429 175.171 161.848 175.269 162.342 175.368C162.861 175.467 163.404 175.59 163.997 175.738C164.59 175.886 165.133 176.083 165.652 176.305C166.171 176.552 166.591 176.848 166.912 177.243C167.257 177.637 167.406 178.131 167.406 178.723C167.406 179.29 167.282 179.784 167.035 180.228C166.788 180.672 166.442 181.042 166.047 181.362C165.652 181.683 165.183 181.905 164.689 182.078C164.195 182.25 163.676 182.324 163.182 182.324C162.664 182.324 162.17 182.226 161.7 182.078C161.231 181.905 160.811 181.683 160.441 181.387C160.07 181.091 159.749 180.746 159.502 180.351C159.255 179.956 159.082 179.512 158.983 179.044C158.959 178.994 158.934 178.945 158.934 178.871C158.934 178.649 159.008 178.427 159.132 178.254C159.28 178.081 159.477 177.983 159.724 177.983C159.873 177.983 160.021 178.057 160.169 178.18C160.317 178.303 160.416 178.451 160.49 178.599C160.638 179.216 160.935 179.734 161.404 180.129C161.873 180.524 162.441 180.746 163.108 180.746C163.429 180.746 163.75 180.696 164.071 180.598C164.392 180.499 164.664 180.376 164.911 180.178C165.158 180.006 165.356 179.784 165.529 179.537C165.677 179.29 165.776 179.019 165.776 178.723C165.776 178.328 165.603 178.032 165.257 177.835C164.911 177.613 164.491 177.44 163.997 177.317C163.479 177.169 162.935 177.045 162.342 176.947C161.75 176.848 161.206 176.7 160.712 176.503C160.194 176.305 159.774 176.083 159.453 175.763C159.107 175.467 158.959 175.047 158.959 174.554C158.959 174.011 159.082 173.493 159.329 173.049C159.576 172.605 159.897 172.235 160.317 171.914C160.712 171.594 161.182 171.372 161.676 171.199C162.17 171.026 162.688 170.952 163.182 170.952C163.602 170.952 164.022 171.026 164.442 171.15C164.862 171.273 165.232 171.47 165.578 171.692C165.924 171.914 166.22 172.21 166.492 172.531C166.788 172.802 167.01 173.172 167.159 173.567Z" fill="white"/>
<path fill-rule="evenodd" clip-rule="evenodd" d="M170.641 175.862H176.001C176.001 175.418 175.927 174.974 175.803 174.579C175.68 174.185 175.507 173.839 175.26 173.543C175.037 173.247 174.741 173.025 174.42 172.852C174.099 172.68 173.728 172.606 173.309 172.606C172.913 172.606 172.568 172.68 172.247 172.803C171.925 172.951 171.629 173.124 171.407 173.37C171.16 173.617 170.987 173.888 170.839 174.234C170.691 174.555 170.641 174.925 170.641 175.295V175.862ZM175.334 179.858C175.482 179.686 175.655 179.587 175.902 179.587C176.124 179.587 176.297 179.661 176.47 179.834C176.618 180.006 176.692 180.179 176.692 180.401C176.692 180.475 176.692 180.549 176.668 180.623C176.643 180.697 176.618 180.771 176.544 180.845C175.556 181.832 174.494 182.325 173.333 182.325C172.74 182.325 172.197 182.226 171.678 182.004C171.16 181.782 170.715 181.486 170.32 181.116C169.925 180.746 169.628 180.302 169.406 179.784C169.184 179.266 169.06 178.724 169.06 178.131V175.295C169.06 174.703 169.184 174.16 169.406 173.642C169.628 173.124 169.95 172.68 170.32 172.285C170.715 171.89 171.16 171.594 171.678 171.372C172.197 171.15 172.74 171.027 173.333 171.027C173.926 171.027 174.494 171.15 175.013 171.372C175.531 171.594 176.001 171.94 176.371 172.334C176.766 172.754 177.063 173.247 177.285 173.79C177.507 174.357 177.606 174.974 177.606 175.615C177.606 176.183 177.433 176.651 177.087 176.947C176.742 177.268 176.272 177.416 175.68 177.416H170.814L170.616 177.367L170.666 177.564V178.082C170.666 178.427 170.74 178.773 170.888 179.094C171.036 179.414 171.234 179.686 171.481 179.932C171.728 180.179 172.024 180.376 172.345 180.5C172.666 180.648 173.012 180.722 173.358 180.722C173.877 180.722 174.296 180.623 174.642 180.426C174.939 180.253 175.186 180.056 175.334 179.858ZM181.113 181.56C181.113 181.782 181.039 181.955 180.866 182.128C180.718 182.276 180.52 182.35 180.298 182.35C180.076 182.35 179.903 182.276 179.73 182.128C179.582 181.98 179.508 181.782 179.508 181.56V172.926C179.508 172.433 179.656 172.038 179.977 171.792C180.298 171.52 180.669 171.323 181.113 171.2C181.558 171.076 182.027 171.002 182.496 170.978C182.99 170.953 183.41 170.928 183.781 170.928C184.003 170.928 184.176 171.002 184.349 171.15C184.497 171.298 184.571 171.496 184.571 171.718C184.571 172.038 184.448 172.236 184.225 172.359C183.978 172.458 183.707 172.532 183.361 172.581C183.015 172.606 182.645 172.63 182.225 172.63C181.829 172.63 181.434 172.68 181.089 172.778V181.56H181.113ZM192.425 171.471C192.499 171.249 192.623 171.101 192.845 171.002C193.043 170.904 193.24 170.879 193.438 170.928C193.635 170.978 193.784 171.076 193.907 171.224C194.031 171.372 194.055 171.57 194.006 171.792L193.981 171.89C193.413 173.518 192.82 175.147 192.252 176.824C191.684 178.477 191.091 180.154 190.523 181.807V181.782C190.375 182.152 190.103 182.35 189.733 182.35C189.585 182.35 189.437 182.3 189.288 182.202C189.14 182.103 189.041 181.98 188.992 181.832V181.856L185.485 172.063C185.435 171.841 185.435 171.619 185.51 171.397C185.584 171.175 185.781 171.027 186.078 170.978C186.3 170.928 186.497 170.978 186.67 171.076C186.819 171.175 186.942 171.323 187.016 171.496L189.634 178.97L189.733 179.562L189.832 178.97L192.425 171.471ZM196.278 169.004C196.056 169.004 195.858 168.93 195.71 168.757C195.562 168.609 195.488 168.412 195.488 168.19C195.488 167.968 195.562 167.771 195.71 167.623C195.858 167.475 196.056 167.401 196.278 167.401C196.5 167.401 196.698 167.475 196.846 167.623C196.994 167.771 197.068 167.968 197.068 168.19C197.068 168.412 196.994 168.609 196.846 168.757C196.723 168.93 196.525 169.004 196.278 169.004ZM195.512 171.767C195.512 171.545 195.586 171.372 195.735 171.2C195.883 171.052 196.08 170.978 196.303 170.978C196.525 170.978 196.723 171.052 196.871 171.2C197.019 171.348 197.093 171.545 197.093 171.767V181.56C197.093 181.782 197.019 181.955 196.871 182.128C196.723 182.3 196.525 182.35 196.303 182.35C196.08 182.35 195.908 182.276 195.735 182.128C195.586 181.98 195.512 181.782 195.512 181.56V171.767ZM205.589 179.858C205.738 179.686 205.91 179.587 206.157 179.587C206.404 179.587 206.602 179.661 206.725 179.834C206.874 180.006 206.923 180.179 206.923 180.376C206.923 180.574 206.849 180.746 206.725 180.894C206.33 181.363 205.861 181.708 205.342 181.98C204.824 182.226 204.206 182.35 203.564 182.35C202.996 182.35 202.453 182.251 201.934 182.029C201.415 181.807 200.971 181.511 200.6 181.116C200.205 180.722 199.909 180.278 199.686 179.76C199.464 179.242 199.341 178.699 199.341 178.131V175.27C199.341 174.678 199.439 174.135 199.662 173.617C199.884 173.099 200.18 172.655 200.551 172.26C200.921 171.866 201.366 171.57 201.885 171.348C202.403 171.126 202.947 171.027 203.515 171.027C203.984 171.027 204.404 171.076 204.75 171.2C205.12 171.298 205.416 171.446 205.688 171.594C205.96 171.742 206.157 171.915 206.33 172.063C206.503 172.236 206.627 172.359 206.725 172.482C206.874 172.63 206.923 172.803 206.923 173C206.923 173.173 206.849 173.346 206.701 173.518C206.553 173.691 206.355 173.765 206.133 173.765C205.886 173.765 205.688 173.666 205.565 173.494L205.466 173.42C205.392 173.346 205.318 173.247 205.219 173.148C205.12 173.05 204.997 172.976 204.848 172.902C204.7 172.828 204.527 172.754 204.305 172.704C204.107 172.655 203.86 172.63 203.564 172.63C203.218 172.63 202.873 172.704 202.551 172.828C202.23 172.976 201.934 173.148 201.687 173.395C201.44 173.642 201.242 173.913 201.094 174.234C200.946 174.555 200.872 174.9 200.872 175.27V178.131C200.872 178.501 200.946 178.847 201.094 179.168C201.242 179.488 201.44 179.784 201.687 180.006C201.934 180.253 202.23 180.426 202.551 180.574C202.873 180.697 203.243 180.771 203.613 180.771C203.959 180.771 204.33 180.697 204.676 180.574C205.046 180.401 205.342 180.179 205.589 179.858ZM209.788 175.862H215.148C215.148 175.418 215.098 174.974 214.95 174.579C214.827 174.185 214.654 173.839 214.407 173.543C214.184 173.247 213.888 173.025 213.567 172.852C213.246 172.68 212.875 172.606 212.455 172.606C212.06 172.606 211.715 172.68 211.393 172.803C211.072 172.951 210.776 173.124 210.554 173.37C210.307 173.617 210.134 173.888 209.986 174.234C209.837 174.555 209.788 174.925 209.788 175.295V175.862ZM214.456 179.858C214.604 179.686 214.777 179.587 215.024 179.587C215.246 179.587 215.419 179.661 215.592 179.834C215.74 180.006 215.814 180.179 215.814 180.401C215.814 180.475 215.814 180.549 215.79 180.623C215.765 180.697 215.74 180.771 215.666 180.845C214.678 181.832 213.616 182.325 212.455 182.325C211.863 182.325 211.319 182.226 210.801 182.004C210.282 181.782 209.837 181.486 209.442 181.116C209.047 180.746 208.751 180.302 208.528 179.784C208.306 179.266 208.183 178.724 208.183 178.131V175.295C208.183 174.703 208.306 174.16 208.528 173.642C208.751 173.124 209.072 172.68 209.442 172.285C209.837 171.89 210.282 171.594 210.801 171.372C211.319 171.15 211.863 171.027 212.455 171.027C213.048 171.027 213.616 171.15 214.135 171.372C214.654 171.594 215.123 171.94 215.493 172.334C215.889 172.754 216.185 173.247 216.407 173.79C216.63 174.357 216.728 174.974 216.728 175.615C216.728 176.183 216.555 176.651 216.21 176.947C215.864 177.268 215.395 177.416 214.802 177.416H209.936L209.739 177.367L209.788 177.564V178.082C209.788 178.427 209.862 178.773 210.01 179.094C210.159 179.414 210.356 179.686 210.603 179.932C210.85 180.179 211.146 180.376 211.468 180.5C211.789 180.648 212.134 180.722 212.48 180.722C212.999 180.722 213.419 180.623 213.765 180.426C214.086 180.253 214.308 180.056 214.456 179.858Z" fill="white"/>
</svg>
