<svg width="1920" height="1555" viewBox="0 0 1920 1555" fill="none" xmlns="http://www.w3.org/2000/svg">
<path d="M959.824 777.457L1045.39 728.906L1130.8 777.543L1045.24 826.094L959.824 777.457Z" stroke="#D3F3FF" stroke-width="2"/>
<path d="M959.824 1554.96L1045.39 1506.41L1130.8 1555.04L1045.24 1603.59L959.824 1554.96Z" stroke="#D3F3FF" stroke-width="2"/>
<path d="M959.824 -0.0433564L1045.39 -48.5938L1130.8 0.0433535L1045.24 48.5937L959.824 -0.0433564Z" stroke="#D3F3FF" stroke-width="2"/>
<path d="M1643.74 1166.21L1729.3 1117.66L1814.71 1166.29L1729.15 1214.84L1643.74 1166.21Z" stroke="#D3F3FF" stroke-width="2"/>
<path d="M275.912 388.707L361.477 340.156L446.89 388.793L361.325 437.344L275.912 388.707Z" stroke="#D3F3FF" stroke-width="2"/>
<path d="M1643.74 388.707L1729.3 340.156L1814.71 388.793L1729.15 437.344L1643.74 388.707Z" stroke="#D3F3FF" stroke-width="2"/>
<path d="M275.912 1166.21L361.477 1117.66L446.89 1166.29L361.325 1214.84L275.912 1166.21Z" stroke="#D3F3FF" stroke-width="2"/>
<path d="M1643.74 777.457L1729.3 728.906L1814.71 777.543L1729.15 826.094L1643.74 777.457Z" stroke="#D3F3FF" stroke-width="2"/>
<path d="M275.912 1554.96L361.477 1506.41L446.89 1555.04L361.325 1603.59L275.912 1554.96Z" stroke="#D3F3FF" stroke-width="2"/>
<path d="M275.912 -0.0433564L361.477 -48.5938L446.89 0.0433535L361.325 48.5937L275.912 -0.0433564Z" stroke="#D3F3FF" stroke-width="2"/>
<path d="M275.912 777.457L361.477 728.906L446.89 777.543L361.325 826.094L275.912 777.457Z" stroke="#D3F3FF" stroke-width="2"/>
<path d="M1643.74 1554.96L1729.3 1506.41L1814.71 1555.04L1729.15 1603.59L1643.74 1554.96Z" stroke="#D3F3FF" stroke-width="2"/>
<path d="M1643.74 -0.0433564L1729.3 -48.5938L1814.71 0.0433535L1729.15 48.5937L1643.74 -0.0433564Z" stroke="#D3F3FF" stroke-width="2"/>
<path d="M959.824 388.707L1045.39 340.156L1130.8 388.793L1045.24 437.344L959.824 388.707Z" stroke="#D3F3FF" stroke-width="2"/>
<path d="M959.824 1166.21L1045.39 1117.66L1130.8 1166.29L1045.24 1214.84L959.824 1166.21Z" stroke="#D3F3FF" stroke-width="2"/>
<path d="M1301.78 971.832L1387.35 923.281L1472.76 971.918L1387.19 1020.47L1301.78 971.832Z" stroke="#D3F3FF" stroke-width="2"/>
<path d="M-66.0441 194.332L19.5212 145.781L104.934 194.418L19.3687 242.969L-66.0441 194.332Z" stroke="#D3F3FF" stroke-width="2"/>
<path d="M-66.0441 971.832L19.5212 923.281L104.934 971.918L19.3687 1020.47L-66.0441 971.832Z" stroke="#D3F3FF" stroke-width="2"/>
<path d="M1301.78 194.332L1387.35 145.781L1472.76 194.418L1387.19 242.969L1301.78 194.332Z" stroke="#D3F3FF" stroke-width="2"/>
<path d="M617.868 583.082L703.433 534.531L788.846 583.168L703.281 631.719L617.868 583.082Z" stroke="#D3F3FF" stroke-width="2"/>
<path d="M617.868 1360.58L703.433 1312.03L788.846 1360.67L703.281 1409.22L617.868 1360.58Z" stroke="#D3F3FF" stroke-width="2"/>
<path d="M1301.78 583.082L1387.35 534.531L1472.76 583.168L1387.19 631.719L1301.78 583.082Z" stroke="#D3F3FF" stroke-width="2"/>
<path d="M-66.0441 1360.58L19.5212 1312.03L104.934 1360.67L19.3687 1409.22L-66.0441 1360.58Z" stroke="#D3F3FF" stroke-width="2"/>
<path d="M-66.0441 583.082L19.5212 534.531L104.934 583.168L19.3687 631.719L-66.0441 583.082Z" stroke="#D3F3FF" stroke-width="2"/>
<path d="M1301.78 1360.58L1387.35 1312.03L1472.76 1360.67L1387.19 1409.22L1301.78 1360.58Z" stroke="#D3F3FF" stroke-width="2"/>
<path d="M617.868 194.332L703.433 145.781L788.846 194.418L703.281 242.969L617.868 194.332Z" stroke="#D3F3FF" stroke-width="2"/>
<path d="M617.868 971.832L703.433 923.281L788.846 971.918L703.281 1020.47L617.868 971.832Z" stroke="#D3F3FF" stroke-width="2"/>
<path d="M1130.8 874.644L1216.37 826.094L1301.78 874.731L1216.21 923.281L1130.8 874.644Z" stroke="#D3F3FF" stroke-width="2"/>
<path d="M1130.8 97.1441L1216.37 48.5938L1301.78 97.2309L1216.21 145.781L1130.8 97.1441Z" stroke="#D3F3FF" stroke-width="2"/>
<path d="M1814.71 1263.39L1900.28 1214.84L1985.69 1263.48L1900.13 1312.03L1814.71 1263.39Z" stroke="#D3F3FF" stroke-width="2"/>
<path d="M446.89 485.894L532.455 437.344L617.868 485.981L532.303 534.531L446.89 485.894Z" stroke="#D3F3FF" stroke-width="2"/>
<path d="M1814.71 485.894L1900.28 437.344L1985.69 485.981L1900.13 534.531L1814.71 485.894Z" stroke="#D3F3FF" stroke-width="2"/>
<path d="M446.89 1263.39L532.455 1214.84L617.868 1263.48L532.303 1312.03L446.89 1263.39Z" stroke="#D3F3FF" stroke-width="2"/>
<path d="M1814.71 874.644L1900.28 826.094L1985.69 874.731L1900.13 923.281L1814.71 874.644Z" stroke="#D3F3FF" stroke-width="2"/>
<path d="M446.89 97.1441L532.455 48.5938L617.868 97.2309L532.303 145.781L446.89 97.1441Z" stroke="#D3F3FF" stroke-width="2"/>
<path d="M446.89 874.644L532.455 826.094L617.868 874.731L532.303 923.281L446.89 874.644Z" stroke="#D3F3FF" stroke-width="2"/>
<path d="M1814.71 97.1441L1900.28 48.5938L1985.69 97.2309L1900.13 145.781L1814.71 97.1441Z" stroke="#D3F3FF" stroke-width="2"/>
<path d="M1130.8 485.894L1216.37 437.344L1301.78 485.981L1216.21 534.531L1130.8 485.894Z" stroke="#D3F3FF" stroke-width="2"/>
<path d="M1130.8 1263.39L1216.37 1214.84L1301.78 1263.48L1216.21 1312.03L1130.8 1263.39Z" stroke="#D3F3FF" stroke-width="2"/>
<path d="M1472.76 1069.02L1558.32 1020.47L1643.74 1069.11L1558.17 1117.66L1472.76 1069.02Z" stroke="#D3F3FF" stroke-width="2"/>
<path d="M104.934 291.519L190.499 242.969L275.912 291.606L190.347 340.156L104.934 291.519Z" stroke="#D3F3FF" stroke-width="2"/>
<path d="M104.934 1069.02L190.499 1020.47L275.912 1069.11L190.347 1117.66L104.934 1069.02Z" stroke="#D3F3FF" stroke-width="2"/>
<path d="M1472.76 291.519L1558.32 242.969L1643.74 291.606L1558.17 340.156L1472.76 291.519Z" stroke="#D3F3FF" stroke-width="2"/>
<path d="M788.846 680.269L874.411 631.719L959.824 680.356L874.259 728.906L788.846 680.269Z" stroke="#D3F3FF" stroke-width="2"/>
<path d="M788.846 1457.77L874.411 1409.22L959.824 1457.86L874.259 1506.41L788.846 1457.77Z" stroke="#D3F3FF" stroke-width="2"/>
<path d="M1472.76 680.269L1558.32 631.719L1643.74 680.356L1558.17 728.906L1472.76 680.269Z" stroke="#D3F3FF" stroke-width="2"/>
<path d="M104.934 1457.77L190.499 1409.22L275.912 1457.86L190.347 1506.41L104.934 1457.77Z" stroke="#D3F3FF" stroke-width="2"/>
<path d="M104.934 680.269L190.499 631.719L275.912 680.356L190.347 728.906L104.934 680.269Z" stroke="#D3F3FF" stroke-width="2"/>
<path d="M1472.76 1457.77L1558.32 1409.22L1643.74 1457.86L1558.17 1506.41L1472.76 1457.77Z" stroke="#D3F3FF" stroke-width="2"/>
<path d="M788.846 291.519L874.411 242.969L959.824 291.606L874.259 340.156L788.846 291.519Z" stroke="#D3F3FF" stroke-width="2"/>
<path d="M788.846 1069.02L874.411 1020.47L959.824 1069.11L874.259 1117.66L788.846 1069.02Z" stroke="#D3F3FF" stroke-width="2"/>
<path d="M1130.8 680.269L1216.37 631.719L1301.78 680.356L1216.21 728.906L1130.8 680.269Z" stroke="#D3F3FF" stroke-width="2"/>
<path d="M1130.8 1457.77L1216.37 1409.22L1301.78 1457.86L1216.21 1506.41L1130.8 1457.77Z" stroke="#D3F3FF" stroke-width="2"/>
<path d="M1814.71 1069.02L1900.28 1020.47L1985.69 1069.11L1900.13 1117.66L1814.71 1069.02Z" stroke="#D3F3FF" stroke-width="2"/>
<path d="M446.89 291.519L532.455 242.969L617.868 291.606L532.303 340.156L446.89 291.519Z" stroke="#D3F3FF" stroke-width="2"/>
<path d="M1814.71 291.519L1900.28 242.969L1985.69 291.606L1900.13 340.156L1814.71 291.519Z" stroke="#D3F3FF" stroke-width="2"/>
<path d="M446.89 1069.02L532.455 1020.47L617.868 1069.11L532.303 1117.66L446.89 1069.02Z" stroke="#D3F3FF" stroke-width="2"/>
<path d="M1814.71 680.269L1900.28 631.719L1985.69 680.356L1900.13 728.906L1814.71 680.269Z" stroke="#D3F3FF" stroke-width="2"/>
<path d="M446.89 1457.77L532.455 1409.22L617.868 1457.86L532.303 1506.41L446.89 1457.77Z" stroke="#D3F3FF" stroke-width="2"/>
<path d="M446.89 680.269L532.455 631.719L617.868 680.356L532.303 728.906L446.89 680.269Z" stroke="#D3F3FF" stroke-width="2"/>
<path d="M1814.71 1457.77L1900.28 1409.22L1985.69 1457.86L1900.13 1506.41L1814.71 1457.77Z" stroke="#D3F3FF" stroke-width="2"/>
<path d="M1130.8 291.519L1216.37 242.969L1301.78 291.606L1216.21 340.156L1130.8 291.519Z" stroke="#D3F3FF" stroke-width="2"/>
<path d="M1130.8 1069.02L1216.37 1020.47L1301.78 1069.11L1216.21 1117.66L1130.8 1069.02Z" stroke="#D3F3FF" stroke-width="2"/>
<path d="M1472.76 874.644L1558.32 826.094L1643.74 874.731L1558.17 923.281L1472.76 874.644Z" stroke="#D3F3FF" stroke-width="2"/>
<path d="M104.934 97.1441L190.499 48.5938L275.912 97.2309L190.347 145.781L104.934 97.1441Z" stroke="#D3F3FF" stroke-width="2"/>
<path d="M104.934 874.644L190.499 826.094L275.912 874.731L190.347 923.281L104.934 874.644Z" stroke="#D3F3FF" stroke-width="2"/>
<path d="M1472.76 97.1441L1558.32 48.5938L1643.74 97.2309L1558.17 145.781L1472.76 97.1441Z" stroke="#D3F3FF" stroke-width="2"/>
<path d="M788.846 485.894L874.411 437.344L959.824 485.981L874.259 534.531L788.846 485.894Z" stroke="#D3F3FF" stroke-width="2"/>
<path d="M788.846 1263.39L874.411 1214.84L959.824 1263.48L874.259 1312.03L788.846 1263.39Z" stroke="#D3F3FF" stroke-width="2"/>
<path d="M1472.76 485.894L1558.32 437.344L1643.74 485.981L1558.17 534.531L1472.76 485.894Z" stroke="#D3F3FF" stroke-width="2"/>
<path d="M104.934 1263.39L190.499 1214.84L275.912 1263.48L190.347 1312.03L104.934 1263.39Z" stroke="#D3F3FF" stroke-width="2"/>
<path d="M104.934 485.894L190.499 437.344L275.912 485.981L190.347 534.531L104.934 485.894Z" stroke="#D3F3FF" stroke-width="2"/>
<path d="M1472.76 1263.39L1558.32 1214.84L1643.74 1263.48L1558.17 1312.03L1472.76 1263.39Z" stroke="#D3F3FF" stroke-width="2"/>
<path d="M788.846 97.1441L874.411 48.5938L959.824 97.2309L874.259 145.781L788.846 97.1441Z" stroke="#D3F3FF" stroke-width="2"/>
<path d="M788.846 874.644L874.411 826.094L959.824 874.731L874.259 923.281L788.846 874.644Z" stroke="#D3F3FF" stroke-width="2"/>
<path d="M1301.78 777.457L1387.35 728.906L1472.76 777.543L1387.19 826.094L1301.78 777.457Z" stroke="#D3F3FF" stroke-width="2"/>
<path d="M-66.0441 1554.96L19.5212 1506.41L104.934 1555.04L19.3687 1603.59L-66.0441 1554.96Z" stroke="#D3F3FF" stroke-width="2"/>
<path d="M-66.0441 -0.0433564L19.5212 -48.5938L104.934 0.0433535L19.3687 48.5937L-66.0441 -0.0433564Z" stroke="#D3F3FF" stroke-width="2"/>
<path d="M-66.0441 777.457L19.5212 728.906L104.934 777.543L19.3687 826.094L-66.0441 777.457Z" stroke="#D3F3FF" stroke-width="2"/>
<path d="M1301.78 1554.96L1387.35 1506.41L1472.76 1555.04L1387.19 1603.59L1301.78 1554.96Z" stroke="#D3F3FF" stroke-width="2"/>
<path d="M1301.78 -0.0433564L1387.35 -48.5938L1472.76 0.0433535L1387.19 48.5937L1301.78 -0.0433564Z" stroke="#D3F3FF" stroke-width="2"/>
<path d="M617.868 388.707L703.433 340.156L788.846 388.793L703.281 437.344L617.868 388.707Z" stroke="#D3F3FF" stroke-width="2"/>
<path d="M617.868 1166.21L703.433 1117.66L788.846 1166.29L703.281 1214.84L617.868 1166.21Z" stroke="#D3F3FF" stroke-width="2"/>
<path d="M617.868 1554.96L703.433 1506.41L788.846 1555.04L703.281 1603.59L617.868 1554.96Z" stroke="#D3F3FF" stroke-width="2"/>
<path d="M617.868 -0.0433564L703.433 -48.5938L788.846 0.0433535L703.281 48.5937L617.868 -0.0433564Z" stroke="#D3F3FF" stroke-width="2"/>
<path d="M617.868 777.457L703.433 728.906L788.846 777.543L703.281 826.094L617.868 777.457Z" stroke="#D3F3FF" stroke-width="2"/>
<path d="M-66.0441 1166.21L19.5212 1117.66L104.934 1166.29L19.3687 1214.84L-66.0441 1166.21Z" stroke="#D3F3FF" stroke-width="2"/>
<path d="M1301.78 388.707L1387.35 340.156L1472.76 388.793L1387.19 437.344L1301.78 388.707Z" stroke="#D3F3FF" stroke-width="2"/>
<path d="M-66.0441 388.707L19.5212 340.156L104.934 388.793L19.3687 437.344L-66.0441 388.707Z" stroke="#D3F3FF" stroke-width="2"/>
<path d="M1301.78 1166.21L1387.35 1117.66L1472.76 1166.29L1387.19 1214.84L1301.78 1166.21Z" stroke="#D3F3FF" stroke-width="2"/>
<path d="M1643.74 971.832L1729.3 923.281L1814.71 971.918L1729.15 1020.47L1643.74 971.832Z" stroke="#D3F3FF" stroke-width="2"/>
<path d="M275.912 194.332L361.477 145.781L446.89 194.418L361.325 242.969L275.912 194.332Z" stroke="#D3F3FF" stroke-width="2"/>
<path d="M275.912 971.832L361.477 923.281L446.89 971.918L361.325 1020.47L275.912 971.832Z" stroke="#D3F3FF" stroke-width="2"/>
<path d="M1643.74 194.332L1729.3 145.781L1814.71 194.418L1729.15 242.969L1643.74 194.332Z" stroke="#D3F3FF" stroke-width="2"/>
<path d="M959.824 583.082L1045.39 534.531L1130.8 583.168L1045.24 631.719L959.824 583.082Z" stroke="#D3F3FF" stroke-width="2"/>
<path d="M959.824 1360.58L1045.39 1312.03L1130.8 1360.67L1045.24 1409.22L959.824 1360.58Z" stroke="#D3F3FF" stroke-width="2"/>
<path d="M1643.74 583.082L1729.3 534.531L1814.71 583.168L1729.15 631.719L1643.74 583.082Z" stroke="#D3F3FF" stroke-width="2"/>
<path d="M275.912 1360.58L361.477 1312.03L446.89 1360.67L361.325 1409.22L275.912 1360.58Z" stroke="#D3F3FF" stroke-width="2"/>
<path d="M275.912 583.082L361.477 534.531L446.89 583.168L361.325 631.719L275.912 583.082Z" stroke="#D3F3FF" stroke-width="2"/>
<path d="M1643.74 1360.58L1729.3 1312.03L1814.71 1360.67L1729.15 1409.22L1643.74 1360.58Z" stroke="#D3F3FF" stroke-width="2"/>
<path d="M959.824 194.332L1045.39 145.781L1130.8 194.418L1045.24 242.969L959.824 194.332Z" stroke="#D3F3FF" stroke-width="2"/>
<path d="M959.824 971.832L1045.39 923.281L1130.8 971.918L1045.24 1020.47L959.824 971.832Z" stroke="#D3F3FF" stroke-width="2"/>
<path d="M1045.39 728.863L1130.95 680.312L1216.37 728.95L1130.8 777.5L1045.39 728.863Z" stroke="#D3F3FF" stroke-width="2"/>
<path d="M1045.39 1506.36L1130.95 1457.81L1216.37 1506.45L1130.8 1555L1045.39 1506.36Z" stroke="#D3F3FF" stroke-width="2"/>
<path d="M1045.39 -48.6371L1130.95 -97.1875L1216.37 -48.5504L1130.8 2.6226e-06L1045.39 -48.6371Z" stroke="#D3F3FF" stroke-width="2"/>
<path d="M1729.3 1117.61L1814.87 1069.06L1900.28 1117.7L1814.71 1166.25L1729.3 1117.61Z" stroke="#D3F3FF" stroke-width="2"/>
<path d="M361.478 340.113L447.043 291.562L532.456 340.2L446.89 388.75L361.478 340.113Z" stroke="#D3F3FF" stroke-width="2"/>
<path d="M1729.3 340.113L1814.87 291.562L1900.28 340.2L1814.71 388.75L1729.3 340.113Z" stroke="#D3F3FF" stroke-width="2"/>
<path d="M361.478 1117.61L447.043 1069.06L532.456 1117.7L446.89 1166.25L361.478 1117.61Z" stroke="#D3F3FF" stroke-width="2"/>
<path d="M1729.3 728.863L1814.87 680.312L1900.28 728.95L1814.71 777.5L1729.3 728.863Z" stroke="#D3F3FF" stroke-width="2"/>
<path d="M361.478 1506.36L447.043 1457.81L532.456 1506.45L446.89 1555L361.478 1506.36Z" stroke="#D3F3FF" stroke-width="2"/>
<path d="M361.478 -48.6371L447.043 -97.1875L532.456 -48.5504L446.89 2.6226e-06L361.478 -48.6371Z" stroke="#D3F3FF" stroke-width="2"/>
<path d="M361.478 728.863L447.043 680.312L532.456 728.95L446.89 777.5L361.478 728.863Z" stroke="#D3F3FF" stroke-width="2"/>
<path d="M1729.3 1506.36L1814.87 1457.81L1900.28 1506.45L1814.71 1555L1729.3 1506.36Z" stroke="#D3F3FF" stroke-width="2"/>
<path d="M1729.3 -48.6371L1814.87 -97.1875L1900.28 -48.5504L1814.71 2.6226e-06L1729.3 -48.6371Z" stroke="#D3F3FF" stroke-width="2"/>
<path d="M1045.39 340.113L1130.95 291.562L1216.37 340.2L1130.8 388.75L1045.39 340.113Z" stroke="#D3F3FF" stroke-width="2"/>
<path d="M1045.39 1117.61L1130.95 1069.06L1216.37 1117.7L1130.8 1166.25L1045.39 1117.61Z" stroke="#D3F3FF" stroke-width="2"/>
<path d="M1387.35 923.238L1472.91 874.688L1558.32 923.325L1472.76 971.875L1387.35 923.238Z" stroke="#D3F3FF" stroke-width="2"/>
<path d="M19.5215 145.738L105.087 97.1875L190.499 145.825L104.934 194.375L19.5215 145.738Z" stroke="#D3F3FF" stroke-width="2"/>
<path d="M19.5215 923.238L105.087 874.688L190.499 923.325L104.934 971.875L19.5215 923.238Z" stroke="#D3F3FF" stroke-width="2"/>
<path d="M1387.35 145.738L1472.91 97.1875L1558.32 145.825L1472.76 194.375L1387.35 145.738Z" stroke="#D3F3FF" stroke-width="2"/>
<path d="M703.433 534.488L788.999 485.938L874.411 534.575L788.846 583.125L703.433 534.488Z" stroke="#D3F3FF" stroke-width="2"/>
<path d="M703.433 1311.99L788.999 1263.44L874.411 1312.07L788.846 1360.63L703.433 1311.99Z" stroke="#D3F3FF" stroke-width="2"/>
<path d="M1387.35 534.488L1472.91 485.938L1558.32 534.575L1472.76 583.125L1387.35 534.488Z" stroke="#D3F3FF" stroke-width="2"/>
<path d="M19.5215 1311.99L105.087 1263.44L190.499 1312.07L104.934 1360.63L19.5215 1311.99Z" stroke="#D3F3FF" stroke-width="2"/>
<path d="M19.5215 534.488L105.087 485.938L190.499 534.575L104.934 583.125L19.5215 534.488Z" stroke="#D3F3FF" stroke-width="2"/>
<path d="M1387.35 1311.99L1472.91 1263.44L1558.32 1312.07L1472.76 1360.63L1387.35 1311.99Z" stroke="#D3F3FF" stroke-width="2"/>
<path d="M703.433 145.738L788.999 97.1875L874.411 145.825L788.846 194.375L703.433 145.738Z" stroke="#D3F3FF" stroke-width="2"/>
<path d="M703.433 923.238L788.999 874.688L874.411 923.325L788.846 971.875L703.433 923.238Z" stroke="#D3F3FF" stroke-width="2"/>
<path d="M1216.37 826.05L1301.93 777.5L1387.35 826.137L1301.78 874.688L1216.37 826.05Z" stroke="#D3F3FF" stroke-width="2"/>
<path d="M-151.457 1603.55L-65.8913 1555L19.5214 1603.64L-66.0438 1652.19L-151.457 1603.55Z" stroke="#D3F3FF" stroke-width="2"/>
<path d="M-151.457 48.5504L-65.8913 0L19.5214 48.6371L-66.0438 97.1875L-151.457 48.5504Z" stroke="#D3F3FF" stroke-width="2"/>
<path d="M-151.457 826.05L-65.8913 777.5L19.5214 826.137L-66.0438 874.688L-151.457 826.05Z" stroke="#D3F3FF" stroke-width="2"/>
<path d="M1216.37 1603.55L1301.93 1555L1387.35 1603.64L1301.78 1652.19L1216.37 1603.55Z" stroke="#D3F3FF" stroke-width="2"/>
<path d="M1216.37 48.5504L1301.93 0L1387.35 48.6371L1301.78 97.1875L1216.37 48.5504Z" stroke="#D3F3FF" stroke-width="2"/>
<path d="M1900.28 1214.8L1985.85 1166.25L2071.26 1214.89L1985.69 1263.44L1900.28 1214.8Z" stroke="#D3F3FF" stroke-width="2"/>
<path d="M532.456 437.3L618.021 388.75L703.434 437.387L617.868 485.938L532.456 437.3Z" stroke="#D3F3FF" stroke-width="2"/>
<path d="M1900.28 437.3L1985.85 388.75L2071.26 437.387L1985.69 485.938L1900.28 437.3Z" stroke="#D3F3FF" stroke-width="2"/>
<path d="M532.456 1214.8L618.021 1166.25L703.434 1214.89L617.868 1263.44L532.456 1214.8Z" stroke="#D3F3FF" stroke-width="2"/>
<path d="M1900.28 826.05L1985.85 777.5L2071.26 826.137L1985.69 874.688L1900.28 826.05Z" stroke="#D3F3FF" stroke-width="2"/>
<path d="M532.456 1603.55L618.021 1555L703.434 1603.64L617.868 1652.19L532.456 1603.55Z" stroke="#D3F3FF" stroke-width="2"/>
<path d="M532.456 48.5504L618.021 0L703.434 48.6371L617.868 97.1875L532.456 48.5504Z" stroke="#D3F3FF" stroke-width="2"/>
<path d="M532.456 826.05L618.021 777.5L703.434 826.137L617.868 874.688L532.456 826.05Z" stroke="#D3F3FF" stroke-width="2"/>
<path d="M1900.28 1603.55L1985.85 1555L2071.26 1603.64L1985.69 1652.19L1900.28 1603.55Z" stroke="#D3F3FF" stroke-width="2"/>
<path d="M1900.28 48.5504L1985.85 0L2071.26 48.6371L1985.69 97.1875L1900.28 48.5504Z" stroke="#D3F3FF" stroke-width="2"/>
<path d="M-151.457 1214.8L-65.8913 1166.25L19.5214 1214.89L-66.0438 1263.44L-151.457 1214.8Z" stroke="#D3F3FF" stroke-width="2"/>
<path d="M1216.37 437.3L1301.93 388.75L1387.35 437.387L1301.78 485.938L1216.37 437.3Z" stroke="#D3F3FF" stroke-width="2"/>
<path d="M-151.457 437.3L-65.8913 388.75L19.5214 437.387L-66.0438 485.938L-151.457 437.3Z" stroke="#D3F3FF" stroke-width="2"/>
<path d="M1216.37 1214.8L1301.93 1166.25L1387.35 1214.89L1301.78 1263.44L1216.37 1214.8Z" stroke="#D3F3FF" stroke-width="2"/>
<path d="M1558.32 1020.43L1643.89 971.875L1729.3 1020.51L1643.74 1069.06L1558.32 1020.43Z" stroke="#D3F3FF" stroke-width="2"/>
<path d="M190.499 242.925L276.065 194.375L361.477 243.012L275.912 291.563L190.499 242.925Z" stroke="#D3F3FF" stroke-width="2"/>
<path d="M190.499 1020.43L276.065 971.875L361.477 1020.51L275.912 1069.06L190.499 1020.43Z" stroke="#D3F3FF" stroke-width="2"/>
<path d="M1558.32 242.925L1643.89 194.375L1729.3 243.012L1643.74 291.563L1558.32 242.925Z" stroke="#D3F3FF" stroke-width="2"/>
<path d="M874.411 631.675L959.977 583.125L1045.39 631.762L959.824 680.313L874.411 631.675Z" stroke="#D3F3FF" stroke-width="2"/>
<path d="M874.411 1409.18L959.977 1360.62L1045.39 1409.26L959.824 1457.81L874.411 1409.18Z" stroke="#D3F3FF" stroke-width="2"/>
<path d="M1558.32 631.675L1643.89 583.125L1729.3 631.762L1643.74 680.313L1558.32 631.675Z" stroke="#D3F3FF" stroke-width="2"/>
<path d="M190.499 1409.18L276.065 1360.62L361.477 1409.26L275.912 1457.81L190.499 1409.18Z" stroke="#D3F3FF" stroke-width="2"/>
<path d="M190.499 631.675L276.065 583.125L361.477 631.762L275.912 680.313L190.499 631.675Z" stroke="#D3F3FF" stroke-width="2"/>
<path d="M1558.32 1409.18L1643.89 1360.62L1729.3 1409.26L1643.74 1457.81L1558.32 1409.18Z" stroke="#D3F3FF" stroke-width="2"/>
<path d="M874.411 242.925L959.977 194.375L1045.39 243.012L959.824 291.563L874.411 242.925Z" stroke="#D3F3FF" stroke-width="2"/>
<path d="M874.411 1020.43L959.977 971.875L1045.39 1020.51L959.824 1069.06L874.411 1020.43Z" stroke="#D3F3FF" stroke-width="2"/>
<path d="M1216.37 631.675L1301.93 583.125L1387.35 631.762L1301.78 680.313L1216.37 631.675Z" stroke="#D3F3FF" stroke-width="2"/>
<path d="M-151.457 1409.18L-65.8913 1360.62L19.5214 1409.26L-66.0438 1457.81L-151.457 1409.18Z" stroke="#D3F3FF" stroke-width="2"/>
<path d="M-151.457 631.675L-65.8913 583.125L19.5214 631.762L-66.0438 680.313L-151.457 631.675Z" stroke="#D3F3FF" stroke-width="2"/>
<path d="M1216.37 1409.18L1301.93 1360.62L1387.35 1409.26L1301.78 1457.81L1216.37 1409.18Z" stroke="#D3F3FF" stroke-width="2"/>
<path d="M1900.28 1020.43L1985.85 971.875L2071.26 1020.51L1985.69 1069.06L1900.28 1020.43Z" stroke="#D3F3FF" stroke-width="2"/>
<path d="M532.456 242.925L618.021 194.375L703.434 243.012L617.868 291.563L532.456 242.925Z" stroke="#D3F3FF" stroke-width="2"/>
<path d="M1900.28 242.925L1985.85 194.375L2071.26 243.012L1985.69 291.563L1900.28 242.925Z" stroke="#D3F3FF" stroke-width="2"/>
<path d="M532.456 1020.43L618.021 971.875L703.434 1020.51L617.868 1069.06L532.456 1020.43Z" stroke="#D3F3FF" stroke-width="2"/>
<path d="M1900.28 631.675L1985.85 583.125L2071.26 631.762L1985.69 680.313L1900.28 631.675Z" stroke="#D3F3FF" stroke-width="2"/>
<path d="M532.456 1409.18L618.021 1360.62L703.434 1409.26L617.868 1457.81L532.456 1409.18Z" stroke="#D3F3FF" stroke-width="2"/>
<path d="M532.456 631.675L618.021 583.125L703.434 631.762L617.868 680.313L532.456 631.675Z" stroke="#D3F3FF" stroke-width="2"/>
<path d="M1900.28 1409.18L1985.85 1360.62L2071.26 1409.26L1985.69 1457.81L1900.28 1409.18Z" stroke="#D3F3FF" stroke-width="2"/>
<path d="M-151.457 1020.43L-65.8913 971.875L19.5214 1020.51L-66.0438 1069.06L-151.457 1020.43Z" stroke="#D3F3FF" stroke-width="2"/>
<path d="M1216.37 242.925L1301.93 194.375L1387.35 243.012L1301.78 291.563L1216.37 242.925Z" stroke="#D3F3FF" stroke-width="2"/>
<path d="M-151.457 242.925L-65.8913 194.375L19.5214 243.012L-66.0438 291.563L-151.457 242.925Z" stroke="#D3F3FF" stroke-width="2"/>
<path d="M1216.37 1020.43L1301.93 971.875L1387.35 1020.51L1301.78 1069.06L1216.37 1020.43Z" stroke="#D3F3FF" stroke-width="2"/>
<path d="M1558.32 826.05L1643.89 777.5L1729.3 826.137L1643.74 874.688L1558.32 826.05Z" stroke="#D3F3FF" stroke-width="2"/>
<path d="M190.499 1603.55L276.065 1555L361.477 1603.64L275.912 1652.19L190.499 1603.55Z" stroke="#D3F3FF" stroke-width="2"/>
<path d="M190.499 48.5504L276.065 0L361.477 48.6371L275.912 97.1875L190.499 48.5504Z" stroke="#D3F3FF" stroke-width="2"/>
<path d="M190.499 826.05L276.065 777.5L361.477 826.137L275.912 874.688L190.499 826.05Z" stroke="#D3F3FF" stroke-width="2"/>
<path d="M1558.32 1603.55L1643.89 1555L1729.3 1603.64L1643.74 1652.19L1558.32 1603.55Z" stroke="#D3F3FF" stroke-width="2"/>
<path d="M1558.32 48.5504L1643.89 0L1729.3 48.6371L1643.74 97.1875L1558.32 48.5504Z" stroke="#D3F3FF" stroke-width="2"/>
<path d="M874.411 437.3L959.977 388.75L1045.39 437.387L959.824 485.938L874.411 437.3Z" stroke="#D3F3FF" stroke-width="2"/>
<path d="M874.411 1214.8L959.977 1166.25L1045.39 1214.89L959.824 1263.44L874.411 1214.8Z" stroke="#D3F3FF" stroke-width="2"/>
<path d="M1558.32 437.3L1643.89 388.75L1729.3 437.387L1643.74 485.938L1558.32 437.3Z" stroke="#D3F3FF" stroke-width="2"/>
<path d="M190.499 1214.8L276.065 1166.25L361.477 1214.89L275.912 1263.44L190.499 1214.8Z" stroke="#D3F3FF" stroke-width="2"/>
<path d="M190.499 437.3L276.065 388.75L361.477 437.387L275.912 485.938L190.499 437.3Z" stroke="#D3F3FF" stroke-width="2"/>
<path d="M1558.32 1214.8L1643.89 1166.25L1729.3 1214.89L1643.74 1263.44L1558.32 1214.8Z" stroke="#D3F3FF" stroke-width="2"/>
<path d="M874.411 1603.55L959.977 1555L1045.39 1603.64L959.824 1652.19L874.411 1603.55Z" stroke="#D3F3FF" stroke-width="2"/>
<path d="M874.411 48.5504L959.977 0L1045.39 48.6371L959.824 97.1875L874.411 48.5504Z" stroke="#D3F3FF" stroke-width="2"/>
<path d="M874.411 826.05L959.977 777.5L1045.39 826.137L959.824 874.688L874.411 826.05Z" stroke="#D3F3FF" stroke-width="2"/>
<path d="M1387.35 728.863L1472.91 680.312L1558.32 728.95L1472.76 777.5L1387.35 728.863Z" stroke="#D3F3FF" stroke-width="2"/>
<path d="M19.5215 1506.36L105.087 1457.81L190.499 1506.45L104.934 1555L19.5215 1506.36Z" stroke="#D3F3FF" stroke-width="2"/>
<path d="M19.5215 -48.6371L105.087 -97.1875L190.499 -48.5504L104.934 2.6226e-06L19.5215 -48.6371Z" stroke="#D3F3FF" stroke-width="2"/>
<path d="M19.5215 728.863L105.087 680.312L190.499 728.95L104.934 777.5L19.5215 728.863Z" stroke="#D3F3FF" stroke-width="2"/>
<path d="M1387.35 1506.36L1472.91 1457.81L1558.32 1506.45L1472.76 1555L1387.35 1506.36Z" stroke="#D3F3FF" stroke-width="2"/>
<path d="M1387.35 -48.6371L1472.91 -97.1875L1558.32 -48.5504L1472.76 2.6226e-06L1387.35 -48.6371Z" stroke="#D3F3FF" stroke-width="2"/>
<path d="M703.433 340.113L788.999 291.562L874.411 340.2L788.846 388.75L703.433 340.113Z" stroke="#D3F3FF" stroke-width="2"/>
<path d="M703.433 1117.61L788.999 1069.06L874.411 1117.7L788.846 1166.25L703.433 1117.61Z" stroke="#D3F3FF" stroke-width="2"/>
<path d="M703.433 1506.36L788.999 1457.81L874.411 1506.45L788.846 1555L703.433 1506.36Z" stroke="#D3F3FF" stroke-width="2"/>
<path d="M703.433 -48.6371L788.999 -97.1875L874.411 -48.5504L788.846 2.6226e-06L703.433 -48.6371Z" stroke="#D3F3FF" stroke-width="2"/>
<path d="M703.433 728.863L788.999 680.312L874.411 728.95L788.846 777.5L703.433 728.863Z" stroke="#D3F3FF" stroke-width="2"/>
<path d="M19.5215 1117.61L105.087 1069.06L190.499 1117.7L104.934 1166.25L19.5215 1117.61Z" stroke="#D3F3FF" stroke-width="2"/>
<path d="M1387.35 340.113L1472.91 291.562L1558.32 340.2L1472.76 388.75L1387.35 340.113Z" stroke="#D3F3FF" stroke-width="2"/>
<path d="M19.5215 340.113L105.087 291.562L190.499 340.2L104.934 388.75L19.5215 340.113Z" stroke="#D3F3FF" stroke-width="2"/>
<path d="M1387.35 1117.61L1472.91 1069.06L1558.32 1117.7L1472.76 1166.25L1387.35 1117.61Z" stroke="#D3F3FF" stroke-width="2"/>
<path d="M1729.3 923.238L1814.87 874.688L1900.28 923.325L1814.71 971.875L1729.3 923.238Z" stroke="#D3F3FF" stroke-width="2"/>
<path d="M361.478 145.738L447.043 97.1875L532.456 145.825L446.89 194.375L361.478 145.738Z" stroke="#D3F3FF" stroke-width="2"/>
<path d="M361.478 923.238L447.043 874.688L532.456 923.325L446.89 971.875L361.478 923.238Z" stroke="#D3F3FF" stroke-width="2"/>
<path d="M1729.3 145.738L1814.87 97.1875L1900.28 145.825L1814.71 194.375L1729.3 145.738Z" stroke="#D3F3FF" stroke-width="2"/>
<path d="M1045.39 534.488L1130.95 485.938L1216.37 534.575L1130.8 583.125L1045.39 534.488Z" stroke="#D3F3FF" stroke-width="2"/>
<path d="M1045.39 1311.99L1130.95 1263.44L1216.37 1312.07L1130.8 1360.63L1045.39 1311.99Z" stroke="#D3F3FF" stroke-width="2"/>
<path d="M1729.3 534.488L1814.87 485.938L1900.28 534.575L1814.71 583.125L1729.3 534.488Z" stroke="#D3F3FF" stroke-width="2"/>
<path d="M361.478 1311.99L447.043 1263.44L532.456 1312.07L446.89 1360.63L361.478 1311.99Z" stroke="#D3F3FF" stroke-width="2"/>
<path d="M361.478 534.488L447.043 485.938L532.456 534.575L446.89 583.125L361.478 534.488Z" stroke="#D3F3FF" stroke-width="2"/>
<path d="M1729.3 1311.99L1814.87 1263.44L1900.28 1312.07L1814.71 1360.63L1729.3 1311.99Z" stroke="#D3F3FF" stroke-width="2"/>
<path d="M1045.39 145.738L1130.95 97.1875L1216.37 145.825L1130.8 194.375L1045.39 145.738Z" stroke="#D3F3FF" stroke-width="2"/>
<path d="M1045.39 923.238L1130.95 874.688L1216.37 923.325L1130.8 971.875L1045.39 923.238Z" stroke="#D3F3FF" stroke-width="2"/>
<path d="M1045.39 826.05L1130.95 777.5L1216.37 826.137L1130.8 874.688L1045.39 826.05Z" stroke="#D3F3FF" stroke-width="2"/>
<path d="M1045.39 1603.55L1130.95 1555L1216.37 1603.64L1130.8 1652.19L1045.39 1603.55Z" stroke="#D3F3FF" stroke-width="2"/>
<path d="M1045.39 48.5504L1130.95 0L1216.37 48.6371L1130.8 97.1875L1045.39 48.5504Z" stroke="#D3F3FF" stroke-width="2"/>
<path d="M1729.3 1214.8L1814.87 1166.25L1900.28 1214.89L1814.71 1263.44L1729.3 1214.8Z" stroke="#D3F3FF" stroke-width="2"/>
<path d="M361.478 437.3L447.043 388.75L532.456 437.387L446.89 485.938L361.478 437.3Z" stroke="#D3F3FF" stroke-width="2"/>
<path d="M1729.3 437.3L1814.87 388.75L1900.28 437.387L1814.71 485.938L1729.3 437.3Z" stroke="#D3F3FF" stroke-width="2"/>
<path d="M361.478 1214.8L447.043 1166.25L532.456 1214.89L446.89 1263.44L361.478 1214.8Z" stroke="#D3F3FF" stroke-width="2"/>
<path d="M1729.3 826.05L1814.87 777.5L1900.28 826.137L1814.71 874.688L1729.3 826.05Z" stroke="#D3F3FF" stroke-width="2"/>
<path d="M361.478 1603.55L447.043 1555L532.456 1603.64L446.89 1652.19L361.478 1603.55Z" stroke="#D3F3FF" stroke-width="2"/>
<path d="M361.478 48.5504L447.043 0L532.456 48.6371L446.89 97.1875L361.478 48.5504Z" stroke="#D3F3FF" stroke-width="2"/>
<path d="M361.478 826.05L447.043 777.5L532.456 826.137L446.89 874.688L361.478 826.05Z" stroke="#D3F3FF" stroke-width="2"/>
<path d="M1729.3 1603.55L1814.87 1555L1900.28 1603.64L1814.71 1652.19L1729.3 1603.55Z" stroke="#D3F3FF" stroke-width="2"/>
<path d="M1729.3 48.5504L1814.87 0L1900.28 48.6371L1814.71 97.1875L1729.3 48.5504Z" stroke="#D3F3FF" stroke-width="2"/>
<path d="M1045.39 437.3L1130.95 388.75L1216.37 437.387L1130.8 485.938L1045.39 437.3Z" stroke="#D3F3FF" stroke-width="2"/>
<path d="M1045.39 1214.8L1130.95 1166.25L1216.37 1214.89L1130.8 1263.44L1045.39 1214.8Z" stroke="#D3F3FF" stroke-width="2"/>
<path d="M1387.35 1020.43L1472.91 971.875L1558.32 1020.51L1472.76 1069.06L1387.35 1020.43Z" stroke="#D3F3FF" stroke-width="2"/>
<path d="M19.5215 242.925L105.087 194.375L190.499 243.012L104.934 291.563L19.5215 242.925Z" stroke="#D3F3FF" stroke-width="2"/>
<path d="M19.5215 1020.43L105.087 971.875L190.499 1020.51L104.934 1069.06L19.5215 1020.43Z" stroke="#D3F3FF" stroke-width="2"/>
<path d="M1387.35 242.925L1472.91 194.375L1558.32 243.012L1472.76 291.563L1387.35 242.925Z" stroke="#D3F3FF" stroke-width="2"/>
<path d="M703.433 631.675L788.999 583.125L874.411 631.762L788.846 680.313L703.433 631.675Z" stroke="#D3F3FF" stroke-width="2"/>
<path d="M703.433 1409.18L788.999 1360.62L874.411 1409.26L788.846 1457.81L703.433 1409.18Z" stroke="#D3F3FF" stroke-width="2"/>
<path d="M1387.35 631.675L1472.91 583.125L1558.32 631.762L1472.76 680.313L1387.35 631.675Z" stroke="#D3F3FF" stroke-width="2"/>
<path d="M19.5215 1409.18L105.087 1360.62L190.499 1409.26L104.934 1457.81L19.5215 1409.18Z" stroke="#D3F3FF" stroke-width="2"/>
<path d="M19.5215 631.675L105.087 583.125L190.499 631.762L104.934 680.313L19.5215 631.675Z" stroke="#D3F3FF" stroke-width="2"/>
<path d="M1387.35 1409.18L1472.91 1360.62L1558.32 1409.26L1472.76 1457.81L1387.35 1409.18Z" stroke="#D3F3FF" stroke-width="2"/>
<path d="M703.433 242.925L788.999 194.375L874.411 243.012L788.846 291.563L703.433 242.925Z" stroke="#D3F3FF" stroke-width="2"/>
<path d="M703.433 1020.43L788.999 971.875L874.411 1020.51L788.846 1069.06L703.433 1020.43Z" stroke="#D3F3FF" stroke-width="2"/>
<path d="M1216.37 923.238L1301.93 874.688L1387.35 923.325L1301.78 971.875L1216.37 923.238Z" stroke="#D3F3FF" stroke-width="2"/>
<path d="M-151.457 145.738L-65.8913 97.1875L19.5214 145.825L-66.0438 194.375L-151.457 145.738Z" stroke="#D3F3FF" stroke-width="2"/>
<path d="M-151.457 923.238L-65.8913 874.688L19.5214 923.325L-66.0438 971.875L-151.457 923.238Z" stroke="#D3F3FF" stroke-width="2"/>
<path d="M1216.37 145.738L1301.93 97.1875L1387.35 145.825L1301.78 194.375L1216.37 145.738Z" stroke="#D3F3FF" stroke-width="2"/>
<path d="M1900.28 1311.99L1985.85 1263.44L2071.26 1312.07L1985.69 1360.63L1900.28 1311.99Z" stroke="#D3F3FF" stroke-width="2"/>
<path d="M532.456 534.488L618.021 485.938L703.434 534.575L617.868 583.125L532.456 534.488Z" stroke="#D3F3FF" stroke-width="2"/>
<path d="M1900.28 534.488L1985.85 485.938L2071.26 534.575L1985.69 583.125L1900.28 534.488Z" stroke="#D3F3FF" stroke-width="2"/>
<path d="M532.456 1311.99L618.021 1263.44L703.434 1312.07L617.868 1360.63L532.456 1311.99Z" stroke="#D3F3FF" stroke-width="2"/>
<path d="M1900.28 923.238L1985.85 874.688L2071.26 923.325L1985.69 971.875L1900.28 923.238Z" stroke="#D3F3FF" stroke-width="2"/>
<path d="M532.456 145.738L618.021 97.1875L703.434 145.825L617.868 194.375L532.456 145.738Z" stroke="#D3F3FF" stroke-width="2"/>
<path d="M532.456 923.238L618.021 874.688L703.434 923.325L617.868 971.875L532.456 923.238Z" stroke="#D3F3FF" stroke-width="2"/>
<path d="M1900.28 145.738L1985.85 97.1875L2071.26 145.825L1985.69 194.375L1900.28 145.738Z" stroke="#D3F3FF" stroke-width="2"/>
<path d="M-151.457 1311.99L-65.8913 1263.44L19.5214 1312.07L-66.0438 1360.63L-151.457 1311.99Z" stroke="#D3F3FF" stroke-width="2"/>
<path d="M1216.37 534.488L1301.93 485.938L1387.35 534.575L1301.78 583.125L1216.37 534.488Z" stroke="#D3F3FF" stroke-width="2"/>
<path d="M-151.457 534.488L-65.8913 485.938L19.5214 534.575L-66.0438 583.125L-151.457 534.488Z" stroke="#D3F3FF" stroke-width="2"/>
<path d="M1216.37 1311.99L1301.93 1263.44L1387.35 1312.07L1301.78 1360.63L1216.37 1311.99Z" stroke="#D3F3FF" stroke-width="2"/>
<path d="M1558.32 1117.61L1643.89 1069.06L1729.3 1117.7L1643.74 1166.25L1558.32 1117.61Z" stroke="#D3F3FF" stroke-width="2"/>
<path d="M190.499 340.113L276.065 291.562L361.477 340.2L275.912 388.75L190.499 340.113Z" stroke="#D3F3FF" stroke-width="2"/>
<path d="M190.499 1117.61L276.065 1069.06L361.477 1117.7L275.912 1166.25L190.499 1117.61Z" stroke="#D3F3FF" stroke-width="2"/>
<path d="M1558.32 340.113L1643.89 291.562L1729.3 340.2L1643.74 388.75L1558.32 340.113Z" stroke="#D3F3FF" stroke-width="2"/>
<path d="M874.411 728.863L959.977 680.312L1045.39 728.95L959.824 777.5L874.411 728.863Z" stroke="#D3F3FF" stroke-width="2"/>
<path d="M874.411 1506.36L959.977 1457.81L1045.39 1506.45L959.824 1555L874.411 1506.36Z" stroke="#D3F3FF" stroke-width="2"/>
<path d="M874.411 -48.6371L959.977 -97.1875L1045.39 -48.5504L959.824 2.6226e-06L874.411 -48.6371Z" stroke="#D3F3FF" stroke-width="2"/>
<path d="M1558.32 728.863L1643.89 680.312L1729.3 728.95L1643.74 777.5L1558.32 728.863Z" stroke="#D3F3FF" stroke-width="2"/>
<path d="M190.499 1506.36L276.065 1457.81L361.477 1506.45L275.912 1555L190.499 1506.36Z" stroke="#D3F3FF" stroke-width="2"/>
<path d="M190.499 -48.6371L276.065 -97.1875L361.477 -48.5504L275.912 2.6226e-06L190.499 -48.6371Z" stroke="#D3F3FF" stroke-width="2"/>
<path d="M190.499 728.863L276.065 680.312L361.477 728.95L275.912 777.5L190.499 728.863Z" stroke="#D3F3FF" stroke-width="2"/>
<path d="M1558.32 1506.36L1643.89 1457.81L1729.3 1506.45L1643.74 1555L1558.32 1506.36Z" stroke="#D3F3FF" stroke-width="2"/>
<path d="M1558.32 -48.6371L1643.89 -97.1875L1729.3 -48.5504L1643.74 2.6226e-06L1558.32 -48.6371Z" stroke="#D3F3FF" stroke-width="2"/>
<path d="M874.411 340.113L959.977 291.562L1045.39 340.2L959.824 388.75L874.411 340.113Z" stroke="#D3F3FF" stroke-width="2"/>
<path d="M874.411 1117.61L959.977 1069.06L1045.39 1117.7L959.824 1166.25L874.411 1117.61Z" stroke="#D3F3FF" stroke-width="2"/>
<path d="M1216.37 728.863L1301.93 680.312L1387.35 728.95L1301.78 777.5L1216.37 728.863Z" stroke="#D3F3FF" stroke-width="2"/>
<path d="M-151.457 1506.36L-65.8913 1457.81L19.5214 1506.45L-66.0438 1555L-151.457 1506.36Z" stroke="#D3F3FF" stroke-width="2"/>
<path d="M-151.457 -48.6371L-65.8913 -97.1875L19.5214 -48.5504L-66.0438 2.6226e-06L-151.457 -48.6371Z" stroke="#D3F3FF" stroke-width="2"/>
<path d="M-151.457 728.863L-65.8913 680.312L19.5214 728.95L-66.0438 777.5L-151.457 728.863Z" stroke="#D3F3FF" stroke-width="2"/>
<path d="M1216.37 1506.36L1301.93 1457.81L1387.35 1506.45L1301.78 1555L1216.37 1506.36Z" stroke="#D3F3FF" stroke-width="2"/>
<path d="M1216.37 -48.6371L1301.93 -97.1875L1387.35 -48.5504L1301.78 2.6226e-06L1216.37 -48.6371Z" stroke="#D3F3FF" stroke-width="2"/>
<path d="M1900.28 1117.61L1985.85 1069.06L2071.26 1117.7L1985.69 1166.25L1900.28 1117.61Z" stroke="#D3F3FF" stroke-width="2"/>
<path d="M532.456 340.113L618.021 291.562L703.434 340.2L617.868 388.75L532.456 340.113Z" stroke="#D3F3FF" stroke-width="2"/>
<path d="M1900.28 340.113L1985.85 291.562L2071.26 340.2L1985.69 388.75L1900.28 340.113Z" stroke="#D3F3FF" stroke-width="2"/>
<path d="M532.456 1117.61L618.021 1069.06L703.434 1117.7L617.868 1166.25L532.456 1117.61Z" stroke="#D3F3FF" stroke-width="2"/>
<path d="M1900.28 728.863L1985.85 680.312L2071.26 728.95L1985.69 777.5L1900.28 728.863Z" stroke="#D3F3FF" stroke-width="2"/>
<path d="M532.456 1506.36L618.021 1457.81L703.434 1506.45L617.868 1555L532.456 1506.36Z" stroke="#D3F3FF" stroke-width="2"/>
<path d="M532.456 -48.6371L618.021 -97.1875L703.434 -48.5504L617.868 2.6226e-06L532.456 -48.6371Z" stroke="#D3F3FF" stroke-width="2"/>
<path d="M532.456 728.863L618.021 680.312L703.434 728.95L617.868 777.5L532.456 728.863Z" stroke="#D3F3FF" stroke-width="2"/>
<path d="M1900.28 1506.36L1985.85 1457.81L2071.26 1506.45L1985.69 1555L1900.28 1506.36Z" stroke="#D3F3FF" stroke-width="2"/>
<path d="M1900.28 -48.6371L1985.85 -97.1875L2071.26 -48.5504L1985.69 2.6226e-06L1900.28 -48.6371Z" stroke="#D3F3FF" stroke-width="2"/>
<path d="M-151.457 1117.61L-65.8913 1069.06L19.5214 1117.7L-66.0438 1166.25L-151.457 1117.61Z" stroke="#D3F3FF" stroke-width="2"/>
<path d="M1216.37 340.113L1301.93 291.562L1387.35 340.2L1301.78 388.75L1216.37 340.113Z" stroke="#D3F3FF" stroke-width="2"/>
<path d="M-151.457 340.113L-65.8913 291.562L19.5214 340.2L-66.0438 388.75L-151.457 340.113Z" stroke="#D3F3FF" stroke-width="2"/>
<path d="M1216.37 1117.61L1301.93 1069.06L1387.35 1117.7L1301.78 1166.25L1216.37 1117.61Z" stroke="#D3F3FF" stroke-width="2"/>
<path d="M1558.32 923.238L1643.89 874.688L1729.3 923.325L1643.74 971.875L1558.32 923.238Z" stroke="#D3F3FF" stroke-width="2"/>
<path d="M190.499 145.738L276.065 97.1875L361.477 145.825L275.912 194.375L190.499 145.738Z" stroke="#D3F3FF" stroke-width="2"/>
<path d="M190.499 923.238L276.065 874.688L361.477 923.325L275.912 971.875L190.499 923.238Z" stroke="#D3F3FF" stroke-width="2"/>
<path d="M1558.32 145.738L1643.89 97.1875L1729.3 145.825L1643.74 194.375L1558.32 145.738Z" stroke="#D3F3FF" stroke-width="2"/>
<path d="M874.411 534.488L959.977 485.938L1045.39 534.575L959.824 583.125L874.411 534.488Z" stroke="#D3F3FF" stroke-width="2"/>
<path d="M874.411 1311.99L959.977 1263.44L1045.39 1312.07L959.824 1360.63L874.411 1311.99Z" stroke="#D3F3FF" stroke-width="2"/>
<path d="M1558.32 534.488L1643.89 485.938L1729.3 534.575L1643.74 583.125L1558.32 534.488Z" stroke="#D3F3FF" stroke-width="2"/>
<path d="M190.499 1311.99L276.065 1263.44L361.477 1312.07L275.912 1360.63L190.499 1311.99Z" stroke="#D3F3FF" stroke-width="2"/>
<path d="M190.499 534.488L276.065 485.938L361.477 534.575L275.912 583.125L190.499 534.488Z" stroke="#D3F3FF" stroke-width="2"/>
<path d="M1558.32 1311.99L1643.89 1263.44L1729.3 1312.07L1643.74 1360.63L1558.32 1311.99Z" stroke="#D3F3FF" stroke-width="2"/>
<path d="M874.411 145.738L959.977 97.1875L1045.39 145.825L959.824 194.375L874.411 145.738Z" stroke="#D3F3FF" stroke-width="2"/>
<path d="M874.411 923.238L959.977 874.688L1045.39 923.325L959.824 971.875L874.411 923.238Z" stroke="#D3F3FF" stroke-width="2"/>
<path d="M1387.35 826.05L1472.91 777.5L1558.32 826.137L1472.76 874.688L1387.35 826.05Z" stroke="#D3F3FF" stroke-width="2"/>
<path d="M19.5215 1603.55L105.087 1555L190.499 1603.64L104.934 1652.19L19.5215 1603.55Z" stroke="#D3F3FF" stroke-width="2"/>
<path d="M19.5215 48.5504L105.087 0L190.499 48.6371L104.934 97.1875L19.5215 48.5504Z" stroke="#D3F3FF" stroke-width="2"/>
<path d="M19.5215 826.05L105.087 777.5L190.499 826.137L104.934 874.688L19.5215 826.05Z" stroke="#D3F3FF" stroke-width="2"/>
<path d="M1387.35 1603.55L1472.91 1555L1558.32 1603.64L1472.76 1652.19L1387.35 1603.55Z" stroke="#D3F3FF" stroke-width="2"/>
<path d="M1387.35 48.5504L1472.91 0L1558.32 48.6371L1472.76 97.1875L1387.35 48.5504Z" stroke="#D3F3FF" stroke-width="2"/>
<path d="M703.433 437.3L788.999 388.75L874.411 437.387L788.846 485.938L703.433 437.3Z" stroke="#D3F3FF" stroke-width="2"/>
<path d="M703.433 1214.8L788.999 1166.25L874.411 1214.89L788.846 1263.44L703.433 1214.8Z" stroke="#D3F3FF" stroke-width="2"/>
<path d="M703.433 1603.55L788.999 1555L874.411 1603.64L788.846 1652.19L703.433 1603.55Z" stroke="#D3F3FF" stroke-width="2"/>
<path d="M703.433 48.5504L788.999 0L874.411 48.6371L788.846 97.1875L703.433 48.5504Z" stroke="#D3F3FF" stroke-width="2"/>
<path d="M703.433 826.05L788.999 777.5L874.411 826.137L788.846 874.688L703.433 826.05Z" stroke="#D3F3FF" stroke-width="2"/>
<path d="M19.5215 1214.8L105.087 1166.25L190.499 1214.89L104.934 1263.44L19.5215 1214.8Z" stroke="#D3F3FF" stroke-width="2"/>
<path d="M1387.35 437.3L1472.91 388.75L1558.32 437.387L1472.76 485.938L1387.35 437.3Z" stroke="#D3F3FF" stroke-width="2"/>
<path d="M19.5215 437.3L105.087 388.75L190.499 437.387L104.934 485.938L19.5215 437.3Z" stroke="#D3F3FF" stroke-width="2"/>
<path d="M1387.35 1214.8L1472.91 1166.25L1558.32 1214.89L1472.76 1263.44L1387.35 1214.8Z" stroke="#D3F3FF" stroke-width="2"/>
<path d="M1729.3 1020.43L1814.87 971.875L1900.28 1020.51L1814.71 1069.06L1729.3 1020.43Z" stroke="#D3F3FF" stroke-width="2"/>
<path d="M361.478 242.925L447.043 194.375L532.456 243.012L446.89 291.563L361.478 242.925Z" stroke="#D3F3FF" stroke-width="2"/>
<path d="M361.478 1020.43L447.043 971.875L532.456 1020.51L446.89 1069.06L361.478 1020.43Z" stroke="#D3F3FF" stroke-width="2"/>
<path d="M1729.3 242.925L1814.87 194.375L1900.28 243.012L1814.71 291.563L1729.3 242.925Z" stroke="#D3F3FF" stroke-width="2"/>
<path d="M1045.39 631.675L1130.95 583.125L1216.37 631.762L1130.8 680.313L1045.39 631.675Z" stroke="#D3F3FF" stroke-width="2"/>
<path d="M1045.39 1409.18L1130.95 1360.62L1216.37 1409.26L1130.8 1457.81L1045.39 1409.18Z" stroke="#D3F3FF" stroke-width="2"/>
<path d="M1729.3 631.675L1814.87 583.125L1900.28 631.762L1814.71 680.313L1729.3 631.675Z" stroke="#D3F3FF" stroke-width="2"/>
<path d="M361.478 1409.18L447.043 1360.62L532.456 1409.26L446.89 1457.81L361.478 1409.18Z" stroke="#D3F3FF" stroke-width="2"/>
<path d="M361.478 631.675L447.043 583.125L532.456 631.762L446.89 680.313L361.478 631.675Z" stroke="#D3F3FF" stroke-width="2"/>
<path d="M1729.3 1409.18L1814.87 1360.62L1900.28 1409.26L1814.71 1457.81L1729.3 1409.18Z" stroke="#D3F3FF" stroke-width="2"/>
<path d="M1045.39 242.925L1130.95 194.375L1216.37 243.012L1130.8 291.563L1045.39 242.925Z" stroke="#D3F3FF" stroke-width="2"/>
<path d="M1045.39 1020.43L1130.95 971.875L1216.37 1020.51L1130.8 1069.06L1045.39 1020.43Z" stroke="#D3F3FF" stroke-width="2"/>
<path d="M1130.8 777.457L1216.37 728.906L1301.78 777.543L1216.21 826.094L1130.8 777.457Z" stroke="#D3F3FF" stroke-width="2"/>
<path d="M1130.8 1554.96L1216.37 1506.41L1301.78 1555.04L1216.21 1603.59L1130.8 1554.96Z" stroke="#D3F3FF" stroke-width="2"/>
<path d="M1130.8 -0.0433548L1216.37 -48.5938L1301.78 0.043354L1216.21 48.5938L1130.8 -0.0433548Z" stroke="#D3F3FF" stroke-width="2"/>
<path d="M1814.71 1166.21L1900.28 1117.66L1985.69 1166.29L1900.13 1214.84L1814.71 1166.21Z" stroke="#D3F3FF" stroke-width="2"/>
<path d="M446.89 388.707L532.455 340.156L617.868 388.793L532.303 437.344L446.89 388.707Z" stroke="#D3F3FF" stroke-width="2"/>
<path d="M1814.71 388.707L1900.28 340.156L1985.69 388.793L1900.13 437.344L1814.71 388.707Z" stroke="#D3F3FF" stroke-width="2"/>
<path d="M446.89 1166.21L532.455 1117.66L617.868 1166.29L532.303 1214.84L446.89 1166.21Z" stroke="#D3F3FF" stroke-width="2"/>
<path d="M1814.71 777.457L1900.28 728.906L1985.69 777.543L1900.13 826.094L1814.71 777.457Z" stroke="#D3F3FF" stroke-width="2"/>
<path d="M446.89 1554.96L532.455 1506.41L617.868 1555.04L532.303 1603.59L446.89 1554.96Z" stroke="#D3F3FF" stroke-width="2"/>
<path d="M446.89 -0.0433548L532.455 -48.5938L617.868 0.043354L532.303 48.5938L446.89 -0.0433548Z" stroke="#D3F3FF" stroke-width="2"/>
<path d="M446.89 777.457L532.455 728.906L617.868 777.543L532.303 826.094L446.89 777.457Z" stroke="#D3F3FF" stroke-width="2"/>
<path d="M1814.71 1554.96L1900.28 1506.41L1985.69 1555.04L1900.13 1603.59L1814.71 1554.96Z" stroke="#D3F3FF" stroke-width="2"/>
<path d="M1814.71 -0.0433548L1900.28 -48.5938L1985.69 0.043354L1900.13 48.5938L1814.71 -0.0433548Z" stroke="#D3F3FF" stroke-width="2"/>
<path d="M1130.8 388.707L1216.37 340.156L1301.78 388.793L1216.21 437.344L1130.8 388.707Z" stroke="#D3F3FF" stroke-width="2"/>
<path d="M1130.8 1166.21L1216.37 1117.66L1301.78 1166.29L1216.21 1214.84L1130.8 1166.21Z" stroke="#D3F3FF" stroke-width="2"/>
<path d="M1472.76 971.832L1558.32 923.281L1643.74 971.918L1558.17 1020.47L1472.76 971.832Z" stroke="#D3F3FF" stroke-width="2"/>
<path d="M104.934 194.332L190.499 145.781L275.912 194.418L190.347 242.969L104.934 194.332Z" stroke="#D3F3FF" stroke-width="2"/>
<path d="M104.934 971.832L190.499 923.281L275.912 971.918L190.347 1020.47L104.934 971.832Z" stroke="#D3F3FF" stroke-width="2"/>
<path d="M1472.76 194.332L1558.32 145.781L1643.74 194.418L1558.17 242.969L1472.76 194.332Z" stroke="#D3F3FF" stroke-width="2"/>
<path d="M788.846 583.082L874.411 534.531L959.824 583.168L874.259 631.719L788.846 583.082Z" stroke="#D3F3FF" stroke-width="2"/>
<path d="M788.846 1360.58L874.411 1312.03L959.824 1360.67L874.259 1409.22L788.846 1360.58Z" stroke="#D3F3FF" stroke-width="2"/>
<path d="M1472.76 583.082L1558.32 534.531L1643.74 583.168L1558.17 631.719L1472.76 583.082Z" stroke="#D3F3FF" stroke-width="2"/>
<path d="M104.934 1360.58L190.499 1312.03L275.912 1360.67L190.347 1409.22L104.934 1360.58Z" stroke="#D3F3FF" stroke-width="2"/>
<path d="M104.934 583.082L190.499 534.531L275.912 583.168L190.347 631.719L104.934 583.082Z" stroke="#D3F3FF" stroke-width="2"/>
<path d="M1472.76 1360.58L1558.32 1312.03L1643.74 1360.67L1558.17 1409.22L1472.76 1360.58Z" stroke="#D3F3FF" stroke-width="2"/>
<path d="M788.846 194.332L874.411 145.781L959.824 194.418L874.259 242.969L788.846 194.332Z" stroke="#D3F3FF" stroke-width="2"/>
<path d="M788.846 971.832L874.411 923.281L959.824 971.918L874.259 1020.47L788.846 971.832Z" stroke="#D3F3FF" stroke-width="2"/>
<path d="M1301.78 874.644L1387.35 826.094L1472.76 874.731L1387.19 923.281L1301.78 874.644Z" stroke="#D3F3FF" stroke-width="2"/>
<path d="M-66.0441 97.1441L19.5212 48.5938L104.934 97.2309L19.3687 145.781L-66.0441 97.1441Z" stroke="#D3F3FF" stroke-width="2"/>
<path d="M-66.0441 874.644L19.5212 826.094L104.934 874.731L19.3687 923.281L-66.0441 874.644Z" stroke="#D3F3FF" stroke-width="2"/>
<path d="M1301.78 97.1441L1387.35 48.5938L1472.76 97.2309L1387.19 145.781L1301.78 97.1441Z" stroke="#D3F3FF" stroke-width="2"/>
<path d="M617.868 485.894L703.433 437.344L788.846 485.981L703.281 534.531L617.868 485.894Z" stroke="#D3F3FF" stroke-width="2"/>
<path d="M617.868 1263.39L703.433 1214.84L788.846 1263.48L703.281 1312.03L617.868 1263.39Z" stroke="#D3F3FF" stroke-width="2"/>
<path d="M617.868 97.1441L703.433 48.5938L788.846 97.2309L703.281 145.781L617.868 97.1441Z" stroke="#D3F3FF" stroke-width="2"/>
<path d="M617.868 874.644L703.433 826.094L788.846 874.731L703.281 923.281L617.868 874.644Z" stroke="#D3F3FF" stroke-width="2"/>
<path d="M-66.0441 1263.39L19.5212 1214.84L104.934 1263.48L19.3687 1312.03L-66.0441 1263.39Z" stroke="#D3F3FF" stroke-width="2"/>
<path d="M1301.78 485.894L1387.35 437.344L1472.76 485.981L1387.19 534.531L1301.78 485.894Z" stroke="#D3F3FF" stroke-width="2"/>
<path d="M-66.0441 485.894L19.5212 437.344L104.934 485.981L19.3687 534.531L-66.0441 485.894Z" stroke="#D3F3FF" stroke-width="2"/>
<path d="M1301.78 1263.39L1387.35 1214.84L1472.76 1263.48L1387.19 1312.03L1301.78 1263.39Z" stroke="#D3F3FF" stroke-width="2"/>
<path d="M1643.74 1069.02L1729.3 1020.47L1814.71 1069.11L1729.15 1117.66L1643.74 1069.02Z" stroke="#D3F3FF" stroke-width="2"/>
<path d="M275.912 291.519L361.477 242.969L446.89 291.606L361.325 340.156L275.912 291.519Z" stroke="#D3F3FF" stroke-width="2"/>
<path d="M275.912 1069.02L361.477 1020.47L446.89 1069.11L361.325 1117.66L275.912 1069.02Z" stroke="#D3F3FF" stroke-width="2"/>
<path d="M1643.74 291.519L1729.3 242.969L1814.71 291.606L1729.15 340.156L1643.74 291.519Z" stroke="#D3F3FF" stroke-width="2"/>
<path d="M959.824 680.269L1045.39 631.719L1130.8 680.356L1045.24 728.906L959.824 680.269Z" stroke="#D3F3FF" stroke-width="2"/>
<path d="M959.824 1457.77L1045.39 1409.22L1130.8 1457.86L1045.24 1506.41L959.824 1457.77Z" stroke="#D3F3FF" stroke-width="2"/>
<path d="M1643.74 680.269L1729.3 631.719L1814.71 680.356L1729.15 728.906L1643.74 680.269Z" stroke="#D3F3FF" stroke-width="2"/>
<path d="M275.912 1457.77L361.477 1409.22L446.89 1457.86L361.325 1506.41L275.912 1457.77Z" stroke="#D3F3FF" stroke-width="2"/>
<path d="M275.912 680.269L361.477 631.719L446.89 680.356L361.325 728.906L275.912 680.269Z" stroke="#D3F3FF" stroke-width="2"/>
<path d="M1643.74 1457.77L1729.3 1409.22L1814.71 1457.86L1729.15 1506.41L1643.74 1457.77Z" stroke="#D3F3FF" stroke-width="2"/>
<path d="M959.824 291.519L1045.39 242.969L1130.8 291.606L1045.24 340.156L959.824 291.519Z" stroke="#D3F3FF" stroke-width="2"/>
<path d="M959.824 1069.02L1045.39 1020.47L1130.8 1069.11L1045.24 1117.66L959.824 1069.02Z" stroke="#D3F3FF" stroke-width="2"/>
<path d="M1301.78 680.269L1387.35 631.719L1472.76 680.356L1387.19 728.906L1301.78 680.269Z" stroke="#D3F3FF" stroke-width="2"/>
<path d="M-66.0441 1457.77L19.5212 1409.22L104.934 1457.86L19.3687 1506.41L-66.0441 1457.77Z" stroke="#D3F3FF" stroke-width="2"/>
<path d="M-66.0441 680.269L19.5212 631.719L104.934 680.356L19.3687 728.906L-66.0441 680.269Z" stroke="#D3F3FF" stroke-width="2"/>
<path d="M1301.78 1457.77L1387.35 1409.22L1472.76 1457.86L1387.19 1506.41L1301.78 1457.77Z" stroke="#D3F3FF" stroke-width="2"/>
<path d="M617.868 291.519L703.433 242.969L788.846 291.606L703.281 340.156L617.868 291.519Z" stroke="#D3F3FF" stroke-width="2"/>
<path d="M617.868 1069.02L703.433 1020.47L788.846 1069.11L703.281 1117.66L617.868 1069.02Z" stroke="#D3F3FF" stroke-width="2"/>
<path d="M617.868 1457.77L703.433 1409.22L788.846 1457.86L703.281 1506.41L617.868 1457.77Z" stroke="#D3F3FF" stroke-width="2"/>
<path d="M617.868 680.269L703.433 631.719L788.846 680.356L703.281 728.906L617.868 680.269Z" stroke="#D3F3FF" stroke-width="2"/>
<path d="M-66.0441 1069.02L19.5212 1020.47L104.934 1069.11L19.3687 1117.66L-66.0441 1069.02Z" stroke="#D3F3FF" stroke-width="2"/>
<path d="M1301.78 291.519L1387.35 242.969L1472.76 291.606L1387.19 340.156L1301.78 291.519Z" stroke="#D3F3FF" stroke-width="2"/>
<path d="M-66.0441 291.519L19.5212 242.969L104.934 291.606L19.3687 340.156L-66.0441 291.519Z" stroke="#D3F3FF" stroke-width="2"/>
<path d="M1301.78 1069.02L1387.35 1020.47L1472.76 1069.11L1387.19 1117.66L1301.78 1069.02Z" stroke="#D3F3FF" stroke-width="2"/>
<path d="M1643.74 874.644L1729.3 826.094L1814.71 874.731L1729.15 923.281L1643.74 874.644Z" stroke="#D3F3FF" stroke-width="2"/>
<path d="M275.912 97.1441L361.477 48.5938L446.89 97.2309L361.325 145.781L275.912 97.1441Z" stroke="#D3F3FF" stroke-width="2"/>
<path d="M275.912 874.644L361.477 826.094L446.89 874.731L361.325 923.281L275.912 874.644Z" stroke="#D3F3FF" stroke-width="2"/>
<path d="M1643.74 97.1441L1729.3 48.5938L1814.71 97.2309L1729.15 145.781L1643.74 97.1441Z" stroke="#D3F3FF" stroke-width="2"/>
<path d="M959.824 485.894L1045.39 437.344L1130.8 485.981L1045.24 534.531L959.824 485.894Z" stroke="#D3F3FF" stroke-width="2"/>
<path d="M959.824 1263.39L1045.39 1214.84L1130.8 1263.48L1045.24 1312.03L959.824 1263.39Z" stroke="#D3F3FF" stroke-width="2"/>
<path d="M1643.74 485.894L1729.3 437.344L1814.71 485.981L1729.15 534.531L1643.74 485.894Z" stroke="#D3F3FF" stroke-width="2"/>
<path d="M275.912 1263.39L361.477 1214.84L446.89 1263.48L361.325 1312.03L275.912 1263.39Z" stroke="#D3F3FF" stroke-width="2"/>
<path d="M275.912 485.894L361.477 437.344L446.89 485.981L361.325 534.531L275.912 485.894Z" stroke="#D3F3FF" stroke-width="2"/>
<path d="M1643.74 1263.39L1729.3 1214.84L1814.71 1263.48L1729.15 1312.03L1643.74 1263.39Z" stroke="#D3F3FF" stroke-width="2"/>
<path d="M959.824 97.1441L1045.39 48.5938L1130.8 97.2309L1045.24 145.781L959.824 97.1441Z" stroke="#D3F3FF" stroke-width="2"/>
<path d="M959.824 874.644L1045.39 826.094L1130.8 874.731L1045.24 923.281L959.824 874.644Z" stroke="#D3F3FF" stroke-width="2"/>
<path d="M1472.76 777.457L1558.32 728.906L1643.74 777.543L1558.17 826.094L1472.76 777.457Z" stroke="#D3F3FF" stroke-width="2"/>
<path d="M104.934 1554.96L190.499 1506.41L275.912 1555.04L190.347 1603.59L104.934 1554.96Z" stroke="#D3F3FF" stroke-width="2"/>
<path d="M104.934 -0.0433548L190.499 -48.5938L275.912 0.043354L190.347 48.5938L104.934 -0.0433548Z" stroke="#D3F3FF" stroke-width="2"/>
<path d="M104.934 777.457L190.499 728.906L275.912 777.543L190.347 826.094L104.934 777.457Z" stroke="#D3F3FF" stroke-width="2"/>
<path d="M1472.76 1554.96L1558.32 1506.41L1643.74 1555.04L1558.17 1603.59L1472.76 1554.96Z" stroke="#D3F3FF" stroke-width="2"/>
<path d="M1472.76 -0.0433548L1558.32 -48.5938L1643.74 0.043354L1558.17 48.5938L1472.76 -0.0433548Z" stroke="#D3F3FF" stroke-width="2"/>
<path d="M788.846 388.707L874.411 340.156L959.824 388.793L874.259 437.344L788.846 388.707Z" stroke="#D3F3FF" stroke-width="2"/>
<path d="M788.846 1166.21L874.411 1117.66L959.824 1166.29L874.259 1214.84L788.846 1166.21Z" stroke="#D3F3FF" stroke-width="2"/>
<path d="M788.846 1554.96L874.411 1506.41L959.824 1555.04L874.259 1603.59L788.846 1554.96Z" stroke="#D3F3FF" stroke-width="2"/>
<path d="M788.846 -0.0433548L874.411 -48.5938L959.824 0.043354L874.259 48.5938L788.846 -0.0433548Z" stroke="#D3F3FF" stroke-width="2"/>
<path d="M788.846 777.457L874.411 728.906L959.824 777.543L874.259 826.094L788.846 777.457Z" stroke="#D3F3FF" stroke-width="2"/>
<path d="M104.934 1166.21L190.499 1117.66L275.912 1166.29L190.347 1214.84L104.934 1166.21Z" stroke="#D3F3FF" stroke-width="2"/>
<path d="M1472.76 388.707L1558.32 340.156L1643.74 388.793L1558.17 437.344L1472.76 388.707Z" stroke="#D3F3FF" stroke-width="2"/>
<path d="M104.934 388.707L190.499 340.156L275.912 388.793L190.347 437.344L104.934 388.707Z" stroke="#D3F3FF" stroke-width="2"/>
<path d="M1472.76 1166.21L1558.32 1117.66L1643.74 1166.29L1558.17 1214.84L1472.76 1166.21Z" stroke="#D3F3FF" stroke-width="2"/>
<path d="M1814.71 971.832L1900.28 923.281L1985.69 971.918L1900.13 1020.47L1814.71 971.832Z" stroke="#D3F3FF" stroke-width="2"/>
<path d="M446.89 194.332L532.455 145.781L617.868 194.418L532.303 242.969L446.89 194.332Z" stroke="#D3F3FF" stroke-width="2"/>
<path d="M446.89 971.832L532.455 923.281L617.868 971.918L532.303 1020.47L446.89 971.832Z" stroke="#D3F3FF" stroke-width="2"/>
<path d="M1814.71 194.332L1900.28 145.781L1985.69 194.418L1900.13 242.969L1814.71 194.332Z" stroke="#D3F3FF" stroke-width="2"/>
<path d="M1130.8 583.082L1216.37 534.531L1301.78 583.168L1216.21 631.719L1130.8 583.082Z" stroke="#D3F3FF" stroke-width="2"/>
<path d="M1130.8 1360.58L1216.37 1312.03L1301.78 1360.67L1216.21 1409.22L1130.8 1360.58Z" stroke="#D3F3FF" stroke-width="2"/>
<path d="M1814.71 583.082L1900.28 534.531L1985.69 583.168L1900.13 631.719L1814.71 583.082Z" stroke="#D3F3FF" stroke-width="2"/>
<path d="M446.89 1360.58L532.455 1312.03L617.868 1360.67L532.303 1409.22L446.89 1360.58Z" stroke="#D3F3FF" stroke-width="2"/>
<path d="M446.89 583.082L532.455 534.531L617.868 583.168L532.303 631.719L446.89 583.082Z" stroke="#D3F3FF" stroke-width="2"/>
<path d="M1814.71 1360.58L1900.28 1312.03L1985.69 1360.67L1900.13 1409.22L1814.71 1360.58Z" stroke="#D3F3FF" stroke-width="2"/>
<path d="M1130.8 194.332L1216.37 145.781L1301.78 194.418L1216.21 242.969L1130.8 194.332Z" stroke="#D3F3FF" stroke-width="2"/>
<path d="M1130.8 971.832L1216.37 923.281L1301.78 971.918L1216.21 1020.47L1130.8 971.832Z" stroke="#D3F3FF" stroke-width="2"/>
</svg>
