<svg width="157" height="126" viewBox="0 0 157 126" fill="none" xmlns="http://www.w3.org/2000/svg">
<path d="M93.4202 122.722C92.8782 122.496 80.2551 117.148 81.9487 108.143C82.5358 105.052 84.1843 102.614 86.8715 100.854C87.7748 100.267 88.7909 99.7707 89.92 99.3645C92.1782 95.2121 95.4977 92.0977 99.9011 90.0441C100.353 88.013 101.369 86.1624 102.904 84.5375C107.285 79.9111 114.895 77.9478 121.444 77.1353C121.534 74.7883 122.054 72.4412 123.025 70.207C128.535 57.2532 120.225 50.5054 116.386 48.2035C110.785 44.8409 106.472 45.3825 106.427 45.4051L106.314 44.6378C106.495 44.6152 110.921 44.0285 116.792 47.549C120.812 49.9412 129.528 57.0049 123.747 70.523C122.844 72.6443 122.347 74.856 122.234 77.0676C125.667 76.684 128.76 76.6163 130.815 76.6163C145.493 76.684 155.723 83.3189 156.784 89.4122C157.168 91.6012 156.694 95.686 149.197 98.4167C148.406 98.7101 147.594 98.9357 146.758 99.1163C146.871 99.4999 146.961 99.861 147.029 100.245C147.752 104.329 145.493 108.166 140.864 110.761C136.845 113.018 131.944 113.627 127.044 113.153C127.067 113.289 127.067 113.424 127.067 113.56C127.18 116.742 124.809 119.269 120.383 120.691C109.995 124.008 97.6204 119.472 91.6588 113.176C88.3393 109.655 87.2328 105.841 88.5425 102.411C88.7909 101.734 89.0845 101.08 89.3781 100.47C88.6329 100.786 87.9328 101.147 87.3006 101.576C84.794 103.201 83.2359 105.48 82.7165 108.346C81.1358 116.742 93.6008 122.023 93.7137 122.068L93.4202 122.722ZM90.462 99.9739C90.0104 100.809 89.6265 101.689 89.2652 102.614C88.0683 105.751 89.1297 109.294 92.2234 112.567C97.9139 118.57 110.198 123.083 120.157 119.901C124.289 118.592 126.412 116.381 126.299 113.56C126.299 113.379 126.276 113.199 126.254 113.018C121.196 112.409 116.16 110.671 112.05 108.437C107.105 105.729 103.379 102.366 101.346 98.868C97.1913 98.5521 93.4653 98.9357 90.462 99.9739ZM126.931 112.296C131.764 112.792 136.551 112.228 140.48 110.016C144.816 107.602 146.916 104.059 146.261 100.312C146.193 99.9287 146.103 99.5676 145.99 99.184C139.487 100.267 132.486 97.8074 127.428 92.4814C126.164 91.1499 125.08 89.7055 124.199 88.1709C114.286 87.1328 106.45 87.9227 100.556 90.5631C100.375 91.4884 100.33 92.4588 100.398 93.4743C100.488 95.009 100.985 96.5661 101.821 98.1233C104.124 98.3264 106.563 98.7101 109.069 99.3194C118.418 101.554 125.78 106.97 126.931 112.296ZM102.317 98.9583C104.327 102.163 107.827 105.255 112.434 107.76C116.386 109.904 121.218 111.596 126.096 112.228C124.876 107.805 118.576 102.411 108.889 100.087C106.63 99.5225 104.417 99.1614 102.317 98.9583ZM99.7205 90.9919C95.9719 92.8425 93.0815 95.5055 91.0265 99.0034C93.8492 98.1684 97.2139 97.8525 100.94 98.0782C100.172 96.5661 99.743 95.0541 99.6527 93.5421C99.585 92.6619 99.6075 91.8043 99.7205 90.9919ZM125.193 88.3063C125.983 89.5927 126.931 90.8114 128.015 91.9623C132.848 97.0626 139.532 99.4322 145.742 98.4618C143.868 93.9257 138.177 90.3374 130.612 89.0736C128.715 88.7577 126.931 88.5094 125.193 88.3063ZM124.696 87.4713C126.638 87.6744 128.625 87.9678 130.725 88.3063C138.651 89.6378 144.59 93.4518 146.51 98.3264C147.323 98.1684 148.135 97.9202 148.926 97.6494C154.074 95.7763 156.604 92.8876 156.016 89.525C155.023 83.7477 145.087 77.4513 130.815 77.3836C127.812 77.361 124.922 77.519 122.212 77.8349C122.189 81.1298 123.025 84.4247 124.696 87.4713ZM121.421 77.9026C113.292 78.9408 106.856 81.4683 103.469 85.0566C102.182 86.4107 101.279 87.9453 100.804 89.6378C106.63 87.178 114.263 86.4332 123.77 87.3811C122.212 84.3796 121.421 81.1524 121.421 77.9026Z" fill="#593D3D"/>
<path d="M90.5977 123.196C90.5977 121.752 91.4783 120.06 92.5623 119.45C93.0365 119.179 93.4881 119.157 93.8268 119.36L94.843 119.902L94.5043 120.646C94.5043 120.737 94.5269 120.827 94.5269 120.917C94.5269 122.294 93.7139 123.851 92.7203 124.551L92.3364 125.386L91.2977 124.799C90.8686 124.551 90.5977 123.986 90.5977 123.196Z" fill="#352221"/>
<path d="M95.5881 121.504C95.5881 122.948 94.7075 124.641 93.6235 125.25C92.5396 125.882 91.6589 125.205 91.6589 123.761C91.6589 122.316 92.5396 120.624 93.6235 120.014C94.7075 119.405 95.5881 120.059 95.5881 121.504Z" fill="#472F2E"/>
<path d="M95.4753 122.068C95.4753 123.151 94.8204 124.415 94.0075 124.889C93.1945 125.363 92.5397 124.866 92.5397 123.783C92.5397 122.7 93.1945 121.436 94.0075 120.962C94.8204 120.488 95.4753 120.985 95.4753 122.068Z" fill="#5B3D3D"/>
<path d="M94.6849 122.339C94.6849 122.158 94.7978 121.933 94.9333 121.865C94.9785 121.842 95.0237 121.82 95.0688 121.842L97.4399 123.219C97.6206 123.332 97.6883 123.558 97.5754 123.738C97.4625 123.919 97.2367 123.986 97.056 123.873L94.7753 122.542C94.7075 122.497 94.6849 122.429 94.6849 122.339Z" fill="#EDDDDD"/>
<path d="M93.3298 123.693C93.3298 123.512 93.4427 123.287 93.5782 123.219C93.6234 123.196 93.6686 123.174 93.7137 123.196L96.0848 124.573C96.2654 124.686 96.3332 124.912 96.2203 125.092C96.1074 125.273 95.8816 125.34 95.7009 125.227L93.4202 123.896C93.3524 123.851 93.3298 123.806 93.3298 123.693Z" fill="#EDDDDD"/>
<path d="M62.3027 84.2671L58.7574 82.2586V82.2811C58.3058 82.0329 57.6961 82.0329 57.0638 82.4165C55.596 83.2515 54.4218 85.5309 54.4218 87.4717C54.4218 88.4196 54.7153 89.1192 55.1669 89.4802H55.1895C55.2573 89.5479 55.3476 89.5705 55.4379 89.6156L58.9381 91.6016L62.3027 84.2671Z" fill="#281818"/>
<path d="M63.2963 86.4335C63.2963 88.3743 62.0995 90.6536 60.6543 91.4886C59.1865 92.3236 58.0122 91.4435 58.0122 89.4801C58.0122 87.5393 59.209 85.2599 60.6543 84.4249C62.0995 83.5899 63.2963 84.4926 63.2963 86.4335Z" fill="#3F2A28"/>
<path d="M62.0204 88.5313C62.5038 87.3958 62.3747 86.2538 61.732 85.9806C61.0893 85.7073 60.1765 86.4063 59.6931 87.5417C59.2097 88.6772 59.3389 89.8192 59.9815 90.0924C60.6242 90.3657 61.537 89.6667 62.0204 88.5313Z" fill="#FF9E55"/>
<path d="M42.7019 73.186L39.1566 71.1775V71.2001C38.705 70.9518 38.0953 70.9518 37.463 71.3355C35.9952 72.1705 34.8209 74.4498 34.8209 76.3907C34.8209 77.3385 35.1145 78.0381 35.5661 78.3992H35.5887C35.6564 78.4669 35.7468 78.4895 35.8371 78.5346L39.3373 80.5206L42.7019 73.186Z" fill="#281818"/>
<path d="M43.6955 75.3525C43.6955 77.2933 42.4987 79.5726 41.0534 80.4077C39.5856 81.2427 38.3888 80.3625 38.3888 78.3991C38.3888 76.4357 39.5856 74.179 41.0308 73.344C42.4986 72.509 43.6955 73.3891 43.6955 75.3525Z" fill="#3F2A28"/>
<path d="M42.702 76.12C42.702 77.1807 42.0471 78.4219 41.2568 78.8958C40.4664 79.3472 39.8115 78.8733 39.8115 77.79C39.8115 76.7293 40.4664 75.4881 41.2568 75.0142C42.0697 74.5628 42.702 75.0593 42.702 76.12Z" fill="#FF9E55"/>
<path d="M94.4364 62.8727C94.4364 58.0432 97.372 52.4238 101.008 50.325C101.934 49.806 103.017 49.5352 103.876 49.5352C104.553 49.5352 106.292 49.6029 108.076 50.7087C110.131 51.995 110.402 55.132 110.402 55.132L103.04 70.0267C103.04 70.0267 100.669 71.2002 98.2301 69.8461C96.7171 69.0111 95.7913 67.6345 95.3848 66.8897C95.2042 66.5512 94.9332 65.8742 94.8429 65.626C94.5719 64.8361 94.4364 63.9108 94.4364 62.8727Z" fill="#281818"/>
<path d="M110.56 57.005C110.56 61.8345 107.624 67.4539 103.988 69.5527C100.353 71.6515 97.417 69.4173 97.417 64.5878C97.417 59.7583 100.353 54.1389 103.988 52.0401C107.624 49.9413 110.56 52.1755 110.56 57.005Z" fill="#3F2A28"/>
<path d="M109.769 57.9756C109.769 61.5638 107.579 65.7388 104.892 67.296C102.204 68.8532 100.014 67.2058 100.014 63.6175C100.014 60.0292 102.204 55.8542 104.892 54.297C107.601 52.7398 109.769 54.3873 109.769 57.9756Z" fill="#FFC373"/>
<path d="M103.559 49.7832C104.553 49.219 105.479 48.9256 106.36 48.8579V40.2371L79.7358 44.0059C77.1615 43.893 74.6323 44.2315 72.5322 45.0214L32.7885 50.6408V70.1167C32.5627 72.3058 34.0531 74.6528 37.192 76.4582L50.0861 83.9056C55.4379 86.9974 63.6125 87.3359 68.2417 84.6503L97.3269 68.0405C96.9881 67.0475 96.8075 65.8966 96.8075 64.5651C96.7849 58.6523 99.1334 52.3559 103.559 49.7832Z" fill="#E8871C"/>
<path d="M105.298 49.7382C106.337 49.1514 107.331 48.8355 108.234 48.7678V39.6956L80.2552 43.6449C77.5454 43.5321 74.8807 43.8932 72.6903 44.7056L30.9143 50.6183V62.0827V67.0476C30.6885 69.3495 32.2466 71.8094 35.5435 73.7051L49.0925 81.5361C54.7153 84.7859 63.2963 85.147 68.174 82.326L96.0849 66.2126C96.0849 66.2126 96.6494 65.9193 96.8753 65.7838C96.8753 65.6259 96.8753 65.1971 96.8753 65.0165C97.1914 59.0135 100.827 52.3109 105.298 49.7382Z" fill="#F2982C"/>
<path d="M108.211 39.1316V36.085C108.211 36.085 107.692 36.1076 107.037 36.1527C106.269 35.092 105.117 34.0765 103.582 33.1738L90.0329 25.3428C84.4101 22.093 75.8291 21.7319 70.9514 24.5529L34.1659 45.7891C33.1272 46.3984 32.3594 47.098 31.8175 47.8428L30.9142 47.6397L30.9368 50.1672C30.7335 52.4466 32.2917 54.9065 35.566 56.8022L49.115 64.6332C54.7378 67.8829 63.3188 68.2214 68.1965 65.423L104.982 44.1868C107.285 42.8553 108.324 41.0273 108.211 39.1316Z" fill="#352221"/>
<path d="M68.1739 62.3535L104.959 41.1172C109.837 38.3188 109.205 33.3539 103.582 30.1042L90.0329 22.2732C84.4101 19.0234 75.8291 18.6623 70.9514 21.4833L34.1659 42.7195C29.2883 45.5179 29.9206 50.4828 35.5434 53.7326L49.0924 61.5636C54.7152 64.7908 63.2962 65.1519 68.1739 62.3535Z" fill="#FFC373"/>
<path d="M48.9345 39.1538L74.3162 24.5074C77.6809 22.5665 83.5973 22.8148 87.4813 25.049L96.8301 30.4427C98.6141 31.4582 99.6303 32.7446 99.9238 34.0084C100.375 32.2932 99.3367 30.375 96.8301 28.9306L87.4813 23.537C83.5973 21.3028 77.6809 21.0545 74.3162 22.9953L48.9345 37.6418C47.1054 38.7025 46.4505 40.1694 46.7892 41.6814C47.0602 40.711 47.7377 39.8309 48.9345 39.1538Z" fill="#F2982C"/>
<path d="M49.8829 45.2243L59.2317 50.618C63.1157 52.8522 69.0321 53.1005 72.3968 51.1597L97.7785 36.5132C98.9754 35.8136 99.6754 34.9335 99.9238 33.9856C99.6302 32.7218 98.6141 31.458 96.8301 30.4199L87.4813 25.0262C83.5973 22.792 77.6809 22.5438 74.3162 24.4846L48.9344 39.131C47.7376 39.8306 47.0376 40.7108 46.7892 41.6586C47.0827 42.9224 48.0989 44.2088 49.8829 45.2243Z" fill="#F9B858"/>
<path d="M60.9254 57.7723L87.6847 42.336C91.23 40.2824 90.7784 36.6941 86.6911 34.3245L76.8455 28.6374C72.7582 26.2678 66.5257 26.0196 62.9804 28.0732L36.2211 43.5095C32.6758 45.5632 33.1274 49.1515 37.2147 51.5211L47.0603 57.2082C51.125 59.5552 57.3801 59.8034 60.9254 57.7723Z" fill="#EFDFDF"/>
<path d="M60.4509 54.5449L84.2294 40.8238C87.3683 39.0183 86.9844 35.8137 83.3487 33.7149L74.5871 28.6598C70.9514 26.561 65.3963 26.3353 62.2575 28.1407L38.479 41.8619C35.3402 43.6673 35.724 46.8719 39.3597 48.9707L48.1214 54.0259C51.757 56.1247 57.3121 56.3504 60.4509 54.5449Z" fill="white"/>
<path d="M40.0823 43.0807C40.0823 43.0807 45.2761 43.5772 49.3182 46.2853C53.3377 48.9935 58.1702 53.4845 58.1702 53.4845L59.5928 52.672C59.5928 52.672 54.3765 47.2332 50.3569 45.0215C46.3374 42.8099 41.4823 42.2231 41.4823 42.2231L40.0823 43.0807Z" fill="#EFDFDF"/>
<path d="M45.7729 39.8311C45.7729 39.8311 50.9667 40.3276 54.9863 43.0357C59.0058 45.7438 63.8383 50.2348 63.8383 50.2348L65.2609 49.4224C65.2609 49.4224 60.0445 43.9835 56.025 41.7493C52.0055 39.5377 47.1504 38.9509 47.1504 38.9509L45.7729 39.8311Z" fill="#EFDFDF"/>
<path d="M51.4409 36.4685C51.4409 36.4685 56.6347 36.965 60.6542 39.6731C64.6738 42.3587 69.5062 46.8722 69.5062 46.8722L70.9289 46.0598C70.9289 46.0598 65.7125 40.621 61.693 38.3868C57.6734 36.1751 52.8184 35.5884 52.8184 35.5884L51.4409 36.4685Z" fill="#EFDFDF"/>
<path d="M57.1316 33.2184C57.1316 33.2184 62.3254 33.7149 66.3449 36.423C70.3644 39.1311 75.1969 43.6221 75.1969 43.6221L76.6195 42.8097C76.6195 42.8097 71.4032 37.3709 67.3837 35.1592C63.3641 32.9476 58.5091 32.3608 58.5091 32.3608L57.1316 33.2184Z" fill="#EFDFDF"/>
<path d="M62.822 29.9915C62.822 29.9915 68.0158 30.488 72.0353 33.1961C76.0549 35.9042 80.8873 40.3952 80.8873 40.3952L82.31 39.5827C82.31 39.5827 77.0936 34.1439 73.0741 31.9097C69.0546 29.6981 64.1995 29.1113 64.1995 29.1113L62.822 29.9915Z" fill="#EFDFDF"/>
<path d="M83.2811 63.2114L94.5493 56.7119V53.575L83.2811 60.0745V63.2114Z" fill="#352221"/>
<path d="M83.2811 66.4611L94.5493 59.9616V58.3818L83.2811 64.9039V66.4611Z" fill="#352221"/>
<path d="M61.4672 99.7032C54.3314 99.7032 47.9408 97.4916 42.2277 93.0909C37.5081 89.4575 34.979 85.1245 34.7306 80.2724C34.3241 72.4414 39.9243 66.5964 39.9921 66.5512C40.7373 65.8516 41.9115 65.8742 42.6116 66.6189C43.3116 67.3637 43.289 68.5372 42.5438 69.2368C41.7986 69.959 38.1178 74.7433 38.434 80.1596C38.6372 83.8607 40.6921 87.2458 44.4858 90.1796C56.0702 99.1165 70.4547 97.9204 89.7169 86.3883C105.343 77.0452 115.099 66.2804 117.921 55.2674C122.054 39.0863 112.795 12.7724 103.13 5.66353C100.33 3.60987 97.8237 3.31649 95.4978 4.73826C91.7041 7.0853 86.9393 10.3576 83.4392 12.7498C81.8359 13.8556 80.5036 14.7583 79.7132 15.2774C76.1905 17.5793 71.9225 23.3115 69.3708 26.7418C68.9418 27.3285 68.5353 27.8476 68.1966 28.299C67.5643 29.1114 66.4126 29.2694 65.5997 28.66C64.7867 28.0507 64.6287 26.8772 65.2384 26.0647C65.5771 25.636 65.961 25.1169 66.39 24.5302C69.2579 20.6711 73.6162 14.826 77.6809 12.163C78.4486 11.644 79.7584 10.7638 81.3391 9.68058C84.8618 7.26584 89.6717 3.94838 93.5557 1.5562C96.1075 -0.023536 100.217 -1.10679 105.321 2.63945C116.07 10.5382 126.028 38.4319 121.489 56.1475C118.396 68.3115 108.324 79.5502 91.5911 89.5478C80.3229 96.3181 70.3192 99.7032 61.4672 99.7032Z" fill="#593D3D"/>
<path d="M25.2463 88.6902L2.07751 99.6807L29.8303 114.214L25.2463 88.6902Z" fill="#C6AFAF"/>
<path d="M23.9365 87.9907L0.7677 99.0038L28.5205 113.515L23.9365 87.9907Z" fill="#DBC7C6"/>
<path d="M0.767776 99.0037L0 100.764L28.5206 115.749L29.2432 116.065L29.8303 114.214L0.767776 99.0037Z" fill="#C6AFAF"/>
<path d="M73.3227 14.5552C73.3227 14.5552 68.6257 19.836 66.0288 23.3115C64.3803 25.5231 59.593 32.2934 59.593 32.2934L64.29 35.6786C64.29 35.6786 69.0096 28.7728 70.9742 26.2678C72.3968 24.4624 77.7035 18.3691 77.7035 18.3691C77.7035 18.3691 76.6873 14.5552 73.3227 14.5552Z" fill="#352221"/>
<path d="M64.3351 35.5659C63.9738 36.1075 62.5963 35.8367 61.264 34.934C59.9317 34.0313 59.1639 32.8803 59.5252 32.3387C59.8865 31.7971 61.264 32.0679 62.5963 32.9706C63.9286 33.8507 64.6964 35.0243 64.3351 35.5659Z" fill="#472F2E"/>
<path d="M63.3641 35.1596C63.1383 35.4981 62.2576 35.3401 61.3995 34.7534C60.5414 34.1892 60.0672 33.4444 60.293 33.0834C60.5188 32.7448 61.3995 32.9028 62.2576 33.4896C63.0931 34.0538 63.5899 34.7985 63.3641 35.1596Z" fill="#DBC7C6"/>
<path d="M60.3047 33.0645L16.204 97.1907L19.2559 99.287L63.3567 35.1609L60.3047 33.0645Z" fill="#DBC7C6"/>
<path d="M28.5206 113.515L27.8883 115.41L29.2432 116.065L29.8303 114.214L28.5206 113.515Z" fill="#B29A9A"/>
<path d="M86.5779 27.1707C87.2328 27.1707 87.7522 27.4415 87.7522 27.78C87.7522 28.1185 87.2328 28.3893 86.5779 28.3893C85.9456 28.3893 85.4037 28.1185 85.4037 27.78C85.4037 27.4415 85.9456 27.1707 86.5779 27.1707Z" fill="#3F2A28"/>
<path d="M83.1683 25.1846C83.8231 25.1846 84.3425 25.4554 84.3425 25.7939C84.3425 26.1324 83.8231 26.4032 83.1683 26.4032C82.5134 26.4032 81.994 26.1324 81.994 25.7939C81.994 25.4554 82.5134 25.1846 83.1683 25.1846Z" fill="#3F2A28"/>
<path d="M96.6493 32.7676C97.3042 32.7676 97.8236 33.0384 97.8236 33.3769C97.8236 33.7154 97.3042 33.9862 96.6493 33.9862C96.0171 33.9862 95.4751 33.7154 95.4751 33.3769C95.4751 33.0384 96.0171 32.7676 96.6493 32.7676Z" fill="#3F2A28"/>
<path d="M93.217 30.7817C93.8718 30.7817 94.3912 31.0526 94.3912 31.3911C94.3912 31.7296 93.8718 32.0004 93.217 32.0004C92.5621 32.0004 92.0427 31.7296 92.0427 31.3911C92.0653 31.0526 92.5847 30.7817 93.217 30.7817Z" fill="#3F2A28"/>
<path d="M89.8072 28.7957C90.4621 28.7957 90.9814 29.0665 90.9814 29.405C90.9814 29.7435 90.4621 30.0143 89.8072 30.0143C89.1749 30.0143 88.6329 29.7435 88.6329 29.405C88.6329 29.0665 89.1523 28.7957 89.8072 28.7957Z" fill="#3F2A28"/>
<path d="M79.7132 23.1987C80.3681 23.1987 80.8874 23.4695 80.8874 23.808C80.8874 24.1466 80.3681 24.4174 79.7132 24.4174C79.0809 24.4174 78.5389 24.1466 78.5389 23.808C78.5389 23.4695 79.0809 23.1987 79.7132 23.1987Z" fill="#3F2A28"/>
<path d="M74.9033 25.4778L83.4392 30.3976L85.2457 29.3595L76.7099 24.4397L74.9033 25.4778Z" fill="#3F2A28"/>
<path d="M85.0425 31.4584L93.5783 36.3782L95.3849 35.34L86.849 30.3977L85.0425 31.4584Z" fill="#3F2A28"/>
</svg>
