<svg width="85" height="206" viewBox="0 0 85 206" fill="none" xmlns="http://www.w3.org/2000/svg">
<path d="M4.10847 149.911L63.7564 110.724L67.8785 2.375L63.7427 0L0 36.7988V38.5186V39.8836V147.536L4.10847 149.911ZM59.334 7.64367V12.421V38.4777V63.033V108.185L4.40876 139.893V39.3512L59.334 7.64367Z" fill="#9D9D9C"/>
<path d="M4.10852 149.911L67.8649 113.099L67.8786 27.0122L67.8649 25.6063V24.2414V23.1085C67.8649 23.0812 67.8649 2.375 67.8649 2.375L4.12217 39.1875L4.10852 149.911ZM8.53093 142.295L8.54458 138.855L8.53093 41.7399L63.4698 10.0187V19.8462L63.4562 29.3872V110.56L8.53093 142.295Z" fill="#EDEDED"/>
<path d="M8.53088 138.855V41.7398L60.4942 11.7521V108.854L8.53088 138.855Z" fill="#A4D9F5"/>
<path opacity="0.3" d="M9.84119 136.59V98.7535L47.6637 20.6652L59.1838 14.0179V38.464L11.2607 135.771L9.84119 136.59Z" fill="white"/>
<path opacity="0.3" d="M16.5431 132.713L59.1838 47.814V63.0194L26.398 127.021L16.5431 132.713Z" fill="white"/>
<path d="M27.8722 72.219L28.2407 70.6903C28.6912 69.339 29.7968 69.0387 29.4965 70.6084L28.1452 77.8289L27.8722 72.219Z" fill="#FCAF75"/>
<path d="M30.7386 63.8247L27.2989 61.8182L16.7616 67.9059L16.7889 75.3038L20.2285 77.2967L30.7522 71.2227L30.7386 63.8247Z" fill="#15ABEB"/>
<path d="M20.2285 77.2966L16.7889 75.3037L16.7616 67.9058L20.2012 69.8986L20.2285 77.2966Z" fill="#2F608F"/>
<path d="M20.2285 77.2966L16.7889 75.3037L16.7616 67.9058L20.2012 69.8986L20.2285 77.2966Z" fill="#2F608F"/>
<path d="M20.2012 69.8987L16.7616 67.9059L27.2989 61.8182L30.7386 63.8247L20.2012 69.8987Z" fill="#4A8BC9"/>
<path d="M30.7386 63.8247L30.7523 71.2227L20.2286 77.2967L20.2013 69.8987L30.7386 63.8247Z" fill="#15ABEB"/>
<path d="M25.0878 85.5135C24.6783 85.7865 22.8629 82.5107 22.1668 80.8864C21.3478 78.4295 20.7882 76.4367 21.3888 73.584L19.2868 69.0387C18.9046 68.2061 19.7099 67.2916 20.2968 68.0696L22.1532 71.3455L21.1294 65.8038C20.7473 64.3979 21.9075 63.5789 22.276 64.6163L24.4053 70.2672L23.7501 63.9202C23.6409 62.7327 24.8694 62.0775 25.197 63.1831L26.4664 69.885L26.8349 64.7801C26.8895 63.4015 28.0633 63.1695 28.1452 64.4252L28.3363 77.01C28.1043 78.2657 26.6575 81.0229 26.4937 81.2003L27.2444 84.7492L25.0878 85.5135Z" fill="#FCAF75"/>
<path d="M82.115 121.152L81.8284 124.537L81.1596 126.53L79.4124 128.891C78.9757 129.628 77.2012 130.516 77.2012 130.516C74.8126 131.894 73.0518 128.646 73.3521 127.444L74.9764 122.667C74.9764 122.667 75.2084 121.657 74.8126 120.852C74.4987 120.224 72.0554 121.534 72.0554 121.534C71.1955 122.026 70.4311 122.462 69.8169 122.817C68.9979 122.94 68.6431 122.735 68.7659 122.189L70.4584 120.429L72.3421 118.777L73.1747 118.054C74.5533 117.166 75.8499 116.47 76.8737 116.334L76.9692 115.979L77.1739 115.283L79.0166 115.569L81.7601 115.993L81.6236 118.081L81.7874 119.064L82.115 121.152Z" fill="#FCAF75"/>
<path opacity="0.3" d="M74.5532 120.551L78.2659 119.692L80.2587 123.049L78.5389 129.11C78.6071 127.499 78.6753 125.561 77.6107 125.179L75.7544 124.919L77.2695 123.896L77.0374 122.394L73.8162 121.889L74.5532 120.551Z" fill="#FCAF75"/>
<path opacity="0.3" d="M72.3419 118.763L78.9755 117.999C77.9655 117.467 77.2148 116.812 76.9691 115.979L76.8599 116.334C75.8498 116.47 74.5531 117.167 73.1609 118.04L72.3419 118.763Z" fill="#FCAF75"/>
<path d="M72.1782 76.0135L74.8535 89.1715L75.7544 100.187C76.5597 106.574 77.4742 111.707 76.9009 115.051C76.86 115.392 76.8873 115.692 76.9692 115.979C77.2149 116.812 77.9656 117.467 78.9756 117.999C79.7809 118.449 80.75 118.791 81.7738 119.05C83.3707 112.485 84.5992 106.165 84.0669 101.06L83.0022 88.0522C82.7156 80.5997 79.3715 75.0717 72.1782 76.0135Z" fill="#EDEDED"/>
<path opacity="0.5" d="M75.7544 100.173C76.5597 106.561 77.4742 111.693 76.9009 115.037C76.86 115.378 76.8873 115.679 76.9692 115.965C77.2149 116.798 77.9656 117.453 78.9756 117.985C78.962 117.166 78.9893 116.361 79.0166 115.542C79.4397 103.203 83.1524 92.8705 78.921 87.1787L74.8535 89.1442L75.7544 100.173Z" fill="#15ABEB"/>
<path d="M42.6272 196.401C42.6272 194.026 44.4699 193.112 47.1861 192.812C49.5611 192.812 52.7687 193.876 56.9727 194.845L61.7637 197.466C62.6782 199.923 62.6372 202.12 62.1185 204.127C60.7673 205.287 59.0611 206.011 57.4778 205.587L52.0999 203.308L51.7177 202.53C47.4181 202.052 42.6272 200.114 42.6272 196.401Z" fill="#1D1D1B"/>
<path d="M60.1122 186.86C60.1122 184.922 61.8593 184.581 64.4527 184.376C69.1481 184.376 69.3392 186.724 73.666 186.628L77.911 189.208C78.7846 191.692 78.6071 194.354 78.1021 196.347C76.8191 197.466 74.8535 197.712 73.3794 197.493L69.0252 194.927L68.6567 194.135C64.5482 193.521 60.1122 190.477 60.1122 186.86Z" fill="#1D1D1B"/>
<path d="M75.4813 120.552L59.8527 127.09C59.8254 129.86 59.8937 132.467 60.1667 134.406C61.1494 141.613 64.0568 152.491 64.0568 152.491C66.1588 161.745 66.9914 173.238 67.4828 185.345C67.5646 189.699 74.0481 193.521 78.1975 189.399C79.385 174.617 79.385 160.271 75.9044 150.758C77.5697 143.25 76.0273 134.733 75.5632 126.093C75.6724 124.974 75.0445 120.743 75.4813 120.552Z" fill="#0F7BAA"/>
<path d="M46.9678 142.855C47.5548 150.048 49.8479 160.913 49.8479 160.913L51.4449 193.712C51.1446 195.883 52.0318 197.657 53.4923 198.735C55.7581 200.387 59.4025 200.36 61.9412 197.575C63.9614 182.82 64.7667 168.679 61.8048 159.193C63.8931 151.7 63.7839 144.725 63.7976 136.085C68.6158 134.119 76.0547 131.321 75.7544 123.732C75.6453 120.838 75.2085 118.026 74.4714 115.31C74.3349 114.792 74.1848 114.273 74.021 113.754C73.8845 113.358 73.7616 112.963 73.6251 112.58C70.9635 117.904 62.419 121.22 53.1237 120.047C52.7142 119.992 52.3184 119.937 51.9089 119.869C50.9125 119.705 49.9298 119.487 48.9197 119.228C48.9197 119.228 48.8378 119.76 48.7013 120.674C48.6058 121.425 48.4556 122.408 48.3055 123.582C47.5957 128.932 46.572 137.996 46.9678 142.855Z" fill="#15ABEB"/>
<path opacity="0.5" d="M46.9677 142.841C47.541 150.034 49.8477 160.899 49.8477 160.899L51.4447 193.712C51.1308 195.883 52.0316 197.643 53.5058 198.722C52.0726 184.922 51.4447 171.982 53.5058 161.964C50.421 150.594 49.0151 138.692 52.5639 129.915C52.523 126.407 52.1408 123.24 52.8915 120.688C51.5812 120.278 50.2572 119.787 48.9332 119.187C48.9196 119.214 46.3808 135.661 46.9677 142.841Z" fill="#15ABEB"/>
<path d="M78.6753 86.7691C78.4159 89.8266 78.1156 92.966 77.7607 95.9825C76.7507 104.827 75.454 112.744 74.4576 115.296C70.9906 124.537 63.1422 126.134 52.4957 122.23C51.2672 121.78 49.9978 121.261 48.6875 120.661C48.6193 120.633 48.551 120.606 48.4691 120.565C47.1315 115.324 47.4045 112.28 47.1861 105.865C47.1724 105.169 47.1451 104.431 47.1042 103.653C47.0632 102.903 47.0223 102.097 46.9677 101.251C46.8448 99.2174 46.8858 97.3065 46.7766 94.9042C46.722 93.5938 46.5992 92.1334 46.3944 90.4408C46.5309 90.318 46.8448 90.1542 47.2134 90.0177C47.2953 89.9767 47.3908 89.9494 47.4864 89.9221C47.541 89.9085 48.1825 89.3489 48.2234 89.3352C48.9195 89.1305 48.5101 88.5982 48.7967 88.4207C49.5474 87.9839 50.2708 87.5335 50.9943 87.0967C51.7313 86.6326 52.4684 86.1822 53.1782 85.7318C58.829 82.142 63.579 78.8252 69.1343 76.887C69.6121 76.7232 70.0898 76.5594 70.5812 76.4092C71.0998 76.2591 71.6049 76.1226 72.1372 75.9998C76.8599 77.3101 78.6616 81.2411 78.6753 86.7691Z" fill="#15ABEB"/>
<path d="M73.8843 90.4272C69.7758 93.9897 65.995 96.0371 60.8628 97.8252C61.7636 90.4409 58.7471 84.6262 53.2191 85.7455C58.6925 81.8281 62.3779 79.303 67.9195 77.3647C73.3383 77.3647 75.3994 85.1176 73.8843 90.4272Z" fill="#EDEDED"/>
<path d="M66.2816 77.9654L64.6846 71.2499L54.4066 74.7441L56.0855 83.9165C59.8527 83.9029 67.5646 80.4359 66.2816 77.9654Z" fill="#FCAF75"/>
<path d="M56.0309 77.4604C56.0309 77.4604 54.2156 79.5897 52.5776 77.1874C50.926 74.7851 48.9742 67.6874 51.3082 62.8965C53.6423 58.1055 60.5216 66.964 60.5216 66.964L56.0309 77.4604Z" fill="#FCAF75"/>
<path d="M65.9268 75.3857C65.9268 75.3857 62.0094 76.6004 58.5425 77.8425C57.6553 78.1565 56.0856 77.0236 55.485 76.3002L54.4067 75.0035L54.1474 71.9733L52.3047 70.6766L52.9462 68.6155C51.8952 68.0423 51.1035 66.9776 50.4211 65.7082C48.7968 60.344 55.7443 56.4949 61.8456 58.3785C69.6531 60.6579 69.6121 69.612 65.9268 75.3857Z" fill="black"/>
<path d="M52.8643 71.5502C52.8779 71.2362 52.9052 70.9223 53.0144 70.6356C53.1236 70.349 53.3284 70.076 53.6286 69.9668C54.1746 69.7621 54.7888 70.1989 54.9936 70.7448C55.1983 71.2908 55.1028 71.8914 55.0209 72.4647C54.9526 72.8742 54.8844 73.2973 54.8161 73.7068C54.7615 74.048 54.6933 74.4165 54.5022 74.7032C54.3111 75.0035 53.9562 75.2218 53.615 75.14C53.3693 75.0854 53.1646 74.867 53.069 74.6349C52.9598 74.4029 52.9325 74.1435 52.9189 73.8842C52.837 73.1062 52.8233 72.3282 52.8643 71.5502Z" fill="#FCAF75"/>
<path d="M57.6689 100.118C57.0273 106.957 54.1883 109.864 50.4347 108.431L47.1998 105.865C47.1861 105.169 47.1588 104.432 47.1179 103.654C47.0769 102.903 47.036 102.098 46.9814 101.251C46.8585 99.2175 46.8995 97.3066 46.7903 94.9043L47.2271 90.0178C47.309 89.9769 47.4045 89.9496 47.5001 89.9223C47.5547 89.9086 48.1962 89.349 48.2371 89.3354C48.9332 89.1306 48.5238 88.5983 48.8104 88.4208C49.5611 87.9841 50.2845 87.5336 51.008 87.0969C58.2558 86.5099 59.1157 92.3792 57.6689 100.118Z" fill="#EDEDED"/>
<path d="M22.2623 81.6917C22.822 85.923 23.1768 89.5947 24.3097 93.2664C24.4326 93.6622 24.5554 94.0581 24.6783 94.4539C25.9613 98.5351 27.3126 102.193 29.7286 105.141C35.5978 105.728 41.3988 105.155 47.1315 103.654C48.1689 103.381 49.179 103.08 50.2027 102.753C50.2436 102.739 50.2982 102.725 50.3392 102.712C50.9124 102.534 51.4721 102.33 52.0453 102.139C58.5561 100.992 61.3406 85.8821 49.6567 88.2707C49.411 88.298 49.138 88.3663 48.8514 88.4345C48.319 88.571 47.7185 88.7621 47.0906 88.9941C47.0497 89.0078 46.9951 89.0351 46.9541 89.0487C46.5992 89.1852 46.2443 89.349 45.8758 89.4992C43.9512 90.3318 41.9584 91.4374 40.8119 92.2973C37.9591 92.4474 36.526 92.7614 34.3694 93.9079C34.3557 93.9079 30.452 84.2714 27.4764 78.5114C24.8967 78.1974 22.6718 79.576 22.2623 81.6917Z" fill="#EDEDED"/>
<path opacity="0.5" d="M24.6783 94.4402C25.9614 98.5214 27.3127 102.179 29.7286 105.128C35.5979 105.715 41.3989 105.141 47.1316 103.64C47.5138 111.625 47.0088 114.737 48.4966 120.551C48.5648 120.579 48.6331 120.606 48.715 120.647C50.0253 121.248 51.2947 121.766 52.5095 122.217C52.2911 121.439 52.0864 120.647 51.9089 119.842C50.6805 114.546 50.2983 108.745 50.3392 102.698C50.3392 101.511 50.3665 100.323 50.3938 99.1219C49.3155 99.9545 48.1826 100.651 46.9951 101.238C42.2997 103.531 36.7308 103.927 30.6022 103.094L24.6783 94.4402Z" fill="#15ABEB"/>
<path d="M78.9209 87.1923C78.6616 90.2498 78.1156 92.9523 77.7744 95.9825C76.8735 96.3783 76.2729 96.0508 76.3002 94.2081C77.6242 85.1722 76.9963 78.3202 70.6221 76.4229C71.1271 76.2728 71.6458 76.1363 72.1644 76.0134C77.4058 77.3647 78.9073 81.6779 78.9209 87.1923Z" fill="#EDEDED"/>
</svg>
