<svg width="118" height="143" viewBox="0 0 118 143" fill="none" xmlns="http://www.w3.org/2000/svg">
<path d="M83.0926 31.331C78.6527 29.3274 76.4407 22.5312 75.9278 18.1714C75.4149 13.7475 76.1201 8.97097 74.4211 4.75543C73.0907 1.45352 70.5101 -0.149352 66.9517 0.0109347C65.2046 0.0910781 63.3773 0.603996 62.2072 1.70998C61.2775 2.39921 60.7646 3.50519 60.957 4.67528C60.957 4.72337 60.957 4.77146 60.957 4.80351C60.957 4.83557 60.973 4.8516 61.0051 4.8516C61.0371 4.9638 61.0371 5.076 61.0852 5.1882C61.2134 5.55686 61.4699 5.92552 61.7905 6.26213C61.8385 6.31021 61.8706 6.3583 61.9187 6.39035C62.5438 6.96739 63.3613 7.35208 64.1146 7.19179C65.429 7.41619 66.8715 7.51236 67.5447 8.16954C69.1636 9.70829 68.6667 13.2506 68.9392 15.2863C69.2117 17.2899 69.388 20.8001 69.8368 22.7717C70.9749 27.8688 76.2323 33.2865 83.0926 31.331Z" fill="#2C1D1B"/>
<path d="M58.104 4.49893C58.104 4.49893 60.0434 1.87023 62.6241 3.60133C66.0542 5.90946 65.0444 8.26568 64.1628 8.8908C63.2973 9.51592 58.104 4.49893 58.104 4.49893Z" fill="#F9423E"/>
<path d="M84.4874 98.3951L86.0742 101.809C86.0742 101.809 85.2567 104.101 84.5835 105.464C83.9103 106.826 82.7402 106.618 81.7304 108.333C80.7206 110.048 81.8426 111.122 85.0163 111.234C88.1739 111.346 88.8632 109.759 89.8409 107.692C90.8187 105.624 92.2933 102.947 92.3094 101.232C92.3414 98.5233 90.0172 98.6195 88.6708 97.6738C87.7732 97.0647 84.4874 98.3951 84.4874 98.3951Z" fill="#FFC9B6"/>
<path d="M46.3709 111.923C45.842 113.238 45.0726 114.905 42.3958 115.353C38.9656 115.914 38.1963 115.369 36.6896 116.363C35.1829 117.373 37.2987 119.296 38.9657 120.483C41.4181 122.23 44.2391 121.396 46.0503 120.995C48.4546 120.467 50.9391 119.649 50.8269 117.261C50.6987 114.889 51.6764 113.286 51.6764 113.286C51.6764 113.286 47.2525 109.695 46.3709 111.923Z" fill="#FFC9B6"/>
<path d="M42.0112 115.401C42.0112 115.401 41.9791 116.523 43.3736 117.213C44.7681 117.886 47.541 117.998 48.5509 117.277C49.5607 116.539 50.859 115.93 50.859 115.93C50.859 115.93 51.8848 118.735 48.5188 120.274C45.1528 121.813 43.3255 122.903 39.8954 121.861C36.4813 120.819 34.2854 118.591 36.1607 116.379C37.0743 115.289 42.0112 115.401 42.0112 115.401Z" fill="#3F2A28"/>
<path d="M82.1952 86.6461C80.8007 85.6844 79.4382 85.3157 77.7392 84.9791C81.9227 77.686 81.9708 70.377 80.3358 62.1863C79.887 59.9263 78.9413 54.6368 76.6011 53.3865C75.6554 52.8897 64.6598 53.2904 63.5378 52.9538C63.5217 52.9538 63.4897 52.9377 63.4736 52.9377C62.4798 56.3999 61.2937 60.8719 61.1815 62.7794C60.893 67.6681 64.8201 68.8542 64.8201 68.8542C64.8201 68.8542 64.9803 71.4188 65.4933 73.6308C66.487 78.3272 68.5067 84.9791 71.3117 88.81C71.1033 91.3906 72.7863 92.0638 74.9181 92.5767C76.5691 92.9774 82.644 99.1324 86.0741 101.809C86.0901 101.809 89.6164 101.392 89.6164 98.0425C87.5167 95.4458 87.2763 90.1403 82.1952 86.6461Z" fill="#15ABEB"/>
<path d="M61.1814 62.7632C61.2936 60.8558 62.4798 56.3838 63.4735 52.9216C61.4699 52.3125 58.697 51.8477 57.9757 51.5271C51.436 61.2565 49.5126 73.7268 49.3843 85.3637C47.8456 87.784 48.4226 90.9256 48.4387 93.6986C48.4867 99.0682 47.2204 104.454 46.5953 109.791C46.5152 110.545 46.2267 111.603 46.0183 112.709C47.1724 113.366 50.907 114.247 51.2597 114.119C53.103 108.701 56.469 102.835 57.3826 97.1448C57.6391 95.606 57.7353 94.0512 57.591 92.4804C57.4628 91.0539 56.7255 89.5151 57.2704 88.1206C57.7192 86.9665 59.0336 85.6842 59.7228 84.6103C60.7807 82.9433 61.7425 81.2122 62.6401 79.4491C63.6018 77.5737 64.5795 75.6182 65.4771 73.5986C64.9642 71.3867 64.8039 68.8221 64.8039 68.8221C64.8039 68.8221 60.909 67.652 61.1814 62.7632Z" fill="#F4EBEA"/>
<path d="M53.6802 21.9701C56.6134 18.2515 58.3285 18.7163 61.8869 20.752C66.2467 23.2524 69.773 24.8232 71.6804 26.4101C74.9182 29.1029 76.7936 34.6488 77.3385 41.6213C77.4187 42.6792 78.0598 46.2857 78.4285 47.3596C79.7749 51.1744 79.1177 51.7995 78.156 52.6811C78.6849 53.194 79.1979 55.422 78.0919 56.0632C73.0429 59.0285 61.8388 59.5574 57.9278 52.3766C57.6873 51.9278 58.3124 50.389 58.617 49.9883C57.7995 49.5235 57.2225 48.4015 57.2225 47.3596C55.7318 46.5582 54.4495 45.3239 54.1129 43.2082C51.1156 42.535 47.8938 40.8519 48.8716 37.2295C49.3524 35.4663 50.8271 31.4431 51.3881 29.4235C52.5261 25.4003 52.8306 23.028 53.6802 21.9701Z" fill="#F9423E"/>
<path d="M55.9401 23.9258C56.7576 23.7976 58.9054 22.6916 58.2642 18.7165C58.0879 17.6105 63.0889 14.6131 63.0889 14.7734C63.0408 18.3799 63.6018 22.4992 65.2528 24.3586C62.8645 26.843 60.1557 33.1423 56.0844 32.2767C53.8403 31.8119 54.3212 28.51 55.9401 23.9258Z" fill="#FFB9A4"/>
<path d="M54.0487 22.6755C54.0487 22.6755 53.3273 26.4102 52.8625 27.7566C52.3977 29.1191 51.4199 32.1966 51.4199 32.1966C51.4199 32.1966 52.7503 31.4913 53.4716 31.86C54.2089 32.2286 54.7859 33.1904 55.4111 33.3506C56.0362 33.5109 56.8537 33.3506 56.8537 33.3506L57.2864 31.6356C57.2864 31.6356 55.9881 31.2669 55.924 29.087C55.8759 26.8911 56.1324 23.9258 56.1324 23.9258L54.0487 22.6755Z" fill="#E52C2C"/>
<path d="M63.6498 21.1528C63.6178 21.2169 62.5439 23.7494 61.486 25.6729C60.38 27.7085 58.12 29.7281 56.9018 30.7539C55.1226 32.2606 55.7798 34.6649 55.7798 34.6649C55.7798 34.6649 56.4209 33.1262 57.2704 33.3666C58.1039 33.6071 58.9694 34.3604 59.9632 35.226C60.7005 34.0559 62.4477 32.8537 63.6498 30.8181C64.8199 28.8305 66.6632 25.4004 65.99 22.9961C65.3008 20.6078 63.6498 21.1528 63.6498 21.1528Z" fill="#E52C2C"/>
<path d="M51.7246 10.3332C54.9143 9.6119 56.5812 9.48367 59.4183 10.6377C61.0052 11.0705 62.5119 11.7758 63.9545 12.7215C64.0667 12.7856 64.1468 12.9459 64.1308 13.0901C63.4095 17.2896 61.9989 21.7456 57.2705 23.621C53.3915 25.1597 51.2117 20.8961 50.5385 18.043C49.7531 14.709 49.5126 10.8301 51.7246 10.3332Z" fill="#FFC9B6"/>
<path d="M61.9669 6.06984C58.9215 3.60142 55.0746 3.90597 52.9748 5.60501C50.7468 7.41625 48.9837 10.093 49.9775 12.9622C51.0193 13.1706 52.494 12.2409 53.1993 11.6478C54.4816 13.0744 56.7416 14.7574 59.4985 14.3727C60.0435 16.1198 61.2136 19.9827 62.8165 19.8705C66.0222 13.2828 66.8557 10.045 61.9669 6.06984Z" fill="#3F2A28"/>
<path d="M58.9215 16.328C58.9215 16.328 59.6909 13.7474 61.3739 15.0778C63.0569 16.4082 60.6686 19.0209 60.6686 19.0209L58.9215 16.328Z" fill="#FFC9B6"/>
<path d="M84.567 105.464C84.567 105.464 84.3426 106.057 82.7558 107.115C81.1689 108.173 80.7522 109.535 80.7522 110.368C80.7522 111.202 82.5955 112.404 85.0639 112.228C87.5323 112.052 88.975 111.122 90.1611 108.75C91.3472 106.377 93.0623 101.088 92.5654 99.9178C92.2929 99.2606 91.267 98.9721 91.0426 98.7958C91.0426 98.7958 91.4273 99.9819 91.1068 101.04C90.5618 102.835 89.9206 104.101 89.0711 105.512C88.2216 106.922 86.7309 107.163 85.7211 106.65C84.6953 106.169 84.567 105.464 84.567 105.464Z" fill="#3F2A28"/>
<path d="M107.28 142.57C105.805 142.57 104.251 142.346 102.68 141.769C96.2682 139.412 96.3003 135.518 96.3644 129.619C96.3804 128.497 96.3804 127.343 96.3644 126.093C96.2682 121.925 94.6814 118.944 91.8924 117.71C89.1355 116.491 85.4649 117.229 82.7881 119.569C81.586 120.611 80.512 121.621 79.4541 122.598C74.8218 126.894 71.1513 130.292 65.0123 129.811C62.4958 129.619 60.4601 128.593 58.9374 126.766C56.2125 123.496 55.2027 117.581 56.0202 109.679C56.485 105.127 57.3185 99.9338 58.1199 94.9008C59.3221 87.3994 60.4441 80.3307 60.2037 76.4999C59.4984 65.6164 57.03 61.6252 57.0139 61.5772L57.591 61.2085C57.7032 61.3688 60.1716 65.3599 60.8929 76.4518C61.1494 80.3468 60.0114 87.4635 58.8092 94.997C58.0078 100.014 57.1742 105.207 56.7094 109.727C55.908 117.453 56.8697 123.191 59.4824 126.317C60.8769 128 62.7683 128.946 65.0924 129.122C70.9589 129.587 74.341 126.445 79.0214 122.085C80.0793 121.108 81.1692 120.082 82.3714 119.04C85.2886 116.491 89.1355 115.722 92.1969 117.068C95.2424 118.415 96.9735 121.605 97.0697 126.061C97.1017 127.327 97.0857 128.481 97.0697 129.603C97.0216 135.405 96.9735 138.916 102.952 141.112C109.732 143.612 116.593 139.06 116.657 139.012L117.041 139.573C116.769 139.749 112.505 142.57 107.28 142.57Z" fill="#593D3D"/>
<path d="M0 117.79V128.16C0 133.642 8.35093 138.082 18.6414 138.082C28.9318 138.082 37.2827 133.642 37.2827 128.16V117.79H0Z" fill="#352221"/>
<path d="M18.6414 133.786C8.35093 133.786 0 129.346 0 123.865V125.403C0 130.885 8.35093 135.325 18.6414 135.325C28.9318 135.325 37.2827 130.885 37.2827 125.403V123.865C37.2827 129.346 28.9478 133.786 18.6414 133.786Z" fill="#44B7F0"/>
<path d="M57.6873 56.8807C57.6873 56.8807 55.7478 62.4747 53.055 68.245C50.3461 74.0154 45.7779 76.1311 38.8856 73.0216C31.9772 69.928 46.2107 49.9082 46.2107 49.9082L57.6873 56.8807Z" fill="#352221"/>
<path d="M18.6414 108.317C8.35093 108.317 0 112.757 0 118.239C0 123.72 8.35093 128.16 18.6414 128.16C28.9318 128.16 37.2827 123.72 37.2827 118.239C37.2827 112.757 28.9478 108.317 18.6414 108.317Z" fill="#472F2E"/>
<path d="M34.6059 113.719C32.7626 109.936 26.335 107.147 18.6412 107.147C10.9635 107.147 4.51998 109.936 2.67668 113.719H2.13171V115.915C2.13171 120.755 9.52092 124.698 18.6412 124.698C27.7616 124.698 35.1348 120.771 35.1348 115.915V113.719H34.6059Z" fill="#44B7F0"/>
<path d="M18.6412 104.726C9.52089 104.726 2.14771 108.653 2.14771 113.51C2.14771 118.351 9.53692 122.294 18.6412 122.294C27.7615 122.294 35.1348 118.367 35.1348 113.51C35.1508 108.653 27.7615 104.726 18.6412 104.726Z" fill="#15ABEB"/>
<path d="M11.0758 111.731C8.70353 110.368 7.59755 109.166 7.61358 107.948C7.61358 106.57 9.04014 105.608 10.2583 104.919C11.3643 104.294 12.7107 103.717 13.993 103.156C16.0286 102.274 18.1284 101.36 19.2184 100.335C21.3662 98.331 21.6547 97.5135 22.3921 93.875C23.45 88.5855 28.2425 88.0405 28.2906 88.0405L28.3868 89.0183C28.2265 89.0343 24.2674 89.5152 23.3537 94.0673C22.6004 97.8501 22.2157 98.8759 19.8915 101.056C18.6734 102.194 16.5896 103.108 14.3937 104.069C13.1274 104.614 11.8131 105.191 10.7552 105.784C9.31263 106.586 8.6234 107.291 8.60737 107.948C8.60737 108.509 9.12027 109.455 11.5727 110.865L11.0758 111.731Z" fill="#15ABEB"/>
<path d="M29.1241 133.161C29.1241 130.212 30.9194 126.798 33.1313 125.516C33.6923 125.195 34.3495 125.035 34.8784 125.035C35.2952 125.035 36.3531 125.083 37.443 125.756C38.7093 126.542 38.8696 128.305 38.8696 128.305L34.3816 137.537C34.3816 137.537 32.939 138.243 31.4483 137.441C30.5187 136.928 29.9576 136.095 29.7172 135.63C29.605 135.422 29.4287 135.021 29.3806 134.861C29.2203 134.364 29.1241 133.803 29.1241 133.161Z" fill="#281818"/>
<path d="M38.9658 129.587C38.9658 132.536 37.1705 135.95 34.9586 137.233C32.7466 138.515 30.9514 137.153 30.9514 134.203C30.9514 131.254 32.7466 127.84 34.9586 126.558C37.1705 125.275 38.9658 126.638 38.9658 129.587Z" fill="#3F2A28"/>
<path d="M38.485 129.972C38.485 132.568 36.8982 135.598 34.9587 136.72C33.0032 137.842 31.4324 136.656 31.4324 134.043C31.4324 131.446 33.0192 128.417 34.9587 127.295C36.9142 126.173 38.485 127.375 38.485 129.972Z" fill="#44B7F0"/>
<path d="M37.5072 130.998C37.5072 132.28 36.7218 133.787 35.7601 134.348C34.7983 134.909 34.0129 134.316 34.0129 133.017C34.0129 131.735 34.7983 130.228 35.7601 129.667C36.7218 129.122 37.5072 129.715 37.5072 130.998Z" fill="#15ABEB"/>
<path d="M36.316 73.1232L21.9773 106.374L27.4823 108.748L41.821 75.4971L36.316 73.1232Z" fill="#352221"/>
<path d="M31.4163 110.689L17.3752 118.832L7.69385 113.141L21.735 105.015L31.4163 110.689Z" fill="#352221"/>
<path d="M9.24854 108.461C7.9983 109.327 7.67773 111.635 7.67773 113.157C9.24855 113.157 14.4258 111.314 14.4258 111.314L13.5442 109.23L9.24854 108.461Z" fill="#352221"/>
<path d="M31.4162 106.906L29.06 110.256L18.9459 114.135L9.24854 108.461L21.7349 101.216L31.4162 106.906Z" fill="#543A3A"/>
<path d="M31.4162 106.906C31.4162 106.906 31.865 107.323 31.865 108.605C31.865 109.711 31.865 110.433 31.865 110.433L28.3387 112.5L29.3005 109.455L31.4162 106.906Z" fill="#472F2E"/>
<path d="M31.4162 106.906C31.4162 106.906 20.2602 113.414 18.9298 114.151C17.6155 114.889 17.359 117.309 17.359 118.848C19.5389 117.581 31.849 110.449 31.849 110.449L31.4162 106.906Z" fill="#472F2E"/>
<path d="M15.083 103.412V107.131C15.083 108.846 17.6797 110.224 20.9014 110.224C24.1072 110.224 26.7199 108.846 26.7199 107.131V103.412H15.083Z" fill="#44B7F0"/>
<path d="M20.9014 100.318C17.6957 100.318 15.083 101.697 15.083 103.412C15.083 105.127 17.6797 106.506 20.9014 106.506C24.1072 106.506 26.7199 105.127 26.7199 103.412C26.7199 101.713 24.1232 100.318 20.9014 100.318Z" fill="#15ABEB"/>
<path d="M26.4474 117.758C23.1615 117.758 19.8756 116.443 19.6993 116.363C19.4428 116.267 19.3307 115.978 19.4268 115.722C19.523 115.466 19.8275 115.353 20.068 115.45C20.1161 115.466 25.149 117.485 28.7074 116.491C32.6344 115.385 34.606 113.093 33.9649 110.336C33.7084 109.214 33.1634 108.285 32.6825 107.467C32.1376 106.538 31.6247 105.656 31.6407 104.694C31.7369 101.521 33.3237 99.4368 34.3656 98.0423C34.6381 97.6737 34.8945 97.3531 35.0708 97.0646C36.7218 94.3718 35.8562 91.6148 35.8402 91.5988C35.7601 91.3423 35.9043 91.0538 36.1608 90.9737C36.4172 90.8935 36.7057 91.0378 36.7859 91.2943C36.834 91.4225 37.8117 94.516 35.9043 97.5935C35.712 97.9141 35.4395 98.2667 35.151 98.6514C34.1251 100.014 32.7146 101.873 32.6345 104.726C32.6184 105.416 33.0352 106.137 33.5321 106.97C34.045 107.852 34.638 108.83 34.9265 110.112C35.6959 113.382 33.4038 116.187 28.9639 117.437C28.1624 117.677 27.313 117.758 26.4474 117.758Z" fill="#15ABEB"/>
<path d="M50.7627 53.002C49.6247 51.6876 48.0539 50.79 48.0539 50.79C48.0539 50.79 47.8295 50.6297 47.4608 50.4213C45.6496 49.2352 43.1812 48.5139 43.1812 48.5139C43.1812 48.5139 34.8943 62.8756 31.9931 69.9443C29.7972 75.3299 25.5977 88.1208 25.5977 88.1208C25.5977 88.1208 25.5656 94.6445 26.1747 96.8404C26.1907 96.9526 26.2068 97.0809 26.2228 97.1931C26.6075 99.5172 28.2424 100.543 29.9895 99.5653C30.7108 99.1646 31.5924 98.5876 32.6663 97.8182C36.9299 94.7567 41.434 84.7548 44.3192 77.6861C47.2044 70.6175 53.0388 57.5381 53.0388 57.5381C53.0388 57.5381 51.9008 54.3163 50.7627 53.002Z" fill="#44B7F0"/>
<path d="M48.9195 52.1201C47.7815 50.8058 46.2107 49.9082 46.2107 49.9082C46.2107 49.9082 44.704 48.8663 43.1652 48.4977C41.6265 48.145 38.8696 48.8984 38.8696 48.8984C38.8696 48.8984 34.7341 59.0125 31.849 66.0811C28.9638 73.1498 25.1169 83.5684 25.6459 89.6273C25.7741 91.166 25.9344 92.3842 26.0947 93.3459C26.4794 95.6701 28.1143 96.6959 29.8614 95.7182C30.5827 95.3175 31.4643 94.7404 32.5382 93.9711C36.8018 90.9096 41.3059 80.9077 44.191 73.839C47.0762 66.7704 51.2116 56.6563 51.2116 56.6563C51.2116 56.6563 50.0576 53.4345 48.9195 52.1201Z" fill="#15ABEB"/>
<path d="M64.0988 62.4748L55.2349 57.5059L53.7122 60.0544L62.8165 65.2798L64.0988 62.4748Z" fill="#44B7F0"/>
<path d="M64.4513 63.2921C64.4513 64.0295 64.0025 64.895 63.4415 65.2156C62.8805 65.5362 62.4316 65.1996 62.4316 64.4462C62.4316 63.7089 62.8805 62.8433 63.4415 62.5228C64.0025 62.2022 64.4513 62.5388 64.4513 63.2921Z" fill="#15ABEB"/>
<path d="M40.9054 49.059L31.9934 43.9458L30.631 46.7027L39.6071 51.864L40.9054 49.059Z" fill="#44B7F0"/>
<path d="M32.3299 44.7472C32.3299 45.4845 31.8811 46.3501 31.3201 46.6707C30.7591 46.9912 30.3103 46.6546 30.3103 45.9013C30.3103 45.164 30.7591 44.2984 31.3201 43.9778C31.8811 43.6573 32.3299 43.9939 32.3299 44.7472Z" fill="#44B7F0"/>
<path d="M47.0602 34.7932C47.0602 34.7932 46.0023 37.3097 45.6657 38.4157C45.3291 39.5216 45.3291 39.5216 45.3291 39.5216C45.3291 39.5216 40.8411 42.9678 39.0939 44.4745C37.3468 45.9812 35.9203 45.0355 33.9968 46.1735C31.7849 47.4879 31.897 48.3534 31.865 49.9082C31.8329 51.463 34.0609 52.9216 34.0609 52.9216C34.0609 52.9216 39.6549 48.9465 41.8829 47.9046C46.3389 45.8049 50.0255 41.3329 50.0255 41.3329C50.0255 41.3329 48.631 40.2429 48.6951 38.4958C48.7432 37.3257 49.2882 35.835 49.2882 35.835C49.2882 35.835 48.615 34.7451 47.0602 34.7932Z" fill="#FFB9A4"/>
<path d="M57.607 57.3296L57.639 57.57L49.9613 53.1141L40.1197 47.4078C40.1197 47.4078 36.8017 49.4755 34.9424 51.6875C34.7981 51.8638 34.6699 52.0401 34.5577 52.2164L33.9967 52.1684V54.0117C33.9967 54.0597 33.9967 54.0918 33.9967 54.1399V54.1559C34.0448 55.4062 34.8302 56.5442 35.6637 57.4899C37.0261 59.0447 41.5783 61.6734 44.1428 62.3947C46.7074 63.132 50.0414 63.725 53.4074 62.3786C56.7735 61.0322 59.7869 58.8042 59.7869 58.8042V57.0411L57.607 57.3296Z" fill="#352221"/>
<path d="M59.803 57.0411L49.9613 51.3349L40.1197 45.6287C40.1197 45.6287 36.8018 47.6964 34.9425 49.9083C33.0831 52.1203 34.3013 54.1559 35.6798 55.7107C37.0422 57.2655 41.5944 59.8942 44.159 60.6155C46.7235 61.3528 50.0575 61.9459 53.4235 60.5995C56.7896 59.2851 59.803 57.0411 59.803 57.0411Z" fill="#472F2E"/>
<path d="M68.8112 42.3906C68.5067 44.0256 69.0196 46.5741 68.8914 48.0488C66.1344 49.5875 61.3098 54.4282 58.3445 56.9286C56.2287 57.3614 54.8503 56.9287 53.3917 59.7657C52.5261 61.4648 53.7603 63.4363 55.251 64.0935C56.9821 64.8629 58.3445 63.853 58.4407 62.7471C57.6873 62.0097 57.5751 60.7595 59.8191 60.0542C62.528 59.7657 68.667 56.2554 70.7187 54.6045C72.6742 53.0337 73.5878 53.2741 73.9725 52.1521C74.9983 49.2188 76.9859 43.5126 76.9859 43.5126C76.9859 43.5126 70.0134 42.7433 68.8112 42.3906Z" fill="#FFC9B6"/>
<path d="M71.0874 25.9613C68.1541 27.5481 66.8077 32.7895 67.497 37.3096C68.074 41.0123 68.4427 42.4709 68.4427 42.4709C68.4427 42.4709 73.2192 43.112 76.986 43.8654C79.2941 39.2812 78.9094 36.0914 78.8293 32.1163C78.7491 28.2374 73.8443 25.8331 71.0874 25.9613Z" fill="#E52C2C"/>
<path d="M68.4265 42.4709C68.4265 42.4709 70.3339 41.8779 72.8023 42.1824C75.2707 42.487 77.3224 43.0961 77.3224 43.0961L76.2966 45.4523C76.2966 45.4523 73.5717 44.6829 72.097 44.5707C70.6384 44.4745 68.7631 44.8913 68.7631 44.8913L68.4265 42.4709Z" fill="#FF6969"/>
<path d="M51.4042 20.4957C51.4042 20.4957 50.0739 22.1787 49.3365 23.9259C48.5992 25.673 48.1344 28.1574 47.91 29.7443C47.6856 31.3311 47.8298 32.373 47.8298 32.373C47.8298 32.373 49.7693 33.3828 50.0899 33.5431C50.4906 32.7897 50.9715 30.8342 51.4844 29.1512C52.2377 26.6988 53.1995 22.9481 53.1995 22.9481C53.1995 22.9481 52.0934 21.6338 51.4042 20.4957Z" fill="#E52C2C"/>
<path d="M47.8457 32.3568L47.0603 34.7932L49.3204 35.835L50.234 33.2384C50.234 33.2384 49.2883 32.437 47.8457 32.3568Z" fill="#FF6969"/>
</svg>
