<svg width="164" height="153" viewBox="0 0 164 153" fill="none" xmlns="http://www.w3.org/2000/svg">
<path d="M90.6474 123.081L85.3924 123.873C84.3004 124.487 84.2868 125.251 84.9146 126.111C86.8665 127.954 90.0741 129.619 93.0087 129.865C93.8686 130.793 94.906 131.284 96.1072 131.352C97.6222 131.066 98.878 130.493 99.7515 129.537C100.038 126.807 99.3284 124.61 98.0317 122.726L90.6474 123.081Z" fill="#1D1D1B"/>
<path d="M51.3916 125.333L45.9591 124.992C42.3148 124.992 42.8198 128.8 47.0921 130.165C51.2961 131.994 55.3363 133.577 58.6258 134.069C60.0863 134.164 61.0827 133.646 61.6287 132.526C62.3385 130.616 61.8334 128.909 61.0554 127.244L51.3916 125.333Z" fill="#1D1D1B"/>
<path d="M73.5311 74.3389C73.0533 74.571 72.562 74.803 72.0433 75.035C70.5145 81.0817 68.6582 88.4524 65.6144 94.9768L65.4642 95.9186L65.0002 98.7714C65.3141 100.218 65.2868 101.952 65.0275 103.89C64.2631 110.018 61.424 118.345 61.0691 127.23C61.5469 130.37 60.5232 130.151 59.2674 130.37C53.8076 129.783 47.0239 127.23 51.0232 125.347L55.7322 125.183C55.391 116.447 55.077 107.725 55.3364 100.914C55.391 99.4402 55.4729 98.0479 55.5821 96.7785V91.6327C54.4082 79.8396 56.988 66.9955 62.2703 55.8849L83.2085 48.2686C85.2968 51.7901 86.8256 55.2843 86.9621 58.6967C87.1532 64.1428 83.8091 69.4115 73.5311 74.3389Z" fill="#FCAF75"/>
<path d="M98.3457 124.091C97.5268 125.046 95.8206 125.551 93.1726 125.579C91.5892 125.456 90.2653 125.046 89.3644 124.2L91.835 122.044C91.1661 116.12 88.3134 109.118 85.6245 101.01C85.0921 99.4402 84.5735 97.8159 84.0684 96.1507L82.294 92.8066L81.1611 90.6636C78.0764 86.2685 75.6195 80.6722 73.5448 74.3526C73.3127 73.6291 73.067 72.8921 72.8486 72.155L78.4176 55.6802L86.9485 58.7376C86.9621 58.7376 89.0914 85.7362 89.0914 85.7362L90.5383 89.2577L90.5792 89.3533C92.9542 92.1514 94.1826 95.1406 95.0153 98.1708C95.0289 98.2117 95.0426 98.2527 95.0562 98.2936C97.0081 109.486 96.3802 115.765 98.3457 124.091Z" fill="#FCAF75"/>
<path opacity="0.3" d="M64.9865 98.7578C65.3005 100.205 65.2732 101.938 65.0138 103.876C61.3422 104.19 57.4111 102.184 55.3228 100.901C55.3774 99.4266 55.4592 98.0344 55.5684 96.765V93.571L65.4506 95.8914L64.9865 98.7578Z" fill="#15ABEB"/>
<path opacity="0.3" d="M95.0153 98.1435C91.6712 99.9453 88.0132 100.696 85.6109 101.01C85.0785 99.4402 84.5598 97.8159 84.0548 96.1507L82.2804 92.8066L90.5246 89.2305L90.5656 89.326C92.9542 92.1241 94.169 95.0997 95.0153 98.1435Z" fill="#15ABEB"/>
<path d="M78.0218 23.9317C78.0764 24.5186 78.1856 25.0919 78.363 25.6515C76.0153 25.3102 73.5993 24.7779 71.1151 24.1091L69.8185 22.089L65.7236 15.7011C69.0268 14.1314 72.3982 14.3088 75.8242 16.0423C77.3666 16.4381 78.868 16.8749 80.3285 17.3253C78.5268 18.895 77.7624 21.4884 78.0218 23.9317Z" fill="#EDEDED"/>
<path d="M97.745 41.4712H93.9777C93.8276 41.1982 93.6774 40.9252 93.5273 40.6523C90.2651 34.6875 86.7435 28.2449 85.556 26.061C83.2766 26.1702 80.8607 26.0064 78.3628 25.6379C78.1854 25.0919 78.0762 24.505 78.0216 23.9181C77.7622 21.4748 78.5402 18.8814 80.3283 17.3118C84.0682 18.472 87.4942 19.8096 90.4835 21.4202C94.0596 25.597 96.0115 33.2952 97.745 41.4712Z" fill="#FCAF75"/>
<path opacity="0.5" d="M93.5137 40.6386C90.2652 34.6874 86.73 28.2449 85.5425 26.061C83.263 26.1702 80.8471 26.0064 78.3493 25.6379C76.0016 25.2966 73.5856 24.7643 71.1014 24.0955L69.8047 22.0754L69.6956 21.584C72.3299 22.7578 75.1007 23.4949 78.008 23.918C80.8881 24.3412 83.8773 24.4367 86.9484 24.3002C86.6208 27.3713 91.3708 33.9367 93.5137 40.6386Z" fill="#15ABEB"/>
<path d="M131.418 124.064C129.535 124.064 127.132 122.644 123.72 119.546C123.078 118.959 123.024 117.976 123.611 117.335C124.198 116.693 125.18 116.638 125.822 117.225C130.299 121.279 131.473 120.938 131.514 120.911C131.596 120.883 132.005 120.624 132.387 118.222L133.315 98.6895C133.356 97.8295 134.094 97.1471 134.953 97.2017C135.813 97.2426 136.482 97.9797 136.441 98.8396L135.486 118.618C135.24 120.174 134.79 123.067 132.551 123.859C132.21 123.995 131.828 124.064 131.418 124.064Z" fill="#DADADA"/>
<path d="M0.643188 92.7928L0.656851 95.2907L7.75454 99.4947L6.48513 93.5709L0.643188 92.7928Z" fill="#DADADA"/>
<path d="M6.48511 93.5709L7.75451 99.4947L26.9046 88.4387L25.6352 82.5149L6.48511 93.5709Z" fill="#878787"/>
<path d="M0.643188 92.793L6.48513 93.571L25.6353 82.515L19.7933 81.7369L0.643188 92.793Z" fill="#9D9D9C"/>
<path d="M15.6849 91.0595C14.7841 91.0595 13.8968 90.5681 13.4601 89.7082C12.8185 88.4798 13.2963 86.9647 14.5247 86.3232L16.8588 85.1084C18.0872 84.4669 19.6023 84.9446 20.2438 86.173C20.8853 87.4015 20.4076 88.9166 19.1792 89.5581L16.8451 90.7729C16.4629 90.964 16.0671 91.0595 15.6849 91.0595Z" fill="#3C3C3B"/>
<path d="M97.7451 41.4711C98.7142 43.3411 98.8507 45.4704 98.5777 47.7225L94.401 50.8619L92.531 47.0128L93.9096 41.4165L97.7451 41.4711Z" fill="#E89B61"/>
<path d="M18.7013 88.862C18.0189 88.862 17.3637 88.4935 17.0225 87.8519C16.5447 86.9238 16.8996 85.7909 17.8278 85.3131L98.3456 43.505C99.2738 43.0273 100.407 43.3822 100.884 44.3103C101.362 45.2385 101.007 46.3714 100.079 46.8491L19.5612 88.6572C19.2883 88.7937 18.988 88.862 18.7013 88.862Z" fill="#575756"/>
<path d="M51.569 48.7053C51.2142 48.9373 50.8456 49.1557 50.4634 49.3468C48.5116 50.3432 46.1775 50.78 44.1847 49.9474L43.1747 46.2347C40.1308 41.5257 39.3801 36.9668 41.4548 33.104C45.2357 33.6227 48.3068 36.7074 49.5353 40.8842C49.8355 41.8942 50.0266 42.9725 50.0949 44.0918C50.0949 44.16 50.0949 44.2419 50.1085 44.3102C51.2551 45.757 50.9139 46.3712 51.569 48.7053Z" fill="#EDEDED"/>
<path d="M53.794 66.2176L50.8867 67.0912L46.0548 56.8951L44.1711 49.9339C46.164 50.7665 48.498 50.3297 50.4499 49.3333C50.8457 49.1422 51.2142 48.9238 51.5555 48.6918C51.8694 49.8383 52.1697 51.0531 52.4291 52.2952L53.7257 65.5897L53.7394 65.6989L53.794 66.2176Z" fill="#FCAF75"/>
<path d="M40.4994 1.8878C37.1144 2.9661 35.9405 5.58679 36.8141 9.65431C37.5921 12.2886 38.9298 14.65 40.7315 16.7929C41.7415 17.9941 43.1474 19.0724 44.9764 19.9323C45.5088 20.178 46.1367 20.2053 46.669 19.9733L47.0784 19.7958C47.0784 19.7958 48.1704 21.5429 48.498 22.7577C48.8256 23.9725 49.4944 26.0472 49.4944 26.0472L59.8816 20.6284L53.9168 16.0013C54.067 11.5925 54.2444 8.05733 51.5964 4.50848C49.1395 1.01423 44.9355 0.481907 40.4994 1.8878Z" fill="#FCAF75"/>
<path d="M94.4964 94.3626C80.7924 98.4301 67.921 103.781 54.8449 95.6184C54.722 90.0767 54.763 84.4395 55.2407 78.9661C55.9778 70.2714 57.7931 62.0408 61.6968 55.4072L65.9554 53.8785L83.1947 47.6816C86.5661 52.104 88.4224 57.6321 88.2177 64.6342C89.3369 75.4855 91.2342 85.5724 94.4964 94.3626Z" fill="#15ABEB"/>
<path d="M77.9808 56.9086L65.4915 55.7621L61.697 55.4208C58.0799 49.0739 54.886 49.4151 50.1087 44.0918C50.0404 44.0236 49.9722 43.9417 49.9176 43.8734C49.6582 42.7815 49.1941 41.6895 48.5936 40.6522C46.7509 37.3627 43.6525 34.5099 41.455 33.104C41.455 33.104 48.9621 23.1946 53.3709 20.492C57.7796 17.7894 65.7236 15.701 65.7236 15.701C68.317 17.4209 70.3371 19.8232 71.6884 23.0035C71.6884 23.0035 75.1417 33.0494 76.6022 39.6421C77.544 43.8871 81.1338 44.8425 83.1948 47.7089C88.9139 55.571 77.9808 56.9086 77.9808 56.9086Z" fill="#15ABEB"/>
<path d="M43.4341 16.0423L41.1274 15.237C39.2437 13.9949 37.7696 12.5481 36.896 10.8419C35.2445 6.63788 37.1281 2.22912 41.7143 0.877833C46.9557 -0.66455 49.3443 1.02798 51.924 4.14004C54.2854 6.96547 55.1043 12.0976 53.6848 15.7147L50.5454 17.5574C48.2114 18.7586 45.7272 17.844 43.4341 16.0423Z" fill="#1D1D1B"/>
<path d="M41.373 15.4691C41.2638 15.0869 40.9772 14.7047 41.141 14.2679C41.3048 13.8175 41.9736 13.7765 42.3421 13.9676C43.2157 14.4454 43.5979 15.4964 43.8162 16.3836C43.8708 16.6429 44.0346 17.1616 43.8709 17.4073C43.6388 17.7349 43.0928 17.38 42.8472 17.2298C42.465 16.9978 42.0282 16.6839 41.8234 16.2744C41.687 16.0423 41.414 15.6329 41.373 15.4691Z" fill="#FCAF75"/>
<path d="M51.2552 13.8584C53.3845 12.1659 70.2961 20.3555 51.5692 39.0415C52.3608 28.0538 46.6281 17.5437 51.2552 13.8584Z" fill="#1D1D1B"/>
<path d="M49.358 68.9475L50.1087 68.6062C50.0541 70.326 50.4227 70.8857 51.46 72.0732L52.238 72.4963L55.0635 71.5681C55.432 71.4453 55.7186 71.1723 55.8551 70.8174L56.3192 69.5617L55.6777 69.821C54.8178 69.0839 54.149 67.5962 54.2991 66.3814L53.7531 65.576L50.5591 66.3677C49.9586 67.1184 49.5491 67.9647 49.358 68.9475Z" fill="#FCAF75"/>
<path d="M97.4039 39.9015L97.6769 43.1364C97.0081 44.6651 95.8478 45.1565 94.2782 46.1938L93.9642 47.9L94.3737 49.9338C94.4283 50.8892 93.4729 51.0667 93.2408 50.1385L92.34 47.8181L92.4628 45.8936C92.4219 44.6515 92.7085 43.3957 93.4046 42.1263L94.6467 39.3691L97.4039 39.9015Z" fill="#FCAF75"/>
<path d="M99.3694 47.2995L99.0554 46.4532C98.837 45.88 98.1546 45.6479 97.6359 45.9755L93.8004 47.8864L94.0734 49.9202L92.9814 50.5754L94.2508 50.9439C94.7422 50.9439 95.2199 50.7801 95.6021 50.4662L98.7006 48.4461L99.3694 47.2995Z" fill="#FCAF75"/>
<path d="M134.926 145.862C134.926 147.459 133.629 148.755 132.032 148.755C130.435 148.755 129.139 147.459 129.139 145.862C129.139 144.265 130.435 142.968 132.032 142.968C133.643 142.982 134.926 144.278 134.926 145.862Z" fill="black"/>
<path d="M157.038 149.397C157.038 150.994 155.741 152.291 154.144 152.291C152.547 152.291 151.251 150.994 151.251 149.397C151.251 147.8 152.547 146.503 154.144 146.503C155.755 146.503 157.038 147.8 157.038 149.397Z" fill="black"/>
<path d="M163.617 136.171L163.603 140.443C163.59 143.077 161.856 145.712 158.403 147.732C151.428 151.786 140.085 151.786 133.07 147.732C129.534 145.698 127.774 143.009 127.774 140.347L127.787 136.075C127.774 138.75 129.548 141.426 133.083 143.46C140.099 147.513 151.442 147.513 158.417 143.46C161.87 141.453 163.603 138.819 163.617 136.171Z" fill="#575756"/>
<path d="M158.321 128.786C165.337 132.84 165.378 139.405 158.403 143.459C151.428 147.513 140.086 147.513 133.07 143.459C126.04 139.405 126.013 132.84 132.988 128.786C139.963 124.732 151.305 124.732 158.321 128.786Z" fill="#B2B2B2"/>
<path d="M130.559 113.867C130.531 122.235 137.288 129.032 145.655 129.046C154.022 129.073 160.819 122.316 160.833 113.949C160.86 105.582 154.104 98.7849 145.737 98.7712C137.37 98.7439 130.572 105.5 130.559 113.867Z" fill="#EA4A49"/>
<path d="M160.833 113.949L160.819 134.246C160.819 136.471 159.345 138.709 156.424 140.402C150.527 143.828 140.946 143.828 135.008 140.402C132.019 138.682 130.531 136.416 130.531 134.164L130.545 113.868C130.545 116.12 132.032 118.386 135.022 120.105C140.945 123.531 150.541 123.531 156.438 120.105C159.359 118.413 160.833 116.188 160.833 113.949Z" fill="#EA4A49"/>
<path d="M160.819 116.597C160.833 118.836 159.372 121.088 156.424 122.794C150.527 126.22 140.946 126.22 135.008 122.794C132.046 121.074 130.545 118.836 130.531 116.597V121.211C130.545 123.449 132.032 125.702 135.008 127.408C140.932 130.834 150.527 130.834 156.424 127.408C159.372 125.702 160.833 123.449 160.819 121.211V116.597Z" fill="white"/>
<path d="M160.819 122.685C160.833 124.923 159.372 127.176 156.424 128.882C150.527 132.308 140.946 132.308 135.008 128.882C132.046 127.162 130.545 124.923 130.531 122.685V124.323C130.545 126.561 132.032 128.814 135.008 130.52C140.932 133.946 150.527 133.946 156.424 130.52C159.372 128.814 160.833 126.561 160.819 124.323V122.685Z" fill="white"/>
<path d="M132.879 132.103L133.711 131.626C134.23 131.325 134.926 131.366 135.704 131.817C137.274 132.718 138.543 134.915 138.543 136.744C138.543 137.659 138.216 138.3 137.697 138.6L136.864 139.078C137.383 138.778 137.711 138.136 137.711 137.222C137.711 135.406 136.441 133.195 134.872 132.294C134.107 131.844 133.397 131.803 132.879 132.103Z" fill="#B2B2B2"/>
<path d="M132.046 133.96C132.046 132.144 133.315 131.394 134.885 132.294C136.455 133.195 137.724 135.393 137.724 137.222C137.724 139.037 136.455 139.788 134.885 138.887C133.315 137.973 132.046 135.775 132.046 133.96Z" fill="#575756"/>
<path d="M133.042 134.383C132.974 133.154 133.752 132.704 134.776 133.373C135.8 134.042 136.687 135.57 136.755 136.799C136.823 138.027 136.045 138.478 135.022 137.809C133.998 137.14 133.111 135.611 133.042 134.383Z" fill="black"/>
<path opacity="0.3" d="M143.73 99.5356C136.673 100.491 131.2 106.551 131.186 113.868C131.186 115.628 131.5 117.348 132.101 118.959C132.92 119.764 133.779 120.515 134.708 121.115C134.407 110.906 137.369 103.658 143.73 99.5356Z" fill="white"/>
<path d="M151.264 100.218V101.542C151.264 102.361 150.718 103.18 149.64 103.808C147.47 105.064 143.935 105.064 141.751 103.808C140.645 103.166 140.099 102.334 140.099 101.515V100.191C140.099 101.024 140.645 101.856 141.751 102.484C143.935 103.74 147.47 103.74 149.64 102.484C150.718 101.856 151.264 101.037 151.264 100.218Z" fill="black"/>
<path d="M149.626 97.9251C151.81 99.1808 151.824 101.228 149.654 102.498C147.484 103.753 143.948 103.753 141.764 102.498C139.581 101.242 139.567 99.1945 141.737 97.9251C143.907 96.6557 147.429 96.6557 149.626 97.9251Z" fill="#B2B2B2"/>
<path d="M134.899 100.341C134.858 100.341 134.803 100.341 134.762 100.341C133.902 100.259 133.261 99.5084 133.343 98.6348C134.244 88.4524 138.98 87.8518 140.427 87.9064C144.331 88.0702 147.292 92.711 147.32 98.7031C147.32 99.563 146.624 100.3 145.764 100.3C144.89 100.3 144.194 99.6312 144.18 98.7713C144.153 93.8029 141.901 91.1004 140.29 91.0321C138.721 90.9502 136.96 93.3798 136.468 98.8942C136.387 99.7268 135.704 100.341 134.899 100.341Z" fill="#DADADA"/>
<path d="M124.771 119.955C124.402 119.955 124.02 119.819 123.72 119.546C114.861 111.547 112.173 95.7549 111.981 87.6881C111.695 75.8404 110.03 56.4582 109.361 51.094C109.115 49.1558 108.023 47.4633 106.331 46.4668C104.652 45.4704 102.645 45.3066 100.816 46.0301L100.721 46.071C99.9154 46.3849 99.0009 46.0028 98.6869 45.1975C98.373 44.3921 98.7552 43.4776 99.5605 43.1637L99.656 43.1227C102.386 42.0444 105.402 42.2765 107.928 43.7779C110.453 45.2793 112.104 47.8045 112.473 50.7255C113.142 56.1306 114.834 75.6766 115.107 87.6335C115.271 94.6766 117.728 109.937 125.808 117.225C126.45 117.812 126.504 118.795 125.918 119.437C125.631 119.778 125.208 119.955 124.771 119.955Z" fill="#DADADA"/>
<path opacity="0.5" d="M66.4606 54.247C66.133 54.7384 65.8054 55.2434 65.4914 55.7621C61.2601 62.5868 57.9706 71.145 55.4728 81.1364L55.2271 78.9661C55.9642 70.2714 57.7795 62.0408 61.6833 55.4072C58.0662 49.0603 54.8722 49.4015 50.0949 44.0782C50.0949 44.1465 50.0949 44.2284 50.1086 44.2966C51.2415 45.7434 50.9002 46.3577 51.5554 48.6917C51.8693 49.8383 52.1696 51.0531 52.429 52.2952L53.7256 65.5897L51.5008 54.247L50.4498 49.3469L48.5798 40.6522C48.9074 40.7205 49.2213 40.7887 49.5353 40.8843C55.1042 42.5768 59.6632 49.4015 65.9419 53.8921C66.1193 54.015 66.2968 54.1242 66.4606 54.247Z" fill="#15ABEB"/>
</svg>
