<svg width="108" height="174" viewBox="0 0 108 174" fill="none" xmlns="http://www.w3.org/2000/svg">
<path d="M61.0382 170.193L60.7447 169.245C60.9028 169.2 74.2711 164.844 80.5714 154.643C76.7551 154.327 73.5711 153.267 71.0193 151.732C65.6675 151.145 61.2641 149.317 59.2091 146.496C57.8091 144.578 57.7187 142.412 58.9607 140.245C60.1801 138.124 62.2351 136.567 64.6287 135.619C66.4578 131.421 71.1548 127.991 79.1261 127.923C79.239 127.923 79.352 127.923 79.4649 127.923C90.4847 127.923 95.001 133.249 95.4978 137.83C96.0624 142.908 92.1106 149.001 83.4618 150.987C83.1005 151.935 82.694 152.861 82.2424 153.741C82.265 153.741 82.265 153.741 82.2876 153.741C96.1301 154.079 104.079 148.866 105.885 143.608C107.195 139.749 105.389 135.687 100.94 132.414C98.5012 130.631 95.7011 129.21 92.7429 127.698C85.8103 124.177 78.6519 120.544 74.8131 111.674C71.0193 102.873 74.0227 80.8018 83.7328 46.0927C87.7749 31.6267 83.8005 22.2611 83.7554 22.1709L84.6586 21.7646C84.8393 22.1483 88.8362 31.5139 84.6812 46.3635C72.6452 89.3324 73.1646 105.401 75.7163 111.291C79.3971 119.821 86.3974 123.387 93.1719 126.817C96.1753 128.329 98.998 129.774 101.505 131.602C106.337 135.145 108.256 139.613 106.811 143.901C104.914 149.521 96.5592 155.05 82.265 154.711C82.0843 154.711 81.8811 154.711 81.7004 154.689C75.2647 165.589 61.1963 170.147 61.0382 170.193ZM73.4807 151.935C75.6486 152.883 78.2003 153.538 81.1133 153.718C81.5424 152.928 81.9488 152.116 82.2876 151.258C79.2842 151.822 76.2808 152.048 73.4807 151.935ZM71.2903 150.784C74.6775 151.145 78.5616 151.01 82.6715 150.152C84.749 143.969 82.9876 139.072 77.7938 136.702C74.2033 135.055 69.3031 134.919 65.3739 136.364C64.9223 137.515 64.6965 138.711 64.6739 139.929C64.6513 143.901 66.932 148.076 71.2903 150.784ZM64.1319 136.883C62.2802 137.763 60.7447 139.072 59.7737 140.764C58.7349 142.592 58.8027 144.33 59.9769 145.932C61.4673 147.963 64.7642 149.656 69.1451 150.468C65.532 147.602 63.6803 143.675 63.7029 139.907C63.7029 138.891 63.8384 137.876 64.1319 136.883ZM71.2451 134.4C73.7065 134.4 76.1454 134.874 78.2003 135.799C83.7554 138.35 85.7651 143.45 83.8005 149.882C91.4783 147.896 95.001 142.457 94.5042 137.943C94.03 133.746 89.8073 128.916 79.4423 128.916C79.3294 128.916 79.239 128.916 79.1261 128.916C72.1936 128.984 67.9031 131.692 65.961 135.167C67.6321 134.648 69.4612 134.4 71.2451 134.4Z" fill="#593D3D"/>
<path d="M62.8672 170.892C62.8672 169.425 61.9639 167.71 60.88 167.078C60.3832 166.785 59.9316 166.785 59.5928 166.988L58.5541 167.575L58.8928 168.342C58.8928 168.432 58.8702 168.523 58.8702 168.613C58.8702 170.012 59.6832 171.592 60.7219 172.291L61.1058 173.126L62.1671 172.54C62.5962 172.269 62.8672 171.705 62.8672 170.892Z" fill="#352221"/>
<path d="M57.809 169.177C57.809 170.644 58.7122 172.359 59.7962 172.991C60.9027 173.623 61.7833 172.946 61.7833 171.479C61.7833 170.012 60.8801 168.297 59.7962 167.665C58.7122 167.033 57.809 167.71 57.809 169.177Z" fill="#472F2E"/>
<path d="M57.922 169.764C57.922 170.87 58.5995 172.133 59.4124 172.63C60.2479 173.104 60.9028 172.607 60.9028 171.501C60.9028 170.396 60.2253 169.132 59.4124 168.635C58.5995 168.139 57.922 168.658 57.922 169.764Z" fill="#5B3D3D"/>
<path d="M58.735 170.035C58.735 169.854 58.6221 169.628 58.4866 169.561C58.4414 169.538 58.3962 169.516 58.3511 169.538L55.9574 170.915C55.7768 171.028 55.709 171.253 55.8219 171.434C55.9348 171.614 56.1607 171.682 56.3413 171.569L58.6672 170.215C58.6898 170.193 58.735 170.125 58.735 170.035Z" fill="#EDDDDD"/>
<path d="M60.1125 171.411C60.1125 171.231 59.9996 171.005 59.8641 170.937C59.819 170.915 59.7738 170.892 59.7286 170.915L57.335 172.291C57.1543 172.404 57.0866 172.63 57.1995 172.81C57.3124 172.991 57.5382 173.059 57.7189 172.946L60.0448 171.592C60.0674 171.569 60.1125 171.501 60.1125 171.411Z" fill="#EDDDDD"/>
<path d="M0 110.817V126.276C0 134.445 12.4425 141.058 27.798 141.058C43.1535 141.058 55.596 134.445 55.596 126.276V110.817H0Z" fill="#352221"/>
<path d="M27.798 134.671C12.4425 134.671 0 128.059 0 119.889V122.191C0 130.361 12.4425 136.973 27.798 136.973C43.1535 136.973 55.596 130.361 55.596 122.191V119.889C55.596 128.059 43.1535 134.671 27.798 134.671Z" fill="#1798CF"/>
<path d="M86.0135 20.0496C86.0135 20.0496 83.123 28.3771 79.1035 36.998C75.0614 45.5963 68.2643 48.7332 57.9671 44.1294C47.6699 39.5256 68.8966 9.66846 68.8966 9.66846L86.0135 20.0496Z" fill="#352221"/>
<path d="M27.798 96.7119C12.4425 96.7119 0 103.324 0 111.494C0 119.663 12.4425 126.276 27.798 126.276C43.1535 126.276 55.596 119.663 55.596 111.494C55.596 103.347 43.1535 96.7119 27.798 96.7119Z" fill="#472F2E"/>
<path d="M51.5991 104.746C48.8667 99.1041 39.247 94.9517 27.7981 94.9517C16.3492 94.9517 6.7294 99.1267 3.99702 104.746H3.18408V108.018C3.18408 115.24 14.2039 121.108 27.7981 121.108C41.3922 121.108 52.4121 115.24 52.4121 108.018V104.746H51.5991Z" fill="#1798CF"/>
<path d="M27.7981 91.3408C14.2039 91.3408 3.18408 97.2084 3.18408 104.43C3.18408 111.652 14.2039 117.519 27.7981 117.519C41.3922 117.519 52.4121 111.652 52.4121 104.43C52.4121 97.2084 41.3922 91.3408 27.7981 91.3408Z" fill="#4DBAF2"/>
<path d="M16.5297 101.79C12.9844 99.7588 11.3359 97.976 11.3585 96.1706C11.3585 94.1169 13.4812 92.6951 15.3103 91.657C16.9813 90.7317 18.9459 89.8742 20.888 89.0166C23.9139 87.6851 27.0528 86.331 28.6786 84.7964C31.8852 81.8175 32.3143 80.5988 33.4208 75.1826C35.0015 67.3064 42.1373 66.494 42.2276 66.4714L42.3857 67.9383C42.1373 67.9609 36.2435 68.6831 34.8886 75.4534C33.7595 81.0953 33.195 82.6299 29.7174 85.8571C27.9109 87.5497 24.7946 88.9038 21.5202 90.3481C19.6234 91.1605 17.6814 92.0181 16.0781 92.9208C13.9328 94.1169 12.8941 95.1776 12.8941 96.148C12.8941 96.983 13.6618 98.4048 17.3201 100.481L16.5297 101.79Z" fill="white"/>
<path d="M43.4246 133.723C43.4246 129.322 46.0892 124.222 49.3861 122.326C50.2216 121.852 51.2152 121.604 51.983 121.604C52.5927 121.604 54.1734 121.672 55.7993 122.665C57.6736 123.816 57.922 126.456 57.922 126.456L51.2152 140.223C51.2152 140.223 49.0474 141.283 46.8344 140.065C45.4569 139.32 44.6214 138.056 44.2375 137.379C44.0794 137.086 43.8084 136.454 43.7407 136.228C43.56 135.529 43.4246 134.694 43.4246 133.723Z" fill="#281818"/>
<path d="M58.1025 128.397C58.1025 132.798 55.4379 137.898 52.141 139.794C48.8441 141.689 46.1794 139.681 46.1794 135.28C46.1794 130.879 48.8441 125.779 52.141 123.883C55.4153 121.988 58.1025 124.019 58.1025 128.397Z" fill="#3F2A28"/>
<path d="M57.4027 128.984C57.4027 132.865 55.0542 137.356 52.1412 139.049C49.2281 140.719 46.8796 138.936 46.8796 135.077C46.8796 131.195 49.2281 126.704 52.1412 125.012C55.0316 123.319 57.4027 125.102 57.4027 128.984Z" fill="#1798CF"/>
<path d="M55.9122 130.518C55.9122 132.437 54.7379 134.671 53.2927 135.506C51.8475 136.341 50.6732 135.461 50.6732 133.542C50.6732 131.624 51.8475 129.39 53.2927 128.555C54.7605 127.72 55.9122 128.6 55.9122 130.518Z" fill="white"/>
<path d="M54.1168 44.2689L32.7357 93.8198L40.9475 97.3588L62.3285 47.8079L54.1168 44.2689Z" fill="#352221"/>
<path d="M46.8569 100.255L25.9011 112.374L11.4714 103.911L32.4046 91.7698L46.8569 100.255Z" fill="#352221"/>
<path d="M13.7973 96.915C11.9231 98.2014 11.4489 101.654 11.4489 103.911C13.7973 103.911 21.5203 101.158 21.5203 101.158L20.2105 98.0434L13.7973 96.915Z" fill="#352221"/>
<path d="M46.857 94.5906L43.3343 99.6006L28.2497 105.378L13.7975 96.9151L32.4047 86.1277L46.857 94.5906Z" fill="#543A3A"/>
<path d="M46.8568 94.5908C46.8568 94.5908 47.5117 95.2001 47.5117 97.1184C47.5117 98.7658 47.5117 99.8491 47.5117 99.8491L42.2501 102.918L43.6953 98.3822L46.8568 94.5908Z" fill="#472F2E"/>
<path d="M46.8569 94.5908C46.8569 94.5908 30.2142 104.295 28.2496 105.378C26.285 106.461 25.9011 110.072 25.9011 112.374C29.1529 110.501 47.5118 99.8491 47.5118 99.8491L46.8569 94.5908Z" fill="#472F2E"/>
<path d="M22.4913 89.3999V94.9516C22.4913 97.5017 26.3754 99.5554 31.1627 99.5554C35.95 99.5554 39.834 97.5017 39.834 94.9516V89.3999H22.4913Z" fill="#1798CF"/>
<path d="M31.1627 84.7964C26.3754 84.7964 22.4913 86.8501 22.4913 89.4002C22.4913 91.9504 26.3754 94.004 31.1627 94.004C35.95 94.004 39.834 91.9504 39.834 89.4002C39.8566 86.8501 35.9726 84.7964 31.1627 84.7964Z" fill="#4DBAF2"/>
<path d="M39.4276 110.794C34.5274 110.794 29.6272 108.831 29.3562 108.718C28.9723 108.56 28.7917 108.131 28.9498 107.748C29.1078 107.364 29.5369 107.184 29.9208 107.341C29.9885 107.364 37.5082 110.366 42.8149 108.876C48.6861 107.229 51.6217 103.798 50.6507 99.7136C50.2668 98.0436 49.4539 96.667 48.7313 95.4483C47.9184 94.0717 47.1506 92.7628 47.1957 91.3184C47.3312 86.6018 49.7023 83.4649 51.2604 81.4112C51.6669 80.8696 52.0282 80.3956 52.2992 79.9443C54.7606 75.9498 53.4734 71.8425 53.4509 71.7973C53.3154 71.4137 53.5412 70.9849 53.9251 70.8721C54.309 70.7367 54.738 70.9623 54.8509 71.346C54.9187 71.5491 56.3639 76.1529 53.5412 80.7342C53.2476 81.2081 52.8637 81.7271 52.4121 82.3139C50.8765 84.345 48.7765 87.1208 48.641 91.3861C48.6184 92.4017 49.2507 93.4849 49.9733 94.7261C50.7411 96.0351 51.6217 97.502 52.0508 99.3977C53.1799 104.272 49.7926 108.447 43.1762 110.32C42.002 110.659 40.7148 110.794 39.4276 110.794Z" fill="white"/>
<path d="M75.6936 14.2487C73.9774 12.2853 71.6289 10.9763 71.6289 10.9763C71.6289 10.9763 71.2902 10.7281 70.7257 10.4121C68.0159 8.62929 64.3351 7.5686 64.3351 7.5686C64.3351 7.5686 51.9603 28.9628 47.6472 39.5019C44.3729 47.5135 38.0952 66.5832 38.0952 66.5832C38.0952 66.5832 38.05 76.3099 38.9759 79.5822C38.9985 79.7628 39.0211 79.9433 39.0662 80.1238C39.6533 83.5993 42.0922 85.1339 44.689 83.6444C45.773 83.0351 47.0827 82.2001 48.686 81.0491C55.0314 76.4904 61.7607 61.5732 66.0513 51.034C70.3644 40.4949 79.0583 20.9964 79.0583 20.9964C79.0583 20.9964 77.3872 16.2346 75.6936 14.2487Z" fill="#1798CF"/>
<path d="M72.9374 12.9407C71.2212 10.9773 68.8953 9.6458 68.8953 9.6458C68.8953 9.6458 66.6371 8.08863 64.3564 7.547C62.0756 7.00538 57.9432 8.13376 57.9432 8.13376C57.9432 8.13376 51.7784 23.209 47.4653 33.7256C43.1522 44.2647 37.4165 59.7913 38.2068 68.8184C38.4101 71.0977 38.6359 72.9257 38.8843 74.3475C39.4714 77.8229 41.9102 79.3575 44.5071 77.868C45.591 77.2587 46.9008 76.4237 48.5041 75.2727C54.8495 70.7141 61.5788 55.7968 65.8693 45.2577C70.1824 34.7185 76.3472 19.6659 76.3472 19.6659C76.3472 19.6659 74.6536 14.9041 72.9374 12.9407Z" fill="#4DBAF2"/>
<path d="M95.5882 28.3771L82.3779 20.9749L80.0972 24.7662L93.6687 32.5521L95.5882 28.3771Z" fill="#1798CF"/>
<path d="M96.1075 29.5956C96.1075 30.7014 95.43 31.9877 94.5945 32.4617C93.759 32.9356 93.0815 32.4391 93.0815 31.3333C93.0815 30.2275 93.759 28.9411 94.5945 28.4672C95.4526 27.9707 96.1075 28.4897 96.1075 29.5956Z" fill="#4DBAF2"/>
<path d="M60.9931 8.38194L47.7151 0.776611L45.6602 4.88394L59.0511 12.557L60.9931 8.38194Z" fill="#1798CF"/>
<path d="M48.2118 1.9502C48.2118 3.05602 47.5344 4.34238 46.6989 4.81631C45.8634 5.29023 45.1859 4.79374 45.1859 3.68792C45.1859 2.5821 45.8634 1.29574 46.6989 0.821818C47.5344 0.347896 48.2118 0.844386 48.2118 1.9502Z" fill="#1798CF"/>
<path d="M85.9232 20.704L85.9683 21.0651L74.5194 14.4302L59.8414 5.92212C59.8414 5.92212 54.896 8.99133 52.1184 12.3088C51.8926 12.5796 51.712 12.8278 51.5539 13.0987L50.6958 13.0535V15.8068C50.6958 15.8745 50.6958 15.9422 50.6958 15.9873V16.0099C50.7635 17.8604 51.9378 19.553 53.1798 20.9748C55.2121 23.2767 61.9866 27.2035 65.8255 28.2867C69.6644 29.37 74.6098 30.2727 79.6455 28.2642C84.6812 26.2556 89.1749 22.9156 89.1749 22.9156V20.2752L85.9232 20.704Z" fill="#352221"/>
<path d="M89.1963 20.2753L74.5182 11.7673L59.8402 3.25928C59.8402 3.25928 54.8948 6.32849 52.1172 9.64594C49.3397 12.9408 51.1688 15.9875 53.2012 18.2894C55.2335 20.5913 62.008 24.5181 65.8469 25.6013C69.6858 26.6846 74.6311 27.5873 79.6668 25.5788C84.68 23.6154 89.1963 20.2753 89.1963 20.2753Z" fill="#472F2E"/>
</svg>
