<svg width="165" height="173" viewBox="0 0 165 173" fill="none" xmlns="http://www.w3.org/2000/svg">
<path d="M31.5985 12.5689L85.0229 43.4099L106.782 30.8545L53.3575 0L31.5985 12.5689Z" fill="#EDDDDD"/>
<path d="M31.5985 40.5852L85.0229 71.4398L106.782 58.8709L53.3575 28.0299L31.5985 40.5852Z" fill="#C6ADAC"/>
<path d="M31.5985 12.569V40.5854L85.0229 71.4399V43.41L31.5985 12.569Z" fill="#DBC7C6"/>
<path opacity="0.3" d="M83.8607 69.4936V45.6398L53.3575 28.0299L32.7878 39.9095V39.95L83.8607 69.4936Z" fill="#AF9B9A"/>
<path d="M106.782 30.8545L85.0229 43.4098V71.4398L106.782 58.8709V30.8545Z" fill="#C1AFAE"/>
<path d="M32.7878 14.3934V39.9096L53.2764 28.0705V26.246L32.7878 14.3934Z" fill="#C1AFAE"/>
<path d="M83.8607 45.64V43.9236L53.2765 26.2461V28.0706L53.3576 28.0301L83.8607 45.64Z" fill="#AF9B9A"/>
<path d="M78.9548 41.0448L58.3175 29.1517V54.7625L78.9548 42.8423V41.0448Z" fill="#C1AFAE"/>
<path d="M58.3176 55.4247L56.858 54.5733V27.5975L58.3176 28.449V55.4247Z" fill="#DBC7C6"/>
<path d="M105.052 56.0464C105.011 55.8707 104.782 55.8977 104.728 56.0464C104.606 56.4113 104.565 56.7897 104.457 57.1546C104.349 57.5331 104.187 57.8709 104.065 58.2358C103.957 58.5737 104.457 58.7764 104.633 58.4791C104.998 57.8169 105.201 56.7897 105.052 56.0464Z" fill="#AF9B9A"/>
<path d="M104.092 59.4522C103.917 59.1414 103.606 59.0333 103.322 58.8576C103.038 58.6819 102.754 58.3981 102.417 58.344C102.376 58.344 102.335 58.3575 102.335 58.4116C102.349 59.0603 103.349 59.8442 103.971 59.7631C104.106 59.7225 104.16 59.5468 104.092 59.4522Z" fill="#AF9B9A"/>
<path d="M87.6043 43.964C87.1583 44.3289 86.8205 44.7749 86.6042 45.302C86.4556 45.6533 86.2393 46.1669 86.5502 46.4778C86.5907 46.5183 86.6583 46.5318 86.6988 46.4913C86.9962 46.275 86.9962 45.8831 87.1178 45.5587C87.307 45.0857 87.6179 44.6938 87.9963 44.3559C88.2666 44.1262 87.8746 43.7477 87.6043 43.964Z" fill="#AF9B9A"/>
<path d="M88.1177 46.0723C88.1042 45.9236 87.8474 45.9236 87.8339 46.0723C87.7528 46.5724 87.5906 47.0724 87.3609 47.5184C87.1311 47.9509 86.7933 48.2888 86.5905 48.7212C86.5095 48.8834 86.6446 49.1267 86.8473 49.0591C87.9555 48.6131 88.2664 47.14 88.1177 46.0723Z" fill="#AF9B9A"/>
<path d="M88.1718 67.5611C87.888 67.2908 87.5502 67.0745 87.2528 66.8042C86.9285 66.5069 86.7257 66.1285 86.4554 65.7906C86.3473 65.642 86.077 65.669 86.077 65.8852C86.1176 66.8448 87.0771 67.8719 88.0637 67.8179C88.1853 67.8043 88.2664 67.6557 88.1718 67.5611Z" fill="#AF9B9A"/>
<path d="M89.8883 62.1281C89.8748 62.0335 89.7396 62.0335 89.6856 62.1011C89.4153 62.5741 89.2531 63.0877 88.9963 63.5607C88.7801 63.9661 88.3881 64.3446 88.3746 64.8176C88.3746 64.9527 88.5098 65.0473 88.6314 65.0068C89.1585 64.8446 89.3883 64.2094 89.5775 63.7499C89.8207 63.2228 89.9694 62.6957 89.8883 62.1281Z" fill="#AF9B9A"/>
<path d="M105.322 33.5305C105.309 33.517 105.282 33.517 105.268 33.5305C104.984 33.7873 105.012 34.2333 104.944 34.5982C104.863 35.0577 104.687 35.5037 104.701 35.9632C104.701 36.2335 105.079 36.3416 105.214 36.0984C105.458 35.6794 105.485 35.1388 105.512 34.6658C105.552 34.3009 105.62 33.8143 105.322 33.5305Z" fill="#AF9B9A"/>
<path d="M60.2231 48.113C60.1555 47.9103 59.8852 47.9644 59.8582 48.1671C59.7636 48.8564 59.8582 49.6132 59.9663 50.3024C60.0204 50.6268 60.561 50.5592 60.5475 50.2214C60.5204 49.5186 60.4528 48.7618 60.2231 48.113Z" fill="#AF9B9A"/>
<path d="M62.1558 49.5997C62.1423 49.5186 62.0612 49.4916 62.0207 49.5592C61.7504 49.9376 61.5477 50.3701 61.2774 50.7485C61.0071 51.1404 60.6016 51.4107 60.3448 51.8027C60.2232 51.9919 60.4259 52.3027 60.6557 52.2081C61.5477 51.8567 62.2504 50.5322 62.1558 49.5997Z" fill="#AF9B9A"/>
<path d="M73.3732 41.7071C73.3191 41.6665 73.2515 41.7341 73.2651 41.7882C73.3597 42.126 73.4948 42.4504 73.5624 42.8018C73.6435 43.2072 73.6164 43.5721 73.5894 43.9641C73.5624 44.3019 74.1165 44.383 74.1841 44.0451C74.3462 43.2478 74.103 42.1801 73.3732 41.7071Z" fill="#AF9B9A"/>
<path d="M72.7244 43.0992C71.8189 43.3019 71.1566 44.1669 70.9945 45.0453C70.9269 45.4102 71.481 45.5724 71.5621 45.2075C71.7513 44.3696 72.1973 43.829 72.819 43.2614C72.8866 43.1938 72.8055 43.0722 72.7244 43.0992Z" fill="#AF9B9A"/>
<path d="M15.151 56.6005C14.9212 56.4248 14.8672 56.1004 15.0429 55.8707L33.1393 31.5168C33.315 31.2871 33.6394 31.233 33.8691 31.4087C34.0989 31.5844 34.1529 31.9087 33.9772 32.1385L15.8808 56.4924C15.7051 56.7221 15.3807 56.7627 15.151 56.6005Z" fill="#513534"/>
<path d="M34.4367 34.3414C34.5584 33.6656 33.6664 33.4224 32.9501 33.9494C33.3961 33.3413 33.9772 32.3682 33.1798 31.9492C32.7474 31.733 32.2338 31.8546 31.7743 32.0979C31.7743 31.8411 31.7067 31.6114 31.477 31.5168C31.2067 31.3951 30.9634 31.5573 30.7607 31.7871C30.7336 31.233 30.5985 30.6653 30.2201 30.422C29.7065 30.0842 29.3011 30.395 29.0578 30.8275C28.9632 30.6518 28.7334 30.4896 28.4767 30.3545C28.0577 30.2193 27.6387 30.1653 27.2873 30.4626C26.6386 30.9897 27.1927 31.9628 27.5171 32.6115C27.1252 32.9088 26.8684 33.3953 26.9495 33.8548C26.5035 33.7062 25.9629 33.8954 25.8142 34.3954C25.6115 35.0847 26.044 35.7334 26.5846 36.1253C26.0845 36.2064 25.598 36.3956 25.8142 36.9768C26.0169 37.5444 26.7197 37.6931 27.3414 37.666C27.0306 38.1796 26.9089 38.7878 27.5847 39.0851C28.0847 39.3013 28.7875 38.9635 29.2876 38.531C29.3957 39.0446 29.8011 39.4906 30.3417 39.5446C30.7066 39.5716 31.0039 39.3824 31.1661 39.1257C31.7743 39.7203 32.5852 40.2068 33.3555 39.6798C33.7069 39.4365 33.8691 38.9094 33.7745 38.5175C34.0853 38.5445 34.3962 38.4769 34.6124 38.1796C34.7881 37.9363 34.8151 37.6525 34.7341 37.3957C35.2476 37.2471 35.6801 36.9092 35.8828 36.3686C35.9774 36.0983 35.9909 35.774 35.9234 35.4766C35.7882 35.2063 35.4233 34.4495 34.4367 34.3414Z" fill="#E52C2C"/>
<path d="M26.3684 40.5988C25.7332 41.9908 24.3006 43.7477 24.7466 44.2613C25.4764 45.1127 26.7873 44.8965 26.7873 44.8965C26.7873 44.8965 26.2873 47.0454 25.2196 47.4778C23.3005 48.2752 21.8274 48.7077 21.8274 48.7077C21.8274 48.7077 16.2727 60.2224 12.5291 61.5739C10.9749 62.1415 9.83965 60.6954 9.7991 59.5196C9.65044 55.1003 15.9214 48.5725 19.9083 45.5452C21.2192 44.5856 23.6789 40.4501 26.3684 40.5988Z" fill="#FFC9B6"/>
<path d="M23.7465 45.5724C23.7465 45.5724 24.0438 44.775 24.7466 44.275C25.4493 43.7749 25.5034 43.0046 26.3548 42.8559C27.2063 42.7208 28.2469 43.0722 27.436 43.9101C26.6386 44.7615 26.7333 45.613 25.7332 46.1671C24.733 46.7482 23.7465 45.5724 23.7465 45.5724Z" fill="#FFC9B6"/>
<path d="M4.54175 100.064C-1.22912 93.9422 4.27145 87.4821 7.04201 85.4954C8.51513 87.3064 17.2593 90.9013 17.3133 91.1176C18.3675 95.618 17.4079 100.321 16.07 104.673C15.2456 107.39 14.5293 111.971 12.5966 119.404C13.4886 123.094 12.475 128.703 12.0966 132.879C11.8398 135.798 10.6775 143.447 10.5018 144.096C11.0289 143.934 11.9074 143.15 13.0967 142.745C14.2049 142.366 15.624 142.339 16.2592 142.582C18.2324 143.366 18.8 144.082 18.2729 145.353C17.489 147.218 15.0023 147.813 13.2454 148.191C10.5829 148.745 9.08276 152.975 6.24463 150.056C5.51482 149.299 6.16354 147.326 6.40681 146.285C6.35275 145.556 6.56898 139.136 5.75809 134.244C4.7715 128.351 4.25794 121.742 7.70424 118.283C3.82546 108.43 3.96061 103.092 4.54175 100.064Z" fill="#F9BBA7"/>
<path d="M6.37982 145.934C6.37982 145.934 8.04215 146.529 9.10983 146.867C10.1775 147.204 12.7453 147.34 14.7185 145.434C15.4889 144.691 16.0295 143.758 15.7592 143.231C15.2591 142.231 13.0967 142.731 13.0967 142.731C13.0967 142.731 16.7998 140.163 18.8811 141.852C19.8407 142.636 20.0839 144.218 18.4621 145.893C17.5026 146.894 14.678 148.678 12.2318 149.975C10.637 150.826 8.05567 152.516 6.29873 150.813C4.52828 149.137 6.37982 145.934 6.37982 145.934Z" fill="#2C1D1B"/>
<path d="M10.5963 104.43C4.82545 98.3074 10.326 91.8473 13.0966 89.8606C14.5697 91.6716 23.3138 95.2665 23.3679 95.4828C24.4221 99.9832 23.4625 104.686 22.1245 109.038C21.3001 111.755 20.5838 116.336 18.6512 123.769C19.5432 127.459 18.5296 133.068 18.1511 137.244C17.8944 140.163 16.7321 147.813 16.5564 148.461C17.0835 148.299 17.9619 147.515 19.1513 147.11C20.2595 146.731 21.6785 146.704 22.3137 146.948C24.2869 147.731 24.8545 148.448 24.3275 149.718C23.5436 151.583 21.0569 152.178 19.2999 152.556C16.6375 153.11 15.1373 157.341 12.2992 154.421C11.5694 153.664 12.2181 151.691 12.4614 150.651C12.4073 149.921 12.6236 143.501 11.8127 138.609C10.8261 132.716 10.3125 126.108 13.7588 122.648C9.88002 112.782 10.0287 107.443 10.5963 104.43Z" fill="#FFC9B6"/>
<path d="M12.4344 150.286C12.4344 150.286 14.0967 150.88 15.1644 151.218C16.2321 151.556 18.7999 151.691 20.7731 149.786C21.5434 149.042 22.084 148.11 21.8137 147.583C21.3137 146.583 19.1513 147.083 19.1513 147.083C19.1513 147.083 22.8544 144.515 24.9357 146.204C25.8952 146.988 26.1385 148.569 24.5167 150.245C23.5571 151.245 20.7325 153.029 18.2863 154.327C16.6916 155.178 14.1102 156.868 12.3533 155.165C10.5963 153.489 12.4344 150.286 12.4344 150.286Z" fill="#2C1D1B"/>
<path d="M4.02804 59.1008C6.59587 58.1817 9.73133 59.6414 9.86648 62.2903C11.2855 64.6959 9.89351 68.2233 7.67707 69.8316C5.09572 71.6967 1.12234 69.8046 0.270897 66.9124C-0.621087 63.9121 1.02773 60.182 4.02804 59.1008Z" fill="#EDEDED"/>
<path d="M10.2855 65.8852C12.6911 66.588 14.8535 66.0068 17.1646 65.6554C15.732 64.1418 13.9075 62.6686 15.313 58.506C13.4885 58.006 11.8397 57.2897 10.2314 56.2896C9.90707 56.0869 9.3935 56.2626 9.32592 56.6545C8.96102 58.5466 8.50152 60.7495 7.27166 61.682C7.28517 62.3578 7.24463 62.2226 7.24463 62.8849C7.24463 63.3714 7.24463 63.8579 7.24463 64.358C8.01498 65.1689 9.17726 65.5743 10.2855 65.8852Z" fill="#FFC9B6"/>
<path d="M8.60983 51.8027C8.89364 49.1808 11.0425 45.7074 13.9752 45.9237C16.962 46.1534 19.0028 50.5863 19.2325 52.6541C19.6245 56.168 19.3136 62.7903 13.7725 60.6549C9.46127 59.0061 8.19086 55.7085 8.60983 51.8027Z" fill="#FFC9B6"/>
<path d="M2.60914 73.886C0.690025 67.9394 1.86582 63.9931 3.55519 62.0469C4.25796 61.2495 6.36629 58.9115 8.17728 60.5333C7.59614 63.2362 12.9075 64.6958 16.2862 64.6958C18.8541 66.615 20.0434 68.0475 21.5165 70.6424C23.0707 73.3859 24.3681 75.6429 21.057 77.6431C22.0706 80.6434 19.9217 84.2789 20.8002 91.9689C17.7053 94.4286 11.7587 94.4016 8.47461 92.4014C5.90678 90.8472 4.54177 89.1038 4.67692 87.2252C5.52836 85.4007 5.87975 85.0223 5.78515 82.7518C5.66351 79.8866 3.48761 76.6025 2.60914 73.886Z" fill="#EDEDED"/>
<path d="M20.111 70.5748C20.5975 70.6424 23.0032 75.0483 23.1248 76.7106C23.2464 78.3729 22.5707 81.6706 22.3815 83.3734C22.1923 85.0763 21.9355 87.9145 21.9355 87.9145L18.0297 89.1984C18.0297 89.1984 19.1379 86.9549 19.3406 83.8465C19.5433 80.7381 18.4486 73.8454 18.4486 73.8454L20.111 70.5748Z" fill="#15ABEB"/>
<path d="M8.54213 126.405C14.4346 130.054 15.9618 129.513 20.1109 128.257C23.1247 127.338 24.5167 125.135 25.1925 122.797C25.4628 113.417 25.3682 100.078 24.8546 96.5101C23.8951 89.8472 22.3814 88.739 22.3814 88.739L11.5965 89.8472L5.24449 85.8468C5.24449 85.8468 1.93334 90.0905 1.09541 94.1044C0.257487 98.1319 -0.134445 102.578 0.0412485 108.714C0.243972 115.877 0.56833 118.837 0.0412485 122.391C1.0819 127.338 4.96068 124.189 8.54213 126.405Z" fill="#15ABEB"/>
<path d="M17.6647 65.7905C17.6647 65.7905 14.0697 64.8986 12.3669 67.3718C10.6505 69.845 11.2316 74.3995 11.2857 78.0756C11.3397 81.7516 11.2046 89.3876 11.2046 89.3876L9.50171 88.7794C9.50171 88.7794 9.86661 84.1032 9.78552 78.9405C9.70443 73.7914 9.78552 68.6692 10.9883 66.6825C12.1912 64.6958 15.9348 64.3309 15.9348 64.3309L17.6647 65.7905Z" fill="#15ABEB"/>
<path d="M3.66332 70.7642C3.42005 67.3854 3.64981 65.9934 4.51476 64.3446C5.70407 62.1146 7.37992 60.8578 8.32597 60.2766C8.42057 60.0604 8.51518 59.8576 8.60978 59.6414C8.15027 59.3981 7.70428 59.0332 7.4475 59.0603C5.12293 59.29 2.89297 61.9795 2.24426 65.7637C1.73069 68.7369 2.62267 73.4131 3.66332 77.1027C4.86615 81.4274 5.23105 82.3329 5.23105 85.2927C5.23105 85.9684 7.21774 87.0902 7.21774 87.0902C7.21774 87.0902 6.77175 83.6844 5.82571 79.8732C4.98778 76.481 3.81199 72.7374 3.66332 70.7642Z" fill="#15ABEB"/>
<path d="M21.9354 86.7658L22.3814 88.7524C22.3814 88.7524 16.7592 92.5772 11.2856 90.9689C5.70398 89.3336 4.28491 87.1982 4.28491 87.1982L5.10932 84.6439C5.93373 85.4818 8.78538 88.1308 12.7047 88.7389C14.8941 89.0768 18.9621 88.0902 21.9354 86.7658Z" fill="#F4EBEA"/>
<path d="M7.21777 106.484C7.21777 106.484 7.5151 109.849 8.54223 113.809C9.56937 117.769 10.4478 120.31 10.4478 120.31C10.4478 120.31 10.2857 116.728 9.51531 112.674C8.74496 108.619 7.21777 106.484 7.21777 106.484Z" fill="#0093D1"/>
<path d="M18.6379 103.2C18.6379 103.2 18.2189 108.322 18.4622 112.187C18.7054 116.052 20.584 121.134 20.584 121.134C20.584 121.134 20.1921 114.485 20.111 110.944C20.0299 107.416 18.6379 103.2 18.6379 103.2Z" fill="#0093D1"/>
<path d="M23.0572 72.8318C24.0573 73.94 25.2601 75.4401 25.8277 76.8322C26.4764 78.4269 27.8144 80.8461 28.3955 82.2246C29.72 82.8463 32.0175 83.6031 34.8286 85.252C37.7208 86.9413 38.8426 87.7522 40.3022 87.7928C41.7888 87.8333 42.7889 88.1306 43.8161 88.3063C45.8703 88.6577 44.1404 89.4146 43.5322 89.4956C42.8295 89.5902 41.6942 89.82 41.6942 89.82C41.6942 89.82 44.0863 92.996 45.1675 95.1314C46.2758 97.3208 43.1403 99.6859 41.2077 97.6451C39.2615 95.5773 37.7479 92.4554 37.1937 91.5634C36.6532 90.6714 31.4499 89.2253 29.8416 88.8739C29.3416 88.7658 26.9224 88.2388 26.4088 88.1306C25.5844 87.982 25.3277 87.509 24.4762 86.671C23.5031 85.7115 23.3004 85.6709 21.111 82.8869C19.2324 80.4947 18.0161 79.4405 17.2593 76.3591C16.4213 72.9804 21.9084 71.5614 23.0572 72.8318Z" fill="#FFC9B6"/>
<path d="M18.9486 66.6825C22.4895 67.3583 25.6925 72.6696 25.6249 76.1295C26.5845 77.3593 21.5029 81.7246 19.8406 81.2516C17.1646 80.9002 14.7049 77.2377 13.9481 73.3589C13.0426 68.7773 15.3401 65.9933 18.9486 66.6825Z" fill="#EDEDED"/>
<path d="M25.625 76.1429L26.3548 77.7107C26.3548 77.7107 26.6251 78.9811 24.76 80.6164C22.8814 82.2382 20.6515 82.2922 20.6515 82.2922L19.8406 81.2786C19.8406 81.2786 22.1651 80.6705 23.6653 79.3865C25.179 78.1026 25.625 76.1429 25.625 76.1429Z" fill="#15ABEB"/>
<path d="M20.7326 48.978C21.0164 48.6266 21.2191 48.2482 21.2597 47.8833C21.4083 46.7751 19.6379 46.4913 18.5432 46.7616C16.989 44.2613 12.9885 43.3558 10.7316 45.6533C8.407 45.9777 6.9609 47.14 6.51491 49.424C5.59589 54.1272 6.83927 54.5867 8.32591 60.2765C10.3802 60.9522 12.2858 58.8844 13.7454 57.114C14.5833 56.1004 15.6375 54.2759 16.4889 51.9378C19.4352 53.046 21.8678 52.2486 22.3003 50.816C22.6247 49.7484 21.7597 49.1402 20.7326 48.978Z" fill="#A76038"/>
<path d="M15.6374 54.2894C15.6374 54.2894 13.4209 52.7622 13.0695 54.9246C12.7181 57.087 14.8265 57.8303 14.8265 57.8303L15.6374 54.2894Z" fill="#FFC9B6"/>
<path d="M9.23142 43.9776C8.37998 43.9235 7.52854 44.2749 7.04201 45.0182C6.20408 46.3292 6.97443 47.5996 7.28528 48.0321C8.42053 49.5998 10.5829 49.2078 11.61 47.7347C12.8129 46.0318 11.0154 44.0992 9.23142 43.9776Z" fill="#15ABEB"/>
<path d="M9.15025 44.5317C7.82579 43.6127 5.64989 42.4774 2.71715 44.0452C-0.215581 45.6129 -0.215581 50.289 0.243926 52.6812C0.703433 55.0733 2.25765 56.9654 2.582 59.0467C3.04151 62.047 0.716948 63.1282 0.716948 63.1282C0.716948 63.1282 2.82527 65.1014 5.23093 62.047C7.63658 58.9926 6.90678 55.6139 6.8392 52.2757C6.75811 48.9376 9.33946 47.978 9.94763 47.1401C10.5558 46.3022 10.1368 45.2209 9.15025 44.5317Z" fill="#DB7942"/>
<path d="M46.8975 19.7994C46.6948 19.5021 46.3975 19.3805 46.0596 19.3535C46.3029 19.0291 46.438 18.6642 46.1948 18.2047C46.0191 17.8668 45.6407 17.7182 45.1136 17.9074C45.5325 17.2722 45.046 16.1234 44.0189 16.5424C43.8702 15.8396 42.8296 15.353 42.3836 15.7315C42.4511 13.8123 40.6942 14.2989 40.4509 15.1773C39.9914 14.9206 39.1941 14.7854 38.7481 15.1773C38.4237 15.4612 38.3291 15.8396 38.3561 16.2045C38.1534 16.1639 37.9372 16.1504 37.7074 16.2315C37.1803 16.4207 37.0452 16.8397 37.0722 17.2992C36.7073 17.2316 36.3019 17.3397 36.0316 17.6371C35.6937 18.002 35.6802 18.5561 35.8829 19.0021C35.7072 19.0291 35.545 19.0967 35.3828 19.2318C35.0585 19.5021 34.9909 19.8941 35.0315 20.2725C34.7341 20.1779 34.4233 20.1779 34.153 20.2995C33.4772 20.5968 33.4367 21.3266 33.5583 21.9753C33.1799 21.9213 32.8015 22.0564 32.5177 22.3673C32.1528 22.7862 32.1393 23.3674 32.315 23.8674C32.5988 24.1783 32.842 24.6243 32.9366 24.9892C33.2069 24.7729 33.5583 24.6918 33.9368 24.8405C34.3692 25.0162 34.5855 25.4081 34.6666 25.8271C34.8423 25.6919 35.0585 25.6514 35.3018 25.7866C35.545 25.9217 35.6396 26.1379 35.6667 26.3812C36.2208 26.219 36.7614 26.3407 37.1668 26.9083C37.3695 27.1786 37.356 27.53 37.2209 27.8543C37.6534 27.4894 38.7616 27.7057 38.7075 28.6787C39.8698 28.5436 40.3158 29.1383 40.5591 30.2059C40.5996 30.2059 40.6401 30.2194 40.6807 30.2194C41.005 30.2059 41.3294 30.0437 41.5592 29.814C41.8835 29.4896 41.9916 29.0707 41.9241 28.6787C42.2484 28.6517 42.5593 28.503 42.7755 28.2463C42.9782 28.003 43.0728 27.7057 43.0728 27.3948C43.5188 27.557 43.9378 27.5029 44.0865 26.8542C44.1675 26.5028 44.154 26.0839 44.0459 25.6919C44.7487 25.9082 45.4515 25.8812 45.6542 25.1108C45.7758 24.6648 45.6001 24.1783 45.2758 23.7999C45.8839 23.6647 46.4651 23.2322 46.6948 22.6916C46.8705 22.2997 46.8165 21.8808 46.5191 21.5699C46.6678 21.4618 46.7894 21.3131 46.8975 21.1509C47.1408 20.7455 47.1814 20.2049 46.8975 19.7994Z" fill="#52CBFF"/>
<path d="M38.6939 28.6787C38.7479 27.7057 37.6397 27.5029 37.2072 27.8543C37.3289 27.53 37.3424 27.1786 37.1532 26.9083C36.7342 26.3407 36.2071 26.219 35.653 26.3812C35.626 26.1379 35.5179 25.9217 35.2881 25.7865C35.0449 25.6514 34.8421 25.6919 34.6529 25.8271C34.5718 25.4081 34.3691 25.0162 33.9231 24.8405C33.5447 24.6918 33.1933 24.7729 32.923 24.9892C32.8284 24.6243 32.5851 24.1783 32.3013 23.8674C32.3013 23.8809 32.3148 23.908 32.3148 23.9215C31.9499 23.8674 31.5715 23.9755 31.3012 24.2594C30.9228 24.6648 30.9363 25.2189 31.1526 25.6784C30.8147 25.8001 30.5174 26.0569 30.4363 26.4488C30.3822 26.7056 30.4498 27.0569 30.639 27.2597C30.2606 27.1245 29.8416 27.138 29.5173 27.4489C29.0713 27.8678 29.247 28.5841 29.4362 29.1923C29.1388 29.0842 28.8415 29.0572 28.6523 29.341C28.4631 29.6383 28.4496 30.0167 28.5307 30.3681C28.5036 30.3546 28.4766 30.3546 28.4496 30.3411C28.7064 30.4762 28.9361 30.6384 29.0307 30.8141C29.274 30.3816 29.6659 30.0708 30.193 30.4086C30.5714 30.6519 30.7066 31.2195 30.7336 31.7736C30.9228 31.5439 31.1796 31.3817 31.4499 31.5033C31.6796 31.6115 31.7472 31.8277 31.7472 32.0845C32.2067 31.8412 32.7338 31.7196 33.1528 31.9358C33.9637 32.3548 33.369 33.3279 32.923 33.936C33.6393 33.409 34.5313 33.6522 34.4097 34.328C35.3962 34.4226 35.7612 35.1794 35.8828 35.4362C36.045 35.4632 36.2071 35.4497 36.3693 35.3956C36.8829 35.2335 37.2748 34.7199 37.2072 34.1388C38.1533 34.1658 38.9101 33.3819 38.6533 32.4359C39.3561 32.3548 39.9913 32.0034 40.3562 31.3547C40.5589 30.9898 40.6265 30.5438 40.5184 30.1789C40.3022 29.1382 39.8562 28.5436 38.6939 28.6787Z" fill="#EDEDED"/>
<path d="M103.164 146.623V151.299C103.164 151.867 104.029 152.326 105.11 152.326C106.192 152.326 107.056 151.867 107.056 151.299V146.623H103.164Z" fill="#352221"/>
<path d="M84.6757 135.811V140.487C84.6757 141.055 85.5406 141.514 86.6218 141.514C87.6895 141.514 88.568 141.055 88.568 140.487V135.811H84.6757Z" fill="#352221"/>
<path d="M124.545 134.365V139.041C124.545 139.609 125.41 140.068 126.491 140.068C127.559 140.068 128.437 139.609 128.437 139.041V134.365H124.545Z" fill="#352221"/>
<path d="M84 108.89L105.11 121.066L129.478 106.997L108.367 94.807L84 108.89Z" fill="#EDDDDD"/>
<path d="M84 137.636L105.11 149.826L129.478 135.757L108.367 123.567L84 137.636Z" fill="#DEC9C5"/>
<path d="M129.478 106.997V135.757L105.11 149.826V121.066L129.478 106.997Z" fill="#C1AFAE"/>
<path d="M107.448 121.621L127.545 110.025V116.309L107.448 127.905V121.621Z" fill="#15ABEB"/>
<path d="M107.448 129.567L127.545 117.972V135.014L107.448 146.623V129.567Z" fill="#15ABEB"/>
<path d="M84 108.89V137.636L105.11 149.826V121.066L84 108.89Z" fill="#DBC7C6"/>
<path d="M113.746 120.012C113.746 119.837 113.854 119.634 113.989 119.553C114.044 119.526 114.098 119.526 114.138 119.539H114.152C114.152 119.539 114.165 119.539 114.165 119.553L115.409 120.296C115.855 120.553 116.571 120.593 116.949 120.377L121.909 117.512C122.004 117.458 122.058 117.404 122.058 117.35C122.058 117.296 122.004 117.174 121.774 117.039L120.49 116.296C120.436 116.269 120.409 116.201 120.409 116.107C120.409 115.931 120.517 115.728 120.652 115.647C120.706 115.606 120.76 115.62 120.815 115.634L122.139 116.404C122.544 116.647 122.788 116.985 122.788 117.336C122.788 117.647 122.598 117.945 122.274 118.134L117.314 120.999C117.044 121.161 116.679 121.242 116.301 121.242C115.868 121.242 115.409 121.134 115.044 120.931L113.854 120.215C113.787 120.175 113.746 120.12 113.746 120.012Z" fill="#422C2A"/>
<path d="M113.746 127.946C113.746 127.77 113.854 127.567 113.989 127.486C114.044 127.459 114.098 127.459 114.138 127.473H114.152C114.152 127.473 114.165 127.473 114.165 127.486L115.409 128.229C115.855 128.486 116.571 128.527 116.949 128.31L121.909 125.445C122.004 125.391 122.058 125.337 122.058 125.283C122.058 125.229 122.004 125.107 121.774 124.972L120.49 124.229C120.436 124.202 120.409 124.134 120.409 124.04C120.409 123.864 120.517 123.661 120.652 123.58C120.706 123.54 120.76 123.553 120.815 123.567L122.139 124.337C122.544 124.58 122.788 124.918 122.788 125.27C122.788 125.58 122.598 125.878 122.274 126.067L117.314 128.932C117.044 129.094 116.679 129.175 116.301 129.175C115.868 129.175 115.409 129.067 115.044 128.865L113.854 128.148C113.787 128.121 113.746 128.054 113.746 127.946Z" fill="#422C2A"/>
<path d="M86.4326 137.649C86.2434 137.298 86.0542 136.947 85.9731 136.555C85.892 136.217 85.9326 135.852 85.8245 135.514C85.7974 135.419 85.6758 135.406 85.6217 135.487C85.2028 136.176 85.6082 137.338 86.0677 137.92C86.2299 138.149 86.5408 137.879 86.4326 137.649Z" fill="#AF9B9A"/>
<path d="M88.4599 137.46C88.1491 137.163 87.7166 136.866 87.2706 136.839C87.149 136.839 87.1084 136.987 87.176 137.068C87.4463 137.393 87.8247 137.609 88.122 137.92C88.3653 138.163 88.514 138.555 88.8653 138.636C88.9464 138.649 89.0275 138.609 89.041 138.528C89.1627 138.109 88.7437 137.717 88.4599 137.46Z" fill="#AF9B9A"/>
<path d="M89.4059 113.89C89.0275 113.93 88.7842 114.214 88.4599 114.404C88.0814 114.62 87.6625 114.755 87.2976 114.998C87.2165 115.052 87.203 115.228 87.3246 115.255C88.0139 115.35 89.3789 114.904 89.6086 114.174C89.6492 114.039 89.5411 113.876 89.4059 113.89Z" fill="#AF9B9A"/>
<path d="M89.7033 115.147C89.6087 115.133 89.5276 115.228 89.5817 115.309C89.7168 115.566 89.9331 115.769 90.0817 116.025C90.2574 116.323 90.3385 116.62 90.4602 116.931C90.5683 117.215 91.0954 117.215 91.0548 116.85C90.9602 116.188 90.4196 115.296 89.7033 115.147Z" fill="#AF9B9A"/>
<path d="M86.3651 113.255C86.4326 113.039 86.1218 112.917 86.0002 113.106C85.4596 113.958 85.2028 115.066 85.4325 116.066C85.5136 116.431 86.1083 116.35 86.0948 115.971C86.0272 115.012 86.0542 114.174 86.3651 113.255Z" fill="#AF9B9A"/>
<path d="M102.178 141.569C101.853 141.974 101.502 142.326 101.11 142.65C100.732 142.961 100.299 143.218 99.9747 143.596C99.9477 143.636 99.9612 143.691 100.015 143.691C101.042 143.704 102.015 142.772 102.637 142.042C102.921 141.717 102.448 141.244 102.178 141.569Z" fill="#AF9B9A"/>
<path d="M101.934 143.961C101.84 143.934 101.759 144.028 101.786 144.109C101.907 144.488 102.164 144.799 102.34 145.137C102.502 145.447 102.556 145.745 102.894 145.88C102.961 145.907 103.069 145.866 103.11 145.799C103.407 145.191 102.502 144.163 101.934 143.961Z" fill="#AF9B9A"/>
<path d="M123.693 102.159C123.693 102.159 121.639 100.551 120.125 99.6589C118.612 98.767 115.855 99.1319 115.855 99.1319C115.855 99.1319 118.247 100.51 119.058 100.983C119.855 101.443 118.787 102.632 117.814 102.375C116.841 102.105 115.773 101.402 115.449 102.375C115.273 102.943 116.246 103.105 117.855 103.822C119.166 104.403 122.261 105.687 122.261 105.687L123.693 102.159Z" fill="#619BF7"/>
<path d="M139.465 101.281C139.465 101.281 142.668 97.1991 145.344 97.7262C148.02 98.2533 152.696 101.105 152.696 107.146C152.696 109.809 147.29 107.781 145.02 108.903C142.749 110.025 136.384 112.782 133.262 113.052C130.14 113.322 120.666 105.7 120.666 105.7C120.666 105.7 120.112 105.24 121.288 103.173C122.463 101.118 123.153 100.862 123.153 100.862C123.153 100.862 127.099 102.375 128.423 103.362C129.748 104.349 132.654 105.713 132.654 105.713C132.654 105.713 134.924 103.267 136.357 102.389C137.789 101.456 139.465 101.281 139.465 101.281Z" fill="#EDEDED"/>
<path d="M141.533 144.177C141.533 144.177 145.777 145.474 146.858 146.907C147.939 148.34 148.452 149.488 148.669 151.272C148.871 153.043 148.142 154.151 146.236 154.07C144.574 154.002 143.736 153.137 143.452 152.178C143.452 152.178 138.762 151.678 136.37 150.015C133.951 148.353 137.586 143.731 141.533 144.177Z" fill="#2C1D1B"/>
<path d="M128.991 122.067C132.748 121.229 137.397 122.634 141.344 124.472C141.438 124.472 141.533 124.499 141.628 124.553C146.358 126.824 155.953 129.189 157.17 130.23C159.089 134.906 156.494 141.785 151.588 141.163C149.074 142.704 146.223 142.866 143.641 141.893C143.763 142.069 145.52 144.569 146.844 146.92C145.479 147.61 144.966 148.218 142.857 150.029C140.573 149.11 137.114 146.096 135.167 144.623C133.221 143.15 126.558 135.933 126.558 129.838C124.099 127.54 124.639 123.026 128.991 122.067Z" fill="#2C1D1B"/>
<path d="M128.221 148.461C128.437 145.799 130.059 142.069 131.18 140.379C134.154 135.933 135.303 133.027 138.492 130.987C142.344 128.527 144.777 132.946 148.817 133.514C148.858 133.487 153.034 131.838 153.331 131.689C153.264 131.811 154.142 137.92 152.683 141.177C151.345 144.164 148.115 144.61 144.371 144.718C142.857 147.326 140.479 149.178 139.817 149.515C140.979 150.434 142.303 151.097 144.276 152.962C147.115 155.638 150.628 158.624 154.061 160.949C153.196 161.436 152.358 162.206 152.007 162.679C151.48 163.382 151.142 164.003 150.953 165.166C144.533 163.693 139.438 160.341 134.167 156.611C132.275 155.273 131.235 153.894 129.883 152.232C127.288 151.786 127.396 149.218 128.221 148.461Z" fill="#3F2A28"/>
<path d="M135.14 102.578L138.911 105.673C140.952 104.943 142.492 102.551 143.371 100.24C142.628 99.6454 139.992 98.1317 139.803 97.3343C140.587 95.1449 139.398 93.2934 137.37 91.3202C135.235 89.2524 131.383 89.2794 129.072 91.1039C128.734 91.2391 127.018 92.4825 127.248 94.5638C127.504 96.9018 128.842 102.511 130.816 103.524C132.194 104.227 133.816 103.078 135.14 102.578Z" fill="#FFC9B6"/>
<path d="M140.573 91.2932C140.371 89.5092 139.411 87.9144 137.492 87.036C135.343 86.0494 131.491 85.9142 129.761 87.8469C129.734 87.7793 129.721 87.7117 129.667 87.6576C129.126 86.9684 128.248 87.0765 127.626 87.5495C127.126 87.9279 126.761 88.4821 126.518 89.0902C126.153 88.9686 125.734 88.9686 125.369 89.1038C124.112 89.6173 124.166 91.4013 124.612 92.4284C125.531 94.5773 128.923 96.9289 131.41 96.3342C131.289 97.5911 131.897 98.2668 132.897 99.0777C134.465 100.362 136.708 100.429 138.478 99.5508C140.479 98.5507 142.303 96.2531 142.168 93.9151C142.114 92.8474 141.479 91.8067 140.573 91.2932Z" fill="#2C1D1B"/>
<path d="M130.532 96.9154C130.532 96.9154 130.991 95.4558 132.37 96.3748C133.748 97.2938 132.099 100.024 132.099 100.024L130.532 96.9154Z" fill="#FFC9B6"/>
<path d="M143.695 99.2265C141.384 100.227 141.546 100.646 136.735 104.349C131.924 108.052 131.681 110.228 132.113 112.525C132.545 114.823 132.883 115.999 134.748 120.458C137.127 126.148 140.181 129.243 140.181 129.243C140.181 129.243 138.546 129.743 137.803 130.203C137.059 130.662 136.884 133.189 137.708 133.973C140.073 136.203 150.128 140.069 157.71 130.608C157.345 124.243 155.318 114.512 153.696 109.484C151.845 103.808 145.722 98.348 143.695 99.2265Z" fill="#EDEDED"/>
<path d="M129.383 139.65C126.369 142.136 125.153 146.934 126.45 150.015C127.653 152.854 130.383 154.07 130.383 154.07C130.383 154.07 131.491 146.366 133.6 142.461C135.721 138.555 138.627 138.271 140.56 135.919C142.492 133.568 141.519 131.176 141.519 131.176L136.262 124.148C136.262 124.148 130.667 131.365 127.302 133.095C127.707 135.919 129.451 138.325 129.383 139.65Z" fill="#15ABEB"/>
<path d="M129.383 139.65C129.383 139.65 131.951 137.284 133.613 135.825C135.586 134.081 136.519 132.716 137.816 130.216C138.181 127.243 136.276 124.797 136.276 124.797C136.276 124.797 134.019 124.486 133.87 127.243C133.627 131.676 127.477 134.081 127.477 134.081C127.477 134.081 129.18 138.771 129.383 139.65Z" fill="#F4EBEA"/>
<path d="M140.749 130.608C140.749 130.608 143.749 132.243 146.506 132.973C149.277 133.703 149.615 133.608 151.588 133.987C150.818 133.987 146.52 134.419 144.749 133.351C142.992 132.297 140.749 130.608 140.749 130.608Z" fill="#EDEDED"/>
<path d="M150.142 129.297C150.142 129.297 148.547 130.608 146.182 130.378C143.817 130.149 142.317 129.865 142.317 129.865C142.317 129.865 144.871 129.135 146.182 129.297C147.493 129.459 150.142 129.297 150.142 129.297Z" fill="#EDEDED"/>
<path d="M150.764 158.503C150.764 158.503 154.25 158.26 155.683 158.503C157.102 158.746 157.318 161.314 158.562 162.53C159.819 163.747 163.441 164.368 164.4 166.869C165.36 169.369 163.603 173.248 161.346 172.288C157.629 170.72 150.128 164.463 150.128 164.463C150.128 164.463 148.385 161.801 150.764 158.503Z" fill="#2C1D1B"/>
<path d="M135.289 120.472C135.289 120.472 136.113 125.837 136.978 127.31C138.668 130.216 140.654 129.757 140.749 129.824C140.749 129.824 140.195 126.581 139.519 124.499C138.843 122.418 137.803 118.891 137.803 118.891L135.289 120.472Z" fill="#15ABEB"/>
<path d="M135.289 105.606C135.289 105.606 138.181 104.808 140.749 108.444C143.384 112.187 144.155 116.769 145.709 121.81C147.398 127.31 148.493 130.216 148.493 130.216L150.142 129.284C150.142 129.284 148.074 123.959 146.182 116.863C145.52 114.404 143.898 108.565 142.141 106.93C139.506 104.484 136.735 104.349 136.735 104.349L135.289 105.606Z" fill="#15ABEB"/>
<path d="M142.087 99.8886C142.087 99.8886 145.574 99.9967 148.142 103.646C150.777 107.389 150.953 111.065 152.507 116.106C154.196 121.607 154.832 124.783 154.832 124.783L156.359 123.918C156.359 123.918 154.886 118.255 152.994 111.16C152.345 108.7 149.926 102.659 148.169 101.024C145.533 98.5776 143.547 98.6317 143.547 98.6317L142.087 99.8886Z" fill="#15ABEB"/>
<path d="M156.967 122.945C156.967 122.945 151.399 127.675 147.844 128.851C143.668 130.23 139.519 129.662 137.803 128.473C137.668 129.202 137.803 130.203 137.803 130.203C137.803 130.203 138.492 130.973 140.749 131.662C143.006 132.351 146.506 131.784 149.507 130.405C152.507 129.027 157.183 125.499 157.183 125.499L156.967 122.945Z" fill="#15ABEB"/>
<path d="M116.571 122.945C117.409 123.188 118.057 121.702 118.747 118.958C119.45 116.215 120.058 114.742 119.058 114.539C118.057 114.336 116.747 115.255 115.841 117.755C114.949 120.269 115.787 122.729 116.571 122.945Z" fill="#627DF4"/>
<path d="M134.911 107.984C133.032 107.214 130.964 108.89 127.532 112.701C124.139 114.052 117.922 115.066 117.287 115.634C115.314 117.972 114.841 120.837 117.287 122.229C117.814 122.526 121.558 124.351 122.031 123.986C123.855 124.797 129.302 123.742 130.762 120.972C132.235 121.526 135.668 122.404 138.641 117.282C140.168 114.674 139.857 110.025 134.911 107.984Z" fill="#EDEDED"/>
<path d="M114.598 115.498C113.746 114.606 110.313 113.012 109.084 112.052C107.57 110.863 106.732 110.214 105.691 109.795C104.083 110.052 102.448 110.12 100.664 111.093C98.6095 112.214 96.1769 114.512 95.2714 116.769C96.0417 118.188 97.1364 118.85 98.2041 119.607C99.069 120.229 100.664 120.729 101.569 121.256C102.542 121.837 103.218 122.58 104.38 123.837C107.286 123.107 108.313 120.229 110.232 119.08C111.151 118.526 114.881 117.12 114.598 115.498Z" fill="#E52C2C"/>
<path d="M119.058 114.539C119.058 114.539 116.355 113.944 114.071 113.782C111.557 113.593 109.097 113.62 108.421 113.323C107.867 112.728 107.394 112.174 106.867 111.485C105.786 110.052 106.029 108.957 105.435 109.052C104.84 109.146 104.853 110.12 104.881 110.998C104.894 111.268 104.935 111.593 104.989 111.917C104.772 111.822 104.57 111.728 104.38 111.647C100.272 109.782 98.6096 110.417 98.6907 113.039C98.7583 115.147 105.205 117.093 107.408 117.377C109.611 119.702 113.936 122.323 116.557 122.932C115.976 121.796 116.355 119.391 116.963 117.891C117.949 115.485 119.058 114.539 119.058 114.539Z" fill="#619BF7"/>
</svg>
