<svg width="120" height="190" viewBox="0 0 120 190" fill="none" xmlns="http://www.w3.org/2000/svg">
<path d="M32.2784 189.428C20.0391 189.428 7.3031 183.131 3.46422 178.573C0.0543985 174.533 -0.939182 169.23 0.935093 165.055C1.58996 163.588 2.56097 162.301 3.84813 161.196C3.96103 160.925 4.09652 160.677 4.2546 160.428C5.09012 159.029 6.15145 157.765 7.39344 156.637C6.03854 155.373 5.18044 154.064 5.04495 152.62C4.8643 150.656 6.06112 148.67 8.68059 146.572C14.8002 141.652 25.9555 144.676 34.9656 151.108C41.7627 152.507 47.8597 155.621 52.0599 159.999C65.3379 161.647 79.1127 162.64 89.7261 159.638C106.549 154.877 116.034 148.986 117.931 142.171C119.105 137.928 117.321 133.212 112.624 128.179C104.494 119.49 90.4712 121.002 90.3132 121.025L90.2229 120.258C90.3584 120.235 104.788 118.678 113.188 127.66C118.089 132.918 119.94 137.861 118.676 142.397C116.711 149.483 107.024 155.554 89.9293 160.406C79.4062 163.385 65.925 162.504 52.8503 160.902C52.9858 161.06 53.0987 161.196 53.2341 161.354C58.0666 167.199 59.7377 172.141 58.3828 176.429C56.7569 181.574 50.8405 185.501 40.2723 188.457C37.7206 189.112 35.0108 189.428 32.2784 189.428ZM3.30615 162.775C2.60612 163.565 2.06417 164.423 1.63512 165.348C-0.103667 169.252 0.84476 174.24 4.05135 178.054C8.63542 183.515 26.2491 191.481 40.0917 187.622C50.2308 184.801 56.1472 180.942 57.6602 176.113C58.9021 172.141 57.2311 167.311 52.647 161.76C52.3309 161.376 52.0147 161.015 51.676 160.677C49.0565 160.361 46.4596 159.999 43.9079 159.661C48.6501 166.048 49.1243 172.096 45.037 176.158C36.7721 184.373 17.5552 179.972 8.63542 172.998C4.4804 169.749 2.62871 166.138 3.30615 162.775ZM4.48041 161.647C2.47064 166.228 6.46759 170.29 9.13222 172.389C17.8261 179.182 36.5237 183.538 44.4951 175.616C48.4017 171.735 47.7468 165.799 42.824 159.526C42.6434 159.503 42.4627 159.48 42.2821 159.458C33.4301 158.239 25.0748 157.111 19.023 157.291C16.0422 157.382 13.3776 157.765 11.0742 158.397C12.8356 159.526 14.9131 160.654 17.0132 161.782C21.3037 164.107 25.7523 166.522 28.6427 169.478L28.0782 170.02C25.2781 167.153 20.8747 164.784 16.6293 162.482C14.2808 161.218 12.0001 159.977 10.0806 158.691C7.82248 159.413 5.94821 160.406 4.48041 161.647ZM7.95798 157.111C6.98697 157.991 6.15145 158.939 5.42883 159.954C6.55791 159.232 7.82248 158.623 9.2677 158.126C8.81607 157.788 8.36445 157.472 7.95798 157.111ZM43.2305 158.803C45.7145 159.142 48.2436 159.48 50.7953 159.819C47.1145 156.276 42.0788 153.658 36.4786 152.236C38.4883 153.793 40.34 155.531 41.9885 157.359C42.4401 157.833 42.8466 158.329 43.2305 158.803ZM20.3553 156.501C26.2717 156.501 33.972 157.54 42.1014 158.645C41.8756 158.397 41.6498 158.126 41.424 157.878C39.4368 155.666 37.0883 153.59 34.5591 151.807C31.1042 151.108 27.4685 150.882 23.8103 151.153C17.5778 151.627 12.2711 153.545 8.56768 156.614C9.06448 157.021 9.60644 157.427 10.2161 157.833C12.7453 157.066 15.6809 156.614 19.0004 156.524C19.4295 156.501 19.8811 156.501 20.3553 156.501ZM16.3583 144.924C13.5582 144.924 11.0742 145.601 9.15481 147.158C6.76115 149.099 5.65465 150.837 5.81272 152.53C5.92563 153.771 6.71598 154.967 7.98055 156.095C11.8194 152.868 17.3068 150.86 23.7651 150.363C26.8814 150.137 29.9976 150.273 33.001 150.724C27.5362 147.204 21.4618 144.924 16.3583 144.924Z" fill="#593D3D"/>
<path d="M25.6621 170.584C25.6621 169.14 26.5428 167.447 27.6267 166.838C28.1009 166.567 28.5526 166.544 28.8913 166.747L29.9074 167.334L29.5687 168.079C29.5687 168.169 29.5913 168.259 29.5913 168.35C29.5913 169.726 28.7784 171.284 27.7848 171.983L27.4009 172.818L26.3621 172.231C25.9331 171.938 25.6621 171.374 25.6621 170.584Z" fill="#352221"/>
<path d="M30.6526 168.891C30.6526 170.336 29.7719 172.028 28.688 172.637C27.6041 173.269 26.7234 172.592 26.7234 171.148C26.7234 169.704 27.6041 168.011 28.688 167.402C29.7719 166.792 30.6526 167.447 30.6526 168.891Z" fill="#472F2E"/>
<path d="M30.5398 169.455C30.5398 170.539 29.885 171.802 29.072 172.276C28.2591 172.75 27.6042 172.254 27.6042 171.171C27.6042 170.087 28.2591 168.823 29.072 168.35C29.885 167.876 30.5398 168.372 30.5398 169.455Z" fill="#5B3D3D"/>
<path d="M29.7495 169.726C29.7495 169.546 29.8624 169.32 29.9979 169.252C30.0431 169.23 30.0882 169.207 30.1334 169.23L32.5045 170.606C32.6851 170.719 32.7529 170.945 32.64 171.125C32.5271 171.306 32.3012 171.374 32.1206 171.261L29.8398 169.929C29.7721 169.884 29.7495 169.817 29.7495 169.726Z" fill="#EDDDDD"/>
<path d="M28.3945 171.08C28.3945 170.9 28.5074 170.674 28.6429 170.606C28.6881 170.584 28.7333 170.561 28.7784 170.584L31.1495 171.96C31.3302 172.073 31.3979 172.299 31.285 172.479C31.1721 172.66 30.9463 172.728 30.7656 172.615L28.4849 171.283C28.4171 171.238 28.3945 171.193 28.3945 171.08Z" fill="#EDDDDD"/>
<path d="M87.4004 66.0046V116.421C87.4004 116.94 88.2133 117.369 89.2069 117.369C90.2005 117.369 91.0134 116.94 91.0134 116.421V66.0046H87.4004Z" fill="#3D2828"/>
<path d="M89.1845 65.0569C88.1909 65.0569 87.3779 65.4857 87.3779 66.0047C87.3779 66.5238 88.1909 66.9526 89.1845 66.9526C90.1781 66.9526 90.991 66.5238 90.991 66.0047C90.991 65.4857 90.1781 65.0569 89.1845 65.0569Z" fill="#593D3D"/>
<path d="M87.8972 65.8469H90.4263V52.4417C90.4263 47.7702 87.5358 42.3088 83.9905 40.2551L70.5771 32.5144C68.7705 31.4763 66.9866 31.3635 65.5188 32.221C63.8251 33.1914 62.8767 35.2902 62.8767 37.9984V99.8113H65.4058V38.0209C65.4058 36.2832 65.9252 34.9292 66.7833 34.4327C67.4382 34.0716 68.3414 34.1844 69.3125 34.726L82.726 42.4668C85.5261 44.0917 87.8972 48.6503 87.8972 52.4643V65.8469Z" fill="white"/>
<path d="M89.1618 66.524C89.8602 66.524 90.4263 66.2209 90.4263 65.847C90.4263 65.473 89.8602 65.1699 89.1618 65.1699C88.4634 65.1699 87.8972 65.473 87.8972 65.847C87.8972 66.2209 88.4634 66.524 89.1618 66.524Z" fill="white"/>
<path d="M95.6199 120.777C95.6199 120.777 95.6199 126.012 93.136 127.57C90.5843 129.149 85.4131 118.385 85.4131 118.385L95.1457 119.513L95.6199 120.777Z" fill="#2B1B1A"/>
<path d="M55.1086 152.778C55.1086 150.115 56.7345 147 58.7443 145.85C59.2411 145.556 59.8508 145.398 60.325 145.398C60.7089 145.398 61.6573 145.443 62.6509 146.053C63.8026 146.752 63.9381 148.355 63.9381 148.355L59.8734 156.705C59.8734 156.705 58.5636 157.359 57.2087 156.614C56.3732 156.163 55.8538 155.396 55.628 154.967C55.5377 154.786 55.3796 154.403 55.3345 154.267C55.199 153.861 55.1086 153.365 55.1086 152.778Z" fill="#281818"/>
<path d="M64.0286 149.55C64.0286 152.213 62.4027 155.328 60.393 156.479C58.3832 157.63 56.7573 156.411 56.7573 153.748C56.7573 151.085 58.3832 147.971 60.393 146.82C62.4027 145.646 64.0286 146.865 64.0286 149.55Z" fill="#3F2A28"/>
<path d="M62.6734 150.589C62.6734 152.056 61.7927 153.748 60.6862 154.38C59.5797 155.012 58.699 154.335 58.699 152.891C58.699 151.424 59.5797 149.731 60.6862 149.099C61.7927 148.467 62.6734 149.144 62.6734 150.589Z" fill="white"/>
<path d="M62.3349 145.737H59.9639V152.62C59.9639 153.071 60.0994 153.387 60.3252 153.545L61.1381 153.974L61.8607 153.116L61.6575 153.026C62.0414 152.552 62.3124 151.875 62.3124 151.243V145.737H62.3349Z" fill="#C6ADAC"/>
<path d="M60.6863 145.737V153.004C60.6863 153.884 61.2057 154.267 61.8605 153.906C62.5154 153.523 63.0348 152.53 63.0348 151.65V145.759H60.6863V145.737Z" fill="#DBC7C6"/>
<path d="M24.7588 134.927C24.7588 132.264 26.3847 129.149 28.3944 127.998C28.8912 127.705 29.5009 127.547 29.9752 127.547C30.359 127.547 31.3075 127.592 32.3011 128.201C33.4527 128.901 33.5882 130.503 33.5882 130.503L29.5235 138.853C29.5235 138.853 28.2138 139.508 26.8589 138.763C26.0234 138.312 25.504 137.544 25.2782 137.116C25.1878 136.935 25.0298 136.551 24.9846 136.416C24.8491 136.01 24.7588 135.513 24.7588 134.927Z" fill="#281818"/>
<path d="M33.656 131.677C33.656 134.34 32.0302 137.454 30.0204 138.605C28.0106 139.756 26.3848 138.538 26.3848 135.875C26.3848 133.212 28.0106 130.097 30.0204 128.946C32.0528 127.795 33.656 129.014 33.656 131.677Z" fill="#3F2A28"/>
<path d="M32.3237 132.737C32.3237 134.204 31.443 135.897 30.3365 136.529C29.23 137.161 28.3494 136.484 28.3494 135.039C28.3494 133.572 29.23 131.88 30.3365 131.248C31.443 130.616 32.3237 131.27 32.3237 132.737Z" fill="white"/>
<path d="M31.9624 127.863H29.5913V134.746C29.5913 135.197 29.7268 135.513 29.9526 135.671L30.7656 136.1L31.4882 135.242L31.2849 135.152C31.6688 134.678 31.9398 134.001 31.9398 133.369V127.863H31.9624Z" fill="#C6ADAC"/>
<path d="M30.3364 127.863V135.13C30.3364 136.01 30.8558 136.393 31.5107 136.032C32.1656 135.671 32.6849 134.656 32.6849 133.776V127.885H30.3364V127.863Z" fill="#DBC7C6"/>
<path d="M81.6194 132.806C81.6194 128.382 84.3066 123.237 87.6261 121.319C88.4616 120.845 89.4552 120.596 90.2456 120.596C90.8779 120.596 92.4586 120.664 94.1071 121.68C96.0039 122.853 96.2298 125.742 96.2298 125.742L89.5004 139.373C89.5004 139.373 87.3325 140.433 85.097 139.215C83.6969 138.447 82.8614 137.206 82.4775 136.507C82.3194 136.191 82.0484 135.581 81.9807 135.356C81.7548 134.611 81.6194 133.776 81.6194 132.806Z" fill="#281818"/>
<path d="M96.388 127.435C96.388 131.858 93.7007 137.003 90.3812 138.921C87.0617 140.84 84.3745 138.809 84.3745 134.385C84.3745 129.962 87.0617 124.817 90.3812 122.898C93.7007 120.98 96.388 123.011 96.388 127.435Z" fill="#3F2A28"/>
<path d="M94.1748 129.172C94.1748 131.587 92.707 134.408 90.8779 135.468C89.0488 136.529 87.5811 135.401 87.5811 132.986C87.5811 130.571 89.0488 127.75 90.8779 126.69C92.6845 125.651 94.1748 126.757 94.1748 129.172Z" fill="white"/>
<path d="M93.8811 129.984C93.8811 131.632 92.8649 133.573 91.6229 134.295C90.3809 135.017 89.3647 134.25 89.3647 132.602C89.3647 130.955 90.3809 129.014 91.6229 128.292C92.8875 127.547 93.8811 128.314 93.8811 129.984Z" fill="#3F2A28"/>
<path d="M58.27 49.8238C58.1797 49.8238 58.1119 49.8238 58.0216 49.8012C56.8022 49.6658 55.8989 48.56 56.0344 47.3413C56.2151 45.6036 56.4183 43.8885 56.6215 42.241C57.57 33.9135 58.4958 26.0374 57.3667 23.1939C55.8538 19.3122 51.4278 9.42755 51.3826 9.31471C50.8858 8.18632 54.9731 6.35834 55.4699 7.48673C55.6505 7.89295 59.9862 17.5745 61.5443 21.5464C63.0799 25.4281 62.1992 33.0785 61.0701 42.7375C60.8895 44.385 60.6862 46.0775 60.5056 47.8153C60.3701 48.9662 59.3991 49.8238 58.27 49.8238Z" fill="white"/>
<path d="M82.6132 131.903L81.2357 126.87L59.6025 114.39C55.7411 112.156 49.8247 111.908 46.4826 113.848L29.0947 123.891V123.71H23.2913V129.51H23.3138C23.4493 130.91 24.5107 132.354 26.4978 133.505L50.6828 147.474C54.5442 149.708 60.4606 149.957 63.8027 148.016L82.6584 137.138C82.4777 136.394 82.3874 135.559 82.3874 134.656C82.3648 133.731 82.4551 132.805 82.6132 131.903Z" fill="#352221"/>
<path d="M57.7958 102.497C56.8022 102.723 55.899 103.039 55.1312 103.467L25.5267 120.596C22.1846 122.537 22.6136 125.945 26.4751 128.157L50.66 142.126C54.5215 144.36 60.4379 144.608 63.7799 142.668L82.6356 131.903C82.6356 130.391 84.8486 118.994 85.2099 118.475L57.6603 102.565L57.7958 102.497Z" fill="#472F2E"/>
<path d="M57.1636 102.316L60.1444 88.1663L57.1636 86.4512C57.1636 86.4512 55.0635 87.6698 50.8407 90.1072C46.618 92.5445 45.5115 92.6799 42.5533 98.9086C40.0241 104.257 37.4272 112.043 36.7498 114.097L39.7306 115.812L57.1636 102.316Z" fill="#593D3D"/>
<path d="M60.167 104.031V88.1663C60.167 88.1663 58.0669 89.3849 53.8441 91.8222C49.6214 94.2595 48.5149 94.3949 45.5567 100.624C43.0275 105.972 40.4306 113.758 39.7532 115.812L60.167 104.031Z" fill="#352221"/>
<path d="M55.5826 105.904C44.2015 105.904 34.9656 101.007 34.9656 94.9365V124.117C34.9656 130.165 44.2015 135.085 55.5826 135.085C66.9638 135.085 76.1996 130.187 76.1996 124.117V94.9591C76.1996 101.007 66.9638 105.904 55.5826 105.904Z" fill="white"/>
<path d="M34.9656 94.9593C34.9656 101.007 44.2015 105.927 55.5826 105.927C66.9638 105.927 76.1996 101.03 76.1996 94.9593V65.8921H34.9656V94.9593Z" fill="#352221"/>
<path d="M34.9656 91.8447C34.9656 97.8929 44.2015 102.813 55.5826 102.813C66.9638 102.813 76.1996 97.9154 76.1996 91.8447V62.8H34.9656V91.8447Z" fill="#4DBAF2"/>
<path d="M55.5826 124.094C44.2015 124.094 34.9656 119.197 34.9656 113.126V114.887C34.9656 120.935 44.2015 125.854 55.5826 125.854C66.9638 125.854 76.1996 120.957 76.1996 114.887V113.126C76.1996 119.197 66.9638 124.094 55.5826 124.094Z" fill="#CCB5B4"/>
<path d="M55.5826 117.73C44.2015 117.73 34.9656 112.833 34.9656 106.762V108.522C34.9656 114.571 44.2015 119.49 55.5826 119.49C66.9638 119.49 76.1996 114.593 76.1996 108.522V106.762C76.1996 112.833 66.9638 117.73 55.5826 117.73Z" fill="#CCB5B4"/>
<path d="M86.4517 117.685L95.6199 108.545L92.6391 106.83C92.6391 106.83 90.539 108.048 86.3163 110.486C82.0935 112.923 80.987 113.059 78.0288 119.287C75.4997 124.636 72.9028 132.422 72.2253 134.475L75.2061 136.19L81.5289 131.293L86.4517 117.685Z" fill="#593D3D"/>
<path d="M76.5838 50.2527C76.5838 50.185 76.5613 50.1173 76.5613 50.0496V50.4332C76.5613 50.3881 76.5838 50.3204 76.5838 50.2527Z" fill="#352221"/>
<path d="M43.5693 93.4249L34.4463 88.1441V79.2073L43.5693 84.4881V93.4249Z" fill="#3D2828"/>
<path d="M37.7432 77.3567L34.4463 79.2072L43.5693 84.4881L46.8662 82.6375L37.7432 77.3567Z" fill="#593D3D"/>
<path d="M43.5693 84.488V93.4249L46.8663 91.5743V82.6375L43.5693 84.488Z" fill="#352221"/>
<path d="M89.7941 120.393C92.1426 119.039 94.2427 119.287 95.6201 120.777V108.545C95.6201 108.545 93.52 109.764 89.2973 112.201C85.0745 114.638 83.968 114.774 81.0098 121.003C78.4807 126.351 75.8837 134.137 75.2063 136.191L82.5905 131.925C83.4712 127.164 86.3617 122.379 89.7941 120.393Z" fill="#352221"/>
<path d="M22.907 113.6C21.0553 113.6 17.9391 112.336 16.268 104.731C14.597 97.1935 18.2552 88.1213 21.8005 79.3425C24.9394 71.534 28.2137 63.4774 27.6718 56.7071L27.5363 55.0822C26.0233 35.5611 24.4426 15.3856 31.2397 7.08063C36.5915 0.535992 41.6272 -0.321582 44.9242 0.0846366C49.0792 0.626262 52.76 3.51493 54.7472 7.82536C55.0859 8.5701 52.3761 9.81132 52.0374 9.06658C50.5018 5.74913 47.634 3.42466 44.5403 3.04101C40.9046 2.56708 37.0883 4.62075 33.543 8.95375C27.4911 16.3334 29.0267 35.9222 30.4945 54.8339L30.63 56.4588C31.2171 63.9287 27.8298 72.3239 24.5329 80.4483C21.0102 89.182 17.6681 97.4418 19.1359 104.077C20.2198 109.019 21.8457 110.644 22.9296 110.621C24.5781 110.508 26.7008 107.236 27.1072 102.678C28.4395 87.8505 37.4948 85.1424 37.8787 85.0295C38.669 84.8039 39.5045 85.2778 39.7078 86.0677C39.9336 86.8575 39.482 87.67 38.6916 87.8956C38.3529 87.9859 31.2171 90.2878 30.0654 102.948C29.5461 108.793 26.5427 113.375 23.1103 113.578C23.0877 113.578 22.9974 113.6 22.907 113.6Z" fill="#593D3D"/>
<path d="M43.1177 136.416L33.9722 131.158V115L43.1177 120.258V136.416Z" fill="#3D2828"/>
<path d="M37.2691 113.149L33.9722 114.999L43.1177 120.258L46.4146 118.407L37.2691 113.149Z" fill="#593D3D"/>
<path d="M43.1174 120.258V136.416L46.4143 134.565V118.407L43.1174 120.258Z" fill="#352221"/>
<path d="M43.6369 143.909C42.7336 143.909 41.8303 143.773 40.9271 143.503C35.8688 141.991 33.9268 139.079 33.2042 136.913C31.917 133.122 33.0912 128.111 36.3882 123.508C36.8624 122.831 37.7882 122.673 38.4657 123.169C39.1431 123.643 39.2786 124.591 38.8044 125.245C36.7043 128.179 34.8526 132.535 36.0043 135.942C36.7495 138.132 38.6915 139.711 41.7626 140.637C43.6143 141.201 45.4434 140.93 47.1822 139.847C50.8179 137.635 53.618 132.377 54.9051 125.426C56.4858 116.805 55.718 97.8933 55.1987 85.3908C55.018 81.0126 54.8825 77.5598 54.8825 75.5512C54.8825 74.7388 55.56 74.0618 56.3729 74.0618C57.1859 74.0618 57.8633 74.7388 57.8633 75.5512C57.8633 77.5146 57.9988 80.9449 58.1795 85.2779C58.6988 97.9159 59.4666 117.031 57.8407 125.968C56.4181 133.753 53.0986 139.734 48.7403 142.397C47.137 143.412 45.3982 143.909 43.6369 143.909Z" fill="#593D3D"/>
<path d="M78.7288 64.8314V62.191H78.0965C75.6803 56.7747 66.5347 52.7351 55.5826 52.7351C44.6305 52.7351 35.4849 56.7747 33.0687 62.191H32.4138V65.0345C32.4138 71.8274 42.7788 77.3565 55.5826 77.3565C68.3638 77.3565 78.7514 71.85 78.7514 65.0345C78.7514 64.9668 78.7288 64.8991 78.7288 64.8314Z" fill="#352221"/>
<path d="M55.5826 49.395C42.8014 49.395 32.4138 54.9015 32.4138 61.717C32.4138 68.5099 42.7788 74.039 55.5826 74.039C68.3638 74.039 78.7514 68.5324 78.7514 61.717C78.7514 54.9015 68.3638 49.395 55.5826 49.395Z" fill="#472F2E"/>
<path d="M55.5824 66.7043C44.6303 66.7043 35.7105 62.1682 35.0331 56.436H34.9879C34.9879 56.6165 34.9653 56.7745 34.9653 56.9325V61.0398H35.0331C35.7105 66.772 44.6303 71.3081 55.5824 71.3081C66.9635 71.3081 76.1994 66.4109 76.1994 60.3402V56.9099C76.1994 56.6391 76.1768 56.3908 76.1543 56.1426C75.7478 62.0102 66.6925 66.7043 55.5824 66.7043Z" fill="#4DBAF2"/>
<path d="M58.0643 38.8108H53.0963C43.2959 38.8108 35.2794 46.6869 34.9858 56.4136H35.031C35.7085 62.1458 44.6282 66.6819 55.5803 66.6819C66.6905 66.6819 75.7457 61.9878 76.1522 56.1428C75.7457 46.5515 67.7744 38.8108 58.0643 38.8108Z" fill="#352221"/>
<path d="M58.6989 141.562C60.6818 141.562 62.2893 140.703 62.2893 139.643C62.2893 138.584 60.6818 137.725 58.6989 137.725C56.7159 137.725 55.1084 138.584 55.1084 139.643C55.1084 140.703 56.7159 141.562 58.6989 141.562Z" fill="#3D2828"/>
<path d="M29.2975 122.108C27.3103 122.108 25.707 122.966 25.707 124.027C25.707 125.087 27.3103 125.945 29.2975 125.945C31.2847 125.945 32.888 125.087 32.888 124.027C32.888 122.966 31.2847 122.108 29.2975 122.108Z" fill="#3D2828"/>
<path d="M67.4157 46.5742L45.8728 59.009C48.6052 60.1826 52.0602 60.8822 55.8539 60.8822C64.6607 60.8822 71.7965 57.0908 71.7965 52.4193C71.7965 50.1399 70.1255 48.1088 67.4157 46.5742Z" fill="#472F2E"/>
<path d="M45.895 59.0087C45.895 59.0087 45.895 51.7194 55.5826 46.5739C64.1636 42.0153 67.4379 46.5739 67.4379 46.5739L45.895 59.0087Z" fill="#3D2828"/>
<path d="M53.2343 56.7749C52.4439 56.7749 51.7891 57.1134 51.7891 57.5422C51.7891 57.971 52.4439 58.3095 53.2343 58.3095C54.0246 58.3095 54.6795 57.971 54.6795 57.5422C54.6795 57.1134 54.0246 56.7749 53.2343 56.7749Z" fill="#C6ADAC"/>
<path d="M57.4797 54.3147C56.6893 54.3147 56.0344 54.6532 56.0344 55.082C56.0344 55.5108 56.6893 55.8493 57.4797 55.8493C58.27 55.8493 58.9249 55.5108 58.9249 55.082C58.9249 54.6758 58.2926 54.3147 57.4797 54.3147Z" fill="#C6ADAC"/>
<path d="M61.725 53.3896C62.5232 53.3896 63.1703 53.0461 63.1703 52.6223C63.1703 52.1985 62.5232 51.855 61.725 51.855C60.9268 51.855 60.2798 52.1985 60.2798 52.6223C60.2798 53.0461 60.9268 53.3896 61.725 53.3896Z" fill="#C6ADAC"/>
<path d="M65.9931 49.3953C65.2028 49.3953 64.5479 49.7338 64.5479 50.1626C64.5479 50.5914 65.2028 50.9299 65.9931 50.9299C66.7835 50.9299 67.4383 50.5914 67.4383 50.1626C67.4158 49.7338 66.7835 49.3953 65.9931 49.3953Z" fill="#C6ADAC"/>
<path d="M70.0574 53.4573L59.4893 59.5505L57.2537 58.2642L67.8219 52.1709L70.0574 53.4573Z" fill="#C6ADAC"/>
</svg>
