<svg width="592" height="181" fill="none" xmlns="http://www.w3.org/2000/svg"><path d="M548.87 135.049v7.163c0 .879 1.338 1.581 2.973 1.581 1.649 0 2.973-.702 2.973-1.581v-7.163h-5.946zm32.625-19.029v7.163c0 .879 1.338 1.582 2.973 1.582 1.649 0 2.973-.703 2.973-1.582v-7.163h-5.946zM452.198 79.692v7.163c0 .879 1.338 1.581 2.973 1.581 1.649 0 2.973-.702 2.973-1.58v-7.164h-5.946z" fill="#352221"/><path d="M540.437 44.148l-38.612-22.164c-.649-.365-1.244-.46-1.757-.325l-.055-.067s-1.878-.19-3.662 1.216c-1.784 1.405-2.973 3.352-2.973 3.352l5.122 4.176v21.191c0 2.446 1.5 5.312 3.338 6.366l38.612 22.164c1.838 1.054 3.338-.081 3.338-2.514v-27.03c-.027-2.432-1.527-5.297-3.351-6.365z" fill="#15ABEB"/><path d="M538.207 76.462s-.5 1.784-2.528 2.96c-3.23 1.865-4.743 1.446-4.743 1.446l-.392-6.393 5.73-1.513 1.933 3.5z" fill="#15ABEB"/><path d="M535.031 83.341l-38.612-22.164c-1.839-1.054-3.339-3.92-3.339-6.366v-27.03c0-2.446 1.5-3.581 3.339-2.513l38.612 22.164c1.838 1.054 3.338 3.92 3.338 6.366v27.03c-.014 2.446-1.514 3.58-3.338 2.513z" fill="#0B8EC7"/><path d="M586.712 70.772L548.1 48.608c-.649-.365-1.244-.46-1.757-.325l-.054-.067s-1.879-.19-3.663 1.216c-1.784 1.406-2.973 3.352-2.973 3.352l5.122 4.176v21.191c0 2.447 1.5 5.312 3.338 6.366l38.612 22.164c1.838 1.055 3.338-.081 3.338-2.513v-27.03c-.013-2.446-1.513-5.312-3.351-6.366z" fill="#15ABEB"/><path d="M584.482 103.086s-.501 1.784-2.528 2.96c-3.23 1.865-4.743 1.446-4.743 1.446l-.392-6.392 5.73-1.514 1.933 3.5z" fill="#15ABEB"/><path d="M581.306 109.965l-38.612-22.164c-1.838-1.054-3.339-3.92-3.339-6.365v-27.03c0-2.447 1.501-3.582 3.339-2.514l38.612 22.164c1.838 1.055 3.338 3.92 3.338 6.366v27.03c0 2.432-1.5 3.568-3.338 2.513z" fill="#0B8EC7"/><path d="M493.175 28.498s-1.189-1.947-2.973-3.352c-1.784-1.406-3.663-1.216-3.663-1.216l-.054.067c-.514-.135-1.108-.04-1.757.325l-33.409 19.285c-1.838 1.054-3.338 3.92-3.338 6.366v27.03c0 .716.149 1.31.378 1.784l-.013.013s.5 1.784 2.527 2.96c3.23 1.865 4.744 1.446 4.744 1.446l.392-6.392 28.719-16.583c1.838-1.055 3.338-3.92 3.338-6.366V32.674l5.109-4.176z" fill="#15ABEB"/><path d="M456.725 82.8l33.409-19.285c1.838-1.054 3.338-3.92 3.338-6.366V30.12c0-2.446-1.5-3.581-3.338-2.513L456.725 46.89c-1.838 1.055-3.338 3.92-3.338 6.366v27.03c0 2.446 1.5 3.581 3.338 2.514z" fill="#1798CF"/><path d="M580.292 109.06L500.27 60.866c-1.865-1.081-5.149-.933-7.298.297L468.078 75.53l-10.272-6.055c-2.202 2.162-2.621 6.811-2.621 10.325 0 3.528 1.081 4.42 2.838 5.433l81.738 47.194c1.865 1.082 5.149.933 7.298-.297l32.706-18.88c2.149-1.23 2.392-3.122.527-4.19z" fill="#0B8EC7"/><path d="M458.023 73.178l81.738 47.194c1.865 1.081 5.149.933 7.298-.297l32.706-18.881c2.149-1.243 2.379-3.135.527-4.216l-81.738-47.194c-1.865-1.081-5.149-.933-7.298.297l-32.706 18.88c-2.149 1.244-2.379 3.15-.527 4.217z" fill="#15ABEB"/><g opacity=".5"><path opacity=".5" d="M530.017 74.989l-27.138 15.664c-2.068 1.19-5.717 1.04-8.096-.338l-30.246-17.461c-2.392-1.379-2.649-3.487-.581-4.677l27.138-15.663c2.067-1.19 5.716-1.041 8.095.338l30.246 17.46c2.379 1.38 2.649 3.488.582 4.677z" fill="#99C7FF"/><path opacity=".5" d="M525.759 73.543l-23.637 13.65c-1.798 1.04-4.974.905-7.055-.297l-26.341-15.218c-2.081-1.203-2.311-3.028-.5-4.068l23.638-13.65c1.797-1.04 4.973-.906 7.055.297l26.34 15.218c2.068 1.203 2.298 3.027.5 4.068z" fill="#B3D9FF"/><path opacity=".5" d="M496.797 69.15c-1.581 0-2.865.676-2.865 1.528 0 .838 1.284 1.527 2.865 1.527 1.581 0 2.865-.676 2.865-1.527-.014-.852-1.284-1.528-2.865-1.528z" fill="#1798CF"/><path opacity=".5" d="M495.094 55.987s-.27 1.42.27 4.433c.527 3.014 1.257 6.46 1.257 6.46s.446-3.892.189-6.379c-.284-2.473-1.716-4.514-1.716-4.514zm7.528 14.299s3.811-2.284 8.325-2.473c4.514-.176 10.271 1.594 10.271 1.594s-7.271-.946-10.271-.648c-3.014.297-8.325 1.527-8.325 1.527zm-30.855-1.582s3.974-1.986 8.501-1.81c4.514.175 10.123 2.392 10.123 2.392s-7.163-1.514-10.19-1.46c-3.041.068-8.434.879-8.434.879zm25.381 5.65s-.473 2.27-.162 5.636c.243 2.594 1.379 5.581 1.379 5.581s-.068-3.054-.176-6.73c-.081-3.19-1.041-4.487-1.041-4.487z" fill="#15ABEB"/></g><g opacity=".57"><path opacity=".57" d="M573.494 100.667l-27.138 15.664c-2.068 1.189-5.717 1.041-8.095-.338l-30.247-17.461c-2.392-1.379-2.649-3.487-.581-4.676l27.138-15.664c2.068-1.19 5.717-1.04 8.095.338l30.247 17.461c2.378 1.379 2.649 3.487.581 4.676z" fill="#99C7FF"/><path opacity=".57" d="M569.237 99.221l-23.638 13.65c-1.798 1.041-4.974.906-7.055-.297l-26.34-15.218c-2.082-1.203-2.311-3.027-.5-4.068l23.637-13.65c1.798-1.04 4.974-.905 7.055.297l26.34 15.218c2.068 1.19 2.298 3.027.501 4.068z" fill="#B3D9FF"/><path opacity=".57" d="M540.274 94.829c-1.581 0-2.865.676-2.865 1.527 0 .838 1.284 1.527 2.865 1.527 1.581 0 2.865-.675 2.865-1.527-.013-.851-1.284-1.527-2.865-1.527z" fill="#1798CF"/><path opacity=".57" d="M538.571 81.665s-.27 1.42.271 4.433c.527 3.014 1.257 6.46 1.257 6.46s.446-3.892.189-6.379c-.284-2.486-1.717-4.514-1.717-4.514zm7.528 14.299s3.811-2.284 8.325-2.473c4.514-.176 10.272 1.595 10.272 1.595s-7.271-.947-10.272-.65c-3.014.298-8.325 1.528-8.325 1.528zm-30.854-1.594s3.973-1.988 8.501-1.812c4.513.176 10.122 2.392 10.122 2.392s-7.163-1.513-10.19-1.46c-3.027.055-8.433.88-8.433.88zm25.381 5.662s-.473 2.271-.162 5.636c.243 2.595 1.378 5.581 1.378 5.581s-.067-3.054-.175-6.73c-.095-3.203-1.041-4.487-1.041-4.487z" fill="#15ABEB"/></g><path d="M536.436 74.354s-11.812 5.487-18.84 9.555c-7.028 4.054-17.191 11.771-17.191 11.771s11.42-6.852 18.178-10.42c6.771-3.581 17.853-10.906 17.853-10.906z" fill="#1798CF"/><path d="M494.567 49.054c.095 3.716 4 7.609 5.568 8.852 3.163 2.514 6.717 4.257 10.231 6.244 3.73 2.108 10.488 3.946 15.65 1.608 3.487-1.581 4.501-6.257 4.663-8.338.176-2.271-.379-4.339-.703-6.555 2.757-.568 4.041-1.392 3.676-2.487-.405-1.19-1.446-1.338-4-1.27-.365-3.041-1.325-4.65-2.906-7.001-1.23-.825-2.5-1.595-3.676-2.365-5.568-3.703-11.366-7.177-17.123-10.569-2.352-1.378-6.852-3.311-9.596-3.297-.743-.582-1.879-1.23-3.244-1-2.311.378-2.675 2.46-1.648 3.892-1.311 2.351-2.217 11.582-2.163 13.082.027.973.298 2.541.663 4.338 1.067 1.92 2.5 3.5 4.608 4.866z" fill="#F9423E"/><path d="M490.35 54c.487 1.284 2.636 1.433 3.92 1.15 3.973 5.986 10.676 10.987 17.082 13.73 3.731 1.609 13.448 3.73 17.651 2.892.865 1.73 2.797 2.69 3.825 2 1.405-.918.919-2.337.675-3.689 1.284-1 2.893-1.69 3.933-8.514.379-2.447.271-9.38-1.649-11.272.582-.77 1.595-3.054.73-3.973-1.081-1.162-3.297-1.054-4.527-1.014-1.081-2.135-3.109-3.757-5.271-5.203 1.581 2.352 2.541 3.96 2.906 7 2.567-.053 3.595.082 4 1.271.378 1.081-.905 1.906-3.676 2.487.324 2.203.878 4.284.703 6.555-.162 2.067-1.176 6.757-4.663 8.338-5.163 2.352-11.92.514-15.65-1.608-3.514-1.987-7.068-3.73-10.231-6.244-1.568-1.243-5.473-5.136-5.568-8.852-2.108-1.365-3.555-2.946-4.636-4.852.419 2.027.96 4.338 1.46 6.433-.324 1.135-1.581 1.865-1.014 3.365zm5.555-29.273c-.365-.365-.878-.662-1.405-.622-.163.014-.284.217-.149.338.432.406.905.703 1.243 1.203.162.243.527.676.798.284.283-.392-.217-.933-.487-1.203zm-1.946 1.878c-.5.136-.946.379-1.271.811-.202.27-.608.906-.337 1.244.216.257.5.08.621-.162.325-.582.554-1.082 1.162-1.433.271-.149.109-.527-.175-.46z" fill="#E52C2C"/><path d="M492.743 44.23c-.163-.487-.528-.852-.69-1.339-.162-.486-.081-1-.216-1.486-.027-.095-.162-.15-.243-.068-.662.824-.081 2.797.932 3.108.122.04.257-.08.217-.216zm3.486 3.27c-.216-.487-.581-.865-.784-1.379-.175-.46-.189-.96-.351-1.433-.041-.108-.162-.108-.216-.027-.69.947-.027 2.852 1.013 3.271.271.108.419-.216.338-.432zm29.679 10.771c-.108-.095-.257-.027-.27.108-.054.568.108 1.068-.041 1.635-.121.487-.473.852-.513 1.352-.014.162.175.284.311.243 1.094-.338 1.283-2.622.513-3.338zm-2.378 6.014c-.609-.067-1.217-.013-1.811-.176-.595-.175-1.068-.527-1.609-.824-.094-.054-.216.04-.189.149.392 1.365 2.581 2.162 3.73 1.338.23-.15.149-.46-.121-.487z" fill="#E52C2C"/><path opacity=".5" d="M503.311 30.011c-2.446-1.04-6.028-2.716-8.46-1.094-4.339 2.905 1.649 9.582 4.784 11.258 3.23 1.716 12.623 5.433 14.069-.663.933-3.878-9.123-8.96-10.393-9.5z" fill="#FF6464"/><path d="M538.531 74.638c.095 3.716 4 7.609 5.568 8.852 3.163 2.514 6.717 4.257 10.231 6.244 3.73 2.108 10.487 3.946 15.65 1.608 3.487-1.581 4.501-6.257 4.663-8.339.175-2.27-.379-4.338-.703-6.554 2.757-.568 4.041-1.392 3.676-2.487-.405-1.19-1.446-1.338-4-1.27-.365-3.041-1.325-4.65-2.906-7.001-1.23-.825-2.5-1.595-3.676-2.365-5.568-3.703-11.366-7.177-17.124-10.569-2.351-1.378-6.852-3.311-9.595-3.298-.743-.58-1.879-1.23-3.244-1-2.311.379-2.676 2.46-1.648 3.893-1.311 2.351-2.217 11.582-2.163 13.082.027.973.297 2.54.662 4.338 1.055 1.906 2.501 3.5 4.609 4.866z" fill="#F9423E"/><path d="M534.314 79.584c.487 1.284 2.636 1.433 3.92 1.149 3.973 5.987 10.676 10.987 17.083 13.731 3.73 1.608 13.447 3.73 17.65 2.892.865 1.73 2.798 2.69 3.825 2 1.405-.919.919-2.338.676-3.69 1.283-1 2.892-1.688 3.932-8.513.379-2.447.271-9.38-1.649-11.272.582-.77 1.595-3.054.73-3.973-1.081-1.163-3.297-1.055-4.527-1.014-1.081-2.135-3.109-3.757-5.271-5.203 1.581 2.351 2.541 3.96 2.906 7 2.568-.053 3.595.082 4 1.27.379 1.082-.905 1.907-3.676 2.488.324 2.203.879 4.284.703 6.554-.162 2.068-1.176 6.758-4.663 8.34-5.163 2.35-11.92.5-15.65-1.61-3.514-1.986-7.068-3.73-10.231-6.243-1.568-1.243-5.473-5.15-5.568-8.852-2.108-1.365-3.554-2.947-4.636-4.852.419 2.027.96 4.338 1.46 6.433-.324 1.122-1.595 1.852-1.014 3.365zm5.542-29.287c-.365-.365-.879-.662-1.406-.621-.162.013-.284.216-.149.337.433.406.906.703 1.244 1.203.162.244.527.676.797.284.284-.378-.216-.932-.486-1.203zm-1.933 1.893c-.5.134-.946.378-1.271.81-.202.27-.608.906-.337 1.243.216.257.5.082.621-.162.325-.58.554-1.08 1.163-1.432.256-.149.094-.54-.176-.46z" fill="#E52C2C"/><path d="M536.693 69.813c-.162-.487-.527-.852-.689-1.338-.162-.487-.081-1-.217-1.487-.027-.094-.162-.148-.243-.067-.662.824-.081 2.797.933 3.108.121.04.27-.094.216-.216zm3.487 3.27c-.217-.486-.581-.864-.784-1.378-.176-.46-.189-.96-.352-1.433-.04-.108-.162-.108-.216-.027-.689.946-.027 2.852 1.014 3.27.27.109.432-.229.338-.432zm29.679 10.758c-.109-.094-.257-.027-.271.109-.054.567.108 1.067-.04 1.635-.122.486-.473.851-.514 1.351-.013.162.176.284.311.243 1.095-.324 1.297-2.608.514-3.338zm-2.365 6.028c-.608-.067-1.217-.013-1.811-.176-.595-.175-1.068-.527-1.609-.824-.094-.054-.216.04-.189.149.392 1.365 2.582 2.162 3.73 1.338.217-.163.135-.46-.121-.487z" fill="#E52C2C"/><path opacity=".5" d="M547.262 55.582c-2.446-1.041-6.028-2.717-8.461-1.081-4.338 2.905 1.649 9.582 4.785 11.257 3.23 1.717 12.623 5.433 14.069-.662.932-3.879-9.123-8.974-10.393-9.514z" fill="#FF6464"/><path d="M589.861 84.53s-1.19-1.945-2.974-3.351c-1.784-1.406-3.662-1.216-3.662-1.216l-.054.067c-.514-.135-1.108-.04-1.757.325L548.005 99.64c-1.838 1.054-3.338 3.92-3.338 6.366v27.03c0 .716.148 1.311.378 1.784l-.013.013s.5 1.784 2.527 2.96c3.23 1.865 4.744 1.446 4.744 1.446l.392-6.393 28.719-16.582c1.838-1.055 3.338-3.92 3.338-6.366V88.707l5.109-4.176z" fill="#15ABEB"/><path d="M553.397 138.847l33.409-19.286c1.838-1.054 3.338-3.919 3.338-6.365v-27.03c0-2.446-1.5-3.581-3.338-2.514l-33.409 19.286c-1.838 1.054-3.338 3.919-3.338 6.365v27.03c.014 2.433 1.514 3.568 3.338 2.514z" fill="#1798CF"/><path d="M553.884 135.712c-.176-.582-.622-.96-.892-1.501a3.344 3.344 0 01-.325-.932c-.054-.325-.013-.649-.135-.973-.081-.203-.324-.243-.459-.054-.419.608-.162 1.676.094 2.311.284.689.717 1.365 1.501 1.432.148.027.256-.148.216-.283zm3.554-1.338c-.311-.446-.851-.595-1.351-.757-.528-.162-1.055-.271-1.609-.176-.148.027-.175.257-.04.324.432.23.905.338 1.365.527.459.19.878.501 1.378.528.217.013.392-.271.257-.446zm27.976-47.938c-.054.04-.054.135-.027.19.203.337.689.445 1.014.648.419.257.743.662 1.176.879.27.135.513-.082.473-.365-.122-.852-1.865-2.068-2.636-1.352zm3.284 3.892c-.04-.202-.365-.202-.405 0-.122.474-.257.947-.514 1.352-.243.392-.622.676-.797 1.108-.068.162 0 .433.229.392 1.19-.149 1.703-1.824 1.487-2.852zm-1.811 20.854c-.067-.216-.365-.162-.378.054-.041.743-.041 1.473-.162 2.216-.095.568-.298 1.082-.217 1.663.027.216.379.311.514.135.757-.987.581-2.946.243-4.068zm-2.297 5.284c-.284-.473-.554-.946-.865-1.378-.122-.162-.433-.068-.352.149.163.486.365.959.568 1.446.189.432.311.932.676 1.256.175.163.567.068.527-.216-.041-.486-.311-.851-.554-1.257zm-2.501 2.974c-.391-.109-.824-.068-1.216-.176-.446-.122-.743-.419-1.135-.595-.108-.054-.297 0-.284.162.122 1.028 1.865 1.852 2.717 1.203.202-.175.202-.513-.082-.594zM457.901 49.486c-.96.447-2.284 1.92-1.892 3.068.081.244.378.27.527.068.297-.433.338-1.014.581-1.473.27-.514.649-.92 1.054-1.311.176-.19-.054-.446-.27-.352zm.743 5.474c-.554-.176-1.162-.081-1.743-.243-.568-.163-1.027-.5-1.568-.717-.135-.054-.297.108-.243.244.446 1.121 2.568 2.054 3.622 1.31a.325.325 0 00-.068-.594zm2.703-8.623c-.324.554-.54 1.176-.784 1.77-.256.663-.648 1.339-.77 2.028-.068.406.419.622.662.284.406-.568.568-1.325.771-1.973.189-.663.364-1.338.378-2.041 0-.135-.189-.176-.257-.068zm-4.406 18.123c-.135-.459-.135-.986-.432-1.364-.068-.081-.176-.04-.216.027-.325.419-.19 1.054-.095 1.54.108.528.257 1.244.703 1.595.203.163.621.082.581-.243-.041-.54-.378-1.027-.541-1.554z" fill="#0B8EC7"/><path d="M451.211 78.584c-.243-.42-.689-.662-.946-1.081-.243-.406-.378-.852-.567-1.284-.055-.122-.244-.108-.298 0-.486 1 .311 2.865 1.527 2.879.244 0 .406-.298.284-.514zm97.132 57.52c-.217-.514-.69-.852-1-1.311-.325-.5-.473-1.068-.744-1.582-.162-.297-.554-.135-.581.163-.054.635.257 1.31.595 1.851.297.487.743 1.149 1.351 1.257.189.041.473-.149.379-.378zm37.341-61.399c-.338-.621-.716-1.27-1.324-1.649-.108-.067-.23.04-.203.149.162.635.554 1.176.825 1.77.27.595.405 1.27.878 1.744.108.108.351.068.378-.095.109-.703-.229-1.324-.554-1.919zm2.122-1.73c-.067-.162-.31-.067-.31.081-.014.676.081 1.352.054 2.028-.027.73-.298 1.337-.46 2.04-.067.298.27.473.487.284 1.216-.973.77-3.203.229-4.433z" fill="#1798CF"/><path d="M459.793 83.625c-.257-.419-.649-.73-.919-1.162-.257-.42-.406-.879-.622-1.325-.081-.162-.311-.067-.324.081-.081.933.581 2.379 1.446 2.798.27.135.581-.122.419-.392zm.608-1.189c-.108-.014-.216.108-.121.202.405.338.865.609 1.243 1 .379.379.689.825 1.095 1.19a.18.18 0 00.297-.176c-.243-1.04-1.473-2.04-2.514-2.216zm69.494 39.747c-.541.027-1.054.216-1.595.23-.608 0-1.149-.189-1.73-.284-.162-.027-.297.162-.162.284.851.851 2.757 1.027 3.689.257.19-.162.041-.5-.202-.487zm1.568-.851c-.189-.217-.622.013-.514.297.203.5.433.973.568 1.5.135.514.094 1.095.27 1.595a.347.347 0 00.662 0c.406-1.027-.297-2.635-.986-3.392zm10.514 3.189c-.392-.284-.919-.378-1.365-.554-.473-.176-.919-.459-1.419-.568-.094-.013-.162.068-.121.163.405.892 1.905 1.689 2.851 1.432.23-.054.23-.351.054-.473zm-.175 2.703c-.487-.27-1.054.041-1.582.108-.689.095-1.392 0-2.081.054-.148.014-.189.19-.067.271.608.432 1.351.527 2.094.513.568-.013 1.46-.027 1.717-.622.054-.121.04-.256-.081-.324zm.162 3.406c-.284-.689-.96-1.257-1.555-1.663-.148-.108-.297.095-.229.23.283.622.756 1.406 1.351 1.771.189.135.527-.081.433-.338z" fill="#4283D1"/><path d="M460.847 37.688c1.325-1.149 2.717-3.744 3.676-5.122.014-2.338-3.676-8.123-6.176-10.758.568-1.716-.284-4.555-1.568-6.258-1.284-1.702-3.757-2.96-3.757-2.96l-4.541 2.96s6.068 19.651 12.366 22.138z" fill="#E52C2C"/><path d="M457.049 92.585s-.148 1.23-.527 2.514c-.392 1.284.095 3.081.095 3.081s.284.798 1.473 1.028c1.108.216 2.014-.054 2.014-.054s1.094 1.324 2.527 2.324c1.433 1 4.582 1.798 5.433 1.663 1.379-.217 2.122-1.284 2.014-1.987-.108-.689-1.73-2.622-3.068-3.46-.865-.54-2.838-2.379-3.433-3.014a15.828 15.828 0 01-1.703-2.216l-4.825.121z" fill="#2C1D1B"/><path d="M455.157 37.688s4.001 10.217 4.622 14.353c.622 4.135 1.865 10.393 2.609 15.596.743 5.203.743 10.285.392 15.366-.135 2.014-.879 7.298-.487 10.163-.432 1.866-4.811 2.095-5.325-.067-.324-1.338-3.676-13.231-4.014-16.975-.337-3.743.541-6.42.541-6.42s-5.46-11.676-7.366-16.271c-1.905-4.595-.608-10.285-.608-10.285l9.636-5.46zm-18.65 65.385s-.743 2.743-.649 4.325c.095 1.581.473 1.959.946 2.5.487.541 1.041.311 1.041.311s.216 3.27 1.77 4.595c1.555 1.324 4.366 1.446 5.663.973 1.297-.487.446-2.825-.824-5.122-1.271-2.298-2.879-4.771-3.284-6.852-3.082-.433-4.663-.73-4.663-.73z" fill="#2C1D1B"/><path d="M440.818 41.918s-1.96 2.77-3.527 7.65c-1.095 3.432-.919 11.65-.919 11.65s-.284 8.095.243 10.892c.527 2.798.473 3.366.473 3.366s-2.244 6.717-1.906 14.65c.352 7.933 1 13.636 1 13.636s.446 1.501 2.487 1.703c1.852.189 3.217-1.094 3.217-1.094s3.406-16.813 4.662-20.638c1.257-3.824 1.73-8.244 1.73-8.244l2.582-18.867s5.095-3.324 2.486-11.73c-1.648-5.258-12.528-2.974-12.528-2.974z" fill="#3F2A28"/><path d="M444.846 15.834c1.054-.338 5.203-1.676 5.622-1.473 2.973 1.473 6.325 7.244 6.757 11.136.176 1.609-.135 8.96-1.095 11.556 1.406.621 1.163 1.905.568 2.69.568.783.96.918 1.271 1.675.581 1.446-.19 2.135-1.203 3.23-1.473 1.595-4.055 2.879-8.285 3.473-4.892.676-8.649-1.351-10.163-3.378-.365-.473-.297-1.73.77-2.42-.811-2.473-1.419-7.203-2.216-10.176-1.203-4.474-2.379-9.799.202-13.177 1.149-1.473 5.474-2.379 7.772-3.136z" fill="#F9423E"/><path d="M450.522 15.334s1.622 1.933 2.784 4.095c1.135 2.109 1.419 4.528 1.419 4.528l-7.176 3.892s-2.528-4.379-4.352-6.541c-1.987-2.365-3.42-3.893-3.42-3.893l-1.256.527s2.689 3.596 3.824 5.704c.581 1.067 2.582 4.216 3.068 6.825.189 1-.419 6.676-.797 9.636-.662 5.257-6.487 4.176-6.487 4.176s-1.474 2.784-2.609 8.596c-.824 4.243-.094 8.757 0 15.217.068 4.933-.716 10.893-.716 10.893s9.825 2.528 14.947 1.65c6.285-1.069 10.853-3.812 12.394-4.853 2.432-1.635 3.297-3.554 3.297-3.554s-2.486-9.393-4.743-18.38c-1.528-6.11-1.852-9.555-2.636-13.745-.5-2.649-1.122-8.312-1.162-11.974-.054-3.663-1.919-9.353-3.136-11.218-1.675-2.581-3.122-3.04-3.122-3.04l-.121 1.46z" fill="#15ABEB"/><path d="M451.819 45.337c-.419.027-2.378 1.69-4.527 2-2.379.338-3.487-.23-4.379-.635.567-.027 2.081.23 4.271-.338 2.175-.567 4.635-1.027 4.635-1.027zm3.609-5.703s-1.298 1.797-3.082 2.865c-1.784 1.068-3.527 1.406-3.527 1.406s1.838-1.446 3-2.365c1.149-.92 3.609-1.906 3.609-1.906zm-8.866 20.353s1.865 4.987 3.541 9.38c.946 2.473 2.419 5.852 2.419 5.852s-2-1.108-3.717-4.866c-1.851-4.095-2.243-10.366-2.243-10.366z" fill="#F4EBEA"/><path d="M444.346 10.482s3.946 3 5.257 5.014c2.216 3.406 2.514 4.42.54 6.298-5.041.717-7.933-2.405-8.798-4.92 1.257-.688 3.001-6.392 3.001-6.392z" fill="#FFB9A4"/><path d="M442.345 15.577s.568 2.622 2.284 3.906c2.068 1.554 5.947 1.811 5.947 2.865-1.122 0-1.352.068-1.352.879 0 1.527-.446 1.878-.446 1.878s-3.176-1-5.189-1.838c-2.528-1.054-3.311-5.879-3.311-5.879s.567-1.946 2.067-1.81z" fill="#E52C2C"/><path d="M450.562 16.064s1.636 1.784 2.339 2.595c.702.824.297 2.324.648 3.014.352.675.514 1.135.514 1.135s-1.46-.297-1.744-1.135c-.283-.838-1.743.675-1.743.675l-1.027-.851s1.554-1 1.027-2.068c-.527-1.067-1.406-2.473-1.406-2.473l1.392-.892z" fill="#E52C2C"/><path d="M454.049 8.63c-.067-1.729-.446-3.891-1.77-5.121-1.311-1.217-3.568-1.338-5.271-1.217-2.636.19-4.501 3.109-4.028 6.488.433 3.122 2.514 7.92 5.988 8.582 1.77.337 3.149-1 3.959-2.703.96-2.028 1.19-4.596 1.122-6.028z" fill="#FFC9B6"/><path d="M453.319 5.887s0-.013.014-.013c-.014.027-.014.027-.014.013z" fill="#301333"/><path d="M440.886 6.928c-.054-2.392 1-5.42 3.527-6.38 1.379-.526 4.555-.972 6.001.15a1.6 1.6 0 01.405-.392c.811-.541 1.879-.23 2.528.419.459.46.729 1.08.891 1.743 1.379-.784 3.149 1.081 2.541 2.825-.905 2.581-4.5 2.865-6.622 1.784-.311 2.121-2.406 3.905-4.568 3.96-.473 1.121-1.325 2.554-2.676 2.81-.378-2.121-2.027-4.554-2.027-6.92z" fill="#3F2A28"/><path d="M445.643 11.104s-.635-1.379-1.73-.622c-1.081.757.865 3.041.865 3.041l.865-2.42z" fill="#FFC9B6"/><path d="M452.928 38.404s-1.163 2.081-3.528 2.838c-2.365.77-3.879.406-3.879.406s2.636-.838 3.663-1.311c1.027-.46 3.744-1.933 3.744-1.933z" fill="#F4EBEA"/><path d="M438.088 43.905s2.798 2.19 3.582 3.297c.784 1.108.378 2.892.243 5-.135 2.123-2.149 1.569-3.784 1.366-1.622-.203-2.014-.987-1.054-1.365.959-.379 2.216 0 2.216 0s-2.581-1.433-2.743-4.068c-.136-2.622 1.54-4.23 1.54-4.23z" fill="#FFC9B6"/><path d="M424.546 37.837c.987-2.23 1.419-2.92 3.068-5.596 1.635-2.69 2.068-3.622 4.095-6.23.716-4.622 2.906-7.42 5.879-7.555 1.798 1.379 3.149 11.38 1.379 14.434-1.419 2.46-2.136 3.136-3.595 3.974-.379.96-1.271 1.743-1.838 2.554 1.027.73 2.23 1.595 3.176 2.297 2.081 1.555 3.405 3.595 3.405 3.595s-.608 1.136-1.54 2.109a77.225 77.225 0 01-1.784 1.797s-6.636-1.933-8.596-3.527c-.986-.798-2.122-2.122-2.581-3.487-.365-1.04-1.581-3.203-1.068-4.365z" fill="#E52C2C"/><path d="M499.865 116.061c-.365-.311-.676-.595-.919-.811l-2.501-2.257c-6.798-6.136-13.204-11.934-23.218-21.705-5.406-5.27-10.528-12.582-11.434-30.179-.486-9.46 2.46-17.853 5.514-19.759.879-.554 1.46-.337 1.838-.135 4.271 2.365 11.745 8.217 11.826 8.271a1.062 1.062 0 001.5-.189 1.062 1.062 0 00-.189-1.5c-.311-.243-7.69-6-12.096-8.46-1.257-.703-2.676-.636-4 .189-4.15 2.581-7.015 12.11-6.515 21.678.946 18.34 6.366 26.03 12.083 31.598 10.041 9.798 16.474 15.609 23.286 21.759l2.487 2.257c.256.229.581.513.946.838 2.892 2.54 9.663 8.473 9.176 12.447-.135 1.054-1.081 1.919-2.027 2.919.108.743.081 1.23.014 2.027.202-.054.405-.121.608-.23 2.108-1.081 3.297-2.581 3.527-4.446.608-5.095-6.501-11.325-9.906-14.312z" fill="#593D3D"/><path d="M496.31 70.962l13.866 6.581-16.609 8.704 2.743-15.285z" fill="#C6AFAF"/><path d="M497.094 70.543l13.853 6.581-16.596 8.704 2.743-15.285z" fill="#EFDFDF"/><path d="M510.947 77.124l.459 1.068-17.055 8.974-.433.19-.351-1.109 17.38-9.123z" fill="#C6AFAF"/><path d="M480.39 45.378s2.811 3.162 4.365 5.244c.987 1.324 3.852 5.379 3.852 5.379l-2.811 2.027s-2.825-4.136-4.001-5.636c-.851-1.081-4.027-4.73-4.027-4.73s.608-2.284 2.622-2.284z" fill="#352221"/><path d="M485.769 57.947c.216.324 1.041.162 1.838-.379.797-.54 1.257-1.23 1.041-1.554-.217-.324-1.041-.162-1.838.378-.798.541-1.257 1.23-1.041 1.555z" fill="#472F2E"/><path d="M486.35 57.703c.135.203.662.108 1.176-.243.513-.338.797-.784.662-1-.135-.203-.662-.108-1.176.243-.513.352-.797.798-.662 1z" fill="#EFDFDF"/><path d="M500.041 77.76l1.824-1.257-13.677-20.056-1.838 1.256 13.691 20.057z" fill="#EFDFDF"/><path d="M494.351 85.828l.378 1.135-.811.392-.351-1.108.784-.419z" fill="#B29A9A"/><path d="M461.834 30.714s3.203.838 5.987 2.852c2.784 2.014 6.095 5.068 6.095 5.068l-3.149 4.216s-5.554-1.608-8.352-3.216c-2.797-1.608-3.433-3.798-3.433-3.798l2.852-5.122z" fill="#E52C2C"/><path d="M473.119 37.89s-1.541-.202-2.744 1.271c-1.067 1.311-.824 3.163.19 3.554.459.19 2.459.717 2.892 1.163.419.446 2.527 3.568 3 3 .541-.662-.243-1.31-.527-2.014-.176-.432.081-1.216.419-1.513.987.703 3.027 2.297 3.027 2.297s3.798-.58 1.406-3.906c-.919-1.27-3.379-1.486-4.69-1.932-1.324-.42-2.973-1.92-2.973-1.92z" fill="#FFC9B6"/><path d="M478.025 134.508l2.122-1.202v.013c.27-.148.635-.148 1.013.081.879.5 1.581 1.865 1.581 3.028 0 .567-.175.986-.446 1.202h-.013c-.041.041-.095.054-.149.082l-2.095 1.189-2.013-4.393z" fill="#281818"/><path d="M477.444 135.819c0 1.163.716 2.528 1.581 3.028.878.5 1.581-.027 1.581-1.203 0-1.162-.716-2.527-1.581-3.027-.865-.501-1.581.027-1.581 1.202z" fill="#3F2A28"/><path d="M478.025 136.279c0 .635.392 1.379.865 1.662.473.271.865-.013.865-.662s-.392-1.378-.865-1.662c-.473-.27-.865.013-.865.662z" fill="#EDEDED"/><path d="M489.756 127.873l2.122-1.203c.27-.149.635-.149 1.013.081.879.5 1.582 1.865 1.582 3.027 0 .568-.176.987-.446 1.203h-.014c-.04.041-.095.054-.149.081l-2.094 1.19-2.014-4.379z" fill="#281818"/><path d="M489.175 129.17c0 1.163.716 2.527 1.581 3.028.879.5 1.581-.028 1.581-1.203 0-1.163-.716-2.528-1.581-3.028-.878-.5-1.581.041-1.581 1.203z" fill="#3F2A28"/><path d="M489.756 129.643c0 .635.392 1.379.865 1.663.473.283.865-.014.865-.663 0-.635-.392-1.378-.865-1.662-.473-.27-.865.013-.865.662z" fill="#EDEDED"/><path d="M458.807 121.697c0-2.893-1.757-6.258-3.933-7.515-.554-.311-1.203-.473-1.716-.473-.406 0-1.447.041-2.514.703-1.23.77-1.392 2.649-1.392 2.649l4.406 8.92s1.419.703 2.878-.108c.906-.5 1.46-1.325 1.703-1.771.108-.203.27-.608.325-.757a5.382 5.382 0 00.243-1.648z" fill="#281818"/><path d="M449.157 118.196c0 2.892 1.757 6.258 3.933 7.515 2.176 1.256 3.933-.082 3.933-2.974 0-2.892-1.757-6.257-3.933-7.514-2.176-1.257-3.933.068-3.933 2.973z" fill="#3F2A28"/><path d="M449.616 118.777c0 2.149 1.311 4.649 2.92 5.582 1.608.932 2.919-.054 2.919-2.203s-1.311-4.649-2.919-5.582c-1.609-.932-2.92.054-2.92 2.203z" fill="#FFC373"/><path d="M453.333 113.871c-.595-.338-1.149-.513-1.676-.554v-5.162l15.934 2.257c1.541-.068 3.054.135 4.311.608l23.787 3.365v11.663c.135 1.311-.757 2.717-2.636 3.798l-7.717 4.46c-3.203 1.851-8.095 2.054-10.866.446l-17.407-9.947c.203-.595.311-1.284.311-2.081.013-3.541-1.379-7.325-4.041-8.853z" fill="#EDEDED"/><path d="M452.306 113.831c-.622-.352-1.216-.541-1.757-.581v-5.433l16.745 2.365c1.622-.068 3.217.148 4.528.635l25.002 3.541v9.839c.135 1.378-.797 2.851-2.77 3.987l-8.109 4.689c-3.366 1.946-8.501 2.149-11.42.473l-16.705-9.649s-.338-.176-.473-.257v-.46c-.189-3.581-2.379-7.608-5.041-9.149z" fill="#EDEDED"/><path d="M450.549 107.492v-1.824s.311.013.703.04c.473-.635 1.149-1.243 2.068-1.784l8.109-4.69c3.365-1.945 8.5-2.162 11.42-.472l22.015 12.717c.622.365 1.082.784 1.406 1.23l.541-.122-.014 1.514c.122 1.365-.811 2.838-2.77 3.973l-8.109 4.69c-3.366 1.946-8.501 2.162-11.421.473l-22.015-12.717c-1.365-.811-2.001-1.906-1.933-3.028z" fill="#352221"/><path d="M474.525 121.386l-22.016-12.718c-2.919-1.676-2.541-4.649.824-6.595l8.109-4.69c3.365-1.946 8.501-2.162 11.42-.473l22.016 12.718c2.919 1.676 2.541 4.649-.824 6.595l-8.109 4.69c-3.366 1.946-8.501 2.162-11.42.473z" fill="#FFC373"/><path d="M486.026 107.492l-15.191-8.77c-2.014-1.163-5.555-1.014-7.879.324l-5.595 3.23c-1.068.608-1.676 1.378-1.852 2.135-.27-1.027.351-2.176 1.852-3.041l5.595-3.23c2.324-1.338 5.865-1.487 7.879-.324l15.191 8.771c1.094.635 1.486 1.514 1.284 2.419-.149-.568-.568-1.095-1.284-1.514z" fill="#EDEDED"/><path d="M485.472 111.141l-5.596 3.23c-2.324 1.338-5.865 1.487-7.879.325l-15.191-8.771c-.716-.419-1.135-.946-1.284-1.514.176-.757.784-1.514 1.852-2.135l5.595-3.23c2.325-1.339 5.866-1.487 7.879-.325l15.191 8.771c.716.419 1.135.946 1.284 1.514-.189.757-.797 1.514-1.851 2.135z" fill="#EDEDED"/><path d="M478.862 118.642l-16.015-9.244c-2.122-1.23-1.851-3.379.595-4.798l5.892-3.406c2.447-1.419 6.177-1.567 8.299-.338l16.015 9.245c2.122 1.23 1.851 3.378-.595 4.797l-5.892 3.406c-2.447 1.419-6.177 1.568-8.299.338z" fill="#EFDFDF"/><path d="M479.147 116.71l-14.232-8.218c-1.878-1.081-1.648-3 .527-4.257l5.244-3.027c2.176-1.257 5.501-1.392 7.379-.311l14.232 8.217c1.878 1.081 1.648 3-.527 4.257l-5.244 3.028c-2.176 1.27-5.501 1.405-7.379.311z" fill="#15ABEB"/><path d="M491.337 109.857s-3.108.298-5.514 1.919c-2.406 1.609-5.298 4.312-5.298 4.312l-.851-.487s3.122-3.257 5.527-4.581c2.406-1.325 5.312-1.676 5.312-1.676l.824.513zm-3.406-1.946s-3.108.298-5.514 1.919c-2.406 1.622-5.298 4.312-5.298 4.312l-.851-.487s3.122-3.257 5.527-4.581c2.406-1.325 5.312-1.676 5.312-1.676l.824.513zm-3.406-2.013s-3.108.297-5.514 1.919c-2.405 1.621-5.297 4.311-5.297 4.311l-.852-.487s3.122-3.257 5.528-4.595c2.405-1.324 5.311-1.676 5.311-1.676l.824.528zm-3.405-1.947s-3.109.298-5.514 1.92c-2.406 1.621-5.298 4.311-5.298 4.311l-.852-.487s3.122-3.257 5.528-4.581c2.406-1.325 5.311-1.676 5.311-1.676l.825.513zm-3.392-1.946s-3.109.298-5.514 1.919c-2.406 1.622-5.298 4.312-5.298 4.312l-.852-.487s3.122-3.257 5.528-4.595c2.405-1.324 5.311-1.676 5.311-1.676l.825.527z" fill="#EFDFDF"/><path d="M465.483 121.913l-6.757-3.906v-1.879l6.757 3.906v1.879zm0 1.946l-6.757-3.906v-.932l6.757 3.892v.946z" fill="#352221"/><path d="M463.51 100.329c-.392 0-.703.163-.703.365 0 .203.311.365.703.365.392 0 .702-.162.702-.365 0-.202-.324-.365-.702-.365zm2.04-1.202c-.392 0-.702.162-.702.365 0 .202.31.364.702.364.379 0 .703-.162.703-.364 0-.203-.324-.365-.703-.365zm-8.082 4.554c-.392 0-.702.162-.702.365 0 .203.31.365.702.365.392 0 .703-.162.703-.365 0-.203-.311-.365-.703-.365zm2.055-1.189c-.392 0-.703.162-.703.365 0 .202.311.365.703.365.392 0 .703-.163.703-.365 0-.203-.311-.365-.703-.365zm2.054-1.203c-.392 0-.703.162-.703.365 0 .203.311.365.703.365.392 0 .703-.162.703-.365-.014-.189-.325-.365-.703-.365zm6.028-3.339c-.392 0-.703.163-.703.366 0 .202.311.365.703.365.392 0 .702-.163.702-.365 0-.203-.31-.365-.702-.365zm2.892 1.366l-5.109 2.946-1.081-.622 5.109-2.946 1.081.622zm-6.082 3.568l-5.108 2.946-1.068-.622 5.109-2.946 1.067.622zm25.368 19.299c-.325-.257-.784-.284-1.298.014-1 .581-1.811 2.121-1.811 3.459 0 .717.244 1.217.622 1.446v.014l1.419.865 2.365-5.028-1.297-.77z" fill="#3F2A28"/><path d="M491.675 124.413c0 1.338-.811 2.879-1.811 3.46-1 .581-1.811-.041-1.811-1.365 0-1.338.811-2.879 1.811-3.46 1-.581 1.811.04 1.811 1.365z" fill="#493130"/><path d="M501.365 137.509h-.108c-1.595-.027-3.068-.838-4.366-2.379-.743-.878-1.378-1.824-2.054-2.824-1.365-2.014-2.771-4.095-5.244-6.014a1.061 1.061 0 01-.189-1.501c.351-.473 1.027-.554 1.5-.189 2.757 2.122 4.325 4.447 5.717 6.501.649.959 1.257 1.851 1.919 2.649.906 1.067 1.811 1.595 2.771 1.622h.054c1.932 0 4.027-2.001 5.622-3.758a1.083 1.083 0 011.514-.067c.432.405.459 1.081.067 1.514-2.014 2.202-4.446 4.446-7.203 4.446z" fill="#593D3D"/><path d="M590.658 138.306c-.149.163-15.515 16.732-31.963 22.651-4.203 1.514-8.541 1.892-12.893 1.798-1.838-3.298-4.946-6.028-8.568-7.15-6.744-2.108-13.637-1.743-20.935-1.365-4.811.244-9.771.501-15.272.149-21.421-1.378-40.653-11.879-47.761-18.164-6.907-6.122-7.907-13.042-6.542-17.475 1.284-4.176 2.933-6.527 3.852-7.609v-.797c-.811.838-2.825 3.271-4.365 8.258-1.419 4.595-.406 11.744 6.69 18.042 7.149 6.339 26.529 16.921 48.086 18.299 5.527.352 10.514.095 15.339-.148 7.555-.392 14.083-.73 20.745 1.338 3.393 1.054 6.312 3.567 8.109 6.622-2.865-.081-5.743-.352-8.568-.622-8.285-.784-16.123-1.527-21.164 3.311-2.433 2.338-3.041 5.231-1.676 7.947 2.014 3.987 8.095 7.325 16.556 7.325 1.892 0 3.892-.162 6-.527 6.798-1.162 10.893-4.879 11.245-10.177.148-2.257-.406-4.581-1.487-6.703 4.284.054 8.663-.338 12.799-1.825 16.569-5.96 32.03-22.624 32.179-22.799l-.406-.379zm-43.626 31.652c-.338 5.041-4.271 8.569-10.798 9.69-11.299 1.933-19.624-1.811-21.989-6.514-1.271-2.527-.717-5.135 1.568-7.325 3.054-2.933 7.095-3.743 11.798-3.743 2.771 0 5.784.283 8.947.581 2.852.27 5.865.554 8.92.621 1.108 2.109 1.703 4.433 1.554 6.69z" fill="#593D3D"/><path d="M305.093 50.331c-4.44-2.004-6.652-8.8-7.165-13.16-.513-4.423.192-9.2-1.507-13.416-1.33-3.302-3.911-4.904-7.469-4.744-1.747.08-3.575.593-4.745 1.699-.929.69-1.442 1.795-1.25 2.965v.128c0 .033.016.049.048.049.032.112.032.224.08.336.128.369.385.738.705 1.074.049.048.081.096.129.128.625.577 1.442.962 2.196.802 1.314.224 2.757.32 3.43.977 1.619 1.54 1.122 5.082 1.394 7.117.273 2.004.449 5.514.898 7.486 1.138 5.097 6.395 10.514 13.256 8.559z" fill="#2C1D1B"/><path d="M280.104 23.499s1.939-2.629 4.52-.898c3.43 2.309 2.42 4.665 1.539 5.29-.866.625-6.059-4.392-6.059-4.392z" fill="#F9423E"/><path d="M306.487 117.395l1.587 3.414s-.817 2.292-1.49 3.655c-.674 1.362-1.844 1.154-2.854 2.869-1.009 1.715.113 2.789 3.286 2.901 3.158.112 3.847-1.475 4.825-3.542.978-2.068 2.452-4.745 2.468-6.46.032-2.709-2.292-2.613-3.638-3.558-.898-.609-4.184.721-4.184.721zm-38.116 13.528c-.529 1.315-1.298 2.982-3.975 3.43-3.43.561-4.2.016-5.706 1.01-1.507 1.01.609 2.933 2.276 4.12 2.452 1.747 5.273.913 7.084.512 2.405-.528 4.889-1.346 4.777-3.734-.128-2.372.849-3.975.849-3.975s-4.424-3.591-5.305-1.363z" fill="#FFC9B6"/><path d="M264.011 134.401s-.032 1.122 1.363 1.812c1.394.673 4.167.785 5.177.064 1.01-.738 2.308-1.347 2.308-1.347s1.026 2.805-2.34 4.344c-3.366 1.539-5.193 2.629-8.624 1.587-3.414-1.042-5.61-3.27-3.734-5.482.913-1.09 5.85-.978 5.85-.978z" fill="#3F2A28"/><path d="M304.195 105.646c-1.394-.962-2.757-1.33-4.456-1.667 4.184-7.293 4.232-14.602 2.597-22.793-.449-2.26-1.395-7.55-3.735-8.8-.946-.496-11.941-.096-13.063-.432-.016 0-.048-.016-.064-.016-.994 3.462-2.18 7.934-2.292 9.841-.289 4.89 3.638 6.075 3.638 6.075s.16 2.565.673 4.777c.994 4.696 3.014 11.348 5.819 15.179-.209 2.581 1.474 3.254 3.606 3.767 1.651.4 7.726 6.555 11.156 9.232.016 0 3.542-.417 3.542-3.767-2.099-2.596-2.34-7.902-7.421-11.396z" fill="#15ABEB"/><path d="M283.181 81.763c.113-1.907 1.299-6.38 2.293-9.841-2.004-.61-4.777-1.074-5.498-1.395-6.54 9.73-8.463 22.2-8.592 33.837-1.538 2.42-.961 5.562-.945 8.335.048 5.369-1.219 10.755-1.844 16.092-.08.754-.368 1.812-.577 2.918 1.154.657 4.889 1.538 5.242 1.41 1.843-5.418 5.209-11.284 6.123-16.974.256-1.539.352-3.094.208-4.665-.128-1.426-.866-2.965-.321-4.359.449-1.154 1.764-2.437 2.453-3.511a62.855 62.855 0 002.917-5.16c.962-1.876 1.94-3.832 2.837-5.851-.513-2.212-.673-4.777-.673-4.777s-3.895-1.17-3.623-6.059z" fill="#F4EBEA"/><path d="M275.68 40.97c2.933-3.718 4.648-3.254 8.207-1.218 4.36 2.5 7.886 4.071 9.793 5.658 3.238 2.693 5.114 8.239 5.659 15.211.08 1.058.721 4.665 1.089 5.739 1.347 3.814.69 4.44-.272 5.321.529.513 1.042 2.741-.064 3.382-5.049 2.965-16.253 3.494-20.164-3.686-.241-.45.384-1.988.689-2.389-.817-.465-1.395-1.587-1.395-2.628-1.49-.802-2.772-2.036-3.109-4.152-2.997-.673-6.219-2.356-5.241-5.978.48-1.764 1.955-5.787 2.516-7.806 1.138-4.024 1.443-6.396 2.292-7.454z" fill="#F9423E"/><path d="M277.94 42.926c.818-.128 2.965-1.234 2.324-5.21-.176-1.105 4.825-4.103 4.825-3.943-.048 3.607.513 7.726 2.164 9.586-2.388 2.484-5.097 8.783-9.169 7.918-2.244-.465-1.763-3.767-.144-8.351z" fill="#FFB9A4"/><path d="M276.049 41.675s-.722 3.735-1.187 5.082c-.464 1.362-1.442 4.44-1.442 4.44s1.33-.706 2.052-.337c.737.369 1.314 1.33 1.939 1.49.625.16 1.443 0 1.443 0l.432-1.714s-1.298-.37-1.362-2.549c-.048-2.196.208-5.161.208-5.161l-2.083-1.25z" fill="#E52C2C"/><path d="M285.65 40.153c-.032.064-1.106 2.596-2.164 4.52-1.106 2.035-3.366 4.055-4.584 5.08-1.779 1.508-1.122 3.912-1.122 3.912s.641-1.539 1.49-1.298c.834.24 1.699.993 2.693 1.859.738-1.17 2.485-2.372 3.687-4.408 1.17-1.987 3.013-5.418 2.34-7.822-.689-2.388-2.34-1.843-2.34-1.843z" fill="#E52C2C"/><path d="M273.725 29.333c3.189-.721 4.856-.85 7.693.305 1.587.432 3.094 1.138 4.536 2.083a.397.397 0 01.177.37c-.722 4.199-2.132 8.655-6.861 10.53-3.878 1.539-6.058-2.725-6.732-5.578-.785-3.334-1.025-7.213 1.187-7.71z" fill="#FFC9B6"/><path d="M283.967 25.07c-3.046-2.469-6.892-2.164-8.992-.465-2.228 1.811-3.991 4.488-2.998 7.357 1.042.209 2.517-.721 3.222-1.314 1.283 1.426 3.543 3.11 6.3 2.725.544 1.747 1.715 5.61 3.317 5.498 3.206-6.588 4.04-9.826-.849-13.801z" fill="#3F2A28"/><path d="M280.922 35.328s.769-2.58 2.452-1.25c1.683 1.33-.705 3.943-.705 3.943l-1.747-2.693z" fill="#FFC9B6"/><path d="M306.567 124.464s-.224.593-1.811 1.651-2.004 2.42-2.004 3.253c0 .834 1.844 2.036 4.312 1.86 2.468-.176 3.911-1.106 5.097-3.478 1.186-2.373 2.901-7.662 2.404-8.832-.272-.657-1.298-.946-1.522-1.122 0 0 .384 1.186.064 2.244-.545 1.795-1.186 3.061-2.036 4.472-.849 1.41-2.34 1.651-3.35 1.138-1.026-.481-1.154-1.186-1.154-1.186z" fill="#3F2A28"/><path d="M329.28 161.57c-1.475 0-3.029-.224-4.6-.801-6.412-2.357-6.38-6.251-6.316-12.15.016-1.122.016-2.276 0-3.526-.096-4.168-1.683-7.149-4.472-8.383-2.757-1.219-6.427-.481-9.104 1.859-1.202 1.042-2.276 2.052-3.334 3.029-4.632 4.296-8.303 7.694-14.442 7.213-2.516-.192-4.552-1.218-6.075-3.045-2.724-3.27-3.734-9.185-2.917-17.087.465-4.552 1.298-9.745 2.1-14.778 1.202-7.502 2.324-14.57 2.084-18.401-.706-10.884-3.174-14.875-3.19-14.923l.577-.368c.112.16 2.581 4.15 3.302 15.243.256 3.895-.882 11.011-2.084 18.545-.801 5.017-1.635 10.21-2.1 14.73-.801 7.726.161 13.464 2.773 16.59 1.395 1.683 3.286 2.629 5.61 2.805 5.867.465 9.249-2.677 13.929-7.037 1.058-.977 2.148-2.003 3.35-3.045 2.918-2.549 6.764-3.318 9.826-1.972 3.045 1.347 4.777 4.537 4.873 8.993.032 1.266.016 2.42 0 3.542-.048 5.802-.097 9.313 5.882 11.509 6.78 2.5 13.641-2.052 13.705-2.1l.384.561c-.272.176-4.536 2.997-9.761 2.997z" fill="#593D3D"/><path d="M222 136.79v10.37c0 5.482 8.351 9.922 18.641 9.922 10.291 0 18.642-4.44 18.642-9.922v-10.37H222z" fill="#352221"/><path d="M240.641 152.786c-10.29 0-18.641-4.44-18.641-9.921v1.538c0 5.482 8.351 9.922 18.641 9.922 10.291 0 18.642-4.44 18.642-9.922v-1.538c0 5.481-8.335 9.921-18.642 9.921z" fill="#44B7F0"/><path d="M279.687 75.88s-1.939 5.595-4.632 11.365c-2.709 5.77-7.277 7.886-14.169 4.777-6.909-3.094 7.325-23.114 7.325-23.114l11.476 6.973z" fill="#352221"/><path d="M240.641 127.317c-10.29 0-18.641 4.44-18.641 9.922 0 5.481 8.351 9.921 18.641 9.921 10.291 0 18.642-4.44 18.642-9.921 0-5.482-8.335-9.922-18.642-9.922z" fill="#472F2E"/><path d="M256.606 132.719c-1.843-3.783-8.271-6.572-15.965-6.572-7.677 0-14.121 2.789-15.964 6.572h-.545v2.196c0 4.84 7.389 8.783 16.509 8.783 9.121 0 16.494-3.927 16.494-8.783v-2.196h-.529z" fill="#44B7F0"/><path d="M240.641 123.726c-9.12 0-16.493 3.927-16.493 8.784 0 4.841 7.389 8.784 16.493 8.784 9.121 0 16.494-3.927 16.494-8.784.016-4.857-7.373-8.784-16.494-8.784z" fill="#15ABEB"/><path d="M233.076 130.731c-2.372-1.363-3.478-2.565-3.462-3.783 0-1.378 1.426-2.34 2.644-3.029 1.106-.625 2.453-1.202 3.735-1.763 2.036-.882 4.135-1.796 5.225-2.821 2.148-2.004 2.437-2.822 3.174-6.46a7.082 7.082 0 015.899-5.834l.096.977c-.161.016-4.12.497-5.033 5.049-.754 3.783-1.138 4.809-3.462 6.989-1.219 1.138-3.302 2.052-5.498 3.013-1.267.545-2.581 1.122-3.639 1.715-1.442.802-2.132 1.507-2.148 2.164 0 .561.513 1.507 2.966 2.917l-.497.866z" fill="#15ABEB"/><path d="M251.124 152.161c0-2.949 1.795-6.363 4.007-7.645a3.684 3.684 0 011.747-.481 4.9 4.9 0 012.565.721c1.266.786 1.427 2.549 1.427 2.549l-4.488 9.232s-1.443.706-2.934-.096c-.929-.513-1.49-1.346-1.731-1.811a5.938 5.938 0 01-.336-.769 5.467 5.467 0 01-.257-1.7z" fill="#281818"/><path d="M260.966 148.587c0 2.949-1.795 6.363-4.007 7.646-2.212 1.282-4.008-.08-4.008-3.03 0-2.949 1.796-6.363 4.008-7.645 2.212-1.283 4.007.08 4.007 3.029z" fill="#3F2A28"/><path d="M260.485 148.972c0 2.596-1.587 5.626-3.526 6.748-1.956 1.122-3.527-.064-3.527-2.677 0-2.597 1.587-5.626 3.527-6.748 1.955-1.122 3.526.08 3.526 2.677z" fill="#44B7F0"/><path d="M259.507 149.998c0 1.282-.785 2.789-1.747 3.35-.962.561-1.747-.032-1.747-1.331 0-1.282.785-2.789 1.747-3.35.962-.545 1.747.048 1.747 1.331z" fill="#15ABEB"/><path d="M258.316 92.123l-14.339 33.251 5.505 2.374 14.339-33.25-5.505-2.375z" fill="#352221"/><path d="M253.416 129.689l-14.041 8.143-9.681-5.691 14.041-8.126 9.681 5.674z" fill="#352221"/><path d="M231.249 127.461c-1.251.866-1.571 3.174-1.571 4.696 1.571 0 6.748-1.843 6.748-1.843l-.882-2.084-4.295-.769z" fill="#352221"/><path d="M253.416 125.906l-2.356 3.35-10.114 3.879-9.697-5.674 12.486-7.245 9.681 5.69z" fill="#543A3A"/><path d="M253.416 125.906s.449.417.449 1.699v1.828l-3.526 2.067.961-3.045 2.116-2.549z" fill="#472F2E"/><path d="M253.416 125.906s-11.156 6.508-12.486 7.245c-1.315.738-1.571 3.158-1.571 4.697 2.18-1.267 14.49-8.399 14.49-8.399l-.433-3.543z" fill="#472F2E"/><path d="M237.083 122.412v3.719c0 1.715 2.597 3.093 5.818 3.093 3.206 0 5.819-1.378 5.819-3.093v-3.719h-11.637z" fill="#44B7F0"/><path d="M242.901 119.318c-3.205 0-5.818 1.379-5.818 3.094 0 1.715 2.597 3.094 5.818 3.094 3.206 0 5.819-1.379 5.819-3.094 0-1.699-2.597-3.094-5.819-3.094zm5.546 17.44c-3.285 0-6.571-1.315-6.748-1.395a.49.49 0 01-.272-.641.495.495 0 01.641-.272c.048.016 5.081 2.035 8.639 1.041 3.927-1.106 5.899-3.398 5.258-6.155-.257-1.122-.802-2.051-1.282-2.869-.545-.929-1.058-1.811-1.042-2.773.096-3.173 1.683-5.257 2.725-6.652.272-.368.528-.689.705-.977 1.651-2.693.785-5.45.769-5.466a.504.504 0 01.321-.625.504.504 0 01.625.32c.048.128 1.026 3.222-.882 6.3-.192.32-.465.673-.753 1.057-1.026 1.363-2.436 3.222-2.517 6.075-.016.69.401 1.411.898 2.244.513.882 1.106 1.86 1.395 3.142.769 3.27-1.523 6.075-5.963 7.325-.802.24-1.651.321-2.517.321z" fill="#15ABEB"/><path d="M272.763 72.002c-1.138-1.314-2.709-2.212-2.709-2.212s-.225-.16-.593-.369c-1.811-1.186-4.28-1.907-4.28-1.907s-8.287 14.362-11.188 21.43c-2.196 5.386-6.395 18.177-6.395 18.177s-.032 6.523.577 8.719l.048.353c.384 2.324 2.019 3.35 3.767 2.372.721-.4 1.602-.977 2.676-1.747 4.264-3.061 8.768-13.063 11.653-20.132 2.885-7.069 8.72-20.148 8.72-20.148s-1.138-3.222-2.276-4.536z" fill="#44B7F0"/><path d="M270.92 71.12c-1.139-1.314-2.709-2.212-2.709-2.212s-1.507-1.042-3.046-1.41c-1.539-.353-4.295.4-4.295.4s-4.136 10.115-7.021 17.183c-2.885 7.069-6.732 17.487-6.203 23.546.128 1.539.288 2.757.449 3.719.384 2.324 2.019 3.35 3.766 2.372.722-.401 1.603-.978 2.677-1.747 4.264-3.061 8.768-13.063 11.653-20.132 2.885-7.069 7.021-17.183 7.021-17.183s-1.154-3.222-2.292-4.536z" fill="#15ABEB"/><path d="M286.099 81.475l-8.864-4.97-1.523 2.55 9.104 5.225 1.283-2.805z" fill="#44B7F0"/><path d="M286.451 82.292c0 .737-.449 1.603-1.01 1.924-.561.32-1.009-.016-1.009-.77 0-.737.448-1.603 1.009-1.923.561-.32 1.01.016 1.01.77z" fill="#15ABEB"/><path d="M262.905 68.059l-8.912-5.113-1.362 2.757 8.976 5.161 1.298-2.805z" fill="#44B7F0"/><path d="M254.33 63.747c0 .737-.449 1.603-1.01 1.924-.561.32-1.01-.016-1.01-.77 0-.737.449-1.603 1.01-1.923.561-.32 1.01.016 1.01.77z" fill="#44B7F0"/><path d="M269.06 53.793s-1.058 2.517-1.394 3.623l-.337 1.106s-4.488 3.446-6.235 4.953c-1.747 1.506-3.174.56-5.097 1.699-2.212 1.314-2.1 2.18-2.132 3.734-.032 1.555 2.196 3.014 2.196 3.014s5.594-3.975 7.822-5.017c4.456-2.1 8.143-6.572 8.143-6.572s-1.395-1.09-1.331-2.837c.048-1.17.593-2.661.593-2.661s-.673-1.09-2.228-1.042z" fill="#FFB9A4"/><path d="M279.607 76.33l.032.24-7.678-4.456-9.841-5.706s-3.318 2.067-5.178 4.28a5.501 5.501 0 00-.384.528l-.561-.048v1.988c.048 1.25.833 2.388 1.667 3.334 1.362 1.555 5.914 4.183 8.479 4.905 2.564.737 5.898 1.33 9.264-.016 3.366-1.347 6.38-3.575 6.38-3.575v-1.763l-2.18.289z" fill="#352221"/><path d="M281.803 76.041l-9.842-5.706-9.841-5.706s-3.318 2.067-5.178 4.28c-1.859 2.211-.641 4.247.738 5.802 1.362 1.555 5.914 4.183 8.479 4.904 2.565.738 5.899 1.33 9.265-.015 3.366-1.315 6.379-3.559 6.379-3.559z" fill="#472F2E"/><path d="M290.811 61.39c-.304 1.636.209 4.184.08 5.659-2.757 1.538-7.581 6.38-10.546 8.88-2.116.432-3.495 0-4.953 2.837-.866 1.699.368 3.67 1.859 4.328 1.731.769 3.094-.241 3.19-1.347-.754-.737-.866-1.987 1.378-2.693 2.709-.288 8.848-3.799 10.9-5.45 1.955-1.57 2.869-1.33 3.253-2.452 1.026-2.933 3.014-8.64 3.014-8.64s-6.973-.769-8.175-1.121z" fill="#FFC9B6"/><path d="M293.087 44.961c-2.933 1.587-4.279 6.828-3.59 11.349.577 3.702.946 5.16.946 5.16s4.776.642 8.543 1.395c2.308-4.584 1.923-7.774 1.843-11.749-.08-3.879-4.985-6.283-7.742-6.155z" fill="#E52C2C"/><path d="M290.427 61.47s1.907-.592 4.375-.288a31.18 31.18 0 014.52.914l-1.025 2.356s-2.725-.77-4.2-.881c-1.459-.096-3.334.32-3.334.32l-.336-2.42z" fill="#FF6969"/><path d="M273.404 39.496s-1.33 1.683-2.067 3.43c-.738 1.747-1.203 4.231-1.427 5.818-.224 1.587-.08 2.629-.08 2.629s1.939 1.01 2.26 1.17c.401-.753.881-2.709 1.394-4.392.754-2.452 1.715-6.203 1.715-6.203s-1.106-1.314-1.795-2.452z" fill="#E52C2C"/><path d="M269.846 51.357l-.786 2.436 2.26 1.042.914-2.597s-.946-.801-2.388-.881z" fill="#FF6969"/><path d="M31.599 16.569l53.424 30.84 21.759-12.554L53.358 4l-21.76 12.569z" fill="#EDDDDD"/><path d="M31.599 44.585L85.023 75.44l21.759-12.57-53.424-30.84-21.76 12.555z" fill="#C6ADAC"/><path d="M31.599 16.569v28.016L85.023 75.44V47.41L31.599 16.569z" fill="#DBC7C6"/><path opacity=".3" d="M83.86 73.494V49.64L53.359 32.03l-20.57 11.88v.04L83.86 73.494z" fill="#AF9B9A"/><path d="M106.782 34.855L85.022 47.41v28.03l21.76-12.57V34.856zM32.788 18.393V43.91l20.488-11.84v-1.824L32.788 18.393z" fill="#C1AFAE"/><path d="M83.86 49.64v-1.716L53.277 30.246v1.825l.082-.04L83.86 49.64z" fill="#AF9B9A"/><path d="M78.955 45.045L58.318 33.152v25.61l20.637-11.92v-1.797z" fill="#C1AFAE"/><path d="M58.318 59.425l-1.46-.852V31.597l1.46.852v26.976z" fill="#DBC7C6"/><path d="M105.052 60.046c-.041-.175-.27-.148-.324 0-.122.365-.163.744-.271 1.109-.108.378-.27.716-.392 1.08-.108.339.392.541.568.244.365-.662.568-1.69.419-2.433zm-.96 3.406c-.175-.31-.486-.419-.77-.594-.284-.176-.568-.46-.905-.514-.041 0-.082.014-.082.068.014.648 1.014 1.432 1.636 1.351.135-.04.189-.216.121-.31zM87.604 47.964c-.446.365-.784.81-1 1.338-.148.351-.365.865-.054 1.176.04.04.108.054.149.013.297-.216.297-.608.419-.932.189-.473.5-.865.878-1.203.27-.23-.121-.608-.392-.392zm.514 2.108c-.014-.148-.27-.148-.284 0a4.9 4.9 0 01-.473 1.446c-.23.433-.568.77-.77 1.203-.081.162.054.406.256.338 1.109-.446 1.42-1.919 1.27-2.987zm.054 21.489c-.284-.27-.622-.487-.92-.757-.323-.297-.526-.675-.797-1.013-.108-.149-.378-.122-.378.094.04.96 1 1.987 1.987 1.933.121-.014.202-.162.108-.257zm1.716-5.433c-.013-.094-.148-.094-.202-.027-.27.473-.433.987-.69 1.46-.216.405-.608.784-.621 1.257 0 .135.135.23.256.189.528-.162.757-.798.947-1.257.243-.527.391-1.054.31-1.622zm15.434-28.598c-.013-.013-.04-.013-.054 0-.284.257-.256.703-.324 1.068-.081.46-.257.906-.243 1.365 0 .27.378.379.513.135.244-.419.271-.96.298-1.432.04-.365.108-.852-.19-1.135zM60.223 52.113c-.067-.203-.338-.149-.365.054-.094.69 0 1.446.108 2.135.054.325.595.257.581-.08-.027-.703-.094-1.46-.324-2.109zm1.933 1.487c-.014-.081-.095-.108-.135-.04-.27.378-.473.81-.744 1.188-.27.392-.675.663-.932 1.055-.122.189.08.5.31.405.893-.351 1.595-1.676 1.5-2.608zm11.217-7.893c-.054-.04-.122.027-.108.081.095.338.23.662.297 1.014.082.405.054.77.027 1.162-.027.338.528.419.595.081.162-.797-.081-1.865-.81-2.338zm-.649 1.393c-.905.202-1.567 1.067-1.73 1.945-.067.365.487.527.568.163.19-.838.635-1.379 1.257-1.947.068-.067-.014-.189-.095-.162z" fill="#AF9B9A"/><path d="M15.151 60.6a.52.52 0 01-.108-.73l18.096-24.353a.52.52 0 01.73-.108c.23.175.284.5.108.73L15.881 60.492c-.176.23-.5.27-.73.108z" fill="#513534"/><path d="M34.437 38.341c.121-.675-.77-.919-1.487-.392.446-.608 1.027-1.58.23-2-.433-.216-.946-.094-1.406.149 0-.257-.067-.487-.297-.581-.27-.122-.514.04-.716.27-.027-.554-.162-1.122-.54-1.365-.515-.338-.92-.027-1.163.406-.095-.176-.325-.338-.581-.474-.42-.135-.838-.189-1.19.109-.648.527-.094 1.5.23 2.148-.392.298-.649.784-.567 1.244-.447-.149-.987.04-1.136.54-.203.69.23 1.338.77 1.73-.5.081-.986.27-.77.852.203.567.906.716 1.527.689-.31.514-.432 1.122.244 1.42.5.215 1.203-.122 1.703-.555.108.514.513.96 1.054 1.014a.89.89 0 00.824-.42c.608.595 1.42 1.082 2.19.555.35-.243.513-.77.419-1.163.31.027.621-.04.837-.337a.868.868 0 00.122-.784c.514-.149.946-.487 1.149-1.027a1.66 1.66 0 00.04-.892c-.135-.27-.5-1.027-1.486-1.136z" fill="#E52C2C"/><path d="M26.368 44.599c-.635 1.392-2.067 3.149-1.621 3.662.73.852 2.04.636 2.04.636s-.5 2.148-1.567 2.58c-1.92.798-3.393 1.23-3.393 1.23s-5.554 11.515-9.298 12.867c-1.554.567-2.69-.879-2.73-2.054-.149-4.42 6.122-10.948 10.11-13.975 1.31-.96 3.77-5.095 6.46-4.946z" fill="#FFC9B6"/><path d="M23.747 49.572s.297-.797 1-1.297c.702-.5.756-1.27 1.608-1.42.851-.134 1.892.217 1.081 1.055-.797.852-.703 1.703-1.703 2.257-1 .581-1.986-.595-1.986-.595z" fill="#FFC9B6"/><path d="M4.542 104.064c-5.771-6.122-.27-12.582 2.5-14.569 1.473 1.811 10.217 5.406 10.271 5.623 1.055 4.5.095 9.203-1.243 13.555-.824 2.717-1.54 7.298-3.473 14.731.892 3.69-.122 9.299-.5 13.475-.257 2.919-1.42 10.568-1.595 11.217.527-.162 1.405-.946 2.595-1.351 1.108-.379 2.527-.406 3.162-.163 1.973.784 2.541 1.5 2.014 2.771-.784 1.865-3.27 2.46-5.028 2.838-2.662.554-4.162 4.784-7 1.865-.73-.757-.081-2.73.162-3.771-.054-.729.162-7.149-.649-12.041-.987-5.893-1.5-12.502 1.946-15.961-3.879-9.853-3.743-15.191-3.162-18.219z" fill="#F9BBA7"/><path d="M6.38 149.934s1.662.595 2.73.933c1.068.337 3.635.473 5.609-1.433.77-.743 1.31-1.676 1.04-2.203-.5-1-2.662-.5-2.662-.5s3.703-2.568 5.784-.879c.96.784 1.203 2.366-.419 4.041-.96 1.001-3.784 2.785-6.23 4.082-1.595.851-4.176 2.541-5.933.838-1.77-1.676.08-4.879.08-4.879z" fill="#2C1D1B"/><path d="M10.596 108.43c-5.77-6.123-.27-12.583 2.5-14.57 1.474 1.812 10.218 5.406 10.272 5.623 1.054 4.5.095 9.203-1.243 13.555-.825 2.717-1.541 7.298-3.474 14.731.892 3.69-.121 9.299-.5 13.475-.257 2.919-1.419 10.569-1.595 11.217.527-.162 1.406-.946 2.595-1.351 1.108-.379 2.527-.406 3.163-.162 1.973.783 2.54 1.5 2.014 2.77-.784 1.865-3.271 2.46-5.028 2.838-2.663.554-4.163 4.785-7 1.865-.73-.757-.082-2.73.161-3.77-.054-.73.163-7.15-.648-12.042-.987-5.893-1.5-12.501 1.946-15.961-3.879-9.866-3.73-15.205-3.163-18.218z" fill="#FFC9B6"/><path d="M12.434 154.286s1.663.594 2.73.932c1.068.338 3.636.473 5.61-1.432.77-.744 1.31-1.676 1.04-2.203-.5-1-2.663-.5-2.663-.5s3.703-2.568 5.785-.879c.96.784 1.203 2.365-.42 4.041-.959 1-3.783 2.784-6.23 4.082-1.594.851-4.176 2.541-5.933.838-1.757-1.676.081-4.879.081-4.879z" fill="#2C1D1B"/><path d="M4.028 63.1c2.568-.918 5.703.541 5.838 3.19 1.42 2.406.028 5.933-2.189 7.542-2.581 1.865-6.555-.027-7.406-2.92-.892-3 .757-6.73 3.757-7.811z" fill="#EDEDED"/><path d="M10.286 69.885c2.405.703 4.568.122 6.879-.23-1.433-1.513-3.257-2.986-1.852-7.149a18.906 18.906 0 01-5.082-2.216c-.324-.203-.838-.027-.905.364-.365 1.893-.824 4.095-2.054 5.028.013.676-.027.54-.027 1.203v1.473c.77.81 1.932 1.216 3.04 1.527z" fill="#FFC9B6"/><path d="M8.61 55.803c.284-2.622 2.433-6.096 5.365-5.88 2.987.23 5.028 4.663 5.258 6.731.392 3.514.08 10.136-5.46 8-4.313-1.647-5.583-4.944-5.163-8.85z" fill="#FFC9B6"/><path d="M2.61 77.886c-1.92-5.947-.744-9.893.945-11.84.703-.797 2.811-3.135 4.622-1.513-.58 2.703 4.73 4.163 8.11 4.163 2.567 1.919 3.756 3.352 5.23 5.946 1.554 2.744 2.851 5-.46 7.001 1.014 3-1.135 6.636-.257 14.326-3.095 2.46-9.041 2.433-12.325.432-2.568-1.554-3.933-3.297-3.798-5.176.851-1.824 1.203-2.203 1.108-4.473-.121-2.865-2.297-6.15-3.176-8.866z" fill="#EDEDED"/><path d="M20.111 74.575c.486.067 2.892 4.473 3.014 6.136.121 1.662-.554 4.96-.744 6.662-.189 1.703-.445 4.541-.445 4.541l-3.906 1.284s1.108-2.243 1.31-5.351c.203-3.109-.891-10.002-.891-10.002l1.662-3.27z" fill="#15ABEB"/><path d="M8.542 130.405c5.893 3.649 7.42 3.108 11.569 1.852 3.014-.919 4.406-3.122 5.081-5.46.27-9.38.176-22.719-.337-26.287-.96-6.663-2.474-7.771-2.474-7.771l-10.784 1.108-6.353-4s-3.31 4.244-4.149 8.257c-.838 4.028-1.23 8.474-1.054 14.61.203 7.163.527 10.123 0 13.677 1.04 4.947 4.92 1.798 8.501 4.014z" fill="#15ABEB"/><path d="M17.665 69.79s-3.595-.891-5.298 1.582c-1.717 2.473-1.135 7.028-1.081 10.704.054 3.676-.081 11.312-.081 11.312l-1.703-.609s.365-4.676.284-9.838c-.082-5.15 0-10.272 1.202-12.258 1.203-1.987 4.947-2.352 4.947-2.352l1.73 1.46zM3.663 74.764c-.243-3.379-.013-4.77.852-6.42a10.726 10.726 0 013.811-4.067c.095-.217.19-.42.284-.636-.46-.243-.906-.608-1.162-.58-2.325.229-4.555 2.919-5.204 6.703-.513 2.973.379 7.65 1.42 11.339 1.202 4.324 1.567 5.23 1.567 8.19 0 .675 1.987 1.797 1.987 1.797s-.446-3.406-1.392-7.217c-.838-3.392-2.014-7.136-2.163-9.109z" fill="#15ABEB"/><path d="M21.935 90.766l.446 1.986s-5.622 3.825-11.095 2.217c-5.582-1.635-7.001-3.77-7.001-3.77l.824-2.555c.825.838 3.676 3.487 7.596 4.095 2.19.338 6.257-.649 9.23-1.973z" fill="#F4EBEA"/><path d="M7.218 110.484s.297 3.365 1.324 7.325c1.027 3.96 1.906 6.501 1.906 6.501s-.162-3.582-.933-7.636c-.77-4.055-2.297-6.19-2.297-6.19zm11.42-3.284s-.42 5.122-.176 8.987c.243 3.865 2.122 8.947 2.122 8.947s-.392-6.649-.473-10.19c-.081-3.528-1.473-7.744-1.473-7.744z" fill="#0093D1"/><path d="M23.057 76.832c1 1.108 2.203 2.608 2.77 4 .65 1.595 1.987 4.014 2.568 5.393 1.325.621 3.622 1.378 6.434 3.027 2.892 1.69 4.014 2.5 5.473 2.54 1.487.041 2.487.339 3.514.514 2.054.352.324 1.109-.284 1.19-.702.094-1.838.324-1.838.324s2.392 3.176 3.473 5.311c1.109 2.19-2.027 4.555-3.96 2.514-1.946-2.068-3.46-5.19-4.013-6.082-.54-.892-5.744-2.338-7.352-2.69-.5-.107-2.92-.634-3.433-.742-.825-.149-1.081-.622-1.933-1.46-.973-.96-1.176-1-3.365-3.784-1.879-2.392-3.095-3.447-3.852-6.528-.838-3.379 4.65-4.798 5.798-3.527z" fill="#FFC9B6"/><path d="M18.949 70.683c3.54.675 6.743 5.987 6.676 9.446.96 1.23-4.122 5.596-5.784 5.123-2.676-.352-5.136-4.014-5.893-7.893-.905-4.582 1.392-7.366 5-6.676z" fill="#EDEDED"/><path d="M25.625 80.143l.73 1.568s.27 1.27-1.595 2.905c-1.879 1.622-4.109 1.676-4.109 1.676l-.81-1.013s2.324-.608 3.824-1.892c1.514-1.284 1.96-3.244 1.96-3.244z" fill="#15ABEB"/><path d="M20.733 52.978c.283-.351.486-.73.527-1.095.148-1.108-1.622-1.392-2.717-1.121-1.554-2.5-5.554-3.406-7.811-1.109-2.325.325-3.771 1.487-4.217 3.771-.92 4.703.324 5.163 1.81 10.852 2.055.676 3.96-1.392 5.42-3.162.838-1.014 1.893-2.838 2.744-5.176 2.946 1.108 5.379.31 5.811-1.122.325-1.068-.54-1.676-1.567-1.838z" fill="#A76038"/><path d="M15.637 58.29s-2.216-1.528-2.568.635c-.35 2.162 1.757 2.905 1.757 2.905l.811-3.54z" fill="#FFC9B6"/><path d="M9.231 47.978c-.851-.055-1.702.297-2.189 1.04-.838 1.311-.068 2.582.243 3.014 1.136 1.568 3.298 1.176 4.325-.297 1.203-1.703-.595-3.636-2.379-3.757z" fill="#15ABEB"/><path d="M9.15 48.532c-1.324-.92-3.5-2.055-6.433-.487S-.216 54.29.244 56.681c.46 2.392 2.014 4.284 2.338 6.366.46 3-1.865 4.081-1.865 4.081s2.108 1.973 4.514-1.081c2.406-3.054 1.676-6.433 1.608-9.771-.08-3.338 2.5-4.298 3.109-5.136.608-.838.189-1.92-.798-2.608z" fill="#DB7942"/><path d="M46.898 23.8c-.203-.298-.5-.42-.838-.447.243-.324.378-.689.135-1.148-.176-.338-.554-.487-1.081-.298.419-.635-.068-1.784-1.095-1.365-.149-.702-1.19-1.189-1.635-.81.067-1.92-1.69-1.433-1.933-.555-.46-.256-1.257-.392-1.703 0-.324.284-.419.663-.392 1.027a1.187 1.187 0 00-.649.027c-.527.19-.662.609-.635 1.068a1.13 1.13 0 00-1.04.338c-.338.365-.352.92-.15 1.365a.99.99 0 00-.5.23c-.323.27-.391.662-.35 1.04a1.227 1.227 0 00-.879.027c-.676.298-.716 1.028-.595 1.676a1.17 1.17 0 00-1.04.392c-.365.42-.379 1-.203 1.5.284.311.527.757.622 1.122a.974.974 0 011-.149c.432.176.649.568.73.987a.543.543 0 01.635-.04c.243.135.338.35.365.594.554-.162 1.094-.04 1.5.527.203.27.189.622.054.946.432-.365 1.54-.148 1.487.825 1.162-.135 1.608.46 1.851 1.527.04 0 .081.013.122.013.324-.013.648-.175.878-.405.325-.324.433-.743.365-1.135.324-.027.635-.176.852-.433a1.31 1.31 0 00.297-.851c.446.162.865.108 1.014-.54.08-.352.067-.771-.041-1.163.703.216 1.406.19 1.608-.581.122-.446-.054-.933-.378-1.311.608-.135 1.19-.568 1.419-1.108.175-.392.121-.811-.176-1.122.149-.108.27-.257.379-.42.243-.404.283-.945 0-1.35z" fill="#52CBFF"/><path d="M38.694 32.679c.054-.973-1.054-1.176-1.487-.825.122-.324.135-.675-.054-.946-.419-.567-.946-.689-1.5-.527-.027-.243-.135-.46-.365-.595-.243-.135-.446-.094-.635.041-.081-.419-.284-.81-.73-.987a.974.974 0 00-1 .15 2.895 2.895 0 00-.622-1.123c0 .014.014.041.014.055a1.151 1.151 0 00-1.014.337c-.378.406-.365.96-.148 1.42-.338.121-.636.378-.717.77-.054.257.014.608.203.81-.378-.134-.797-.121-1.122.19-.446.419-.27 1.135-.08 1.743-.298-.108-.596-.135-.785.149-.189.297-.202.676-.121 1.027-.027-.013-.054-.013-.081-.027.256.135.486.297.58.473.244-.432.636-.743 1.163-.405.378.243.514.81.54 1.365.19-.23.447-.392.717-.27.23.108.297.324.297.58.46-.243.987-.364 1.406-.148.81.419.216 1.392-.23 2 .716-.527 1.608-.284 1.487.392.986.095 1.351.851 1.473 1.108a.998.998 0 00.486-.04c.514-.163.906-.676.838-1.257.946.027 1.703-.757 1.446-1.703.703-.081 1.338-.433 1.703-1.081.203-.365.27-.811.162-1.176-.216-1.04-.662-1.635-1.824-1.5z" fill="#EDEDED"/><path d="M103.164 150.623v4.676c0 .568.865 1.027 1.946 1.027 1.082 0 1.946-.459 1.946-1.027v-4.676h-3.892zm-18.488-10.812v4.676c0 .568.865 1.027 1.946 1.027 1.067 0 1.946-.459 1.946-1.027v-4.676h-3.892zm39.869-1.446v4.676c0 .568.865 1.027 1.946 1.027 1.068 0 1.946-.459 1.946-1.027v-4.676h-3.892z" fill="#352221"/><path d="M84 112.89l21.11 12.176 24.368-14.069-21.111-12.19L84 112.89z" fill="#EDDDDD"/><path d="M84 141.636l21.11 12.19 24.368-14.069-21.111-12.19L84 141.636z" fill="#DEC9C5"/><path d="M129.478 110.997v28.76l-24.368 14.069v-28.76l24.368-14.069z" fill="#C1AFAE"/><path d="M107.448 125.621l20.097-11.596v6.284l-20.097 11.596v-6.284zm0 7.946l20.097-11.595v17.042l-20.097 11.609v-17.056z" fill="#15ABEB"/><path d="M84 112.89v28.746l21.11 12.19v-28.76L84 112.89z" fill="#DBC7C6"/><path d="M113.746 124.012a.58.58 0 01.243-.459.2.2 0 01.149-.014h.014s.013 0 .013.014l1.244.743c.446.257 1.162.297 1.54.081l4.96-2.865c.095-.054.149-.108.149-.162 0-.054-.054-.176-.284-.311l-1.284-.743c-.054-.027-.081-.095-.081-.189 0-.176.108-.379.243-.46.054-.041.108-.027.163-.013l1.324.77c.405.243.649.581.649.932 0 .311-.19.609-.514.798l-4.96 2.865c-.27.162-.635.243-1.013.243-.433 0-.892-.108-1.257-.311l-1.19-.716c-.067-.04-.108-.095-.108-.203zm0 7.934c0-.176.108-.379.243-.46a.194.194 0 01.149-.013h.014s.013 0 .013.013l1.244.743c.446.257 1.162.298 1.54.081l4.96-2.865c.095-.054.149-.108.149-.162 0-.054-.054-.176-.284-.311l-1.284-.743c-.054-.027-.081-.095-.081-.189 0-.176.108-.379.243-.46.054-.04.108-.027.163-.013l1.324.77c.405.243.649.581.649.933 0 .31-.19.608-.514.797l-4.96 2.865c-.27.162-.635.243-1.013.243a2.67 2.67 0 01-1.257-.31l-1.19-.717c-.067-.027-.108-.094-.108-.202z" fill="#422C2A"/><path d="M86.433 141.649c-.19-.351-.379-.702-.46-1.094-.081-.338-.04-.703-.148-1.041-.028-.095-.15-.108-.203-.027-.42.689-.014 1.851.446 2.433.162.229.473-.041.365-.271zm2.027-.189c-.31-.297-.743-.594-1.19-.621-.121 0-.162.148-.094.229.27.325.649.541.946.852.243.243.392.635.743.716.081.013.163-.027.176-.108.122-.419-.297-.811-.581-1.068zm.946-23.57c-.379.04-.622.324-.946.514-.379.216-.797.351-1.162.594-.082.054-.095.23.027.257.689.095 2.054-.351 2.284-1.081.04-.135-.068-.298-.203-.284zm.297 1.257c-.094-.014-.175.081-.121.162.135.257.351.46.5.716.175.298.257.595.378.906.108.284.635.284.595-.081-.095-.662-.635-1.554-1.352-1.703zm-3.338-1.892c.068-.216-.243-.338-.365-.149-.54.852-.797 1.96-.567 2.96.08.365.675.284.662-.095-.068-.959-.04-1.797.27-2.716zm15.813 28.314a7.379 7.379 0 01-1.068 1.081c-.378.311-.811.568-1.135.946-.027.04-.014.095.04.095 1.027.013 2-.919 2.622-1.649.284-.325-.189-.798-.459-.473zm-.244 2.392c-.094-.027-.175.067-.148.148.121.379.378.69.554 1.028.162.31.216.608.554.743.067.027.175-.014.216-.081.297-.608-.608-1.636-1.176-1.838z" fill="#AF9B9A"/><path d="M123.693 106.159s-2.054-1.608-3.568-2.5c-1.513-.892-4.27-.527-4.27-.527s2.392 1.378 3.203 1.851c.797.46-.271 1.649-1.244 1.392-.973-.27-2.041-.973-2.365 0-.176.568.797.73 2.406 1.447a301.76 301.76 0 004.406 1.865l1.432-3.528z" fill="#619BF7"/><path d="M139.465 105.281s3.203-4.082 5.879-3.555c2.676.527 7.352 3.379 7.352 9.42 0 2.663-5.406.635-7.676 1.757-2.271 1.122-8.636 3.879-11.758 4.149s-12.596-7.352-12.596-7.352-.554-.46.622-2.527c1.175-2.055 1.865-2.311 1.865-2.311s3.946 1.513 5.27 2.5c1.325.987 4.231 2.351 4.231 2.351s2.27-2.446 3.703-3.324c1.432-.933 3.108-1.108 3.108-1.108z" fill="#EDEDED"/><path d="M141.533 148.177s4.244 1.297 5.325 2.73c1.081 1.433 1.594 2.581 1.811 4.365.202 1.771-.527 2.879-2.433 2.798-1.662-.068-2.5-.933-2.784-1.892 0 0-4.69-.5-7.082-2.163-2.419-1.662 1.216-6.284 5.163-5.838z" fill="#2C1D1B"/><path d="M128.991 126.067c3.757-.838 8.406.567 12.353 2.405.094 0 .189.027.284.081 4.73 2.271 14.325 4.636 15.542 5.677 1.919 4.676-.676 11.555-5.582 10.933-2.514 1.541-5.365 1.703-7.947.73.122.176 1.879 2.676 3.203 5.027-1.365.69-1.878 1.298-3.987 3.109-2.284-.919-5.743-3.933-7.69-5.406-1.946-1.473-8.609-8.69-8.609-14.785-2.459-2.298-1.919-6.812 2.433-7.771z" fill="#2C1D1B"/><path d="M128.221 152.461c.216-2.662 1.838-6.392 2.959-8.082 2.974-4.446 4.123-7.352 7.312-9.392 3.852-2.46 6.285 1.959 10.325 2.527.041-.027 4.217-1.676 4.514-1.825-.067.122.811 6.231-.648 9.488-1.338 2.987-4.568 3.433-8.312 3.541-1.514 2.608-3.892 4.46-4.554 4.797 1.162.919 2.486 1.582 4.459 3.447 2.839 2.676 6.352 5.662 9.785 7.987-.865.487-1.703 1.257-2.054 1.73-.527.703-.865 1.324-1.054 2.487-6.42-1.473-11.515-4.825-16.786-8.555-1.892-1.338-2.932-2.717-4.284-4.379-2.595-.446-2.487-3.014-1.662-3.771z" fill="#3F2A28"/><path d="M135.14 106.578l3.771 3.095c2.041-.73 3.581-3.122 4.46-5.433-.743-.595-3.379-2.108-3.568-2.906.784-2.19-.405-4.04-2.433-6.014-2.135-2.068-5.987-2.04-8.298-.216-.338.135-2.054 1.379-1.824 3.46.256 2.338 1.594 7.947 3.568 8.96 1.378.703 3-.446 4.324-.946z" fill="#FFC9B6"/><path d="M140.573 95.293c-.202-1.784-1.162-3.379-3.081-4.257-2.149-.987-6.001-1.122-7.731.81-.027-.067-.04-.134-.094-.188-.541-.69-1.419-.582-2.041-.109-.5.379-.865.933-1.108 1.541a1.762 1.762 0 00-1.149.014c-1.257.513-1.203 2.297-.757 3.324.919 2.15 4.311 4.501 6.798 3.906-.121 1.257.487 1.933 1.487 2.744 1.568 1.284 3.811 1.351 5.581.473 2.001-1 3.825-3.298 3.69-5.636-.054-1.068-.689-2.108-1.595-2.622z" fill="#2C1D1B"/><path d="M130.532 100.915s.459-1.46 1.838-.54c1.378.919-.271 3.649-.271 3.649l-1.567-3.109z" fill="#FFC9B6"/><path d="M143.695 103.227c-2.311 1-2.149 1.419-6.96 5.122s-5.054 5.879-4.622 8.176c.432 2.298.77 3.474 2.635 7.933 2.379 5.69 5.433 8.785 5.433 8.785s-1.635.5-2.378.96c-.744.459-.919 2.986-.095 3.77 2.365 2.23 12.42 6.096 20.002-3.365-.365-6.365-2.392-16.096-4.014-21.124-1.851-5.676-7.974-11.136-10.001-10.257z" fill="#EDEDED"/><path d="M129.383 143.65c-3.014 2.486-4.23 7.284-2.933 10.365 1.203 2.839 3.933 4.055 3.933 4.055s1.108-7.704 3.217-11.609c2.121-3.906 5.027-4.19 6.96-6.542 1.932-2.351.959-4.743.959-4.743l-5.257-7.028s-5.595 7.217-8.96 8.947c.405 2.824 2.149 5.23 2.081 6.555z" fill="#15ABEB"/><path d="M129.383 143.65s2.568-2.366 4.23-3.825c1.973-1.744 2.906-3.109 4.203-5.609.365-2.973-1.54-5.419-1.54-5.419s-2.257-.311-2.406 2.446c-.243 4.433-6.393 6.838-6.393 6.838s1.703 4.69 1.906 5.569z" fill="#F4EBEA"/><path d="M140.749 134.608s3 1.635 5.757 2.365c2.771.73 3.109.635 5.082 1.014-.77 0-5.068.432-6.839-.636-1.757-1.054-4-2.743-4-2.743zm9.393-1.311s-1.595 1.311-3.96 1.081c-2.365-.229-3.865-.513-3.865-.513s2.554-.73 3.865-.568c1.311.162 3.96 0 3.96 0z" fill="#EDEDED"/><path d="M150.764 162.503s3.486-.243 4.919 0c1.419.243 1.635 2.811 2.879 4.027 1.257 1.217 4.879 1.838 5.838 4.339.96 2.5-.797 6.379-3.054 5.419-3.717-1.568-11.218-7.825-11.218-7.825s-1.743-2.662.636-5.96z" fill="#2C1D1B"/><path d="M135.289 124.472s.824 5.365 1.689 6.838c1.69 2.906 3.676 2.447 3.771 2.514 0 0-.554-3.243-1.23-5.325-.676-2.081-1.716-5.608-1.716-5.608l-2.514 1.581zm0-14.866s2.892-.798 5.46 2.838c2.635 3.743 3.406 8.325 4.96 13.366 1.689 5.5 2.784 8.406 2.784 8.406l1.649-.932s-2.068-5.325-3.96-12.421c-.662-2.459-2.284-8.298-4.041-9.933-2.635-2.446-5.406-2.581-5.406-2.581l-1.446 1.257zm6.798-5.717s3.487.108 6.055 3.757c2.635 3.743 2.811 7.419 4.365 12.46 1.689 5.501 2.325 8.677 2.325 8.677l1.527-.865s-1.473-5.663-3.365-12.758c-.649-2.46-3.068-8.501-4.825-10.136-2.636-2.446-4.622-2.392-4.622-2.392l-1.46 1.257z" fill="#15ABEB"/><path d="M156.967 126.945s-5.568 4.73-9.123 5.906c-4.176 1.379-8.325.811-10.041-.378-.135.729 0 1.73 0 1.73s.689.77 2.946 1.459c2.257.689 5.757.122 8.758-1.257 3-1.378 7.676-4.906 7.676-4.906l-.216-2.554z" fill="#15ABEB"/><path d="M116.571 126.945c.838.243 1.486-1.243 2.176-3.987.703-2.743 1.311-4.216.311-4.419-1.001-.203-2.311.716-3.217 3.216-.892 2.514-.054 4.974.73 5.19z" fill="#627DF4"/><path d="M134.911 111.984c-1.879-.77-3.947.906-7.379 4.717-3.393 1.351-9.61 2.365-10.245 2.933-1.973 2.338-2.446 5.203 0 6.595.527.297 4.271 2.122 4.744 1.757 1.824.811 7.271-.244 8.731-3.014 1.473.554 4.906 1.432 7.879-3.69 1.527-2.608 1.216-7.257-3.73-9.298z" fill="#EDEDED"/><path d="M114.598 119.498c-.852-.892-4.285-2.486-5.514-3.446-1.514-1.189-2.352-1.838-3.393-2.257-1.608.257-3.243.325-5.027 1.298-2.055 1.121-4.487 3.419-5.393 5.676.77 1.419 1.865 2.081 2.933 2.838.865.622 2.46 1.122 3.365 1.649.973.581 1.649 1.324 2.811 2.581 2.906-.73 3.933-3.608 5.852-4.757.919-.554 4.649-1.96 4.366-3.582z" fill="#E52C2C"/><path d="M119.058 118.539s-2.703-.595-4.987-.757c-2.514-.189-4.974-.162-5.65-.459a23.758 23.758 0 01-1.554-1.838c-1.081-1.433-.838-2.528-1.432-2.433-.595.094-.582 1.068-.554 1.946.013.27.054.595.108.919-.217-.095-.419-.189-.609-.27-4.108-1.865-5.77-1.23-5.69 1.392.068 2.108 6.515 4.054 8.718 4.338 2.203 2.325 6.528 4.946 9.149 5.555-.581-1.136-.202-3.541.406-5.041.986-2.406 2.095-3.352 2.095-3.352z" fill="#619BF7"/></svg>