<svg width="578" height="190" fill="none" xmlns="http://www.w3.org/2000/svg"><path d="M93.42 154.722c-.542-.226-13.165-5.574-11.471-14.579.587-3.091 2.235-5.529 4.922-7.289a14.697 14.697 0 013.049-1.489c2.258-4.153 5.578-7.267 9.981-9.321.452-2.031 1.468-3.882 3.003-5.506 4.381-4.627 11.991-6.59 18.54-7.403.09-2.347.61-4.694 1.581-6.928 5.51-12.954-2.8-19.702-6.639-22.003-5.601-3.363-9.914-2.822-9.959-2.799l-.113-.767c.181-.023 4.607-.61 10.478 2.911 4.02 2.392 12.736 9.456 6.955 22.974a19.182 19.182 0 00-1.513 6.545c3.433-.384 6.526-.452 8.581-.452 14.678.068 24.908 6.703 25.969 12.796.384 2.189-.09 6.274-7.587 9.005-.791.293-1.603.519-2.439.699.113.384.203.745.271 1.129.723 4.084-1.536 7.921-6.165 10.516-4.019 2.257-8.92 2.866-13.82 2.392.023.136.023.271.023.407.113 3.182-2.258 5.709-6.684 7.131-10.388 3.317-22.763-1.219-28.724-7.515-3.32-3.521-4.426-7.335-3.117-10.765.249-.677.543-1.331.836-1.941-.745.316-1.445.677-2.077 1.106-2.507 1.625-4.065 3.904-4.585 6.77-1.58 8.396 10.885 13.677 10.998 13.722l-.294.654zm-2.958-22.748a23.475 23.475 0 00-1.197 2.64c-1.197 3.137-.135 6.68 2.958 9.953 5.69 6.003 17.975 10.516 27.934 7.334 4.132-1.309 6.255-3.52 6.142-6.341 0-.181-.023-.361-.045-.542-5.058-.609-10.094-2.347-14.204-4.581-4.945-2.708-8.671-6.071-10.704-9.569-4.155-.316-7.88.068-10.884 1.106zm36.469 12.322c4.833.496 9.62-.068 13.549-2.28 4.336-2.414 6.436-5.957 5.781-9.704a10.315 10.315 0 00-.271-1.128c-6.503 1.083-13.504-1.377-18.562-6.703a22.622 22.622 0 01-3.229-4.31c-9.913-1.038-17.749-.248-23.643 2.392-.181.925-.226 1.896-.158 2.911.09 1.535.587 3.092 1.423 4.649 2.303.203 4.742.587 7.248 1.196 9.349 2.235 16.711 7.651 17.862 12.977zm-24.614-13.338c2.01 3.205 5.51 6.297 10.117 8.802 3.952 2.144 8.784 3.836 13.662 4.468-1.22-4.423-7.52-9.817-17.207-12.141a44.97 44.97 0 00-6.572-1.129zm-2.596-7.966c-3.75 1.85-6.64 4.513-8.695 8.011 2.823-.835 6.188-1.151 9.914-.925-.768-1.512-1.197-3.024-1.287-4.536a11.9 11.9 0 01.067-2.55zm25.472-2.686a22.568 22.568 0 002.822 3.656c4.833 5.101 11.517 7.47 17.727 6.5-1.874-4.536-7.565-8.125-15.13-9.388a111.431 111.431 0 00-5.419-.768zm-.497-.835c1.942.203 3.929.497 6.029.835 7.926 1.332 13.865 5.146 15.785 10.02.813-.158 1.625-.406 2.416-.677 5.148-1.873 7.678-4.761 7.09-8.124-.993-5.777-10.929-12.074-25.201-12.141a69.934 69.934 0 00-8.603.451c-.023 3.295.813 6.59 2.484 9.636zm-3.275-9.568c-8.129 1.038-14.565 3.565-17.952 7.154-1.287 1.354-2.19 2.888-2.665 4.581 5.826-2.46 13.459-3.205 22.966-2.257-1.558-3.001-2.349-6.229-2.349-9.478z" fill="#593D3D"/><path d="M90.598 155.196c0-1.444.88-3.136 1.964-3.746.475-.271.926-.293 1.265-.09l1.016.542-.339.744c0 .091.023.181.023.271 0 1.377-.813 2.934-1.807 3.634l-.384.835-1.038-.587c-.43-.248-.7-.813-.7-1.603z" fill="#352221"/><path d="M95.588 153.504c0 1.444-.88 3.137-1.964 3.746-1.084.632-1.965-.045-1.965-1.489 0-1.445.88-3.137 1.965-3.747 1.084-.609 1.964.045 1.964 1.49z" fill="#472F2E"/><path d="M95.475 154.068c0 1.083-.655 2.347-1.468 2.821-.813.474-1.467-.023-1.467-1.106 0-1.083.654-2.347 1.467-2.821.813-.474 1.468.023 1.468 1.106z" fill="#5B3D3D"/><path d="M94.685 154.339c0-.181.113-.406.248-.474.045-.023.09-.045.136-.023l2.37 1.377c.182.113.25.339.136.519-.112.181-.338.248-.519.135l-2.28-1.331c-.069-.045-.091-.113-.091-.203zm-1.355 1.354c0-.181.113-.406.248-.474.045-.023.09-.045.136-.023l2.37 1.377c.181.113.25.339.136.519-.113.181-.338.248-.52.135l-2.28-1.331c-.068-.045-.09-.09-.09-.203z" fill="#EDDDDD"/><path d="M62.303 116.267l-3.546-2.008v.022c-.451-.248-1.06-.248-1.693.136-1.468.835-2.642 3.114-2.642 5.055 0 .948.293 1.647.745 2.008h.023c.067.068.158.091.248.136l3.5 1.986 3.365-7.335z" fill="#281818"/><path d="M63.296 118.433c0 1.941-1.197 4.221-2.642 5.056-1.468.835-2.642-.046-2.642-2.009 0-1.941 1.197-4.22 2.642-5.055 1.445-.835 2.642.068 2.642 2.008z" fill="#3F2A28"/><path d="M62.02 120.531c.484-1.135.355-2.277-.288-2.55-.643-.274-1.556.425-2.039 1.561-.483 1.135-.354 2.277.288 2.55.643.274 1.556-.425 2.04-1.561z" fill="#FF9E55"/><path d="M42.702 105.186l-3.545-2.008v.022c-.452-.248-1.062-.248-1.694.135-1.468.835-2.642 3.115-2.642 5.056 0 .947.294 1.647.745 2.008h.023c.067.068.158.09.248.136l3.5 1.986 3.365-7.335z" fill="#281818"/><path d="M43.696 107.352c0 1.941-1.197 4.221-2.643 5.056-1.467.835-2.664-.045-2.664-2.009 0-1.963 1.197-4.22 2.642-5.055 1.468-.835 2.665.045 2.665 2.008z" fill="#3F2A28"/><path d="M42.702 108.12c0 1.061-.655 2.302-1.445 2.776-.79.451-1.445-.023-1.445-1.106 0-1.061.654-2.302 1.445-2.776.813-.451 1.445.045 1.445 1.106z" fill="#FF9E55"/><path d="M94.436 94.873c0-4.83 2.936-10.45 6.572-12.548.926-.519 2.009-.79 2.868-.79.677 0 2.416.068 4.2 1.174 2.055 1.286 2.326 4.423 2.326 4.423l-7.362 14.895s-2.371 1.173-4.81-.181c-1.513-.835-2.439-2.212-2.845-2.956a13.409 13.409 0 01-.542-1.264c-.271-.79-.407-1.715-.407-2.753z" fill="#281818"/><path d="M110.56 89.005c0 4.83-2.936 10.449-6.572 12.548-3.635 2.098-6.571-.136-6.571-4.965 0-4.83 2.936-10.45 6.571-12.548 3.636-2.099 6.572.135 6.572 4.965z" fill="#3F2A28"/><path d="M109.769 89.976c0 3.588-2.19 7.763-4.877 9.32-2.688 1.557-4.878-.09-4.878-3.678 0-3.589 2.19-7.764 4.878-9.321 2.709-1.557 4.877.09 4.877 3.679z" fill="#FFC373"/><path d="M103.559 81.783c.994-.564 1.92-.857 2.801-.925v-8.62l-26.624 3.768c-2.575-.113-5.104.225-7.204 1.015l-39.743 5.62v19.476c-.226 2.189 1.264 4.536 4.403 6.341l12.894 7.448c5.352 3.091 13.526 3.43 18.156.744l29.085-16.61c-.339-.993-.52-2.143-.52-3.475-.022-5.913 2.326-12.21 6.752-14.782z" fill="#E8871C"/><path d="M105.298 81.738c1.039-.587 2.033-.903 2.936-.97v-9.072l-27.979 3.949c-2.71-.113-5.374.248-7.565 1.06l-41.776 5.913v16.43c-.226 2.302 1.333 4.761 4.63 6.657l13.549 7.831c5.622 3.25 14.203 3.611 19.081.79l27.91-16.113s.565-.294.791-.43v-.767c.316-6.003 3.952-12.705 8.423-15.278z" fill="#F2982C"/><path d="M108.211 71.132v-3.047s-.519.023-1.174.068c-.768-1.061-1.92-2.077-3.455-2.98l-13.55-7.83c-5.622-3.25-14.203-3.611-19.08-.79L34.165 77.789c-1.039.61-1.807 1.309-2.348 2.054l-.904-.203.023 2.527c-.204 2.28 1.355 4.74 4.629 6.635l13.549 7.831c5.623 3.25 14.204 3.588 19.081.79l36.786-21.236c2.303-1.332 3.342-3.16 3.229-5.055z" fill="#352221"/><path d="M68.174 94.353l36.785-21.236c4.878-2.798 4.246-7.763-1.377-11.013l-13.55-7.83c-5.622-3.25-14.203-3.612-19.08-.79L34.165 74.718c-4.878 2.799-4.245 7.764 1.377 11.014l13.55 7.83c5.622 3.228 14.203 3.589 19.08.79z" fill="#FFC373"/><path d="M48.934 71.154l25.382-14.647c3.365-1.94 9.281-1.692 13.165.542l9.35 5.394c1.783 1.015 2.8 2.302 3.093 3.565.451-1.715-.587-3.633-3.094-5.077l-9.349-5.394c-3.884-2.234-9.8-2.483-13.165-.542L48.934 69.642c-1.829 1.06-2.483 2.527-2.145 4.04.271-.971.949-1.851 2.145-2.528z" fill="#F2982C"/><path d="M49.883 77.224l9.349 5.394c3.884 2.234 9.8 2.483 13.165.542l25.381-14.647c1.197-.7 1.897-1.58 2.146-2.527-.294-1.264-1.31-2.528-3.094-3.566l-9.349-5.394c-3.884-2.234-9.8-2.482-13.165-.541L48.934 71.13c-1.196.7-1.896 1.58-2.145 2.528.294 1.263 1.31 2.55 3.094 3.565z" fill="#F9B858"/><path d="M60.925 89.772l26.76-15.436c3.545-2.054 3.093-5.642-.994-8.011l-9.846-5.688c-4.087-2.37-10.32-2.617-13.865-.564L36.221 75.51c-3.545 2.053-3.094 5.641.994 8.011l9.845 5.687c4.065 2.347 10.32 2.595 13.865.564z" fill="#EFDFDF"/><path d="M60.45 86.545l23.78-13.721c3.138-1.806 2.754-5.01-.881-7.11l-8.762-5.054c-3.636-2.099-9.19-2.325-12.33-.52L38.48 73.863c-3.139 1.805-2.755 5.01.88 7.109l8.762 5.055c3.636 2.099 9.191 2.324 12.33.519z" fill="#fff"/><path d="M40.082 75.08s5.194.497 9.236 3.205c4.02 2.709 8.852 7.2 8.852 7.2l1.423-.813s-5.217-5.439-9.236-7.65c-4.02-2.212-8.875-2.799-8.875-2.799l-1.4.858zm5.691-3.249s5.194.497 9.213 3.205c4.02 2.708 8.852 7.199 8.852 7.199l1.423-.813s-5.216-5.438-9.236-7.673c-4.02-2.211-8.875-2.798-8.875-2.798l-1.377.88zm5.667-3.362s5.195.496 9.214 3.204c4.02 2.686 8.852 7.2 8.852 7.2l1.423-.813s-5.216-5.439-9.236-7.673c-4.02-2.212-8.875-2.799-8.875-2.799l-1.377.88zm5.692-3.251s5.193.497 9.213 3.205 8.852 7.2 8.852 7.2l1.422-.813s-5.216-5.44-9.235-7.65c-4.02-2.212-8.875-2.8-8.875-2.8l-1.377.858zm5.69-3.226s5.194.496 9.213 3.204c4.02 2.708 8.852 7.2 8.852 7.2l1.423-.813s-5.216-5.44-9.236-7.673c-4.02-2.212-8.874-2.799-8.874-2.799l-1.378.88z" fill="#EFDFDF"/><path d="M83.281 95.211l11.268-6.5v-3.136l-11.268 6.5v3.136zm0 3.25l11.268-6.5v-1.58l-11.268 6.523v1.557z" fill="#352221"/><path d="M61.467 131.703c-7.136 0-13.526-2.211-19.24-6.612-4.719-3.634-7.248-7.967-7.496-12.819-.407-7.831 5.193-13.676 5.261-13.72a1.852 1.852 0 112.552 2.686c-.745.721-4.426 5.505-4.11 10.922.203 3.701 2.258 7.086 6.052 10.02 11.584 8.936 25.969 7.74 45.23-3.792 15.627-9.343 25.383-20.108 28.205-31.12 4.133-16.182-5.126-42.496-14.791-49.605-2.8-2.053-5.306-2.346-7.632-.925-3.794 2.347-8.559 5.62-12.059 8.012a225.164 225.164 0 01-3.726 2.527c-3.522 2.302-7.79 8.035-10.342 11.465-.43.587-.836 1.106-1.174 1.557a1.868 1.868 0 01-2.597.361 1.862 1.862 0 01-.362-2.595 53.99 53.99 0 001.152-1.535c2.868-3.859 7.226-9.704 11.29-12.367.769-.519 2.078-1.4 3.66-2.482 3.522-2.415 8.332-5.733 12.216-8.125 2.552-1.58 6.661-2.663 11.765 1.084 10.749 7.898 20.707 35.792 16.168 53.507-3.093 12.165-13.165 23.403-29.898 33.401-11.268 6.77-21.272 10.155-30.124 10.155z" fill="#593D3D"/><path d="M25.246 120.69L2.078 131.681l27.752 14.533-4.584-25.524z" fill="#C6AFAF"/><path d="M23.936 119.991L.768 131.004l27.752 14.511-4.584-25.524z" fill="#DBC7C6"/><path d="M.768 131.004L0 132.764l28.52 14.985.723.316.587-1.851-29.062-15.21z" fill="#C6AFAF"/><path d="M73.323 46.555s-4.697 5.281-7.294 8.757c-1.649 2.211-6.436 8.981-6.436 8.981l4.697 3.386s4.72-6.906 6.684-9.411c1.423-1.806 6.73-7.899 6.73-7.899s-1.017-3.814-4.381-3.814z" fill="#352221"/><path d="M64.335 67.566c-.361.541-1.739.27-3.071-.632-1.332-.903-2.1-2.054-1.739-2.595.361-.542 1.739-.271 3.071.632 1.333.88 2.1 2.053 1.74 2.595z" fill="#472F2E"/><path d="M63.364 67.16c-.226.338-1.106.18-1.964-.407-.859-.564-1.333-1.309-1.107-1.67.226-.338 1.107-.18 1.965.407.835.564 1.332 1.309 1.106 1.67z" fill="#DBC7C6"/><path d="M60.305 65.064l-44.101 64.127 3.052 2.096 44.1-64.126-3.051-2.097z" fill="#DBC7C6"/><path d="M28.52 145.515l-.632 1.895 1.355.655.587-1.851-1.31-.699z" fill="#B29A9A"/><path d="M86.578 59.17c.655 0 1.174.271 1.174.61 0 .338-.52.61-1.174.61-.632 0-1.174-.272-1.174-.61 0-.339.542-.61 1.174-.61zm-3.41-1.985c.655 0 1.174.27 1.174.609 0 .338-.519.61-1.174.61-.655 0-1.174-.272-1.174-.61 0-.339.52-.61 1.174-.61zm13.482 7.583c.654 0 1.174.27 1.174.609 0 .338-.52.61-1.175.61-.632 0-1.174-.272-1.174-.61 0-.339.542-.61 1.174-.61zm-3.433-1.986c.655 0 1.174.27 1.174.61 0 .338-.52.608-1.174.608-.655 0-1.174-.27-1.174-.609.022-.338.542-.61 1.174-.61zm-3.41-1.986c.655 0 1.174.27 1.174.609 0 .338-.519.61-1.174.61-.632 0-1.174-.272-1.174-.61 0-.339.52-.61 1.174-.61zm-10.094-5.597c.655 0 1.174.27 1.174.609 0 .339-.519.61-1.174.61-.632 0-1.174-.271-1.174-.61 0-.339.542-.61 1.174-.61zm-4.81 2.279l8.536 4.92 1.807-1.039-8.536-4.92-1.807 1.039zm10.14 5.98l8.535 4.92 1.807-1.038-8.536-4.942-1.806 1.06z" fill="#3F2A28"/><path d="M297.038 178.193l-.293-.948c.158-.045 13.526-4.401 19.826-14.602-3.816-.316-7-1.376-9.552-2.911-5.352-.587-9.755-2.415-11.81-5.236-1.4-1.918-1.49-4.084-.248-6.251 1.219-2.121 3.274-3.678 5.668-4.626 1.829-4.198 6.526-7.628 14.497-7.696h.339c11.02 0 15.536 5.326 16.033 9.907.564 5.078-3.387 11.171-12.036 13.157a27.329 27.329 0 01-1.22 2.754h.046c13.842.338 21.791-4.875 23.597-10.133 1.31-3.859-.496-7.921-4.945-11.194-2.439-1.783-5.239-3.204-8.197-4.716-6.933-3.521-14.091-7.154-17.93-16.024-3.794-8.801-.79-30.872 8.92-65.581 4.042-14.466.068-23.832.022-23.922l.904-.406c.18.383 4.177 9.749.022 24.599-12.036 42.968-11.516 59.037-8.965 64.927 3.681 8.53 10.681 12.096 17.456 15.526 3.003 1.512 5.826 2.957 8.333 4.785 4.832 3.543 6.751 8.011 5.306 12.299-1.897 5.62-10.252 11.149-24.546 10.81-.181 0-.384 0-.565-.022-6.435 10.9-20.504 15.458-20.662 15.504zm12.443-18.258c2.168.948 4.719 1.603 7.632 1.783.429-.79.836-1.602 1.175-2.46-3.004.564-6.007.79-8.807.677zm-2.191-1.151c3.388.361 7.272.226 11.381-.632 2.078-6.183.317-11.08-4.877-13.45-3.591-1.647-8.491-1.783-12.42-.338a10.2 10.2 0 00-.7 3.565c-.023 3.972 2.258 8.147 6.616 10.855zm-7.158-13.901c-1.852.88-3.387 2.189-4.358 3.881-1.039 1.828-.971 3.566.203 5.168 1.49 2.031 4.787 3.724 9.168 4.536-3.613-2.866-5.465-6.793-5.442-10.561 0-1.016.135-2.031.429-3.024zm7.113-2.483c2.462 0 4.9.474 6.955 1.399 5.555 2.551 7.565 7.651 5.601 14.083 7.677-1.986 11.2-7.425 10.703-11.939-.474-4.197-4.697-9.027-15.062-9.027h-.316c-6.932.068-11.223 2.776-13.165 6.251 1.671-.519 3.5-.767 5.284-.767z" fill="#593D3D"/><path d="M298.867 178.892c0-1.467-.903-3.182-1.987-3.814-.497-.293-.948-.293-1.287-.09l-1.039.587.339.767c0 .09-.023.181-.023.271 0 1.399.813 2.979 1.852 3.678l.384.835 1.061-.586c.429-.271.7-.835.7-1.648z" fill="#352221"/><path d="M293.809 177.177c0 1.467.903 3.182 1.987 3.814 1.107.632 1.987-.045 1.987-1.512s-.903-3.182-1.987-3.814c-1.084-.632-1.987.045-1.987 1.512z" fill="#472F2E"/><path d="M293.922 177.764c0 1.106.677 2.369 1.49 2.866.836.474 1.491-.023 1.491-1.129 0-1.105-.678-2.369-1.491-2.866-.813-.496-1.49.023-1.49 1.129z" fill="#5B3D3D"/><path d="M294.735 178.035c0-.181-.113-.407-.248-.474-.046-.023-.091-.045-.136-.023l-2.394 1.377c-.18.113-.248.338-.135.519.113.18.339.248.519.135l2.326-1.354a.268.268 0 00.068-.18zm1.378 1.376c0-.18-.113-.406-.249-.474-.045-.022-.09-.045-.135-.022l-2.394 1.376c-.181.113-.248.339-.136.519.113.181.339.249.52.136l2.326-1.354a.278.278 0 00.068-.181z" fill="#EDDDDD"/><path d="M236 118.817v15.459c0 8.169 12.442 14.782 27.798 14.782 15.356 0 27.798-6.613 27.798-14.782v-15.459H236z" fill="#352221"/><path d="M263.798 142.671c-15.356 0-27.798-6.612-27.798-14.782v2.302c0 8.17 12.442 14.782 27.798 14.782 15.356 0 27.798-6.612 27.798-14.782v-2.302c0 8.17-12.442 14.782-27.798 14.782z" fill="#1798CF"/><path d="M322.014 28.05s-2.891 8.327-6.91 16.948c-4.043 8.598-10.84 11.735-21.137 7.131-10.297-4.603 10.93-34.46 10.93-34.46l17.117 10.38z" fill="#352221"/><path d="M263.798 104.712c-15.356 0-27.798 6.612-27.798 14.782 0 8.169 12.442 14.782 27.798 14.782 15.356 0 27.798-6.613 27.798-14.782 0-8.147-12.442-14.782-27.798-14.782z" fill="#472F2E"/><path d="M287.599 112.746c-2.732-5.642-12.352-9.794-23.801-9.794-11.449 0-21.069 4.175-23.801 9.794h-.813v3.272c0 7.222 11.02 13.09 24.614 13.09 13.594 0 24.614-5.868 24.614-13.09v-3.272h-.813z" fill="#1798CF"/><path d="M263.798 99.34c-13.594 0-24.614 5.868-24.614 13.09 0 7.222 11.02 13.089 24.614 13.089 13.594 0 24.614-5.867 24.614-13.089s-11.02-13.09-24.614-13.09z" fill="#4DBAF2"/><path d="M252.53 109.79c-3.546-2.031-5.194-3.814-5.171-5.619 0-2.054 2.122-3.476 3.951-4.514 1.671-.925 3.636-1.783 5.578-2.64 3.026-1.332 6.165-2.686 7.791-4.22 3.206-2.98 3.635-4.198 4.742-9.614 1.58-7.877 8.716-8.689 8.807-8.712l.158 1.467c-.249.023-6.143.745-7.497 7.515-1.129 5.642-1.694 7.177-5.172 10.404-1.806 1.693-4.922 3.047-8.197 4.491-1.897.813-3.839 1.67-5.442 2.573-2.145 1.196-3.184 2.257-3.184 3.227 0 .835.768 2.257 4.426 4.333l-.79 1.309z" fill="#fff"/><path d="M279.425 141.723c0-4.401 2.664-9.501 5.961-11.397.836-.474 1.829-.722 2.597-.722.61 0 2.19.068 3.816 1.061 1.875 1.151 2.123 3.791 2.123 3.791l-6.707 13.767s-2.168 1.06-4.381-.158c-1.377-.745-2.213-2.009-2.596-2.686a9.028 9.028 0 01-.497-1.151 9.934 9.934 0 01-.316-2.505z" fill="#281818"/><path d="M294.103 136.397c0 4.401-2.665 9.501-5.962 11.397-3.297 1.895-5.962-.113-5.962-4.514s2.665-9.501 5.962-11.397c3.274-1.895 5.962.136 5.962 4.514z" fill="#3F2A28"/><path d="M293.403 136.984c0 3.881-2.349 8.372-5.262 10.065-2.913 1.67-5.261-.113-5.261-3.972 0-3.882 2.348-8.373 5.261-10.065 2.891-1.693 5.262.09 5.262 3.972z" fill="#1798CF"/><path d="M291.912 138.518c0 1.919-1.174 4.153-2.619 4.988-1.446.835-2.62-.045-2.62-1.964 0-1.918 1.174-4.152 2.62-4.987 1.467-.835 2.619.045 2.619 1.963z" fill="#fff"/><path d="M290.117 52.269l-21.381 49.551 8.211 3.539 21.382-49.551-8.212-3.54z" fill="#352221"/><path d="M282.857 108.255l-20.956 12.119-14.43-8.463 20.934-12.141 14.452 8.485z" fill="#352221"/><path d="M249.797 104.915c-1.874 1.286-2.348 4.739-2.348 6.996 2.348 0 10.071-2.753 10.071-2.753l-1.309-3.115-6.414-1.128z" fill="#352221"/><path d="M282.857 102.591l-3.523 5.01-15.084 5.777-14.453-8.463 18.608-10.787 14.452 8.463z" fill="#543A3A"/><path d="M282.857 102.591s.655.609.655 2.527v2.731l-5.262 3.069 1.445-4.536 3.162-3.791z" fill="#472F2E"/><path d="M282.857 102.591s-16.643 9.704-18.607 10.787c-1.965 1.083-2.349 4.694-2.349 6.996 3.252-1.873 21.611-12.525 21.611-12.525l-.655-5.258z" fill="#472F2E"/><path d="M258.491 97.4v5.552c0 2.55 3.884 4.603 8.672 4.603 4.787 0 8.671-2.053 8.671-4.603V97.4h-17.343z" fill="#1798CF"/><path d="M267.163 92.796c-4.788 0-8.672 2.054-8.672 4.604 0 2.55 3.884 4.604 8.672 4.604 4.787 0 8.671-2.054 8.671-4.604.023-2.55-3.861-4.604-8.671-4.604z" fill="#4DBAF2"/><path d="M275.428 118.794c-4.901 0-9.801-1.963-10.072-2.076a.738.738 0 01-.406-.97.74.74 0 01.971-.407c.068.023 7.587 3.025 12.894 1.535 5.871-1.647 8.807-5.078 7.836-9.162-.384-1.67-1.197-3.047-1.92-4.266-.813-1.376-1.58-2.685-1.535-4.13.135-4.716 2.506-7.853 4.064-9.907.407-.541.768-1.015 1.039-1.467 2.462-3.994 1.174-8.102 1.152-8.147a.724.724 0 01.474-.925.726.726 0 01.926.474c.068.203 1.513 4.807-1.31 9.388-.293.474-.677.993-1.129 1.58-1.535 2.031-3.636 4.807-3.771 9.072-.023 1.016.61 2.099 1.332 3.34.768 1.309 1.649 2.776 2.078 4.672 1.129 4.874-2.258 9.049-8.875 10.922-1.174.339-2.461.474-3.748.474z" fill="#fff"/><path d="M311.694 22.249c-1.717-1.964-4.065-3.273-4.065-3.273s-.339-.248-.903-.564c-2.71-1.783-6.391-2.843-6.391-2.843s-12.375 21.394-16.688 31.933c-3.274 8.011-9.552 27.081-9.552 27.081s-.045 9.727.881 13c.022.18.045.36.09.54.587 3.476 3.026 5.01 5.623 3.521 1.084-.609 2.394-1.444 3.997-2.595 6.345-4.559 13.075-19.476 17.365-30.015 4.313-10.54 13.007-30.038 13.007-30.038s-1.671-4.761-3.364-6.747z" fill="#1798CF"/><path d="M308.937 20.94c-1.716-1.963-4.042-3.294-4.042-3.294s-2.258-1.557-4.539-2.099c-2.28-.542-6.413.587-6.413.587s-6.165 15.075-10.478 25.592c-4.313 10.539-10.049 26.065-9.258 35.092.203 2.28.429 4.108.677 5.53.587 3.475 3.026 5.01 5.623 3.52 1.084-.61 2.394-1.444 3.997-2.595 6.345-4.559 13.075-19.476 17.365-30.015 4.313-10.54 10.478-25.592 10.478-25.592s-1.693-4.762-3.41-6.725z" fill="#4DBAF2"/><path d="M331.588 36.377l-13.21-7.402-2.281 3.791 13.572 7.786 1.919-4.175z" fill="#1798CF"/><path d="M332.107 37.596c0 1.105-.677 2.392-1.512 2.866-.836.474-1.513-.023-1.513-1.129 0-1.105.677-2.392 1.513-2.866.858-.496 1.512.023 1.512 1.129z" fill="#4DBAF2"/><path d="M296.993 16.382l-13.278-7.605-2.055 4.107 13.391 7.673 1.942-4.175z" fill="#1798CF"/><path d="M284.212 9.95c0 1.106-.678 2.392-1.513 2.866-.836.474-1.513-.022-1.513-1.128 0-1.106.677-2.392 1.513-2.866.835-.474 1.513.022 1.513 1.128z" fill="#1798CF"/><path d="M321.923 28.704l.045.361-11.449-6.635-14.678-8.508s-4.945 3.07-7.723 6.387c-.225.27-.406.519-.564.79l-.858-.046v2.957c.068 1.85 1.242 3.543 2.484 4.965 2.032 2.302 8.807 6.228 12.645 7.312 3.839 1.083 8.785 1.986 13.82-.023 5.036-2.008 9.53-5.348 9.53-5.348v-2.64l-3.252.428z" fill="#352221"/><path d="M325.196 28.275l-14.678-8.508-14.678-8.508s-4.945 3.07-7.723 6.387c-2.777 3.295-.948 6.341 1.084 8.643 2.033 2.302 8.807 6.23 12.646 7.312 3.839 1.084 8.784 1.986 13.82-.022 5.013-1.964 9.529-5.304 9.529-5.304z" fill="#472F2E"/><path d="M490.278 189.428c-12.239 0-24.975-6.297-28.814-10.855-3.41-4.04-4.403-9.343-2.529-13.518.655-1.467 1.626-2.754 2.913-3.859a5.04 5.04 0 01.407-.768c.835-1.399 1.896-2.663 3.138-3.791-1.354-1.264-2.213-2.573-2.348-4.017-.181-1.964 1.016-3.95 3.636-6.048 6.119-4.92 17.275-1.896 26.285 4.536 6.797 1.399 12.894 4.513 17.094 8.891 13.278 1.648 27.053 2.641 37.666-.361 16.823-4.761 26.308-10.652 28.205-17.467 1.174-4.243-.61-8.959-5.307-13.992-8.13-8.689-22.153-7.177-22.311-7.154l-.09-.767c.135-.023 14.565-1.58 22.965 7.402 4.901 5.258 6.752 10.201 5.488 14.737-1.965 7.086-11.652 13.157-28.747 18.009-10.523 2.979-24.004 2.098-37.079.496.136.158.249.294.384.452 4.833 5.845 6.504 10.787 5.149 15.075-1.626 5.145-7.543 9.072-18.111 12.028-2.551.655-5.261.971-7.994.971zm-28.972-26.653c-.7.79-1.242 1.648-1.671 2.573-1.739 3.904-.79 8.892 2.416 12.706 4.584 5.461 22.198 13.427 36.041 9.568 10.139-2.821 16.055-6.68 17.568-11.509 1.242-3.972-.429-8.802-5.013-14.353a14.752 14.752 0 00-.971-1.083c-2.619-.316-5.216-.678-7.768-1.016 4.742 6.387 5.216 12.435 1.129 16.497-8.265 8.215-27.482 3.814-36.402-3.16-4.155-3.249-6.006-6.86-5.329-10.223zm1.174-1.128c-2.009 4.581 1.988 8.643 4.652 10.742 8.694 6.793 27.392 11.149 35.363 3.227 3.907-3.881 3.252-9.817-1.671-16.09l-.542-.068c-8.852-1.219-17.207-2.347-23.259-2.167-2.981.091-5.645.474-7.949 1.106 1.762 1.129 3.839 2.257 5.939 3.385 4.291 2.325 8.739 4.74 11.63 7.696l-.565.542c-2.8-2.867-7.203-5.236-11.449-7.538-2.348-1.264-4.629-2.505-6.548-3.791-2.259.722-4.133 1.715-5.601 2.956zm3.478-4.536a17.55 17.55 0 00-2.529 2.843c1.129-.722 2.393-1.331 3.839-1.828-.452-.338-.904-.654-1.31-1.015zm35.272 1.692c2.484.339 5.014.677 7.565 1.016-3.68-3.543-8.716-6.161-14.316-7.583a42.615 42.615 0 015.51 5.123c.451.474.858.97 1.241 1.444zm-22.875-2.302c5.917 0 13.617 1.039 21.746 2.144-.225-.248-.451-.519-.677-.767-1.987-2.212-4.336-4.288-6.865-6.071a39.601 39.601 0 00-10.749-.654c-6.232.474-11.539 2.392-15.242 5.461.496.407 1.038.813 1.648 1.219 2.529-.767 5.465-1.219 8.784-1.309.429-.023.881-.023 1.355-.023zm-3.997-11.577c-2.8 0-5.284.677-7.203 2.234-2.394 1.941-3.5 3.679-3.342 5.372.113 1.241.903 2.437 2.168 3.565 3.838-3.227 9.326-5.235 15.784-5.732a41.95 41.95 0 019.236.361c-5.465-3.52-11.539-5.8-16.643-5.8z" fill="#593D3D"/><path d="M483.662 170.584c0-1.444.881-3.137 1.965-3.746.474-.271.926-.294 1.264-.091l1.016.587-.338.745c0 .09.022.18.022.271 0 1.376-.813 2.934-1.806 3.633l-.384.835-1.039-.587c-.429-.293-.7-.857-.7-1.647z" fill="#352221"/><path d="M488.653 168.891c0 1.445-.881 3.137-1.965 3.746-1.084.632-1.965-.045-1.965-1.489 0-1.444.881-3.137 1.965-3.746 1.084-.61 1.965.045 1.965 1.489z" fill="#472F2E"/><path d="M488.54 169.455c0 1.084-.655 2.347-1.468 2.821-.813.474-1.468-.022-1.468-1.105 0-1.084.655-2.348 1.468-2.821.813-.474 1.468.022 1.468 1.105z" fill="#5B3D3D"/><path d="M487.75 169.726c0-.18.112-.406.248-.474.045-.022.09-.045.135-.022l2.371 1.376c.181.113.249.339.136.519-.113.181-.339.249-.519.136l-2.281-1.332c-.068-.045-.09-.112-.09-.203zm-1.355 1.354c0-.18.112-.406.248-.474.045-.022.09-.045.135-.022l2.372 1.376c.18.113.248.339.135.519-.113.181-.339.249-.519.136l-2.281-1.332c-.068-.045-.09-.09-.09-.203z" fill="#EDDDDD"/><path d="M545.4 66.005v50.416c0 .519.813.948 1.807.948s1.806-.429 1.806-.948V66.005H545.4z" fill="#3D2828"/><path d="M547.184 65.057c-.993 0-1.806.429-1.806.948 0 .519.813.948 1.806.948.994 0 1.807-.43 1.807-.948 0-.52-.813-.948-1.807-.948z" fill="#593D3D"/><path d="M545.897 65.847h2.529V52.442c0-4.672-2.89-10.133-6.435-12.187l-13.414-7.74c-1.806-1.039-3.59-1.152-5.058-.294-1.694.97-2.642 3.07-2.642 5.777v61.813h2.529v-61.79c0-1.738.519-3.092 1.377-3.588.655-.361 1.558-.249 2.529.293l13.414 7.74c2.8 1.626 5.171 6.184 5.171 9.998v13.383z" fill="#fff"/><path d="M547.162 66.524c.698 0 1.264-.303 1.264-.677 0-.374-.566-.677-1.264-.677-.699 0-1.265.303-1.265.677 0 .374.566.677 1.265.677z" fill="#fff"/><path d="M553.62 120.777s0 5.235-2.484 6.793c-2.552 1.579-7.723-9.185-7.723-9.185l9.733 1.128.474 1.264z" fill="#2B1B1A"/><path d="M513.109 152.778c0-2.663 1.626-5.778 3.635-6.928.497-.294 1.107-.452 1.581-.452a4.45 4.45 0 012.326.655c1.152.699 1.287 2.302 1.287 2.302l-4.065 8.35s-1.309.654-2.664-.091c-.836-.451-1.355-1.218-1.581-1.647a8.28 8.28 0 01-.294-.7 4.71 4.71 0 01-.225-1.489z" fill="#281818"/><path d="M522.029 149.55c0 2.663-1.626 5.778-3.636 6.929-2.01 1.151-3.636-.068-3.636-2.731s1.626-5.777 3.636-6.928c2.01-1.174 3.636.045 3.636 2.73z" fill="#3F2A28"/><path d="M520.673 150.589c0 1.467-.88 3.159-1.987 3.791-1.106.632-1.987-.045-1.987-1.489 0-1.467.881-3.16 1.987-3.792 1.107-.632 1.987.045 1.987 1.49z" fill="#fff"/><path d="M520.335 145.737h-2.371v6.883c0 .451.135.767.361.925l.813.429.723-.858-.204-.09c.384-.474.655-1.151.655-1.783v-5.506h.023z" fill="#C6ADAC"/><path d="M518.686 145.737v7.267c0 .88.52 1.263 1.175.902.654-.383 1.174-1.376 1.174-2.256v-5.891h-2.349v-.022z" fill="#DBC7C6"/><path d="M482.759 134.927c0-2.663 1.626-5.778 3.635-6.929.497-.293 1.107-.451 1.581-.451.384 0 1.332.045 2.326.654 1.152.7 1.287 2.302 1.287 2.302l-4.064 8.35s-1.31.655-2.665-.09c-.836-.451-1.355-1.219-1.581-1.647a8.059 8.059 0 01-.293-.7 4.684 4.684 0 01-.226-1.489z" fill="#281818"/><path d="M491.656 131.677c0 2.663-1.626 5.777-3.636 6.928-2.009 1.151-3.635-.067-3.635-2.73s1.626-5.778 3.635-6.929c2.033-1.151 3.636.068 3.636 2.731z" fill="#3F2A28"/><path d="M490.324 132.737c0 1.467-.881 3.16-1.987 3.792-1.107.632-1.988-.045-1.988-1.49 0-1.467.881-3.159 1.988-3.791 1.106-.632 1.987.022 1.987 1.489z" fill="#fff"/><path d="M489.962 127.863h-2.371v6.883c0 .451.136.767.362.925l.813.429.722-.858-.203-.09c.384-.474.655-1.151.655-1.783v-5.506h.022z" fill="#C6ADAC"/><path d="M488.336 127.863v7.267c0 .88.52 1.263 1.175.902.655-.361 1.174-1.376 1.174-2.256v-5.891h-2.349v-.022z" fill="#DBC7C6"/><path d="M539.619 132.806c0-4.424 2.688-9.569 6.007-11.487.836-.474 1.829-.723 2.62-.723.632 0 2.213.068 3.861 1.084 1.897 1.173 2.123 4.062 2.123 4.062l-6.73 13.631s-2.167 1.06-4.403-.158c-1.4-.768-2.236-2.009-2.62-2.708-.158-.316-.429-.926-.496-1.151a8.68 8.68 0 01-.362-2.55z" fill="#281818"/><path d="M554.388 127.435c0 4.423-2.687 9.568-6.007 11.486-3.319 1.919-6.006-.112-6.006-4.536 0-4.423 2.687-9.568 6.006-11.487 3.32-1.918 6.007.113 6.007 4.537z" fill="#3F2A28"/><path d="M552.175 129.172c0 2.415-1.468 5.236-3.297 6.296-1.829 1.061-3.297-.067-3.297-2.482s1.468-5.236 3.297-6.296c1.806-1.039 3.297.067 3.297 2.482z" fill="#fff"/><path d="M551.881 129.984c0 1.648-1.016 3.589-2.258 4.311s-2.258-.045-2.258-1.693c0-1.647 1.016-3.588 2.258-4.31 1.264-.745 2.258.022 2.258 1.692z" fill="#3F2A28"/><path d="M516.27 49.824c-.09 0-.158 0-.248-.023-1.22-.135-2.123-1.241-1.988-2.46.181-1.737.384-3.453.588-5.1.948-8.328 1.874-16.204.745-19.047-1.513-3.882-5.939-13.766-5.984-13.88-.497-1.128 3.59-2.956 4.087-1.827.181.406 4.516 10.088 6.074 14.06 1.536 3.881.655 11.531-.474 21.19-.181 1.648-.384 3.34-.564 5.078a2.266 2.266 0 01-2.236 2.009z" fill="#fff"/><path d="M540.613 131.903l-1.377-5.033-21.633-12.48c-3.862-2.234-9.778-2.482-13.12-.542l-17.388 10.043v-.181h-5.804v5.8h.023c.135 1.4 1.197 2.844 3.184 3.995l24.185 13.969c3.861 2.234 9.778 2.483 13.12.542l18.855-10.878a10.61 10.61 0 01-.271-2.482c-.022-.925.068-1.851.226-2.753z" fill="#352221"/><path d="M515.796 102.497c-.994.226-1.897.542-2.665.97l-29.604 17.129c-3.342 1.941-2.913 5.349.948 7.561l24.185 13.969c3.861 2.234 9.778 2.482 13.12.542l18.856-10.765c0-1.512 2.213-12.909 2.574-13.428l-27.55-15.91.136-.068z" fill="#472F2E"/><path d="M515.164 102.316l2.98-14.15-2.98-1.715s-2.101 1.219-6.323 3.656c-4.223 2.438-5.33 2.573-8.288 8.802-2.529 5.348-5.126 13.134-5.803 15.188l2.981 1.715 17.433-13.496z" fill="#593D3D"/><path d="M518.167 104.031V88.166s-2.1 1.219-6.323 3.656c-4.223 2.438-5.329 2.573-8.287 8.802-2.529 5.348-5.126 13.134-5.804 15.188l20.414-11.781z" fill="#352221"/><path d="M513.583 105.904c-11.382 0-20.617-4.897-20.617-10.968v29.181c0 6.048 9.235 10.968 20.617 10.968 11.381 0 20.617-4.898 20.617-10.968V94.959c0 6.048-9.236 10.945-20.617 10.945z" fill="#fff"/><path d="M492.966 94.96c0 6.047 9.235 10.967 20.617 10.967 11.381 0 20.617-4.897 20.617-10.968V65.892h-41.234V94.96z" fill="#352221"/><path d="M492.966 91.845c0 6.048 9.235 10.968 20.617 10.968 11.381 0 20.617-4.898 20.617-10.968V62.8h-41.234v29.045z" fill="#4DBAF2"/><path d="M513.583 124.094c-11.382 0-20.617-4.897-20.617-10.968v1.761c0 6.048 9.235 10.967 20.617 10.967 11.381 0 20.617-4.897 20.617-10.967v-1.761c0 6.071-9.236 10.968-20.617 10.968z" fill="#CCB5B4"/><path d="M513.583 117.73c-11.382 0-20.617-4.897-20.617-10.968v1.76c0 6.049 9.235 10.968 20.617 10.968 11.381 0 20.617-4.897 20.617-10.968v-1.76c0 6.071-9.236 10.968-20.617 10.968z" fill="#CCB5B4"/><path d="M544.452 117.685l9.168-9.14-2.981-1.715s-2.1 1.218-6.323 3.656c-4.222 2.437-5.329 2.573-8.287 8.801-2.529 5.349-5.126 13.135-5.804 15.188l2.981 1.715 6.323-4.897 4.923-13.608z" fill="#593D3D"/><path d="M534.584 50.253c0-.068-.023-.136-.023-.203v.383c0-.045.023-.113.023-.18z" fill="#352221"/><path d="M501.569 93.425l-9.123-5.28v-8.938l9.123 5.281v8.937z" fill="#3D2828"/><path d="M495.743 77.357l-3.297 1.85 9.123 5.281 3.297-1.85-9.123-5.281z" fill="#593D3D"/><path d="M501.569 84.488v8.937l3.297-1.85v-8.938l-3.297 1.851zm46.225 35.905c2.349-1.354 4.449-1.106 5.826.384v-12.232s-2.1 1.219-6.323 3.656c-4.223 2.437-5.329 2.573-8.287 8.802-2.529 5.348-5.126 13.134-5.804 15.188l7.385-4.266c.88-4.761 3.771-9.546 7.203-11.532z" fill="#352221"/><path d="M480.907 113.6c-1.852 0-4.968-1.264-6.639-8.869-1.671-7.537 1.987-16.61 5.533-25.388 3.138-7.809 6.413-15.866 5.871-22.636l-.136-1.625c-1.513-19.52-3.093-39.696 3.704-48.001C494.592.536 499.627-.322 502.924.085c4.155.541 7.836 3.43 9.823 7.74.339.745-2.371 1.986-2.71 1.242-1.535-3.318-4.403-5.642-7.497-6.026-3.635-.474-7.452 1.58-10.997 5.913-6.052 7.38-4.516 26.968-3.049 45.88l.136 1.625c.587 7.47-2.8 15.865-6.097 23.99-3.523 8.733-6.865 16.993-5.397 23.628 1.084 4.942 2.71 6.567 3.794 6.544 1.648-.113 3.771-3.385 4.177-7.943 1.333-14.828 10.388-17.536 10.772-17.648a1.477 1.477 0 011.829 1.038 1.472 1.472 0 01-1.016 1.828c-.339.09-7.475 2.392-8.627 15.052-.519 5.845-3.522 10.427-6.955 10.63-.022 0-.113.022-.203.022z" fill="#593D3D"/><path d="M501.118 136.416l-9.146-5.258V115l9.146 5.258v16.158z" fill="#3D2828"/><path d="M495.269 113.149l-3.297 1.85 9.146 5.259 3.297-1.851-9.146-5.258z" fill="#593D3D"/><path d="M501.117 120.258v16.158l3.297-1.851v-16.158l-3.297 1.851z" fill="#352221"/><path d="M501.637 143.909a9.423 9.423 0 01-2.71-.406c-5.058-1.512-7-4.424-7.723-6.59-1.287-3.791-.113-8.802 3.184-13.405a1.464 1.464 0 012.078-.339c.677.474.813 1.422.338 2.076-2.1 2.934-3.951 7.29-2.8 10.697.745 2.19 2.687 3.769 5.759 4.695 1.851.564 3.68.293 5.419-.79 3.636-2.212 6.436-7.47 7.723-14.421 1.581-8.621.813-27.533.294-40.035-.181-4.378-.316-7.831-.316-9.84 0-.812.677-1.49 1.49-1.49s1.49.678 1.49 1.49c0 1.964.136 5.394.316 9.727.52 12.638 1.288 31.753-.338 40.69-1.423 7.785-4.742 13.766-9.101 16.429-1.603 1.015-3.342 1.512-5.103 1.512z" fill="#593D3D"/><path d="M536.729 64.831v-2.64h-.632c-2.417-5.416-11.562-9.456-22.514-9.456s-20.098 4.04-22.514 9.456h-.655v2.843c0 6.793 10.365 12.322 23.169 12.322 12.781 0 23.168-5.506 23.168-12.322 0-.067-.022-.135-.022-.203z" fill="#352221"/><path d="M513.583 49.395c-12.782 0-23.169 5.506-23.169 12.322 0 6.793 10.365 12.322 23.169 12.322 12.781 0 23.168-5.507 23.168-12.322 0-6.816-10.387-12.322-23.168-12.322z" fill="#472F2E"/><path d="M513.582 66.704c-10.952 0-19.871-4.536-20.549-10.268h-.045c0 .18-.023.339-.023.496v4.108h.068c.678 5.732 9.597 10.268 20.549 10.268 11.382 0 20.617-4.897 20.617-10.968v-3.43c0-.27-.022-.52-.045-.767-.406 5.867-9.461 10.561-20.572 10.561z" fill="#4DBAF2"/><path d="M516.064 38.81h-4.968c-9.8 0-17.817 7.877-18.11 17.604h.045c.677 5.732 9.597 10.268 20.549 10.268 11.11 0 20.166-4.694 20.572-10.54-.406-9.59-8.378-17.331-18.088-17.331z" fill="#352221"/><path d="M516.699 141.562c1.983 0 3.59-.859 3.59-1.919 0-1.059-1.607-1.918-3.59-1.918-1.983 0-3.591.859-3.591 1.918 0 1.06 1.608 1.919 3.591 1.919zm-29.401-19.454c-1.988 0-3.591.858-3.591 1.919 0 1.06 1.603 1.918 3.591 1.918 1.987 0 3.59-.858 3.59-1.918 0-1.061-1.603-1.919-3.59-1.919z" fill="#3D2828"/><path d="M525.416 46.574L503.873 59.01c2.732 1.174 6.187 1.873 9.981 1.873 8.807 0 15.943-3.791 15.943-8.463 0-2.28-1.672-4.31-4.381-5.845z" fill="#472F2E"/><path d="M503.895 59.009s0-7.29 9.688-12.435c8.581-4.559 11.855 0 11.855 0l-21.543 12.435z" fill="#3D2828"/><path d="M511.234 56.775c-.79 0-1.445.338-1.445.767s.655.767 1.445.767c.791 0 1.446-.338 1.446-.767s-.655-.767-1.446-.767zm4.246-2.46c-.791 0-1.446.338-1.446.767s.655.767 1.446.767c.79 0 1.445-.338 1.445-.767 0-.406-.632-.767-1.445-.767zm4.245-.925c.798 0 1.445-.344 1.445-.768 0-.423-.647-.767-1.445-.767s-1.445.344-1.445.767c0 .424.647.768 1.445.768zm4.268-3.995c-.79 0-1.445.339-1.445.768 0 .428.655.767 1.445.767s1.445-.339 1.445-.767c-.022-.43-.655-.768-1.445-.768zm4.064 4.062l-10.568 6.093-2.235-1.286 10.568-6.093 2.235 1.286z" fill="#C6ADAC"/></svg>