<svg width="26" height="26" fill="none" xmlns="http://www.w3.org/2000/svg"><path d="M13 8.834A4.174 4.174 0 008.834 13 4.174 4.174 0 0013 17.166 4.174 4.174 0 0017.166 13 4.174 4.174 0 0013 8.834zM25.494 13c0-1.725.015-3.434-.082-5.156-.096-2-.553-3.775-2.015-5.238C21.93 1.141 20.159.687 18.159.591 16.434.494 14.725.509 13.003.509c-1.725 0-3.434-.015-5.156.082-2 .096-3.775.553-5.238 2.015C1.144 4.072.691 5.844.594 7.844.497 9.569.512 11.278.512 13c0 1.722-.015 3.434.082 5.156.097 2 .553 3.775 2.015 5.238 1.466 1.465 3.238 1.919 5.238 2.015 1.725.097 3.434.082 5.156.082 1.725 0 3.434.015 5.156-.082 2-.096 3.775-.553 5.238-2.015 1.465-1.466 1.919-3.238 2.015-5.238.1-1.722.082-3.431.082-5.156zM13 19.41A6.4 6.4 0 016.59 13 6.4 6.4 0 0113 6.59 6.4 6.4 0 0119.41 13 6.4 6.4 0 0113 19.41zm6.672-11.585a1.495 1.495 0 01-1.497-1.497c0-.828.669-1.497 1.497-1.497a1.495 1.495 0 011.383 2.07 1.495 1.495 0 01-1.383.924z" fill="#fff"/></svg>