<svg width="217" height="186" fill="none" xmlns="http://www.w3.org/2000/svg"><path fill-rule="evenodd" clip-rule="evenodd" d="M6.372 160.073c-1.383 0-2.494-.148-3.334-.419-.84-.271-1.482-.666-1.927-1.159a3.825 3.825 0 01-.889-1.752c-.148-.666-.222-1.431-.222-2.269v-34.561c0-.789.074-1.529.222-2.245.148-.69.445-1.282.89-1.8.444-.494 1.086-.888 1.926-1.16.84-.271 1.951-.419 3.334-.419h16.943c.716 0 1.285.222 1.73.691.444.468.666 1.036.666 1.702 0 .715-.222 1.258-.667 1.628-.444.37-1.012.567-1.729.567H4.791v14.086H18.13c.666 0 1.234.247 1.704.715.47.494.691 1.036.691 1.678 0 .641-.222 1.184-.691 1.677-.47.493-1.037.716-1.704.716H4.79v17.736h18.5c.716 0 1.284.197 1.729.567.444.371.666.913.666 1.629 0 .666-.222 1.233-.666 1.702-.445.468-1.013.69-1.73.69H6.373zm28.379-2.392c0 .666-.223 1.233-.667 1.702-.445.468-1.013.69-1.73.69-.715 0-1.283-.222-1.728-.69a2.384 2.384 0 01-.667-1.702v-26.346c0-1.456.47-2.615 1.408-3.429.939-.814 2.1-1.431 3.433-1.826a18.244 18.244 0 014.248-.715 81.152 81.152 0 013.927-.123c3.31 0 6.323 1.085 9.015 3.281a7.41 7.41 0 012.618-1.851 15.86 15.86 0 013.236-.986c1.136-.198 2.247-.346 3.334-.37a63.55 63.55 0 012.89-.074c1.728 0 3.359.296 4.94.888 1.58.592 2.963 1.406 4.149 2.491a12.342 12.342 0 012.865 3.774c.716 1.456 1.062 3.059 1.062 4.811v20.376c0 .666-.247 1.258-.717 1.727-.494.493-1.086.715-1.803.715a2.243 2.243 0 01-1.68-.715 2.486 2.486 0 01-.666-1.727v-20.376c-.074-1.382-.42-2.541-1.013-3.454-.592-.913-1.333-1.653-2.247-2.195a9.427 9.427 0 00-3.087-1.16 18.897 18.897 0 00-3.557-.345c-1.21 0-2.371.123-3.433.345-1.062.222-2.1.346-3.063.346v26.987c0 .666-.222 1.233-.666 1.702-.445.469-1.013.691-1.73.691-.716 0-1.284-.222-1.728-.691a2.384 2.384 0 01-.667-1.702v-20.87c0-1.307-.297-2.392-.89-3.28a6.379 6.379 0 00-2.272-2.097c-.913-.518-1.975-.888-3.186-1.11a19.267 19.267 0 00-3.556-.321c-1.087 0-2.223.074-3.36.247-1.16.172-2.197.345-3.111.567v26.815h.099zm75.107-9.547c0 2.023-.419 3.774-1.235 5.279-.815 1.505-1.877 2.763-3.21 3.75a13.67 13.67 0 01-4.545 2.195 18.546 18.546 0 01-5.186.715c-1.21 0-2.52-.074-3.878-.197-1.359-.123-2.643-.395-3.804-.814-1.185-.419-2.148-1.036-2.939-1.85-.765-.814-1.16-1.924-1.16-3.306v-37.348c0-.666.222-1.233.691-1.702.47-.469 1.037-.691 1.754-.691.666 0 1.234.222 1.704.667.469.444.691.986.691 1.677v9.497c1.803-.37 3.384-.592 4.718-.666a62.44 62.44 0 013.457-.098c1.68 0 3.31.296 4.891.888a13.232 13.232 0 014.124 2.442c1.186 1.036 2.124 2.294 2.841 3.774.716 1.456 1.062 3.084 1.062 4.835v10.953h.024zm-4.791-10.879c0-1.209-.247-2.269-.766-3.182a6.542 6.542 0 00-1.951-2.22c-.79-.592-1.729-1.036-2.766-1.332a11.469 11.469 0 00-3.137-.444c-1.087 0-2.346.074-3.754.222a41.258 41.258 0 00-3.927.592v23.385c.37.247.963.444 1.803.568.815.123 1.68.222 2.544.271.889.074 1.68.099 2.42.099h1.408c1.037 0 2.05-.173 3.013-.494a9.376 9.376 0 002.594-1.406 7.208 7.208 0 001.827-2.22c.47-.888.692-1.875.692-2.96v-10.879zm16.449 20.426a2.33 2.33 0 01-.716 1.702 2.41 2.41 0 01-1.729.69c-.667 0-1.235-.222-1.704-.69-.47-.469-.692-1.036-.692-1.702v-26.346c0-1.505.469-2.664 1.408-3.479.939-.814 2.099-1.406 3.433-1.8a19.597 19.597 0 014.248-.691 81.156 81.156 0 013.927-.123c.667 0 1.235.222 1.704.69.47.469.692 1.036.692 1.702 0 .963-.346 1.604-1.062 1.949-.716.346-1.605.543-2.643.666a36.589 36.589 0 01-3.433.148c-1.235 0-2.371.148-3.433.444v26.84zm32.108-20.993l.494.123c-.049-.074-.074-.197-.099-.37-.025-.173-.049-.296-.099-.37-.222-.913-.469-1.727-.79-2.442a4.998 4.998 0 00-1.358-1.826c-.593-.493-1.359-.888-2.322-1.159-.963-.271-2.174-.419-3.655-.419-1.334.074-2.495.345-3.483.789-.988.444-1.902 1.159-2.741 2.171-.494.592-1.112.888-1.828.888-.667 0-1.235-.247-1.704-.765-.47-.493-.692-1.036-.692-1.628 0-.666.173-1.184.494-1.505 1.433-1.554 2.989-2.713 4.668-3.527 1.68-.79 3.581-1.184 5.73-1.184 2.272 0 4.199.345 5.78 1.011 1.605.666 2.914 1.579 3.927 2.738a10.308 10.308 0 012.222 4.046c.47 1.554.692 3.231.692 5.032v15.591c0 1.554-.494 2.738-1.457 3.577-.963.838-2.124 1.455-3.483 1.85-1.358.394-2.791.616-4.322.69-1.507.074-2.84.099-3.976.099-1.68 0-3.285-.296-4.817-.913-1.531-.616-2.889-1.455-4.05-2.516-1.186-1.061-2.124-2.343-2.84-3.799-.717-1.455-1.062-3.059-1.062-4.785 0-1.604.37-3.084 1.111-4.465a12.186 12.186 0 012.939-3.627c1.21-1.036 2.618-1.825 4.199-2.417a13.835 13.835 0 014.89-.888h7.632zm.42 4.785h-8.052c-.914 0-1.877.148-2.84.469a9.111 9.111 0 00-2.618 1.357c-.766.592-1.433 1.283-1.951 2.097-.519.814-.815 1.702-.84 2.664 0 1.209.272 2.269.79 3.182a6.816 6.816 0 002.025 2.245 8.864 8.864 0 002.791 1.332c1.062.296 2.1.444 3.137.444 1.087 0 2.322-.074 3.705-.197a27.765 27.765 0 003.828-.617v-12.976h.025zm28.971 11.052c.42-.543 1.013-.814 1.754-.814.765 0 1.333.247 1.753.765.42.493.642 1.036.642 1.628 0 .616-.197 1.159-.642 1.578a12.625 12.625 0 01-4.248 3.281c-1.605.765-3.433 1.135-5.434 1.135-1.753 0-3.408-.345-4.964-1.011a13.351 13.351 0 01-4.1-2.763c-1.185-1.184-2.099-2.541-2.791-4.12a12.296 12.296 0 01-1.037-5.007v-8.733c0-1.801.346-3.478 1.012-5.057a13.075 13.075 0 012.742-4.12 12.702 12.702 0 014.051-2.763 12.489 12.489 0 014.964-1.011c1.432 0 2.692.173 3.779.493 1.087.346 2.025.74 2.84 1.184.79.469 1.457.938 1.976 1.456.519.493.938.913 1.235 1.258.42.419.642.937.642 1.579 0 .542-.222 1.085-.667 1.603-.444.518-1.012.79-1.729.79-.765 0-1.333-.272-1.753-.815l-.321-.246a7.903 7.903 0 00-.791-.814 4.552 4.552 0 00-1.161-.79 10.332 10.332 0 00-1.63-.592c-.617-.172-1.383-.246-2.272-.246a7.878 7.878 0 00-3.112.616 8.494 8.494 0 00-2.618 1.727 8.293 8.293 0 00-1.803 2.59 7.669 7.669 0 00-.667 3.183v8.732c0 1.135.223 2.196.667 3.182.445.987 1.037 1.851 1.803 2.566a7.852 7.852 0 002.643 1.702 8.72 8.72 0 003.211.592 9.19 9.19 0 003.284-.617c1.112-.419 1.976-1.134 2.742-2.121zm12.769-12.186h16.375a13.26 13.26 0 00-.568-3.898c-.37-1.209-.914-2.269-1.63-3.182-.716-.913-1.581-1.604-2.569-2.146-1.012-.518-2.148-.79-3.408-.79-1.186 0-2.248.198-3.236.617-.987.419-1.852.987-2.568 1.727a7.918 7.918 0 00-1.729 2.615c-.42 1.011-.618 2.072-.618 3.207v1.85h-.049zm14.3 12.186c.42-.543 1.013-.814 1.754-.814.667 0 1.235.247 1.704.765.469.493.692 1.06.692 1.702 0 .222-.025.444-.074.69a1.36 1.36 0 01-.371.691c-2.988 3.01-6.249 4.539-9.83 4.539-1.803 0-3.482-.345-5.063-1.011a13.103 13.103 0 01-4.125-2.738c-1.185-1.16-2.099-2.517-2.79-4.095-.692-1.579-1.038-3.257-1.038-5.057v-8.684c0-1.801.346-3.478 1.038-5.057a13.642 13.642 0 012.79-4.119c1.186-1.185 2.544-2.097 4.125-2.788 1.581-.691 3.26-1.036 5.063-1.036s3.507.345 5.088 1.061a12.492 12.492 0 014.149 2.96c1.186 1.258 2.1 2.738 2.767 4.465.667 1.727 1.012 3.577 1.012 5.6 0 1.751-.518 3.133-1.58 4.095-1.038.962-2.47 1.455-4.273 1.455h-14.869l-.617-.123.123.616v1.579c0 1.086.223 2.122.667 3.084a8.382 8.382 0 001.803 2.541 8.546 8.546 0 002.618 1.751 7.51 7.51 0 003.112.666c1.606 0 2.89-.296 3.903-.913 1.037-.641 1.753-1.233 2.222-1.825zM77.775 116.238c.124.321.173.617.173.839 0 .493-.173.937-.519 1.332-.197.247-.469.419-.765.543a2.603 2.603 0 01-.89.148c-.395 0-.765-.099-1.086-.296a1.899 1.899 0 01-.741-.839l-3.26-6.488-3.26 6.537a2.204 2.204 0 01-.766.814 1.963 1.963 0 01-1.062.296c-.321 0-.618-.049-.89-.148a2.003 2.003 0 01-.74-.518 1.782 1.782 0 01-.37-.616 1.86 1.86 0 01-.149-.716c0-.148.025-.296.05-.469.024-.148.074-.296.148-.444l4.766-9.152-4.766-9.176a4.658 4.658 0 01-.149-.444c-.024-.173-.049-.321-.049-.469 0-.247.05-.469.148-.715.074-.222.198-.42.37-.617.371-.444.915-.666 1.63-.666.816 0 1.409.37 1.829 1.135l3.26 6.512 3.26-6.463c.074-.173.197-.345.321-.493.123-.148.296-.272.47-.37.147-.1.32-.173.493-.222.173-.05.37-.074.544-.074.74 0 1.284.222 1.68.666.345.394.518.863.518 1.332 0 .148-.025.296-.05.468a1.566 1.566 0 01-.148.444l-4.767 9.177c1.235 2.393 3.878 6.809 4.767 9.152zm-27.316-4.391c0 .222.025.444.05.641.049.197.098.395.197.567.074.198.197.37.32.543a3.59 3.59 0 00.865.863c.173.124.346.223.544.297.197.074.37.148.568.172.197.05.395.05.617.05.198 0 .395-.025.593-.05.198-.049.395-.098.568-.197.198-.074.37-.198.543-.296.173-.124.322-.247.47-.395.296-.296.518-.641.691-1.011a2.18 2.18 0 00.173-.568c.05-.197.05-.394.05-.616v-14.9c0-.272.049-.518.148-.765.099-.222.247-.444.42-.641.197-.198.42-.346.666-.469a2.14 2.14 0 01.79-.148c.273 0 .544.05.791.148.247.099.47.271.667.469.173.197.321.42.42.641.099.247.148.493.148.74v14.9c0 .469-.05.962-.148 1.431a8.639 8.639 0 01-.42 1.356c-.198.445-.42.839-.667 1.209-.272.395-.568.74-.864 1.061a5.968 5.968 0 01-1.062.863c-.37.247-.79.469-1.21.666-.445.198-.89.321-1.359.42a6.93 6.93 0 01-2.84 0c-.445-.099-.914-.222-1.334-.42a7.968 7.968 0 01-2.297-1.48 8.883 8.883 0 01-.89-1.036 5.589 5.589 0 01-.666-1.184 6.23 6.23 0 01-.444-1.357 6.85 6.85 0 01-.149-1.43V96.898c0-.272.05-.519.173-.765.099-.247.247-.444.445-.641.197-.198.42-.346.667-.445.247-.098.518-.148.79-.148s.543.05.79.173c.247.099.47.271.642.469.173.197.322.395.396.641.099.247.148.493.148.74v14.925zm-8.521 3.232c.272 0 .543.049.766.148.246.098.469.246.666.444.198.197.346.419.445.641.099.247.148.493.148.765 0 .271-.05.543-.148.765a2.357 2.357 0 01-.42.666c-.198.197-.42.345-.667.444a2.155 2.155 0 01-.79.148h-6.422c-.37 0-.74-.025-1.062-.074-.346-.05-.642-.099-.914-.198-.271-.098-.518-.197-.716-.345a2.99 2.99 0 01-.593-.518c-.148-.197-.296-.395-.37-.617a3.177 3.177 0 01-.198-.691c-.024-.197-.049-.394-.074-.616-.024-.222-.024-.444-.024-.642V96.997a2.007 2.007 0 01.592-1.431 2.014 2.014 0 011.432-.592c.273 0 .544.05.767.148.246.099.469.247.642.444.197.197.32.42.42.666.098.247.148.493.148.765v18.057h6.372v.025zM135.1 65.692c.049-.42 4.52-7.474 9.336-13.962 4.841-6.537 6.249-11.964 9.287-10.361 3.186 3.059-15.98 21.831-18.623 24.323zm-16.4 50.496c-7.014-24.915 37.986-48.572 53.275-66.456 3.359-3.923.642-5.896-2.989-4.145-3.062 1.456-8.298 7.006-14.078 11.594-6.298 5.008-13.263 9.152-18.771 12.31-3.704 2.121-5.063 2.368-5.211 1.579-.222-1.234 1.778-4.959 3.507-7.968 2.544-3.996 4.026-6.907 4.668-8.659.988-2.64-1.383-3.231-2.939-1.381-1.778 2.097-4.742 5.797-8.669 9.892-11.238 11.742-27.02 31.625-8.793 53.234zm15.264-47.166c7.656-4.539 26.649-18.476 31.07-23.681 2.026-2.245 3.409-3.602 2.075-5.008-1.284-1.332-3.927-.37-6.767 2.417-7.089 6.982-18.796 20.525-26.378 26.272z" fill="#fff"/><path fill-rule="evenodd" clip-rule="evenodd" d="M94.323 95.047c2.322 5.576 3.656 13.716 1.359 20.031 17.906-20.302 6.149-38.951-4.792-52.864-1.655-2.097-12.399-17.391-15.214-15.344-4.05 2.146 14.942 22.473 6.619 18.18-14.794-7.77-23.414-19.043-32.083-23.681-2.742-1.455-6.916-1.505-3.038 2.64 3.285 3.502 10.176 9.67 16.177 15.516-3.186-1.875-9.212-4.786-12.818-6.562-3.334-1.628-5.977-2.047-6.743-.715-.296.32-.617 1.554.865 2.467 7.582 4.588 15.584 8.017 23.216 12.778-4.026-1.332-16.276-4.317-17.634-1.604-.371 1.703 5.063 2.714 7.038 3.183 16.474 3.971 29.96 8.954 37.048 25.975zM111.76 0c1.556 0 3.063.123 4.569.345-5.359.74-8.57 7.82-10.052 8.906-2.322 1.677-13.04 1.184-11.46-2.566.297-.715.963-1.011 3.112-1.283-1.185-.296-2.272-.37-3.235-.271A30.771 30.771 0 01111.76 0zm8.595 1.209c1.779 1.751-.963 5.6-7.409 8.313l-3.606 1.332c-2.766 9.867-6.496 19.834-12.201 27.505 4.569.642 10.768 3.43 15.165.987l4.717-2.097c-10.793-5.328-.692-21.363 13.708-19.858 2.371.247 5.359 1.431 5.359 4.243 0 5.427-7.162 6.957-11.336 6.636 12.448-2.072 4.939-12.014-3.508-6.463-4.174 2.763-6.989 11.421 4.545 14.283-2.272 3.774-6.866 1.53-12.251 5.723-5.68 4.416-6.298 10.681-3.359 13.691 10.077 10.287 32.429-6.315 32.429-24.644 0-14.085-9.385-25.926-22.253-29.651zm-5.186 60.265c-7.188.05-12.992-4.17-11.362-12.162.445-2.17 1.63-4.169 3.088-5.797-4.817.296-10.003-.493-14.449-2.072-6.125 5.772-10.546-1.727-.716-3.38 4.668-.789 10.101-19.734 13.139-26.272-10.472 2.122-14.498-.665-14.424-3.256-5.878 5.625-9.558 13.543-9.558 22.3 0 17.022 13.831 30.836 30.873 30.836a39.487 39.487 0 003.409-.197zm1.309-58.218c0-1.751-4.076 1.061-5.903 4.983 2.148-.74 5.903-2.22 5.903-4.983zM6.94 174.801c0-.395-.074-.74-.247-1.037a2.406 2.406 0 00-.667-.74 2.877 2.877 0 00-.913-.444 3.79 3.79 0 00-1.038-.148c-.346 0-.765.025-1.235.074-.469.05-.889.099-1.26.198v7.696c.124.074.297.124.495.173.197.049.42.074.642.099.222.024.444.024.691.049h.618c.864 0 1.58-.197 2.124-.592.543-.395.815-.987.815-1.752v-3.576H6.94zm1.58 3.576a3.66 3.66 0 01-1.186 2.763c-.394.37-.888.642-1.48.864-.593.222-1.285.32-2.075.32-.544 0-1.284-.074-2.198-.246v3.083a.78.78 0 01-.223.568.727.727 0 01-.543.222.878.878 0 01-.568-.198c-.173-.148-.247-.32-.247-.567v-12.285c0-.493.148-.888.47-1.135a2.952 2.952 0 011.135-.592 8.376 8.376 0 011.408-.246c.494-.025.914-.05 1.285-.05a4.519 4.519 0 012.963 1.11c.396.346.692.765.939 1.234.222.493.346 1.011.346 1.603v3.552H8.52zm3.805 3.183a.749.749 0 01-.247.567.783.783 0 01-.569.222.825.825 0 01-.568-.222.78.78 0 01-.222-.567v-8.634c0-.494.148-.888.47-1.135a2.938 2.938 0 011.136-.592 6.516 6.516 0 011.383-.222c.494-.025.913-.049 1.284-.049.222 0 .395.074.568.222a.78.78 0 01.222.567c0 .321-.123.518-.345.641a3.343 3.343 0 01-.865.222c-.346.025-.716.05-1.136.05-.395 0-.79.049-1.136.148v8.782h.024zm5.68-5.699h5.36c0-.444-.074-.888-.198-1.282a2.97 2.97 0 00-.543-1.037 2.513 2.513 0 00-.84-.69c-.321-.173-.692-.247-1.111-.247a2.92 2.92 0 00-1.063.197 2.416 2.416 0 00-.84.568c-.246.246-.42.518-.567.863-.148.321-.198.691-.198 1.061v.567zm4.668 3.997a.703.703 0 01.568-.272.75.75 0 01.568.247.822.822 0 01.223.567c0 .074 0 .148-.025.222a.51.51 0 01-.124.222c-.988.987-2.05 1.48-3.21 1.48a4.123 4.123 0 01-1.655-.32 4.621 4.621 0 01-1.359-.888 4.262 4.262 0 01-.913-1.332 4.128 4.128 0 01-.346-1.653v-2.837c0-.592.123-1.135.346-1.653.222-.518.543-.962.913-1.357.396-.394.84-.69 1.359-.912a4.14 4.14 0 011.654-.346 4.104 4.104 0 013.038 1.308c.396.419.692.912.914 1.455.223.568.321 1.184.321 1.826 0 .567-.172 1.036-.518 1.332-.346.32-.815.468-1.408.468h-4.866l-.197-.049.05.197v.518c0 .346.073.691.221 1.012.149.321.346.592.593.839.247.246.543.444.865.567.32.148.667.222 1.012.222.519 0 .939-.099 1.285-.296.296-.173.543-.37.691-.567zm6.076 1.702a.822.822 0 01-.222.567.783.783 0 01-.568.222.783.783 0 01-.569-.222.78.78 0 01-.222-.567v-8.634c0-.469.148-.864.47-1.135a2.939 2.939 0 011.136-.592 8.65 8.65 0 011.383-.247c.494-.024.914-.049 1.284-.049 1.087 0 2.075.37 2.964 1.061.222-.272.518-.469.864-.617a5.276 5.276 0 011.062-.321c.37-.074.741-.098 1.087-.123.346-.025.667-.025.939-.025.568 0 1.111.099 1.63.296.518.198.963.469 1.358.814.395.346.716.765.939 1.234.222.468.345 1.011.345 1.579v6.685a.713.713 0 01-.247.567.819.819 0 01-.592.247.666.666 0 01-.544-.247.78.78 0 01-.222-.567v-6.685a2.56 2.56 0 00-.321-1.135 2.282 2.282 0 00-.741-.716 3.318 3.318 0 00-1.013-.37 5.974 5.974 0 00-1.16-.123 5.73 5.73 0 00-1.137.123 4.935 4.935 0 01-1.012.124v8.856a.822.822 0 01-.223.567.783.783 0 01-.568.222.783.783 0 01-.568-.222.78.78 0 01-.222-.567v-6.858c0-.419-.099-.79-.296-1.061a2.204 2.204 0 00-.741-.691 3.239 3.239 0 00-1.038-.37 6.323 6.323 0 00-1.16-.098 8.87 8.87 0 00-1.112.074c-.37.049-.716.123-1.012.197v8.807h.049zm17.165-12.557a.717.717 0 01-.568-.246.782.782 0 01-.222-.568.78.78 0 01.222-.567.783.783 0 01.568-.222c.223 0 .42.074.568.222a.78.78 0 01.223.567c0 .222-.075.42-.223.568-.123.172-.32.246-.568.246zm-.765 2.763c0-.222.074-.394.222-.567a.783.783 0 01.568-.222c.222 0 .42.074.568.222a.78.78 0 01.222.567v9.794a.823.823 0 01-.222.567.783.783 0 01-.568.222.825.825 0 01-.568-.222.78.78 0 01-.222-.567v-9.794zm10.719-.123c0-.197.074-.395.222-.543a.783.783 0 01.568-.222c.222 0 .42.074.568.222a.726.726 0 01.222.543v8.634c0 .518-.148.913-.469 1.184a2.939 2.939 0 01-1.136.592 6.496 6.496 0 01-1.408.222c-.494.025-.914.025-1.26.025a4.553 4.553 0 01-1.63-.296 4.445 4.445 0 01-1.358-.814 3.744 3.744 0 01-.914-1.234 3.806 3.806 0 01-.346-1.603v-6.661a.78.78 0 01.223-.567.783.783 0 01.568-.222c.222 0 .395.074.543.222a.78.78 0 01.222.567v6.661c0 .419.1.765.272 1.061.173.296.42.542.692.74.296.197.617.345.963.419.37.099.716.123 1.087.123.197 0 .42 0 .642-.024a79.275 79.275 0 001.235-.148c.197-.025.346-.05.444-.05v-8.831h.05zm5.409 9.917a.822.822 0 01-.223.567.783.783 0 01-.568.222.745.745 0 01-.568-.222.78.78 0 01-.222-.567v-8.634c0-.469.148-.864.47-1.135a2.938 2.938 0 011.135-.592 8.648 8.648 0 011.383-.247c.495-.024.914-.049 1.285-.049 1.086 0 2.074.37 2.964 1.061.222-.272.518-.469.864-.617a5.274 5.274 0 011.062-.321c.37-.074.741-.098 1.087-.123.346-.025.667-.025.938-.025a4.55 4.55 0 011.63.296c.52.198.964.469 1.359.814.395.346.716.765.938 1.234.223.468.346 1.011.346 1.579v6.685a.713.713 0 01-.247.567.819.819 0 01-.593.247.666.666 0 01-.543-.247.78.78 0 01-.222-.567v-6.685a2.56 2.56 0 00-.321-1.135 2.283 2.283 0 00-.741-.716 3.318 3.318 0 00-1.013-.37 5.975 5.975 0 00-1.16-.123 5.73 5.73 0 00-1.137.123c-.37.074-.691.124-1.013.124v8.856a.823.823 0 01-.222.567.783.783 0 01-.568.222.783.783 0 01-.568-.222.78.78 0 01-.222-.567v-6.858c0-.419-.099-.79-.297-1.061a2.204 2.204 0 00-.74-.691 3.24 3.24 0 00-1.038-.37 6.325 6.325 0 00-1.16-.098 8.579 8.579 0 00-2.125.271v8.807h.05zm29.045-1.702a.703.703 0 01.568-.272c.247 0 .445.074.568.247a.78.78 0 01.198.543c0 .197-.074.37-.198.518a4.498 4.498 0 01-1.383 1.085c-.519.247-1.136.37-1.778.37a4.09 4.09 0 01-1.63-.321 3.9 3.9 0 01-1.334-.912 4.246 4.246 0 01-.914-1.357 4.099 4.099 0 01-.346-1.628v-2.862c0-.592.1-1.135.321-1.653.223-.518.519-.962.89-1.356.37-.395.815-.691 1.333-.913a4.09 4.09 0 011.63-.321c.47 0 .89.05 1.235.173.346.099.667.247.939.395.271.148.469.32.642.468.173.173.296.296.395.42.148.148.198.32.198.518 0 .172-.074.345-.223.518a.717.717 0 01-.568.246.67.67 0 01-.568-.271l-.099-.074c-.074-.074-.148-.173-.246-.271a1.377 1.377 0 00-.371-.247 2.28 2.28 0 00-.543-.197 3.087 3.087 0 00-.741-.074c-.346 0-.692.074-1.013.197-.321.148-.617.321-.864.567a2.876 2.876 0 00-.593.839 2.44 2.44 0 00-.222 1.036v2.862c0 .37.074.715.222 1.036.148.321.346.617.593.839.247.246.543.419.864.567.321.123.692.197 1.062.197.346 0 .716-.074 1.062-.197.346-.173.667-.395.914-.715zm5.285.888a.72.72 0 01.569.246.782.782 0 01.222.568.822.822 0 01-.222.567.783.783 0 01-.569.222c-.42 0-.765-.074-1.012-.197a1.818 1.818 0 01-.642-.469 2.132 2.132 0 01-.346-.666 2.6 2.6 0 01-.099-.765v-12.211c0-.222.074-.394.222-.542a.783.783 0 01.568-.222c.223 0 .396.074.569.222.148.148.222.32.222.542v12.063c-.025.444.148.642.518.642zm3.606-4.885h5.36c0-.444-.074-.888-.198-1.282a2.96 2.96 0 00-.543-1.037 2.512 2.512 0 00-.84-.69c-.321-.173-.691-.247-1.111-.247-.395 0-.741.074-1.062.197-.321.148-.618.321-.84.568a2.62 2.62 0 00-.568.863c-.148.321-.198.691-.198 1.061v.567zm4.693 3.997a.702.702 0 01.568-.272.75.75 0 01.568.247.823.823 0 01.222.567c0 .074.001.148-.024.222a.51.51 0 01-.124.222c-.988.987-2.05 1.48-3.21 1.48a4.122 4.122 0 01-1.655-.32 4.62 4.62 0 01-1.359-.888 3.885 3.885 0 01-.913-1.332 4.128 4.128 0 01-.346-1.653v-2.837c0-.592.123-1.135.346-1.653.222-.518.543-.962.913-1.357.395-.394.84-.69 1.359-.912a4.139 4.139 0 011.655-.346 4.104 4.104 0 013.037 1.308c.396.419.692.912.914 1.455.223.568.321 1.184.321 1.826 0 .567-.173 1.036-.518 1.332-.346.32-.815.468-1.408.468h-4.866l-.197-.049.05.197v.518c0 .346.073.691.221 1.012.149.321.346.592.593.839.247.246.544.444.865.567.321.148.666.222 1.012.222.519 0 .939-.099 1.285-.296.296-.173.543-.37.691-.567zm10.077-5.181l.173.05c-.025-.025-.025-.074-.025-.124 0-.049-.024-.098-.024-.123a6.601 6.601 0 00-.247-.814 1.502 1.502 0 00-.445-.592 1.712 1.712 0 00-.766-.37c-.321-.099-.716-.124-1.21-.124a3.704 3.704 0 00-1.136.247c-.321.148-.617.37-.889.715-.173.198-.371.296-.593.296a.753.753 0 01-.568-.246c-.148-.173-.222-.346-.222-.543 0-.222.049-.395.173-.493a5.147 5.147 0 011.531-1.16c.543-.271 1.185-.394 1.877-.394.741 0 1.383.098 1.902.32.518.222.963.518 1.284.888.346.37.593.814.741 1.332a5.95 5.95 0 01.222 1.653v5.107c0 .518-.148.912-.469 1.184a3.367 3.367 0 01-1.136.616 6.383 6.383 0 01-1.408.222c-.494.025-.938.025-1.309.025a4.293 4.293 0 01-1.581-.296 4.604 4.604 0 01-1.333-.814c-.395-.345-.692-.765-.939-1.258a3.702 3.702 0 01-.346-1.579c0-.518.124-1.011.371-1.455.247-.444.568-.839.963-1.184.395-.346.865-.592 1.383-.79a4.52 4.52 0 011.606-.296h2.42zm.148 1.554h-2.643c-.296 0-.617.05-.938.148a2.88 2.88 0 00-.864.444c-.247.198-.47.42-.643.691a1.63 1.63 0 00-.271.888c0 .395.098.74.247 1.036.173.296.395.543.667.74.271.198.568.346.913.444.346.099.692.148 1.038.148.345 0 .765-.024 1.21-.074.444-.049.864-.098 1.26-.197v-4.268h.024zm4.841 5.279a.825.825 0 01-.222.568.783.783 0 01-.568.222.781.781 0 01-.568-.222.78.78 0 01-.223-.568v-8.634c0-.493.149-.888.47-1.134a2.921 2.921 0 011.136-.592 6.373 6.373 0 011.408-.222c.494-.025.913-.05 1.259-.05a4.55 4.55 0 011.63.296c.519.198.964.469 1.359.814.395.346.691.765.938 1.234.223.493.346 1.011.346 1.579v6.66a.84.84 0 01-.222.592.805.805 0 01-.568.247.668.668 0 01-.544-.247c-.148-.148-.222-.345-.222-.592v-6.66c0-.395-.099-.74-.272-1.037a2.493 2.493 0 00-.691-.74 3.456 3.456 0 00-.963-.444 4.155 4.155 0 00-1.087-.148c-.198 0-.395 0-.618.025l-.666.074c-.223.025-.42.049-.618.074a4.07 4.07 0 00-.445.074v8.831h-.049zm9.954-12.507a.72.72 0 01-.569-.246.783.783 0 01-.222-.568.78.78 0 01.222-.567.785.785 0 01.569-.222c.222 0 .419.074.568.222a.78.78 0 01.222.567c0 .222-.074.42-.222.568a.719.719 0 01-.568.246zm-.791 2.763c0-.222.074-.394.222-.567a.785.785 0 01.569-.222c.222 0 .419.074.568.222a.78.78 0 01.222.567v9.794a.823.823 0 01-.222.567.785.785 0 01-.568.222.826.826 0 01-.569-.222.78.78 0 01-.222-.567v-9.794zm5.409 9.744a.825.825 0 01-.222.568.783.783 0 01-.568.222.783.783 0 01-.568-.222.784.784 0 01-.223-.568v-8.634c0-.493.149-.888.47-1.134a2.921 2.921 0 011.136-.592 6.373 6.373 0 011.408-.222c.494-.025.913-.05 1.259-.05a4.55 4.55 0 011.63.296c.519.198.964.469 1.359.814.395.346.691.765.938 1.234.223.493.346 1.011.346 1.579v6.66a.84.84 0 01-.222.592.805.805 0 01-.568.247.668.668 0 01-.544-.247c-.148-.148-.222-.345-.222-.592v-6.66c0-.395-.099-.74-.272-1.037a2.467 2.467 0 00-.691-.74 3.456 3.456 0 00-.963-.444 4.155 4.155 0 00-1.087-.148c-.198 0-.395 0-.618.025l-.666.074c-.223.025-.42.049-.618.074a4.043 4.043 0 00-.444.074v8.831h-.05zm15.511-8.757a15.463 15.463 0 00-1.21-.197c-.445-.05-.84-.05-1.186-.05h-.247c-.346 0-.692.05-1.013.173a2.536 2.536 0 00-.839.469 2.18 2.18 0 00-.815 1.702v3.577c0 .37.074.715.222 1.011.148.296.346.543.593.74.247.198.518.346.839.444.321.099.643.148 1.013.148h.198c.37 0 .79-.024 1.235-.074.444-.049.864-.098 1.21-.197v-7.746zm1.605 9.004c0 .543-.074 1.061-.197 1.579a3.341 3.341 0 01-.667 1.357 3.092 3.092 0 01-1.309.937c-.544.247-1.26.37-2.1.37-.395 0-.815-.074-1.21-.197a4.584 4.584 0 01-1.111-.494 3.658 3.658 0 01-.815-.666c-.223-.246-.321-.468-.321-.666 0-.222.074-.419.247-.567a.803.803 0 01.568-.247c.172 0 .321.074.469.197.148.124.321.272.494.445.197.148.42.296.691.444.272.123.593.197 1.013.197.494 0 .889-.049 1.21-.123.321-.099.593-.222.815-.395.198-.173.371-.395.445-.666.099-.272.148-.592.197-.962l.05-.222c-.025.024-.074.024-.124.049-.049.025-.074.049-.123.049a12.75 12.75 0 01-1.408.198c-.395.024-.766.024-1.062.024a4.304 4.304 0 01-1.605-.296 4.402 4.402 0 01-1.359-.814 3.8 3.8 0 01-.938-1.233 3.797 3.797 0 01-.346-1.604v-3.576c0-.617.123-1.16.346-1.629a3.81 3.81 0 01.938-1.233c.395-.345.84-.617 1.359-.789a4.97 4.97 0 011.605-.272c.346 0 .766.025 1.26.05.494.024.963.098 1.407.222.445.123.815.32 1.137.592.321.271.469.641.469 1.11v8.831h-.025zm16.499-8.19c.024.025.049.074.049.173 0 .222-.074.444-.198.617-.123.172-.321.271-.592.271a.61.61 0 01-.371-.123 1.707 1.707 0 01-.271-.321c-.075-.124-.173-.247-.247-.395a1.102 1.102 0 00-.297-.37 2.876 2.876 0 00-.963-.641c-.371-.148-.741-.247-1.087-.247-.321 0-.642.049-.938.173a2.47 2.47 0 00-.84.444 2.08 2.08 0 00-.593.641 1.449 1.449 0 00-.222.765c0 .197.173.37.494.493.346.124.765.222 1.259.321a30.23 30.23 0 011.655.37c.593.148 1.136.345 1.655.567.519.247.939.543 1.26.938.345.394.494.888.494 1.48 0 .567-.124 1.061-.371 1.505-.247.444-.593.814-.988 1.134-.395.321-.864.543-1.358.716a4.61 4.61 0 01-1.507.246 4.918 4.918 0 01-1.482-.246 4.45 4.45 0 01-1.259-.691 4.145 4.145 0 01-.939-1.036 4.038 4.038 0 01-.519-1.307c-.024-.05-.049-.099-.049-.173 0-.222.074-.444.198-.617a.749.749 0 01.592-.271c.149 0 .297.074.445.197.148.123.247.271.321.419.148.617.445 1.135.914 1.53a2.576 2.576 0 001.704.617c.321 0 .642-.05.963-.148.321-.099.593-.222.84-.42.247-.172.445-.394.618-.641.148-.247.247-.518.247-.814a.96.96 0 00-.519-.888 4.2 4.2 0 00-1.26-.518 14.713 14.713 0 00-1.655-.37 7.923 7.923 0 01-1.63-.444c-.518-.198-.938-.42-1.259-.74-.346-.296-.494-.716-.494-1.209 0-.543.123-1.061.37-1.505.247-.444.568-.814.988-1.135.395-.32.865-.542 1.359-.715a4.579 4.579 0 011.506-.247 4.378 4.378 0 012.396.74c.346.222.642.518.914.839.296.271.518.641.667 1.036zm3.482 2.295h5.36c0-.444-.074-.888-.198-1.283a2.964 2.964 0 00-.543-1.036 2.537 2.537 0 00-.84-.691c-.321-.172-.692-.246-1.111-.246a2.91 2.91 0 00-1.062.197c-.322.148-.618.321-.84.567-.247.247-.42.518-.568.864-.148.321-.198.691-.198 1.061v.567zm4.693 3.996a.704.704 0 01.568-.271.75.75 0 01.568.247.821.821 0 01.222.567c0 .074 0 .148-.024.222a.51.51 0 01-.124.222c-.988.987-2.05 1.48-3.211 1.48a4.126 4.126 0 01-1.655-.321 4.626 4.626 0 01-1.358-.888 3.884 3.884 0 01-.914-1.332 4.13 4.13 0 01-.346-1.653v-2.836c0-.592.124-1.135.346-1.653.222-.518.544-.962.914-1.357.395-.395.84-.691 1.358-.913a4.142 4.142 0 011.655-.345c.593 0 1.161.123 1.68.345.518.222.988.568 1.358.962.395.42.692.913.914 1.456.222.567.321 1.184.321 1.825 0 .568-.173 1.036-.519 1.332-.345.321-.815.469-1.407.469h-4.866l-.198-.049.05.197v.518c0 .345.074.691.222 1.012.148.32.346.592.593.838.247.247.543.444.864.568a2.42 2.42 0 001.013.222c.519 0 .938-.099 1.284-.296.297-.173.544-.37.692-.568zm5.779 1.702a.75.75 0 01-.247.568.783.783 0 01-.568.222.825.825 0 01-.568-.222.783.783 0 01-.222-.568v-8.634c0-.493.148-.888.469-1.134a2.928 2.928 0 011.136-.592 6.397 6.397 0 011.383-.222c.494-.025.914-.05 1.285-.05.222 0 .395.074.568.222a.783.783 0 01.222.568c0 .32-.123.518-.346.641a3.626 3.626 0 01-.864.222c-.346.025-.716.049-1.136.049-.396 0-.791.05-1.136.148v8.782h.024zm11.312-10.089a.723.723 0 01.42-.469.843.843 0 01.593-.074.86.86 0 01.469.296c.124.148.148.346.099.568l-.025.098c-.568 1.628-1.161 3.257-1.729 4.934-.568 1.653-1.161 3.33-1.729 4.983v-.025c-.148.37-.42.568-.79.568a.806.806 0 01-.445-.148.713.713 0 01-.296-.37v.024l-3.507-9.793c-.05-.222-.05-.444.025-.666.074-.222.271-.37.568-.419.222-.05.419 0 .592.098a.96.96 0 01.346.42l2.618 7.474.099.592.099-.592 2.593-7.499zm3.853-2.467a.715.715 0 01-.568-.247.78.78 0 01-.222-.567.78.78 0 01.222-.567.783.783 0 01.568-.222c.222 0 .42.074.568.222a.78.78 0 01.222.567.78.78 0 01-.222.567c-.123.173-.321.247-.568.247zm-.766 2.763c0-.222.074-.395.223-.567a.781.781 0 01.568-.222c.222 0 .42.074.568.222a.78.78 0 01.222.567v9.793a.825.825 0 01-.222.568c-.148.172-.346.222-.568.222a.824.824 0 01-.568-.222.78.78 0 01-.223-.568v-9.793zm10.077 8.091a.706.706 0 01.568-.271c.247 0 .445.074.568.247a.774.774 0 01.198.542c0 .198-.074.37-.198.518a4.495 4.495 0 01-1.383 1.086c-.518.246-1.136.37-1.778.37a4.09 4.09 0 01-1.63-.321 3.89 3.89 0 01-1.334-.913 4.246 4.246 0 01-.914-1.356 4.104 4.104 0 01-.345-1.629v-2.861a4.1 4.1 0 01.321-1.653c.222-.518.518-.962.889-1.357.37-.394.815-.69 1.334-.912a4.087 4.087 0 011.63-.321c.469 0 .889.049 1.235.173.37.098.666.246.938.394.272.148.469.321.642.469.173.173.297.296.395.419a.684.684 0 01.198.518c0 .173-.074.346-.222.518a.715.715 0 01-.568.247.67.67 0 01-.568-.271l-.099-.074c-.074-.074-.148-.173-.247-.272a1.392 1.392 0 00-.371-.246 2.32 2.32 0 00-.543-.198 3.144 3.144 0 00-.741-.074c-.346 0-.691.074-1.013.198-.321.148-.617.32-.864.567a2.87 2.87 0 00-.593.839 2.443 2.443 0 00-.222 1.036v2.861c0 .37.074.716.222 1.037.148.32.346.616.593.838.247.247.543.42.864.568.322.123.692.197 1.062.197.346 0 .717-.074 1.063-.197.37-.173.666-.395.913-.716zm4.199-3.996h5.36c0-.444-.05-.888-.198-1.283a2.964 2.964 0 00-.543-1.036 2.537 2.537 0 00-.84-.691c-.321-.172-.692-.246-1.112-.246-.395 0-.74.074-1.062.197-.321.148-.617.321-.839.567-.247.247-.42.518-.568.864-.149.321-.198.691-.198 1.061v.567zm4.668 3.996a.704.704 0 01.568-.271.75.75 0 01.568.247.821.821 0 01.222.567c0 .074 0 .148-.024.222a.51.51 0 01-.124.222c-.988.987-2.05 1.48-3.211 1.48a4.12 4.12 0 01-1.654-.321 4.617 4.617 0 01-1.359-.888 3.898 3.898 0 01-.914-1.332 4.129 4.129 0 01-.345-1.653v-2.836c0-.592.123-1.135.345-1.653.223-.518.544-.962.914-1.357a4.24 4.24 0 011.359-.913 4.137 4.137 0 011.654-.345c.593 0 1.161.123 1.68.345.519.222.988.568 1.358.962.396.42.692.913.914 1.456.223.567.321 1.184.321 1.825 0 .568-.173 1.036-.518 1.332-.346.321-.815.469-1.408.469h-4.866l-.197-.049.049.197v.518c0 .345.074.691.222 1.012.149.32.346.592.593.838.247.247.543.444.865.568.321.148.666.222 1.012.222.519 0 .939-.099 1.285-.296a2.07 2.07 0 00.691-.568z" fill="#fff"/></svg>