<svg width="26" height="26" fill="none" xmlns="http://www.w3.org/2000/svg"><path d="M23.88 6.12C20.04.2 12.2-1.56 6.12 2.12.2 5.8-1.72 13.8 2.12 19.72l.32.48L1.16 25l4.8-1.28.48.32c2.08 1.12 4.32 1.76 6.56 1.76 2.4 0 4.8-.64 6.88-1.92 5.92-3.84 7.68-11.68 4-17.76zm-3.36 12.32c-.64.96-1.44 1.6-2.56 1.76-.64 0-1.44.32-4.64-.96-2.72-1.28-4.96-3.36-6.56-5.76-.96-1.12-1.44-2.56-1.6-4 0-1.28.48-2.4 1.28-3.2.32-.32.64-.48.96-.48h.8c.32 0 .64 0 .8.64.32.8 1.12 2.72 1.12 2.88.16.16.16.48 0 .64.16.32 0 .64-.16.8-.16.16-.32.48-.48.64-.32.16-.48.48-.32.8.64.96 1.44 1.92 2.24 2.72.96.8 1.92 1.44 3.04 1.92.32.16.64.16.8-.16.16-.32.96-1.12 1.28-1.44.32-.32.48-.32.8-.16l2.56 1.28c.32.16.64.32.8.48.16.48.16 1.12-.16 1.6z" fill="#fff"/></svg>