<svg width="1920" height="1555" fill="none" xmlns="http://www.w3.org/2000/svg"><path d="M959.824 777.457l85.566-48.551 85.41 48.637-85.56 48.551-85.416-48.637zm0 777.503l85.566-48.55 85.41 48.63-85.56 48.55-85.416-48.63zm0-1555.003l85.566-48.55L1130.8.042l-85.56 48.55L959.824-.042zM1643.74 1166.21l85.56-48.55 85.41 48.63-85.56 48.55-85.41-48.63zM275.912 388.707l85.565-48.551 85.413 48.637-85.565 48.551-85.413-48.637zm1367.828 0l85.56-48.551 85.41 48.637-85.56 48.551-85.41-48.637zM275.912 1166.21l85.565-48.55 85.413 48.63-85.565 48.55-85.413-48.63zM1643.74 777.457l85.56-48.551 85.41 48.637-85.56 48.551-85.41-48.637zM275.912 1554.96l85.565-48.55 85.413 48.63-85.565 48.55-85.413-48.63zm0-1555.003l85.565-48.55L446.89.042l-85.565 48.55L275.912-.042zm0 777.5l85.565-48.551 85.413 48.637-85.565 48.551-85.413-48.637zM1643.74 1554.96l85.56-48.55 85.41 48.63-85.56 48.55-85.41-48.63zm0-1555.003l85.56-48.55L1814.71.042l-85.56 48.55-85.41-48.636zm-683.916 388.75l85.566-48.551 85.41 48.637-85.56 48.551-85.416-48.637zm0 777.503l85.566-48.55 85.41 48.63-85.56 48.55-85.416-48.63zm341.956-194.378l85.57-48.551 85.41 48.637-85.57 48.552-85.41-48.638zm-1367.824-777.5l85.565-48.551 85.413 48.637-85.565 48.551-85.413-48.637zm0 777.5l85.565-48.551 85.413 48.637-85.565 48.552-85.413-48.638zm1367.824-777.5l85.57-48.551 85.41 48.637-85.57 48.551-85.41-48.637zm-683.912 388.75l85.565-48.551 85.413 48.637-85.565 48.551-85.413-48.637zm0 777.498l85.565-48.55 85.413 48.64-85.565 48.55-85.413-48.64zm683.912-777.498l85.57-48.551 85.41 48.637-85.57 48.551-85.41-48.637zM-66.044 1360.58l85.565-48.55 85.413 48.64-85.565 48.55-85.413-48.64zm0-777.498l85.565-48.551 85.413 48.637-85.565 48.551-85.413-48.637zM1301.78 1360.58l85.57-48.55 85.41 48.64-85.57 48.55-85.41-48.64zM617.868 194.332l85.565-48.551 85.413 48.637-85.565 48.551-85.413-48.637zm0 777.5l85.565-48.551 85.413 48.637-85.565 48.552-85.413-48.638zm512.932-97.188l85.57-48.55 85.41 48.637-85.57 48.55-85.41-48.637zm0-777.5l85.57-48.55 85.41 48.637-85.57 48.55-85.41-48.637zm683.91 1166.246l85.57-48.55 85.41 48.64-85.56 48.55-85.42-48.64zM446.89 485.894l85.565-48.55 85.413 48.637-85.565 48.55-85.413-48.637zm1367.82 0l85.57-48.55 85.41 48.637-85.56 48.55-85.42-48.637zM446.89 1263.39l85.565-48.55 85.413 48.64-85.565 48.55-85.413-48.64zm1367.82-388.746l85.57-48.55 85.41 48.637-85.56 48.55-85.42-48.637zM446.89 97.144l85.565-48.55 85.413 48.637-85.565 48.55-85.413-48.637zm0 777.5l85.565-48.55 85.413 48.637-85.565 48.55-85.413-48.637zm1367.82-777.5l85.57-48.55 85.41 48.637-85.56 48.55-85.42-48.637zm-683.91 388.75l85.57-48.55 85.41 48.637-85.57 48.55-85.41-48.637zm0 777.496l85.57-48.55 85.41 48.64-85.57 48.55-85.41-48.64zm341.96-194.37l85.56-48.55 85.42 48.64-85.57 48.55-85.41-48.64zM104.934 291.519l85.565-48.55 85.413 48.637-85.565 48.55-85.413-48.637zm0 777.501l85.565-48.55 85.413 48.64-85.565 48.55-85.413-48.64zM1472.76 291.519l85.56-48.55 85.42 48.637-85.57 48.55-85.41-48.637zm-683.914 388.75l85.565-48.55 85.413 48.637-85.565 48.55-85.413-48.637zm0 777.501l85.565-48.55 85.413 48.64-85.565 48.55-85.413-48.64zm683.914-777.501l85.56-48.55 85.42 48.637-85.57 48.55-85.41-48.637zM104.934 1457.77l85.565-48.55 85.413 48.64-85.565 48.55-85.413-48.64zm0-777.501l85.565-48.55 85.413 48.637-85.565 48.55-85.413-48.637zM1472.76 1457.77l85.56-48.55 85.42 48.64-85.57 48.55-85.41-48.64zM788.846 291.519l85.565-48.55 85.413 48.637-85.565 48.55-85.413-48.637zm0 777.501l85.565-48.55 85.413 48.64-85.565 48.55-85.413-48.64zM1130.8 680.269l85.57-48.55 85.41 48.637-85.57 48.55-85.41-48.637zm0 777.501l85.57-48.55 85.41 48.64-85.57 48.55-85.41-48.64zm683.91-388.75l85.57-48.55 85.41 48.64-85.56 48.55-85.42-48.64zM446.89 291.519l85.565-48.55 85.413 48.637-85.565 48.55-85.413-48.637zm1367.82 0l85.57-48.55 85.41 48.637-85.56 48.55-85.42-48.637zM446.89 1069.02l85.565-48.55 85.413 48.64-85.565 48.55-85.413-48.64zm1367.82-388.751l85.57-48.55 85.41 48.637-85.56 48.55-85.42-48.637zM446.89 1457.77l85.565-48.55 85.413 48.64-85.565 48.55-85.413-48.64zm0-777.501l85.565-48.55 85.413 48.637-85.565 48.55-85.413-48.637zm1367.82 777.501l85.57-48.55 85.41 48.64-85.56 48.55-85.42-48.64zM1130.8 291.519l85.57-48.55 85.41 48.637-85.57 48.55-85.41-48.637zm0 777.501l85.57-48.55 85.41 48.64-85.57 48.55-85.41-48.64zm341.96-194.376l85.56-48.55 85.42 48.637-85.57 48.55-85.41-48.637zM104.934 97.144l85.565-48.55 85.413 48.637-85.565 48.55-85.413-48.637zm0 777.5l85.565-48.55 85.413 48.637-85.565 48.55-85.413-48.637zm1367.826-777.5l85.56-48.55 85.42 48.637-85.57 48.55-85.41-48.637zm-683.914 388.75l85.565-48.55 85.413 48.637-85.565 48.55-85.413-48.637zm0 777.496l85.565-48.55 85.413 48.64-85.565 48.55-85.413-48.64zm683.914-777.496l85.56-48.55 85.42 48.637-85.57 48.55-85.41-48.637zM104.934 1263.39l85.565-48.55 85.413 48.64-85.565 48.55-85.413-48.64zm0-777.496l85.565-48.55 85.413 48.637-85.565 48.55-85.413-48.637zM1472.76 1263.39l85.56-48.55 85.42 48.64-85.57 48.55-85.41-48.64zM788.846 97.144l85.565-48.55 85.413 48.637-85.565 48.55-85.413-48.637zm0 777.5l85.565-48.55 85.413 48.637-85.565 48.55-85.413-48.637zm512.934-97.187l85.57-48.551 85.41 48.637-85.57 48.551-85.41-48.637zM-66.044 1554.96l85.565-48.55 85.413 48.63-85.565 48.55-85.413-48.63zm0-1555.003l85.565-48.55L104.934.042l-85.565 48.55L-66.044-.042zm0 777.5l85.565-48.551 85.413 48.637-85.565 48.551-85.413-48.637zM1301.78 1554.96l85.57-48.55 85.41 48.63-85.57 48.55-85.41-48.63zm0-1555.003l85.57-48.55L1472.76.042l-85.57 48.55-85.41-48.636zm-683.912 388.75l85.565-48.551 85.413 48.637-85.565 48.551-85.413-48.637zm0 777.503l85.565-48.55 85.413 48.63-85.565 48.55-85.413-48.63zm0 388.75l85.565-48.55 85.413 48.63-85.565 48.55-85.413-48.63zm0-1555.003l85.565-48.55L788.846.042l-85.565 48.55L617.868-.042zm0 777.5l85.565-48.551 85.413 48.637-85.565 48.551-85.413-48.637zM-66.044 1166.21l85.565-48.55 85.413 48.63-85.565 48.55-85.413-48.63zM1301.78 388.707l85.57-48.551 85.41 48.637-85.57 48.551-85.41-48.637zm-1367.824 0l85.565-48.551 85.413 48.637-85.565 48.551-85.413-48.637zM1301.78 1166.21l85.57-48.55 85.41 48.63-85.57 48.55-85.41-48.63zm341.96-194.378l85.56-48.551 85.41 48.637-85.56 48.552-85.41-48.638zm-1367.828-777.5l85.565-48.551 85.413 48.637-85.565 48.551-85.413-48.637zm0 777.5l85.565-48.551 85.413 48.637-85.565 48.552-85.413-48.638zm1367.828-777.5l85.56-48.551 85.41 48.637-85.56 48.551-85.41-48.637zm-683.916 388.75l85.566-48.551 85.41 48.637-85.56 48.551-85.416-48.637zm0 777.498l85.566-48.55 85.41 48.64-85.56 48.55-85.416-48.64zm683.916-777.498l85.56-48.551 85.41 48.637-85.56 48.551-85.41-48.637zM275.912 1360.58l85.565-48.55 85.413 48.64-85.565 48.55-85.413-48.64zm0-777.498l85.565-48.551 85.413 48.637-85.565 48.551-85.413-48.637zM1643.74 1360.58l85.56-48.55 85.41 48.64-85.56 48.55-85.41-48.64zM959.824 194.332l85.566-48.551 85.41 48.637-85.56 48.551-85.416-48.637zm0 777.5l85.566-48.551 85.41 48.637-85.56 48.552-85.416-48.638z" stroke="#D3F3FF" stroke-width="2"/><path d="M1045.39 728.863l85.56-48.551 85.42 48.638-85.57 48.55-85.41-48.637zm0 777.497l85.56-48.55 85.42 48.64-85.57 48.55-85.41-48.64zm0-1554.997l85.56-48.55 85.42 48.637L1130.8 0l-85.41-48.637zM1729.3 1117.61l85.57-48.55 85.41 48.64-85.57 48.55-85.41-48.64zM361.478 340.113l85.565-48.551 85.413 48.638-85.566 48.55-85.412-48.637zm1367.822 0l85.57-48.551 85.41 48.638-85.57 48.55-85.41-48.637zM361.478 1117.61l85.565-48.55 85.413 48.64-85.566 48.55-85.412-48.64zM1729.3 728.863l85.57-48.551 85.41 48.638-85.57 48.55-85.41-48.637zM361.478 1506.36l85.565-48.55 85.413 48.64L446.89 1555l-85.412-48.64zm0-1554.997l85.565-48.55 85.413 48.637L446.89 0l-85.412-48.637zm0 777.5l85.565-48.551 85.413 48.638-85.566 48.55-85.412-48.637zM1729.3 1506.36l85.57-48.55 85.41 48.64-85.57 48.55-85.41-48.64zm0-1554.997l85.57-48.55 85.41 48.637L1814.71 0l-85.41-48.637zm-683.91 388.75l85.56-48.551 85.42 48.638-85.57 48.55-85.41-48.637zm0 777.497l85.56-48.55 85.42 48.64-85.57 48.55-85.41-48.64zm341.96-194.372l85.56-48.55 85.41 48.637-85.56 48.55-85.41-48.637zM19.521 145.738l85.566-48.55 85.412 48.637-85.565 48.55-85.412-48.637zm0 777.5l85.566-48.55 85.412 48.637-85.565 48.55-85.412-48.637zm1367.829-777.5l85.56-48.55 85.41 48.637-85.56 48.55-85.41-48.637zm-683.917 388.75l85.566-48.55 85.412 48.637-85.565 48.55-85.413-48.637zm0 777.502l85.566-48.55 85.412 48.63-85.565 48.56-85.413-48.64zm683.917-777.502l85.56-48.55 85.41 48.637-85.56 48.55-85.41-48.637zM19.521 1311.99l85.566-48.55 85.412 48.63-85.565 48.56-85.412-48.64zm0-777.502l85.566-48.55 85.412 48.637-85.565 48.55-85.412-48.637zM1387.35 1311.99l85.56-48.55 85.41 48.63-85.56 48.56-85.41-48.64zM703.433 145.738l85.566-48.55 85.412 48.637-85.565 48.55-85.413-48.637zm0 777.5l85.566-48.55 85.412 48.637-85.565 48.55-85.413-48.637zm512.937-97.188l85.56-48.55 85.42 48.637-85.57 48.551-85.41-48.638zm-1367.827 777.5l85.566-48.55 85.412 48.64-85.565 48.55-85.413-48.64zm0-1555L-65.891 0 19.52 48.637l-85.565 48.55-85.413-48.637zm0 777.5l85.566-48.55 85.412 48.637-85.565 48.551-85.413-48.638zm1367.827 777.5l85.56-48.55 85.42 48.64-85.57 48.55-85.41-48.64zm0-1555L1301.93 0l85.42 48.637-85.57 48.55-85.41-48.637zm683.91 1166.25l85.57-48.55 85.41 48.64-85.57 48.55-85.41-48.64zM532.456 437.3l85.565-48.55 85.413 48.637-85.566 48.551-85.412-48.638zm1367.824 0l85.57-48.55 85.41 48.637-85.57 48.551-85.41-48.638zM532.456 1214.8l85.565-48.55 85.413 48.64-85.566 48.55-85.412-48.64zM1900.28 826.05l85.57-48.55 85.41 48.637-85.57 48.551-85.41-48.638zm-1367.824 777.5l85.565-48.55 85.413 48.64-85.566 48.55-85.412-48.64zm0-1555L618.021 0l85.413 48.637-85.566 48.55-85.412-48.637zm0 777.5l85.565-48.55 85.413 48.637-85.566 48.551-85.412-48.638zm1367.824 777.5l85.57-48.55 85.41 48.64-85.57 48.55-85.41-48.64zm0-1555L1985.85 0l85.41 48.637-85.57 48.55-85.41-48.637zM-151.457 1214.8l85.566-48.55 85.412 48.64-85.565 48.55-85.413-48.64zM1216.37 437.3l85.56-48.55 85.42 48.637-85.57 48.551-85.41-48.638zm-1367.827 0l85.566-48.55 85.412 48.637-85.565 48.551-85.413-48.638zm1367.827 777.5l85.56-48.55 85.42 48.64-85.57 48.55-85.41-48.64zm341.95-194.37l85.57-48.555 85.41 48.635-85.56 48.55-85.42-48.63zM190.499 242.925l85.566-48.55 85.412 48.637-85.565 48.551-85.413-48.638zm0 777.505l85.566-48.555 85.412 48.635-85.565 48.55-85.413-48.63zM1558.32 242.925l85.57-48.55 85.41 48.637-85.56 48.551-85.42-48.638zm-683.909 388.75l85.566-48.55 85.413 48.637-85.566 48.551-85.413-48.638zm0 777.505l85.566-48.56 85.413 48.64-85.566 48.55-85.413-48.63zm683.909-777.505l85.57-48.55 85.41 48.637-85.56 48.551-85.42-48.638zM190.499 1409.18l85.566-48.56 85.412 48.64-85.565 48.55-85.413-48.63zm0-777.505l85.566-48.55 85.412 48.637-85.565 48.551-85.413-48.638zM1558.32 1409.18l85.57-48.56 85.41 48.64-85.56 48.55-85.42-48.63zM874.411 242.925l85.566-48.55 85.413 48.637-85.566 48.551-85.413-48.638zm0 777.505l85.566-48.555 85.413 48.635-85.566 48.55-85.413-48.63zm341.959-388.755l85.56-48.55 85.42 48.637-85.57 48.551-85.41-48.638zM-151.457 1409.18l85.566-48.56 85.412 48.64-85.565 48.55-85.413-48.63zm0-777.505l85.566-48.55 85.412 48.637-85.565 48.551-85.413-48.638zM1216.37 1409.18l85.56-48.56 85.42 48.64-85.57 48.55-85.41-48.63zm683.91-388.75l85.57-48.555 85.41 48.635-85.57 48.55-85.41-48.63zM532.456 242.925l85.565-48.55 85.413 48.637-85.566 48.551-85.412-48.638zm1367.824 0l85.57-48.55 85.41 48.637-85.57 48.551-85.41-48.638zM532.456 1020.43l85.565-48.555 85.413 48.635-85.566 48.55-85.412-48.63zM1900.28 631.675l85.57-48.55 85.41 48.637-85.57 48.551-85.41-48.638zM532.456 1409.18l85.565-48.56 85.413 48.64-85.566 48.55-85.412-48.63zm0-777.505l85.565-48.55 85.413 48.637-85.566 48.551-85.412-48.638zM1900.28 1409.18l85.57-48.56 85.41 48.64-85.57 48.55-85.41-48.63zm-2051.737-388.75l85.566-48.555 85.412 48.635-85.565 48.55-85.413-48.63zM1216.37 242.925l85.56-48.55 85.42 48.637-85.57 48.551-85.41-48.638zm-1367.827 0l85.566-48.55 85.412 48.637-85.565 48.551-85.413-48.638zM1216.37 1020.43l85.56-48.555 85.42 48.635-85.57 48.55-85.41-48.63zm341.95-194.38l85.57-48.55 85.41 48.637-85.56 48.551-85.42-48.638zm-1367.821 777.5l85.566-48.55 85.412 48.64-85.565 48.55-85.413-48.64zm0-1555L276.065 0l85.412 48.637-85.565 48.55-85.413-48.637zm0 777.5l85.566-48.55 85.412 48.637-85.565 48.551-85.413-48.638zm1367.821 777.5l85.57-48.55 85.41 48.64-85.56 48.55-85.42-48.64zm0-1555L1643.89 0l85.41 48.637-85.56 48.55-85.42-48.637zM874.411 437.3l85.566-48.55 85.413 48.637-85.566 48.551-85.413-48.638zm0 777.5l85.566-48.55 85.413 48.64-85.566 48.55-85.413-48.64zm683.909-777.5l85.57-48.55 85.41 48.637-85.56 48.551-85.42-48.638zM190.499 1214.8l85.566-48.55 85.412 48.64-85.565 48.55-85.413-48.64zm0-777.5l85.566-48.55 85.412 48.637-85.565 48.551-85.413-48.638zm1367.821 777.5l85.57-48.55 85.41 48.64-85.56 48.55-85.42-48.64zm-683.909 388.75l85.566-48.55 85.413 48.64-85.566 48.55-85.413-48.64zm0-1555L959.977 0l85.413 48.637-85.566 48.55-85.413-48.637zm0 777.5l85.566-48.55 85.413 48.637-85.566 48.551-85.413-48.638zm512.939-97.187l85.56-48.551 85.41 48.638-85.56 48.55-85.41-48.637zM19.521 1506.36l85.566-48.55 85.412 48.64-85.565 48.55-85.412-48.64zm0-1554.997l85.566-48.55 85.412 48.637L104.934 0 19.522-48.637zm0 777.5l85.566-48.551 85.412 48.638-85.565 48.55-85.412-48.637zM1387.35 1506.36l85.56-48.55 85.41 48.64-85.56 48.55-85.41-48.64zm0-1554.997l85.56-48.55 85.41 48.637L1472.76 0l-85.41-48.637zm-683.917 388.75l85.566-48.551 85.412 48.638-85.565 48.55-85.413-48.637zm0 777.497l85.566-48.55 85.412 48.64-85.565 48.55-85.413-48.64zm0 388.75l85.566-48.55 85.412 48.64-85.565 48.55-85.413-48.64zm0-1554.997l85.566-48.55 85.412 48.637L788.846 0l-85.413-48.637zm0 777.5l85.566-48.551 85.412 48.638-85.565 48.55-85.413-48.637zM19.521 1117.61l85.566-48.55 85.412 48.64-85.565 48.55-85.412-48.64zM1387.35 340.113l85.56-48.551 85.41 48.638-85.56 48.55-85.41-48.637zm-1367.829 0l85.566-48.551 85.412 48.638-85.565 48.55-85.412-48.637zM1387.35 1117.61l85.56-48.55 85.41 48.64-85.56 48.55-85.41-48.64zm341.95-194.372l85.57-48.55 85.41 48.637-85.57 48.55-85.41-48.637zm-1367.822-777.5l85.565-48.55 85.413 48.637-85.566 48.55-85.412-48.637zm0 777.5l85.565-48.55 85.413 48.637-85.566 48.55-85.412-48.637zm1367.822-777.5l85.57-48.55 85.41 48.637-85.57 48.55-85.41-48.637zm-683.91 388.75l85.56-48.55 85.42 48.637-85.57 48.55-85.41-48.637zm0 777.502l85.56-48.55 85.42 48.63-85.57 48.56-85.41-48.64zm683.91-777.502l85.57-48.55 85.41 48.637-85.57 48.55-85.41-48.637zM361.478 1311.99l85.565-48.55 85.413 48.63-85.566 48.56-85.412-48.64zm0-777.502l85.565-48.55 85.413 48.637-85.566 48.55-85.412-48.637zM1729.3 1311.99l85.57-48.55 85.41 48.63-85.57 48.56-85.41-48.64zM1045.39 145.738l85.56-48.55 85.42 48.637-85.57 48.55-85.41-48.637zm0 777.5l85.56-48.55 85.42 48.637-85.57 48.55-85.41-48.637zm0-97.188l85.56-48.55 85.42 48.637-85.57 48.551-85.41-48.638zm0 777.5l85.56-48.55 85.42 48.64-85.57 48.55-85.41-48.64zm0-1555L1130.95 0l85.42 48.637-85.57 48.55-85.41-48.637zM1729.3 1214.8l85.57-48.55 85.41 48.64-85.57 48.55-85.41-48.64zM361.478 437.3l85.565-48.55 85.413 48.637-85.566 48.551-85.412-48.638zm1367.822 0l85.57-48.55 85.41 48.637-85.57 48.551-85.41-48.638zM361.478 1214.8l85.565-48.55 85.413 48.64-85.566 48.55-85.412-48.64zM1729.3 826.05l85.57-48.55 85.41 48.637-85.57 48.551-85.41-48.638zm-1367.822 777.5l85.565-48.55 85.413 48.64-85.566 48.55-85.412-48.64zm0-1555L447.043 0l85.413 48.637-85.566 48.55-85.412-48.637zm0 777.5l85.565-48.55 85.413 48.637-85.566 48.551-85.412-48.638zm1367.822 777.5l85.57-48.55 85.41 48.64-85.57 48.55-85.41-48.64zm0-1555L1814.87 0l85.41 48.637-85.57 48.55-85.41-48.637zM1045.39 437.3l85.56-48.55 85.42 48.637-85.57 48.551-85.41-48.638zm0 777.5l85.56-48.55 85.42 48.64-85.57 48.55-85.41-48.64zm341.96-194.37l85.56-48.555 85.41 48.635-85.56 48.55-85.41-48.63zM19.521 242.925l85.566-48.55 85.412 48.637-85.565 48.551-85.412-48.638zm0 777.505l85.566-48.555 85.412 48.635-85.565 48.55-85.412-48.63zM1387.35 242.925l85.56-48.55 85.41 48.637-85.56 48.551-85.41-48.638zm-683.917 388.75l85.566-48.55 85.412 48.637-85.565 48.551-85.413-48.638zm0 777.505l85.566-48.56 85.412 48.64-85.565 48.55-85.413-48.63zm683.917-777.505l85.56-48.55 85.41 48.637-85.56 48.551-85.41-48.638zM19.521 1409.18l85.566-48.56 85.412 48.64-85.565 48.55-85.412-48.63zm0-777.505l85.566-48.55 85.412 48.637-85.565 48.551-85.412-48.638zM1387.35 1409.18l85.56-48.56 85.41 48.64-85.56 48.55-85.41-48.63zM703.433 242.925l85.566-48.55 85.412 48.637-85.565 48.551-85.413-48.638zm0 777.505l85.566-48.555 85.412 48.635-85.565 48.55-85.413-48.63zm512.937-97.192l85.56-48.55 85.42 48.637-85.57 48.55-85.41-48.637zm-1367.827-777.5l85.566-48.55 85.412 48.637-85.565 48.55-85.413-48.637zm0 777.5l85.566-48.55 85.412 48.637-85.565 48.55-85.413-48.637zm1367.827-777.5l85.56-48.55 85.42 48.637-85.57 48.55-85.41-48.637zm683.91 1166.252l85.57-48.55 85.41 48.63-85.57 48.56-85.41-48.64zM532.456 534.488l85.565-48.55 85.413 48.637-85.566 48.55-85.412-48.637zm1367.824 0l85.57-48.55 85.41 48.637-85.57 48.55-85.41-48.637zM532.456 1311.99l85.565-48.55 85.413 48.63-85.566 48.56-85.412-48.64zM1900.28 923.238l85.57-48.55 85.41 48.637-85.57 48.55-85.41-48.637zm-1367.824-777.5l85.565-48.55 85.413 48.637-85.566 48.55-85.412-48.637zm0 777.5l85.565-48.55 85.413 48.637-85.566 48.55-85.412-48.637zm1367.824-777.5l85.57-48.55 85.41 48.637-85.57 48.55-85.41-48.637zM-151.457 1311.99l85.566-48.55 85.412 48.63-85.565 48.56-85.413-48.64zM1216.37 534.488l85.56-48.55 85.42 48.637-85.57 48.55-85.41-48.637zm-1367.827 0l85.566-48.55 85.412 48.637-85.565 48.55-85.413-48.637zM1216.37 1311.99l85.56-48.55 85.42 48.63-85.57 48.56-85.41-48.64zm341.95-194.38l85.57-48.55 85.41 48.64-85.56 48.55-85.42-48.64zM190.499 340.113l85.566-48.551 85.412 48.638-85.565 48.55-85.413-48.637zm0 777.497l85.566-48.55 85.412 48.64-85.565 48.55-85.413-48.64zM1558.32 340.113l85.57-48.551 85.41 48.638-85.56 48.55-85.42-48.637zm-683.909 388.75l85.566-48.551 85.413 48.638-85.566 48.55-85.413-48.637zm0 777.497l85.566-48.55 85.413 48.64-85.566 48.55-85.413-48.64zm0-1554.997l85.566-48.55 85.413 48.637L959.824 0l-85.413-48.637zm683.909 777.5l85.57-48.551 85.41 48.638-85.56 48.55-85.42-48.637zM190.499 1506.36l85.566-48.55 85.412 48.64-85.565 48.55-85.413-48.64zm0-1554.997l85.566-48.55 85.412 48.637L275.912 0l-85.413-48.637zm0 777.5l85.566-48.551 85.412 48.638-85.565 48.55-85.413-48.637zM1558.32 1506.36l85.57-48.55 85.41 48.64-85.56 48.55-85.42-48.64zm0-1554.997l85.57-48.55 85.41 48.637L1643.74 0l-85.42-48.637zm-683.909 388.75l85.566-48.551 85.413 48.638-85.566 48.55-85.413-48.637zm0 777.497l85.566-48.55 85.413 48.64-85.566 48.55-85.413-48.64zm341.959-388.747l85.56-48.551 85.42 48.638-85.57 48.55-85.41-48.637zM-151.457 1506.36l85.566-48.55 85.412 48.64-85.565 48.55-85.413-48.64zm0-1554.997l85.566-48.55L19.52-48.55-66.044 0l-85.413-48.637zm0 777.5l85.566-48.551L19.52 728.95l-85.565 48.55-85.413-48.637zM1216.37 1506.36l85.56-48.55 85.42 48.64-85.57 48.55-85.41-48.64zm0-1554.997l85.56-48.55 85.42 48.637L1301.78 0l-85.41-48.637zm683.91 1166.247l85.57-48.55 85.41 48.64-85.57 48.55-85.41-48.64zM532.456 340.113l85.565-48.551 85.413 48.638-85.566 48.55-85.412-48.637zm1367.824 0l85.57-48.551 85.41 48.638-85.57 48.55-85.41-48.637zM532.456 1117.61l85.565-48.55 85.413 48.64-85.566 48.55-85.412-48.64zM1900.28 728.863l85.57-48.551 85.41 48.638-85.57 48.55-85.41-48.637zM532.456 1506.36l85.565-48.55 85.413 48.64-85.566 48.55-85.412-48.64zm0-1554.997l85.565-48.55 85.413 48.637L617.868 0l-85.412-48.637zm0 777.5l85.565-48.551 85.413 48.638-85.566 48.55-85.412-48.637zM1900.28 1506.36l85.57-48.55 85.41 48.64-85.57 48.55-85.41-48.64zm0-1554.997l85.57-48.55 85.41 48.637L1985.69 0l-85.41-48.637zM-151.457 1117.61l85.566-48.55 85.412 48.64-85.565 48.55-85.413-48.64zM1216.37 340.113l85.56-48.551 85.42 48.638-85.57 48.55-85.41-48.637zm-1367.827 0l85.566-48.551L19.52 340.2l-85.565 48.55-85.413-48.637zM1216.37 1117.61l85.56-48.55 85.42 48.64-85.57 48.55-85.41-48.64zm341.95-194.372l85.57-48.55 85.41 48.637-85.56 48.55-85.42-48.637zm-1367.821-777.5l85.566-48.55 85.412 48.637-85.565 48.55-85.413-48.637zm0 777.5l85.566-48.55 85.412 48.637-85.565 48.55-85.413-48.637zm1367.821-777.5l85.57-48.55 85.41 48.637-85.56 48.55-85.42-48.637zm-683.909 388.75l85.566-48.55 85.413 48.637-85.566 48.55-85.413-48.637zm0 777.502l85.566-48.55 85.413 48.63-85.566 48.56-85.413-48.64zm683.909-777.502l85.57-48.55 85.41 48.637-85.56 48.55-85.42-48.637zM190.499 1311.99l85.566-48.55 85.412 48.63-85.565 48.56-85.413-48.64zm0-777.502l85.566-48.55 85.412 48.637-85.565 48.55-85.413-48.637zM1558.32 1311.99l85.57-48.55 85.41 48.63-85.56 48.56-85.42-48.64zM874.411 145.738l85.566-48.55 85.413 48.637-85.566 48.55-85.413-48.637zm0 777.5l85.566-48.55 85.413 48.637-85.566 48.55-85.413-48.637zm512.939-97.188l85.56-48.55 85.41 48.637-85.56 48.551-85.41-48.638zM19.521 1603.55l85.566-48.55 85.412 48.64-85.565 48.55-85.412-48.64zm0-1555L105.088 0 190.5 48.637l-85.565 48.55L19.522 48.55zm0 777.5l85.566-48.55 85.412 48.637-85.565 48.551-85.412-48.638zm1367.829 777.5l85.56-48.55 85.41 48.64-85.56 48.55-85.41-48.64zm0-1555L1472.91 0l85.41 48.637-85.56 48.55-85.41-48.637zM703.433 437.3l85.566-48.55 85.412 48.637-85.565 48.551-85.413-48.638zm0 777.5l85.566-48.55 85.412 48.64-85.565 48.55-85.413-48.64zm0 388.75l85.566-48.55 85.412 48.64-85.565 48.55-85.413-48.64zm0-1555L788.999 0l85.412 48.637-85.565 48.55-85.413-48.637zm0 777.5l85.566-48.55 85.412 48.637-85.565 48.551-85.413-48.638zM19.521 1214.8l85.566-48.55 85.412 48.64-85.565 48.55-85.412-48.64zM1387.35 437.3l85.56-48.55 85.41 48.637-85.56 48.551-85.41-48.638zm-1367.829 0l85.566-48.55 85.412 48.637-85.565 48.551L19.522 437.3zm1367.829 777.5l85.56-48.55 85.41 48.64-85.56 48.55-85.41-48.64zm341.95-194.37l85.57-48.555 85.41 48.635-85.57 48.55-85.41-48.63zM361.478 242.925l85.565-48.55 85.413 48.637-85.566 48.551-85.412-48.638zm0 777.505l85.565-48.555 85.413 48.635-85.566 48.55-85.412-48.63zM1729.3 242.925l85.57-48.55 85.41 48.637-85.57 48.551-85.41-48.638zm-683.91 388.75l85.56-48.55 85.42 48.637-85.57 48.551-85.41-48.638zm0 777.505l85.56-48.56 85.42 48.64-85.57 48.55-85.41-48.63zm683.91-777.505l85.57-48.55 85.41 48.637-85.57 48.551-85.41-48.638zM361.478 1409.18l85.565-48.56 85.413 48.64-85.566 48.55-85.412-48.63zm0-777.505l85.565-48.55 85.413 48.637-85.566 48.551-85.412-48.638zM1729.3 1409.18l85.57-48.56 85.41 48.64-85.57 48.55-85.41-48.63zM1045.39 242.925l85.56-48.55 85.42 48.637-85.57 48.551-85.41-48.638zm0 777.505l85.56-48.555 85.42 48.635-85.57 48.55-85.41-48.63z" stroke="#D3F3FF" stroke-width="2"/><path d="M1130.8 777.457l85.57-48.551 85.41 48.637-85.57 48.551-85.41-48.637zm0 777.503l85.57-48.55 85.41 48.63-85.57 48.55-85.41-48.63zm0-1555.003l85.57-48.55L1301.78.042l-85.57 48.55L1130.8-.042zm683.91 1166.253l85.57-48.55 85.41 48.63-85.56 48.55-85.42-48.63zM446.89 388.707l85.565-48.551 85.413 48.637-85.565 48.551-85.413-48.637zm1367.82 0l85.57-48.551 85.41 48.637-85.56 48.551-85.42-48.637zM446.89 1166.21l85.565-48.55 85.413 48.63-85.565 48.55-85.413-48.63zm1367.82-388.753l85.57-48.551 85.41 48.637-85.56 48.551-85.42-48.637zM446.89 1554.96l85.565-48.55 85.413 48.63-85.565 48.55-85.413-48.63zm0-1555.003l85.565-48.55L617.868.042l-85.565 48.55L446.89-.042zm0 777.5l85.565-48.551 85.413 48.637-85.565 48.551-85.413-48.637zm1367.82 777.503l85.57-48.55 85.41 48.63-85.56 48.55-85.42-48.63zm0-1555.003l85.57-48.55L1985.69.042l-85.56 48.55-85.42-48.636zm-683.91 388.75l85.57-48.551 85.41 48.637-85.57 48.551-85.41-48.637zm0 777.503l85.57-48.55 85.41 48.63-85.57 48.55-85.41-48.63zm341.96-194.378l85.56-48.551 85.42 48.637-85.57 48.552-85.41-48.638zm-1367.826-777.5l85.565-48.551 85.413 48.637-85.565 48.551-85.413-48.637zm0 777.5l85.565-48.551 85.413 48.637-85.565 48.552-85.413-48.638zm1367.826-777.5l85.56-48.551 85.42 48.637-85.57 48.551-85.41-48.637zm-683.914 388.75l85.565-48.551 85.413 48.637-85.565 48.551-85.413-48.637zm0 777.498l85.565-48.55 85.413 48.64-85.565 48.55-85.413-48.64zm683.914-777.498l85.56-48.551 85.42 48.637-85.57 48.551-85.41-48.637zM104.934 1360.58l85.565-48.55 85.413 48.64-85.565 48.55-85.413-48.64zm0-777.498l85.565-48.551 85.413 48.637-85.565 48.551-85.413-48.637zM1472.76 1360.58l85.56-48.55 85.42 48.64-85.57 48.55-85.41-48.64zM788.846 194.332l85.565-48.551 85.413 48.637-85.565 48.551-85.413-48.637zm0 777.5l85.565-48.551 85.413 48.637-85.565 48.552-85.413-48.638zm512.934-97.188l85.57-48.55 85.41 48.637-85.57 48.55-85.41-48.637zM-66.044 97.144l85.565-48.55 85.413 48.637-85.565 48.55-85.413-48.637zm0 777.5l85.565-48.55 85.413 48.637-85.565 48.55-85.413-48.637zm1367.824-777.5l85.57-48.55 85.41 48.637-85.57 48.55-85.41-48.637zm-683.912 388.75l85.565-48.55 85.413 48.637-85.565 48.55-85.413-48.637zm0 777.496l85.565-48.55 85.413 48.64-85.565 48.55-85.413-48.64zm0-1166.246l85.565-48.55 85.413 48.637-85.565 48.55-85.413-48.637zm0 777.5l85.565-48.55 85.413 48.637-85.565 48.55-85.413-48.637zM-66.044 1263.39l85.565-48.55 85.413 48.64-85.565 48.55-85.413-48.64zM1301.78 485.894l85.57-48.55 85.41 48.637-85.57 48.55-85.41-48.637zm-1367.824 0l85.565-48.55 85.413 48.637-85.565 48.55-85.413-48.637zM1301.78 1263.39l85.57-48.55 85.41 48.64-85.57 48.55-85.41-48.64zm341.96-194.37l85.56-48.55 85.41 48.64-85.56 48.55-85.41-48.64zM275.912 291.519l85.565-48.55 85.413 48.637-85.565 48.55-85.413-48.637zm0 777.501l85.565-48.55 85.413 48.64-85.565 48.55-85.413-48.64zM1643.74 291.519l85.56-48.55 85.41 48.637-85.56 48.55-85.41-48.637zm-683.916 388.75l85.566-48.55 85.41 48.637-85.56 48.55-85.416-48.637zm0 777.501l85.566-48.55 85.41 48.64-85.56 48.55-85.416-48.64zm683.916-777.501l85.56-48.55 85.41 48.637-85.56 48.55-85.41-48.637zM275.912 1457.77l85.565-48.55 85.413 48.64-85.565 48.55-85.413-48.64zm0-777.501l85.565-48.55 85.413 48.637-85.565 48.55-85.413-48.637zM1643.74 1457.77l85.56-48.55 85.41 48.64-85.56 48.55-85.41-48.64zM959.824 291.519l85.566-48.55 85.41 48.637-85.56 48.55-85.416-48.637zm0 777.501l85.566-48.55 85.41 48.64-85.56 48.55-85.416-48.64zm341.956-388.751l85.57-48.55 85.41 48.637-85.57 48.55-85.41-48.637zM-66.044 1457.77l85.565-48.55 85.413 48.64-85.565 48.55-85.413-48.64zm0-777.501l85.565-48.55 85.413 48.637-85.565 48.55-85.413-48.637zM1301.78 1457.77l85.57-48.55 85.41 48.64-85.57 48.55-85.41-48.64zM617.868 291.519l85.565-48.55 85.413 48.637-85.565 48.55-85.413-48.637zm0 777.501l85.565-48.55 85.413 48.64-85.565 48.55-85.413-48.64zm0 388.75l85.565-48.55 85.413 48.64-85.565 48.55-85.413-48.64zm0-777.501l85.565-48.55 85.413 48.637-85.565 48.55-85.413-48.637zM-66.044 1069.02l85.565-48.55 85.413 48.64-85.565 48.55-85.413-48.64zM1301.78 291.519l85.57-48.55 85.41 48.637-85.57 48.55-85.41-48.637zm-1367.824 0l85.565-48.55 85.413 48.637-85.565 48.55-85.413-48.637zM1301.78 1069.02l85.57-48.55 85.41 48.64-85.57 48.55-85.41-48.64zm341.96-194.376l85.56-48.55 85.41 48.637-85.56 48.55-85.41-48.637zM275.912 97.144l85.565-48.55L446.89 97.23l-85.565 48.55-85.413-48.637zm0 777.5l85.565-48.55 85.413 48.637-85.565 48.55-85.413-48.637zm1367.828-777.5l85.56-48.55 85.41 48.637-85.56 48.55-85.41-48.637zm-683.916 388.75l85.566-48.55 85.41 48.637-85.56 48.55-85.416-48.637zm0 777.496l85.566-48.55 85.41 48.64-85.56 48.55-85.416-48.64zm683.916-777.496l85.56-48.55 85.41 48.637-85.56 48.55-85.41-48.637zM275.912 1263.39l85.565-48.55 85.413 48.64-85.565 48.55-85.413-48.64zm0-777.496l85.565-48.55 85.413 48.637-85.565 48.55-85.413-48.637zM1643.74 1263.39l85.56-48.55 85.41 48.64-85.56 48.55-85.41-48.64zM959.824 97.144l85.566-48.55 85.41 48.637-85.56 48.55-85.416-48.637zm0 777.5l85.566-48.55 85.41 48.637-85.56 48.55-85.416-48.637zm512.936-97.187l85.56-48.551 85.42 48.637-85.57 48.551-85.41-48.637zM104.934 1554.96l85.565-48.55 85.413 48.63-85.565 48.55-85.413-48.63zm0-1555.003l85.565-48.55L275.912.042l-85.565 48.55L104.934-.042zm0 777.5l85.565-48.551 85.413 48.637-85.565 48.551-85.413-48.637zM1472.76 1554.96l85.56-48.55 85.42 48.63-85.57 48.55-85.41-48.63zm0-1555.003l85.56-48.55L1643.74.042l-85.57 48.55-85.41-48.636zm-683.914 388.75l85.565-48.551 85.413 48.637-85.565 48.551-85.413-48.637zm0 777.503l85.565-48.55 85.413 48.63-85.565 48.55-85.413-48.63zm0 388.75l85.565-48.55 85.413 48.63-85.565 48.55-85.413-48.63zm0-1555.003l85.565-48.55L959.824.042l-85.565 48.55L788.846-.042zm0 777.5l85.565-48.551 85.413 48.637-85.565 48.551-85.413-48.637zM104.934 1166.21l85.565-48.55 85.413 48.63-85.565 48.55-85.413-48.63zM1472.76 388.707l85.56-48.551 85.42 48.637-85.57 48.551-85.41-48.637zm-1367.826 0l85.565-48.551 85.413 48.637-85.565 48.551-85.413-48.637zM1472.76 1166.21l85.56-48.55 85.42 48.63-85.57 48.55-85.41-48.63zm341.95-194.378l85.57-48.551 85.41 48.637-85.56 48.552-85.42-48.638zm-1367.82-777.5l85.565-48.551 85.413 48.637-85.565 48.551-85.413-48.637zm0 777.5l85.565-48.551 85.413 48.637-85.565 48.552-85.413-48.638zm1367.82-777.5l85.57-48.551 85.41 48.637-85.56 48.551-85.42-48.637zm-683.91 388.75l85.57-48.551 85.41 48.637-85.57 48.551-85.41-48.637zm0 777.498l85.57-48.55 85.41 48.64-85.57 48.55-85.41-48.64zm683.91-777.498l85.57-48.551 85.41 48.637-85.56 48.551-85.42-48.637zM446.89 1360.58l85.565-48.55 85.413 48.64-85.565 48.55-85.413-48.64zm0-777.498l85.565-48.551 85.413 48.637-85.565 48.551-85.413-48.637zm1367.82 777.498l85.57-48.55 85.41 48.64-85.56 48.55-85.42-48.64zM1130.8 194.332l85.57-48.551 85.41 48.637-85.57 48.551-85.41-48.637zm0 777.5l85.57-48.551 85.41 48.637-85.57 48.552-85.41-48.638z" stroke="#D3F3FF" stroke-width="2"/></svg>