<svg width="26" height="26" fill="none" xmlns="http://www.w3.org/2000/svg"><path fill-rule="evenodd" clip-rule="evenodd" d="M26 13c0 7.18-5.82 13-13 13S0 20.18 0 13 5.82 0 13 0s13 5.82 13 13zM13.466 9.597c-1.264.526-3.792 1.614-7.581 3.265-.616.245-.938.485-.968.719-.05.396.447.552 1.12.763l.285.091c.664.216 1.557.468 2.02.478.422.009.892-.165 1.411-.52 3.54-2.39 5.368-3.599 5.483-3.625.081-.018.194-.042.27.026.076.067.068.195.06.23-.05.21-1.993 2.017-3 2.953a30.38 30.38 0 00-.582.546 12.32 12.32 0 01-.306.302c-.617.594-1.079 1.04.026 1.768.531.35.956.64 1.38.928.462.315.924.63 1.521 1.021.152.1.297.203.44.304.538.384 1.022.729 1.62.675.347-.033.706-.359.888-1.333.43-2.303 1.277-7.29 1.474-9.347a2.29 2.29 0 00-.022-.511.548.548 0 00-.186-.352c-.155-.127-.396-.154-.504-.152-.489.009-1.238.27-4.85 1.771z" fill="#fff"/></svg>