<svg width="202" height="201" fill="none" xmlns="http://www.w3.org/2000/svg"><g clip-path="url(#clip0)"><path d="M151.688 93.847c8.951-5.169 23.515-5.136 32.521.055 9.006 5.201 9.05 13.605.1 18.762-8.951 5.169-23.515 5.135-32.521-.055-9.006-5.19-9.051-13.594-.1-18.762z" fill="#E3E5EF"/><path d="M164.473 88.998c-.276-.165-.541-.187-.751-.077l-.962.442 1.139 3.092 1.049-.475v-.011c.255-.121.431-.42.476-.85.077-.796-.354-1.745-.951-2.12z" fill="#76757C"/><path d="M163.512 89.44c-.608-.376-1.149-.022-1.227.784-.077.806.343 1.756.951 2.12.607.376 1.149.023 1.226-.784.078-.806-.353-1.756-.95-2.12z" fill="#5C5B63"/><path d="M186.353 109.086c0-.795-.564-1.756-1.249-2.153-.342-.199-.663-.221-.884-.088l-1.138.728 1.834 2.993 1.061-.685c.243-.121.376-.397.376-.795z" fill="#76757C"/><path d="M185.259 109.793c0 .795-.564 1.104-1.249.707-.685-.398-1.249-1.359-1.249-2.154 0-.795.564-1.104 1.249-.706.685.397 1.249 1.358 1.249 2.153z" fill="#5C5B63"/><path d="M149.135 102.129c0-.795-.641-1.436-1.436-1.436-.763 0-1.381.597-1.437 1.348h-.011v.883h.232c.254.387.696.652 1.205.652.497 0 .939-.254 1.204-.652h.243v-.795z" fill="#76757C"/><path d="M149.135 102.913c0 .795-.641 1.436-1.436 1.436a1.434 1.434 0 01-1.437-1.436c0-.795.641-1.435 1.437-1.435.795 0 1.436.64 1.436 1.435z" fill="#5C5B63"/><path d="M185.38 93.924c-.232-.133-.541-.11-.884.088-.685.398-1.248 1.359-1.248 2.154 0 .375.132.64.331.773l1.017.707 1.757-3.049-.973-.673z" fill="#76757C"/><path d="M186.74 95.415c0 .795-.564 1.756-1.249 2.153-.685.398-1.249.077-1.249-.707 0-.795.564-1.755 1.249-2.153.685-.398 1.249-.088 1.249.707z" fill="#5C5B63"/><path d="M162.76 111.836c-.044-.022-.088.044-.143.199-.144.442-.265 1.436-.265 2.22 0 .552.055.85.143.839v.011l1.614.188.276-3.269-1.625-.188z" fill="#76757C"/><path d="M164.252 112.223c-.143.442-.265 1.435-.265 2.219 0 .796.11 1.072.265.641.144-.442.265-1.436.265-2.22 0-.795-.11-1.082-.265-.64z" fill="#5C5B63"/><path d="M167.501 98.606l12.266 3.634-.199-.133 5.757 5.897.785-.773-5.746-5.897-.078-.066-.132-.067-11.647-5.3-1.006 2.705z" fill="#C4C8D8"/><path d="M168.518 98.628l11.68-5.378-.343.022 5.78 1.569.287-1.06-5.768-1.58-.155-.033-.188.055-12.321 3.656 1.028 2.75z" fill="#C4C8D8"/><path d="M169.38 96.729l-3.945-7.709-.166-.33-.31-.023-1.48-.121-.089 1.104 1.481.11-.464-.342 2.221 8.36 2.752-1.05z" fill="#C4C8D8"/><path d="M167.998 95.702l-14.288 1.016-.166.01-.099.067-6.873 3.755.53.972 6.873-3.766-.265.066 14.299.983-.011-3.103z" fill="#C4C8D8"/><path d="M166.473 96.651l-2.674 8.25-.044.154-.011.033-.984 7.731 1.083.21 2.067-7.51-.056.188 3.68-7.852-3.061-1.204z" fill="#C4C8D8"/><path d="M170.717 99.191c-1.492.862-3.912.851-5.404-.01-1.503-.862-1.503-2.264-.022-3.126 1.492-.861 3.912-.85 5.404.011 1.502.873 1.513 2.264.022 3.125z" fill="#C4C8D8"/><path d="M170.717 97.8c-1.492.861-3.912.85-5.404-.011-1.503-.861-1.503-2.264-.022-3.125 1.492-.862 3.912-.85 5.404.01 1.502.873 1.513 2.276.022 3.126z" fill="#D9DBE6"/><path d="M170.485 95.912v-4.197h-.564c-.055-.033-.111-.077-.166-.11-.972-.564-2.541-.564-3.514-.011-.066.033-.121.077-.177.11h-.541v4.197c0 .364.243.728.729 1.005.973.563 2.542.563 3.514.01.487-.275.719-.64.719-1.004z" fill="#76757C"/><path d="M169.766 92.731c-.961.552-2.541.552-3.514-.01-.972-.564-.972-1.47-.011-2.022.962-.552 2.542-.552 3.514.011.973.552.973 1.458.011 2.021z" fill="#5C5B63"/><path d="M170.098 91.384V85.2h-.475a.62.62 0 00-.144-.089c-.818-.475-2.144-.475-2.962 0-.055.033-.099.066-.154.1h-.453v6.184c0 .31.21.618.618.85.818.475 2.144.475 2.962 0 .409-.243.608-.552.608-.861z" fill="#C4C8D8"/><path d="M169.49 86.06c-.818.476-2.133.465-2.961 0-.818-.474-.829-1.236-.012-1.71.818-.476 2.133-.465 2.962.01.818.464.818 1.226.011 1.7z" fill="#D9DBE6"/><path d="M159.324 67.43l1.138-.353c-.188-.596-1.845-5.886-3.348-7.09-1.492-1.192-9.128 2.386-13.559 4.628l.541 1.06c5.183-2.628 11.349-5.19 12.288-4.749.906.73 2.288 4.384 2.94 6.505z" fill="#C4C8D8"/><path d="M160.727 34.09s3.636-2.495 5.713-1.877c2.111.332 17.614 10.492 16.863 13.34-1.326 4.97-.221 5.004.442 34.644 0 0-.641 2.573-3.812 4.495-3.172 1.921-9.349-5.688-9.349-5.688l-9.857-44.913z" fill="#2D2C37"/><path d="M179.877 80.12l-17.459-9.862c-1.138-.663-1.978-2.496-1.967-1.403l2.254-30.976c.221-4.274 3.105-6.207 4.255-5.544l17.459 9.862c1.138.662 1.978 2.495 1.868 4.086l-.962 9.497-.818 1.104-.773 9.453c-.497 2.949-.044 3.777-.022 6.77l.033 7.09c-.122 1.59-2.729.585-3.868-.078z" fill="#2D2C37"/><path d="M183.148 66.956l-21.603-12.258.11-10.712 22.775 11.64-1.282 11.33z" fill="#2D2C37"/><path d="M179.469 70.468l-18.742-10.845.818-4.925 21.603 12.258-3.679 3.512z" fill="#2D2C37"/><path d="M180.982 56.873l-21.603-12.258c-2.685-1.866.122-8.846.122-8.846.983-2.197 2.176-2.286 3.315-1.623l18.2 10.26c1.138.662 0 2.075-.266 3.743-.696 4.373.232 8.724.232 8.724z" fill="#5C5B63"/><path d="M180.861 67.585l-21.604-12.258s-2.574-6.383.111-10.712l21.603 12.258c-2.63 4.252-.188 10.536-.11 10.712z" fill="#4B4A53"/><path d="M159.257 55.327c-1.834 4.881-2.287 6.063-1.591 11.231l.409 3.026 21.603 12.258-.408-3.026c-.686-5.168-.244-6.35 1.591-11.23l-21.604-12.259z" fill="#42414B"/><path d="M159.257 55.327s-.243 1.093 7.935 5.688c8.177 4.594 13.448 6.946 13.448 6.946l.221-.387-21.604-12.247z" fill="#393842"/><path d="M179.667 81.842s.243-1.104-7.934-5.687c-8.177-4.594-13.448-6.947-13.448-6.947l-.221.387 21.603 12.247z" fill="#25242F"/><path d="M180.22 83.996s0 .01-.011.01c.011.365-.243.752-.763 1.05l-13.028 7.52c-.707.409-1.558.663-2.431.762a6.605 6.605 0 01-1.812-.033c-.564-.088-1.083-.254-1.503-.497L142.008 82.02c-.652-.376-.972-.872-.984-1.403 0 0-.254-2.595 0-4.085a3.49 3.49 0 01.299-.972c.155-.32.376-.575.652-.806h.011c.387-.32.884-.597 1.547-.961 1.547-.85 7.835-3.523 10.829-3.91 2.995-.375 3.702-.287 3.702-.287l20.487 11.596 1.326.74c0-.011.398 1.59.343 2.065z" fill="#393842"/><path d="M179.877 81.92l-.176-.243c-.21-.011-1.094-.034-3.647.298-2.995.375-9.282 3.059-10.829 3.91-.707.386-1.238.684-1.625 1.026-.928.64-1.933.508-2.574.409-.652-.1-17.526-9.829-19.018-10.756-.575-.354-.707-.707-.652-1.005a3.346 3.346 0 00-.298.971c-.254 1.491 0 4.087 0 4.087.011.53.342 1.026.983 1.402l18.664 10.79c.52.297 1.171.474 1.879.54.022 0 .044.011.066.011a.74.74 0 01.155.011c.398.023.806.012 1.215-.033.862-.099 1.724-.353 2.431-.762l13.029-7.52c.519-.298.773-.685.762-1.05l.011-.01c.022-.475-.376-2.076-.376-2.076zm-22.332-24.56s-.641.198-1.658.507c-.53-.055-1.061.011-1.436.221l-1.625.74c-4.774 1.524-11.481 3.744-11.547 4.252a6.295 6.295 0 000 1.49v.067c.055.243.243.497.596.695.741.431 1.868.475 2.509.1l12.741-5.798a.772.772 0 00.375-.409.626.626 0 00.056-.132c.287-1.16-.011-1.734-.011-1.734z" fill="#25242F"/><path d="M141.709 62.428l12.742-5.798c.64-.364 1.768-.32 2.508.1.74.43.818 1.082.177 1.446l-12.741 5.798c-.641.376-1.768.32-2.509-.1-.74-.43-.817-1.082-.177-1.446z" fill="#5C5B63"/><path d="M133.643 121.035c5.492 3.17 14.432 3.159 19.957-.033 5.525-3.191 5.558-8.349.066-11.518-5.492-3.17-14.432-3.159-19.957.033-5.536 3.191-5.569 8.349-.066 11.518z" fill="#F5F5F5"/><path d="M144.34 103.277s2.121 1.436 1.966 2.474c-.165 1.038-3.292 7.675-5.226 8.625-4.023 1.977-3.492-1.977-2.884-2.849.53-.773 2.751-2.971 2.508-4.782-.32-2.452 3.636-3.468 3.636-3.468z" fill="url(#paint0_linear)"/><path d="M144.572 109.097s.729.155.806.696c.078.541.376 2.551.376 2.551s.508.199.751.044c.254-.155.553-.839.553-.839s-.089-4.02.011-4.848c.11-.84-2.497 2.396-2.497 2.396z" fill="#8E8E8E"/><path d="M146.329 104.205s-2.42 3.7-3.271 6.041c-.851 2.352-1.956 3.39-2.851 3.456-1.437.111-2.453-.662-2.232-1.424l.232-.762s-3.205 4.24-2.465 6.582c.741 2.341 6.741-1.69 7.57-3.048.32-.519.663-4.075 1.381-5.158.718-1.082 2.067-.806 2.365-2.893.298-2.076-.729-2.794-.729-2.794z" fill="#6F7ABD"/><path d="M144.804 109.395c-.719 1.083-1.382 4.848-1.702 5.367-.774 1.259-6.045 4.782-7.382 3.291 0 .011 0 .033.011.045.752 2.341 6.741-1.69 7.57-3.048.32-.519.663-4.075 1.381-5.158.63-.938 2.133-.839 2.31-2.551-.553.486-1.658 1.27-2.188 2.054zm3.392 1.005s1.028-.353 1.039.188c.011.541.011 3.921.011 3.921s.254.22.519.099c.266-.133.641-.773.641-.773s.277-3.313.232-4.141c-.077-1.005-2.442.706-2.442.706z" fill="#8E8E8E"/><path d="M148.285 105.641s1.602 1.181 1.635 2.794c.033 1.579-1.68 8.083-3.669 8.901-1.989.828-4.066-.398-3.945-1.326.133-.927 1.802-3.843 2.199-6.118.431-2.418 3.78-4.251 3.78-4.251z" fill="url(#paint1_linear)"/><path d="M144.461 108.965s-1.403 2.926-1.989 4.903c-1.271 4.307-1.116 6.162-.762 7.167.375 1.038 3.381-.033 5.481-1.899 2.397-2.143 1.215-4.528 2.63-7.057.464-.817.895-1.425.806-3.324-.044-1.623-1.514-2.231-1.514-2.231s1.15 1.59.641 2.993c-.265.707-.143.994-.541 1.877-.796 1.756-.873 3.435-2.067 4.738-1.127 1.215-4.63.651-4.563-.044.121-1.281 1.138-3.468 1.536-4.683.464-1.457.342-2.44.342-2.44z" fill="#6F7ABD"/><path d="M149.71 111.902c-1.414 2.529-.166 4.76-2.564 6.891-1.933 1.723-4.84 2.827-5.492 2.088.022.055.033.11.056.154.375 1.038 3.381-.033 5.481-1.899 2.397-2.143 1.215-4.528 2.629-7.057.299-.541.774-1.071.774-2.109-.243.574-.652 1.535-.884 1.932z" fill="#8E8E8E"/><path d="M151.865 85.774c5.492 3.17 14.432 3.158 19.957-.033 5.525-3.192 5.558-8.35.066-11.519-5.492-3.17-14.432-3.158-19.957.034-5.536 3.191-5.558 8.348-.066 11.518z" fill="#E6E7F2"/><path d="M157.412 62.041s-19.515 16.566-19.526 19.15c-.011 2.584 2.442 22.65 2.31 24.24-.133 1.59 4.221.994 4.541-.541.321-1.535 1.901-16.919 1.901-16.919l22.985-17.78-12.211-8.15z" fill="#5C6467"/><path d="M146.638 87.971s-1.569 15.384-1.901 16.919c-.132.64-.961 1.115-1.878 1.336 0-2.043-.542-6.759-.928-9.464-.63-4.307 1.204-9.365 1.303-10.988.233-3.855 10.277-8.128 10.277-8.128s.564 1.557 1.371 3.942l-8.244 6.383z" fill="#E6EAF2"/><path d="M149.323 106.37s3.614-14.655 2.984-15.958c-.63-1.303-.1-1.469-.1-1.469s1.691-.983 8.045-1.988c6.199-1.623 11.548-4.671 13.028-6.714 2.796-3.887 1.315-9.166.652-10.613-.674-1.446-10.951-.066-12.851 1.9-1.901 1.954-17.703 9.232-17.261 14.61.442 5.378 1.017 15.118.685 20.971 2.255 2.695 4.818-.739 4.818-.739z" fill="#5C6467"/><path d="M173.291 80.23c-1.469 2.054-6.818 5.102-13.028 6.725-6.354.994-8.045 1.977-8.045 1.977s-.53.177.089 1.469c.641 1.314-2.984 15.969-2.984 15.969s-.188.242-.486.541c.464-3.026 2.63-16.477 2.586-19.017 14.675-2.64 20.995-7.355 21.979-12.578.42-2.176.243-3.92-.088-5.202a7.431 7.431 0 00-.31-.983c-.442-1.137-.939-1.711-.939-1.711s-.641.728-1.602 1.612c-.907.828-2.111 1.789-3.327 2.396-.364.177-.773.387-1.215.63-2.641 1.38-6.365 3.512-6.365 3.512l-1.392-.685 5.403-3.159.033-.044 1.315-1.8 4.52-6.217s-.774-2.617-1.934-5.003c-1.16-2.385-1.956-9.21-1.956-9.21-.563-4.737 1.481-4.009 3.172-3.633.066 4.009 2.828 12.821 3.359 14.478.917 2.86 1.083 6.935 1.635 8.713 0 0 0 .132-.055.331a.55.55 0 01.298.265c.641 1.458 2.133 6.726-.663 10.624z" fill="#E6E7F2"/><path d="M181.668 79.954c.43.32.872-.331.872-.696 0-.441-.221-.861-.364-1.27a34.436 34.436 0 00-.785-2.032c-.475-1.126-1.016-2.573-2-3.368-.552-.453-1.558-.21-2.177-.088-1.248.265-2.464.707-3.646 1.17a70.663 70.663 0 00-4.597 2.01c-.719.343-1.437.685-2.155 1.05-.188.088-.884.309-.973.485-.165.343.586.795.862.817.398.023.895-.364 1.26-.54.939-.453 1.879-.895 2.818-1.315 1.669-.75 3.37-1.48 5.105-2.076.586-.199 1.183-.397 1.79-.519.288-.055.697-.177.984-.044.353.154.63.817.807 1.126.331.608.607 1.237.872 1.878.299.706.564 1.435.818 2.153.111.32.221.652.332.972.044.144.099.232.177.287z" fill="#C4C8D8"/><path d="M179.612 69.407s-.641.2-1.657.52c-.531-.056-1.061.01-1.437.22l-1.624.74c-4.774 1.524-11.482 3.744-11.548 4.252a6.408 6.408 0 000 1.49v.067c.055.243.243.497.597.696.74.43 1.867.475 2.508.1l12.741-5.799a.776.776 0 00.376-.408.674.674 0 00.055-.133c.287-1.17-.011-1.745-.011-1.745z" fill="#25242F"/><path d="M163.777 74.476l12.741-5.797c.641-.365 1.768-.32 2.508.1.741.43.818 1.081.177 1.446l-12.741 5.797c-.641.365-1.768.32-2.508-.099-.741-.43-.818-1.082-.177-1.447z" fill="#5C5B63"/><path d="M170.286 18.696s2.044-1.06 3.315.045c1.271 1.115.751 5.897-.553 8.724-1.16 2.529-.574 7.012 2.288 7.951-2.012 1.502-6.542-.166-7.161-2.938-.619-2.771 2.111-13.782 2.111-13.782z" fill="#551F1A"/><path d="M159.611 33.108s-1.867-1.049-3.459 2.827c-1.591 3.877-3.315 12.667-4.099 13.948-.785 1.281-.034 2.772 4.232 3.854 4.276 1.082 3.326-20.629 3.326-20.629z" fill="#3EC5FF"/><path d="M153.787 43.5s.509.84 1.824.85c1.315.011 9.647-10.878 7.702-11.606-1.945-.718-4.133.022-4.851.32-1.415.596-2.929 2.838-4.675 10.436z" fill="#3EC5FF"/><path d="M154.274 47.332c-.011.762.044 1.568.177 2.396v.011c.011.078.011.177.033.254.132.862.32 1.712.596 2.54.067.232.133.42.177.552.774 2.12-.829 13.738-.585 14.655.243.906.839 1.844 4.784 3.114 1.105.354 2.354.619 3.647.773.32.044.652.078.983.11a27.86 27.86 0 003.448.133c.21 0 .409 0 .619-.01.331-.012.652-.034.972-.056 1.371-.1 2.586-.298 3.437-.608.442-.143.796-.32 1.072-.519.199-.132.342-.254.442-.408 0 0-.475-8.68-.199-12.048.166-2.077 1.359-4.782 2.475-7.455.498-1.181.973-2.363 1.348-3.478.144-.453.277-.895.387-1.314 1.801-6.947-.862-7.82-2.95-9.454-1.801-1.424-4.586-3.235-6.664-3.788-3.149-.828-6.464-.132-7.425-.044-.962.078-3.139.652-4.354 4.782-1.227 4.13-2.232 6.913-2.398 8.956-.022.287-.022.597-.022.906z" fill="#15ABEB"/><path d="M170.451 33.505s1.161.762 1.415 1.701c.254.939-3.79 6.571-10.752 9.232-2.674-4.991-.995-8.437.309-10.38 1.371-2.032 1.857-1.723 1.857-1.723l7.171 1.17z" fill="#DDE8F6"/><path d="M161.722 32.236s.497 1.148.386 2.197c-.11 1.05-.685 2.783-.685 2.783s.641 1.237 3.205.95c2.564-.287 2.652-1.17 3.459-1.635.806-.452 2.895-2.562 2.762-2.705-.132-.144-2.254-1.204-1.436-4.24.817-3.038 2.011-4.606 2.011-4.606s.707-1.281-.177-1.37c-.884-.077-9.525 8.626-9.525 8.626z" fill="url(#paint2_linear)"/><path d="M169.38 32.732l-.177 1.447s-1.536 3.777-6.188 3.689c-.1.717 0 2.771.729 3.368 2.961-1.127 6.011-3.556 7.105-5.345.785-1.292-.342-2.805-.342-2.805l-1.028-.917-.099.563zm-7.238 1.392l-.21 1.513c.055.464.199 1.568 1.083 2.23-.884 1.116-2.376 1.635-2.94 1.569.464-1.723.884-2.65 1.348-3.932.299-.828.674-1.7.719-1.38z" fill="#fff"/><path d="M167.711 30.789s-2.188 2.032-2.641 3.07c-.464 1.038-2.586 2.44-2.586 2.44l-.354-2.285-.397-1.768 5.978-1.457z" fill="url(#paint3_linear)"/><path d="M154.274 47.332c-.011.762.044 1.568.177 2.396v.011c.011.078.011.177.033.254.21.972.442 1.91.596 2.54.067.232.133.42.177.552.774 2.12-.829 13.738-.585 14.655.243.906.839 1.844 4.784 3.114 1.105.354 2.354.619 3.647.773.32.044.652.078.983.11a27.86 27.86 0 003.448.133c.21 0 .409 0 .619-.01 2.42-.1 4.486-.52 5.481-1.183.199-.132.342-.254.442-.408 0 0-.475-8.68-.199-12.048.166-2.077 1.359-4.782 2.475-7.455-2.144-2.981-4.088-4.781-3.845-3.533.552 2.915.563 6.979-3.227 7.056-5.348.144-6.674-1.944-9.216-2.871-3.547-1.27-5.116-2.993-5.79-4.086z" fill="#0073A4"/><path d="M161.313 52.246s8 4.296 10.962 0c.055-3.026.199-6.295.199-6.295 2.11-.044 3.823.453 5.237 1.348a45.936 45.936 0 01-1.348 3.478c-1.116 2.673-2.32 5.379-2.475 7.455-.276 3.368.188 12.037.188 12.037-.276.375-.796.685-1.503.927.309-1.7.586-3.655.663-5.62.276-5.754-.862-6.604-.961-9.564a43.062 43.062 0 01-.011-2.11c-1.448.752-5.061 1.812-10.951-1.656z" fill="#0072A4"/><path d="M173.612 58.983s-1.724-12.667-.906-16.566c.817-3.898 3.447-3.953 4.608-3.445 1.16.508 1.746 1.8 1.337 7.675-.398 5.875-1.083 13.352-1.26 14.39-.177 1.038-3.779-2.054-3.779-2.054z" fill="#FEBFBF"/><path d="M176.54 38.574s1.978-.099 2.409 2.706c.431 2.805-1.182 18.829-1.182 18.829s-1.989.033-4.067 0c-1.646-.022-1.381-1.734-1.381-1.734s-.232-13.429.177-15.935c.398-2.496 1.337-4.142 4.044-3.866z" fill="#3EC5FF"/><path d="M161.811 16.601s-.972.773-1.613 2.419c-.641 1.634-1.083 3.037-1.039 3.324.044.287.288.905-.088 2.065-.376 1.17.806 7.001 2.077 7.576 1.271.574 7.117-1.392 7.769-2.22.652-.829 2.309-4.208 2.519-6.483.21-2.275.873-4.925-2.42-6.294-3.304-1.359-7.205-.387-7.205-.387z" fill="#FFC9B6"/><path d="M172.254 24.166s-.531-.696-.939-.453c-.398.232-1.15.552-1.183.861-.033.32-.32 2.021-.32 2.021s-.73-1.27-.597-2.528c.122-1.26-.265-3.026-.774-3.81-.508-.785-1.027-2-2.243-2.187-1.215-.188-2.884.044-3.878-.033-.984-.077-1.393-.43-1.393-.43l-.895 1.788s.055-.894.608-1.9c.552-1.004 4.553-5.554 10.177-2.396 4.122 2 3.857 6.582 3.216 8.239-.641 1.656-2.586 3.136-2.785 3.644-.199.508-.729 1.226-.729 1.7 0 .476.232-1.777.63-2.727.409-.95 1.105-1.79 1.105-1.79z" fill="#86322A"/><path d="M170.751 24.53s1.448-1.446 1.967-.309c.519 1.138-.63 2.43-1.381 3.048-.752.619-1.293.795-1.514.453-.21-.343.353-1.58.353-1.58l.575-1.612z" fill="#FEB9B8"/><path d="M59.86 104.791v11.22l93.154 53.737v-11.221L59.86 104.791z" fill="#91898C"/><path d="M153.014 158.527v11.22l38.742-22.351v-11.22l-38.742 22.351z" fill="#6B6164"/><path d="M153.014 158.527l38.742-22.351-93.165-53.737L59.85 104.79l93.165 53.737z" fill="#6B6164"/><path d="M193.259 139.069V94.973l-40.599 23.423L108.879 79.7V46.305l-51.44 17.172v44.096l95.221 54.919 40.599-23.423z" fill="#EBE7E3"/><path d="M59.86 71.914v11.231l93.154 53.737v-11.231L59.86 71.914z" fill="#DED8D1"/><path d="M193.259 94.973l-40.599 23.423v44.096l40.599-23.423V94.973z" fill="#DED8D1"/><path d="M148.108 124.911v3.998L202 97.811v-4.009l-53.892 31.109z" fill="#AE835B"/><path d="M148.097 124.911L202 93.813 101.785 35.99 47.881 67.1l100.216 57.811z" fill="#E8B687"/><path d="M47.881 67.1v3.997l100.227 57.812v-3.998L47.881 67.099z" fill="#C49276"/><path d="M9.846 124.536c9.36-5.4 32.996-11.872 42.29-6.505l20.244 11.684c2.586 1.491 2.574 3.932-.033 5.433l-19.405 11.198c6.652-1.126 14.167-.165 19.438 2.883 7.669 4.428 7.713 11.584.088 15.979-7.625 4.396-20.023 4.374-27.692-.055-5.271-3.048-6.94-7.377-4.995-11.209l-5.083 2.938c-2.597 1.502-6.84 1.502-9.426.022L5.028 145.209c-9.293-5.367-4.542-15.273 4.818-20.673z" fill="#B5B8C9"/><path d="M19.614 91.262L42.08 88.16l31.493 19.194v24.438h-.01c-.034.387-.288.762-.797 1.061l-3.17 1.833c-1.073.618-2.808.618-3.88.011l-4.961-2.86-12.2-7.046c-7.99-4.605-15.625-4.053-23.548-.376-.685-.485-1.37-.993-2.055-1.479L8.11 131.007l.984 10.944-6.288-4.925v-32.357l16.807-13.407z" fill="#0079AD"/><path d="M21.095 117.943c9.36-5.4 18.167-7.023 27.46-1.656l10.222 5.897-.144-1.016 4.044-.828v11.926l-.01.011c-.045.95-.686 1.911-1.945 2.629l-20.886 12.048c-2.596 1.502-6.84 1.513-9.425.022L18.2 139.93c-9.271-5.378-6.464-16.587 2.895-21.987z" fill="#1798CF"/><path d="M21.095 112.311c9.36-5.4 18.167-7.024 27.46-1.657l12.21 7.046c2.587 1.491 2.575 3.931-.032 5.433l-20.886 12.049c-2.596 1.501-6.84 1.501-9.425.022l-12.211-7.046c-9.282-5.367-6.475-10.447 2.884-15.847z" fill="#1798CF"/><path d="M35.107 135.546c1.713 0 3.315-.375 4.52-1.071l20.885-12.048c1.116-.652 1.734-1.48 1.734-2.353 0-.861-.607-1.678-1.712-2.319l-12.21-7.045c-3.78-2.176-7.526-3.236-11.46-3.236-4.763 0-9.846 1.601-15.559 4.892-5.636 3.247-8.365 6.107-8.365 8.724 0 2.11 1.845 4.252 5.492 6.361l12.21 7.046c1.183.674 2.763 1.049 4.465 1.049z" fill="#1798CF"/><path d="M2.807 104.669l33.372 24.483v24.119c.022.419-.243.839-.807 1.159l-3.171 1.833c-1.072.619-2.807.619-3.879.012l-17.161-9.906c-5.768-3.324-7.967-6.527-8.299-9.299l-.055-.033v-32.368z" fill="#0079AD"/><path d="M3.26 101.974c1.459-4.141 6.299-8.603 12.586-12.236 6.288-3.633 11.714-5.09 17.935-5.378 5.834-.276 13.592 1.325 21.802 7.951l17.195 13.871c1.071.861 1.06 2.065-.012 2.683l-3.171 1.833c-1.072.619-2.807.42-3.879-.441l-4.961-4.009-12.222-9.862c-9.315-7.51-18.122-6.581-27.482-1.181S8.885 106.38 18.2 113.89l12.222 9.862 4.961 4.008c1.072.862 1.061 2.066-.01 2.684l-3.172 1.833c-1.072.619-2.807.42-3.879-.442l-17.194-13.87c-8.21-6.626-9.227-12.103-7.868-15.991z" fill="#1798CF"/><path d="M30.709 131.714c.486 0 .928-.099 1.27-.298l3.172-1.833c.354-.21.564-.486.586-.806.033-.387-.2-.807-.63-1.149l-17.194-13.87c-4.2-3.391-6.122-6.527-5.88-9.608.266-3.335 3.14-6.549 8.786-9.807 5.028-2.904 9.558-4.306 13.846-4.306 4.895 0 9.525 1.81 14.133 5.532l17.195 13.871c.541.441 1.337.706 2.11.706.486 0 .928-.099 1.271-.298l3.171-1.833c.354-.21.564-.486.586-.806.033-.387-.199-.806-.63-1.149L55.307 92.179c-8.078-6.516-15.493-7.885-20.288-7.885-.41 0-.818.011-1.216.033-6.498.298-11.79 1.889-17.725 5.323-6.52 3.766-11.039 8.139-12.398 12.004-1.16 3.291-.752 8.658 7.724 15.494l17.194 13.87c.542.431 1.337.696 2.11.696-.01 0-.01 0 0 0z" fill="#5ABEF4"/><path d="M30.698 130.941c.442 0 .829-.088 1.127-.265l3.171-1.833c.277-.155.42-.354.442-.574.023-.277-.176-.619-.519-.895l-17.194-13.87c-4.277-3.457-6.233-6.682-5.99-9.862.266-3.446 3.194-6.725 8.93-10.038 5.071-2.927 9.646-4.352 13.989-4.352 4.972 0 9.658 1.834 14.321 5.6l17.194 13.87c.498.397 1.216.64 1.923.64.442 0 .829-.088 1.127-.265l3.172-1.833c.276-.155.42-.353.442-.574.022-.276-.177-.619-.52-.895L55.12 91.925c-8-6.46-15.349-7.819-20.1-7.819-.41 0-.807.011-1.205.033-6.442.299-11.702 1.878-17.592 5.279-6.465 3.733-10.929 8.04-12.266 11.839-1.127 3.202-.718 8.437 7.636 15.173l17.194 13.871c.497.397 1.205.64 1.912.64z" fill="#1798CF"/><path d="M138.847 191.448c-17.702 10.402-32.996 11.871-42.29 6.504l-20.243-11.684c-2.586-1.491-2.575-3.942.033-5.433l37.659-21.722c2.597-1.502 6.84-1.513 9.426-.022l20.244 11.683c9.283 5.367 4.531 15.273-4.829 20.674z" fill="#B5B8C9"/><path d="M112.968 137.225v24.163l25.194 10.966.862-26.637s-11.614-9.983-26.056-8.492z" fill="#0079AD"/><path d="M128.04 178.571c-9.359 5.4-18.167 7.024-27.46 1.657l-12.21-7.046c-2.586-1.491-2.575-3.932.033-5.433l20.885-12.049c2.597-1.502 6.84-1.513 9.426-.022l12.21 7.046c9.294 5.367 6.476 10.447-2.884 15.847z" fill="#1798CF"/><path d="M128.04 174.021c-9.359 5.4-18.167 7.024-27.46 1.657l-12.21-7.046c-2.586-1.491-2.575-3.931.033-5.433l20.885-12.049c2.597-1.501 6.84-1.512 9.426-.022l12.21 7.046c9.294 5.367 6.476 10.447-2.884 15.847z" fill="#1798CF"/><path d="M112.26 178.207c4.752 0 9.846-1.602 15.559-4.893 5.636-3.246 8.365-6.107 8.365-8.724 0-2.109-1.845-4.251-5.492-6.35l-12.21-7.045c-1.172-.674-2.763-1.049-4.465-1.049-1.712 0-3.315.375-4.519 1.071l-20.885 12.048c-1.116.652-1.735 1.48-1.735 2.352 0 .862.608 1.679 1.713 2.319l12.21 7.046c3.779 2.164 7.537 3.225 11.459 3.225z" fill="#1798CF"/><path d="M75.584 182.757l-.01-24.053 29.172 4.417 11.073-1.17 11.691-3.379 10.951-7.134 7.857-6.494v34.036l-.056.033a7.444 7.444 0 01-.453 1.789c-1.458 3.589-6.309 7.774-12.597 11.408-6.288 3.633-11.713 5.367-17.924 6.206-5.823.784-13.581.21-21.78-4.528l-17.15-9.906c-.586-.342-.829-.784-.774-1.225z" fill="#0079AD"/><path d="M145.754 146.832c-1.459 2.883-6.31 6.726-12.608 10.348-6.288 3.633-11.714 5.72-17.924 7.266-5.824 1.447-13.559 2.154-21.747-.154l-17.128-4.848c-1.061-.298-1.061-1.049.01-1.668l3.172-1.833c1.072-.618 2.807-.872 3.879-.574l4.95 1.402 12.178 3.446c9.282 2.628 18.078.11 27.438-5.279 9.36-5.4 12.177-9.597 2.895-12.214l-12.177-3.445-4.951-1.403c-1.061-.298-1.061-1.049.011-1.667l3.172-1.834c1.072-.618 2.806-.883 3.878-.574l17.128 4.848c8.2 2.297 9.194 5.478 7.824 8.183z" fill="#1798CF"/><path d="M104.448 164.844c3.547 0 7.138-.442 10.674-1.325 6.52-1.624 11.846-3.777 17.803-7.223 6.541-3.776 11.072-7.476 12.431-10.17.542-1.061.608-2.055.21-2.971-.796-1.822-3.403-3.368-7.746-4.605l-17.128-4.848a3.689 3.689 0 00-.917-.111c-.906 0-1.934.254-2.619.641l-3.172 1.833c-.508.287-.596.519-.585.585.011.044.099.177.475.276l17.128 4.848c3.812 1.083 5.779 2.474 6 4.263.287 2.352-2.497 5.135-8.796 8.769-7.558 4.362-13.968 6.394-20.178 6.383-2.552 0-5.105-.354-7.602-1.061l-17.129-4.848a3.739 3.739 0 00-.917-.11c-.906 0-1.933.254-2.619.641l-3.171 1.833c-.508.287-.597.519-.586.585.011.044.1.177.475.276l17.129 4.848c3.47.994 7.127 1.491 10.84 1.491z" fill="#5ABEF4"/><path d="M104.448 164.071c3.525 0 7.094-.442 10.608-1.314 6.487-1.612 11.791-3.766 17.725-7.189 6.486-3.744 10.973-7.399 12.31-10.039.497-.972.564-1.888.199-2.716-.763-1.745-3.304-3.236-7.559-4.44l-17.128-4.848a3.079 3.079 0 00-.839-.099c-.862 0-1.835.232-2.465.607l-3.171 1.833a1.68 1.68 0 00-.354.254c.045.022.1.045.177.056l17.128 4.848c3.945 1.115 5.978 2.584 6.21 4.505.31 2.485-2.53 5.367-8.939 9.067-7.603 4.384-14.056 6.427-20.322 6.427-2.575 0-5.16-.364-7.68-1.071l-17.128-4.848c-.22-.066-.52-.1-.84-.1-.861 0-1.834.232-2.464.608l-3.171 1.833a1.626 1.626 0 00-.354.254.56.56 0 00.177.055l17.128 4.848a39.539 39.539 0 0010.752 1.469z" fill="#1798CF"/><path d="M118.924 62.77l11.912-6.89c.398-.232 1.039-.232 1.425 0l29.98 17.415 1.348.331v.674c.011.166-.077.32-.287.442l-12.178 7.034c-.397.232-1.038.232-1.425 0l-31.04-18.034c-.188-.11-.288-.254-.288-.397v-.718l.553.144z" fill="#C5C9D8"/><path d="M163.302 73.228l-31.041-18.033c-.397-.232-1.027-.232-1.425 0l-12.178 7.034c-.397.232-.397.597 0 .828l31.041 18.034c.398.232 1.028.232 1.425 0l12.178-7.034c.398-.232.398-.597 0-.829z" fill="#DADAE8"/><path d="M121.697 62.041v-.165h.133l1.348-.784a.561.561 0 01.497 0l1.359.784h.122v.165c0 .045-.033.1-.099.133l-1.382.795a.561.561 0 01-.497 0l-1.37-.795c-.078-.033-.111-.088-.111-.133zm8.697-5.024v-.166h.132l1.349-.784a.561.561 0 01.497 0l1.359.784h.122v.165c0 .045-.034.1-.1.133l-1.381.795a.561.561 0 01-.497 0l-1.371-.795c-.077-.022-.11-.077-.11-.132zm2.144 1.247V58.1h.132l1.348-.784a.564.564 0 01.498 0l1.359.784h.121v.165c0 .045-.033.1-.099.133l-1.381.795a.564.564 0 01-.498 0l-1.37-.795c-.077-.022-.11-.077-.11-.133zm2.154 1.249v-.166h.133l1.348-.784a.561.561 0 01.497 0l1.36.784h.121v.166c0 .044-.033.099-.099.132l-1.382.795a.561.561 0 01-.497 0l-1.37-.795c-.077-.033-.111-.077-.111-.132zm2.144 1.247v-.165h.133l1.348-.784a.561.561 0 01.497 0l1.359.784h.122v.165c0 .045-.033.1-.1.133l-1.381.795a.561.561 0 01-.497 0l-1.37-.795c-.078-.033-.111-.077-.111-.133zm-12.995 2.53v-.166h.133l1.348-.784a.561.561 0 01.497 0l1.359.784h.122v.165c0 .045-.033.1-.1.133l-1.381.795a.561.561 0 01-.497 0l-1.37-.795c-.078-.033-.111-.088-.111-.133zm3.381-.553v-.166h.133l1.348-.783a.561.561 0 01.497 0l1.36.784h.121v.165c0 .044-.033.1-.099.133l-1.382.795a.561.561 0 01-.497 0l-1.37-.795c-.077-.022-.111-.078-.111-.133zm2.144 1.248v-.154h.133l1.348-.785a.561.561 0 01.497 0l1.359.785h.122v.165c0 .044-.033.1-.099.133l-1.382.795a.561.561 0 01-.497 0l-1.37-.795c-.078-.033-.111-.089-.111-.144zm1.116-1.877v-.166h.133l1.348-.784a.561.561 0 01.497 0l1.359.784h.122v.165c0 .045-.033.1-.099.133l-1.382.795a.56.56 0 01-.497 0l-1.37-.795c-.078-.033-.111-.088-.111-.132zm2.188-1.27v-.166h.133l1.348-.784a.561.561 0 01.497 0l1.359.784h.122v.165c0 .045-.033.1-.099.133l-1.382.795a.561.561 0 01-.497 0l-1.37-.795c-.078-.022-.111-.077-.111-.132zm2.144 1.248v-.166h.133l1.348-.784a.561.561 0 01.497 0l1.359.784h.122v.166c0 .044-.033.099-.1.132l-1.381.795a.561.561 0 01-.497 0l-1.371-.795c-.077-.022-.11-.077-.11-.132zm2.144 1.248v-.166h.132l1.349-.784a.561.561 0 01.497 0l1.359.784h.122v.165c0 .045-.034.1-.1.133l-1.381.795a.561.561 0 01-.497 0l-1.371-.795c-.077-.033-.11-.077-.11-.132zm2.144 1.247v-.165h.132l1.348-.784a.564.564 0 01.498 0l1.359.784h.121v.165c0 .045-.033.1-.099.133l-1.381.795a.564.564 0 01-.498 0l-1.37-.795c-.077-.033-.11-.088-.11-.133zm2.143 1.249v-.166h.133l1.348-.785a.561.561 0 01.497 0l1.359.785h.122v.165c0 .044-.033.1-.099.133l-1.382.795a.561.561 0 01-.497 0l-1.37-.795c-.067-.033-.111-.089-.111-.133zm2.155 1.236v-.165h.133l1.348-.784a.561.561 0 01.497 0l1.359.784h.122v.165c0 .044-.033.1-.1.133l-1.381.795a.561.561 0 01-.497 0l-1.37-.795c-.078-.022-.111-.078-.111-.133zm2.144 1.248v-.165h.132l1.349-.785a.561.561 0 01.497 0l1.359.784h.122v.166c0 .044-.034.1-.1.133l-1.381.795a.561.561 0 01-.497 0l-1.371-.795c-.077-.023-.11-.078-.11-.133zm2.144 1.248v-.166h.132l1.348-.784a.564.564 0 01.498 0l1.359.784h.121v.177c0 .044-.033.1-.099.133l-1.381.795a.564.564 0 01-.498 0l-1.37-.796c-.077-.033-.11-.088-.11-.143zm5.602 1.248v.165h-.132l-1.349.785a.561.561 0 01-.497 0l-1.359-.785h-.122v-.165c0-.044.034-.1.1-.133l1.381-.795a.561.561 0 01.497 0l1.371.795c.077.022.11.078.11.133zm-1.16-1.17v-.166h.132l1.349-.784a.561.561 0 01.497 0l1.359.784h.122v.165c0 .044-.034.1-.1.133l-1.381.795a.561.561 0 01-.497 0l-1.371-.795c-.077-.022-.11-.078-.11-.133zm2.144 1.247v-.165h.132l1.348-.785a.564.564 0 01.498 0l1.359.785h.121v.165c0 .044-.033.1-.099.133l-1.381.795a.564.564 0 01-.498 0l-1.37-.795c-.077-.022-.11-.078-.11-.133zm4.342 2.529v-.165h.133l1.348-.785a.561.561 0 01.497 0l1.36.785h.121v.165c0 .044-.033.1-.099.133l-1.382.795a.561.561 0 01-.497 0l-1.37-.795c-.077-.034-.111-.089-.111-.133zm-2.21.972l1.348-.784a.564.564 0 01.498 0l.188.11 1.16.674h.121v.066l.078.044h.121v.166c0 .044-.033.1-.099.133l-1.381.795a.564.564 0 01-.498 0l-1.558-.906c-.066-.044-.099-.088-.099-.143v-.166l.121.011zm-4.431-2.33v-.166h.133l1.348-.784a.561.561 0 01.497 0l1.359.784h.122v.165c0 .045-.033.1-.1.133l-1.381.795a.561.561 0 01-.497 0l-1.37-.795c-.078-.033-.111-.077-.111-.132zm2.155 1.248v-.166h.133l1.348-.784a.561.561 0 01.497 0l1.359.784h.122v.166c0 .044-.033.099-.1.132l-1.381.795a.561.561 0 01-.497 0l-1.371-.795c-.077-.033-.121-.088-.11-.132zm-21.504-9.961v-.166h.133l1.348-.784a.561.561 0 01.497 0l1.359.784h.122v.165c0 .045-.033.1-.1.133l-1.381.795a.561.561 0 01-.497 0l-1.371-.795c-.077-.022-.11-.077-.11-.132zm2.144 1.247v-.165h.132l1.349-.784a.561.561 0 01.497 0l1.359.784h.122v.165c0 .045-.034.1-.1.133l-1.381.795a.561.561 0 01-.497 0l-1.371-.795c-.077-.022-.11-.077-.11-.133zm2.144 1.248v-.165h.132l1.348-.784a.564.564 0 01.498 0l1.359.784h.121v.166c0 .044-.033.099-.099.132l-1.381.795a.564.564 0 01-.498 0l-1.37-.795c-.077-.022-.11-.077-.11-.132zm2.143 1.248v-.165h.133l1.348-.785a.561.561 0 01.497 0l1.36.785h.121v.165c0 .044-.033.1-.099.133l-1.382.795a.561.561 0 01-.497 0l-1.37-.795c-.077-.033-.111-.078-.111-.133zm2.155 1.248v-.166h.133l1.348-.784a.561.561 0 01.497 0l1.359.784h.122v.166c0 .044-.033.1-.1.133l-1.381.795a.561.561 0 01-.497 0l-1.37-.795c-.078-.033-.111-.078-.111-.133zm2.144 1.248v-.166h.133l1.348-.784a.561.561 0 01.497 0l1.359.784h.122v.166c0 .044-.033.1-.1.133l-1.381.795a.561.561 0 01-.497 0l-1.371-.795c-.077-.034-.11-.089-.11-.133zm2.144 1.236v-.165h.132l1.348-.784a.564.564 0 01.498 0l1.359.784h.121v.165c0 .045-.033.1-.099.134l-1.381.795a.564.564 0 01-.498 0l-1.37-.795c-.077-.023-.11-.078-.11-.133zm2.143 1.249v-.166h.133l1.348-.784a.561.561 0 01.497 0l1.36.784h.121v.165c0 .045-.033.1-.099.133l-1.382.795a.561.561 0 01-.497 0l-1.37-.795c-.077-.022-.111-.077-.111-.132zm2.144 1.248v-.166h.133l1.348-.784a.561.561 0 01.497 0l1.359.784h.122v.165c0 .045-.033.1-.099.133l-1.382.795a.561.561 0 01-.497 0l-1.37-.795c-.078-.022-.111-.077-.111-.132zm-18.277-8.084v-.166h.133l1.348-.784a.561.561 0 01.497 0l1.359.784h.122v.166c0 .044-.033.1-.1.133l-1.381.795a.561.561 0 01-.497 0l-1.37-.795c-.078-.022-.111-.078-.111-.133zm2.144 1.247v-.165h.132l1.348-.784a.564.564 0 01.498 0l1.359.784h.121v.165c0 .045-.033.1-.099.133l-1.381.796a.564.564 0 01-.498 0l-1.37-.796c-.077-.033-.11-.077-.11-.132zm2.143 1.249v-.166h.133l1.348-.784a.561.561 0 01.497 0l1.36.784h.121v.165c0 .045-.033.1-.099.133l-1.382.795a.561.561 0 01-.497 0l-1.37-.795c-.077-.033-.111-.077-.111-.132zm2.155 1.248v-.166h.133l1.348-.784a.561.561 0 01.497 0l1.359.784h.122v.165c0 .045-.033.1-.099.133l-1.382.795a.561.561 0 01-.497 0l-1.37-.795c-.078-.033-.122-.088-.111-.132zm2.144 1.236v-.165h.133l1.348-.784a.561.561 0 01.497 0l1.359.784h.122v.165c0 .045-.033.1-.1.133l-1.381.795a.561.561 0 01-.497 0l-1.37-.795c-.078-.022-.111-.077-.111-.133zm2.144 1.249v-.166h.132l1.349-.784a.561.561 0 01.497 0l1.359.784h.122v.166c0 .044-.034.099-.1.132l-1.381.795a.561.561 0 01-.497 0l-1.371-.795c-.077-.022-.11-.077-.11-.132zm2.144 1.248v-.155h.132l1.348-.784a.564.564 0 01.498 0l1.359.784h.121v.165c0 .044-.033.1-.099.133l-1.381.795a.564.564 0 01-.498 0l-1.37-.795c-.077-.033-.11-.088-.11-.144zm2.143 1.247v-.165h.133l1.348-.785a.561.561 0 01.497 0l1.36.784h.121v.166c0 .044-.033.1-.099.133l-1.382.795a.561.561 0 01-.497 0l-1.37-.795c-.078-.022-.111-.078-.111-.133zm2.144 1.248v-.165h.133l1.348-.785a.561.561 0 01.497 0l1.359.785h.122v.165c0 .044-.033.1-.1.133l-1.381.795a.561.561 0 01-.497 0l-1.37-.795c-.078-.033-.111-.078-.111-.133zm-22.675-10.679v-.165h.132l1.349-.785a.561.561 0 01.497 0l1.359.785h.122v.165c0 .044-.034.1-.1.133l-1.381.795a.561.561 0 01-.497 0l-1.371-.795c-.077-.022-.11-.078-.11-.133zm2.144 1.248v-.166h.132l1.348-.784a.564.564 0 01.498 0l1.359.784h.121v.166c0 .044-.033.1-.099.133l-1.381.795a.564.564 0 01-.498 0l-1.37-.795c-.077-.022-.11-.078-.11-.133zm2.143 1.248v-.166h.133l1.348-.784a.561.561 0 01.497 0l1.36.784h.121v.166c0 .044-.033.1-.099.133l-1.382.795a.561.561 0 01-.497 0l-1.37-.795c-.078-.023-.111-.078-.111-.133zm2.144 1.248v-.166h.133l1.348-.784a.561.561 0 01.497 0l1.359.784h.122v.165c0 .045-.033.1-.1.133l-1.381.796a.561.561 0 01-.497 0l-1.37-.796c-.078-.033-.111-.077-.111-.132zm2.144 1.248v-.166h.133l1.348-.784a.561.561 0 01.497 0l1.359.784h.122v.165c0 .045-.033.1-.1.133l-1.381.795a.561.561 0 01-.497 0l-1.371-.795c-.077-.033-.11-.088-.11-.132zm2.155 1.248V70.6h.132l1.348-.784a.564.564 0 01.498 0l1.359.784h.121v.165c0 .045-.033.1-.099.133l-1.381.795a.564.564 0 01-.498 0l-1.37-.795c-.077-.033-.121-.088-.11-.132zm2.144 1.237v-.166h.132l1.348-.784a.563.563 0 01.498 0l1.359.784h.121v.166c0 .044-.033.099-.099.132l-1.381.795a.564.564 0 01-.498 0l-1.37-.795c-.077-.022-.11-.077-.11-.132zm2.143 1.247v-.165h.133l1.348-.784a.56.56 0 01.497 0l1.359.784h.122v.165c0 .045-.033.1-.1.133l-1.381.795a.561.561 0 01-.497 0l-1.37-.795c-.078-.022-.111-.077-.111-.133zm2.144 1.248v-.165h.133l1.348-.784a.561.561 0 01.497 0l1.359.784h.122v.165c0 .045-.033.1-.1.133l-1.381.795a.561.561 0 01-.497 0l-1.371-.795c-.077-.022-.11-.077-.11-.133zm2.144 1.248v-.165h.132l1.349-.785a.561.561 0 01.497 0l1.359.785h.122v.165c0 .044-.034.1-.1.133l-1.381.795a.561.561 0 01-.497 0l-1.371-.795c-.077-.033-.11-.078-.11-.133zm2.144 1.248v-.165h.132l1.348-.784a.564.564 0 01.498 0l1.359.784h.121v.165c0 .044-.033.1-.099.133l-1.381.795a.564.564 0 01-.498 0l-1.37-.795c-.077-.033-.11-.078-.11-.133zm2.154 1.071l.133.011 1.348-.773a.561.561 0 01.497 0l1.669.972.133.011v.176a.208.208 0 01-.1.122l-1.381.795a.561.561 0 01-.497 0l-1.702-.982c-.078-.044-.111-.1-.1-.155v-.177zM138.98 61.997v-.154h.133l1.348-.785a.566.566 0 01.508 0l1.359.785h.122v.066l9.536 5.533 1.359.784h.122v.165c0 .011 0 .022-.011.033v.011c0 .011-.011.023-.011.023l-.011.01-.022.023c-.011.01-.022.022-.044.033l-1.382.795a.392.392 0 01-.121.044.654.654 0 01-.387-.044l-1.37-.795-11.006-6.394c-.089-.022-.122-.078-.122-.133zm-15.957 2.143v-.155l.089.022.011-.01.375-.21a.564.564 0 01.498 0l1.271.74.198.043v.166c0 .055-.033.1-.099.132l-.376.21a.561.561 0 01-.497 0l-1.37-.795c-.067-.033-.1-.088-.1-.143zm2.144 1.248v-.155l.089.022.011-.01.375-.21a.564.564 0 01.498 0l1.27.74.199.043v.166c0 .044-.033.1-.099.133l-.376.21a.561.561 0 01-.497 0l-1.37-.796c-.067-.033-.1-.088-.1-.143zm2.144 1.247v-.154l.088.022.011-.011.376-.21a.561.561 0 01.497 0l1.271.74.199.044v.166c0 .044-.033.1-.1.132l-.364.21a.561.561 0 01-.497 0l-1.371-.795c-.066-.044-.099-.088-.11-.144zm2.155 1.248v-.154l.088.022.011-.011.376-.21a.561.561 0 01.497 0l1.271.74.199.044v.166c0 .055-.033.099-.1.132l-.375.21a.564.564 0 01-.498 0l-1.37-.795c-.066-.044-.099-.088-.099-.144zm2.143 1.248v-.154l.089.022.011-.011.376-.21a.561.561 0 01.497 0l1.271.74.21.044v.166c0 .044-.034.1-.1.132l-.376.21a.561.561 0 01-.497 0l-1.37-.795c-.077-.044-.111-.088-.111-.144zm2.144 1.249s0-.012 0 0v-.155l.089.022.011-.011.375-.21a.563.563 0 01.498 0l1.27.74.199.044v.165c0 .045-.033.1-.099.133l-.376.21a.561.561 0 01-.497 0l-1.37-.795c-.067-.044-.1-.1-.1-.144zm2.144 1.247s0-.01 0 0v-.154l.088.022.011-.011.376-.21a.561.561 0 01.497 0l1.271.74.21.044v.165c0 .045-.033.1-.099.133l-.376.21a.561.561 0 01-.497 0l-1.371-.795c-.077-.044-.11-.1-.11-.144zm2.144 1.237v-.155l.088.022c.011 0 .011-.01.011-.01l.376-.21a.561.561 0 01.497 0l1.271.74.199.044v.165c0 .056-.033.1-.1.133l-.375.21a.564.564 0 01-.498 0l-1.37-.795c-.066-.034-.099-.089-.099-.144zm2.155 1.248v-.155l.088.022.011-.01.376-.21a.561.561 0 01.497 0l1.271.74.199.044v.165c0 .044-.033.1-.1.133l-.375.21a.564.564 0 01-.498 0l-1.37-.796c-.066-.033-.099-.088-.099-.143zm2.143 1.248v-.155l.089.022c.011 0 .011-.01.011-.01l.375-.21a.564.564 0 01.498 0l1.27.74.199.043v.166c0 .044-.033.1-.099.133l-.376.21a.561.561 0 01-.497 0l-1.37-.796c-.067-.044-.1-.088-.1-.143zm2.144 1.248v-.155l.088.022.011-.01.376-.21a.561.561 0 01.497 0l1.271.74.199.043v.166c0 .044-.033.1-.099.133l-.376.21a.561.561 0 01-.497 0l-1.371-.796c-.066-.044-.099-.088-.099-.143zm2.144 1.248s0-.012 0 0V77.7l.088.022.011-.011.376-.21a.561.561 0 01.497 0l1.271.74.199.044v.166c0 .044-.033.1-.1.132l-.375.21a.561.561 0 01-.497 0L146.726 78c-.066-.044-.099-.1-.099-.143zm2.144 1.247c0-.01 0-.01 0 0v-.154l.088.022c.011 0 .011-.011.011-.011l.376-.21a.561.561 0 01.497 0l1.271.74.199.044v.166c0 .055-.034.1-.1.132l-.376.21a.561.561 0 01-.497 0l-1.37-.795c-.066-.044-.099-.1-.099-.144zm-24.897-18.475l.1.011h.011l1.381-.795a.562.562 0 01.497 0l2.542 1.48.143.022v.154c0 .056-.033.1-.099.133l-1.381.795a.564.564 0 01-.498 0l-2.585-1.502c-.067-.044-.1-.088-.1-.143v-.155h-.011zm2.177-1.259l.099.022s.012 0 .012-.011l1.381-.795a.561.561 0 01.497 0l3.569 2.076.188.044v.155c0 .055-.033.1-.099.143l-1.382.795a.56.56 0 01-.497 0l-3.657-2.12c-.067-.044-.1-.088-.1-.143v-.166h-.011zm2.188-1.259l.099.022s.012 0 .012-.01l1.381-.796a.561.561 0 01.497 0l3.569 2.076.188.044v.155c0 .055-.033.1-.099.144l-1.382.795a.561.561 0 01-.497 0l-3.657-2.12c-.067-.045-.1-.089-.1-.144v-.166h-.011zm22.598 18.177l.099.011 1.382-.795a.562.562 0 01.497 0l2.586 1.502.143.022v.154c0 .045-.033.1-.099.133l-1.381.796a.564.564 0 01-.498 0l-2.63-1.525c-.066-.044-.099-.088-.099-.143v-.155zm1.204-1.866l1.382-.795a.561.561 0 01.497 0l3.702 2.153c.132.078.132.21 0 .287l-1.381.796a.564.564 0 01-.498 0l-3.702-2.154c-.143-.077-.143-.21 0-.287zm4.387-2.286v-.155l.089.022.011-.01.376-.21a.561.561 0 01.497 0l1.271.74.199.044v.165c0 .044-.034.1-.1.133l-.376.21a.561.561 0 01-.497 0l-1.37-.795c-.066-.034-.1-.089-.1-.144zm1.006-.575s0-.01 0 0v-.154l.088.022c.012 0 .012-.01.012-.01l.375-.21a.564.564 0 01.498 0l1.27.74.199.044v.165c0 .044-.033.1-.099.133l-.376.21a.561.561 0 01-.497 0l-1.37-.796c-.067-.044-.1-.099-.1-.143zm-36.886-8.867v-.166l.1.033.375-.21a.564.564 0 01.498 0l1.58.917.221.067v.165a.258.258 0 01-.1.133l-.375.21a.564.564 0 01-.498 0l-1.701-.983c-.067-.056-.1-.11-.1-.166z" fill="#E7E7F0"/><path d="M125.046 62.053l-1.382.795a.561.561 0 01-.497 0l-1.37-.795c-.133-.078-.133-.21 0-.287l1.381-.796a.561.561 0 01.497 0l1.371.796c.143.077.143.21 0 .287zm2.143 1.247l-1.381.796a.561.561 0 01-.497 0l-1.37-.796c-.133-.077-.133-.21 0-.287l1.381-.795a.561.561 0 01.497 0l1.37.795c.144.078.144.21 0 .287zm2.155 1.248l-1.381.796a.56.56 0 01-.497 0l-1.371-.796c-.132-.077-.132-.21 0-.287l1.382-.795a.561.561 0 01.497 0l1.37.795c.133.078.133.2 0 .287zm2.144 1.237l-1.381.795a.564.564 0 01-.498 0l-1.37-.795c-.133-.077-.133-.21 0-.287l1.381-.795a.564.564 0 01.498 0l1.37.795c.132.077.132.21 0 .287zm2.144 1.248l-1.382.795a.561.561 0 01-.497 0l-1.37-.795c-.133-.077-.133-.21 0-.287l1.381-.795a.561.561 0 01.497 0l1.371.795c.143.077.143.21 0 .287zm2.143 1.248l-1.381.795a.561.561 0 01-.497 0l-1.37-.795c-.133-.077-.133-.21 0-.287l1.381-.795a.561.561 0 01.497 0l1.37.795c.144.077.144.21 0 .287zm2.144 1.248l-1.381.795a.561.561 0 01-.497 0l-1.371-.795c-.132-.077-.132-.21 0-.287l1.382-.795a.561.561 0 01.497 0l1.37.795c.144.077.144.21 0 .287zm2.144 1.248l-1.381.795a.564.564 0 01-.498 0l-1.37-.795c-.132-.077-.132-.21 0-.287l1.381-.795a.564.564 0 01.498 0l1.37.795c.144.077.144.21 0 .287zm2.155 1.248l-1.382.795a.561.561 0 01-.497 0l-1.37-.795c-.133-.078-.133-.21 0-.287l1.381-.796a.564.564 0 01.498 0l1.37.796c.132.077.132.198 0 .287zm2.144 1.237l-1.382.795a.561.561 0 01-.497 0l-1.37-.795c-.133-.078-.133-.21 0-.288l1.381-.795a.561.561 0 01.497 0l1.371.795c.132.089.132.21 0 .288zm2.143 1.248l-1.381.795a.561.561 0 01-.497 0l-1.37-.795c-.133-.078-.133-.21 0-.288l1.381-.795a.561.561 0 01.497 0l1.37.795c.144.078.144.21 0 .288zm-13.791-10.503l-1.381.795a.561.561 0 01-.497 0l-1.37-.795c-.133-.077-.133-.21 0-.287l1.381-.795a.561.561 0 01.497 0l1.37.795c.133.077.133.199 0 .287zm2.144 1.237l-1.381.795a.561.561 0 01-.497 0l-1.371-.795c-.132-.077-.132-.21 0-.287l1.382-.795a.561.561 0 01.497 0l1.37.795c.144.077.144.21 0 .287zm2.144 1.248l-1.381.795a.561.561 0 01-.497 0l-1.371-.795c-.132-.077-.132-.21 0-.287l1.382-.795a.561.561 0 01.497 0l1.37.795c.144.077.144.21 0 .287zm2.144 1.248l-1.381.795a.564.564 0 01-.498 0l-1.37-.795c-.133-.078-.133-.21 0-.287l1.381-.795a.564.564 0 01.498 0l1.37.795c.143.077.143.21 0 .287zm2.155 1.248l-1.382.795a.561.561 0 01-.497 0l-1.37-.795c-.133-.077-.133-.21 0-.287l1.381-.795a.561.561 0 01.497 0l1.371.795c.132.077.132.21 0 .287zm2.143 1.248l-1.381.795a.561.561 0 01-.497 0l-1.37-.795c-.133-.078-.133-.21 0-.287l1.381-.796a.561.561 0 01.497 0l1.37.796c.133.077.133.21 0 .287zm2.144 1.248l-1.381.795a.561.561 0 01-.497 0l-1.371-.795c-.132-.078-.132-.21 0-.288l1.382-.795a.561.561 0 01.497 0l1.37.795c.133.078.133.2 0 .288zm2.144 1.236l-1.381.796a.564.564 0 01-.498 0l-1.37-.796c-.132-.077-.132-.21 0-.287l1.381-.795a.564.564 0 01.498 0l1.37.795c.144.078.133.21 0 .287zm2.144 1.248l-1.382.795a.561.561 0 01-.497 0l-1.37-.795c-.133-.077-.133-.21 0-.287l1.381-.795a.561.561 0 01.497 0l1.371.795c.143.078.143.21 0 .287zm2.143 1.248l-1.381.795a.561.561 0 01-.497 0l-1.37-.795c-.133-.077-.133-.21 0-.287l1.381-.795a.561.561 0 01.497 0l1.37.795c.144.077.144.21 0 .287zm-3.37.541l-1.381.795a.564.564 0 01-.498 0l-1.37-.795c-.132-.077-.132-.21 0-.287l1.382-.795a.561.561 0 01.497 0l1.37.795c.144.078.144.21 0 .287zm2.144 1.248l-1.381.795a.564.564 0 01-.498 0l-1.37-.795c-.133-.077-.133-.21 0-.287l1.381-.795a.564.564 0 01.498 0l1.37.795c.144.077.144.21 0 .287zm-17.051-19.966l-1.381.795a.562.562 0 01-.497 0l-1.371-.795c-.132-.077-.132-.21 0-.287l1.382-.795a.561.561 0 01.497 0l1.37.795c.144.077.144.199 0 .287zm2.144 1.237l-1.381.795a.564.564 0 01-.498 0l-1.37-.795c-.132-.078-.132-.21 0-.287l1.381-.795a.564.564 0 01.498 0l1.37.795c.144.077.144.21 0 .287zm2.155 1.248l-1.382.795a.562.562 0 01-.497 0l-1.37-.795c-.133-.078-.133-.21 0-.287l1.381-.796a.564.564 0 01.498 0l1.37.796c.132.077.132.21 0 .287zm2.144 1.248l-1.382.795a.562.562 0 01-.497 0l-1.37-.795c-.133-.078-.133-.21 0-.288l1.381-.795a.561.561 0 01.497 0l1.371.795c.132.078.132.21 0 .288zm-9.614 1.988l-1.382.794a.561.561 0 01-.497 0l-1.37-.795c-.133-.077-.133-.21 0-.287l1.381-.795a.564.564 0 01.498 0l1.37.795c.132.078.132.199 0 .287zm22.708 15.681l-1.381.795a.561.561 0 01-.497 0l-1.702-.983c-.133-.077-.144-.21 0-.287l1.381-.795a.561.561 0 01.497 0l1.702.983c.133.077.133.21 0 .287zm.055-10.028l-1.381.796a.562.562 0 01-.497 0l-12.376-7.19c-.133-.077-.133-.21 0-.287l1.381-.795a.561.561 0 01.497 0l12.376 7.19c.144.077.144.21 0 .287zm-27.968-3.677l-.376.21a.561.561 0 01-.497 0l-1.37-.795c-.133-.077-.133-.21 0-.287l.375-.21a.564.564 0 01.498 0l1.37.795c.144.077.144.21 0 .287zm2.144 1.248l-.376.21a.561.561 0 01-.497 0l-1.37-.795c-.133-.078-.133-.21 0-.287l.375-.21a.564.564 0 01.498 0l1.37.795c.143.077.143.21 0 .287zm2.144 1.248l-.365.21a.56.56 0 01-.497 0l-1.371-.795c-.132-.078-.132-.21 0-.287l.376-.21a.561.561 0 01.497 0l1.371.795c.132.077.132.199-.011.287zm2.154 1.248l-.375.21a.564.564 0 01-.498 0l-1.37-.796c-.132-.077-.132-.21 0-.287l.376-.21a.561.561 0 01.497 0l1.37.796c.133.077.133.198 0 .287zm2.144 1.237l-.376.21a.561.561 0 01-.497 0l-1.37-.796c-.133-.077-.133-.21 0-.287l.376-.21a.561.561 0 01.497 0l1.37.796c.133.077.133.21 0 .287zm2.144 1.248l-.376.21a.561.561 0 01-.497 0l-1.37-.796c-.133-.077-.133-.21 0-.287l.375-.21a.564.564 0 01.498 0l1.37.796c.132.077.132.21 0 .287zm2.144 1.248l-.376.21a.561.561 0 01-.497 0l-1.371-.796c-.132-.077-.132-.21 0-.287l.376-.21a.561.561 0 01.497 0l1.371.795c.143.078.143.21 0 .288zm2.143 1.247l-.375.21a.564.564 0 01-.498 0l-1.37-.795c-.132-.077-.132-.21 0-.287l.376-.21a.561.561 0 01.497 0l1.37.795c.144.078.144.21 0 .287zm2.144 1.248l-.375.21a.564.564 0 01-.498 0l-1.37-.795c-.133-.077-.133-.21 0-.287l.376-.21a.561.561 0 01.497 0l1.37.795c.144.078.144.21 0 .287zm2.155 1.248l-.376.21a.561.561 0 01-.497 0l-1.37-.795c-.133-.078-.133-.21 0-.287l.376-.21a.561.561 0 01.497 0l1.37.795c.133.077.133.199 0 .287zm2.144 1.237l-.376.21a.561.561 0 01-.497 0l-1.37-.795c-.133-.078-.133-.21 0-.288l.375-.21a.564.564 0 01.498 0l1.37.796c.132.077.132.21 0 .287zm2.143 1.248l-.375.21a.561.561 0 01-.497 0l-1.371-.795c-.132-.078-.132-.21 0-.287l.376-.21a.561.561 0 01.497 0l1.37.795c.144.077.133.21 0 .287zm2.144 1.248l-.375.21a.564.564 0 01-.498 0l-1.37-.796c-.133-.077-.133-.21 0-.287l.376-.21a.561.561 0 01.497 0l1.37.796c.144.077.144.21 0 .287zm-27.891-16.201l-.375.21a.564.564 0 01-.498 0l-1.701-.983c-.133-.077-.133-.21 0-.287l.375-.21a.564.564 0 01.498 0l1.701.983c.144.077.133.21 0 .287zm5.216-1.988l-1.381.795a.564.564 0 01-.498 0l-2.585-1.502c-.133-.077-.133-.21 0-.287l1.381-.795a.562.562 0 01.497 0l2.586 1.502c.133.078.133.21 0 .287zm3.249-.63l-1.381.796a.564.564 0 01-.498 0l-3.657-2.12c-.133-.078-.133-.21 0-.287l1.381-.795a.561.561 0 01.497 0l3.658 2.12c.132.077.132.21 0 .287zm2.188-1.258l-1.381.795a.564.564 0 01-.498 0l-3.657-2.12c-.133-.078-.133-.21 0-.287l1.381-.795a.562.562 0 01.497 0l3.658 2.12c.132.077.132.199 0 .287zm21.57 17.581l-1.381.795a.564.564 0 01-.498 0l-2.63-1.524c-.132-.077-.132-.21 0-.287l1.382-.795a.56.56 0 01.497 0l2.63 1.524c.144.077.144.199 0 .287zm2.177-1.259l-1.381.795a.564.564 0 01-.498 0l-3.701-2.153c-.133-.077-.133-.21 0-.287l1.381-.796a.561.561 0 01.497 0l3.702 2.154c.144.077.144.21 0 .287zm1.138-3.203l-.376.21a.562.562 0 01-.497 0l-1.37-.795c-.133-.077-.133-.21 0-.287l.376-.21a.561.561 0 01.497 0l1.37.795c.144.078.144.21 0 .287zm1.017-.585l-.376.21a.561.561 0 01-.497 0l-1.37-.795c-.133-.078-.133-.21 0-.287l.375-.21a.564.564 0 01.498 0l1.37.795c.132.077.132.21 0 .287zm-8.785-.066l-1.381.795a.564.564 0 01-.498 0l-1.37-.795c-.133-.077-.133-.21 0-.287l1.381-.795a.564.564 0 01.498 0l1.37.795c.143.088.143.21 0 .287zm2.143 1.248l-1.381.795a.561.561 0 01-.497 0l-1.37-.795c-.133-.078-.133-.21 0-.287l1.381-.795a.561.561 0 01.497 0l1.37.795c.144.077.144.21 0 .287zm.045-2.508l-1.382.796a.562.562 0 01-.497 0l-1.37-.795c-.133-.077-.133-.21 0-.287l1.381-.795a.562.562 0 01.497 0l1.371.795c.143.077.143.21 0 .287zm2.143 1.249l-1.381.795a.562.562 0 01-.497 0l-1.37-.795c-.133-.077-.133-.21 0-.287l1.381-.795a.562.562 0 01.497 0l1.37.795c.144.077.144.21 0 .287zm2.155 1.248l-1.381.795a.562.562 0 01-.497 0l-1.371-.795c-.132-.078-.132-.21 0-.287l1.382-.796a.562.562 0 01.497 0l1.37.796c.133.077.133.21 0 .287zm2.332 1.358l-1.381.795a.564.564 0 01-.498 0l-1.558-.905c-.132-.078-.132-.21 0-.287l1.382-.796a.562.562 0 01.497 0l1.558.906c.144.077.144.21 0 .287zm-13.106-5.08l-1.381.795a.561.561 0 01-.497 0l-1.371-.795c-.132-.077-.132-.21 0-.287l1.382-.795a.561.561 0 01.497 0l1.37.795c.133.077.133.21 0 .287zm2.144 1.248l-1.381.795a.564.564 0 01-.498 0l-1.37-.795c-.132-.077-.132-.21 0-.287l1.382-.795a.561.561 0 01.497 0l1.37.795c.144.077.133.199 0 .287zm.044-2.518l-1.381.795a.562.562 0 01-.497 0l-1.371-.795c-.132-.077-.132-.21 0-.287l1.382-.795a.562.562 0 01.497 0l1.37.795c.133.088.133.21 0 .287zm2.144 1.248l-1.381.795a.564.564 0 01-.498 0l-1.37-.795c-.132-.077-.132-.21 0-.287l1.381-.795a.564.564 0 01.498 0l1.37.795c.144.077.133.21 0 .287zm-8.619-2.473l-1.382.795a.561.561 0 01-.497 0l-1.37-.795c-.133-.078-.133-.21 0-.288l1.381-.795a.561.561 0 01.497 0l1.371.795c.132.078.132.21 0 .288zm2.143 1.247l-1.381.795a.561.561 0 01-.497 0l-1.37-.795c-.133-.077-.133-.21 0-.287l1.381-.795a.561.561 0 01.497 0l1.37.795c.133.077.133.21 0 .287zm.045-2.507l-1.382.795a.562.562 0 01-.497 0l-1.37-.795c-.133-.077-.133-.21 0-.287l1.381-.795a.562.562 0 01.497 0l1.371.795c.132.078.132.21 0 .287zm2.143 1.248l-1.381.796a.562.562 0 01-.497 0l-1.37-.796c-.133-.077-.133-.21 0-.287l1.381-.795a.562.562 0 01.497 0l1.37.795c.133.078.133.2 0 .287zm-8.63-2.484l-1.381.795a.561.561 0 01-.497 0l-1.371-.795c-.132-.078-.132-.21 0-.287l1.382-.796a.561.561 0 01.497 0l1.37.796c.144.088.144.21 0 .287zm2.144 1.247l-1.381.796a.564.564 0 01-.498 0l-1.359-.796c-.132-.077-.132-.21 0-.287l1.381-.795a.564.564 0 01.498 0l1.37.795c.133.078.133.21-.011.287zm.044-2.506l-1.381.795a.562.562 0 01-.497 0l-1.371-.795c-.132-.078-.132-.21 0-.288l1.382-.795a.562.562 0 01.497 0l1.37.795c.144.078.144.21 0 .288zm2.144 1.248l-1.381.795a.564.564 0 01-.498 0l-1.37-.795c-.133-.078-.133-.21 0-.288l1.381-.795a.564.564 0 01.498 0l1.37.795c.143.078.143.21 0 .288zm-8.619-2.474l-1.382.795a.561.561 0 01-.497 0l-1.37-.795c-.133-.078-.133-.21 0-.287l1.381-.796a.561.561 0 01.497 0l1.371.796c.132.077.132.21 0 .287zm2.143 1.248l-1.381.795a.561.561 0 01-.497 0l-1.37-.795c-.133-.078-.133-.21 0-.287l1.381-.795a.561.561 0 01.497 0l1.37.795c.133.077.144.198 0 .287zm.045-2.518l-1.382.795a.562.562 0 01-.497 0l-1.37-.795c-.133-.077-.133-.21 0-.287l1.381-.795a.562.562 0 01.497 0l1.371.795c.132.077.132.21 0 .287zm2.143 1.248l-1.381.795a.562.562 0 01-.497 0l-1.37-.795c-.133-.078-.133-.21 0-.287l1.381-.796a.562.562 0 01.497 0l1.37.796c.144.077.144.21 0 .287zm17.316 7.565l-1.381.795a.562.562 0 01-.497 0l-1.371-.795c-.132-.078-.132-.21 0-.288l1.382-.795a.561.561 0 01.497 0l1.37.795c.144.078.144.2 0 .288zm2.144 1.236l-1.381.795a.564.564 0 01-.498 0l-1.37-.795c-.132-.077-.132-.21 0-.287l1.381-.795a.564.564 0 01.498 0l1.37.795c.144.088.144.21 0 .287zm4.343 2.529l-1.382.795a.56.56 0 01-.497 0l-1.37-.795c-.133-.077-.133-.21 0-.287l1.381-.795a.561.561 0 01.497 0l1.371.795c.143.078.143.21 0 .287z" fill="#F4F5FA"/><path d="M156.937 90.931l-7.205-4.152c-.508-.287-.442-.806.144-1.138l9.768-5.632c.586-.342 1.47-.375 1.978-.077l7.205 4.152c.508.287.442.806-.144 1.138l-9.768 5.632c-.586.331-1.481.375-1.978.077z" fill="#A76478"/><path d="M90.37 51.827l-13.272 1.667c-.939.122-1.326.861-.873 1.657l7.58 13.296c.454.795 1.581 1.347 2.52 1.237l13.272-1.668c.939-.121 1.326-.861.873-1.656l-7.58-13.297c-.465-.806-1.592-1.358-2.52-1.236z" fill="#C49276"/><path d="M159.003 86.89s3.304-1.945 3.581-2.154c.674-.52.519-.784.243-1.149-.277-.364-1.846-1.469-3.713-1.126-1.868.342-3.481 2.352-3.614 2.805-.132.453 0 .795.696 1.16.697.364 1.746.96 2.807.463z" fill="#E5E8F5"/><path d="M96.779 62.472l-4-7.531c-.475-.906-2.1-1.469-3.614-1.27l-9.116 1.226c-1.006.132.983.971 1.458 1.866l2.255 7.807c.22.752.95 1.226 1.723 1.127L94.9 64.46c1.514-.199 2.354-1.093 1.879-1.988zm1.989-31.551L82.558.42c-.388-.73-.587-.486-.443.563l4.177 29.828c.144 1.05.586 2.507.984 3.247l16.21 30.501c.387.74.597.486.442-.563l-4.177-29.828c-.154-1.049-.596-2.507-.983-3.247z" fill="#E7E7F0"/><path d="M103.807 64.968l-1.238.386L80.966.397 82.17.022l16.996 35.77 4.641 29.176z" fill="#E7E7F0"/><path d="M97.475 31.308L81.275.806c-.387-.729-.585-.486-.442.574l4.177 29.83c.144 1.049.586 2.506.984 3.246l16.211 30.502c.386.74.596.486.442-.563l-4.189-29.84c-.143-1.048-.585-2.506-.983-3.246z" fill="#C5C9D8"/><path d="M80.966 2.32s.254 20.109 5.845 31.947c5.592 11.828 7.305 8.526 10.72-.982-.189-1.182-16.565-30.966-16.565-30.966z" fill="#D9DBE6"/><path d="M96.779 61.964l-4-7.531c-.475-.906-2.1-1.47-3.614-1.27l-9.116 1.226c-1.006.132.983.971 1.458 1.866l2.641 9.11L94.9 63.953c1.514-.199 2.354-1.093 1.879-1.988z" fill="#C5C9D8"/><path d="M86.425 35.007l-7.691 19.216c-.343.861-.387.784.055 1.601l5.006 9.42 6.254-23.324-3.624-6.913z" fill="#B3B8CC"/><path d="M84.612 65.818a.906.906 0 01-.663-.298.892.892 0 01-.199-.806l5.968-23.07.486.122-5.37 22.992a.382.382 0 00.088.354c.088.099.21.143.342.121l9.283-1.248.066.497-9.88 1.325c-.043.011-.088.011-.12.011z" fill="#E7E7F0"/><path d="M72.313 70.026c-2.663 1.535-7.005 1.535-9.69-.022-2.686-1.546-2.697-4.053-.034-5.588 2.663-1.535 7.006-1.535 9.691.022 2.685 1.546 2.707 4.053.033 5.588z" fill="#CE939A"/><path d="M74.291 60.22v.309c0 .96-.154 4.119-1.989 7.2h-.022c-.243.397-.63.762-1.16 1.071-2.033 1.16-5.282 1.16-7.315-.022-.52-.31-.917-.652-1.183-1.05 0 0-1.79-1.876-2.01-6.912v-.155c.054-4.804 13.68-.442 13.68-.442z" fill="#EBE8D9"/><path d="M74.291 60.529c0 .96-.154 4.119-1.989 7.2h-.022c-.243.397-.63.762-1.16 1.071-2.033 1.16-5.282 1.16-7.315-.022-.52-.31-.917-.652-1.183-1.05 0 0-1.79-1.876-2.01-6.912v-.155l1.811 1.392s.652 6.084 4.719 6.659c4.066.563 6.166-1.226 7.15-8.183z" fill="#DED9C0"/><path d="M72.313 63.3c-2.663 1.536-7.005 1.536-9.69-.022-2.686-1.546-2.697-4.053-.034-5.587 2.663-1.535 7.006-1.535 9.691.022 2.685 1.546 2.707 4.053.033 5.587z" fill="#F9F5E0"/><path d="M70.888 57.89c-1.912-1.105-5.006-1.105-6.907-.012-1.9 1.093-1.89 2.883.023 3.987 1.911 1.104 5.005 1.104 6.906.01 1.9-1.103 1.9-2.882-.022-3.986z" fill="#E7BC5F"/><path d="M63.992 58.85c1.901-1.093 4.995-1.093 6.907.011.74.43 1.182.95 1.36 1.502.287-.884-.167-1.833-1.36-2.518-1.912-1.104-5.006-1.104-6.907-.011-1.17.674-1.602 1.601-1.337 2.474.166-.53.62-1.05 1.337-1.458z" fill="#EBE8D9"/><path d="M68.49 59.712c-1.116-.641-2.917-.641-4.022-.012-1.105.641-1.105 1.68.01 2.32 1.117.64 2.918.64 4.023.01 1.105-.629 1.094-1.667-.011-2.319z" fill="#C9923B"/><path d="M70.103 58.088c-1.116-.64-2.917-.64-4.022-.011-1.105.64-1.105 1.678.011 2.319 1.116.64 2.917.64 4.022.011 1.105-.64 1.105-1.678-.01-2.319z" fill="#C9923B"/><path d="M71.993 55.15c0 2.96-1.68 5.368-3.746 5.368-2.067 0-3.746-2.397-3.746-5.367 0-2.96 1.68-5.368 3.746-5.368 2.077.011 3.746 2.408 3.746 5.367z" fill="#65A200"/><path d="M70.225 58.464c0 1.987-1.68 3.589-3.746 3.589-2.067 0-3.746-1.613-3.746-3.59 0-1.987 1.68-3.589 3.746-3.589s3.746 1.602 3.746 3.59z" fill="#89B83C"/><path d="M175.91 105.254l-23.25 13.418h-5.149l12.818-22.407 15.581 8.989z" fill="#C49276"/><path d="M170.761 105.254l-23.25 13.418v-4.329l23.25-13.418v4.329z" fill="#846566"/><path d="M131.93 109.683l15.581 8.989v-4.329l-15.581-8.989v4.329z" fill="#A89696"/><path d="M170.761 100.925l-23.25 13.418-15.581-8.989 23.25-13.418 15.581 8.989z" fill="#B8AAA9"/><path d="M168.639 101.168l-20.708 11.949v-2.485l20.708-11.948v2.484z" fill="#C4C8D8"/><path d="M134.041 105.111l13.89 8.006v-2.485l-13.89-8.006v2.485z" fill="#DBDBE9"/><path d="M168.639 98.683l-20.708 11.949-13.89-8.006 20.719-11.96 13.879 8.017z" fill="#F4F5FA"/><path d="M147.931 111.748v.74l-3.647-2.308 3.647 1.568zm-13.89-8.493l2.298 1.613-2.298-1.005v-.608z" fill="#C4C8D8"/><path d="M168.639 99.777l-2.122 1.579 2.122-.994v-.585z" fill="#A8AEC5"/><path d="M43.88 127.484s3.515 1.127 8.852-3.191c5.338-4.307 6.509-9.917 6.509-9.917l-6.95-2.905-12.366 10.216 3.956 5.797z" fill="#45476A"/><path d="M55.407 149.461s-.862-.299-.873.154c-.012.453-.012 3.291-.012 3.291s-.21.188-.43.077c-.221-.11-.542-.651-.542-.651s-.232-2.783-.188-3.49c.055-.817 2.044.619 2.044.619z" fill="#8E8E8E"/><path d="M54.71 145.739s-1.381.508-1.348 2.242c.033 1.734 1.348 3.247 1.348 3.247s.95 4.317 2.63 4.306c1.68-.011 3.68.1 2.697-2.76-.984-2.861-1.625-4.661-1.625-4.661l-3.702-2.374z" fill="#C2D2EA"/><path d="M60.357 154.187c.11.773-1.646 1.811-3.315 1.116-.917-.376-1.757-2.187-2.332-3.954-.143-.497-.298-.972-.398-1.425-.232-.916-.364-1.689-.342-2.098.011-.673.343-1.259.674-1.678 0 0 .011 0 .011-.011.343-.431.674-.674.674-.674s.11.066.298.166c.376.242 1.04.706 1.647 1.314.575.585 1.105 1.314 1.227 2.12.033.199.077.409.132.618.486 1.767 1.636 3.799 1.724 4.506z" fill="#FFA1A3"/><path d="M58.998 144.381c-.243 2.992-.398 4.296-.365 5.289.011.685.133 1.215.343 2.032.21.807-1.194.078-2.509-1.17-.608-.541-1.193-1.215-1.59-1.889-.244-.43-.432-.85-.498-1.259.132-.408.21-.817.265-1.247 0 0 .011 0 .011-.011.431-2.938-.541-6.174-.707-8.581-.2-2.739 1.138-9.542 1.138-9.542s-3.58-.11-8.708-1.17c-2.497-.497-4.895-1.325-6.685-2.054-1.89-.74-3.105-1.359-3.105-1.359-.243-7.167 9.15-8.37 9.15-8.37s4.784 2.286 9.215 4.66c3.58 1.899 6.918 3.854 7.338 4.726.95 1.944-2.873 14.876-3.293 19.945z" fill="#FFA1A3"/><path d="M54.865 148.654c-.177.431-.376.851-.564 1.259-.232-.916-.364-1.689-.342-2.098.011-.673.342-1.259.674-1.678 0 0 .011 0 .011-.011.431-2.938-.541-6.174-.707-8.581-.2-2.739 1.138-9.542 1.138-9.542s-3.58-.11-8.708-1.17c-2.497-.497-4.895-1.325-6.685-2.054l2.74-2.297s1.746 2.418 5.702 3.235c3.978.818 8.078 1.381 8.078 1.381s-1.779 7.079-1.171 10.336c.475 2.529.707 5.986.574 8.172-.044.641-.11 1.171-.21 1.524-.099.442-.309.961-.53 1.524z" fill="#FA9698"/><path d="M58.633 149.671c.497 1.777 1.647 3.809 1.724 4.516.11.773-1.647 1.811-3.315 1.116-.917-.376-1.757-2.187-2.332-3.954.608-.232 1.315-.53 1.757-.806.166-.11.299-.21.376-.309.21-.243.331-1.579.43-3.302.2-3.335.31-8.161.808-9.586.74-2.186 2.828-8.371 2.828-8.371s-1.248-3.103-1.757-3.655c-.475-.497-3.59-4.693-4.188-5.599 3.58 1.899 6.918 3.854 7.338 4.726.95 1.933-2.873 14.876-3.304 19.945-.254 2.981-.398 4.296-.365 5.279z" fill="#FA9698"/><path d="M58.545 148.257s1.182 2.463 1.668 4.119c1.061 3.622.94 5.19.641 6.03-.31.872-2.85-.033-4.608-1.602-2.022-1.8-1.016-3.81-2.21-5.93-.387-.696-.751-1.193-.674-2.794.044-1.358 1.094-2.054 1.094-2.054s-1.182 1.392-.751 2.562c.22.585.387.917.729 1.657.674 1.468.85 2.937 1.857 4.031.939 1.027 3.89.541 3.834-.034-.1-1.071-.453-2.374-.785-3.39a215.68 215.68 0 01-.795-2.595z" fill="#C2D2EA"/><path d="M54.136 150.719c1.193 2.132.143 3.998 2.154 5.798 1.625 1.447 4.067 2.375 4.62 1.756-.012.044-.034.089-.045.133-.31.872-2.85-.033-4.608-1.602-2.022-1.8-1.016-3.81-2.21-5.93-.254-.453-.652-.905-.652-1.767.2.464.553 1.281.74 1.612z" fill="#8E8E8E"/><path d="M59.141 115.436s-5.348 1.116-9.57 2.982c-.297.132-.574.265-.839.397-.718.365-1.392.74-1.967 1.138-2.597 1.789-3.05 4.384-3.039 6.007 0 .917.166 1.524.166 1.524s-11.271-1.258-13.062-9.651c-.508-2.397-.198-4.617.299-6.306.574-1.966 1.381-3.214 1.381-3.214s14.598-6.118 18.576-3.71c3.967 2.407 8.055 10.833 8.055 10.833z" fill="#4F5887"/><path d="M50.169 119.191s-.31.276-1.448-.376a1.345 1.345 0 01-.298-.165c-1.382-.873-3.691-2.187-3.691-2.187s-6.255-.983-8.133-1.391c-1.868-.409-4.553-1.58-4.553-1.58s-1.083 3.545 2.32 7.333c1.724 1.9 5.78 3.755 9.35 5.124 0 .917.165 1.524.165 1.524s-11.271-1.259-13.062-9.652c-.508-2.396-.198-4.616.299-6.305a5.48 5.48 0 00.177-.464l15.072 3.379 3.183 3.976.619.784z" fill="#242F67"/><path d="M56.125 151.216s1.47-.905 3.558 2.695c1.16 1.999-4.033.188-4.044-.276-.023-.464.121-1.634.486-2.419z" fill="#A6BDE0"/><path d="M66.733 128.467c-1.072 3.137-5.105 24.34-5.105 24.34l2.022 7.553c-1.967.906-3.15-.706-4.453-1.921-.2-.199-.398-.365-.586-.53-1.525-1.204-3.238-5.157-2.895-5.798.619-1.182 1.282.011 2.155-2.407 1.005-2.828.298-8.813.132-13.44-.166-4.649 1.967-10.558 1.835-11.309-.1-.563-5.095-6.416-7.57-9.309-.818-.972-1.381-1.59-1.381-1.59l6.343-5.533 5.989 7.399 3.05 3.777.917 1.148c.641 1.778.608 4.484-.453 7.62z" fill="#FFADB7"/><path d="M67.617 118.307s-.497.608-1.348 1.392a15.12 15.12 0 01-1.647 1.325c-1.856 1.281-3.724 1.458-3.724 1.458l-2.066-.586s2.1 3.137 2.066 3.479c-.033.364-2.055 4.329-2.32 10.469-.276 6.151 1.315 11.485-.232 15.262-1.525 3.755.497 5.544.94 6.858.065.177.01.331-.1.464-.2-.199-.398-.365-.586-.53-1.525-1.204-3.238-5.158-2.895-5.798.619-1.182 1.282.011 2.155-2.408 1.005-2.827.298-8.812.132-13.439-.166-4.65 1.967-10.558 1.835-11.309-.1-.563-5.095-6.416-7.57-9.309l4.365-3.269 6.586 3.545 4.409 2.396z" fill="#FA9698"/><path d="M72.999 114.144l-11.824 7.244-18.476-5.731 10.84-6.98 19.46 5.467z" fill="#A76478"/><path d="M69.617 114.288l-9.238 5.654-14.531-4.495 8.486-5.444 15.283 4.285z" fill="#F1F1F1"/><path d="M63.031 119.301l1.945.122 5.15-2.982-.929-.828-6.166 3.688z" fill="#DFE5EE"/><path d="M54.257 107.43a1.684 1.684 0 01-1.834-1.403l-2.155-12.821.077.375c-1.204-4.108-2.464-8.194-3.635-12.335l5.503-1.425c.961 4.142 2.022 8.294 3.028 12.435l.066.254.011.133.84 13.428a1.21 1.21 0 01-1.083 1.281l-.818.078z" fill="#E6F1FF"/><path d="M50.445 77.425c1.978 1.668 2.541 4.252 1.26 5.765-1.282 1.513-3.106.883-5.084-.784-1.978-1.668-3.348-3.744-2.077-5.257 1.282-1.524 3.923-1.403 5.9.276z" fill="#E6F1FF"/><path d="M51.583 98.44c-1.171 3.678.033 7.057.31 7.631.773 1.646-.299 4.418-9.327 6.383-4.498.983-7.868-.231-9.835-1.722-1.414-1.072-2.1-2.297-2-3.004.11-.839.199-1.657.243-2.463a36.698 36.698 0 00-.1-5.864 20.513 20.513 0 00-.176-1.69 37.034 37.034 0 00-.232-1.645c-.442-2.838-1.05-5.356-1.459-7.432-.541-2.86-.718-4.925.431-5.963 3.04-2.706 8.177-5.158 8.177-5.158s5.979-1.722 9.526-1.314c3.547.43 5.006 7.62 6.144 12.291.442 1.856.464 3.302.232 4.528-.354 2.076-1.337 3.556-1.934 5.422z" fill="#7AB5FF"/><path d="M51.892 106.071c.774 1.646-.298 4.418-9.326 6.383-4.498.983-7.868-.232-9.835-1.722-1.414-1.072-2.1-2.297-2-3.004.11-.84.199-1.657.243-2.463.133-2.032.066-3.987-.1-5.864a39.628 39.628 0 00-.176-1.69 36.862 36.862 0 00-.232-1.645l3.613 2.44s2.266 1.016 3.072.972c3.437-.231 4.652-1.314 9.802-2.407 2.497-.541 5.437-1.58 6.553-4.042-.343 2.054-1.326 3.534-1.923 5.4-1.16 3.689.033 7.068.31 7.642z" fill="#4E9CFF"/><path d="M30.72 107.739c-.1.707.597 1.921 2 2.993 1.558-5.169-1.06-11.055 1.846-10.812 3.215.276 10.1-2.363 11.182-2.794-.906.32-5.911 2.054-7.9 2.021-2.2-.044-3.857-2.65-3.78-4.66.078-1.999-.442-5.411-.442-5.411s-2.287-.343-4.619-.42c.895 4.627 2.796 11.341 1.713 19.083z" fill="#2A73D0"/><path d="M46.81 111.229l-1.349.497c.243-4.738.851-17.979.586-19.669-.32-2.032-3.57-10.447-3.602-10.535l1.226-.475c.133.353 3.326 8.625 3.669 10.8.342 2.176-.498 18.686-.53 19.382z" fill="#F7FBFF"/><path d="M35.792 61.335s-2.144-1.116-3.492.044c-1.337 1.17-.784 6.206.575 9.166 1.226 2.661.608 7.366-2.41 8.349 2.111 1.579 6.874-.177 7.537-3.082.663-2.904-2.21-14.477-2.21-14.477z" fill="#3F2A28"/><path d="M44.798 75.57s-.52 1.214-.409 2.308c.11 1.104.718 2.926.718 2.926s-.674 1.292-3.359 1.005c-2.685-.298-2.784-1.237-3.635-1.712-.851-.485-3.05-2.694-2.907-2.849.144-.154 2.365-1.27 1.514-4.461-.85-3.192-2.121-4.848-2.121-4.848s-.752-1.336.188-1.436c.928-.088 10.011 9.067 10.011 9.067z" fill="#FFB9A4"/><path d="M36.754 76.089l.187 1.513s1.614 3.964 6.498 3.876c.1.762 0 2.904-.763 3.545-3.116-1.182-6.32-3.733-7.47-5.61-.828-1.347.365-2.949.365-2.949l1.083-.96.1.585zm7.602 1.457l.221 1.59c-.055.487-.21 1.646-1.138 2.342.928 1.181 2.497 1.712 3.094 1.645-.486-1.81-.94-2.794-1.414-4.13-.32-.872-.708-1.789-.763-1.447z" fill="#fff"/><path d="M38.51 74.035s2.299 2.142 2.774 3.224c.486 1.083 2.718 2.562 2.718 2.562l.376-2.407.42-1.855-6.288-1.524z" fill="url(#paint4_linear)"/><path d="M45.428 60.705s.972.773 1.613 2.419c.641 1.634 1.083 3.036 1.039 3.324-.044.287-.287.905.089 2.065.375 1.17-.807 7.001-2.078 7.575-1.27.575-7.116-1.39-7.768-2.22-.652-.828-2.31-4.207-2.52-6.482-.21-2.275-.873-4.925 2.42-6.294 3.304-1.359 7.205-.387 7.205-.387z" fill="#FFC9B6"/><path d="M34.986 68.27s.53-.696.939-.453c.398.232 1.149.552 1.182.862.033.32.32 2.02.32 2.02s.73-1.27.597-2.528c-.121-1.26.265-3.026.774-3.81.508-.785 1.027-2 2.243-2.187 1.216-.188 2.884.044 3.879-.033.983-.077 1.392-.43 1.392-.43l.895 1.788s-.055-.894-.608-1.9c-.552-1.004-4.552-5.554-10.177-2.396-4.122 2-3.857 6.582-3.216 8.239.641 1.656 2.586 3.136 2.785 3.644.199.508.73 1.226.73 1.7 0 .475-.233-1.777-.63-2.727-.41-.95-1.105-1.79-1.105-1.79z" fill="#3F2A28"/><path d="M36.488 68.634s-1.447-1.446-1.967-.309c-.52 1.138.63 2.43 1.382 3.048.751.618 1.293.795 1.514.453.21-.342-.354-1.58-.354-1.58l-.575-1.612z" fill="#FEB9B8"/><path d="M27.007 107.242s.343-12.92.752-17.537c.408-4.616.508-6.825 2.541-7.587 2.033-.762 5.238 1.723 4.21 7.753-1.027 6.03-1.447 15.251-1.856 15.725-.42.464-4.487 2.993-5.647 1.646z" fill="#E6F1FF"/><path d="M47.23 113.305s-10.709-3.898-14.211-7.609c-.962-1.016-3.503-.729-5.747.431-.077.331-.243.74-.265 1.115-.066 1.391.53 3.026 4.763 4.473 5.36 1.833 14.752 4.649 14.752 4.649s-.376-1.635.707-3.059z" fill="#E6F1FF"/><path d="M53.24 110.698s.1 1.16-.33 1.425c-.432.265-.542.353-.575.353-.045-.011-.034-.993-.034-.993s-.442-1.094-.342-1.812c.1-.717.707-2.032.73-2.076.021-.033.176-1.303.408-1.656.331-.519 1.282-.519 1.282-.519.497-.011.95.287 1.149.74l.652 1.524.442.441s.983.707 1.26.851c.265.143 1.138.927 1.458 1.369.32.442.608.817.608 1.016 0 .199-.11.287-.31.254-.198-.033-.75-.453-.75-.453l-.365-.673s.243 1.7.199 1.932c-.034.232-.299.552-.641.453l-.332-.099s.066.773-.398.618c-.464-.155-.618-.188-.618-.53s-.652-2.076-.652-2.076-.012 2.054-.398 2.341c-.387.298-.718-.563-.718-.563s-.288-2.706-.564-2.772c-.287-.066-.995.254-1.017.375-.01.122-.143.53-.143.53zm-6.132 2.596s1.746.32 1.945.309c.198-.011.696-.111 1.226.022s1.503.917 2.066.95c.564.033 1.802.011 1.47.419-.331.409-1.536.321-1.536.321s1.702.872 1.78.938c.077.067.905.409.762.718-.144.309-.53.309-.53.309l-3.062-1.292s2.155 1.701 2.277 1.723c.121.022.32.508.265.585-.066.078-.243.1-.608.144a1.214 1.214 0 01-.619-.099s.32.574-.154.585c-.476.011-1.503-.508-1.503-.508s.088.685-.188.696c-.276.011-.718.088-1.16-.299a10.314 10.314 0 00-1.172-.828c-.044-.022-1.701-.883-2.375-1.458-.674-.574-.663-1.501-.542-1.778.398-.982 1.658-1.457 1.658-1.457z" fill="#FEB9B8"/><path d="M59.33 158.66s1.425.751 2.497.32c1.083-.431.707.431.707.431s.707.055 1.105 2.253c.353 1.987-.542 2.97-.652 2.992-2.453.619-4.906-2.926-5.315-3.743-.41-.818-1.083-3.578-1.083-3.578s-.387-1.149-.73-1.591c-.331-.452-1.502-1.7-.784-3.014.718-1.326.895-.884.895-.884s-.011-.309.232 1.281c.254 1.623.895 1.623 1.525 2.805a65.177 65.177 0 001.602 2.728z" fill="#8E8E8E"/><path d="M56.843 156.396s-.63.077-.73.519c-.099.442-.497 2.109-.497 2.109s-.43.133-.63-.022c-.198-.143-.397-.74-.397-.74s.376-3.357.342-4.064c-.033-.695 1.912 2.198 1.912 2.198z" fill="#8E8E8E"/><path d="M59.528 158.362s1.426.751 2.498.32c1.083-.431.342-1.811.342-1.811s1.072 2.297 1.47 4.494c.354 1.988-.829 2.938-.829 2.938-2.453.596-4.73-2.871-5.138-3.689-.41-.817-1.083-3.578-1.083-3.578s-.387-1.148-.73-1.59c-.331-.453-1.425-1.91-.85-3.081.563-1.137.906-1.148.906-1.148s-.122.22-.011.795c.298 1.612 1.204 2.44 1.823 3.622.63 1.17 1.602 2.728 1.602 2.728z" fill="#C2D2EA"/><path d="M148.726 57.923c-.552.508-1.525 2.484-1.668 2.926-.144.409-1.348 1.513-1.503 1.646l-.011.01s-.674 1.237-.785 1.48c-.088.166-.508.089-.784-.099-.133-.088-.232-.21-.254-.331-.078-.398.419-1.281.431-1.425.011-.144.53-.652.53-.652l-.077-1.015-2.807 2.308s-.873 1.104-1.525 1.468c-.652.365-1.039.022-1.061-.088-.011-.022.033-.1.099-.188.199-.32.663-.938.774-1.082l.011-.011-.022.022c-.188.188-1.249 1.182-1.79 1.182-.586.01-.531-.663-.531-.663s-.276-.077-.199-.298c.067-.199.862-1.259.951-1.392-.089.034-.641.288-1.039.2a1.308 1.308 0 01-.221-.056c-.298-.11-.453-.287-.431-.442.022-.199 3.967-2.043 4.254-2.186.288-.144 2.321-1.26 2.719-1.557.387-.31 1.149-.906 2.464-1.822 1.227-.862 3.017 1.546 2.475 2.065zm11.084 5.897c-3.978 1.27-2.398.176-5.161 1.435-.21.089-1.282.586-1.282.586s-1.038-.011-1.348.154c-.298.166.221.873.221.873l.995.088s-2.597 3.136-2.663 3.401c-.067.276.298.806.563.762.266-.044.763-.63.763-.63l1.757-1.998-1.868 3.18s-.199 1.039.431.884c.63-.166 2.232-2.673 2.232-2.673l.862-.75-2.011 3.136s.442.927 1.105.353c.177-.154.73-.883.73-.883s.353.63.906.353c.552-.276 2.983-4.163 2.983-4.163s-.099-.84 2.409-1.469c1.094-.254 1.127-3.512-1.624-2.64z" fill="#FEB9B8"/><path d="M145.124 56.597s.895-.342 1.901-.254c1.005.078 1.812 1.679 1.812 1.679.287-.387 5.326-3.335 6.276-4.716 0-1.767-1.558-4.284-1.558-4.284s.067-1.558-.342-1.315c-.409.232-5.658 7.256-6.188 7.698-.244.176-1.028.662-1.901 1.192zm16.023 10.138c.597-.21 14.531-3.666 16.244-5.698 1.624-1.767-2.442-4.561-3.569-4.462 0 0-.586.088-1.669.63-1.083.552-9.349 5.797-11.404 6.427-.155.044-.309.1-.475.143.144-.022.994-.154 1.459.674.497.895.519 1.447-.586 2.286z" fill="#3EC5FF"/></g><defs><linearGradient id="paint0_linear" x1="137.778" y1="109.094" x2="146.317" y2="109.094" gradientUnits="userSpaceOnUse"><stop offset=".122" stop-color="#FEC7C7"/><stop offset=".969" stop-color="#FFADB7"/></linearGradient><linearGradient id="paint1_linear" x1="149.917" y1="111.63" x2="142.301" y2="111.63" gradientUnits="userSpaceOnUse"><stop offset=".122" stop-color="#FEC7C7"/><stop offset=".969" stop-color="#FFADB7"/></linearGradient><linearGradient id="paint2_linear" x1="169.473" y1="35.493" x2="165.16" y2="28.205" gradientUnits="userSpaceOnUse"><stop offset=".122" stop-color="#FEC7C7"/><stop offset=".969" stop-color="#FFADB7"/></linearGradient><linearGradient id="paint3_linear" x1="161.629" y1="33.194" x2="167.405" y2="33.775" gradientUnits="userSpaceOnUse"><stop offset=".122" stop-color="#FCA4B5"/><stop offset=".99" stop-color="#FFADB7"/></linearGradient><linearGradient id="paint4_linear" x1="44.896" y1="76.568" x2="38.825" y2="77.178" gradientUnits="userSpaceOnUse"><stop offset=".122" stop-color="#FCA4B5"/><stop offset=".99" stop-color="#FFADB7"/></linearGradient><clipPath id="clip0"><path fill="#fff" d="M0 0h202v201H0z"/></clipPath></defs></svg>