<svg width="185" height="157" fill="none" xmlns="http://www.w3.org/2000/svg"><path d="M77.42 156.437L.872 112.254l107.585-62.119 76.532 44.197-107.57 62.105z" fill="#F9B233"/><path opacity=".4" d="M8.667 107.763L85.2 151.946l-4.572 2.648-76.532-44.196 4.572-2.635zm92.011-53.123l76.532 44.183 4.573-2.634-76.533-44.197-4.572 2.648z" fill="#F9B233"/><path d="M12.694 105.429l76.546 44.183-2.293 1.324-76.533-44.183 2.28-1.324zM96.638 56.96l76.532 44.197 2.293-1.324L98.931 55.65l-2.293 1.31z" fill="#fff"/><path opacity=".4" d="M17.034 102.931l76.532 44.184-2.279 1.324-76.546-44.197 2.293-1.311zM92.31 59.472l76.533 44.183 2.279-1.324L94.59 58.148l-2.28 1.324z" fill="#F9B233"/><path d="M51.444 88.34v29.961l3.235 1.87V86.484l-3.235 1.856zm15.602-9.008h51.895l3.235 1.87H63.811l3.235-1.87z" fill="#fff"/><path opacity=".4" d="M40.43 94.7v17.24l7.739 4.477v-26.18l-7.74 4.464zm37.63-21.73h29.866l7.739 4.478H70.321l7.74-4.477z" fill="#F9B233"/><path d="M122.203 125.385H63.702l3.235 1.856h52.031l3.235-1.856zm8.995-5.201V86.415l3.235 1.857v30.042l-3.235 1.87z" fill="#fff"/><path opacity=".4" d="M115.692 129.138h-45.48l7.74 4.464h30.001l7.739-4.464zm22.003-12.707V90.169l7.753 4.463v17.335l-7.753 4.464zM59.184 83.795v38.983h67.523V83.795H59.184zm57.75 33.359H68.929V89.432h48.005v27.722z" fill="#F9B233"/><path d="M73.98 92.353v21.88h37.918v-21.88H73.98zm32.431 18.713H79.467v-15.56h26.944v15.56z" fill="#F9B233"/><path opacity=".2" d="M143.1 77.489c3.645.942 1.884 7.343.614 9.377-2.143 3.453-5.145 5.692-8.844 7.357-6.539 2.935-13.172 6.975-20.01 9.063-7.207 2.212-15.37-.901-22.467 1.324-4.19 1.311-8.258 3.344-12.408 5.064-2.334.969-8.244 5.078-9.609.724-1.01-3.167 4.068-7.821 5.746-10.005 2.362-3.099 3.877-6.784 5.665-10.183 4.218-8.053 11.602-12.844 20.133-15.683 7.698-2.552 13.745-6.538 22.057-5.705 3.44.34 7.002.464 10.224 1.76 3.289 1.338 4.968 2.99 7.507 5.378.628.6.6 1.31 1.392 1.529z" fill="#634E42"/><path d="M132.222 72.602l1.433-1.665 3.085-4.777c1.992-1.556 4.599-.887 6.06 1.501l1.993 4.423s1.529 4.436 1.733 6.633c.205 2.212.478 5.542-1.187 6.28-2.416 1.118-5.064.013-5.255-1.584l-1.679-4.34-3.863 2.907-2.32-9.378zM88.38 105.921c-.355 1.665-4.75 2.729-4.75 2.729s-6.17 5.801-11.397 5.406c-3.085-.232-4.136-1.051-4.614-1.966-.478-.901-.027-2.061.573-2.907.615-.846 7.003-3.563 8.613-6.115.778-1.242 2.075-3.863 2.075-3.863l.532-4.873 7.043-.832 1.024 6.237c1.05 1.283 1.092 5.255.9 6.184z" fill="#000"/><path d="M75.126 75.66c1.556 8.353 2.47 16.693 2.443 25.019 2.608 1.775 5.665 2.539 7.849 2.116 1.406-.273 2.457-1.037 2.77-2.334 1.079-7.617.233-16.325-.45-23.682.178-.027.341-.068.505-.123 1.87-.464 3.7-1.324 5.61-2.443.178-.095.341-.205.519-.3a72.57 72.57 0 002.238-1.392c.328-.219.67-.437 1.01-.656.778-.505 1.584-1.023 2.416-1.556.355-.232.724-.464 1.092-.696.437-.273.874-.546 1.324-.819.314-.19.642-.382.969-.573a57.217 57.217 0 012.43-1.379c-.423 3.522-.532 7.03-.45 10.524 0 .164 0 .328.013.492 0 .354.014.71.041 1.05.014.533.041 1.065.082 1.584.055.996.123 1.979.218 2.962.041.505.082 1.01.137 1.515.15 1.501.328 3.003.519 4.504.136.996.259 1.993.409 2.99l.369 2.456c.082.546.163 1.079.245 1.61.096.629.205 1.243.301 1.87.163.984.314 1.966.477 2.935.956 1.98 2.293 3.167 4.204 3.208 7.194 1.215 15.615-12.626 25.074-23.231 1.161-4 .164-9.65-4.477-9.76-1.528.492-3.535 1.816-5.541 3.536-2.293 1.965-4.614 4.45-6.293 6.879l2.99-13.731a35.13 35.13 0 00.832-4.314c.164-1.283.219-2.456.15-3.548-.177-3.263-1.31-5.747-3.426-7.849l-9.568-.19-12.79-.247c-1.01.423-2.033.901-3.043 1.434-6.456 3.344-12.708 8.585-18.877 14.632-2.335 2.934-3.099 5.446-2.32 7.507z" fill="#15ABEB"/><path opacity=".3" d="M85.418 102.795c1.406-.273 2.457-1.038 2.77-2.334 1.079-7.617.233-16.325-.45-23.682.178-.027.341-.068.505-.123 1.87-.464 3.7-1.324 5.61-2.443.178-.096.342-.205.519-.3a72.69 72.69 0 002.238-1.392 64.81 64.81 0 011.01-.656c.778-.505 1.584-1.023 2.416-1.556.355-.232.724-.464 1.092-.696.437-.273.874-.546 1.324-.819.314-.19.642-.382.969-.573a57.217 57.217 0 012.43-1.379c-.423 3.522-.532 7.03-.45 10.524.013.177.013.328.013.491 0 .355.014.71.041 1.051.014.533.041 1.065.082 1.584.055.996.123 1.979.219 2.962.04.505.081 1.01.136 1.515.15 1.501.328 3.003.519 4.504.136.996.259 1.993.409 2.99l.369 2.456c.082.546.164 1.078.245 1.61.096.629.205 1.243.301 1.87.163.983.314 1.966.477 2.935.956 1.98 2.294 3.167 4.204 3.208 7.194 1.215 15.615-12.626 25.074-23.231l-19.395 18.344c-2.826 1.966-5.187 2.171-6.907 0-.3-1.378-.614-2.77-.915-4.19a38.418 38.418 0 01-.682-11.315l1.051-11.862c5.228-2.825 9.95-7.097 14.482-11.93-.177-3.261-1.31-5.746-3.426-7.848l-9.568-.19-15.834 1.173.014.068c1.447 4.682.492 9.8-2.675 13.554-2.512 2.99-5.637 5.938-9.814 8.517 2.703 6.934 2.73 16.462 1.597 27.163z" fill="#3F668A"/><path d="M90.455 40.13l1.979-17.949c2.225-12.188 16.215-10.278 12.393 2.416l-4.873 18.605c-1.938 3.166-3.726 5.773-5.568 8.08l-7.29-5.173 3.359-5.979z" fill="#EDEDED"/><path d="M94.358 27.491c0 .491.232 5.01.26 5.569.122 7.125 1.228 14.714 1.801 18.263.219 1.297.355 2.047.355 2.047 1.938 4.436 13.622 7.685 17.662 7.876 7.74.369 9.091-5.132 9.091-5.132l.56-18.74.013-.287.082-1.911.56-12.544c-2.621-3.167-5.378-4.832-7.999-6.21-6.279-4.177-12.025-5.965-19.669-3.782 0 0-1.542 4.573-2.593 10.292-.123.655-.11 3.413-.123 4.56z" fill="#15ABEB"/><path d="M112.826 36.077c-.096 7.097 4.955 8.08 4.955 8.08l5.418-2.361.219-4.982.014-.3.818-14.496c-.764-.928-1.392-1.652-2.238-2.157-6.388 1.27-9.104 9.664-9.186 16.216zm-14.81-10.729c2.375 2.935 6.252 4.504 11.548 6.101 1.651-7.03 4.34-13.062 9.896-13.444-1.051-.71-2.048-1.502-3.072-2.034-3.494-2.32-6.674-3.685-9.977-4.231-5.173 2.893-8.285 7.248-8.395 13.608z" fill="#EDEDED"/><path d="M108.868 12.053c.177 0 2.921 2.061 2.921 2.061 4.013 2.28-.587 13.2-6.457 10.456l-5.473-3.808 9.009-8.709z" fill="#FFAD73"/><path opacity=".3" d="M98.48 20.885c0 4.04-.054 8.694 4.532 8.885 5.665-1.57 6.17-11.165 5.555-14.29l-10.086 5.405z" fill="#15ABEB"/><path d="M102.084.806c4.914.055 7.725 2.362 7.917 7.494-.137 5.391-.41 8.64-3.017 12.325-1.624 2.034-3.822 3.508-6.333 3.372-2.99-.15-7.412-7.316-7.835-12.503-.737-5.241 3.726-9.254 9.268-10.688z" fill="#FFAD73"/><path d="M93.416 15.275c1.106 2.62 7.63 2.143 10.497-1.065l.314 1.925 2.634-2.184 2.293 2.976.833-1.174c2.088-4.19 1.979-11.084-3.958-14.537-7.958-3.194-17.8 6.06-12.612 14.059z" fill="#807070"/><path d="M107.598 16.203c.314-.532.587-1.106.655-1.72.069-.614-.109-1.256-.573-1.665-.464-.41-1.228-.478-1.72-.082-.341.273-.491.723-.491 1.147 0 .423.109.832.232 1.242l.328 1.105c.068.26.163.533.409.655.218.11.505.041.71-.095.191-.164.327-.369.45-.587z" fill="#FFAD73"/><path opacity=".3" d="M96.228 49.453l.191 1.87c.219 1.297.355 2.047.355 2.047 1.938 4.437 13.622 7.685 17.662 7.876 7.74.369 9.091-5.132 9.091-5.132l.56-18.74.013-.287.082-1.911-.682-3.167h-8.504l-2.143 15.274c-3.508 6.947-10.701 5.132-16.625 2.17z" fill="#3F668A"/><path d="M87.22 56.892c.696 1.242 1.037 2.853 1.242 3.917l-.287 2.13-.928 2.334c-.492 1.242-1.474.764-1.16-.519l.614-2.006-.519-1.256-2.075 2.99-1.815 4.026c-.682.914-1.023.614-1.215-.205l-.655 1.133c-.56.955-1.542.286-1.337-.45l-.26.3c-.532.928-1.529.355-1.174-.724l.287-.737c-.723.669-.833-.246-.287-1.501l1.625-4.409c.314-.996 2.511-4.764 3.958-5.583l1.802-1.474 2.975.778-.791 1.256z" fill="#FFAD73"/><path d="M87.097 46.109c2.975-.246 5.296 1.856 7.288 5.173-1.46 1.993-3.78 4.45-6.497 7.22-2.43-1.596-3.262-2.893-5.787-1.16l4.996-11.233z" fill="#EDEDED"/><path d="M110.096 77.516c.341-.177.696-.355 1.037-.56.574-.327 1.038-1.01 1.12-1.61l.696-5.132c.054-.369-.055-.628-.26-.764.028.013-2.033-1.57-2.033-1.57-.137-.11-.328-.15-.56-.096-2.375.533-5.009 1.993-7.63 3.754a98.703 98.703 0 00-3.863 2.743c-.259.191-.45.505-.491.778l-.341 2.498c-.028.178.027.314.123.382l2.06 1.584a.26.26 0 00.205.054c3.112-.095 6.538-.382 9.937-2.06zm2.553-8.107l-.082-.041.082.04zm-.314-.069a.8.8 0 00-.178.028c.068-.014.123-.014.178-.028zm.163.028c-.027-.014-.068-.014-.109-.014.041 0 .082 0 .109.014z" fill="#DB981F"/><path d="M97.894 77.954c-.096-.068-.137-.205-.123-.382l.341-2.498c.041-.273.232-.587.492-.778a98.588 98.588 0 013.862-2.744c2.621-1.76 5.255-3.22 7.63-3.753.232-.055.424-.014.56.095l2.061 1.584c-.136-.11-.328-.137-.56-.096-2.375.532-5.009 1.993-7.63 3.754a97.974 97.974 0 00-3.862 2.743c-.26.191-.451.505-.492.778l-.341 2.498c-.027.178.027.314.123.382l-2.061-1.583z" fill="#9D9D9C"/><path d="M99.845 79.154c-.04.273.096.45.328.45 3.098-.108 6.524-.395 9.937-2.074.341-.177.696-.355 1.037-.56.573-.327 1.037-1.01 1.119-1.61l.696-5.132c.082-.601-.245-.956-.791-.847-2.375.533-5.01 1.993-7.63 3.754a98.012 98.012 0 00-3.863 2.743c-.259.192-.45.505-.491.778l-.342 2.498zm-2.785 2.935l-.136.983c-.027.163-.15.3-.368.395-.45.192-1.133.096-1.515-.204-.191-.15-.273-.328-.26-.478l.137-.983 2.143.287z" fill="#fff"/><path d="M95.287 81.406c-.45.191-.505.574-.123.874.382.3 1.065.396 1.515.205.45-.191.505-.573.123-.874-.382-.3-1.065-.396-1.515-.205zm6.046-.777l-1.092-.847c-1.078-.846-2.361-1.296-3.917-.71l-.205 1.556 1.092.847.205-1.556c1.556-.587 2.825-.137 3.917.71z" fill="#DADADA"/><path d="M97.402 79.919c1.83-.697 3.262.054 4.464 1.173.122.123.027.424-.191.601a.515.515 0 01-.137.082c-.068.027-.136.04-.191.014-1.31-.587-2.198-1.16-3.617-.587-.164.068-.341.15-.532.259l.204-1.542z" fill="#fff"/><path d="M98.317 74.937l-2.348.969c-.3.123-.573.505-.614.819l-.15 1.119-.096.696-.382 2.853 1.365 1.064.382-2.852.096-.696.15-1.12c.04-.314.314-.696.614-.819l2.347-.969-1.364-1.064z" fill="#DADADA"/><path d="M99.682 76.001l-.396 3.017-.587.245c-.41.164-.805.615-.956 1.079l-.505 1.638-1.146.464.382-2.853.096-.696.15-1.12c.04-.313.314-.696.614-.818L99.682 76z" fill="#fff"/><path d="M101.456 78.008s.096-2.635.041-3.85c-.014-.19-.71-1.378-.71-1.378l-1.897 1.297c.055-.67.11-1.502.164-2.212a4.211 4.211 0 011.228-2.702 271.977 271.977 0 003.18-3.194c.192-.218 1.502-.805 1.502-.805l2.238-2.32 3.317.381.519 1.938-2.048 4.177-.109 3.03-.191 2.293c-.655 4.054-2.498 5.378-2.771 4.246-.286 1.214-1.788 1.487-1.692.313l-.068.15c-.355.738-1.01.874-1.447.546l-.778 1.911c-.519.97-1.611.874-1.447-.19l.969-3.631z" fill="#FCAF75"/><path d="M127.485 31.859l-.805 18.973c-4.927 8.34-10.155 13.758-17.731 18.508-.955-2.28-3.33-3.03-6.046-3.18l13.854-19.096-1.925-16.488c4-12.926 10.811-13.608 12.653 1.283z" fill="#EDEDED"/><path opacity=".4" d="M100.773 107.886c1.447-.737 3.74-1.706 5.119-.45 1.802 1.651-.055 2.975 3.112 3.562 2.648.492 8.981.382 8.463 4.464-.56 4.367-6.593 2.839-9.146 4.818-3.166 2.47-2.006 6.279-7.329 5.842-1.747-.15-3.413-.915-5.16-.069-1.528.738-2.634 2.58-3.999 3.577-2.28 1.665-7.78 4.176-8.394-.396-.3-2.198 1.801-2.635-.45-4.068-1.38-.873-3.522-.054-4.737-1.215-3.18-3.043 4.19-4.9 5.35-6.51 1.188-1.652.492-3.208 2.334-4.614 1.775-1.351 3.645-1.078 5.72-1.392 2.265-.341 2.402-1.774 4.163-2.716 1.61-.86 3.344-.028 4.954-.833zm-24.009 20.897c2.58 1.843-2.689 4.109-4.067 2.73-2.28-2.279 2.689-3.712 4.067-2.73zm19.341 2.88c1.133 1.188-1.023 1.857-1.72 1.051-.982-1.133 1.215-1.583 1.72-1.051zm-12.898 2.894c.955.955 1.774 3.44.71 4.504-.942.942-2.976.11-4.218.655-1.72.738-6.293 5.583-6.675 1.065-.027-.327.614-1.419.642-2.006.027-.751-.67-1.338-.45-2.225.34-1.406 1.705-1.925 3.111-2.17 2.444-.424 5.146.737 6.88.177z" fill="#EA4A49"/><path d="M95.928 84.682l11.52 32.977c1.338 10.933-27.012 12.53-28.718 3.917l17.198-36.894z" fill="#fff" fill-opacity=".24"/></svg>