<svg width="157" height="126" fill="none" xmlns="http://www.w3.org/2000/svg"><path d="M93.42 122.722c-.542-.226-13.165-5.574-11.471-14.579.587-3.091 2.235-5.529 4.922-7.289a14.708 14.708 0 013.049-1.49c2.258-4.152 5.578-7.266 9.981-9.32.452-2.031 1.468-3.882 3.003-5.507 4.381-4.626 11.991-6.59 18.54-7.402.09-2.347.61-4.694 1.581-6.928 5.51-12.954-2.8-19.702-6.639-22.003-5.601-3.363-9.914-2.822-9.959-2.799l-.113-.767c.181-.023 4.607-.61 10.478 2.911 4.02 2.392 12.736 9.456 6.955 22.974a19.184 19.184 0 00-1.513 6.545c3.433-.384 6.526-.452 8.581-.452 14.678.068 24.908 6.703 25.969 12.796.384 2.19-.09 6.274-7.587 9.005-.791.293-1.603.519-2.439.7.113.383.203.744.271 1.128.723 4.084-1.536 7.921-6.165 10.516-4.019 2.257-8.92 2.866-13.82 2.392.023.136.023.271.023.407.113 3.182-2.258 5.709-6.684 7.131-10.388 3.317-22.763-1.219-28.724-7.515-3.32-3.521-4.426-7.335-3.117-10.765.249-.677.543-1.331.836-1.941-.745.316-1.445.677-2.077 1.106-2.507 1.625-4.065 3.904-4.585 6.77-1.58 8.396 10.885 13.677 10.998 13.722l-.294.654zm-2.958-22.748a23.484 23.484 0 00-1.197 2.64c-1.197 3.137-.135 6.68 2.958 9.953 5.69 6.003 17.975 10.516 27.934 7.334 4.132-1.309 6.255-3.52 6.142-6.341 0-.181-.023-.361-.045-.542-5.058-.609-10.094-2.347-14.204-4.581-4.945-2.708-8.671-6.071-10.704-9.569-4.155-.316-7.88.068-10.884 1.106zm36.469 12.322c4.833.496 9.62-.068 13.549-2.28 4.336-2.414 6.436-5.957 5.781-9.704a10.277 10.277 0 00-.271-1.128c-6.503 1.083-13.504-1.377-18.562-6.703a22.654 22.654 0 01-3.229-4.31c-9.913-1.038-17.749-.248-23.643 2.392-.181.925-.226 1.896-.158 2.911.09 1.535.587 3.092 1.423 4.65a48.95 48.95 0 017.248 1.195c9.349 2.235 16.711 7.651 17.862 12.977zm-24.614-13.338c2.01 3.205 5.51 6.297 10.117 8.802 3.952 2.144 8.784 3.836 13.662 4.468-1.22-4.423-7.52-9.817-17.207-12.141a45.048 45.048 0 00-6.572-1.129zm-2.596-7.966c-3.75 1.85-6.64 4.513-8.695 8.011 2.823-.835 6.188-1.15 9.914-.925-.768-1.512-1.197-3.024-1.287-4.536a11.9 11.9 0 01.067-2.55zm25.472-2.686a22.59 22.59 0 002.822 3.656c4.833 5.1 11.517 7.47 17.727 6.5-1.874-4.536-7.565-8.125-15.13-9.388a111.647 111.647 0 00-5.419-.768zm-.497-.835c1.942.203 3.929.497 6.029.835 7.926 1.332 13.865 5.146 15.785 10.02.813-.158 1.625-.406 2.416-.677 5.148-1.873 7.678-4.761 7.09-8.124-.993-5.777-10.929-12.074-25.201-12.141a70.03 70.03 0 00-8.603.45c-.023 3.296.813 6.59 2.484 9.637zm-3.275-9.568c-8.129 1.038-14.565 3.565-17.952 7.154-1.287 1.354-2.19 2.888-2.665 4.58 5.826-2.459 13.459-3.204 22.966-2.256-1.558-3.001-2.349-6.229-2.349-9.478z" fill="#593D3D"/><path d="M90.598 123.196c0-1.444.88-3.136 1.964-3.746.475-.271.926-.293 1.265-.09l1.016.542-.339.744c0 .091.023.181.023.271 0 1.377-.813 2.934-1.807 3.634l-.384.835-1.038-.587c-.43-.248-.7-.813-.7-1.603z" fill="#352221"/><path d="M95.588 121.504c0 1.444-.88 3.137-1.964 3.746-1.084.632-1.965-.045-1.965-1.489 0-1.445.88-3.137 1.965-3.747 1.084-.609 1.964.045 1.964 1.49z" fill="#472F2E"/><path d="M95.475 122.068c0 1.083-.655 2.347-1.468 2.821-.813.474-1.467-.023-1.467-1.106 0-1.083.654-2.347 1.467-2.821.813-.474 1.468.023 1.468 1.106z" fill="#5B3D3D"/><path d="M94.685 122.339c0-.181.113-.406.248-.474.045-.023.09-.045.136-.023l2.37 1.377c.182.113.25.339.136.519-.112.181-.338.248-.519.135l-2.28-1.331c-.069-.045-.091-.113-.091-.203zm-1.355 1.354c0-.181.113-.406.248-.474.045-.023.09-.045.136-.023l2.37 1.377c.181.113.25.339.136.519-.113.181-.338.248-.52.135l-2.28-1.331c-.068-.045-.09-.09-.09-.203z" fill="#EDDDDD"/><path d="M62.303 84.267l-3.546-2.008v.022c-.451-.248-1.06-.248-1.693.135-1.468.835-2.642 3.115-2.642 5.056 0 .948.293 1.647.745 2.008h.023c.067.068.158.09.248.136l3.5 1.986 3.365-7.335z" fill="#281818"/><path d="M63.296 86.433c0 1.941-1.197 4.22-2.642 5.056-1.468.835-2.642-.046-2.642-2.009 0-1.94 1.197-4.22 2.642-5.055 1.445-.835 2.642.068 2.642 2.008z" fill="#3F2A28"/><path d="M62.02 88.531c.484-1.135.355-2.277-.288-2.55-.643-.274-1.556.425-2.039 1.56-.483 1.136-.354 2.278.288 2.551.643.274 1.556-.425 2.04-1.56z" fill="#FF9E55"/><path d="M42.702 73.186l-3.545-2.009v.023c-.452-.248-1.062-.248-1.694.135-1.468.836-2.642 3.115-2.642 5.056 0 .947.294 1.647.745 2.008h.023c.067.068.158.09.248.136l3.5 1.986 3.365-7.335z" fill="#281818"/><path d="M43.696 75.353c0 1.94-1.197 4.22-2.643 5.055-1.467.835-2.664-.046-2.664-2.009 0-1.963 1.197-4.22 2.642-5.055 1.468-.835 2.665.045 2.665 2.009z" fill="#3F2A28"/><path d="M42.702 76.12c0 1.06-.655 2.302-1.445 2.776-.79.451-1.445-.023-1.445-1.106 0-1.06.654-2.302 1.445-2.776.813-.451 1.445.045 1.445 1.106z" fill="#FF9E55"/><path d="M94.436 62.873c0-4.83 2.936-10.45 6.572-12.548.926-.519 2.009-.79 2.868-.79.677 0 2.416.068 4.2 1.174 2.055 1.286 2.326 4.423 2.326 4.423l-7.362 14.895s-2.371 1.173-4.81-.18c-1.513-.836-2.439-2.212-2.845-2.957a13.409 13.409 0 01-.542-1.264c-.271-.79-.407-1.715-.407-2.753z" fill="#281818"/><path d="M110.56 57.005c0 4.83-2.936 10.449-6.572 12.548-3.635 2.099-6.571-.136-6.571-4.965 0-4.83 2.936-10.45 6.571-12.548 3.636-2.099 6.572.136 6.572 4.965z" fill="#3F2A28"/><path d="M109.769 57.976c0 3.588-2.19 7.763-4.877 9.32-2.688 1.557-4.878-.09-4.878-3.679 0-3.588 2.19-7.763 4.878-9.32 2.709-1.557 4.877.09 4.877 3.679z" fill="#FFC373"/><path d="M103.559 49.783c.994-.564 1.92-.857 2.801-.925v-8.62l-26.624 3.768c-2.575-.113-5.104.225-7.204 1.015l-39.743 5.62v19.476c-.226 2.189 1.264 4.536 4.403 6.341l12.894 7.448c5.352 3.091 13.526 3.43 18.156.744l29.085-16.61c-.339-.993-.52-2.143-.52-3.475-.022-5.913 2.326-12.21 6.752-14.782z" fill="#E8871C"/><path d="M105.298 49.738c1.039-.587 2.033-.902 2.936-.97v-9.072l-27.979 3.949c-2.71-.113-5.374.248-7.565 1.06l-41.776 5.913v16.43c-.226 2.302 1.333 4.761 4.63 6.657l13.549 7.831c5.622 3.25 14.203 3.611 19.081.79l27.91-16.113s.565-.294.791-.43v-.767c.316-6.003 3.952-12.705 8.423-15.278z" fill="#F2982C"/><path d="M108.211 39.132v-3.047s-.519.023-1.174.068c-.768-1.061-1.92-2.076-3.455-2.98l-13.55-7.83c-5.622-3.25-14.203-3.611-19.08-.79L34.165 45.789c-1.039.61-1.807 1.309-2.348 2.054l-.904-.203.023 2.527c-.204 2.28 1.355 4.74 4.629 6.635l13.549 7.831c5.623 3.25 14.204 3.588 19.081.79l36.786-21.236c2.303-1.332 3.342-3.16 3.229-5.055z" fill="#352221"/><path d="M68.174 62.353l36.785-21.236c4.878-2.798 4.246-7.763-1.377-11.013l-13.55-7.83c-5.622-3.25-14.203-3.612-19.08-.79L34.165 42.718c-4.878 2.799-4.245 7.764 1.377 11.014l13.55 7.83c5.622 3.228 14.203 3.589 19.08.79z" fill="#FFC373"/><path d="M48.934 39.154l25.382-14.647c3.365-1.94 9.281-1.692 13.165.542l9.35 5.394c1.783 1.015 2.8 2.302 3.093 3.565.451-1.715-.587-3.633-3.094-5.077l-9.349-5.394c-3.884-2.234-9.8-2.482-13.165-.542L48.934 37.642c-1.829 1.06-2.483 2.527-2.145 4.04.271-.971.949-1.851 2.145-2.528z" fill="#F2982C"/><path d="M49.883 45.224l9.349 5.394c3.884 2.234 9.8 2.482 13.165.542l25.381-14.647c1.197-.7 1.897-1.58 2.146-2.527-.294-1.264-1.31-2.528-3.094-3.566l-9.349-5.394c-3.884-2.234-9.8-2.482-13.165-.541L48.934 39.13c-1.196.7-1.896 1.58-2.145 2.528.294 1.263 1.31 2.55 3.094 3.565z" fill="#F9B858"/><path d="M60.925 57.772l26.76-15.436c3.545-2.054 3.093-5.642-.994-8.011l-9.846-5.688c-4.087-2.37-10.32-2.617-13.865-.564L36.221 43.51c-3.545 2.053-3.094 5.642.994 8.011l9.845 5.687c4.065 2.347 10.32 2.595 13.865.564z" fill="#EFDFDF"/><path d="M60.45 54.545l23.78-13.721c3.138-1.806 2.754-5.01-.881-7.11l-8.762-5.054c-3.636-2.099-9.19-2.325-12.33-.52L38.48 41.863c-3.139 1.805-2.755 5.01.88 7.109l8.762 5.055c3.636 2.099 9.191 2.324 12.33.519z" fill="#fff"/><path d="M40.082 43.08s5.194.497 9.236 3.205c4.02 2.709 8.852 7.2 8.852 7.2l1.423-.813s-5.217-5.439-9.236-7.65c-4.02-2.212-8.875-2.799-8.875-2.799l-1.4.858zm5.691-3.249s5.194.497 9.213 3.205c4.02 2.708 8.852 7.199 8.852 7.199l1.423-.813s-5.216-5.438-9.236-7.673c-4.02-2.211-8.875-2.798-8.875-2.798l-1.377.88zm5.667-3.363s5.195.497 9.214 3.205c4.02 2.686 8.852 7.2 8.852 7.2l1.423-.813s-5.216-5.439-9.236-7.673c-4.02-2.212-8.875-2.799-8.875-2.799l-1.377.88zm5.692-3.25s5.193.497 9.213 3.205 8.852 7.2 8.852 7.2l1.422-.813s-5.216-5.44-9.235-7.65c-4.02-2.212-8.875-2.8-8.875-2.8l-1.377.858zm5.69-3.227s5.194.497 9.213 3.205c4.02 2.708 8.852 7.2 8.852 7.2l1.423-.813s-5.216-5.44-9.236-7.673c-4.02-2.212-8.874-2.799-8.874-2.799l-1.378.88z" fill="#EFDFDF"/><path d="M83.281 63.211l11.268-6.5v-3.136l-11.268 6.5v3.136zm0 3.25l11.268-6.5v-1.58l-11.268 6.523v1.557z" fill="#352221"/><path d="M61.467 99.703c-7.136 0-13.526-2.211-19.24-6.612-4.719-3.633-7.248-7.966-7.496-12.819-.407-7.83 5.193-13.676 5.261-13.72a1.852 1.852 0 112.552 2.686c-.745.721-4.426 5.505-4.11 10.922.203 3.7 2.258 7.086 6.052 10.02 11.584 8.936 25.969 7.74 45.23-3.792 15.627-9.343 25.383-20.108 28.205-31.12 4.133-16.182-5.126-42.496-14.791-49.604-2.8-2.054-5.306-2.348-7.632-.926-3.794 2.347-8.559 5.62-12.059 8.012a225.164 225.164 0 01-3.726 2.527c-3.522 2.302-7.79 8.034-10.342 11.465-.43.586-.836 1.106-1.174 1.557a1.868 1.868 0 01-2.597.361 1.862 1.862 0 01-.362-2.595 53.99 53.99 0 001.152-1.535c2.868-3.859 7.226-9.704 11.29-12.367.769-.519 2.078-1.4 3.66-2.482 3.522-2.415 8.332-5.733 12.216-8.125 2.552-1.58 6.661-2.663 11.765 1.083 10.749 7.9 20.707 35.793 16.168 53.508-3.093 12.164-13.165 23.403-29.898 33.4-11.268 6.771-21.272 10.156-30.124 10.156z" fill="#593D3D"/><path d="M25.246 88.69L2.078 99.68l27.752 14.534-4.584-25.524z" fill="#C6AFAF"/><path d="M23.936 87.99L.768 99.005l27.752 14.511-4.584-25.524z" fill="#DBC7C6"/><path d="M.768 99.004L0 100.764l28.52 14.985.723.316.587-1.851L.768 99.004z" fill="#C6AFAF"/><path d="M73.323 14.555s-4.697 5.281-7.294 8.756c-1.649 2.212-6.436 8.982-6.436 8.982l4.697 3.386s4.72-6.906 6.684-9.411c1.423-1.806 6.73-7.899 6.73-7.899s-1.017-3.814-4.381-3.814z" fill="#352221"/><path d="M64.335 35.566c-.361.541-1.739.27-3.071-.632-1.332-.903-2.1-2.054-1.739-2.595.361-.542 1.739-.271 3.071.632 1.333.88 2.1 2.053 1.74 2.595z" fill="#472F2E"/><path d="M63.364 35.16c-.226.338-1.106.18-1.964-.407-.859-.564-1.333-1.309-1.107-1.67.226-.338 1.107-.18 1.965.407.835.564 1.332 1.308 1.106 1.67z" fill="#DBC7C6"/><path d="M60.305 33.065L16.204 97.19l3.052 2.096 44.1-64.126-3.051-2.096z" fill="#DBC7C6"/><path d="M28.52 113.515l-.632 1.895 1.355.655.587-1.851-1.31-.699z" fill="#B29A9A"/><path d="M86.578 27.17c.655 0 1.174.271 1.174.61 0 .338-.52.61-1.174.61-.632 0-1.174-.271-1.174-.61 0-.338.542-.61 1.174-.61zm-3.41-1.985c.655 0 1.174.27 1.174.609 0 .338-.519.61-1.174.61-.655 0-1.174-.272-1.174-.61 0-.339.52-.61 1.174-.61zm13.482 7.583c.654 0 1.174.27 1.174.609 0 .338-.52.61-1.175.61-.632 0-1.174-.272-1.174-.61 0-.339.542-.61 1.174-.61zm-3.433-1.986c.655 0 1.174.27 1.174.61 0 .338-.52.608-1.174.608-.655 0-1.174-.27-1.174-.609.022-.338.542-.61 1.174-.61zm-3.41-1.986c.655 0 1.174.27 1.174.609 0 .338-.519.61-1.174.61-.632 0-1.174-.271-1.174-.61 0-.338.52-.61 1.174-.61zm-10.094-5.597c.655 0 1.174.27 1.174.609 0 .339-.519.61-1.174.61-.632 0-1.174-.271-1.174-.61 0-.338.542-.61 1.174-.61zm-4.81 2.279l8.536 4.92 1.807-1.038-8.536-4.92-1.807 1.038zm10.14 5.98l8.535 4.92 1.807-1.038-8.536-4.942-1.806 1.06z" fill="#3F2A28"/></svg>