<svg width="85" height="206" fill="none" xmlns="http://www.w3.org/2000/svg"><path d="M4.108 149.911l59.648-39.187L67.88 2.375 63.742 0 0 36.799v110.737l4.108 2.375zM59.334 7.644v100.541L4.409 139.893V39.351L59.334 7.644z" fill="#9D9D9C"/><path d="M4.109 149.911l63.756-36.812.014-86.087-.014-1.406V2.375L4.122 39.188 4.11 149.91zm4.422-7.616l.014-3.44L8.53 41.74l54.94-31.721v9.827l-.014 9.541v81.173L8.531 142.295z" fill="#EDEDED"/><path d="M8.53 138.855V41.74l51.964-29.988v97.102L8.531 138.855z" fill="#A4D9F5"/><path opacity=".3" d="M9.841 136.59V98.753l37.823-78.088 11.52-6.647v24.446L11.26 135.771l-1.42.819zm6.702-3.877l42.64-84.899v15.205l-32.785 64.002-9.855 5.692z" fill="#fff"/><path d="M27.872 72.219l.369-1.529c.45-1.351 1.556-1.651 1.256-.082l-1.352 7.22-.273-5.609z" fill="#FCAF75"/><path d="M30.739 63.825l-3.44-2.007-10.537 6.088.027 7.398 3.44 1.993 10.523-6.074-.013-7.398z" fill="#15ABEB"/><path d="M20.229 77.297l-3.44-1.993-.027-7.398 3.44 1.993.026 7.398z" fill="#2F608F"/><path d="M20.229 77.297l-3.44-1.993-.027-7.398 3.44 1.993.026 7.398z" fill="#2F608F"/><path d="M20.201 69.899l-3.44-1.993L27.3 61.818l3.44 2.007-10.54 6.074z" fill="#4A8BC9"/><path d="M30.739 63.825l.013 7.398-10.523 6.074-.028-7.398 10.538-6.074z" fill="#15ABEB"/><path d="M25.088 85.513c-.41.273-2.225-3.002-2.921-4.627-.82-2.456-1.379-4.45-.778-7.302l-2.102-4.545c-.382-.833.423-1.747 1.01-.97l1.856 3.276-1.024-5.541c-.382-1.406.778-2.225 1.147-1.188l2.13 5.651-.656-6.347c-.11-1.187 1.12-1.843 1.447-.737l1.27 6.702.368-5.105c.055-1.379 1.228-1.61 1.31-.355l.191 12.585c-.232 1.256-1.678 4.013-1.842 4.19l.75 3.55-2.156.763zm57.027 35.639l-.287 3.385-.668 1.993-1.748 2.361c-.436.737-2.21 1.625-2.21 1.625-2.39 1.378-4.15-1.87-3.85-3.072l1.624-4.777s.232-1.01-.163-1.815c-.314-.628-2.758.682-2.758.682-.86.492-1.624.928-2.238 1.283-.82.123-1.174-.082-1.051-.628l1.692-1.76 1.884-1.652.833-.723c1.378-.888 2.675-1.584 3.699-1.72l.095-.355.205-.696 1.843.286 2.743.424-.136 2.088.163.983.328 2.088z" fill="#FCAF75"/><path opacity=".3" d="M74.553 120.551l3.713-.859 1.993 3.357-1.72 6.061c.068-1.611.136-3.549-.928-3.931l-1.857-.26 1.515-1.023-.232-1.502-3.22-.505.736-1.338zm-2.211-1.788l6.633-.764c-1.01-.532-1.76-1.187-2.006-2.02l-.11.355c-1.01.136-2.306.833-3.698 1.706l-.82.723z" fill="#FCAF75"/><path d="M72.178 76.013l2.675 13.158.901 11.016c.806 6.387 1.72 11.52 1.147 14.864a2.3 2.3 0 00.068.928c.246.833.997 1.488 2.007 2.02.805.45 1.774.792 2.798 1.051 1.597-6.565 2.825-12.885 2.293-17.99l-1.065-13.008c-.286-7.452-3.63-12.98-10.824-12.039z" fill="#EDEDED"/><path opacity=".5" d="M75.754 100.173c.806 6.388 1.72 11.52 1.147 14.864-.041.341-.014.642.068.928.246.833.997 1.488 2.007 2.02-.014-.819.013-1.624.04-2.443.424-12.339 4.136-22.671-.095-28.363l-4.068 1.965.901 11.029z" fill="#15ABEB"/><path d="M42.627 196.401c0-2.375 1.843-3.289 4.56-3.589 2.374 0 5.582 1.064 9.786 2.033l4.79 2.621c.915 2.457.874 4.654.355 6.661-1.35 1.16-3.057 1.884-4.64 1.46l-5.378-2.279-.382-.778c-4.3-.478-9.09-2.416-9.09-6.129zm17.485-9.541c0-1.938 1.747-2.279 4.34-2.484 4.696 0 4.887 2.348 9.214 2.252l4.245 2.58c.874 2.484.696 5.146.191 7.139-1.283 1.119-3.249 1.365-4.723 1.146l-4.354-2.566-.368-.792c-4.109-.614-8.545-3.658-8.545-7.275z" fill="#1D1D1B"/><path d="M75.481 120.552l-15.628 6.538c-.028 2.77.04 5.377.314 7.316.982 7.207 3.89 18.085 3.89 18.085 2.102 9.254 2.934 20.747 3.426 32.854.082 4.354 6.565 8.176 10.715 4.054 1.187-14.782 1.187-29.128-2.294-38.641 1.666-7.508.123-16.025-.34-24.665.108-1.119-.52-5.35-.083-5.541z" fill="#0F7BAA"/><path d="M46.968 142.855c.587 7.193 2.88 18.058 2.88 18.058l1.597 32.799c-.3 2.171.587 3.945 2.047 5.023 2.266 1.652 5.91 1.625 8.45-1.16 2.02-14.755 2.825-28.896-.137-38.382 2.088-7.493 1.979-14.468 1.993-23.108 4.818-1.966 12.257-4.764 11.956-12.353a37.473 37.473 0 00-1.283-8.422 33.716 33.716 0 00-.45-1.556c-.136-.396-.26-.791-.396-1.174-2.662 5.324-11.206 8.64-20.501 7.467-.41-.055-.806-.11-1.215-.178a34.624 34.624 0 01-2.99-.641l-.218 1.446c-.095.751-.245 1.734-.395 2.908-.71 5.35-1.734 14.414-1.338 19.273z" fill="#15ABEB"/><path opacity=".5" d="M46.968 142.841c.573 7.193 2.88 18.058 2.88 18.058l1.597 32.813c-.314 2.171.587 3.931 2.06 5.01-1.432-13.8-2.06-26.74 0-36.758-3.084-11.37-4.49-23.272-.941-32.049-.041-3.508-.423-6.675.328-9.227a34.596 34.596 0 01-3.959-1.501c-.013.027-2.552 16.474-1.965 23.654z" fill="#15ABEB"/><path d="M78.675 86.77a293.09 293.09 0 01-.914 9.213c-1.01 8.844-2.307 16.761-3.303 19.313-3.467 9.241-11.316 10.838-21.962 6.934a52.577 52.577 0 01-3.809-1.569c-.068-.028-.136-.055-.218-.096-1.337-5.241-1.065-8.285-1.283-14.7a67.586 67.586 0 00-.082-2.212c-.04-.75-.082-1.556-.136-2.402-.123-2.034-.082-3.945-.191-6.347a56.926 56.926 0 00-.383-4.463c.137-.123.45-.287.82-.423a1.6 1.6 0 01.272-.096c.055-.013.697-.573.737-.587.697-.204.287-.737.574-.914.75-.437 1.474-.888 2.197-1.324.737-.464 1.474-.915 2.184-1.365 5.651-3.59 10.401-6.907 15.956-8.845.478-.164.956-.328 1.447-.478.519-.15 1.024-.286 1.556-.41 4.723 1.311 6.525 5.242 6.538 10.77z" fill="#15ABEB"/><path d="M73.884 90.427c-4.108 3.563-7.889 5.61-13.021 7.398.9-7.384-2.116-13.199-7.644-12.08 5.474-3.917 9.159-6.442 14.7-8.38 5.42 0 7.48 7.753 5.965 13.062z" fill="#EDEDED"/><path d="M66.282 77.965l-1.597-6.715-10.278 3.494 1.679 9.172c3.767-.013 11.479-3.48 10.196-5.95z" fill="#FCAF75"/><path d="M56.03 77.46s-1.814 2.13-3.452-.273c-1.652-2.402-3.604-9.5-1.27-14.29 2.334-4.791 9.214 4.067 9.214 4.067L56.03 77.46z" fill="#FCAF75"/><path d="M65.927 75.386s-3.918 1.214-7.385 2.457c-.887.313-2.456-.82-3.057-1.543l-1.078-1.296-.26-3.03-1.842-1.297.641-2.062c-1.05-.573-1.843-1.637-2.525-2.907-1.624-5.364 5.323-9.213 11.425-7.33 7.807 2.28 7.766 11.234 4.08 17.008z" fill="#000"/><path d="M52.864 71.55c.014-.314.041-.628.15-.914.11-.287.314-.56.615-.67.546-.204 1.16.233 1.365.779.204.546.109 1.146.027 1.72l-.205 1.242c-.055.341-.123.71-.314.996-.19.3-.546.519-.887.437-.246-.055-.45-.273-.546-.505-.11-.232-.137-.492-.15-.75a14.81 14.81 0 01-.055-2.335z" fill="#FCAF75"/><path d="M57.669 100.118c-.642 6.839-3.48 9.746-7.234 8.313l-3.235-2.566a67.53 67.53 0 00-.082-2.211c-.041-.751-.082-1.556-.137-2.403-.123-2.034-.081-3.944-.19-6.347l.436-4.886c.082-.041.178-.068.273-.096.055-.013.696-.573.737-.587.696-.204.287-.737.573-.914.751-.437 1.474-.887 2.198-1.324 7.248-.587 8.108 5.282 6.66 13.021z" fill="#EDEDED"/><path d="M22.262 81.692c.56 4.231.915 7.903 2.048 11.574l.368 1.188c1.283 4.081 2.635 7.739 5.05 10.687 5.87.587 11.67.014 17.404-1.487a61.345 61.345 0 003.07-.901c.042-.014.096-.028.137-.041.573-.178 1.133-.382 1.706-.573 6.511-1.147 9.296-16.257-2.388-13.868-.246.027-.519.095-.806.163a18.39 18.39 0 00-1.76.56c-.041.014-.096.041-.137.055-.355.136-.71.3-1.078.45-1.925.833-3.918 1.938-5.064 2.798-2.853.15-4.286.464-6.443 1.61-.013 0-3.917-9.636-6.893-15.396-2.58-.314-4.804 1.065-5.214 3.18z" fill="#EDEDED"/><path opacity=".5" d="M24.678 94.44c1.283 4.081 2.635 7.739 5.05 10.688 5.87.587 11.67.013 17.404-1.488.382 7.985-.123 11.097 1.365 16.911.068.028.136.055.218.096 1.31.601 2.58 1.119 3.794 1.57a43.24 43.24 0 01-.6-2.375c-1.228-5.296-1.61-11.097-1.57-17.144 0-1.187.028-2.375.055-3.576a20.12 20.12 0 01-3.399 2.116c-4.695 2.293-10.264 2.689-16.393 1.856l-5.924-8.654z" fill="#15ABEB"/><path d="M78.92 87.192c-.258 3.058-.804 5.76-1.146 8.79-.9.396-1.501.069-1.474-1.774 1.324-9.036.696-15.888-5.678-17.785.505-.15 1.024-.287 1.542-.41 5.242 1.352 6.743 5.665 6.757 11.18z" fill="#EDEDED"/></svg>