<svg width="118" height="143" fill="none" xmlns="http://www.w3.org/2000/svg"><path d="M83.093 31.331c-4.44-2.004-6.652-8.8-7.165-13.16-.513-4.423.192-9.2-1.507-13.416-1.33-3.301-3.91-4.904-7.47-4.744-1.746.08-3.574.593-4.744 1.699-.93.69-1.442 1.795-1.25 2.965v.129c0 .032.016.048.048.048.032.112.032.224.08.336.128.369.385.738.706 1.074.048.048.08.096.128.128.625.577 1.442.962 2.196.802 1.314.224 2.757.32 3.43.978 1.619 1.538 1.122 5.08 1.394 7.116.273 2.004.449 5.514.898 7.486 1.138 5.097 6.395 10.514 13.256 8.559z" fill="#2C1D1B"/><path d="M58.104 4.499s1.94-2.629 4.52-.898c3.43 2.308 2.42 4.665 1.539 5.29-.866.625-6.059-4.392-6.059-4.392z" fill="#F9423E"/><path d="M84.487 98.395l1.587 3.414s-.817 2.292-1.49 3.655c-.674 1.362-1.844 1.154-2.854 2.869-1.01 1.715.113 2.789 3.286 2.901 3.158.112 3.847-1.475 4.825-3.542.978-2.068 2.452-4.745 2.468-6.46.032-2.709-2.292-2.612-3.638-3.558-.898-.61-4.184.721-4.184.721zM46.37 111.923c-.528 1.315-1.297 2.982-3.974 3.43-3.43.561-4.2.016-5.706 1.01-1.507 1.01.609 2.933 2.276 4.12 2.452 1.747 5.273.913 7.084.512 2.405-.528 4.89-1.346 4.777-3.734-.128-2.372.85-3.975.85-3.975s-4.425-3.591-5.306-1.363z" fill="#FFC9B6"/><path d="M42.011 115.401s-.032 1.122 1.363 1.812c1.394.673 4.167.785 5.177.064 1.01-.738 2.308-1.347 2.308-1.347s1.026 2.805-2.34 4.344c-3.366 1.539-5.194 2.629-8.624 1.587-3.414-1.042-5.61-3.27-3.734-5.482.913-1.09 5.85-.978 5.85-.978z" fill="#3F2A28"/><path d="M82.195 86.646c-1.394-.962-2.757-1.33-4.456-1.667 4.184-7.293 4.232-14.602 2.597-22.793-.449-2.26-1.395-7.55-3.735-8.8-.946-.496-11.941-.096-13.063-.432-.016 0-.048-.016-.064-.016-.994 3.462-2.18 7.934-2.292 9.841-.289 4.89 3.638 6.075 3.638 6.075s.16 2.565.673 4.777c.994 4.696 3.014 11.348 5.819 15.179-.209 2.58 1.474 3.254 3.606 3.767 1.651.4 7.726 6.555 11.156 9.232.016 0 3.542-.417 3.542-3.766-2.1-2.597-2.34-7.903-7.42-11.397z" fill="#15ABEB"/><path d="M61.181 62.763c.113-1.907 1.299-6.38 2.293-9.841-2.004-.61-4.777-1.074-5.498-1.395-6.54 9.73-8.463 22.2-8.592 33.837-1.538 2.42-.961 5.562-.945 8.335.048 5.37-1.219 10.755-1.844 16.092-.08.754-.368 1.812-.577 2.918 1.154.657 4.889 1.538 5.242 1.41 1.843-5.418 5.209-11.284 6.123-16.974.256-1.539.352-3.094.208-4.665-.128-1.426-.866-2.965-.32-4.36.448-1.154 1.763-2.436 2.452-3.51a62.743 62.743 0 002.917-5.16c.962-1.876 1.94-3.832 2.837-5.851-.513-2.212-.673-4.777-.673-4.777s-3.895-1.17-3.623-6.059z" fill="#F4EBEA"/><path d="M53.68 21.97c2.933-3.718 4.648-3.254 8.207-1.218 4.36 2.5 7.886 4.071 9.793 5.658 3.238 2.693 5.114 8.239 5.658 15.211.08 1.058.722 4.665 1.09 5.739 1.347 3.814.69 4.44-.272 5.321.529.513 1.042 2.741-.064 3.382-5.05 2.965-16.253 3.494-20.164-3.686-.24-.45.384-1.988.689-2.389-.817-.465-1.395-1.587-1.395-2.628-1.49-.802-2.773-2.036-3.11-4.152-2.996-.673-6.218-2.356-5.24-5.978.48-1.764 1.955-5.787 2.516-7.806 1.138-4.024 1.443-6.396 2.292-7.454z" fill="#F9423E"/><path d="M55.94 23.926c.818-.128 2.965-1.234 2.324-5.21-.176-1.106 4.825-4.103 4.825-3.943-.048 3.607.513 7.726 2.164 9.586-2.389 2.484-5.097 8.783-9.169 7.918-2.244-.465-1.763-3.767-.144-8.351z" fill="#FFB9A4"/><path d="M54.049 22.675s-.722 3.735-1.187 5.082a327.013 327.013 0 00-1.442 4.44s1.33-.706 2.052-.337c.737.369 1.314 1.33 1.94 1.49.624.16 1.442 0 1.442 0l.432-1.714s-1.298-.37-1.362-2.549c-.048-2.196.208-5.161.208-5.161l-2.083-1.25z" fill="#E52C2C"/><path d="M63.65 21.153c-.032.064-1.106 2.596-2.164 4.52-1.106 2.036-3.366 4.055-4.584 5.08-1.78 1.508-1.122 3.912-1.122 3.912s.64-1.539 1.49-1.298c.834.24 1.7.993 2.693 1.859.737-1.17 2.485-2.372 3.687-4.408 1.17-1.988 3.013-5.418 2.34-7.822-.69-2.388-2.34-1.843-2.34-1.843z" fill="#E52C2C"/><path d="M51.725 10.333c3.19-.721 4.856-.85 7.693.305 1.587.432 3.094 1.138 4.537 2.084a.398.398 0 01.176.368c-.721 4.2-2.132 8.656-6.86 10.531-3.88 1.539-6.06-2.725-6.733-5.578-.785-3.334-1.025-7.213 1.187-7.71z" fill="#FFC9B6"/><path d="M61.967 6.07c-3.045-2.469-6.892-2.164-8.992-.465-2.228 1.811-3.991 4.488-2.998 7.357 1.042.209 2.517-.721 3.222-1.314 1.283 1.426 3.543 3.11 6.3 2.725.544 1.747 1.715 5.61 3.317 5.498 3.206-6.588 4.04-9.826-.85-13.801z" fill="#3F2A28"/><path d="M58.922 16.328s.769-2.58 2.452-1.25c1.683 1.33-.705 3.943-.705 3.943l-1.747-2.693z" fill="#FFC9B6"/><path d="M84.567 105.464s-.224.593-1.811 1.651-2.004 2.42-2.004 3.253c0 .834 1.844 2.036 4.312 1.86 2.468-.176 3.911-1.106 5.097-3.478 1.186-2.373 2.901-7.662 2.404-8.832-.272-.657-1.298-.946-1.522-1.122 0 0 .384 1.186.064 2.244-.545 1.795-1.186 3.061-2.036 4.472-.85 1.41-2.34 1.651-3.35 1.138-1.026-.481-1.154-1.186-1.154-1.186z" fill="#3F2A28"/><path d="M107.28 142.57c-1.475 0-3.029-.224-4.6-.801-6.412-2.357-6.38-6.251-6.316-12.15.016-1.122.016-2.276 0-3.526-.096-4.168-1.683-7.149-4.472-8.383-2.757-1.219-6.427-.481-9.104 1.859-1.202 1.042-2.276 2.052-3.334 3.029-4.632 4.296-8.303 7.694-14.442 7.213-2.516-.192-4.552-1.218-6.075-3.045-2.724-3.27-3.734-9.185-2.917-17.087.465-4.552 1.298-9.745 2.1-14.778 1.202-7.502 2.324-14.57 2.084-18.401-.706-10.884-3.174-14.875-3.19-14.923l.577-.368c.112.16 2.58 4.15 3.302 15.243.256 3.895-.882 11.011-2.084 18.545-.801 5.017-1.635 10.21-2.1 14.73-.801 7.726.16 13.464 2.773 16.59 1.395 1.683 3.286 2.629 5.61 2.805 5.867.465 9.249-2.677 13.93-7.037 1.057-.977 2.147-2.003 3.35-3.045 2.917-2.549 6.763-3.318 9.825-1.972 3.045 1.347 4.776 4.537 4.873 8.993.032 1.266.016 2.42 0 3.542-.048 5.802-.096 9.313 5.882 11.509 6.78 2.5 13.641-2.052 13.705-2.1l.384.561c-.272.176-4.536 2.997-9.761 2.997z" fill="#593D3D"/><path d="M0 117.79v10.37c0 5.482 8.35 9.922 18.641 9.922 10.29 0 18.642-4.44 18.642-9.922v-10.37H0z" fill="#352221"/><path d="M18.641 133.786c-10.29 0-18.641-4.44-18.641-9.921v1.538c0 5.482 8.35 9.922 18.641 9.922 10.29 0 18.642-4.44 18.642-9.922v-1.538c0 5.481-8.335 9.921-18.642 9.921z" fill="#44B7F0"/><path d="M57.687 56.88s-1.94 5.595-4.632 11.365c-2.709 5.77-7.277 7.886-14.17 4.777-6.908-3.094 7.326-23.114 7.326-23.114l11.476 6.973z" fill="#352221"/><path d="M18.641 108.317c-10.29 0-18.641 4.44-18.641 9.922 0 5.481 8.35 9.921 18.641 9.921 10.29 0 18.642-4.44 18.642-9.921 0-5.482-8.335-9.922-18.642-9.922z" fill="#472F2E"/><path d="M34.606 113.719c-1.843-3.783-8.271-6.572-15.965-6.572-7.677 0-14.121 2.789-15.964 6.572h-.545v2.196c0 4.84 7.389 8.783 16.51 8.783 9.12 0 16.493-3.927 16.493-8.783v-2.196h-.53z" fill="#44B7F0"/><path d="M18.641 104.726c-9.12 0-16.493 3.927-16.493 8.784 0 4.841 7.389 8.784 16.493 8.784 9.12 0 16.494-3.927 16.494-8.784.016-4.857-7.373-8.784-16.494-8.784z" fill="#15ABEB"/><path d="M11.076 111.731c-2.372-1.363-3.478-2.565-3.462-3.783 0-1.378 1.426-2.34 2.644-3.029 1.106-.625 2.453-1.202 3.735-1.763 2.036-.882 4.135-1.796 5.225-2.821 2.148-2.004 2.437-2.822 3.174-6.46a7.081 7.081 0 015.899-5.835l.096.978c-.16.016-4.12.497-5.033 5.05-.754 3.782-1.138 4.808-3.462 6.988-1.219 1.138-3.302 2.052-5.498 3.013-1.267.545-2.58 1.122-3.639 1.715-1.442.802-2.132 1.507-2.148 2.164 0 .561.513 1.507 2.966 2.917l-.497.866z" fill="#15ABEB"/><path d="M29.124 133.161c0-2.949 1.795-6.363 4.007-7.645a3.685 3.685 0 011.747-.481 4.9 4.9 0 012.565.721c1.266.786 1.427 2.549 1.427 2.549l-4.488 9.232s-1.443.706-2.934-.096c-.93-.513-1.49-1.346-1.73-1.811a5.935 5.935 0 01-.337-.769 5.489 5.489 0 01-.257-1.7z" fill="#281818"/><path d="M38.966 129.587c0 2.949-1.796 6.363-4.007 7.646-2.212 1.282-4.008-.08-4.008-3.03 0-2.949 1.796-6.363 4.008-7.645 2.211-1.283 4.007.08 4.007 3.029z" fill="#3F2A28"/><path d="M38.485 129.972c0 2.596-1.587 5.626-3.526 6.748-1.956 1.122-3.527-.064-3.527-2.677 0-2.597 1.587-5.626 3.527-6.748 1.955-1.122 3.526.08 3.526 2.677z" fill="#44B7F0"/><path d="M37.507 130.998c0 1.282-.785 2.789-1.747 3.35-.962.561-1.747-.032-1.747-1.331 0-1.282.785-2.789 1.747-3.35.962-.545 1.747.048 1.747 1.331z" fill="#15ABEB"/><path d="M36.316 73.123l-14.339 33.251 5.505 2.374 14.339-33.25-5.505-2.375z" fill="#352221"/><path d="M31.416 110.689l-14.04 8.143-9.682-5.691 14.041-8.126 9.681 5.674z" fill="#352221"/><path d="M9.249 108.461c-1.25.866-1.571 3.174-1.571 4.696 1.57 0 6.748-1.843 6.748-1.843l-.882-2.084-4.295-.769z" fill="#352221"/><path d="M31.416 106.906l-2.356 3.35-10.114 3.879-9.697-5.674 12.486-7.245 9.681 5.69z" fill="#543A3A"/><path d="M31.416 106.906s.449.417.449 1.699v1.828l-3.526 2.067.962-3.045 2.115-2.549z" fill="#472F2E"/><path d="M31.416 106.906s-11.156 6.508-12.486 7.245c-1.314.738-1.571 3.158-1.571 4.697 2.18-1.267 14.49-8.399 14.49-8.399l-.433-3.543z" fill="#472F2E"/><path d="M15.083 103.412v3.719c0 1.715 2.597 3.093 5.818 3.093 3.206 0 5.819-1.378 5.819-3.093v-3.719H15.083z" fill="#44B7F0"/><path d="M20.901 100.318c-3.205 0-5.818 1.379-5.818 3.094 0 1.715 2.597 3.094 5.818 3.094 3.206 0 5.819-1.379 5.819-3.094 0-1.699-2.597-3.094-5.819-3.094zm5.546 17.44c-3.285 0-6.571-1.315-6.748-1.395a.49.49 0 01-.272-.641.496.496 0 01.641-.272c.048.016 5.081 2.035 8.64 1.041 3.926-1.106 5.898-3.398 5.257-6.155-.257-1.122-.802-2.051-1.283-2.869-.544-.929-1.057-1.811-1.041-2.773.096-3.173 1.683-5.257 2.725-6.652.272-.368.529-.689.705-.977 1.65-2.693.785-5.45.77-5.466a.504.504 0 01.32-.625.504.504 0 01.625.32c.048.129 1.026 3.222-.882 6.3-.192.32-.465.673-.753 1.057-1.026 1.363-2.436 3.222-2.517 6.075-.016.69.401 1.411.898 2.244.513.882 1.106 1.86 1.395 3.142.769 3.27-1.523 6.075-5.963 7.325-.802.24-1.651.321-2.517.321z" fill="#15ABEB"/><path d="M50.763 53.002c-1.138-1.314-2.71-2.212-2.71-2.212s-.223-.16-.592-.369c-1.811-1.186-4.28-1.907-4.28-1.907s-8.287 14.362-11.188 21.43c-2.196 5.386-6.395 18.177-6.395 18.177s-.032 6.523.577 8.72l.048.352c.385 2.324 2.02 3.35 3.767 2.372.72-.4 1.602-.977 2.676-1.747 4.264-3.061 8.768-13.063 11.653-20.132 2.885-7.069 8.72-20.148 8.72-20.148s-1.138-3.222-2.276-4.536z" fill="#44B7F0"/><path d="M48.92 52.12c-1.139-1.314-2.71-2.212-2.71-2.212s-1.506-1.042-3.045-1.41c-1.538-.353-4.295.4-4.295.4s-4.136 10.114-7.021 17.183c-2.885 7.069-6.732 17.487-6.203 23.546.128 1.539.288 2.757.449 3.719.384 2.324 2.02 3.35 3.766 2.372.722-.4 1.603-.978 2.677-1.747 4.264-3.061 8.768-13.063 11.653-20.132 2.885-7.069 7.02-17.183 7.02-17.183s-1.153-3.221-2.291-4.536z" fill="#15ABEB"/><path d="M64.099 62.475l-8.864-4.97-1.523 2.55 9.104 5.225 1.283-2.805z" fill="#44B7F0"/><path d="M64.451 63.292c0 .737-.448 1.603-1.01 1.924-.56.32-1.01-.016-1.01-.77 0-.737.45-1.603 1.01-1.923.561-.32 1.01.016 1.01.77z" fill="#15ABEB"/><path d="M40.905 49.059l-8.912-5.113-1.362 2.757 8.976 5.161 1.298-2.805z" fill="#44B7F0"/><path d="M32.33 44.747c0 .737-.449 1.603-1.01 1.924-.56.32-1.01-.016-1.01-.77 0-.737.45-1.603 1.01-1.923.561-.32 1.01.016 1.01.77z" fill="#44B7F0"/><path d="M47.06 34.793s-1.058 2.517-1.394 3.623l-.337 1.106s-4.488 3.446-6.235 4.953c-1.747 1.506-3.174.56-5.097 1.698-2.212 1.315-2.1 2.18-2.132 3.735-.032 1.555 2.196 3.014 2.196 3.014s5.594-3.975 7.822-5.017c4.456-2.1 8.142-6.572 8.142-6.572s-1.394-1.09-1.33-2.837c.048-1.17.593-2.661.593-2.661s-.673-1.09-2.228-1.042z" fill="#FFB9A4"/><path d="M57.607 57.33l.032.24-7.678-4.456-9.841-5.706s-3.318 2.067-5.178 4.28a5.495 5.495 0 00-.384.528l-.561-.048v1.988c.048 1.25.833 2.388 1.667 3.334 1.362 1.555 5.914 4.183 8.479 4.905 2.564.737 5.898 1.33 9.264-.016 3.367-1.347 6.38-3.575 6.38-3.575v-1.763l-2.18.289z" fill="#352221"/><path d="M59.803 57.041l-9.842-5.706-9.841-5.706s-3.318 2.067-5.177 4.28c-1.86 2.211-.642 4.247.737 5.802 1.362 1.555 5.914 4.183 8.479 4.904 2.565.738 5.898 1.33 9.264-.016 3.367-1.314 6.38-3.558 6.38-3.558z" fill="#472F2E"/><path d="M68.811 42.39c-.304 1.636.209 4.184.08 5.659-2.757 1.538-7.581 6.38-10.547 8.88-2.115.432-3.494 0-4.952 2.837-.866 1.699.368 3.67 1.859 4.328 1.731.769 3.093-.241 3.19-1.347-.754-.737-.866-1.987 1.378-2.693 2.709-.288 8.848-3.799 10.9-5.45 1.955-1.57 2.869-1.33 3.254-2.452 1.025-2.933 3.013-8.64 3.013-8.64s-6.973-.769-8.175-1.121z" fill="#FFC9B6"/><path d="M71.087 25.961c-2.933 1.587-4.28 6.828-3.59 11.349.577 3.702.946 5.16.946 5.16s4.776.642 8.543 1.395c2.308-4.584 1.923-7.774 1.843-11.749-.08-3.879-4.985-6.283-7.742-6.155z" fill="#E52C2C"/><path d="M68.427 42.47s1.907-.592 4.375-.288c2.469.305 4.52.914 4.52.914l-1.025 2.356s-2.725-.77-4.2-.881c-1.459-.096-3.334.32-3.334.32l-.337-2.42z" fill="#FF6969"/><path d="M51.404 20.496s-1.33 1.683-2.068 3.43c-.737 1.747-1.202 4.231-1.426 5.818-.224 1.587-.08 2.629-.08 2.629s1.94 1.01 2.26 1.17c.4-.753.881-2.709 1.394-4.392.754-2.452 1.715-6.203 1.715-6.203s-1.106-1.314-1.795-2.452z" fill="#E52C2C"/><path d="M47.846 32.357l-.786 2.436 2.26 1.042.914-2.597s-.946-.801-2.388-.881z" fill="#FF6969"/></svg>