<svg width="204" height="163" fill="none" xmlns="http://www.w3.org/2000/svg"><path d="M46.831 135.723c8.12 4.664 8.164 12.25.101 16.913-8.063 4.678-21.183 4.678-29.318 0-8.12-4.663-8.164-12.235-.101-16.913 8.077-4.664 21.198-4.664 29.318 0z" fill="#B5B8C9"/><path fill-rule="evenodd" clip-rule="evenodd" d="M76.77 38.145c-.794-.475-1.53-.605-2.615-.461L63.65 42.405c-.462-.057-1.155-.086-2.138-.057-1.647.057-1.705.158-2.413.374-.607.187-1.474.892-.072.878.592 0 .679-.187.794.187.13.389-1.936.59-2.673.677-.737.086-.621 1.367.145 1.928 1.242.907 2.21.763 3.092.59.78-.158 2.514-.503 4.19-1.885l11.849-2.62c1.257-.619 1.922-1.41 1.965-2.144.03-.864-.751-1.67-1.618-2.188z" fill="#F1B287"/><path d="M60.37 46.983c.78-.159 2.515-.504 4.19-1.886l11.85-2.62c.245-.115.448-.259.65-.388l-1.3-1.613s-10.16 3.67-11.634 3.974c-1.445.288-3.54 2.75-7.441.965.072.36.274.734.607.978 1.228.907 2.196.763 3.077.59z" fill="#E8A476"/><path d="M75.774 35.108c.361-2.735 2.283-15.33 4.465-17.043 1.546-1.21 5.49-2.447 5.216 5.153 0 0-1.401 12.005-5.043 15.949l-3.771 3.613s-3.092-1.656-3.555-5.067l2.688-2.605z" fill="#BEEFFC"/><path d="M85.44 23.218s-1.4 12.004-5.042 15.948l-3.772 3.614s-.91-.49-1.806-1.469v-.057l5.014-5.686c4.306-9.716 2.905-16.107 2.24-18.151 1.676-.317 3.555.59 3.367 5.8z" fill="#A5E4F2"/><path d="M84.704 123.92c1.011-.706 3.034-3.037 4.696-6.909 0 0 1.07-3.815 2.254-1.886 0 0-.968-.705-1.43.504 0 0-2.168 6.765-5.593 8.665 0 0 .232.489 1.055.605l-.982-.979z" fill="#70AFE9"/><path d="M91.09 114.938l.362.518c-.015 0 .13-.662-.361-.518zm.535 9.385l-.838-.36.231-3.757.766-1.626s.159 3.195-.159 5.743z" fill="#63A4D6"/><path d="M89.472 121.79s-1.214 3.397-3.843 2.619c0 0 3.51 1.065 3.843-2.619z" fill="#70AFE9"/><path d="M91.986 91.763s2.37 5.499.26 13.574c-.65 2.476-1.3 6.463-.26 9.946 0 0-.823 8.464-5.866 9.788-2.442.648-.81-1.957.896-5.34.274-.533.549-1.31.852-3.555 0 0 0 .23 0 0 0-5.053-.245-5.585-.838-11.214 0 0-1.618-8.09-1.618-14.163l6.574.964z" fill="#E8A476"/><path d="M86.12 125.086c-1.026.273-1.33-.044-1.214-.734.246-.475.26-1.094.52-1.598.16-.317.55-.979.723-1.325l.867-1.684c.274-.532.549-1.309.852-3.555 0-5.052-.245-5.585-.838-11.213 0 0-1.084-5.484-1.474-10.796l3.93-1.238s2.515 6.046.42 14.121c-.65 2.461-.29 7.888.736 11.372 0 0-.158 1.583-.736 3.497-.882 1.469-2.096 2.706-3.786 3.153z" fill="#F2B387"/><path d="M91.77 114.419s2.21 1.138.592 5.283c0 0-.448 3.44-.361 4.347l-.434.274s.174-4.477.044-4.621c0 0-1.214 1.641-1.705 4.261 0 0-.232 3.066-5.881 2.533l.115-.187 1.676-2.217s1.72.389 2.746-.604c1.098-1.065 3.208-7.197 3.208-7.197l.202-1.152-.202-.72z" fill="#70AFE9"/><path d="M86.09 121.646s-3.727 4.347-2.528 4.735c2.327.763 4.653-1.079 5.91-3.123 1.373-2.26-5.939 3.9-3.381-1.612z" fill="#70AFE9"/><path opacity=".5" d="M86.09 121.646s-3.164 3.958-2.109 4.303c2.067.662 5.115-1.612 5.506-2.907.115-.446-6.575 4.275-3.396-1.396z" fill="#92CCF7"/><path d="M76.496 120.667c1.012-.705 3.035-3.037 4.711-6.909 0 0 1.055-3.815 2.254-1.886 0 0-.968-.691-1.43.504 0 0-2.168 6.765-5.592 8.665 0 0 .23.504 1.069.605l-1.012-.979z" fill="#70AFE9"/><path d="M82.869 111.67l.36.519s.145-.663-.36-.519zm.549 9.385l-.838-.36.23-3.756.767-1.627s.159 3.196-.16 5.743z" fill="#63A4D6"/><path d="M81.265 118.522s-1.214 3.397-3.844 2.62c0 0 3.511 1.065 3.844-2.62z" fill="#70AFE9"/><path d="M83.779 88.51s2.37 5.484.275 13.574c-.65 2.476-1.301 6.463-.275 9.946 0 0-.824 8.464-5.867 9.803-2.442.647-.809-1.972.896-5.341.275-.532.535-1.309.853-3.555 0 0 0 .23 0 0 0-5.052-.246-5.571-.838-11.213 0 0-1.619-8.09-1.619-14.15l6.575.936z" fill="#E8A476"/><path d="M77.912 121.833c-1.026.273-1.329-.043-1.213-.734.245-.461.26-1.094.52-1.598.159-.317.563-.993.722-1.324l.867-1.684c.275-.533.535-1.31.853-3.556 0-5.052-.246-5.57-.838-11.213 0 0-1.098-5.47-1.489-10.796l3.454-2.835s3.251 7.168 1.141 15.243c-.65 2.476-.39 9.025.636 12.523 0 0-.303.921-.896 2.821-.852 1.454-2.066 2.707-3.757 3.153z" fill="#F2B387"/><path d="M83.562 111.167s2.211 1.137.593 5.282c0 0-.448 3.44-.347 4.347l-.448.274s.173-4.477.043-4.621c0 0-1.228 1.641-1.72 4.261 0 0-.216 3.08-5.88 2.548l.115-.187 1.676-2.217s1.72.388 2.746-.605c1.098-1.065 3.208-7.197 3.208-7.197l.202-1.151-.188-.734z" fill="#70AFE9"/><path d="M77.883 118.378s-3.727 4.347-2.528 4.75c2.312.763 4.653-1.094 5.91-3.124 1.372-2.274-5.94 3.887-3.382-1.626z" fill="#70AFE9"/><path opacity=".5" d="M77.883 118.378s-3.164 3.958-2.11 4.304c2.067.662 5.116-1.627 5.492-2.908.13-.432-6.575 4.275-3.382-1.396z" fill="#92CCF7"/><path d="M77.826 47.3s9.132 7.47 15.967 1.9c0 0 5.938 5.685 3.034 17.013-1.575 6.161-2.818 16.842-1.07 27.105 0 0-4.609 4.894-8.684 3.8-7.831-2.102-10.981-6.65-10.981-8.91.014-2.275-1.286-29.854 1.734-40.909z" fill="#0F1214"/><path d="M88.027 97.276s-2.124-11.89 2.5-28.89c1.3-4.764 6.705-16.351-13.25-18.668 0 0-2.818 16.294-1.17 38.49 0 0-.405 6.909 11.92 9.068z" fill="#23282E"/><path d="M84.4 96.384s-1.069-17.677 4.162-29.062c3.988-8.68-1.33-12.595-11.733-14.092 0 0-.68 3.584-.997 9.63-.492 9.068-.55 22.426.766 27.492 0 0 1.444 3.944 6.53 5.614 3.05.993 1.272.418 1.272.418z" fill="#272E33"/><path d="M98.98 27.464s-.65-6.981-16.993-10.436c0 0-.029.03-.072.087-.303-.043.694.014.376-.015 0 0-2.356.605-2.356 3.066 0 0-.621 4.045-1.575 4.995-1.647 1.641-2.6 4.75-1.69 6.736.1.95.346 2.102.852 3.412.52 1.972 1.156 5.168.997 8.766-.13 1.123-.332 2.13-.636 2.792 0 0 10.346 8.119 15.794 2.088 0 0-1.763-3.426.563-8.42 0 0 1.012-1.858 1.315-3.081.087-.072.174-.159.26-.23.03-.015.058-.015.073-.03 0 0 .029-.028.043-.071 2.384-2.116 3.8-6.88 3.049-9.659z" fill="#CDE9F5"/><path opacity=".1" d="M92.059 20.93c-1.503 3.756-7.095 5.9-7.095 5.9l1.546 4.276s9.334-5.887 5.924-9.659c-.26-.287 0 0-.375-.518z" fill="#000"/><path opacity=".1" d="M85.036 18.67c-2.991 4.75 1.113 7.729 1.113 7.729l-4.725 1.742s-1.07-4.535 1.734-8.81c.216-.316 1.286-.604 1.878-.662z" fill="#000"/><path d="M93.157 46.824c-.188-1.482-.087-3.67 1.127-6.29 0 0 1.011-1.857 1.315-3.08.087-.072.173-.159.26-.23.029-.015.058-.015.072-.03 0 0 .029-.028.043-.071 2.341-2.102 3.93-5.297 3.93-10.062 0 0-1.878-4.06-4.146-4.908-1.026-.389-11.329 12.623-14.522 11.947 0 0 1.907-16.38 1.864-16.323-.318-.043-.607-.734-.925-.763 0 0-2.225.72-2.225 3.167 0 0-.621 4.044-1.575 4.994-1.647 1.641-2.601 4.75-1.69 6.737.1.95.346 2.102.852 3.411.52 1.972 1.011 5.024 1.011 8.018-.058.446-.115.979-.202 1.511-.824 3.369-2.038 5.772-2.038 5.772-.563 5.168 12.08 9.73 20.158 2.606 0 0-1.387-4.62-3.28-6.348.014-.029-.015-.043-.03-.058z" fill="#1798CF"/><path d="M81.236 34.1s4.811-16.38 4.768-16.323c-.318-.043-3.439-.936-3.757-.878-.924.158-2.283.835-2.283 3.296 0 0-.621 4.045-1.575 4.995-.997.993-1.734 2.533-1.965 4.03 1.142 3.397 4.812 6.003 6.676 7.025 2.5 1.382 6.835 2.59 7.24-3.772.404-6.42 4.926-8.219 6.776-9.413-.42-.389-.882-.706-1.344-.878-1.04-.418-11.343 12.58-14.536 11.918z" fill="#15ABEB"/><path d="M90.296 26.385s3.699-2.894 2.89-4.232l.274-1.497s2.067 1.18 2.977 1.857l-6.141 3.872z" fill="#2D343A"/><path d="M98.214 25.55s-4.58-1.843-5.736 5.11c-.78 4.735.159 5.57-1.633 7.384-.405.417-3.656 2.605-9.32-1.454 0 0-5.029-3.555-4.87-5.44 0 0-.058 1.424.925 4.288.159.461-.188-.532 0 0 .217.605-.26-1.338 0 0 0 0 3.757 3.398 7.023 4.146 2.702.605 8.236 3.426 5 17.302 0 0 6.487-1.339 6.892-3.656l-.145-.518c-1.43-3.628-3.598-9.688-.838-14.467.014-.014 8.395-10.104 2.702-12.695z" fill="#0079AD"/><path d="M78.375 44.838c-.824 3.368-2.038 5.772-2.038 5.772-.346 3.11 3.887 6.276 9.667 6.233.838-3.037 1.879-9.875 1.474-11.933-.448-2.317-1.185-3.008-2.73-3.469-1.215-.36-5.058-2.706-6.691-3.7a33.6 33.6 0 01.491 5.571c-.029.46-.101.994-.173 1.526z" fill="#1798CF"/><path d="M83.389 4.937s-.737.475-.737 3.47c0 0-.723.59-1.055 3.814 0 0 .303 5.08 2.34 5.08 0 0 8.353.533 9.971-2.057 0 0 1.763-4.132 1.763-6.78 0-2.663-.607-4.736-2.196-6.075-1.59-1.31-7.875-2.706-10.086 2.548z" fill="#F2B387"/><path fill-rule="evenodd" clip-rule="evenodd" d="M87.724 4.146s.375 2.432 1.661 3.598c.766.705-.809 1.843-1.286 2.303-.462.46-1.271 1.353-.375 2.231 1.33 1.325.679 2.994-2.471 5.14 0 0 5.173 0 9.551-1.066 0 0 2.442-6.089-4.422-12.408 0 0-1.127.072-2.658.202z" fill="#E8A476"/><path d="M86.611 2.605s.144 8.392 4.61 9.947c.52.187 3.424-1.8 3.424.173 0 1.972-1.936 2.878-2.948 2.763 0 0-2.485.706-1.445 2.692 1.04 1.986 5.722 4.073 5.722 4.073s2.703-8.449 2.79-11.644c.086-3.21 1.618-8.982-6.879-10.58 0 0-5.924.043-7.051 2.792l1.777-.216z" fill="#3F210A"/><path fill-rule="evenodd" clip-rule="evenodd" d="M86.611 2.605s.087 5.485 2.225 8.075c0 0-.91-4.476-.722-5.772 0 0 1.95 1.123 2.124 3.24 0 0 .694-3.556-.174-4.434 0 0 2.226.086 2.862 3.872 0 0 1.632-1.944.505-3.397 0 0 2.934.993 3.064 5.426 0 0 1.083-2.245.274-3.785 0 0 2.153 1.64 2.009 4.059 0 0 1.69-7.413-4.538-9.227 0 0-2.817-1.166-5.808-.201 0 0-2.645.374-3.627 2.346l1.806-.202zm5.072 12.869l.029 3.57s-.882 1.597 1.373 1.885l2.89 1.296s-3.165-4.909-2.443-7.342c0 0-.65.533-1.85.59z" fill="#301808"/><path d="M84.92 26.025s-1.546-1.684-1.474-2.879c.102-1.569 1.865-3.052 1.518-5.787 0 0 5.086-.287 6.719-1.885 0 0-.101 1.468 0 3.138.058.907.448 3.627.448 3.627s-3.18 3.786-7.21 3.786z" fill="#E8A476"/><path fill-rule="evenodd" clip-rule="evenodd" d="M85.253 17.403s6.343 2.23 6.878 4.822c0 0-.824-4.448-.448-6.766 0 .015-2.977 1.051-6.43 1.944z" fill="#DB9669"/><path d="M84.964 18.785c-1.142 4.49.751 7.254.751 7.254l-3.829 1.195s-1.07-4.549 1.734-8.81c.144-.215 1.011-1.108 1.373-.92.159.086.014 1.093-.03 1.28zm6.719.949c.188 3.786-5.968 6.32-5.968 6.32l1.257 4.16s9.508-5.686 6.098-9.458c-.274-.302-.838-.734-1.387-1.022z" fill="#F7FCFC"/><path d="M21.53 95.563l.13-48.178c0 1.584.997 3.182 2.977 4.405l-.13 48.178c-1.995-1.224-2.977-2.822-2.977-4.405z" fill="#DCE4EA"/><path d="M24.637 51.79l-.13 48.178c-1.995-1.224-2.992-2.822-2.977-4.42l.13-48.177c-.015 1.598.982 3.196 2.977 4.42z" fill="#DCE4EA"/><path d="M92.853 93.75l-.13 48.177-68.216-41.96.13-48.177 68.216 41.96z" fill="#DCE4EA"/><path d="M173.555 52.74l-.131 48.178-66.685 41.095.13-48.177 66.686-41.096z" fill="#BDC3C9"/><path d="M106.869 93.836l-.13 48.177c-3.829 2.361-10.1 2.318-14.016-.086l.13-48.177c3.916 2.403 10.187 2.447 14.016.086z" fill="#CDD6DF"/><path d="M106.869 93.836l-.13 48.177c-.65.389-1.358.72-2.109.979l.13-48.177a10.44 10.44 0 002.109-.98zm-2.109.979l-.13 48.177c-.593.202-1.2.36-1.835.49l.13-48.178a11.14 11.14 0 001.835-.49zm-1.835.489l-.13 48.178c-.405.072-.824.129-1.243.187l.13-48.178c.419-.043.824-.1 1.243-.187zm-1.243.187l-.13 48.178a13.48 13.48 0 01-1.098.086l.13-48.177c.361-.03.722-.044 1.098-.087zm-1.098.072l-.13 48.178c-.333.014-.68.014-1.012 0l.13-48.178c.333.015.679.015 1.012 0z" fill="#CDD6DF"/><path d="M99.572 95.578l-.13 48.177a21.57 21.57 0 01-.982-.058l.13-48.177c.318.029.65.043.982.058zm-.982-.058l-.13 48.177c-.333-.028-.65-.072-.968-.115l.13-48.177c.317.043.635.086.968.115z" fill="#CDD6DF"/><path d="M97.622 95.405l-.13 48.177c-.333-.043-.665-.115-.998-.187l.13-48.177c.319.072.65.13.998.187z" fill="#CDD6DF"/><path d="M96.625 95.218l-.13 48.177a21.83 21.83 0 01-1.055-.273l.13-48.178c.332.101.693.202 1.055.274z" fill="#CDD6DF"/><path d="M95.57 94.944l-.13 48.178c-.42-.13-.824-.274-1.228-.447l.13-48.177c.39.173.794.317 1.228.446zm-1.243-.446l-.115 48.177a10.155 10.155 0 01-1.474-.762l.13-48.178a8.24 8.24 0 001.46.763z" fill="#CDD6DF"/><path d="M160.651 36.288l12.73 7.83c3.916 2.404 3.988 6.262.159 8.622l-66.671 41.096c-3.829 2.36-10.1 2.317-14.016-.087L24.637 51.79c-3.916-2.404-3.989-6.261-.16-8.622l13.713-8.45 55.487 34.115c3.916 2.404 10.187 2.447 14.016.086l52.958-32.631z" fill="#BBB"/><path d="M12.484 45.27c0-1.008 0-2.016.015-3.009 0 1.656 1.083 3.31 3.265 4.563l-.014 3.009c-2.168-1.267-3.266-2.922-3.266-4.563z" fill="#613913"/><path d="M15.764 46.824l-.014 3.009c-2.182-1.253-3.28-2.908-3.266-4.563l.015-3.009c-.015 1.641 1.084 3.296 3.265 4.563zM186.14 42.75c-.014.116-.014.231-.043.332-.015.1-.044.187-.072.288-.029.115-.058.23-.102.33-.029.087-.072.173-.101.26-.058.115-.101.23-.173.345-.044.087-.101.159-.145.245-.072.13-.159.26-.26.374-.101.13-.188.26-.303.374-.015.03-.044.058-.058.072a4.703 4.703 0 01-.477.461c-.101.086-.217.187-.332.274a5.919 5.919 0 01-.318.259c-.116.086-.26.172-.39.259-.145.1-.289.187-.434.288l-75.557 43.657-.014 3.009 75.557-43.643c.043-.03.087-.058.144-.087.102-.058.188-.115.275-.187.144-.086.289-.187.419-.273.116-.087.202-.159.318-.245.115-.087.231-.187.332-.274.029-.029.058-.043.072-.057.145-.13.275-.26.391-.403.028-.03.057-.058.072-.087.072-.086.159-.158.217-.244.028-.03.043-.072.072-.116a6.12 6.12 0 00.274-.388c.029-.058.073-.101.101-.159.015-.028.029-.057.044-.072.058-.115.115-.23.159-.345.029-.072.072-.13.101-.202 0-.028.014-.043.014-.072.044-.115.073-.23.102-.33.014-.072.057-.145.072-.23v-.058c.029-.116.029-.245.043-.36 0-.072.029-.144.029-.216v-.1c0-1.009.014-2.002.014-3.01-.014.101-.043.217-.043.332z" fill="#613913"/><path d="M91.64 90.554v3.008l-75.876-43.73v-3.008l75.876 43.73z" fill="#613913"/><path d="M106.32 94.11a7.79 7.79 0 001.041-.533l.014-3.009c-.332.188-.679.36-1.04.519-.101.057-.217.1-.318.144-.275.115-.564.23-.867.33a2.819 2.819 0 00-.318.116 6.81 6.81 0 01-.578.158 4.811 4.811 0 01-.433.115c-.203.043-.391.087-.593.13-.144.029-.289.072-.433.086-.419.072-.838.13-1.272.173a3.074 3.074 0 01-.376.029c-.26.014-.52.043-.765.057-.159 0-.318.015-.477.015h-.622c-.173 0-.332-.015-.49-.015-.189 0-.377-.014-.564-.029l-.52-.043c-.189-.014-.362-.043-.535-.057-.174-.03-.347-.044-.506-.072-.188-.03-.39-.058-.578-.101a5.353 5.353 0 01-.462-.1c-.232-.044-.463-.116-.694-.174a2.791 2.791 0 01-.376-.1 14.55 14.55 0 01-1.184-.403c-.188-.072-.376-.159-.564-.245-.087-.043-.188-.086-.289-.13a8.986 8.986 0 01-.824-.431l-.058 3.022c.26.159.535.288.81.418.1.043.188.086.289.13.173.071.332.158.505.215.015 0 .044.015.058.015.39.144.78.273 1.185.403a.269.269 0 00.101.028c.101.03.188.044.29.072.23.058.447.116.678.159l.188.043c.087.014.174.029.275.058.188.043.39.072.592.1.087.015.16.03.246.043.087.015.173.015.26.03.188.028.361.042.549.057.087.014.188.029.275.029.086.014.159.014.245.014.188.014.361.014.55.029.1 0 .202.014.303.014h1.141c.058 0 .116-.014.174-.014.26-.015.505-.029.765-.058.102-.014.203-.014.304-.014.029 0 .058-.015.087-.015.419-.043.852-.1 1.271-.172.015 0 .044 0 .058-.015.116-.028.231-.043.347-.072.217-.043.419-.086.621-.13.145-.028.289-.071.434-.114.187-.058.39-.101.578-.159l.13-.043c.072-.014.13-.058.202-.072.303-.1.592-.216.867-.33.087-.03.202-.058.303-.102z" fill="#613913"/><path d="M168.728 29.68l14.16 8.162c4.35 2.505 4.364 6.564.029 9.069l-75.543 43.657c-4.334 2.505-11.371 2.505-15.72-.014l-75.89-43.73c-4.35-2.504-4.364-6.563-.03-9.068l15.534-8.982 61.715 35.568c4.349 2.505 11.4 2.505 15.721 0l60.024-34.661z" fill="#754A2A"/><path opacity=".1" d="M187.571 106.978c3.525 2.029 3.54 5.311.043 7.341-3.511 2.029-9.204 2.029-12.73 0-3.526-2.03-3.555-5.312-.043-7.341 3.496-2.03 9.204-2.03 12.73 0z" fill="#000"/><path d="M172.601 100.947l1.893 9.37c.144.936.838 1.843 2.08 2.562 2.789 1.612 7.312 1.612 10.086 0 1.229-.719 1.908-1.626 2.052-2.562l1.893-9.37h-18.004z" fill="#B2B6B5"/><path d="M186.66 112.865c1.229-.72 1.908-1.627 2.052-2.562l1.893-9.371h-12.6v12.566c2.731.936 6.314.734 8.655-.633z" fill="#C1C1C1"/><path d="M188.698 110.317l1.893-9.37h-6.098v12.767c.78-.201 1.517-.475 2.153-.849 1.243-.705 1.922-1.627 2.052-2.548z" fill="#CFD3D1"/><path d="M187.946 97.262c3.526 2.03 3.541 5.311.044 7.341-3.511 2.029-9.205 2.029-12.73 0-3.526-2.03-3.541-5.326-.044-7.341 3.497-2.016 9.205-2.016 12.73 0z" fill="#E6E8E7"/><path d="M186.978 97.823c2.991 1.713 3.006 4.505.029 6.218-2.962 1.713-7.803 1.713-10.779 0-2.991-1.713-3.006-4.505-.044-6.218 2.977-1.713 7.803-1.713 10.794 0z" fill="#4C1513"/><path d="M181.863 82.508c-5.216 0-9.595 3.253-10.75 7.643a8.87 8.87 0 00-.304 2.332c0 .604.058 1.194.173 1.77a11.881 11.881 0 005.376 1.267c6.097 0 11.054-4.462 11.054-9.96 0-.605-.058-1.196-.174-1.771a11.784 11.784 0 00-2.962-1.022c-.78-.188-1.589-.26-2.413-.26z" fill="#8ACE29"/><path d="M172.89 97.175l-1.272 1.137h1.272l-.636 1.152.636.432.809.734h1.431l.809 1.684 1.228.187.506.461 1.199.086 1.575.648s.722-.547 1.344 0c.607.547 1.936 0 1.936 0h.983l.534-.475c.781 0 2.832-.691 2.832-.691l.217-.677.217-.82 1.113-.475v-2.246l-.781-.201-.217-1.57s.232-.82-.028-.95c-.26-.129-.737-.517-.737-.517s-.679-1.54-1.07-.965c-.39.576-.144-.216-.881 0s-1.532.043-1.532.043.174-.935-.635-.935h-4.162s-.058.576-.694 0c-.635-.576.232-1.353-.635-.576l-.867.777-1.431.389-1.488.302-.694.62-.404.82-.708.374.231 1.252z" fill="#37560F"/><path d="M171.676 93.821l-1.56 1.34h1.56l-.78 1.352.78.518.997.864h1.763l1.012 1.972 1.517.23.621.533 1.474.086 1.951.749s.896-.648 1.647 0c.766.648 2.384 0 2.384 0h1.214l.65-.562c.954 0 3.482-.82 3.482-.82l.275-.792.275-.964 1.387-.561v-2.621l-.968-.23-.275-1.842s.303-.964-.029-1.123c-.332-.158-.91-.604-.91-.604s-.838-1.8-1.33-1.138c-.476.677-.187-.259-1.083 0-.911.26-1.893.044-1.893.044s.217-1.094-.78-1.094h-5.13s-.072.662-.853 0c-.78-.662.289-1.584-.78-.662l-1.069.906-1.763.461-1.85.36-.852.734-.506.964-.881.432.303 1.468z" fill="#3E6610"/><path d="M170.202 90.828l-.491 1.885 1.141.389-1.011 1.108.824.576 1.054.95h1.85l1.055 2.173 1.589.26.651.59 1.546.1 2.051.835s.94-.72 1.734 0c.795.72 2.5 0 2.5 0h1.286l.694-.619c.997 0 3.656-.907 3.656-.907l.289-.863.289-1.05 1.459-.62v-2.894l-1.026-.258-.289-2.03s.318-1.065-.029-1.238c-.347-.172-.954-.676-.954-.676s-.881-2.001-1.387-1.252c-.505.734-.188-.274-1.141 0-.954.273-1.994.043-1.994.043s.231-1.21-.824-1.21h-5.39s-.072.735-.895 0c-.824-.734.303-1.755-.824-.734l-1.127 1.008-1.85.504-1.936.403-.896.806-.534 1.065-.925.49-.145 1.165z" fill="#477715"/><path d="M171.373 89.777l-1.171 1.05 1.171.447-.824 1.511.824.576 1.069.964h1.878l1.07 2.203 1.618.259.665.604 1.56.101 2.067.85s.953-.72 1.762 0c.795.719 2.529 0 2.529 0h1.286l.694-.634c1.011 0 3.713-.907 3.713-.907l.289-.878.289-1.08 1.474-.618v-2.937l-1.04-.259-.304-2.058s.318-1.08-.029-1.253c-.346-.172-.968-.676-.968-.676s-.896-2.015-1.401-1.267c-.52.749-.203-.288-1.156 0-.968.288-2.023.043-2.023.043s.231-1.223-.838-1.223h-5.448s-.072.748-.91 0c-.824-.749.303-1.77-.824-.749l-1.141 1.022-1.864.504-1.965.403-.911.82-.534 1.08-.94.49.333 1.612z" fill="#4E7F16"/><path d="M171.199 87.2l-1.127 1.67.968.633-.13.892.838.576 1.07.965h1.878l1.069 2.202 1.619.259.664.605 1.561.1 2.066.85s.954-.734 1.763 0c.809.72 2.529 0 2.529 0h1.286l.708-.634c1.011 0 3.713-.907 3.713-.907l.289-.878.289-1.08 1.474-.633v-2.936l-1.04-.26-.289-2.057s.318-1.08-.044-1.253c-.346-.172-.968-.676-.968-.676s-.896-2.03-1.416-1.267c-.52.749-.202-.288-1.156 0-.968.288-2.023.043-2.023.043s.246-1.223-.838-1.223h-5.447s-.072.748-.911 0c-.838-.749.304-1.77-.838-.749l-1.127 1.022-1.878.504-1.965.403-.911.82-.534 1.08-.925.49-.217 1.439z" fill="#629D1B"/><path d="M172.196 86.048l-1.589 1.382h1.589l-.794 1.396.794.533 1.026.892h1.792l1.026 2.03 1.546.245.636.547 1.503.1 1.979.778s.91-.662 1.691 0c.766.676 2.413 0 2.413 0h1.242l.665-.576c.968 0 3.54-.835 3.54-.835l.275-.82.274-.993 1.402-.576V87.43l-.983-.245-.289-1.9s.304-.993-.043-1.151c-.332-.158-.925-.619-.925-.619s-.852-1.871-1.343-1.18c-.492.69-.188-.26-1.113 0-.925.259-1.922.043-1.922.043s.231-1.123-.795-1.123h-5.216s-.072.691-.867 0l-.795-.69-1.083.95-1.792.46-1.864.374-.867.749-.506.993-.896.446.289 1.511z" fill="#6DA51C"/><path d="M174.133 84.94l-1.272 1.109h1.272l-.636 1.122.636.432.809.706h1.43l.809 1.626 1.229.187.505.446 1.2.072 1.589.62s.737-.533 1.344 0c.621.532 1.936 0 1.936 0h.983l.534-.476c.781 0 2.833-.676 2.833-.676l.231-.648.217-.792 1.127-.46v-2.174l-.795-.187-.231-1.526s.245-.791-.029-.92c-.275-.13-.737-.505-.737-.505s-.679-1.497-1.069-.935c-.391.547-.145-.216-.882 0-.737.201-1.546.029-1.546.029s.173-.907-.65-.907h-4.176s-.058.561-.694 0l-.636-.547-.867.748-1.43.374-1.503.303-.693.604-.419.792-.708.36.289 1.223z" fill="#79B218"/><path d="M175.592 84.12l-1.026.892h1.026l-.52.907.52.345.665.576h1.156l.664 1.324.997.159.419.36.969.057 1.286.504s.592-.432 1.098 0c.491.432 1.575 0 1.575 0h.794l.434-.374c.636 0 2.297-.547 2.297-.547l.188-.518.174-.648.91-.374v-1.758l-.636-.158-.188-1.238s.188-.648-.029-.748c-.202-.101-.592-.403-.592-.403s-.564-1.21-.867-.763c-.318.446-.13-.173-.722 0-.593.172-1.258.029-1.258.029s.145-.735-.52-.735h-3.395s-.044.461-.564 0l-.52-.446-.708.605-1.171.302-1.213.245-.564.49-.332.647-.578.288.231.979z" fill="#6DA51C"/><path d="M182.354 76.476c-3.106 0-5.707 2.116-6.401 4.952-.115.49-.188.993-.188 1.511 0 .389.044.778.101 1.138.954.518 2.038.82 3.208.82 3.642 0 6.589-2.893 6.589-6.463a6.13 6.13 0 00-.115-1.152 6.354 6.354 0 00-1.763-.662 7.644 7.644 0 00-1.431-.144z" fill="#8ACE29"/><path d="M175.419 81.874l-.304 1.224.679.259-.607.72.492.374.635.619h1.099l.635 1.41.954.173.39.389.925.072 1.214.532s.563-.46 1.04 0c.477.46 1.488 0 1.488 0h.766l.419-.403c.593 0 2.182-.576 2.182-.576l.174-.561.173-.69.867-.404v-1.871l-.607-.159-.173-1.324s.188-.69-.029-.806c-.203-.115-.564-.432-.564-.432s-.534-1.295-.823-.82c-.304.475-.116-.187-.68 0-.563.187-1.184.029-1.184.029s.144-.778-.492-.778h-3.207s-.044.475-.535 0c-.491-.475.173-1.137-.491-.475l-.665.648-1.098.317-1.156.259-.535.518-.318.691-.549.317-.115.748z" fill="#629D1B"/><path d="M176.112 81.183l-.693.691.693.288-.491.979.491.374.636.62h1.113l.635 1.424.954.173.405.389.924.072 1.243.547s.564-.475 1.055 0c.477.475 1.503 0 1.503 0h.765l.42-.404c.606 0 2.21-.59 2.21-.59l.174-.575.173-.691.882-.403v-1.901l-.622-.172-.173-1.339s.188-.69-.015-.806c-.216-.115-.578-.446-.578-.446s-.534-1.31-.838-.82c-.303.489-.115-.188-.693 0-.578.186-1.2.028-1.2.028s.145-.791-.505-.791h-3.252s-.043.489-.549 0c-.491-.49.188-1.152-.491-.49l-.679.662-1.113.331-1.17.26-.535.532-.318.705-.563.317.202 1.036z" fill="#6DA51C"/><path d="M176.011 79.528l-.679 1.08.578.402-.072.576.491.374.636.62h1.112l.636 1.424.954.173.39.389.925.072 1.242.547s.564-.475 1.041 0 1.503 0 1.503 0h.78l.419-.403c.607 0 2.211-.59 2.211-.59l.173-.576.173-.691.882-.403v-1.915l-.621-.172-.188-1.339s.188-.69-.015-.806c-.217-.115-.578-.446-.578-.446s-.534-1.31-.838-.82c-.303.489-.115-.188-.693 0-.578.186-1.2.028-1.2.028s.145-.792-.505-.792h-3.252s-.043.49-.549 0c-.491-.489.188-1.151-.491-.489l-.679.662-1.113.331-1.17.26-.549.532-.318.705-.564.317-.072.95z" fill="#79AD1E"/><path d="M176.589 78.765l-.939.907h.939l-.462.907.462.345.607.576h1.069l.607 1.324.91.159.376.36.896.057 1.185.504s.549-.432 1.011 0c.463.432 1.445 0 1.445 0h.737l.405-.374c.578 0 2.109-.547 2.109-.547l.159-.533.159-.633.838-.375v-1.756l-.592-.158-.173-1.224s.187-.647-.029-.748c-.203-.1-.549-.403-.549-.403s-.521-1.21-.81-.763c-.289.446-.115-.173-.664 0s-1.142.029-1.142.029.13-.734-.477-.734h-3.106s-.044.446-.521 0l-.476-.447-.636.605-1.069.302-1.113.245-.52.49-.304.647-.534.302.202.936z" fill="#6DA51C"/><path d="M177.398 77.887l-.809.777h.809l-.404.778.404.288.52.489h.911l.52 1.137.795.13.317.302.766.057 1.012.432s.462-.374.867 0c.39.374 1.242 0 1.242 0h.636l.347-.316c.491 0 1.821-.475 1.821-.475l.144-.461.145-.547.722-.331v-1.512l-.506-.129-.144-1.05s.159-.562-.015-.648c-.173-.087-.462-.346-.462-.346s-.448-1.036-.693-.662c-.261.389.231-.46-.232-.317-.477.144-.809 0-.809 0s-.404-.288-.925-.288h-3.121c-.664 0-.968.144-.968.144-.549.533 0 0 0 0l-.91-.057-.954.518-.448.417-.26.562-.448.244.13.864z" fill="#82C62B"/><path d="M178.251 77.369l-.665.633h.665l-.333.648.333.245.433.403h.751l.434.935.65.115.275.26.621.043.838.36s.39-.303.708 0c.318.302 1.012 0 1.012 0h.52l.274-.26c.405 0 1.489-.388 1.489-.388l.115-.374.116-.461.592-.26v-1.252l-.419-.115-.115-.863s.13-.46-.015-.533a2.667 2.667 0 01-.39-.288s-.361-.849-.563-.532c-.203.316-.073-.115-.463 0s-.809.014-.809.014.087-.518-.347-.518h-2.196s.101-.072-.361 0c-.795.115-.622-.043-.622-.043-.448.431-.173.158-.173.158l-.751.216-.795.173-.361.345-.217.446-.376.202.145.69z" fill="#8ACE29"/><path d="M179.161 77.282l-.491.475h.491l-.246.475.246.188.318.302h.549l.318.69.477.087.202.187.462.03.607.258s.289-.23.52 0c.246.23.752 0 .752 0h.39l.202-.201c.304 0 1.098-.288 1.098-.288l.087-.274.087-.33.433-.202v-.936l-.303-.086-.087-.648s.087-.331-.014-.389c-.101-.057-.289-.216-.289-.216s-.275-.633-.419-.403c-.159.23-.058-.086-.347 0-.289.087-.593.015-.593.015s.058-.374-.245-.374h-1.619s-.028.23-.274 0c-.246-.23.087-.547-.246-.23l-.332.316-.549.158-.578.13-.26.259-.159.331-.275.158.087.519z" fill="#B0D933"/><path d="M180.447 77.24l-.289.273h.289l-.145.288.145.1.188.188h.332l.188.417.289.043.116.115.274.015.361.158s.174-.13.304 0c.144.13.448 0 .448 0h.231l.13-.115c.173 0 .65-.173.65-.173l.058-.158.058-.202.26-.115v-.547l-.188-.043-.058-.374s.058-.202 0-.23c-.058-.03-.173-.13-.173-.13s-.159-.374-.246-.23c-.086.144-.029-.058-.202 0-.173.057-.361.014-.361.014s.043-.23-.159-.23h-.968s-.015.144-.159 0c-.145-.144.057-.331-.145-.144l-.202.187-.332.086-.347.072-.159.159-.101.201-.159.086.072.288z" fill="#C1E52C"/><path opacity=".1" d="M19.984 115.183c3.525 2.029 3.54 5.325.043 7.341-3.511 2.029-9.204 2.029-12.73 0-3.526-2.03-3.54-5.312-.043-7.341 3.497-2.016 9.204-2.016 12.73 0z" fill="#000"/><path d="M5.014 109.151l1.893 9.371c.144.936.838 1.842 2.08 2.562 2.79 1.612 7.312 1.612 10.086 0 1.229-.72 1.908-1.626 2.052-2.562l1.893-9.371H5.014z" fill="#B2B6B5"/><path d="M19.073 121.084c1.229-.72 1.908-1.626 2.052-2.562l1.893-9.371h-12.6v12.566c2.731.922 6.315.72 8.655-.633z" fill="#C1C1C1"/><path d="M21.125 118.522l1.893-9.371H16.92v12.782c.78-.201 1.518-.475 2.153-.849 1.243-.72 1.908-1.626 2.052-2.562z" fill="#CFD3D1"/><path d="M20.36 105.481c3.525 2.03 3.54 5.311.043 7.341-3.511 2.03-9.205 2.03-12.73 0-3.526-2.03-3.54-5.326-.044-7.341 3.511-2.03 9.205-2.03 12.73 0z" fill="#E6E8E7"/><path d="M19.391 106.042c2.991 1.713 3.006 4.506.03 6.219-2.963 1.713-7.803 1.713-10.795 0-2.99-1.713-3.005-4.506-.043-6.219 2.991-1.727 7.817-1.727 10.808 0z" fill="#4C1513"/><path d="M14.29 90.712c-5.216 0-9.594 3.254-10.75 7.63a8.898 8.898 0 00-.303 2.331c0 .605.057 1.195.173 1.771a11.877 11.877 0 005.375 1.266c6.098 0 11.054-4.462 11.054-9.96 0-.605-.057-1.195-.173-1.77a11.747 11.747 0 00-2.962-1.023 12.368 12.368 0 00-2.413-.245z" fill="#8ACE29"/><path d="M5.317 105.394l-1.271 1.138h1.271l-.635 1.165.635.432.81.734h1.43l.81 1.685 1.227.201.506.461 1.2.072 1.574.647s.723-.547 1.344 0c.607.547 1.922 0 1.922 0h.983l.534-.475c.766 0 2.818-.691 2.818-.691l.231-.676.217-.821 1.113-.475v-2.245l-.78-.202-.232-1.569s.231-.82-.029-.95c-.26-.129-.737-.518-.737-.518s-.679-1.54-1.069-.964c-.39.576-.145-.216-.881 0-.737.216-1.532.043-1.532.043s.173-.936-.636-.936h-4.147s-.058.576-.694 0c-.635-.575.232-1.353-.635-.575l-.867.777-1.43.389-1.49.302-.693.619-.404.806-.708.374.245 1.252z" fill="#37560F"/><path d="M4.104 102.026l-1.56 1.339h1.56l-.78 1.367.78.519.997.863h1.763l1.011 1.972 1.517.231.622.532 1.459.087 1.95.748s.896-.648 1.648 0c.766.648 2.384 0 2.384 0h1.214l.65-.561c.954 0 3.483-.821 3.483-.821l.274-.792.275-.964 1.387-.561v-2.62l-.968-.23-.275-1.843s.303-.964-.029-1.108c-.332-.159-.91-.605-.91-.605s-.838-1.799-1.33-1.137c-.476.662-.187-.259-1.083 0-.91.26-1.893.043-1.893.043s.217-1.094-.78-1.094h-5.13s-.072.662-.853 0c-.78-.662.29-1.583-.78-.662l-1.07.907-1.762.46-1.85.36-.852.72-.506.965-.881.431.318 1.454z" fill="#3E6610"/><path d="M2.615 99.032l-.491 1.886 1.127.389-1.011 1.108.823.576 1.055.95h1.85l1.054 2.173 1.59.259.65.59 1.546.101 2.052.835s.94-.72 1.734 0c.795.72 2.5 0 2.5 0h1.286l.694-.619c.996 0 3.655-.907 3.655-.907l.29-.863.288-1.065 1.445-.619v-2.894l-1.026-.259-.289-2.03s.318-1.064-.029-1.237c-.346-.173-.953-.677-.953-.677s-.882-2-1.387-1.252c-.506.734-.203-.288-1.142 0-.954.273-1.994.043-1.994.043s.231-1.209-.824-1.209h-5.39s-.072.734-.895 0c-.824-.734.303-1.756-.824-.734l-1.127 1.008-1.85.503-1.936.403-.896.806-.534 1.066-.91.475-.13 1.194z" fill="#477715"/><path d="M3.786 97.981l-1.17 1.051 1.17.447-.838 1.511.838.576 1.07.964h1.878l1.069 2.202 1.618.259.665.605 1.56.101 2.067.849s.953-.72 1.763 0c.794.72 2.528 0 2.528 0h1.286l.708-.633c1.012 0 3.714-.907 3.714-.907l.289-.878.289-1.08 1.474-.619v-2.936l-1.04-.26-.304-2.058s.318-1.08-.029-1.252c-.347-.173-.968-.676-.968-.676s-.896-2.016-1.416-1.267c-.52.748-.203-.288-1.156 0-.968.288-2.023.043-2.023.043s.231-1.223-.838-1.223h-5.448s-.072.748-.91 0c-.838-.749.303-1.77-.838-.749l-1.142 1.022-1.85.49-1.964.403-.91.82-.535 1.08-.925.489.318 1.626z" fill="#4E7F16"/><path d="M3.627 95.42L2.5 97.09l.968.632-.145.879.838.575 1.07.965h1.878l1.07 2.202 1.618.259.664.605 1.561.1 2.066.85s.954-.734 1.763 0c.81.719 2.529 0 2.529 0h1.286l.708-.634c1.011 0 3.713-.907 3.713-.907l.29-.878.289-1.079 1.473-.633v-2.937l-1.04-.259-.289-2.058s.318-1.08-.043-1.253c-.347-.172-.968-.676-.968-.676s-.896-2.015-1.416-1.267c-.52.749-.203-.288-1.156 0-.969.288-2.024.043-2.024.043s.246-1.223-.837-1.223h-5.448s-.072.748-.91 0c-.838-.749.303-1.77-.838-.749l-1.127 1.022-1.879.504-1.95.389-.911.82-.535 1.08-.924.49-.217 1.467z" fill="#629D1B"/><path d="M4.61 94.254l-1.59 1.381h1.59l-.795 1.396.794.533 1.026.893h1.792l1.026 2.029 1.546.23.636.547 1.488.101 1.98.777s.91-.662 1.69 0c.766.677 2.413 0 2.413 0h1.243l.665-.575c.968 0 3.54-.835 3.54-.835l.274-.82.275-.994 1.402-.576v-2.72l-.983-.245-.289-1.9s.304-.993-.029-1.151c-.332-.159-.925-.634-.925-.634s-.852-1.857-1.343-1.18c-.492.69-.188-.26-1.113 0s-1.922.043-1.922.043.231-1.137-.809-1.137h-5.216s-.073.69-.867 0l-.795-.69-1.084.95-1.791.46-1.879.374-.867.749-.506.993-.896.446.318 1.555z" fill="#6DA51C"/><path d="M6.56 93.16l-1.272 1.108H6.56l-.636 1.123.636.431.81.706H8.8l.823 1.626 1.229.187.505.447 1.2.072 1.575.619s.737-.533 1.343 0c.607.532 1.937 0 1.937 0h.982l.535-.475c.78 0 2.832-.677 2.832-.677l.231-.648.217-.791 1.142-.447v-2.173l-.795-.187-.231-1.526s.245-.792-.03-.921c-.26-.13-.736-.504-.736-.504s-.68-1.497-1.084-.936c-.39.547-.145-.216-.881 0-.737.202-1.547.03-1.547.03s.174-.908-.65-.908h-4.176s-.057.562-.693 0l-.636-.547-.867.749-1.43.374-1.503.302-.694.605-.419.792-.708.36.289 1.209z" fill="#79B218"/><path d="M8.02 92.325l-1.04.906h1.04l-.52.907.52.346.664.576H9.84l.665 1.324.997.158.419.36.968.058 1.286.503s.592-.431 1.098 0c.492.432 1.575 0 1.575 0h.795l.433-.374c.622 0 2.298-.547 2.298-.547l.188-.518.173-.648.91-.374v-1.756l-.635-.158-.203-1.253s.188-.647-.028-.748c-.203-.101-.578-.403-.578-.403s-.564-1.21-.867-.763c-.318.446-.13-.173-.723 0-.592.173-1.257.029-1.257.029s.145-.734-.52-.734h-3.395s-.044.446-.564 0l-.52-.447-.709.605-1.141.302-1.214.245-.563.49-.333.647-.578.288.203.979z" fill="#6DA51C"/><path d="M14.782 84.681c-3.107 0-5.708 2.116-6.401 4.952a6.56 6.56 0 00-.188 1.511c0 .389.043.777.101 1.137a6.72 6.72 0 003.208.82c3.641 0 6.589-2.892 6.589-6.462 0-.389-.044-.777-.116-1.152a6.35 6.35 0 00-1.763-.662 7.77 7.77 0 00-1.43-.144z" fill="#8ACE29"/><path d="M7.832 90.079l-.304 1.224.68.259-.608.72.492.374.621.619h1.113l.635 1.41.954.173.39.374.91.058 1.214.547s.564-.46 1.04 0c.478.46 1.49 0 1.49 0h.765l.419-.403c.592 0 2.182-.576 2.182-.576l.173-.561.174-.677.867-.403v-1.886l-.607-.172-.174-1.325s.188-.69-.029-.806c-.202-.1-.563-.432-.563-.432s-.535-1.295-.838-.82c-.304.475-.116-.187-.68 0-.577.173-1.199.029-1.199.029s.145-.778-.49-.778H13.25s-.043.475-.534 0c-.492-.489.173-1.137-.492-.489l-.664.648-1.099.33-1.155.26-.535.518-.318.691-.55.317-.071.777z" fill="#629D1B"/><path d="M8.525 89.403l-.693.69.693.288-.491.98.491.373.636.62h1.113l.635 1.424.954.173.405.389.925.072 1.257.547s.563-.475 1.054 0c.477.475 1.503 0 1.503 0h.766l.42-.403c.606 0 2.21-.59 2.21-.59l.173-.576.174-.691.881-.403V90.38l-.621-.172-.174-1.339s.188-.69-.014-.806c-.217-.115-.578-.432-.578-.432s-.535-1.31-.838-.82c-.304.489-.116-.188-.694 0-.578.187-1.2.028-1.2.028s.145-.791-.505-.791h-3.251s-.043.49-.535 0c-.49-.49.188-1.152-.49-.49l-.68.662-1.113.331-1.185.245-.534.533-.318.705-.564.317.188 1.05z" fill="#6DA51C"/><path d="M8.439 87.733l-.68 1.08.578.402-.072.576.491.374.636.62h1.113l.636 1.424.953.173.39.389.94.072 1.242.547s.564-.475 1.055 0c.477.475 1.503 0 1.503 0h.78l.42-.403c.606 0 2.21-.59 2.21-.59l.173-.576.174-.691.881-.403v-1.915l-.621-.172-.174-1.34s.188-.69-.014-.805c-.217-.115-.578-.446-.578-.446s-.535-1.31-.838-.82c-.303.489-.116-.188-.694 0-.578.186-1.199.028-1.199.028s.145-.792-.506-.792h-3.251s-.043.49-.534 0c-.492-.49.187-1.151-.492-.49l-.679.663-1.113.331-1.199.274-.534.532-.318.705-.564.317-.115.936z" fill="#79AD1E"/><path d="M9.017 86.984l-.94.907h.94l-.477.907.477.346.606.575h1.07l.607 1.325.91.158.376.36.895.057 1.185.504s.55-.432.997 0c.463.432 1.445 0 1.445 0h.737l.39-.374c.578 0 2.11-.547 2.11-.547l.159-.533.159-.633.838-.374v-1.756l-.592-.159-.174-1.223s.188-.648-.014-.749c-.203-.1-.55-.403-.55-.403s-.52-1.209-.809-.763c-.289.447-.115-.172-.664 0-.55.173-1.142.03-1.142.03s.13-.735-.477-.735h-3.106s-.044.446-.52 0l-.448-.475-.636.605-1.07.302-1.112.245-.52.489-.304.648-.534.302.188.964z" fill="#6DA51C"/><path d="M9.826 86.092l-.81.777h.81l-.405.777.405.288.52.49h.925l.52 1.137.794.13.318.302.766.057 1.012.432s.462-.374.867 0c.39.374 1.242 0 1.242 0h.636l.347-.317c.491 0 1.82-.475 1.82-.475l.145-.46.145-.547.722-.317v-1.511l-.506-.13-.144-1.05s.144-.562-.015-.648c-.173-.087-.462-.346-.462-.346s-.448-1.036-.694-.662c-.26.389.232-.46-.23-.331-.478.144-.81 0-.81 0s-.404-.288-.925-.288h-3.121c-.665 0-.968.144-.968.144-.549.533 0 0 0 0l-.91-.057-.968.518-.448.417-.26.562-.463.244.145.864z" fill="#82C62B"/><path d="M10.664 85.588l-.665.633h.665l-.333.648.333.245.433.403h.752l.433.936.65.115.275.259.621.043.838.36s.376-.303.708 0c.318.302 1.012 0 1.012 0h.52l.274-.274c.405 0 1.489-.388 1.489-.388l.115-.375.116-.46.592-.26v-1.237l-.419-.115-.115-.864s.13-.46-.015-.533c-.144-.072-.39-.288-.39-.288s-.361-.849-.563-.532c-.203.317-.073-.115-.463 0s-.809.014-.809.014.087-.518-.347-.518h-2.196s.101-.072-.361 0c-.795.115-.622-.043-.622-.043-.447.432-.173.158-.173.158l-.737.202-.795.172-.36.346-.218.46-.375.202.13.691z" fill="#8ACE29"/><path d="M11.574 85.487l-.491.475h.491l-.246.475.246.187.318.303h.564l.317.69.477.087.203.187.462.029.607.259s.289-.23.52 0c.246.23.751 0 .751 0h.39l.203-.202c.303 0 1.098-.288 1.098-.288l.087-.273.086-.331.434-.202v-.907l-.304-.086-.086-.648s.1-.33-.015-.388c-.1-.058-.289-.216-.289-.216s-.26-.634-.419-.403c-.144.23-.058-.087-.347 0-.289.086-.592.014-.592.014s.072-.374-.246-.374h-1.618s-.029.23-.275 0c-.245-.23.087-.547-.245-.23l-.332.316-.564.159-.578.13-.26.244-.16.331-.274.158.087.504z" fill="#B0D933"/><path d="M12.875 85.459l-.29.273h.29l-.145.288.145.1.187.173h.333l.188.418.289.043.115.115.275.014.361.159s.173-.144.303 0c.145.13.448 0 .448 0h.231l.13-.115c.174 0 .65-.173.65-.173l.059-.158.043-.202.26-.115v-.547l-.188-.043-.058-.389s.058-.201 0-.23c-.072-.029-.173-.13-.173-.13s-.159-.374-.246-.244c-.086.144-.029-.058-.202 0-.173.057-.361.014-.361.014s.043-.23-.145-.23h-.968s-.014.144-.159 0c-.144-.144.058-.331-.144-.144l-.203.187-.317.1-.347.073-.16.158-.1.201-.16.087.059.317z" fill="#C1E52C"/><path d="M167.5 36.85s-.52 8.175 5.346 8.78c0 0 5.665.187 5.332-8.78H167.5z" fill="#563317"/><path d="M167.5 36.85s-.52 8.175 5.346 8.78c0 0 5.665.187 5.332-8.78H167.5z" fill="#051D36"/><path d="M176.618 34.676c2.095 1.209 2.095 3.152.014 4.361-2.08 1.195-5.462 1.195-7.542 0-2.096-1.209-2.11-3.152-.029-4.361 2.066-1.21 5.462-1.21 7.557 0z" fill="#472813"/><path d="M171.792 45.428c1.719-.892 2.89-2.764 2.89-4.937a5.694 5.694 0 00-1.286-3.627H167.5c0-.015-.448 7.14 4.292 8.564z" fill="#053D6B"/><path d="M176.618 34.676c2.095 1.209 2.095 3.152.014 4.361-2.08 1.195-5.462 1.195-7.542 0-2.096-1.209-2.11-3.152-.029-4.361 2.066-1.21 5.462-1.21 7.557 0z" fill="#351E0E"/><path d="M176.358 35.036c1.95 1.122 1.95 2.936.029 4.059-1.937 1.123-5.087 1.123-7.037 0-1.951-1.123-1.965-2.937-.029-4.06 1.936-1.122 5.086-1.122 7.037 0z" fill="#39B54A"/><path d="M172.485 35.496s-.592-7.01 3.671-8.507c0 0-3.772 2.145-3.107 8.507h-.564z" fill="#8DC63F"/><path d="M173.67 35.496s.593-7.01-3.67-8.507c0 0 3.771 2.145 3.092 8.507h.578z" fill="#009444"/><path d="M172.254 35.496s.593-7.01-3.67-8.507c0 0 3.771 2.145 3.092 8.507h.578z" fill="#009444"/><path d="M172.904 36.057s.593-7.01-3.67-8.507c0 0 3.771 2.13 3.092 8.507h.578z" fill="#39B54A"/><path d="M171.113 36.057s.592-7.01-3.671-8.507c0 0 3.772 2.13 3.107 8.507h.564z" fill="#009444"/><path d="M169.711 36.057s.592-7.01-3.67-8.507c0 0 3.771 2.13 3.106 8.507h.564z" fill="#009444"/><path d="M168.555 37.166s-2.298-6.65 1.474-9.14c0 0-3.136 2.994-.925 8.996l-.549.144z" fill="#8DC63F"/><path d="M172.269 37.756s-.593-7.01 3.67-8.507c0 0-3.772 2.145-3.093 8.507h-.577z" fill="#39B54A"/><path d="M173.511 37.756s-.592-7.01 3.67-8.507c0 0-3.771 2.145-3.092 8.507h-.578z" fill="#39B54A"/><path d="M173.453 37.756s.593-7.01-3.67-8.507c0 0 3.772 2.145 3.107 8.507h.563z" fill="#009444"/><path d="M172.037 37.756s.607-7.01-3.67-8.507c0 0 3.757 2.145 3.092 8.507h.578z" fill="#009444"/><path d="M170.737 37.756s-.593-7.01 3.67-8.507c0 0-3.757 2.145-3.092 8.507h-.578z" fill="#39B54A"/><path d="M171.98 37.756s-.593-7.01 3.67-8.507c0 0-3.757 2.145-3.107 8.507h-.563z" fill="#39B54A"/><path d="M176.213 36.85s.593-7.01-3.67-8.508c0 0 3.771 2.145 3.092 8.507h.578z" fill="#009444"/><path d="M174.812 36.85s.592-7.01-3.671-8.508c0 0 3.772 2.145 3.093 8.507h.578z" fill="#009444"/><path d="M173.511 36.85s-.592-7.01 3.67-8.508c0 0-3.771 2.145-3.092 8.507h-.578z" fill="#39B54A"/><path d="M174.739 36.85s-.592-7.01 3.671-8.508c0 0-3.772 2.145-3.093 8.507h-.578z" fill="#8DC63F"/><path d="M177.297 37.41s-.592-7.01 3.67-8.492c0 0-3.757 2.13-3.092 8.493h-.578z" fill="#39B54A"/><path d="M177.239 37.41s.593-7.01-3.67-8.492c0 0 3.771 2.13 3.092 8.493h.578z" fill="#009444"/><path d="M175.838 37.41s.592-7.01-3.671-8.492c0 0 3.772 2.13 3.093 8.493h.578z" fill="#009444"/><path d="M174.523 37.41s-.593-7.01 3.67-8.492c0 0-3.771 2.13-3.092 8.493h-.578z" fill="#39B54A"/><path d="M173.988 38.98s-.592-7.01 3.67-8.507c0 0-3.771 2.144-3.092 8.507h-.578z" fill="#39B54A"/><path d="M175.231 38.98s-.593-7.01 3.67-8.507c0 0-3.771 2.144-3.092 8.507h-.578z" fill="#39B54A"/><path d="M175.173 38.98s.592-7.01-3.67-8.507c0 0 3.771 2.144 3.092 8.507h.578z" fill="#009444"/><path d="M173.771 38.98s.593-7.01-3.67-8.507c0 0 3.771 2.144 3.092 8.507h.578z" fill="#009444"/><path d="M172.471 38.98s-.593-7.01 3.67-8.507c0 0-3.771 2.144-3.092 8.507h-.578z" fill="#39B54A"/><path d="M173.699 38.98s-.592-7.01 3.67-8.507c0 0-3.771 2.144-3.092 8.507h-.578zm-3.757-.763s-.592-7.01 3.67-8.507c0 0-3.771 2.13-3.092 8.507h-.578z" fill="#39B54A"/><path d="M171.17 38.217s-.592-7.01 3.671-8.507c0 0-3.757 2.13-3.093 8.507h-.578z" fill="#39B54A"/><path d="M171.113 38.217s.592-7.01-3.671-8.507c0 0 3.772 2.13 3.107 8.507h.564zm-2.182-.562s-1.474-6.88-5.983-7.082c0 0 4.234.95 5.434 7.24l.549-.158z" fill="#009444"/><path d="M168.41 38.217s-.592-7.01 3.671-8.507c0 0-3.772 2.13-3.093 8.507h-.578z" fill="#39B54A"/><path d="M169.639 38.217s-.593-7.01 3.67-8.507c0 0-3.772 2.13-3.107 8.507h-.563zm1.936 1.036s-.593-7.01 3.67-8.507c0 0-3.771 2.145-3.107 8.507h-.563z" fill="#39B54A"/><path d="M172.803 39.253s-.592-7.01 3.67-8.507c0 0-3.771 2.145-3.106 8.507h-.564z" fill="#39B54A"/><path d="M172.745 39.253s.593-7.01-3.67-8.507c0 0 3.772 2.145 3.107 8.507h.563z" fill="#009444"/><path d="M171.344 39.253s.592-7.01-3.67-8.507c0 0 3.771 2.145 3.106 8.507h.564z" fill="#009444"/><path d="M170.029 39.253s-.593-7.01 3.67-8.507c0 0-3.771 2.145-3.107 8.507h-.563z" fill="#8DC63F"/><path d="M171.271 39.253s-.592-7.01 3.671-8.507c0 0-3.772 2.145-3.093 8.507h-.578zm4.263-1.036s-.592-7.01 3.67-8.507c0 0-3.771 2.13-3.106 8.507h-.564z" fill="#39B54A"/><path d="M176.054 37.8s2.24-6.665 6.748-6.349c0 0-4.306.475-6.227 6.578l-.521-.23z" fill="#8DC63F"/><path d="M176.705 38.217s.592-7.01-3.671-8.507c0 0 3.757 2.13 3.093 8.507h.578z" fill="#009444"/><path d="M175.303 38.217s.592-7.01-3.67-8.507c0 0 3.771 2.13 3.092 8.507h.578z" fill="#009444"/><path d="M173.988 38.217s-.592-7.01 3.67-8.507c0 0-3.771 2.13-3.092 8.507h-.578z" fill="#39B54A"/><path d="M175.231 38.217s-.593-7.01 3.67-8.507c0 0-3.771 2.13-3.092 8.507h-.578z" fill="#39B54A"/><path d="M169.711 38.447s.592-7.01-3.67-8.507c0 0 3.771 2.145 3.106 8.507h.564zm4.277 1.065s.593-7.01-3.67-8.492c0 0 3.771 2.13 3.092 8.492h.578z" fill="#009444"/><path d="M172.745 39.512s.593-7.01-3.67-8.492c0 0 3.772 2.13 3.107 8.492h.563z" fill="#009444"/><path d="M63.29 59.175L42.987 47.5l9.305-5.167 20.302 11.673-9.306 5.168z" fill="#BDC3C7"/><path d="M42.988 47.026v.475l.563.1.42-.46-.983-.115zm29.607 6.506v.475l-.68-.158.68-.317z" fill="#BCBEC0"/><path d="M63.29 58.7L42.987 47.026l9.305-5.168 20.302 11.674-9.306 5.168z" fill="#EAEAF4"/><path d="M52.944 43.686a.04.04 0 010 .072l-.65.375a.2.2 0 01-.13 0l-1.2-.691c-.029-.015-.044-.058 0-.072l.665-.375a.16.16 0 01.115 0l1.2.691zm1.329.764a.04.04 0 010 .071l-.665.375a.16.16 0 01-.115 0l-.969-.562c-.029-.014-.043-.057 0-.072l.65-.374a.2.2 0 01.13 0l.969.561zm1.315.777c.029.014.043.057 0 .071l-.65.375a.2.2 0 01-.13 0l-.969-.562c-.029-.014-.043-.057 0-.072l.65-.374a.2.2 0 01.13 0l.969.562zm1.329.763a.04.04 0 010 .071l-.665.375a.16.16 0 01-.115 0l-.968-.562c-.03-.014-.03-.043 0-.072l.65-.374a.16.16 0 01.116 0l.982.561zm1.315.762c.043.015.043.058 0 .072l-.665.375a.16.16 0 01-.115 0l-.968-.562c-.03-.014-.044-.057 0-.072l.664-.374a.16.16 0 01.116 0l.968.561zm1.315.778c.029.014.043.057 0 .072l-.65.374a.2.2 0 01-.13 0l-.968-.576a.04.04 0 010-.072l.65-.374a.16.16 0 01.116 0l.982.576zm1.315.762c.029.03.029.058 0 .072l-.65.375a.16.16 0 01-.116 0l-.968-.562c-.029-.029-.029-.057 0-.072l.65-.374a.16.16 0 01.116 0l.968.561zm1.315.778c.029.014.043.057 0 .072l-.65.374a.2.2 0 01-.13 0l-.954-.576c-.029-.029-.043-.057 0-.072l.65-.374a.161.161 0 01.116 0l.968.576zm1.329.763c.03.029.044.057 0 .072l-.65.374c-.029.029-.087.014-.116 0l-.968-.562a.04.04 0 010-.072l.65-.374a.16.16 0 01.116 0l.968.562zm1.315.763c.029.028.044.057 0 .072l-.65.374a.16.16 0 01-.116 0l-.968-.562c-.029-.014-.043-.043 0-.072l.665-.374a.16.16 0 01.115 0l.954.562zm1.315.762c.029.015.043.058 0 .072l-.65.389a.16.16 0 01-.116 0l-.968-.561c-.029-.015-.043-.058 0-.072l.665-.375a.16.16 0 01.115 0l.954.547zm1.315.778c.029.028.043.057 0 .072l-.665.374a.16.16 0 01-.115 0l-.968-.562a.04.04 0 010-.072l.65-.374a.2.2 0 01.13 0l.968.562zm1.329.763c.03.028.044.057 0 .072l-.664.374a.16.16 0 01-.116 0l-.968-.562c-.029-.014-.043-.057 0-.072l.65-.374a.16.16 0 01.116 0l.982.562zm1.445.849c.03.014.044.057 0 .072l-.65.374a.2.2 0 01-.13 0l-1.214-.705c-.029-.015-.043-.058 0-.072l.65-.375a.16.16 0 01.116 0l1.228.706zm-18.25-9.515c.03.015.044.058 0 .072l-.881.504a.16.16 0 01-.116 0l-1.199-.69c-.029-.015-.043-.058 0-.073l.881-.504c.03-.028.087-.014.116 0l1.2.691zm1.345.777c.028.015.043.058 0 .073l-.882.503a.16.16 0 01-.116 0l-.982-.575c-.03-.015-.044-.058 0-.072l.881-.504a.16.16 0 01.116 0l.982.576zm1.329.792c.029.015.043.058 0 .072l-.882.504c-.029.029-.087.014-.115 0l-.983-.576a.04.04 0 010-.072l.881-.503a.16.16 0 01.116 0l.983.575zm1.343.763c.03.03.03.058 0 .072l-.881.504a.16.16 0 01-.116 0l-.982-.576c-.03-.014-.044-.057 0-.072l.881-.503a.2.2 0 01.13 0l.968.575zm1.33.792c.029.014.043.043 0 .072l-.882.504a.16.16 0 01-.115 0l-.983-.576a.04.04 0 010-.072l.882-.504a.16.16 0 01.115 0l.983.576zm1.344.777a.04.04 0 010 .072l-.882.504a.2.2 0 01-.13 0l-.983-.576c-.028-.014-.043-.043 0-.072l.882-.504c.029-.028.087-.014.116 0l.997.576zm1.329.777c.029.015.043.058 0 .072l-.881.504a.16.16 0 01-.116 0l-.983-.576a.04.04 0 010-.072l.882-.503a.161.161 0 01.115 0l.983.575zm1.344.778c.029.028.043.057 0 .072l-.882.503a.16.16 0 01-.115 0l-.983-.575c-.043-.015-.043-.044 0-.072l.882-.504a.161.161 0 01.115 0l.983.576zm1.329.777a.04.04 0 010 .072l-.881.504a.16.16 0 01-.116 0l-.983-.576c-.028-.014-.043-.043 0-.072l.882-.504a.16.16 0 01.115 0l.983.576zm1.344.777c.029.015.043.058 0 .072l-.881.504a.16.16 0 01-.116 0l-.983-.576a.04.04 0 010-.072l.882-.504a.16.16 0 01.115 0l.983.576zm1.329.777c.044.015.044.058 0 .073l-.881.503a.088.088 0 01-.116 0l-.982-.575c-.03-.015-.044-.058 0-.072l.881-.504a.16.16 0 01.116 0l.982.576zm1.344.778c.029.014.043.057 0 .072l-.881.504a.2.2 0 01-.13 0l-.983-.576c-.043-.015-.043-.058 0-.072l.882-.504a.16.16 0 01.115 0l.997.576zm-15.663-7.744c.029.014.043.057 0 .072l-.882.504a.16.16 0 01-.115 0l-1.43-.835c-.03-.015-.044-.058 0-.072l.88-.504a.088.088 0 01.116 0l1.43.835zm1.358.792c.029.014.043.043 0 .072l-.881.503a.16.16 0 01-.116 0l-.983-.575c-.043-.015-.043-.058 0-.072l.882-.504a.16.16 0 01.116 0l.982.576zm-2.269.043a.04.04 0 010 .072l-.881.504a.16.16 0 01-.116 0l-1.69-.994c-.03-.028-.03-.057 0-.072l.881-.503a.16.16 0 01.116 0l1.69.993zm3.613.734c.029.014.043.057 0 .057l-.882.504c-.029.029-.086.015-.115 0l-.983-.576c-.029-.028-.029-.057 0-.072l.882-.504a.2.2 0 01.13 0l.968.59zm1.329.777a.04.04 0 010 .072l-.881.504a.16.16 0 01-.116 0l-.982-.576c-.03-.014-.044-.057 0-.072l.881-.504a.2.2 0 01.13 0l.968.576zm1.344.777c.029.015.043.058 0 .072l-.881.504a.201.201 0 01-.13 0l-.983-.561c-.029-.029-.029-.058 0-.072l.881-.504a.16.16 0 01.116 0l.997.561zm1.329.778c.044.014.044.057 0 .072l-.881.503a.16.16 0 01-.116 0l-.982-.575a.04.04 0 010-.072l.881-.504c.03-.029.087-.029.13 0l.968.576zm1.344.777c.03.014.044.057 0 .072l-.881.504c-.03.028-.087.014-.116 0l-.982-.576c-.03-.015-.044-.058 0-.072l.881-.504a.16.16 0 01.116 0l.982.576zm1.33.778c.043.014.043.057 0 .071l-.882.504a.16.16 0 01-.115 0l-.983-.576a.04.04 0 010-.072l.881-.504a.16.16 0 01.116 0l.983.576zm1.343.776c.03.015.044.058 0 .072l-.881.504a.16.16 0 01-.116 0l-.982-.576c-.044-.014-.044-.057 0-.072l.881-.503a.201.201 0 01.13 0l.968.575zm1.344.778c.03.028.03.057 0 .072l-.881.503a.16.16 0 01-.116 0l-.982-.561a.04.04 0 010-.072l.881-.504a.16.16 0 01.116 0l.982.562zm1.33.777c.028.014.043.057 0 .072l-.882.504a.088.088 0 01-.115 0l-.983-.576c-.029-.014-.029-.043 0-.072l.881-.504a.16.16 0 01.116 0l.983.576zm1.343.777a.04.04 0 010 .072l-.881.504a.16.16 0 01-.116 0l-.982-.576c-.044-.029-.044-.057-.015-.072l.882-.504a.16.16 0 01.115 0l.997.576zm-14.305-6.952c.03.029.044.058 0 .072l-.881.504a.16.16 0 01-.116 0l-.982-.576a.04.04 0 010-.072l.881-.504a.16.16 0 01.116 0l.982.576zm1.345.777c.028.015.042.043 0 .072l-.882.504a.16.16 0 01-.116 0l-.983-.576c-.028-.014-.043-.057 0-.072l.882-.504a.2.2 0 01.13 0l.968.576zm1.329.777c.028.015.043.058 0 .073l-.882.503a.16.16 0 01-.116 0l-.982-.575a.04.04 0 010-.072l.881-.504a.16.16 0 01.116 0l.983.576zm1.343.778a.04.04 0 010 .072l-.881.504a.16.16 0 01-.116 0l-.982-.576c-.03-.015-.03-.043 0-.072l.881-.504a.16.16 0 01.116 0l.982.576zm1.33.777a.04.04 0 010 .072l-.882.504a.16.16 0 01-.116 0l-.982-.576c-.029-.014-.029-.057 0-.072l.881-.504a.16.16 0 01.116 0l.983.576zm1.343.777c.03.015.044.058 0 .058l-.881.504a.16.16 0 01-.116 0l-.982-.576c-.03-.014-.044-.058 0-.072l.881-.504a.16.16 0 01.116 0l.982.59zm1.33.778a.04.04 0 010 .072l-.882.504a.16.16 0 01-.115 0l-.983-.576c-.029-.015-.043-.058 0-.072l.882-.504a.16.16 0 01.115 0l.983.576zm1.344.777c.029.014.043.057 0 .072l-.882.504a.16.16 0 01-.115 0l-.983-.576c-.029-.015-.029-.043 0-.072l.882-.504a.16.16 0 01.115 0l.983.576zm1.329.777c.029.015.043.058 0 .072l-.881.504a.16.16 0 01-.116 0l-.983-.576c-.029-.014-.029-.057 0-.072l.882-.503a.088.088 0 01.115 0l.983.575zm1.344.777a.04.04 0 010 .072l-.882.504a.16.16 0 01-.115 0l-.983-.576c-.029-.014-.043-.057 0-.072l.882-.503a.201.201 0 01.13 0l.968.575zm-14.753-7.24c.029.015.029.044 0 .072l-.882.504a.16.16 0 01-.115 0l-1.489-.864c-.029-.014-.029-.043 0-.072l.882-.503c.043-.03.087-.015.115 0l1.489.863zm1.344.792c.028.029.043.058 0 .072l-.882.504a.2.2 0 01-.13 0l-.983-.576c-.029-.014-.029-.058 0-.072l.882-.504a.16.16 0 01.116 0l.997.576zm1.329.777c.029.014.043.043 0 .072l-.881.504a.16.16 0 01-.116 0l-.983-.576a.04.04 0 010-.072l.882-.504a.16.16 0 01.115 0l.983.576zm1.344.777c.029.015.043.058 0 .072l-.882.504a.2.2 0 01-.13 0l-.982-.576a.04.04 0 010-.072l.881-.503a.16.16 0 01.116 0l.997.575zm1.329.778a.04.04 0 010 .072l-.881.504a.16.16 0 01-.116 0l-.983-.576a.04.04 0 010-.072l.882-.504a.161.161 0 01.115 0l.983.576zm1.344.777c.029.015.043.058 0 .072l-.882.504a.16.16 0 01-.115 0l-.983-.576a.04.04 0 010-.072l.882-.504a.16.16 0 01.115 0l.983.576zm1.329.778c.03.028.03.057 0 .071l-.881.504a.16.16 0 01-.116 0l-.982-.576c-.044-.028-.044-.057 0-.072l.881-.504a.2.2 0 01.13 0l.968.576zm1.344.777c.029.028.043.057 0 .072l-.881.503c-.03.03-.087.015-.116 0l-.982-.575c-.044-.015-.044-.058 0-.072l.88-.504a.16.16 0 01.117 0l.982.576zm1.329.777c.044.014.044.057 0 .072l-.881.504a.16.16 0 01-.116 0l-.982-.576c-.029-.014-.029-.058 0-.072l.881-.504a.16.16 0 01.116 0l.983.576zm1.344.792c.03.014.03.043 0 .072l-.881.504a.2.2 0 01-.13 0l-.983-.576c-.029-.03-.029-.058 0-.072l.882-.504a.16.16 0 01.115 0l.997.576zm1.344.777a.04.04 0 010 .072l-.896.504a.16.16 0 01-.115 0l-.983-.576a.04.04 0 010-.072l.881-.504a.16.16 0 01.116 0l.997.576zm7.138.072c.03.029.043.057 0 .072l-.881.504a.16.16 0 01-.116 0l-1.098-.634c-.029-.014-.087-.057-.116-.072l-.997-.59c-.029-.014-.043-.058 0-.072l.882-.504a.16.16 0 01.115 0l.997.576a.38.38 0 00.13.072l1.084.648zm-1.185.676c.03.015.044.058 0 .072l-.881.504c-.029.029-.087.015-.116 0l-.953-.561c-.044-.015-.087-.058-.13-.072l-.867-.504c-.03-.029-.044-.043 0-.072l.881-.504a.16.16 0 01.116 0l.881.504c.029.014.087.058.13.072l.94.561zm-1.184.677c.028.029.043.058 0 .072l-.882.504a.16.16 0 01-.116 0l-1.806-1.051a.38.38 0 00-.13-.072l-.433-.245c-.03-.014-.087-.057-.13-.072l-.434-.244c-.029-.015-.043-.058 0-.072l.882-.504a.16.16 0 01.115 0l.434.245c.029.014.086.057.13.072l.433.244c.03.015.087.058.13.072l1.806 1.051zM63.448 55c.03.014.044.058 0 .072l-.881.504a.16.16 0 01-.116 0L61.47 55a.04.04 0 010-.072l.881-.504a.16.16 0 01.116 0l.982.576zm2.269 1.325c.029.014.043.057 0 .071l-.881.504c-.03.029-.087.015-.116 0l-1.185-.69a.38.38 0 00-.13-.073l-.246-.144c-.029-.014-.086-.057-.13-.072l-.245-.143a.04.04 0 010-.072l.881-.504a.16.16 0 01.116 0l.245.144a.38.38 0 00.13.072l.246.144c.029.014.087.057.13.072l1.185.69zm-18.77-9.501c.029.015.029.058 0 .072l-.882.504a.16.16 0 01-.115 0l-.954-.547c-.029-.014-.043-.057 0-.072l.882-.504a.16.16 0 01.115 0l.954.547zm1.358.792c.03.029.03.057 0 .072l-.881.504a.16.16 0 01-.116 0l-.982-.576c-.03-.014-.044-.043 0-.072l.881-.504a.16.16 0 01.116 0l.982.576zm1.33.777c.029.015.043.043 0 .072l-.882.504a.16.16 0 01-.115 0l-.983-.576a.04.04 0 010-.072l.881-.504a.16.16 0 01.116 0l.983.576zm1.343.777c.03.015.044.058 0 .072l-.881.504a.16.16 0 01-.116 0L49 49.17a.04.04 0 010-.071l.881-.504a.16.16 0 01.116 0l.982.575zm8.237 4.808c.043.029.043.058.014.072l-.881.504a.2.2 0 01-.13 0l-7.933-4.62c-.03-.03-.043-.058-.015-.072l.882-.504a.2.2 0 01.13 0l7.933 4.62zm1.257.72a.04.04 0 010 .072l-.882.504a.16.16 0 01-.115 0l-.997-.576c-.03-.014-.044-.058 0-.072l.881-.504a.16.16 0 01.116 0l.997.576zm1.329.777c.029.029.029.058 0 .072l-.881.504a.2.2 0 01-.13 0l-.983-.576a.04.04 0 010-.072l.881-.503a.2.2 0 01.13 0l.983.575zm1.344.792c.029.014.043.043 0 .072l-.347.187a.2.2 0 01-.13 0l-.982-.576c-.03-.014-.044-.057 0-.072l.346-.201a.16.16 0 01.116 0l.997.59zm-.535.303c.03.028.03.057 0 .071l-.346.202a.16.16 0 01-.116 0l-.983-.576c-.029-.014-.029-.058 0-.072l.347-.202a.16.16 0 01.116 0l.982.576zm1.864.474c.03.03.03.058 0 .072l-.881.504a.16.16 0 01-.116 0l-.982-.576c-.03-.014-.044-.057 0-.072l.881-.503a.16.16 0 01.116 0l.982.575z" fill="#C5C5CC"/><path d="M27.238 20.468l1.3-1.007c-.014-.014-.043-.014-.058-.029l-1.3 1.008c.029 0 .043.014.058.028z" fill="#41445B"/><path d="M27.18 20.425l1.3-1.007c-.014 0-.043-.015-.058-.015l-1.3 1.008c.029 0 .043.014.058.014z" fill="#404259"/><path d="M27.122 20.41l1.3-1.007c-.014 0-.029-.014-.043-.014l-1.3 1.008c.014 0 .029 0 .043.014z" fill="#3E4157"/><path d="M27.079 20.396l1.3-1.007h-.029l-1.3 1.008h.029z" fill="#3D3F54"/><path d="M27.05 20.382l1.3-1.008h-.029l-1.3 1.008h.029z" fill="#3B3E52"/><path d="M27.02 20.382l1.301-1.008h-.029l-1.3 1.008h.029z" fill="#3A3C50"/><path d="M26.992 20.382l1.3-1.008h-.029l-1.3 1.008h.029z" fill="#383B4E"/><path d="M26.977 20.382l1.301-1.008h-.029l-1.3 1.008h.028z" fill="#37394C"/><path d="M26.949 20.382l1.3-1.008h-.014l-1.3 1.008h.014z" fill="#35374A"/><path d="M26.934 20.396l1.3-1.007h-.014l-1.3 1.008h.014z" fill="#343648"/><path d="M26.919 20.396l1.3-1.007c-.014 0-.014.014-.014.014l-1.3 1.008c0-.015 0-.015.014-.015z" fill="#323446"/><path d="M26.89 20.41l1.301-1.007h-.014l-1.3 1.007h.014z" fill="#313344"/><path d="M26.876 20.41l1.3-1.007-.014.014-1.286.993z" fill="#2F3142"/><path d="M59.243 57.217l1.301-1.008c.072-.057.101-.144.072-.288l-1.3 1.008c.014.144-.015.23-.073.288z" fill="#262836"/><path d="M59.316 56.929l1.3-1.008-3.063-19.288-1.3 1.008 3.063 19.288z" fill="#282937"/><path d="M55.631 36.792l1.3-1.008-28.393-16.323-1.3 1.008L55.63 36.791z" fill="#44475F"/><path d="M56.252 37.64l1.301-1.007c0-.029-.014-.057-.014-.086l-1.301 1.008c0 .028 0 .057.014.086z" fill="#262836"/><path d="M56.238 37.554l1.3-1.007c0-.015-.014-.043-.014-.058l-1.3 1.008c0 .029 0 .043.014.057z" fill="#282A38"/><path d="M56.21 37.497l1.3-1.008c0-.014-.015-.029-.015-.043l-1.3 1.008c0 .014.014.028.014.043z" fill="#292B3A"/><path d="M56.195 37.454l1.3-1.008c0-.014-.014-.029-.014-.043l-1.3 1.007c0 .015 0 .03.014.044z" fill="#2B2D3C"/><path d="M56.18 37.41l1.3-1.007c0-.015-.014-.029-.014-.043l-1.3 1.007c0 .015 0 .029.014.043z" fill="#2C2E3E"/><path d="M56.151 37.367l1.3-1.007c0-.015-.014-.029-.014-.043l-1.3 1.007c.014.015.014.029.014.043z" fill="#2E3040"/><path d="M56.137 37.339l1.3-1.008c0-.014-.014-.029-.014-.029l-1.3 1.008s.014.014.014.029z" fill="#2F3142"/><path d="M56.122 37.295l1.3-1.007c0-.015-.014-.029-.014-.043l-1.3 1.007c0 .029 0 .029.014.043z" fill="#313344"/><path d="M56.093 37.267l1.3-1.008-.028-.029-1.3 1.008c.029.014.029.014.029.029z" fill="#323446"/><path d="M56.079 37.238l1.3-1.008c0-.014-.014-.029-.014-.029l-1.3 1.008s0 .014.014.029z" fill="#343648"/><path d="M56.05 37.195l1.3-1.008c0-.014-.014-.029-.028-.029l-1.3 1.008.028.029z" fill="#35374A"/><path d="M56.036 37.166l1.3-1.008c0-.014-.014-.014-.029-.029l-1.3 1.008.029.029z" fill="#37394C"/><path d="M56.007 37.137l1.3-1.008c0-.014-.014-.028-.029-.028l-1.3 1.007c.014 0 .029.015.029.029z" fill="#383B4E"/><path d="M55.992 37.108l1.3-1.007-.028-.03-1.3 1.008.028.03z" fill="#3A3C50"/><path d="M55.964 37.065l1.3-1.008c-.015-.014-.015-.028-.029-.028l-1.3 1.007a.03.03 0 00.029.029z" fill="#3B3E52"/><path d="M55.934 37.05l1.301-1.007-.029-.029-1.3 1.008s.014 0 .029.029z" fill="#3D3F54"/><path d="M55.906 37.007l1.3-1.007-.029-.03-1.3 1.008.029.03z" fill="#3E4157"/><path d="M55.862 36.964l1.3-1.007-.043-.043-1.3 1.007.043.043z" fill="#404259"/><path d="M55.819 36.921l1.3-1.008a.55.55 0 00-.187-.13l-1.3 1.008c.057.03.13.087.187.13z" fill="#41445B"/><path d="M27.238 20.468c-.29-.172-.492-.057-.448.245l3.063 19.288c.043.303.318.677.621.85l28.394 16.323c.289.172.491.057.433-.245L56.238 37.64c-.043-.303-.318-.677-.621-.85l-28.38-16.323z" fill="#40445B"/><path d="M30.474 40.85c-.289-.172-.563-.546-.621-.849L26.79 20.713c-.044-.302.144-.417.448-.245l1.286.735 30.43 36.014-.086-.043L30.474 40.85z" fill="#333547"/><path d="M52.871 56.353v.979l-7.297 4.217v-.964l7.297-4.232z" fill="#BBBBC4"/><path d="M45.574 60.585v.965l-13.67-7.86v-.964l13.67 7.86z" fill="#9C9CA6"/><path d="M52.871 56.353l-7.297 4.232-13.67-7.86 7.298-4.231 13.67 7.86z" fill="#C5C5CC"/><path d="M34.896 43.168v-.173c0-.028 0-.072.014-.115v-.115c0-.043.015-.086.015-.13 0-.043.014-.086.014-.129v-.044c0-.028.015-.057.015-.1.014-.043.014-.086.029-.13.014-.028.014-.057.029-.086v-.014c0-.015 0-.015.014-.03a1.79 1.79 0 00.043-.143l.044-.13c0-.014.014-.014.014-.028 0-.015.014-.015.014-.03.015-.028.015-.057.03-.071.014-.043.028-.087.057-.144.015-.043.03-.072.044-.115v-.029c.014-.043.043-.086.057-.144.03-.043.044-.1.058-.144.015-.014.015-.029.015-.043.014-.014.014-.029.029-.043a.272.272 0 01.043-.072l.087-.173c.014-.014.014-.029.029-.043.014-.043.043-.072.057-.115a.312.312 0 01.072-.115c.015-.015.03-.044.044-.058.058-.1.115-.187.188-.288a.3.3 0 01.057-.086c.015-.015.03-.029.03-.043.028-.044.072-.101.1-.144l.087-.13a.3.3 0 00.058-.086c.014-.015.029-.044.058-.072a.2.2 0 00.043-.058c.044-.057.101-.115.145-.173l.043-.043.043-.043c.015-.029.044-.043.058-.072.058-.057.101-.115.145-.158.014-.015.029-.029.029-.043l.057-.058c.015-.029.044-.043.073-.072.057-.057.115-.115.173-.158l.014-.015a31.443 31.443 0 01.145-.144c.058-.057.116-.1.173-.158l.015-.014 1.98-1.656 7.903 4.578-1.98 1.655-.303.26-.029.028c-.1.086-.187.187-.274.273.014.03 0 .044 0 .058-.087.1-.173.187-.26.288-.015.014-.015.029-.03.029-.086.1-.158.201-.245.302a.2.2 0 00-.043.057c-.058.072-.116.159-.174.23a.713.713 0 01-.086.116c-.03.043-.058.1-.087.144-.058.086-.115.187-.173.273-.044.072-.087.13-.116.202a3.23 3.23 0 00-.217.417c0 .015 0 .015-.014.03a3.65 3.65 0 00-.159.345v.014l-.13.345v.015c-.043.115-.072.23-.101.33v.03c-.03.115-.058.216-.073.316v.015c-.028.1-.043.216-.043.316v.03c-.014.1-.014.2-.014.301v.015c0 .1 0 .187.014.288v.014l.043.274 2.182 9.6-7.904-4.577-2.196-9.6c0-.03-.014-.073-.014-.116 0-.043-.015-.072-.015-.115v-.101c0-.043 0-.072-.014-.1v-.116c-.03 0-.03-.029-.03-.043z" fill="#DADAE5"/><path d="M45.43 42.995c-1.749 1.469-2.905 3.858-2.572 5.34l2.181 9.602 1.2-1.008-2.182-9.6c-.202-.922.506-2.405 1.604-3.326l1.98-1.655-.232-1.022-1.98 1.67z" fill="#BBBBC4"/><path d="M112.057 66.444l.549.316 6.459-3.713-.549-.317-6.459 3.714z" fill="#C5C9CA"/><path d="M120.568 61.55l.534.316 7.095-4.073-.534-.317-7.095 4.074zm.953.561l.578.331 5.592-3.21-.592-.33-5.578 3.209z" fill="#F0F0F0"/><path d="M132.142 65.609l.549.302 4.783-2.75-.535-.301-4.797 2.749z" fill="#C5C9CA"/><path d="M139.714 63.94l-8.006 4.605-12.209-7.082 8.005-4.606 12.21 7.082zm-10.91 2.389l7.08-4.074-.578-.346-7.094 4.074.592.346zm.925-7.658l-6.502 3.742.621.36 6.502-3.742-.621-.36zm-8.627 3.195l7.095-4.073-.534-.317-7.095 4.074.534.316zm.997.576l5.592-3.21-.578-.33-5.577 3.21.563.33zm10.592 3.47l4.783-2.75-.535-.302-4.783 2.749.535.302zm-4.884-.16l4.61-2.648-.564-.33-4.609 2.648.563.33z" fill="#C9C9C9"/><path d="M123.227 62.413l.621.36 6.502-3.728-.621-.374-6.502 3.742zm4.031 3.009l.549.33 4.609-2.648-.563-.33-4.595 2.648z" fill="#F0F0F0"/><path d="M117.562 69.625l.506.302 5.332-3.066-.506-.302-5.332 3.066z" fill="#C5C9CA"/><path d="M122.923 71.222l.737.432 5.159-2.965-.752-.432-5.144 2.965z" fill="#F0F0F0"/><path d="M130.87 69.02l-7.672 4.42-12.21-7.068 7.672-4.405 12.21 7.053zm-16.111-1.007l6.459-3.714-.621-.36-6.459 3.714.621.36zm8.901 3.641l5.159-2.965-.752-.432-5.144 2.965.737.432zm-11.054-4.894l6.459-3.713-.535-.317-6.459 3.714.535.316zm4.335 2.52l6.17-3.542-.491-.288-6.17 3.541.491.288zm1.127.647l5.332-3.066-.506-.302-5.332 3.066.506.302zm2.977 1.727l6.459-3.713-.419-.245-6.459 3.714.419.244zm-1.575-8.363l-4.509 2.591.578.331 4.494-2.59-.563-.332z" fill="#C9C9C9"/><path d="M114.976 65.868l.578.345 4.494-2.59-.578-.332-4.494 2.577zm13.25.129l.578.332 7.095-4.074-.578-.346-7.095 4.088zm-14.088 1.656l.621.36 6.459-3.714-.621-.374-6.459 3.728z" fill="#F0F0F0"/><path d="M118.675 61.953l12.195 7.067.347-.201.491-.288-12.21-7.068-.823.49z" fill="#283032"/><path d="M116.45 68.991l.491.288 6.184-3.555-.505-.288-6.17 3.555z" fill="#C5C9CA"/><path d="M120.64 71.41l.405.244 6.459-3.713-.405-.245-6.459 3.714z" fill="#F0F0F0"/><path fill-rule="evenodd" clip-rule="evenodd" d="M91.437 45.874c-.766-.518-1.502-.662-2.6-.575l-10.708 4.246a13.899 13.899 0 00-2.138-.144c-1.648-.015-1.705.072-2.428.273-.607.159-1.517.82-.115.878.592.03.679-.144.78.216.115.389-1.95.504-2.702.562-.752.057-.694 1.338.058 1.929 1.199.964 2.181.863 3.063.72.795-.13 2.543-.39 4.277-1.7l11.95-2.086c1.286-.562 1.98-1.325 2.052-2.059.086-.863-.65-1.698-1.489-2.26z" fill="#F1B287"/><path d="M74.647 53.978c.795-.13 2.543-.388 4.277-1.698l11.95-2.087c.246-.115.462-.23.665-.36l-1.229-1.67s-10.317 3.21-11.805 3.44c-1.445.23-3.67 2.591-7.485.634.058.36.246.748.564 1.007 1.213.965 2.181.864 3.063.734z" fill="#E8A476"/><path d="M90.715 42.78c.361-2.735 2.11-15.042 4.277-16.74 1.546-1.21 5.664-2.75 5.39 4.85 0 0-1.402 12.005-5.043 15.949l-3.772 3.613s-3.092-1.655-3.554-5.081l2.702-2.591z" fill="#BEEFFC"/><path d="M100.382 30.904s-1.402 12.005-5.043 15.95l-3.772 3.612s-.91-.49-1.806-1.468v-.058l5.014-5.685c4.306-9.716 2.904-16.107 2.24-18.151 1.676-.331 3.554.59 3.367 5.8z" fill="#A5E4F2"/><path d="M15.345 37.166c1.503-4.42 5.491-5.672 17.586 6.42 0 0 3.93 4.16 4.696 4.303.751.144 7.89.95 11.56-.33 0 0 3.829-2.952 4.681-2.563.853.389-1.878 2.52-.607 3.512 0 0 2.934.62 4.855.389 3.367-.403 2.168 1.31 1.59 1.655-.564.346-5.708 3.009-10.043 1.728 0 0-13.886 2.749-16.458 1.05-2.572-1.67-19.146-12.393-17.86-16.164z" fill="#E8A476"/><path d="M49.649 52.294c4.35 1.281 9.479-1.382 10.042-1.727.188-.115.42-.36.564-.633-5.115 2.49-10.52.993-10.52.993s-11.444 1.194-13.582.979C34.014 51.69 17.6 40.116 17.6 40.116l-.708.577c4.046 4.706 14.305 11.342 16.284 12.638 2.587 1.698 16.473-1.037 16.473-1.037z" fill="#DB9669"/><path d="M15.158 37.425c-.058-1.483 1.907-4.65 5.375-3.527 0 0 5.375 1.627 11.17 7.773 0 0-2.385 7.197-6.33 7.226 0 0-10.042-6.377-10.215-11.472z" fill="#FFB319"/><path d="M15.158 37.425c.173 5.096 10.215 11.472 10.215 11.472 1.113-.014 2.11-.59 2.948-1.425-6.762-4.016-10.736-9.198-12.528-11.947-.433.676-.65 1.382-.635 1.9z" fill="#FFC242"/><path d="M33.71 134.715c.723.144 2.819 1.181 1.431 2.577-1.401 1.411-5.794 5.513-8.496 5.527l-1.835.015-1.503 1.986s-1.72 1.08-3.627.475c-1.358-.432-1.358-2.418-1.358-2.418l-.014-2.404c-.015 0 12.007-6.42 15.403-5.758z" fill="#222421"/><path d="M18.727 87.502s-.824 18.857.274 23.765c0 0-1.893 24.398-.549 29.825 0 0 5.072 2.102 5.13 1.209.65-11.558.087-24.24.058-28.299-.03-4.059 1.156-19.015 1.141-22.08 0-.015-3.164-2.044-6.054-4.42z" fill="#1D282D"/><path d="M23.25 90.885s-.954 20.31-.925 22.844c.014 2.533-.347 28.572-.347 28.572s-1.893-.547-2.789-.935c-.881-.375-.448-21.189.52-24.571.954-3.383-.058-7.457-.058-8.435 0-.979-1.314-18.9-.144-20.239l3.742 2.764z" fill="#212E33"/><path d="M33.84 135.104c.723.144 2.819 1.166 1.431 2.576-1.401 1.411-5.794 5.513-8.496 5.528l-1.835.014-1.503 2.001s-1.72 1.065-3.627.461c-1.358-.432-1.358-2.419-1.358-2.419l-.014-1.9c-.015 0 12.007-6.938 15.403-6.261z" fill="#222421"/><path d="M25.648 141.394s12.224-4.606 6.98-6.29c0 0-3.989.878-4.77 1.684 0 .014-.505 2.879-2.21 4.606z" fill="#2B2D29"/><path d="M15.75 80.823s.072 18.756 2.47 30.199c0 0-1.227 26.73.304 30.804 0 0 4.884 2.433 7.355-2.418 3.324-6.506-.448-21.289 1.879-32.33 2.326-11.054-.362-27.234-.376-29.278-.015-2.043-11.632 3.023-11.632 3.023z" fill="#001211"/><path opacity=".57" fill-rule="evenodd" clip-rule="evenodd" d="M15.75 80.823s1.59 27.795 2.456 30.156c0 0-1.098 23.477.232 30.386 0 0 .1 1.54 4.522.965 0 0 .347-22.786.318-27.939-.029-5.154 1.705-34.676 2.11-36.749l-9.638 3.181z" fill="#03252B"/><path d="M16.386 80.579l7.326-2.462c-.361 4.275-1.662 25.161-2.153 32.661-.607 9.457.693 30.343.708 31.552 0 0-2.673.532-3.743-.518-1.055-1.051.434-27.609.42-28.818 0-1.18-2.963-25.679-2.558-32.415z" fill="#042C30"/><path d="M34.231 138.688s-5.708 4.275-9.407 3.886l-1.676 1.958s-3.092 1.598-4.595-.518c0 0 .708 3.339 4.899 1.209l1.502-2.001s2.442.159 3.642-.46c1.17-.619 3.583-2.016 5.635-4.074z" fill="#151614"/><path d="M18.337 143.222s-.044 4.016 4.956 1.612l1.503-1.986 2.485-.014 2.066-.907-4.552.36s-1.719 1.741-2.051 2.072c-.333.317-3.483 1.267-4.407-1.137z" fill="#151614"/><path d="M45.227 141.351c.723.144 2.818 1.18 1.416 2.577-1.387 1.41-5.794 5.513-8.496 5.527l-1.835.014-1.503 1.987s-1.72 1.065-3.627.475c-1.358-.432-1.358-2.418-1.358-2.418l-.014-1.9s12.036-6.924 15.417-6.262z" fill="#222421"/><path d="M37.034 147.641s12.225-4.606 6.98-6.29c0 0-3.974.893-4.783 1.699.014 0-.477 2.864-2.197 4.591z" fill="#2B2D29"/><path d="M27.136 87.07s.073 18.742 2.471 30.2c0 0-1.213 26.744.304 30.818 0 0 4.884 2.432 7.355-2.419 3.309-6.506.317-25.261 2.644-36.316 2.326-11.055 0-24.93-.015-26.975-.014-2.044-12.759 4.693-12.759 4.693z" fill="#001211"/><path opacity=".57" fill-rule="evenodd" clip-rule="evenodd" d="M27.136 87.07s1.604 27.796 2.457 30.156c0 0-1.098 23.477.231 30.387 0 0 .101 1.54 4.523.978 0 0 .346-22.786.318-27.939-.03-5.153 1.705-34.675 2.11-36.748l-9.639 3.166z" fill="#03252B"/><path opacity=".57" d="M27.772 86.826l7.326-2.461c-.361 4.275-1.662 25.175-2.139 32.674-.606 9.457.694 30.343.694 31.552 0 0-2.673.533-3.742-.518-1.07-1.036.433-27.608.419-28.817 0-1.195-2.962-25.694-2.558-32.43z" fill="#042C30"/><path d="M45.617 144.935s-5.707 4.275-9.406 3.872l-1.676 1.958s-3.093 1.598-4.595-.504c0 0 .693 3.34 4.884 1.209l1.502-1.986s2.428.158 3.642-.461c1.184-.633 3.612-2.029 5.65-4.088z" fill="#151614"/><path d="M32.844 38.548s6.358 2.504 7.918 5.743c1.56 3.253-.78 21.044-.765 24.11.014 3.066 1.676 16.683 1.69 18.54.015 1.857-4.898 5.34-8.482 5.355 0 0-11.935 3.454-18.524-9.601 0 0-.737-6.766 1.445-19.605 0 0-.983-17.532-1.662-22.038-.376-2.519.636-11.702 8.785-6.664l4.523 2.879 5.072 1.28z" fill="#D7D5D6"/><path d="M32.844 38.548s6.358 2.504 7.918 5.743c1.56 3.253-.78 21.044-.765 24.11.014 3.066 1.676 16.683 1.69 18.54.015 1.857-4.898 5.34-8.482 5.355 0 0-11.935 3.454-18.524-9.601 0 0-.737-6.766 1.445-19.605 0 0-.983-17.532-1.662-22.038-.376-2.519.636-11.702 8.785-6.664l4.523 2.879 5.072 1.28z" fill="#FD8E95"/><path d="M37.323 91.158s.68-4.735.694-9.543c0 0 1.141 8.176 1.994 9.025.867.835-2.688.518-2.688.518z" fill="#001211"/><path d="M32.844 38.548s6.358 2.504 7.918 5.743c1.56 3.253-.78 21.044-.766 24.11.015 3.066 1.677 16.683 1.691 18.54.015 1.843-4.87 5.311-8.438 5.355-.217-4.146-.477-9.961-.492-13.3-.043-5.571.954-18.612 1.879-23.55.924-4.937-1.56-8.233-3.685-9.759-8.554-6.146-9.797-9.14-9.797-9.14l4.393-.705 2.254 1.425 5.043 1.28z" fill="#F67F88"/><path d="M31.486 33.567s-1.604 3.613.476 5.384c.954.82-6.79.763-10.461-2.26 0 0 2.991-2.75.491-6.406l9.494 3.282z" fill="#E8A476"/><path d="M31.283 37.108s-3.337 2.965-8.12-1.727l.419-1.555.1-.878 2.37-8.406s1.46 6.017 2.616 7.7c.491.72 2.673 2.232 2.673 2.232s-.477 1.238-.058 2.634z" fill="#E8A476"/><path d="M32.05 39.383s-2.342-2.62-8.974-5.744l8.54.576c-.015 0-1.113 2.893.433 5.167z" fill="#DB9669"/><path d="M33.884 18.856s2.197 2.822 1.965 4.606c-.072.62-.303 2.246-.26 2.894.044.662.434.993.463 1.554.029.562-.723 6.233-2.775 6.363-2.066.13-4.797 2.547-11.155-3.038 0 0-4.84-5.7-1.286-11.774.015-.014 4.595-6.218 13.048-.605z" fill="#F1B287"/><path d="M35.633 22.383s-1.17 1.727-1.156 2.95c.014 1.224.664 3.196.029 3.844-.65.648-1.72 1.037-2.226 2.26-.274.633-.823 1.555-.809 3.224 0 0-3.916 1.18-4.87-.777l.767-7.024 2.225-4.794 6.01.245.03.072z" fill="#E8A476"/><path d="M19.29 23.405c-.058 2.605 2.457 8.953 4.22 10.623.722.69 2.976 1.353 4.32.662 2.572-1.339-.578-5.945 2.789-7.024 1.416-.447 2.37.978 2.37 1.842 0 0 1.719-1.497.592-3.454-.463-.792-.838-2.361.549-3.714.766-.749.968-.518 1.46-.058.476.46 1.386-3.066-1.316-4.635-4.363-2.533-14.767-3.872-14.984 5.758z" fill="#3F210A"/><path fill-rule="evenodd" clip-rule="evenodd" d="M29.073 29.148s-7.182 2.807-9.494-3.641c0 0 1.633 8.78 5.664 9.313 0 0 4.104 1.425 3.685-3.08l.145-2.592z" fill="#361D07"/><path fill-rule="evenodd" clip-rule="evenodd" d="M33.58 23.146S22.398 25.032 19.638 20.9c0 0 .043-.59.506-1.396 0 .014.332 5.484 13.438 3.642z" fill="#301808"/><path fill-rule="evenodd" clip-rule="evenodd" d="M22.44 22.44c2.399 1.354 9.378 1.411 12.326.404 2.398-.82 1.95-3.383.144-4.736.145.964 2.92 3.872-2.99 4.246-.189.015.722-.734 1.01-1.166 0 0-3.077 1.915-3.915.965-.174-.202.159-.59.491-.936-.607.086-2.413 1.008-2.933.749-.55-.26 1.112-1.469 1.112-1.469s-3.25 1.454-3.742.749c-.13-.187.217-.59.55-.777-1.663-.116-3.83.33-4.278-.648 0 .072 0-.072 0 0 .043.734.968 1.9 2.225 2.62z" fill="#301808"/><path d="M33.176 24.01s-9.32 3.425-13.886-.274c0 0-.245-.662.332-2.821 0 0 2.24 3.93 13.858 2.26l-.304.834z" fill="#4F2B0C"/><path d="M33.176 24.01s-10.36 1.425-13.828-1.613c0 0-.072 1.051-.029 1.67.13 1.67.853 2.274 1.893 2.836 0 0-1.127-.95-.39-2 0 0 .303 1.813 1.416 2.187 0 0-.361-.864.101-1.195 0 0 .636 1.483 1.46 1.598 0 0-1.07-1.684-.448-2.16 0 0 .13 2.06 1.95 2.347 0 0-.737-1.008 0-1.554 0 0 .55 1.554 1.647 1.554 0 0-.476-1.209-.202-1.756 0 0 .506 1.224 1.489 1.454 0 0-.434-1.224.014-1.67 0 0 .462 1.21 2.08 1.425 0 0-1.256-1.41-.317-2.145.491-.388 3.164-.978 3.164-.978z" fill="#4F2B0C"/><path d="M21.01 18.209s2.832-4.117 10.967-1.57c0 0-2.644-.057-3.685-.043-1.04 0 .838.605 1.806.82.969.217-2.846-.143-4.132-.129-1.3.015-3.57.46-1.965.691 1.59.216-2.717-.043-2.991.23z" fill="#4C260C"/><path d="M32.165 38.908s-8.684 1.036-10.505-2.994c0 0-1.85.633-.217 1.928 1.647 1.282 11.675 4.434 10.722 1.066z" fill="#D7D5D6"/><path d="M31.847 36.791l1.271 3.24s-4.335 3.281-10.346-.677c-.953-.634-3.554-1.641-.303-4.664-.014.014 2.08 5.11 9.378 2.102z" fill="#E9F6FA"/><path d="M22.455 34.273s-4.523 2.547.953 5.959c0 0 3.41 2.015 7.5.763 0 0-4.899-.85-4.537-3.34 0-.014-2.92-.892-3.916-3.383z" fill="#DAEDF2"/><path d="M14.594 83.083s-.737-6.765 1.445-19.605c0 0-.997-17.532-1.676-22.037-.188-1.252-.03-4.174 1.185-6.16 1.416 1.914 2.615 5.7 5.086 8.118 2.745 2.691 8.944 2.49 10.794 6.88 1.864 4.405-3.31 17.834-4.942 25.507-1.3 6.146.853 13.904 1.272 16.812-4.292-.432-9.797-2.836-13.164-9.515z" fill="#FFA8AE"/><path d="M33.884 45.04c3.18-3.412 7.34-2.937 13.41 13.026 0 0 1.878 5.398 2.514 5.83.636.446 6.806 4.074 10.693 4.405 0 0 4.696-1.138 5.317-.432.621.69-2.745 1.526-1.994 2.965 0 0 2.427 1.756 4.277 2.332 3.237 1.008 1.445 2.073.78 2.159-.664.086-6.444.432-9.883-2.505 0 0-13.8-3.152-15.447-5.743-1.662-2.59-12.383-19.13-9.667-22.037z" fill="#E8A476"/><path d="M58.998 72.806c3.439 2.937 9.219 2.591 9.883 2.505.217-.03.535-.159.766-.346-5.693.187-9.999-3.368-9.999-3.368S48.71 68.042 46.86 66.962c-1.864-1.08-12.094-18.31-12.094-18.31l-.882.245c1.763 5.945 8.395 16.18 9.667 18.166 1.647 2.59 15.447 5.743 15.447 5.743z" fill="#DB9669"/><path d="M33.61 45.198c.563-1.382 3.656-3.47 6.358-1.037 0 0 4.233 3.671 7.008 11.645 0 0-5.13 5.6-8.742 4.016-.015 0-6.56-9.917-4.624-14.624z" fill="#FD8E95"/><path d="M33.61 45.198c-1.936 4.721 4.61 14.624 4.61 14.624 1.025.447 2.167.317 3.28-.086-4.523-6.434-6.026-12.768-6.532-16.006-.665.432-1.156.993-1.358 1.468z" fill="#FFA8AE"/></svg>