<svg width="108" height="174" fill="none" xmlns="http://www.w3.org/2000/svg"><path d="M61.038 170.193l-.293-.948c.158-.045 13.526-4.401 19.826-14.602-3.816-.316-7-1.376-9.552-2.911-5.352-.587-9.755-2.415-11.81-5.236-1.4-1.918-1.49-4.084-.248-6.251 1.22-2.121 3.274-3.678 5.668-4.626 1.829-4.198 6.526-7.628 14.497-7.696h.339c11.02 0 15.536 5.326 16.033 9.907.564 5.078-3.387 11.171-12.036 13.157a27.484 27.484 0 01-1.22 2.754h.046c13.842.338 21.791-4.875 23.597-10.133 1.31-3.859-.496-7.921-4.945-11.194-2.439-1.783-5.239-3.204-8.197-4.716-6.933-3.521-14.091-7.154-17.93-16.024-3.794-8.801-.79-30.872 8.92-65.581 4.042-14.466.067-23.832.022-23.922l.904-.406c.18.383 4.177 9.749.022 24.599-12.036 42.968-11.516 59.037-8.965 64.927 3.681 8.53 10.681 12.096 17.456 15.526 3.003 1.512 5.826 2.957 8.333 4.785 4.832 3.543 6.751 8.011 5.306 12.299-1.897 5.62-10.252 11.149-24.546 10.81-.18 0-.384 0-.565-.022-6.435 10.9-20.504 15.458-20.662 15.504zm12.443-18.258c2.168.948 4.72 1.603 7.632 1.783.43-.79.836-1.602 1.175-2.46-3.004.564-6.007.79-8.807.677zm-2.19-1.151c3.386.361 7.27.226 11.38-.632 2.078-6.183.317-11.08-4.877-13.45-3.59-1.647-8.49-1.783-12.42-.338a10.222 10.222 0 00-.7 3.565c-.023 3.972 2.258 8.147 6.616 10.855zm-7.16-13.901c-1.85.88-3.386 2.189-4.357 3.881-1.04 1.828-.971 3.566.203 5.168 1.49 2.031 4.787 3.724 9.168 4.536-3.613-2.866-5.465-6.793-5.442-10.561 0-1.016.135-2.031.429-3.024zm7.114-2.483c2.462 0 4.9.474 6.955 1.399 5.555 2.551 7.565 7.651 5.6 14.083 7.678-1.986 11.201-7.425 10.704-11.939-.474-4.197-4.697-9.027-15.062-9.027h-.316c-6.932.068-11.223 2.776-13.165 6.251 1.671-.519 3.5-.767 5.284-.767z" fill="#593D3D"/><path d="M62.867 170.892c0-1.467-.903-3.182-1.987-3.814-.497-.293-.948-.293-1.287-.09l-1.039.587.339.767c0 .09-.023.181-.023.271 0 1.399.813 2.979 1.852 3.678l.384.835 1.061-.586c.43-.271.7-.835.7-1.648z" fill="#352221"/><path d="M57.809 169.177c0 1.467.903 3.182 1.987 3.814 1.107.632 1.987-.045 1.987-1.512s-.903-3.182-1.987-3.814c-1.084-.632-1.987.045-1.987 1.512z" fill="#472F2E"/><path d="M57.922 169.764c0 1.106.678 2.369 1.49 2.866.836.474 1.49-.023 1.49-1.129 0-1.105-.677-2.369-1.49-2.866-.813-.496-1.49.023-1.49 1.129z" fill="#5B3D3D"/><path d="M58.735 170.035c0-.181-.113-.407-.248-.474-.046-.023-.09-.045-.136-.023l-2.394 1.377c-.18.113-.248.338-.135.519.113.18.339.248.52.135l2.325-1.354a.27.27 0 00.068-.18zm1.377 1.376c0-.18-.112-.406-.248-.474-.045-.022-.09-.045-.135-.022l-2.394 1.376c-.18.113-.248.339-.136.519.113.181.34.249.52.136l2.326-1.354a.275.275 0 00.067-.181z" fill="#EDDDDD"/><path d="M0 110.817v15.459c0 8.169 12.443 14.782 27.798 14.782 15.356 0 27.798-6.613 27.798-14.782v-15.459H0z" fill="#352221"/><path d="M27.798 134.671C12.443 134.671 0 128.059 0 119.889v2.302c0 8.17 12.443 14.782 27.798 14.782 15.356 0 27.798-6.612 27.798-14.782v-2.302c0 8.17-12.442 14.782-27.798 14.782z" fill="#1798CF"/><path d="M86.013 20.05s-2.89 8.327-6.91 16.948c-4.042 8.598-10.839 11.735-21.136 7.131-10.297-4.603 10.93-34.46 10.93-34.46l17.116 10.38z" fill="#352221"/><path d="M27.798 96.712C12.443 96.712 0 103.324 0 111.494c0 8.169 12.443 14.782 27.798 14.782 15.356 0 27.798-6.613 27.798-14.782 0-8.147-12.442-14.782-27.798-14.782z" fill="#472F2E"/><path d="M51.6 104.746c-2.733-5.642-12.353-9.794-23.802-9.794S6.73 99.127 3.997 104.746h-.813v3.272c0 7.222 11.02 13.09 24.614 13.09 13.594 0 24.614-5.868 24.614-13.09v-3.272H51.6z" fill="#1798CF"/><path d="M27.798 91.34c-13.594 0-24.614 5.868-24.614 13.09 0 7.222 11.02 13.089 24.614 13.089 13.594 0 24.614-5.867 24.614-13.089s-11.02-13.09-24.614-13.09z" fill="#4DBAF2"/><path d="M16.53 101.79c-3.546-2.031-5.194-3.814-5.172-5.62 0-2.053 2.123-3.475 3.952-4.513 1.671-.925 3.636-1.783 5.578-2.64 3.026-1.332 6.165-2.686 7.79-4.22 3.207-2.98 3.636-4.198 4.743-9.614 1.58-7.877 8.716-8.689 8.807-8.712l.158 1.467c-.249.023-6.143.745-7.497 7.515-1.13 5.642-1.694 7.177-5.172 10.404-1.806 1.693-4.922 3.047-8.197 4.491-1.897.813-3.839 1.67-5.442 2.573-2.145 1.196-3.184 2.257-3.184 3.227 0 .835.768 2.257 4.426 4.333l-.79 1.309z" fill="#fff"/><path d="M43.425 133.723c0-4.401 2.664-9.501 5.961-11.397.836-.474 1.83-.722 2.597-.722.61 0 2.19.068 3.816 1.061 1.875 1.151 2.123 3.791 2.123 3.791l-6.707 13.767s-2.168 1.06-4.38-.158c-1.378-.745-2.214-2.009-2.598-2.686a9.26 9.26 0 01-.496-1.151 9.948 9.948 0 01-.316-2.505z" fill="#281818"/><path d="M58.102 128.397c0 4.401-2.664 9.501-5.961 11.397-3.297 1.895-5.962-.113-5.962-4.514s2.665-9.501 5.962-11.397c3.274-1.895 5.962.136 5.962 4.514z" fill="#3F2A28"/><path d="M57.403 128.984c0 3.881-2.349 8.372-5.262 10.065-2.913 1.67-5.261-.113-5.261-3.972 0-3.882 2.348-8.373 5.261-10.065 2.89-1.693 5.262.09 5.262 3.972z" fill="#1798CF"/><path d="M55.912 130.518c0 1.919-1.174 4.153-2.62 4.988-1.445.835-2.619-.045-2.619-1.964 0-1.918 1.174-4.152 2.62-4.987 1.468-.835 2.62.045 2.62 1.963z" fill="#fff"/><path d="M54.117 44.269l-21.381 49.55 8.212 3.54 21.38-49.551-8.211-3.54z" fill="#352221"/><path d="M46.857 100.255L25.9 112.374l-14.43-8.463L32.405 91.77l14.452 8.485z" fill="#352221"/><path d="M13.797 96.915c-1.874 1.286-2.348 4.739-2.348 6.996 2.348 0 10.071-2.753 10.071-2.753l-1.31-3.115-6.413-1.128z" fill="#352221"/><path d="M46.857 94.59l-3.523 5.01-15.084 5.778-14.453-8.463 18.608-10.787 14.452 8.463z" fill="#543A3A"/><path d="M46.857 94.59s.655.61.655 2.528v2.731l-5.262 3.069 1.445-4.536 3.162-3.791z" fill="#472F2E"/><path d="M46.857 94.59s-16.643 9.705-18.607 10.788c-1.965 1.083-2.349 4.694-2.349 6.996 3.252-1.873 21.61-12.525 21.61-12.525l-.654-5.258z" fill="#472F2E"/><path d="M22.491 89.4v5.552c0 2.55 3.884 4.603 8.672 4.603 4.787 0 8.671-2.053 8.671-4.603V89.4H22.491z" fill="#1798CF"/><path d="M31.163 84.796c-4.788 0-8.672 2.054-8.672 4.604 0 2.55 3.884 4.604 8.672 4.604 4.787 0 8.671-2.054 8.671-4.604.023-2.55-3.861-4.604-8.671-4.604z" fill="#4DBAF2"/><path d="M39.428 110.794c-4.9 0-9.8-1.963-10.072-2.076a.738.738 0 01-.406-.97.74.74 0 01.97-.407c.068.023 7.588 3.025 12.895 1.535 5.871-1.647 8.807-5.078 7.836-9.162-.384-1.67-1.197-3.047-1.92-4.266-.813-1.376-1.58-2.685-1.535-4.13.135-4.716 2.506-7.853 4.064-9.907.407-.541.768-1.015 1.04-1.467 2.46-3.994 1.173-8.102 1.15-8.147a.725.725 0 01.475-.925.726.726 0 01.926.474c.068.203 1.513 4.807-1.31 9.388-.293.474-.677.993-1.129 1.58-1.535 2.031-3.636 4.807-3.771 9.072-.023 1.016.61 2.099 1.332 3.34.768 1.31 1.649 2.776 2.078 4.672 1.129 4.874-2.258 9.049-8.875 10.922-1.174.339-2.461.474-3.748.474z" fill="#fff"/><path d="M75.694 14.249c-1.717-1.964-4.065-3.273-4.065-3.273s-.339-.248-.903-.564c-2.71-1.783-6.39-2.843-6.39-2.843S51.96 28.963 47.646 39.502c-3.274 8.011-9.552 27.081-9.552 27.081s-.045 9.727.88 13c.023.18.046.36.091.54.587 3.476 3.026 5.01 5.623 3.521 1.084-.609 2.394-1.444 3.997-2.595C55.03 76.49 61.76 61.573 66.05 51.034c4.313-10.54 13.007-30.038 13.007-30.038s-1.67-4.761-3.364-6.747z" fill="#1798CF"/><path d="M72.937 12.94c-1.716-1.963-4.042-3.294-4.042-3.294s-2.258-1.557-4.539-2.099c-2.28-.542-6.413.587-6.413.587s-6.165 15.075-10.478 25.592c-4.313 10.539-10.049 26.065-9.258 35.092.203 2.28.429 4.108.677 5.53.587 3.475 3.026 5.01 5.623 3.52 1.084-.61 2.394-1.444 3.997-2.595C54.85 70.714 61.58 55.797 65.87 45.258c4.313-10.54 10.478-25.592 10.478-25.592s-1.693-4.762-3.41-6.725z" fill="#4DBAF2"/><path d="M95.588 28.377l-13.21-7.402-2.28 3.791 13.57 7.786 1.92-4.175z" fill="#1798CF"/><path d="M96.108 29.596c0 1.105-.678 2.392-1.514 2.866-.835.474-1.512-.023-1.512-1.129 0-1.105.677-2.392 1.513-2.866.858-.496 1.513.023 1.513 1.129z" fill="#4DBAF2"/><path d="M60.993 8.382L47.715.777 45.66 4.884l13.391 7.673 1.942-4.175z" fill="#1798CF"/><path d="M48.212 1.95c0 1.106-.678 2.392-1.513 2.866-.836.474-1.513-.022-1.513-1.128 0-1.106.677-2.392 1.513-2.866.835-.474 1.513.022 1.513 1.128z" fill="#1798CF"/><path d="M85.923 20.704l.045.361L74.52 14.43 59.841 5.922s-4.945 3.07-7.723 6.387c-.225.27-.406.519-.564.79l-.858-.046v2.957c.068 1.85 1.242 3.543 2.484 4.965 2.032 2.302 8.807 6.228 12.646 7.312 3.838 1.083 8.784 1.986 13.82-.023 5.035-2.008 9.529-5.348 9.529-5.348v-2.64l-3.252.428z" fill="#352221"/><path d="M89.196 20.275l-14.678-8.508L59.84 3.26s-4.945 3.07-7.723 6.387c-2.777 3.295-.948 6.341 1.084 8.643 2.032 2.302 8.807 6.23 12.646 7.312 3.839 1.084 8.784 1.986 13.82-.022 5.013-1.964 9.53-5.304 9.53-5.304z" fill="#472F2E"/></svg>