<svg width="165" height="173" fill="none" xmlns="http://www.w3.org/2000/svg"><path d="M31.599 12.569l53.424 30.84 21.759-12.554L53.358 0l-21.76 12.569z" fill="#EDDDDD"/><path d="M31.599 40.585L85.023 71.44l21.759-12.57-53.424-30.84-21.76 12.555z" fill="#C6ADAC"/><path d="M31.599 12.569v28.016L85.023 71.44V43.41L31.599 12.569z" fill="#DBC7C6"/><path opacity=".3" d="M83.86 69.494V45.64L53.359 28.03l-20.57 11.88v.04L83.86 69.494z" fill="#AF9B9A"/><path d="M106.782 30.855L85.022 43.41v28.03l21.76-12.57V30.856zM32.788 14.393V39.91l20.488-11.84v-1.824L32.788 14.393z" fill="#C1AFAE"/><path d="M83.86 45.64v-1.716L53.277 26.246v1.825l.082-.04L83.86 45.64z" fill="#AF9B9A"/><path d="M78.955 41.045L58.318 29.152v25.61l20.637-11.92v-1.797z" fill="#C1AFAE"/><path d="M58.318 55.425l-1.46-.852V27.597l1.46.852v26.976z" fill="#DBC7C6"/><path d="M105.052 56.046c-.041-.175-.27-.148-.324 0-.122.365-.163.744-.271 1.109-.108.378-.27.716-.392 1.08-.108.339.392.541.568.244.365-.662.568-1.69.419-2.433zm-.96 3.406c-.175-.31-.486-.419-.77-.594-.284-.176-.568-.46-.905-.514-.041 0-.082.014-.082.068.014.648 1.014 1.432 1.636 1.351.135-.04.189-.216.121-.31zM87.604 43.964c-.446.365-.784.81-1 1.338-.148.351-.365.865-.054 1.176.04.04.108.054.149.013.297-.216.297-.608.419-.932.189-.473.5-.865.878-1.203.27-.23-.121-.608-.392-.392zm.514 2.108c-.014-.148-.27-.148-.284 0a4.9 4.9 0 01-.473 1.446c-.23.433-.568.77-.77 1.203-.081.162.054.406.256.338 1.109-.446 1.42-1.919 1.27-2.987zm.054 21.489c-.284-.27-.622-.487-.92-.757-.323-.297-.526-.675-.797-1.013-.108-.149-.378-.122-.378.094.04.96 1 1.987 1.987 1.933.121-.014.202-.162.108-.257zm1.716-5.433c-.013-.095-.148-.095-.202-.027-.27.473-.433.987-.69 1.46-.216.405-.608.784-.621 1.257 0 .135.135.23.256.189.528-.162.757-.798.947-1.257.243-.527.391-1.054.31-1.622zm15.434-28.598c-.013-.013-.04-.013-.054 0-.284.257-.256.703-.324 1.068-.081.46-.257.906-.243 1.365 0 .27.378.379.513.135.244-.419.271-.96.298-1.432.04-.365.108-.852-.19-1.135zM60.223 48.113c-.067-.203-.338-.149-.365.054-.094.69 0 1.446.108 2.135.054.325.595.257.581-.08-.027-.703-.094-1.46-.324-2.109zm1.933 1.487c-.014-.081-.095-.108-.135-.04-.27.378-.473.81-.744 1.188-.27.392-.675.663-.932 1.055-.122.189.08.5.31.405.893-.351 1.595-1.676 1.5-2.608zm11.217-7.893c-.054-.04-.122.027-.108.081.095.338.23.662.297 1.014.082.405.054.77.027 1.162-.027.338.528.419.595.081.162-.797-.081-1.865-.81-2.338zm-.649 1.393c-.905.202-1.567 1.067-1.73 1.945-.067.365.487.527.568.163.19-.838.635-1.379 1.257-1.947.068-.067-.014-.189-.095-.162z" fill="#AF9B9A"/><path d="M15.151 56.6a.52.52 0 01-.108-.73l18.096-24.353a.52.52 0 01.73-.108c.23.175.284.5.108.73L15.881 56.492c-.176.23-.5.27-.73.108z" fill="#513534"/><path d="M34.437 34.341c.121-.675-.77-.919-1.487-.392.446-.608 1.027-1.58.23-2-.433-.216-.946-.094-1.406.149 0-.257-.067-.487-.297-.581-.27-.122-.514.04-.716.27-.027-.554-.162-1.122-.54-1.365-.515-.338-.92-.027-1.163.405-.095-.175-.325-.337-.581-.473-.42-.135-.838-.189-1.19.109-.648.527-.094 1.5.23 2.148-.392.298-.649.784-.567 1.244-.447-.149-.987.04-1.136.54-.203.69.23 1.338.77 1.73-.5.081-.986.27-.77.852.203.567.906.716 1.527.689-.31.514-.432 1.122.244 1.42.5.215 1.203-.122 1.703-.555.108.514.513.96 1.054 1.014a.89.89 0 00.824-.42c.608.595 1.42 1.082 2.19.555.35-.243.513-.77.419-1.163.31.027.621-.04.837-.337a.868.868 0 00.122-.784c.514-.149.946-.487 1.149-1.027a1.66 1.66 0 00.04-.892c-.135-.27-.5-1.027-1.486-1.136z" fill="#E52C2C"/><path d="M26.368 40.599c-.635 1.392-2.067 3.149-1.621 3.662.73.852 2.04.636 2.04.636s-.5 2.148-1.567 2.58c-1.92.798-3.393 1.23-3.393 1.23s-5.554 11.515-9.298 12.867c-1.554.568-2.69-.879-2.73-2.054-.149-4.42 6.122-10.948 10.11-13.975 1.31-.96 3.77-5.095 6.46-4.946z" fill="#FFC9B6"/><path d="M23.747 45.572s.297-.797 1-1.297c.702-.5.756-1.27 1.608-1.42.851-.134 1.892.217 1.081 1.055-.797.852-.703 1.703-1.703 2.257-1 .581-1.986-.595-1.986-.595z" fill="#FFC9B6"/><path d="M4.542 100.064c-5.771-6.122-.27-12.582 2.5-14.569 1.473 1.811 10.217 5.406 10.271 5.623 1.055 4.5.095 9.203-1.243 13.555-.824 2.717-1.54 7.298-3.473 14.731.892 3.69-.122 9.299-.5 13.475-.257 2.919-1.42 10.568-1.595 11.217.527-.162 1.405-.946 2.595-1.351 1.108-.379 2.527-.406 3.162-.163 1.973.784 2.541 1.5 2.014 2.771-.784 1.865-3.27 2.46-5.028 2.838-2.662.554-4.162 4.784-7 1.865-.73-.757-.081-2.73.162-3.771-.054-.729.162-7.149-.649-12.041-.987-5.893-1.5-12.502 1.946-15.961-3.879-9.853-3.743-15.191-3.162-18.219z" fill="#F9BBA7"/><path d="M6.38 145.934s1.662.595 2.73.933c1.068.337 3.635.473 5.609-1.433.77-.743 1.31-1.676 1.04-2.203-.5-1-2.662-.5-2.662-.5s3.703-2.568 5.784-.879c.96.784 1.203 2.366-.419 4.041-.96 1.001-3.784 2.785-6.23 4.082-1.595.851-4.176 2.541-5.933.838-1.77-1.676.08-4.879.08-4.879z" fill="#2C1D1B"/><path d="M10.596 104.43c-5.77-6.123-.27-12.583 2.5-14.57 1.474 1.812 10.218 5.406 10.272 5.623 1.054 4.5.095 9.203-1.243 13.555-.825 2.717-1.541 7.298-3.474 14.731.892 3.69-.121 9.299-.5 13.475-.257 2.919-1.419 10.569-1.595 11.217.527-.162 1.406-.946 2.595-1.351 1.108-.379 2.527-.406 3.163-.162 1.973.783 2.54 1.5 2.014 2.77-.784 1.865-3.271 2.46-5.028 2.838-2.663.554-4.163 4.785-7 1.865-.73-.757-.082-2.73.161-3.77-.054-.73.163-7.15-.648-12.042-.987-5.893-1.5-12.501 1.946-15.961-3.879-9.866-3.73-15.205-3.163-18.218z" fill="#FFC9B6"/><path d="M12.434 150.286s1.663.594 2.73.932c1.068.338 3.636.473 5.61-1.432.77-.744 1.31-1.676 1.04-2.203-.5-1-2.663-.5-2.663-.5s3.703-2.568 5.785-.879c.96.784 1.203 2.365-.42 4.041-.959 1-3.783 2.784-6.23 4.082-1.594.851-4.176 2.541-5.933.838-1.757-1.676.081-4.879.081-4.879z" fill="#2C1D1B"/><path d="M4.028 59.1c2.568-.918 5.703.541 5.838 3.19 1.42 2.406.028 5.933-2.189 7.542-2.581 1.865-6.555-.027-7.406-2.92-.892-3 .757-6.73 3.757-7.811z" fill="#EDEDED"/><path d="M10.286 65.885c2.405.703 4.568.122 6.879-.23-1.433-1.513-3.257-2.986-1.852-7.149a18.906 18.906 0 01-5.082-2.216c-.324-.203-.838-.027-.905.364-.365 1.893-.824 4.095-2.054 5.028.013.676-.027.54-.027 1.203v1.473c.77.81 1.932 1.216 3.04 1.527z" fill="#FFC9B6"/><path d="M8.61 51.803c.284-2.622 2.433-6.096 5.365-5.88 2.987.23 5.028 4.663 5.258 6.731.392 3.514.08 10.136-5.46 8-4.312-1.648-5.582-4.946-5.163-8.851z" fill="#FFC9B6"/><path d="M2.61 73.886c-1.92-5.947-.744-9.893.945-11.84.703-.797 2.811-3.135 4.622-1.513-.58 2.703 4.73 4.163 8.11 4.163 2.567 1.919 3.756 3.352 5.23 5.946 1.554 2.744 2.851 5-.46 7.001 1.014 3-1.135 6.636-.257 14.326-3.095 2.46-9.041 2.433-12.325.432-2.568-1.554-3.933-3.297-3.798-5.176.851-1.824 1.203-2.203 1.108-4.473-.121-2.865-2.297-6.15-3.176-8.866z" fill="#EDEDED"/><path d="M20.111 70.575c.486.067 2.892 4.473 3.014 6.136.121 1.662-.554 4.96-.744 6.662-.189 1.703-.445 4.541-.445 4.541l-3.906 1.284s1.108-2.243 1.31-5.351c.203-3.109-.891-10.002-.891-10.002l1.662-3.27z" fill="#15ABEB"/><path d="M8.542 126.405c5.893 3.649 7.42 3.108 11.569 1.852 3.014-.919 4.406-3.122 5.081-5.46.27-9.38.176-22.719-.337-26.287-.96-6.663-2.474-7.771-2.474-7.771l-10.784 1.108-6.353-4s-3.31 4.244-4.149 8.257c-.838 4.028-1.23 8.474-1.054 14.61.203 7.163.527 10.123 0 13.677 1.04 4.947 4.92 1.798 8.501 4.014z" fill="#15ABEB"/><path d="M17.665 65.79s-3.595-.891-5.298 1.582c-1.717 2.473-1.135 7.028-1.081 10.704.054 3.676-.081 11.312-.081 11.312l-1.703-.609s.365-4.676.284-9.838c-.082-5.15 0-10.272 1.202-12.258 1.203-1.987 4.947-2.352 4.947-2.352l1.73 1.46zM3.663 70.764c-.243-3.379-.013-4.77.852-6.42a10.726 10.726 0 013.811-4.067c.095-.217.19-.42.284-.636-.46-.243-.906-.608-1.162-.58-2.325.229-4.555 2.919-5.204 6.703-.513 2.973.379 7.65 1.42 11.339 1.202 4.324 1.567 5.23 1.567 8.19 0 .675 1.987 1.797 1.987 1.797s-.446-3.406-1.392-7.217c-.838-3.392-2.014-7.136-2.163-9.109z" fill="#15ABEB"/><path d="M21.935 86.766l.446 1.986s-5.622 3.825-11.095 2.217c-5.582-1.635-7.001-3.77-7.001-3.77l.824-2.555c.825.838 3.676 3.487 7.596 4.095 2.19.338 6.257-.649 9.23-1.973z" fill="#F4EBEA"/><path d="M7.218 106.484s.297 3.365 1.324 7.325c1.027 3.96 1.906 6.501 1.906 6.501s-.162-3.582-.933-7.636c-.77-4.055-2.297-6.19-2.297-6.19zm11.42-3.284s-.42 5.122-.176 8.987c.243 3.865 2.122 8.947 2.122 8.947s-.392-6.649-.473-10.19c-.081-3.528-1.473-7.744-1.473-7.744z" fill="#0093D1"/><path d="M23.057 72.832c1 1.108 2.203 2.608 2.77 4 .65 1.595 1.987 4.014 2.568 5.393 1.325.621 3.622 1.378 6.434 3.027 2.892 1.69 4.014 2.5 5.473 2.54 1.487.041 2.487.339 3.514.514 2.054.352.324 1.109-.284 1.19-.702.094-1.838.324-1.838.324s2.392 3.176 3.473 5.311c1.109 2.19-2.027 4.555-3.96 2.514-1.946-2.068-3.46-5.19-4.013-6.082-.54-.892-5.744-2.338-7.352-2.69-.5-.107-2.92-.634-3.433-.742-.825-.149-1.081-.622-1.933-1.46-.973-.96-1.176-1-3.365-3.784-1.879-2.392-3.095-3.447-3.852-6.528-.838-3.379 4.65-4.798 5.798-3.527z" fill="#FFC9B6"/><path d="M18.949 66.683c3.54.675 6.743 5.987 6.676 9.446.96 1.23-4.122 5.596-5.784 5.123-2.676-.352-5.136-4.014-5.893-7.893-.905-4.582 1.392-7.366 5-6.676z" fill="#EDEDED"/><path d="M25.625 76.143l.73 1.568s.27 1.27-1.595 2.905c-1.879 1.622-4.109 1.676-4.109 1.676l-.81-1.013s2.324-.608 3.824-1.892c1.514-1.284 1.96-3.244 1.96-3.244z" fill="#15ABEB"/><path d="M20.733 48.978c.283-.351.486-.73.527-1.095.148-1.108-1.622-1.392-2.717-1.121-1.554-2.5-5.554-3.406-7.811-1.109-2.325.325-3.771 1.487-4.217 3.771-.92 4.703.324 5.163 1.81 10.852 2.055.676 3.96-1.392 5.42-3.162.838-1.014 1.893-2.838 2.744-5.176 2.946 1.108 5.379.31 5.811-1.122.325-1.068-.54-1.676-1.567-1.838z" fill="#A76038"/><path d="M15.637 54.29s-2.216-1.528-2.568.635c-.35 2.162 1.757 2.905 1.757 2.905l.811-3.54z" fill="#FFC9B6"/><path d="M9.231 43.978c-.851-.055-1.702.297-2.189 1.04-.838 1.311-.068 2.582.243 3.014 1.136 1.568 3.298 1.176 4.325-.297 1.203-1.703-.595-3.636-2.379-3.757z" fill="#15ABEB"/><path d="M9.15 44.532c-1.324-.92-3.5-2.055-6.433-.487S-.216 50.29.244 52.681c.46 2.392 2.014 4.284 2.338 6.366.46 3-1.865 4.081-1.865 4.081s2.108 1.973 4.514-1.081c2.406-3.054 1.676-6.433 1.608-9.771-.08-3.338 2.5-4.298 3.109-5.136.608-.838.189-1.92-.798-2.608z" fill="#DB7942"/><path d="M46.898 19.8c-.203-.298-.5-.42-.838-.447.243-.324.378-.689.135-1.148-.176-.338-.554-.487-1.081-.298.419-.635-.068-1.784-1.095-1.365-.149-.702-1.19-1.189-1.635-.81.067-1.92-1.69-1.433-1.933-.555-.46-.256-1.257-.392-1.703 0-.324.284-.419.663-.392 1.027a1.187 1.187 0 00-.649.027c-.527.19-.662.609-.635 1.068a1.13 1.13 0 00-1.04.338c-.338.365-.352.92-.15 1.365a.99.99 0 00-.5.23c-.323.27-.391.662-.35 1.04a1.227 1.227 0 00-.879.027c-.676.298-.716 1.028-.595 1.676a1.17 1.17 0 00-1.04.392c-.365.42-.379 1-.203 1.5.284.311.527.757.622 1.122a.974.974 0 011-.149c.432.176.649.568.73.987a.543.543 0 01.635-.04c.243.135.338.35.365.594.554-.162 1.094-.04 1.5.527.203.27.189.622.054.946.432-.365 1.54-.148 1.487.825 1.162-.135 1.608.46 1.851 1.527.04 0 .081.013.122.013.324-.013.648-.175.878-.405.325-.324.433-.743.365-1.135.324-.027.635-.176.852-.433a1.31 1.31 0 00.297-.851c.446.162.865.108 1.014-.54.08-.352.067-.771-.041-1.163.703.216 1.406.19 1.608-.581.122-.446-.054-.933-.378-1.311.608-.135 1.19-.568 1.419-1.108.175-.392.121-.811-.176-1.122.149-.108.27-.257.379-.42.243-.404.283-.945 0-1.35z" fill="#52CBFF"/><path d="M38.694 28.679c.054-.973-1.054-1.176-1.487-.825.122-.324.135-.675-.054-.946-.419-.567-.946-.689-1.5-.527-.027-.243-.135-.46-.365-.595-.243-.135-.446-.094-.635.041-.081-.419-.284-.81-.73-.987a.974.974 0 00-1 .15 2.895 2.895 0 00-.622-1.123c0 .014.014.041.014.055a1.151 1.151 0 00-1.014.337c-.378.406-.365.96-.148 1.42-.338.121-.636.378-.717.77-.054.257.014.608.203.81-.378-.134-.797-.121-1.122.19-.446.419-.27 1.135-.08 1.743-.298-.108-.596-.135-.785.149-.189.297-.202.676-.121 1.027-.027-.013-.054-.013-.081-.027.256.135.486.297.58.473.244-.432.636-.743 1.163-.405.378.243.514.81.54 1.365.19-.23.447-.392.717-.27.23.107.297.324.297.58.46-.243.987-.364 1.406-.148.81.419.216 1.392-.23 2 .716-.527 1.608-.284 1.487.392.986.095 1.351.851 1.473 1.108a.998.998 0 00.486-.04c.514-.163.906-.676.838-1.257.946.027 1.703-.757 1.446-1.703.703-.081 1.338-.433 1.703-1.081.203-.365.27-.811.162-1.176-.216-1.04-.662-1.635-1.824-1.5z" fill="#EDEDED"/><path d="M103.164 146.623v4.676c0 .568.865 1.027 1.946 1.027 1.082 0 1.946-.459 1.946-1.027v-4.676h-3.892zm-18.488-10.812v4.676c0 .568.865 1.027 1.946 1.027 1.067 0 1.946-.459 1.946-1.027v-4.676h-3.892zm39.869-1.446v4.676c0 .568.865 1.027 1.946 1.027 1.068 0 1.946-.459 1.946-1.027v-4.676h-3.892z" fill="#352221"/><path d="M84 108.89l21.11 12.176 24.368-14.069-21.111-12.19L84 108.89z" fill="#EDDDDD"/><path d="M84 137.636l21.11 12.19 24.368-14.069-21.111-12.19L84 137.636z" fill="#DEC9C5"/><path d="M129.478 106.997v28.76l-24.368 14.069v-28.76l24.368-14.069z" fill="#C1AFAE"/><path d="M107.448 121.621l20.097-11.596v6.284l-20.097 11.596v-6.284zm0 7.946l20.097-11.595v17.042l-20.097 11.609v-17.056z" fill="#15ABEB"/><path d="M84 108.89v28.746l21.11 12.19v-28.76L84 108.89z" fill="#DBC7C6"/><path d="M113.746 120.012a.58.58 0 01.243-.459.2.2 0 01.149-.014h.014s.013 0 .013.014l1.244.743c.446.257 1.162.297 1.54.081l4.96-2.865c.095-.054.149-.108.149-.162 0-.054-.054-.176-.284-.311l-1.284-.743c-.054-.027-.081-.095-.081-.189 0-.176.108-.379.243-.46.054-.041.108-.027.163-.013l1.324.77c.405.243.649.581.649.932 0 .311-.19.609-.514.798l-4.96 2.865c-.27.162-.635.243-1.013.243-.433 0-.892-.108-1.257-.311l-1.19-.716c-.067-.04-.108-.095-.108-.203zm0 7.934c0-.176.108-.379.243-.46a.194.194 0 01.149-.013h.014s.013 0 .013.013l1.244.743c.446.257 1.162.298 1.54.081l4.96-2.865c.095-.054.149-.108.149-.162 0-.054-.054-.176-.284-.311l-1.284-.743c-.054-.027-.081-.095-.081-.189 0-.176.108-.379.243-.46.054-.04.108-.027.163-.013l1.324.77c.405.243.649.581.649.933 0 .31-.19.608-.514.797l-4.96 2.865c-.27.162-.635.243-1.013.243a2.67 2.67 0 01-1.257-.31l-1.19-.717c-.067-.027-.108-.094-.108-.202z" fill="#422C2A"/><path d="M86.433 137.649c-.19-.351-.379-.702-.46-1.094-.081-.338-.04-.703-.148-1.041-.028-.095-.15-.108-.203-.027-.42.689-.014 1.851.446 2.433.162.229.473-.041.365-.271zm2.027-.189c-.31-.297-.743-.594-1.19-.621-.121 0-.162.148-.094.229.27.325.649.541.946.852.243.243.392.635.743.716.081.013.163-.027.176-.108.122-.419-.297-.811-.581-1.068zm.946-23.57c-.379.04-.622.324-.946.514-.379.216-.797.351-1.162.594-.082.054-.095.23.027.257.689.095 2.054-.351 2.284-1.081.04-.135-.068-.298-.203-.284zm.297 1.257c-.094-.014-.175.081-.121.162.135.257.351.46.5.716.175.298.257.595.378.906.108.284.635.284.595-.081-.095-.662-.635-1.554-1.352-1.703zm-3.338-1.892c.068-.216-.243-.338-.365-.149-.54.852-.797 1.96-.567 2.96.08.365.675.284.662-.095-.068-.959-.04-1.797.27-2.716zm15.813 28.314a7.379 7.379 0 01-1.068 1.081c-.378.311-.811.568-1.135.946-.027.04-.014.095.04.095 1.027.013 2-.919 2.622-1.649.284-.325-.189-.798-.459-.473zm-.244 2.392c-.094-.027-.175.067-.148.148.121.379.378.69.554 1.028.162.31.216.608.554.743.067.027.175-.014.216-.081.297-.608-.608-1.636-1.176-1.838z" fill="#AF9B9A"/><path d="M123.693 102.159s-2.054-1.608-3.568-2.5c-1.513-.892-4.27-.527-4.27-.527s2.392 1.378 3.203 1.851c.797.46-.271 1.649-1.244 1.392-.973-.27-2.041-.973-2.365 0-.176.568.797.73 2.406 1.447a301.76 301.76 0 004.406 1.865l1.432-3.528z" fill="#619BF7"/><path d="M139.465 101.281s3.203-4.082 5.879-3.555c2.676.527 7.352 3.379 7.352 9.42 0 2.663-5.406.635-7.676 1.757-2.271 1.122-8.636 3.879-11.758 4.149s-12.596-7.352-12.596-7.352-.554-.46.622-2.527c1.175-2.055 1.865-2.311 1.865-2.311s3.946 1.513 5.27 2.5c1.325.987 4.231 2.351 4.231 2.351s2.27-2.446 3.703-3.324c1.432-.933 3.108-1.108 3.108-1.108z" fill="#EDEDED"/><path d="M141.533 144.177s4.244 1.297 5.325 2.73c1.081 1.433 1.594 2.581 1.811 4.365.202 1.771-.527 2.879-2.433 2.798-1.662-.068-2.5-.933-2.784-1.892 0 0-4.69-.5-7.082-2.163-2.419-1.662 1.216-6.284 5.163-5.838z" fill="#2C1D1B"/><path d="M128.991 122.067c3.757-.838 8.406.567 12.353 2.405.094 0 .189.027.284.081 4.73 2.271 14.325 4.636 15.542 5.677 1.919 4.676-.676 11.555-5.582 10.933-2.514 1.541-5.365 1.703-7.947.73.122.176 1.879 2.676 3.203 5.027-1.365.69-1.878 1.298-3.987 3.109-2.284-.919-5.743-3.933-7.69-5.406-1.946-1.473-8.609-8.69-8.609-14.785-2.459-2.298-1.919-6.812 2.433-7.771z" fill="#2C1D1B"/><path d="M128.221 148.461c.216-2.662 1.838-6.392 2.959-8.082 2.974-4.446 4.123-7.352 7.312-9.392 3.852-2.46 6.285 1.959 10.325 2.527.041-.027 4.217-1.676 4.514-1.825-.067.122.811 6.231-.648 9.488-1.338 2.987-4.568 3.433-8.312 3.541-1.514 2.608-3.892 4.46-4.554 4.797 1.162.919 2.486 1.582 4.459 3.447 2.839 2.676 6.352 5.662 9.785 7.987-.865.487-1.703 1.257-2.054 1.73-.527.703-.865 1.324-1.054 2.487-6.42-1.473-11.515-4.825-16.786-8.555-1.892-1.338-2.932-2.717-4.284-4.379-2.595-.446-2.487-3.014-1.662-3.771z" fill="#3F2A28"/><path d="M135.14 102.578l3.771 3.095c2.041-.73 3.581-3.122 4.46-5.433-.743-.595-3.379-2.108-3.568-2.906.784-2.19-.405-4.04-2.433-6.014-2.135-2.068-5.987-2.04-8.298-.216-.338.135-2.054 1.379-1.824 3.46.256 2.338 1.594 7.947 3.568 8.96 1.378.703 3-.446 4.324-.946z" fill="#FFC9B6"/><path d="M140.573 91.293c-.202-1.784-1.162-3.379-3.081-4.257-2.149-.987-6.001-1.122-7.731.81-.027-.067-.04-.134-.094-.188-.541-.69-1.419-.582-2.041-.109-.5.379-.865.933-1.108 1.541a1.762 1.762 0 00-1.149.014c-1.257.513-1.203 2.297-.757 3.324.919 2.15 4.311 4.5 6.798 3.906-.121 1.257.487 1.933 1.487 2.744 1.568 1.284 3.811 1.351 5.581.473 2.001-1 3.825-3.298 3.69-5.636-.054-1.068-.689-2.108-1.595-2.622z" fill="#2C1D1B"/><path d="M130.532 96.915s.459-1.46 1.838-.54c1.378.919-.271 3.649-.271 3.649l-1.567-3.109z" fill="#FFC9B6"/><path d="M143.695 99.227c-2.311 1-2.149 1.419-6.96 5.122s-5.054 5.879-4.622 8.176c.432 2.298.77 3.474 2.635 7.933 2.379 5.69 5.433 8.785 5.433 8.785s-1.635.5-2.378.96c-.744.459-.919 2.986-.095 3.77 2.365 2.23 12.42 6.096 20.002-3.365-.365-6.365-2.392-16.096-4.014-21.124-1.851-5.676-7.974-11.136-10.001-10.257z" fill="#EDEDED"/><path d="M129.383 139.65c-3.014 2.486-4.23 7.284-2.933 10.365 1.203 2.839 3.933 4.055 3.933 4.055s1.108-7.704 3.217-11.609c2.121-3.906 5.027-4.19 6.96-6.542 1.932-2.351.959-4.743.959-4.743l-5.257-7.028s-5.595 7.217-8.96 8.947c.405 2.824 2.149 5.23 2.081 6.555z" fill="#15ABEB"/><path d="M129.383 139.65s2.568-2.366 4.23-3.825c1.973-1.744 2.906-3.109 4.203-5.609.365-2.973-1.54-5.419-1.54-5.419s-2.257-.311-2.406 2.446c-.243 4.433-6.393 6.838-6.393 6.838s1.703 4.69 1.906 5.569z" fill="#F4EBEA"/><path d="M140.749 130.608s3 1.635 5.757 2.365c2.771.73 3.109.635 5.082 1.014-.77 0-5.068.432-6.839-.636-1.757-1.054-4-2.743-4-2.743zm9.393-1.311s-1.595 1.311-3.96 1.081c-2.365-.229-3.865-.513-3.865-.513s2.554-.73 3.865-.568c1.311.162 3.96 0 3.96 0z" fill="#EDEDED"/><path d="M150.764 158.503s3.486-.243 4.919 0c1.419.243 1.635 2.811 2.879 4.027 1.257 1.217 4.879 1.838 5.838 4.339.96 2.5-.797 6.379-3.054 5.419-3.717-1.568-11.218-7.825-11.218-7.825s-1.743-2.662.636-5.96z" fill="#2C1D1B"/><path d="M135.289 120.472s.824 5.365 1.689 6.838c1.69 2.906 3.676 2.447 3.771 2.514 0 0-.554-3.243-1.23-5.325-.676-2.081-1.716-5.608-1.716-5.608l-2.514 1.581zm0-14.866s2.892-.798 5.46 2.838c2.635 3.743 3.406 8.325 4.96 13.366 1.689 5.5 2.784 8.406 2.784 8.406l1.649-.932s-2.068-5.325-3.96-12.421c-.662-2.459-2.284-8.298-4.041-9.933-2.635-2.446-5.406-2.581-5.406-2.581l-1.446 1.257zm6.798-5.717s3.487.108 6.055 3.757c2.635 3.743 2.811 7.419 4.365 12.46 1.689 5.501 2.325 8.677 2.325 8.677l1.527-.865s-1.473-5.663-3.365-12.758c-.649-2.46-3.068-8.501-4.825-10.136-2.636-2.446-4.622-2.392-4.622-2.392l-1.46 1.257z" fill="#15ABEB"/><path d="M156.967 122.945s-5.568 4.73-9.123 5.906c-4.176 1.379-8.325.811-10.041-.378-.135.729 0 1.73 0 1.73s.689.77 2.946 1.459c2.257.689 5.757.122 8.758-1.257 3-1.378 7.676-4.906 7.676-4.906l-.216-2.554z" fill="#15ABEB"/><path d="M116.571 122.945c.838.243 1.486-1.243 2.176-3.987.703-2.743 1.311-4.216.311-4.419-1.001-.203-2.311.716-3.217 3.216-.892 2.514-.054 4.974.73 5.19z" fill="#627DF4"/><path d="M134.911 107.984c-1.879-.77-3.947.906-7.379 4.717-3.393 1.351-9.61 2.365-10.245 2.933-1.973 2.338-2.446 5.203 0 6.595.527.297 4.271 2.122 4.744 1.757 1.824.811 7.271-.244 8.731-3.014 1.473.554 4.906 1.432 7.879-3.69 1.527-2.608 1.216-7.257-3.73-9.298z" fill="#EDEDED"/><path d="M114.598 115.498c-.852-.892-4.285-2.486-5.514-3.446-1.514-1.189-2.352-1.838-3.393-2.257-1.608.257-3.243.325-5.027 1.298-2.055 1.121-4.487 3.419-5.393 5.676.77 1.419 1.865 2.081 2.933 2.838.865.622 2.46 1.122 3.365 1.649.973.581 1.649 1.324 2.811 2.581 2.906-.73 3.933-3.608 5.852-4.757.919-.554 4.649-1.96 4.366-3.582z" fill="#E52C2C"/><path d="M119.058 114.539s-2.703-.595-4.987-.757c-2.514-.189-4.974-.162-5.65-.459a23.758 23.758 0 01-1.554-1.838c-1.081-1.433-.838-2.528-1.432-2.433-.595.094-.582 1.068-.554 1.946.013.27.054.595.108.919-.217-.095-.419-.189-.609-.27-4.108-1.865-5.77-1.23-5.69 1.392.068 2.108 6.515 4.054 8.718 4.338 2.203 2.325 6.528 4.946 9.149 5.555-.581-1.136-.202-3.541.406-5.041.986-2.406 2.095-3.352 2.095-3.352z" fill="#619BF7"/></svg>