<svg width="120" height="190" fill="none" xmlns="http://www.w3.org/2000/svg"><path d="M32.278 189.428c-12.239 0-24.975-6.297-28.814-10.855-3.41-4.04-4.403-9.343-2.529-13.518.655-1.467 1.626-2.754 2.913-3.859a5.02 5.02 0 01.407-.768c.835-1.399 1.896-2.663 3.138-3.791-1.354-1.264-2.213-2.573-2.348-4.017-.18-1.964 1.016-3.95 3.636-6.048 6.12-4.92 17.274-1.896 26.285 4.536 6.797 1.399 12.894 4.513 17.094 8.891 13.278 1.648 27.053 2.641 37.666-.361 16.823-4.761 26.308-10.652 28.205-17.467 1.174-4.243-.61-8.959-5.307-13.992-8.13-8.689-22.153-7.177-22.31-7.154l-.091-.767c.135-.023 14.565-1.58 22.965 7.402 4.901 5.258 6.752 10.201 5.488 14.737-1.965 7.086-11.652 13.157-28.747 18.009-10.523 2.979-24.004 2.098-37.079.496.136.158.249.294.384.452 4.833 5.845 6.504 10.787 5.149 15.075-1.626 5.145-7.543 9.072-18.11 12.028-2.552.655-5.262.971-7.995.971zM3.306 162.775c-.7.79-1.242 1.648-1.67 2.573-1.74 3.904-.791 8.892 2.415 12.706 4.584 5.461 22.198 13.427 36.04 9.568 10.14-2.821 16.056-6.68 17.57-11.509 1.241-3.972-.43-8.802-5.014-14.353a14.844 14.844 0 00-.971-1.083c-2.62-.316-5.216-.678-7.768-1.016 4.742 6.387 5.216 12.435 1.129 16.497-8.265 8.215-27.482 3.814-36.402-3.16-4.155-3.249-6.006-6.86-5.329-10.223zm1.174-1.128c-2.01 4.581 1.988 8.643 4.652 10.742 8.694 6.793 27.392 11.149 35.363 3.227 3.907-3.881 3.252-9.817-1.671-16.09l-.542-.068c-8.852-1.219-17.207-2.347-23.259-2.167-2.98.091-5.645.474-7.949 1.106 1.762 1.129 3.84 2.257 5.94 3.385 4.29 2.325 8.738 4.74 11.629 7.696l-.565.542c-2.8-2.867-7.203-5.236-11.449-7.538-2.348-1.264-4.629-2.505-6.548-3.791-2.259.722-4.133 1.715-5.6 2.956zm3.478-4.536a17.58 17.58 0 00-2.53 2.843 17.83 17.83 0 013.84-1.828c-.452-.338-.904-.654-1.31-1.015zm35.273 1.692c2.483.339 5.013.677 7.564 1.016-3.68-3.543-8.716-6.161-14.316-7.583a42.536 42.536 0 015.51 5.123c.451.474.858.97 1.242 1.444zm-22.876-2.302c5.917 0 13.617 1.039 21.746 2.144-.225-.248-.451-.519-.677-.767a41.267 41.267 0 00-6.865-6.071 39.601 39.601 0 00-10.749-.654c-6.232.474-11.539 2.392-15.242 5.461.496.407 1.038.813 1.648 1.219 2.53-.767 5.465-1.219 8.784-1.309.43-.023.881-.023 1.355-.023zm-3.997-11.577c-2.8 0-5.284.677-7.203 2.234-2.394 1.941-3.5 3.679-3.342 5.372.113 1.241.903 2.437 2.168 3.565 3.838-3.227 9.326-5.235 15.784-5.732a41.95 41.95 0 019.236.361c-5.465-3.52-11.54-5.8-16.643-5.8z" fill="#593D3D"/><path d="M25.662 170.584c0-1.444.88-3.137 1.965-3.746.474-.271.926-.294 1.264-.091l1.016.587-.338.745c0 .09.022.18.022.271 0 1.376-.813 2.934-1.806 3.633l-.384.835-1.039-.587c-.429-.293-.7-.857-.7-1.647z" fill="#352221"/><path d="M30.653 168.891c0 1.445-.881 3.137-1.965 3.746-1.084.632-1.965-.045-1.965-1.489 0-1.444.881-3.137 1.965-3.746 1.084-.61 1.965.045 1.965 1.489z" fill="#472F2E"/><path d="M30.54 169.455c0 1.084-.655 2.347-1.468 2.821-.813.474-1.468-.022-1.468-1.105 0-1.084.655-2.348 1.468-2.821.813-.474 1.468.022 1.468 1.105z" fill="#5B3D3D"/><path d="M29.75 169.726c0-.18.112-.406.248-.474.045-.022.09-.045.135-.022l2.372 1.376c.18.113.248.339.135.519-.113.181-.339.249-.52.136l-2.28-1.332c-.068-.045-.09-.112-.09-.203zm-1.355 1.354c0-.18.112-.406.248-.474.045-.022.09-.045.135-.022l2.372 1.376c.18.113.248.339.135.519-.113.181-.339.249-.52.136l-2.28-1.332c-.068-.045-.09-.09-.09-.203z" fill="#EDDDDD"/><path d="M87.4 66.005v50.416c0 .519.813.948 1.807.948s1.806-.429 1.806-.948V66.005H87.4z" fill="#3D2828"/><path d="M89.184 65.057c-.993 0-1.806.429-1.806.948 0 .519.813.948 1.806.948.994 0 1.807-.43 1.807-.948 0-.52-.813-.948-1.806-.948z" fill="#593D3D"/><path d="M87.897 65.847h2.53V52.442c0-4.672-2.891-10.133-6.437-12.187l-13.413-7.74c-1.806-1.039-3.59-1.152-5.058-.294-1.694.97-2.642 3.07-2.642 5.777v61.813h2.529v-61.79c0-1.738.52-3.092 1.377-3.588.655-.361 1.558-.249 2.53.293l13.413 7.74c2.8 1.626 5.171 6.184 5.171 9.998v13.383z" fill="#fff"/><path d="M89.162 66.524c.698 0 1.264-.303 1.264-.677 0-.374-.566-.677-1.264-.677-.699 0-1.265.303-1.265.677 0 .374.566.677 1.265.677z" fill="#fff"/><path d="M95.62 120.777s0 5.235-2.484 6.793c-2.552 1.579-7.723-9.185-7.723-9.185l9.733 1.128.474 1.264z" fill="#2B1B1A"/><path d="M55.109 152.778c0-2.663 1.625-5.778 3.635-6.928.497-.294 1.107-.452 1.581-.452a4.45 4.45 0 012.326.655c1.152.699 1.287 2.302 1.287 2.302l-4.065 8.35s-1.31.654-2.664-.091c-.836-.451-1.355-1.218-1.581-1.647a7.886 7.886 0 01-.294-.7 4.694 4.694 0 01-.225-1.489z" fill="#281818"/><path d="M64.029 149.55c0 2.663-1.626 5.778-3.636 6.929-2.01 1.151-3.636-.068-3.636-2.731s1.626-5.777 3.636-6.928c2.01-1.174 3.636.045 3.636 2.73z" fill="#3F2A28"/><path d="M62.673 150.589c0 1.467-.88 3.159-1.987 3.791-1.106.632-1.987-.045-1.987-1.489 0-1.467.88-3.16 1.987-3.792 1.107-.632 1.987.045 1.987 1.49z" fill="#fff"/><path d="M62.335 145.737h-2.371v6.883c0 .451.135.767.361.925l.813.429.723-.858-.203-.09c.383-.474.654-1.151.654-1.783v-5.506h.023z" fill="#C6ADAC"/><path d="M60.686 145.737v7.267c0 .88.52 1.263 1.175.902.654-.383 1.174-1.376 1.174-2.256v-5.891h-2.349v-.022z" fill="#DBC7C6"/><path d="M24.759 134.927c0-2.663 1.626-5.778 3.635-6.929.497-.293 1.107-.451 1.581-.451.384 0 1.332.045 2.326.654 1.152.7 1.287 2.302 1.287 2.302l-4.065 8.35s-1.31.655-2.664-.09c-.836-.451-1.355-1.219-1.58-1.647a8.016 8.016 0 01-.294-.7 4.699 4.699 0 01-.226-1.489z" fill="#281818"/><path d="M33.656 131.677c0 2.663-1.626 5.777-3.636 6.928-2.01 1.151-3.635-.067-3.635-2.73s1.626-5.778 3.635-6.929c2.033-1.151 3.636.068 3.636 2.731z" fill="#3F2A28"/><path d="M32.324 132.737c0 1.467-.881 3.16-1.987 3.792-1.107.632-1.988-.045-1.988-1.49 0-1.467.881-3.159 1.988-3.791 1.106-.632 1.987.022 1.987 1.489z" fill="#fff"/><path d="M31.962 127.863h-2.37v6.883c0 .451.135.767.36.925l.814.429.722-.858-.203-.09c.384-.474.655-1.151.655-1.783v-5.506h.022z" fill="#C6ADAC"/><path d="M30.336 127.863v7.267c0 .88.52 1.263 1.175.902.655-.361 1.174-1.376 1.174-2.256v-5.891h-2.349v-.022z" fill="#DBC7C6"/><path d="M81.62 132.806c0-4.424 2.687-9.569 6.006-11.487.836-.474 1.83-.723 2.62-.723a7.35 7.35 0 013.861 1.084c1.897 1.173 2.123 4.062 2.123 4.062l-6.73 13.631s-2.168 1.06-4.403-.158c-1.4-.768-2.236-2.009-2.62-2.708-.158-.316-.429-.926-.496-1.151a8.684 8.684 0 01-.362-2.55z" fill="#281818"/><path d="M96.388 127.435c0 4.423-2.687 9.568-6.007 11.486-3.32 1.919-6.007-.112-6.007-4.536 0-4.423 2.688-9.568 6.007-11.487 3.32-1.918 6.007.113 6.007 4.537z" fill="#3F2A28"/><path d="M94.175 129.172c0 2.415-1.468 5.236-3.297 6.296-1.83 1.061-3.297-.067-3.297-2.482s1.468-5.236 3.297-6.296c1.806-1.039 3.297.067 3.297 2.482z" fill="#fff"/><path d="M93.881 129.984c0 1.648-1.016 3.589-2.258 4.311s-2.258-.045-2.258-1.693c0-1.647 1.016-3.588 2.258-4.31 1.264-.745 2.258.022 2.258 1.692z" fill="#3F2A28"/><path d="M58.27 49.824c-.09 0-.158 0-.248-.023-1.22-.135-2.123-1.241-1.988-2.46.181-1.737.384-3.453.587-5.1.949-8.328 1.875-16.204.746-19.047-1.513-3.882-5.94-13.766-5.984-13.88-.497-1.128 3.59-2.956 4.087-1.827.18.406 4.516 10.088 6.074 14.06 1.536 3.881.655 11.531-.474 21.19-.18 1.648-.384 3.34-.564 5.078a2.265 2.265 0 01-2.236 2.009z" fill="#fff"/><path d="M82.613 131.903l-1.377-5.033-21.634-12.48c-3.86-2.234-9.777-2.482-13.12-.542l-17.387 10.043v-.181H23.29v5.8h.023c.135 1.4 1.197 2.844 3.184 3.995l24.185 13.969c3.861 2.234 9.778 2.483 13.12.542l18.855-10.878a10.572 10.572 0 01-.27-2.482 14.01 14.01 0 01.225-2.753z" fill="#352221"/><path d="M57.796 102.497c-.994.226-1.897.542-2.665.97l-29.604 17.129c-3.342 1.941-2.913 5.349.948 7.561l24.185 13.969c3.862 2.234 9.778 2.482 13.12.542l18.856-10.765c0-1.512 2.213-12.909 2.574-13.428l-27.55-15.91.136-.068z" fill="#472F2E"/><path d="M57.164 102.316l2.98-14.15-2.98-1.715s-2.1 1.219-6.323 3.656c-4.223 2.438-5.33 2.573-8.288 8.802-2.529 5.348-5.126 13.134-5.803 15.188l2.98 1.715 17.434-13.496z" fill="#593D3D"/><path d="M60.167 104.031V88.166s-2.1 1.219-6.323 3.656c-4.223 2.438-5.33 2.573-8.287 8.802-2.53 5.348-5.126 13.134-5.804 15.188l20.414-11.781z" fill="#352221"/><path d="M55.583 105.904c-11.381 0-20.617-4.897-20.617-10.968v29.181c0 6.048 9.236 10.968 20.617 10.968 11.38 0 20.617-4.898 20.617-10.968V94.959c0 6.048-9.236 10.945-20.617 10.945z" fill="#fff"/><path d="M34.966 94.96c0 6.047 9.236 10.967 20.617 10.967 11.38 0 20.617-4.897 20.617-10.968V65.892H34.966V94.96z" fill="#352221"/><path d="M34.966 91.845c0 6.048 9.236 10.968 20.617 10.968 11.38 0 20.617-4.898 20.617-10.968V62.8H34.966v29.045z" fill="#4DBAF2"/><path d="M55.583 124.094c-11.381 0-20.617-4.897-20.617-10.968v1.761c0 6.048 9.236 10.967 20.617 10.967 11.38 0 20.617-4.897 20.617-10.967v-1.761c0 6.071-9.236 10.968-20.617 10.968z" fill="#CCB5B4"/><path d="M55.583 117.73c-11.381 0-20.617-4.897-20.617-10.968v1.76c0 6.049 9.236 10.968 20.617 10.968 11.38 0 20.617-4.897 20.617-10.968v-1.76c0 6.071-9.236 10.968-20.617 10.968z" fill="#CCB5B4"/><path d="M86.452 117.685l9.168-9.14-2.98-1.715s-2.101 1.218-6.324 3.656c-4.222 2.437-5.329 2.573-8.287 8.801-2.53 5.349-5.126 13.135-5.804 15.188l2.981 1.715 6.323-4.897 4.923-13.608z" fill="#593D3D"/><path d="M76.584 50.253c0-.068-.023-.136-.023-.203v.383c0-.045.023-.113.023-.18z" fill="#352221"/><path d="M43.57 93.425l-9.124-5.28v-8.938l9.123 5.281v8.937z" fill="#3D2828"/><path d="M37.743 77.357l-3.297 1.85 9.123 5.281 3.297-1.85-9.123-5.281z" fill="#593D3D"/><path d="M43.57 84.488v8.937l3.296-1.85v-8.938l-3.297 1.851zm46.224 35.905c2.349-1.354 4.449-1.106 5.826.384v-12.232s-2.1 1.219-6.323 3.656c-4.222 2.437-5.329 2.573-8.287 8.802-2.53 5.348-5.126 13.134-5.804 15.188l7.385-4.266c.88-4.761 3.77-9.546 7.203-11.532z" fill="#352221"/><path d="M22.907 113.6c-1.852 0-4.968-1.264-6.639-8.869-1.671-7.537 1.987-16.61 5.532-25.388 3.14-7.809 6.414-15.866 5.872-22.636l-.136-1.625c-1.513-19.52-3.093-39.696 3.704-48.001C36.592.536 41.627-.322 44.924.085c4.155.541 7.836 3.43 9.823 7.74.339.745-2.37 1.986-2.71 1.242-1.535-3.318-4.403-5.642-7.497-6.026-3.635-.474-7.452 1.58-10.997 5.913-6.052 7.38-4.516 26.968-3.049 45.88l.136 1.625c.587 7.47-2.8 15.865-6.097 23.99-3.523 8.733-6.865 16.993-5.397 23.628 1.084 4.942 2.71 6.567 3.794 6.544 1.648-.113 3.77-3.385 4.177-7.943C28.44 87.85 37.495 85.142 37.88 85.03a1.477 1.477 0 011.829 1.038 1.472 1.472 0 01-1.016 1.828c-.34.09-7.475 2.392-8.627 15.052-.519 5.845-3.522 10.427-6.955 10.63-.022 0-.113.022-.203.022z" fill="#593D3D"/><path d="M43.118 136.416l-9.146-5.258V115l9.146 5.258v16.158z" fill="#3D2828"/><path d="M37.27 113.149l-3.298 1.85 9.146 5.259 3.297-1.851-9.146-5.258z" fill="#593D3D"/><path d="M43.117 120.258v16.158l3.297-1.851v-16.158l-3.297 1.851z" fill="#352221"/><path d="M43.637 143.909a9.42 9.42 0 01-2.71-.406c-5.058-1.512-7-4.424-7.723-6.59-1.287-3.791-.113-8.802 3.184-13.405a1.464 1.464 0 012.078-.339c.677.474.813 1.422.338 2.076-2.1 2.934-3.951 7.29-2.8 10.697.745 2.19 2.688 3.769 5.759 4.695 1.851.564 3.68.293 5.42-.79 3.635-2.212 6.435-7.47 7.722-14.421 1.58-8.621.813-27.533.294-40.035-.181-4.378-.316-7.831-.316-9.84 0-.812.677-1.49 1.49-1.49s1.49.678 1.49 1.49c0 1.964.136 5.394.316 9.727.52 12.638 1.288 31.753-.338 40.69-1.423 7.785-4.742 13.766-9.1 16.429-1.604 1.015-3.343 1.512-5.104 1.512z" fill="#593D3D"/><path d="M78.729 64.831v-2.64h-.632c-2.417-5.416-11.562-9.456-22.514-9.456-10.953 0-20.098 4.04-22.514 9.456h-.655v2.843c0 6.793 10.365 12.322 23.169 12.322 12.78 0 23.168-5.506 23.168-12.322 0-.067-.022-.135-.022-.203z" fill="#352221"/><path d="M55.583 49.395c-12.782 0-23.17 5.506-23.17 12.322 0 6.793 10.366 12.322 23.17 12.322 12.78 0 23.168-5.507 23.168-12.322 0-6.816-10.387-12.322-23.168-12.322z" fill="#472F2E"/><path d="M55.582 66.704c-10.952 0-19.871-4.536-20.549-10.268h-.045c0 .18-.023.339-.023.496v4.108h.068c.678 5.732 9.597 10.268 20.55 10.268 11.38 0 20.616-4.897 20.616-10.968v-3.43c0-.27-.022-.52-.045-.767-.406 5.867-9.462 10.561-20.572 10.561z" fill="#4DBAF2"/><path d="M58.064 38.81h-4.968c-9.8 0-17.817 7.877-18.11 17.604h.045c.678 5.732 9.597 10.268 20.55 10.268 11.11 0 20.165-4.694 20.571-10.54-.406-9.59-8.378-17.331-18.088-17.331z" fill="#352221"/><path d="M58.699 141.562c1.983 0 3.59-.859 3.59-1.919 0-1.059-1.607-1.918-3.59-1.918-1.983 0-3.59.859-3.59 1.918 0 1.06 1.607 1.919 3.59 1.919zm-29.402-19.454c-1.987 0-3.59.858-3.59 1.919 0 1.06 1.603 1.918 3.59 1.918 1.988 0 3.591-.858 3.591-1.918 0-1.061-1.603-1.919-3.59-1.919z" fill="#3D2828"/><path d="M67.416 46.574L45.873 59.01c2.732 1.174 6.187 1.873 9.98 1.873 8.808 0 15.943-3.791 15.943-8.463 0-2.28-1.67-4.31-4.38-5.845z" fill="#472F2E"/><path d="M45.895 59.009s0-7.29 9.688-12.435c8.58-4.559 11.855 0 11.855 0L45.895 59.009z" fill="#3D2828"/><path d="M53.234 56.775c-.79 0-1.445.338-1.445.767s.655.767 1.445.767 1.445-.338 1.445-.767-.654-.767-1.445-.767zm4.246-2.46c-.79 0-1.446.338-1.446.767s.655.767 1.446.767c.79 0 1.445-.338 1.445-.767 0-.406-.632-.767-1.445-.767zm4.245-.925c.798 0 1.445-.344 1.445-.768 0-.423-.647-.767-1.445-.767s-1.445.344-1.445.767c0 .424.647.768 1.445.768zm4.268-3.995c-.79 0-1.445.339-1.445.768 0 .428.655.767 1.445.767s1.445-.339 1.445-.767c-.022-.43-.654-.768-1.445-.768zm4.064 4.062L59.49 59.55l-2.235-1.286 10.568-6.093 2.235 1.286z" fill="#C6ADAC"/></svg>