<svg width="164" height="153" fill="none" xmlns="http://www.w3.org/2000/svg"><path d="M90.647 123.081l-5.255.792c-1.092.614-1.105 1.378-.477 2.238 1.951 1.843 5.16 3.508 8.094 3.754.86.928 1.897 1.419 3.098 1.487 1.515-.286 2.771-.859 3.644-1.815.287-2.73-.423-4.927-1.72-6.811l-7.384.355zm-39.255 2.252l-5.433-.341c-3.644 0-3.14 3.808 1.133 5.173 4.204 1.829 8.244 3.412 11.534 3.904 1.46.095 2.457-.423 3.003-1.543.71-1.91.204-3.617-.574-5.282l-9.663-1.911z" fill="#1D1D1B"/><path d="M73.531 74.339c-.478.232-.969.464-1.488.696-1.529 6.047-3.385 13.417-6.429 19.942l-.15.942L65 98.77c.314 1.447.287 3.181.028 5.119-.765 6.128-3.604 14.455-3.959 23.34.478 3.14-.546 2.921-1.802 3.14-5.46-.587-12.243-3.14-8.244-5.023l4.71-.164c-.342-8.736-.656-17.458-.397-24.269.055-1.474.137-2.866.246-4.136v-5.145c-1.174-11.793 1.406-24.637 6.688-35.748l20.938-7.616c2.089 3.521 3.618 7.015 3.754 10.428.191 5.446-3.153 10.715-13.43 15.642z" fill="#FCAF75"/><path d="M98.346 124.091c-.82.955-2.525 1.46-5.173 1.488-1.584-.123-2.908-.533-3.809-1.379l2.471-2.156c-.669-5.924-3.522-12.926-6.21-21.034a157.501 157.501 0 01-1.557-4.86l-1.774-3.343-1.133-2.143c-3.085-4.395-5.541-9.992-7.616-16.311-.232-.724-.478-1.46-.696-2.198l5.569-16.475 8.53 3.058c.014 0 2.143 26.998 2.143 26.998l1.447 3.522.041.095c2.375 2.798 3.604 5.788 4.436 8.818l.041.123c1.952 11.192 1.324 17.471 3.29 25.797z" fill="#FCAF75"/><path opacity=".3" d="M64.987 98.758c.314 1.447.286 3.18.027 5.118-3.672.314-7.603-1.692-9.691-2.975.054-1.474.136-2.867.245-4.136v-3.194l9.883 2.32-.464 2.867zm30.028-.614c-3.344 1.801-7.002 2.552-9.404 2.866a157.23 157.23 0 01-1.556-4.86l-1.775-3.343 8.245-3.576.04.095c2.39 2.798 3.604 5.774 4.45 8.818z" fill="#15ABEB"/><path d="M78.022 23.932c.054.587.164 1.16.341 1.72-2.348-.342-4.764-.874-7.248-1.543l-1.296-2.02-4.095-6.388c3.303-1.57 6.674-1.392 10.1.341a97.56 97.56 0 014.505 1.283c-1.802 1.57-2.567 4.163-2.307 6.607z" fill="#EDEDED"/><path d="M97.745 41.471h-3.767l-.45-.819a9908.025 9908.025 0 01-7.972-14.591c-2.28.11-4.695-.055-7.193-.423a8.004 8.004 0 01-.341-1.72c-.26-2.443.518-5.037 2.306-6.606 3.74 1.16 7.166 2.498 10.156 4.108 3.576 4.177 5.528 11.875 7.261 20.051z" fill="#FCAF75"/><path opacity=".5" d="M93.514 40.639c-3.249-5.952-6.784-12.394-7.971-14.578-2.28.11-4.696-.055-7.194-.423-2.347-.341-4.763-.874-7.248-1.543l-1.296-2.02-.11-.491c2.635 1.174 5.406 1.91 8.313 2.334 2.88.423 5.87.519 8.94.382-.327 3.071 4.423 9.637 6.566 16.339z" fill="#15ABEB"/><path d="M131.418 124.064c-1.883 0-4.286-1.42-7.698-4.518a1.558 1.558 0 01-.109-2.211 1.559 1.559 0 012.211-.11c4.477 4.054 5.651 3.713 5.692 3.686.082-.028.491-.287.873-2.689l.928-19.532c.041-.86.779-1.543 1.638-1.488.86.04 1.529.778 1.488 1.638l-.955 19.778c-.246 1.556-.696 4.449-2.935 5.241a3.05 3.05 0 01-1.133.205zM.643 92.793l.014 2.498 7.098 4.204-1.27-5.924-5.842-.778z" fill="#DADADA"/><path d="M6.485 93.57l1.27 5.925 19.15-11.056-1.27-5.924L6.485 93.57z" fill="#878787"/><path d="M.643 92.793l5.842.778 19.15-11.056-5.842-.778L.643 92.793z" fill="#9D9D9C"/><path d="M15.685 91.06c-.9 0-1.788-.492-2.225-1.352a2.509 2.509 0 011.065-3.385l2.334-1.215a2.51 2.51 0 112.32 4.45l-2.334 1.215a2.599 2.599 0 01-1.16.287z" fill="#3C3C3B"/><path d="M97.745 41.471c.97 1.87 1.106 4 .833 6.252L94.4 50.861l-1.87-3.85 1.379-5.596 3.835.055z" fill="#E89B61"/><path d="M18.701 88.862a1.899 1.899 0 01-1.678-1.01 1.879 1.879 0 01.805-2.539l80.518-41.808a1.878 1.878 0 012.538.805 1.878 1.878 0 01-.805 2.54L19.561 88.656a1.94 1.94 0 01-.86.205z" fill="#575756"/><path d="M51.569 48.705c-.355.232-.723.45-1.106.642-1.951.996-4.285 1.433-6.278.6l-1.01-3.712c-3.044-4.71-3.795-9.268-1.72-13.131 3.78.519 6.852 3.603 8.08 7.78.3 1.01.492 2.088.56 3.208 0 .068 0 .15.014.218 1.146 1.447.805 2.061 1.46 4.395z" fill="#EDEDED"/><path d="M53.794 66.218l-2.907.873-4.832-10.196-1.884-6.961c1.993.833 4.327.396 6.279-.6a8.76 8.76 0 001.105-.642c.314 1.146.615 2.361.874 3.603l1.297 13.295.013.109.055.519zM40.5 1.888c-3.386 1.078-4.56 3.699-3.686 7.766.778 2.635 2.116 4.996 3.917 7.139 1.01 1.201 2.416 2.28 4.245 3.14.533.245 1.16.272 1.693.04l.41-.177s1.091 1.747 1.419 2.962c.328 1.215.996 3.29.996 3.29l10.388-5.42-5.965-4.627c.15-4.409.327-7.944-2.32-11.493-2.458-3.494-6.662-4.026-11.098-2.62z" fill="#FCAF75"/><path d="M94.496 94.363c-13.704 4.067-26.575 9.418-39.651 1.255-.123-5.541-.082-11.178.396-16.652.737-8.695 2.552-16.925 6.456-23.559l4.258-1.528 17.24-6.197c3.371 4.422 5.227 9.95 5.023 16.952 1.119 10.852 3.016 20.938 6.278 29.729z" fill="#15ABEB"/><path d="M77.98 56.909l-12.489-1.147-3.794-.341c-3.617-6.347-6.811-6.006-11.588-11.33a2.706 2.706 0 01-.191-.218c-.26-1.091-.724-2.183-1.324-3.22-1.843-3.29-4.941-6.143-7.139-7.549 0 0 7.507-9.91 11.916-12.612 4.409-2.703 12.353-4.791 12.353-4.791 2.593 1.72 4.613 4.122 5.964 7.302 0 0 3.454 10.046 4.914 16.64.942 4.244 4.532 5.2 6.593 8.066 5.719 7.862-5.214 9.2-5.214 9.2z" fill="#15ABEB"/><path d="M43.434 16.042l-2.307-.805c-1.883-1.242-3.357-2.689-4.231-4.395-1.651-4.204.232-8.613 4.818-9.964 5.242-1.543 7.63.15 10.21 3.262 2.361 2.825 3.18 7.958 1.76 11.575l-3.139 1.842c-2.334 1.202-4.818.287-7.11-1.515z" fill="#1D1D1B"/><path d="M41.373 15.47c-.11-.383-.396-.765-.232-1.202.164-.45.833-.492 1.201-.3.874.477 1.256 1.528 1.474 2.416.055.259.219.778.055 1.023-.232.328-.778-.027-1.024-.177-.382-.232-.819-.546-1.024-.956-.136-.232-.409-.641-.45-.805z" fill="#FCAF75"/><path d="M51.255 13.858c2.13-1.692 19.041 6.497.314 25.183.792-10.987-4.94-21.497-.314-25.183z" fill="#1D1D1B"/><path d="M49.358 68.948l.75-.342c-.054 1.72.315 2.28 1.352 3.467l.778.423 2.825-.928a1.27 1.27 0 00.792-.75l.464-1.256-.641.259c-.86-.737-1.529-2.225-1.379-3.44l-.546-.805-3.194.792c-.6.75-1.01 1.597-1.201 2.58zm48.046-29.047l.273 3.235c-.669 1.53-1.83 2.02-3.399 3.058l-.314 1.706.41 2.034c.054.955-.901 1.133-1.133.205l-.901-2.32.123-1.925c-.041-1.242.246-2.498.942-3.768l1.242-2.757 2.757.532z" fill="#FCAF75"/><path d="M99.37 47.3l-.315-.847a.966.966 0 00-1.42-.478L93.8 47.886l.273 2.034-1.092.655 1.27.369c.491 0 .969-.164 1.351-.478l3.099-2.02.668-1.146z" fill="#FCAF75"/><path d="M134.926 145.862a2.894 2.894 0 11-2.894-2.894 2.904 2.904 0 012.894 2.894zm22.112 3.535a2.896 2.896 0 01-2.894 2.894 2.895 2.895 0 010-5.788 2.887 2.887 0 012.894 2.894z" fill="#000"/><path d="M163.617 136.171l-.014 4.272c-.013 2.634-1.747 5.269-5.2 7.289-6.975 4.054-18.318 4.054-25.333 0-3.536-2.034-5.296-4.723-5.296-7.385l.013-4.272c-.013 2.675 1.761 5.351 5.296 7.385 7.016 4.053 18.359 4.053 25.334 0 3.453-2.007 5.186-4.641 5.2-7.289z" fill="#575756"/><path d="M158.321 128.786c7.016 4.054 7.057 10.619.082 14.673-6.975 4.054-18.317 4.054-25.333 0-7.03-4.054-7.057-10.619-.082-14.673 6.975-4.054 18.317-4.054 25.333 0z" fill="#B2B2B2"/><path d="M130.559 113.867c-.028 8.368 6.729 15.165 15.096 15.179 8.367.027 15.164-6.73 15.178-15.097.027-8.367-6.729-15.164-15.096-15.178-8.367-.027-15.165 6.729-15.178 15.096z" fill="#EA4A49"/><path d="M160.833 113.949l-.014 20.297c0 2.225-1.474 4.463-4.395 6.156-5.897 3.426-15.478 3.426-21.416 0-2.989-1.72-4.477-3.986-4.477-6.238l.014-20.296c0 2.252 1.487 4.518 4.477 6.237 5.923 3.426 15.519 3.426 21.416 0 2.921-1.692 4.395-3.917 4.395-6.156z" fill="#EA4A49"/><path d="M160.819 116.597c.014 2.239-1.447 4.491-4.395 6.197-5.897 3.426-15.478 3.426-21.416 0-2.962-1.72-4.463-3.958-4.477-6.197v4.614c.014 2.238 1.501 4.491 4.477 6.197 5.924 3.426 15.519 3.426 21.416 0 2.948-1.706 4.409-3.959 4.395-6.197v-4.614z" fill="#fff"/><path d="M160.819 122.685c.014 2.238-1.447 4.491-4.395 6.197-5.897 3.426-15.478 3.426-21.416 0-2.962-1.72-4.463-3.959-4.477-6.197v1.638c.014 2.238 1.501 4.491 4.477 6.197 5.924 3.426 15.519 3.426 21.416 0 2.948-1.706 4.409-3.959 4.395-6.197v-1.638z" fill="#fff"/><path d="M132.879 132.103l.832-.477c.519-.301 1.215-.26 1.993.191 1.57.901 2.839 3.098 2.839 4.927 0 .915-.327 1.556-.846 1.856l-.833.478c.519-.3.847-.942.847-1.856 0-1.816-1.27-4.027-2.839-4.928-.765-.45-1.475-.491-1.993-.191z" fill="#B2B2B2"/><path d="M132.046 133.96c0-1.816 1.269-2.566 2.839-1.666 1.57.901 2.839 3.099 2.839 4.928 0 1.815-1.269 2.566-2.839 1.665-1.57-.914-2.839-3.112-2.839-4.927z" fill="#575756"/><path d="M133.042 134.383c-.068-1.229.71-1.679 1.734-1.01s1.911 2.197 1.979 3.426c.068 1.228-.71 1.679-1.733 1.01-1.024-.669-1.911-2.198-1.98-3.426z" fill="#000"/><path opacity=".3" d="M143.73 99.536c-7.057.955-12.53 7.015-12.544 14.332 0 1.76.314 3.48.915 5.091.819.805 1.678 1.556 2.607 2.156-.301-10.209 2.661-17.457 9.022-21.58z" fill="#fff"/><path d="M151.264 100.218v1.324c0 .819-.546 1.638-1.624 2.266-2.17 1.256-5.705 1.256-7.889 0-1.106-.642-1.652-1.474-1.652-2.293v-1.324c0 .833.546 1.665 1.652 2.293 2.184 1.256 5.719 1.256 7.889 0 1.078-.628 1.624-1.447 1.624-2.266z" fill="#000"/><path d="M149.626 97.925c2.184 1.256 2.198 3.303.028 4.573-2.17 1.255-5.706 1.255-7.89 0-2.183-1.256-2.197-3.303-.027-4.573 2.17-1.27 5.692-1.27 7.889 0z" fill="#B2B2B2"/><path d="M134.899 100.341h-.137a1.565 1.565 0 01-1.419-1.706c.901-10.183 5.637-10.783 7.084-10.729 3.904.164 6.865 4.805 6.893 10.797 0 .86-.696 1.597-1.556 1.597-.874 0-1.57-.669-1.584-1.529-.027-4.968-2.279-7.67-3.89-7.739-1.569-.082-3.33 2.348-3.822 7.862a1.583 1.583 0 01-1.569 1.447zm-10.128 19.614c-.369 0-.751-.136-1.051-.409-8.859-7.999-11.547-23.791-11.739-31.858-.286-11.848-1.951-31.23-2.62-36.594a6.234 6.234 0 00-3.03-4.627 6.233 6.233 0 00-5.515-.437l-.095.041c-.806.314-1.72-.068-2.034-.873-.314-.806.068-1.72.874-2.034l.095-.041a9.355 9.355 0 018.272.655 9.384 9.384 0 014.545 6.947c.669 5.406 2.361 24.952 2.634 36.908.164 7.044 2.621 22.304 10.701 29.592a1.56 1.56 0 01.11 2.212c-.287.341-.71.518-1.147.518z" fill="#DADADA"/><path opacity=".5" d="M66.46 54.247a41.21 41.21 0 00-.969 1.515c-4.23 6.825-7.52 15.383-10.018 25.374l-.246-2.17c.737-8.695 2.553-16.925 6.456-23.559-3.617-6.347-6.81-6.005-11.588-11.329 0 .069 0 .15.014.219 1.133 1.446.791 2.06 1.446 4.395.314 1.146.615 2.361.874 3.603l1.297 13.295L51.5 54.247l-1.051-4.9-1.87-8.695c.327.069.641.137.955.232 5.57 1.693 10.128 8.517 16.407 13.008.177.123.355.232.519.355z" fill="#15ABEB"/></svg>