<svg width="168" height="181" fill="none" xmlns="http://www.w3.org/2000/svg"><path d="M124.87 135.049v7.163c0 .879 1.338 1.581 2.973 1.581 1.649 0 2.973-.702 2.973-1.581v-7.163h-5.946zm32.625-19.029v7.163c0 .879 1.338 1.582 2.973 1.582 1.649 0 2.973-.703 2.973-1.582v-7.163h-5.946zM28.198 79.692v7.163c0 .879 1.338 1.581 2.973 1.581 1.649 0 2.973-.702 2.973-1.58v-7.164h-5.946z" fill="#352221"/><path d="M116.437 44.148L77.825 21.984c-.65-.365-1.244-.46-1.758-.325l-.053-.067s-1.88-.19-3.663 1.216c-1.784 1.405-2.973 3.352-2.973 3.352l5.122 4.176v21.191c0 2.446 1.5 5.312 3.338 6.366l38.612 22.164c1.838 1.054 3.338-.081 3.338-2.514v-27.03c-.027-2.432-1.527-5.297-3.351-6.365z" fill="#15ABEB"/><path d="M114.207 76.462s-.5 1.784-2.528 2.96c-3.23 1.865-4.743 1.446-4.743 1.446l-.392-6.393 5.73-1.513 1.933 3.5z" fill="#15ABEB"/><path d="M111.031 83.341L72.418 61.177c-1.838-1.054-3.338-3.92-3.338-6.366v-27.03c0-2.446 1.5-3.581 3.338-2.513l38.613 22.164c1.838 1.054 3.338 3.92 3.338 6.366v27.03c-.014 2.446-1.514 3.58-3.338 2.513z" fill="#0B8EC7"/><path d="M162.712 70.772L124.1 48.608c-.649-.365-1.244-.46-1.757-.325l-.054-.067s-1.879-.19-3.663 1.216c-1.784 1.406-2.973 3.352-2.973 3.352l5.122 4.176v21.191c0 2.447 1.5 5.312 3.338 6.366l38.612 22.164c1.838 1.055 3.338-.081 3.338-2.513v-27.03c-.013-2.446-1.513-5.312-3.351-6.366z" fill="#15ABEB"/><path d="M160.482 103.086s-.501 1.784-2.528 2.96c-3.23 1.865-4.743 1.446-4.743 1.446l-.392-6.392 5.73-1.514 1.933 3.5z" fill="#15ABEB"/><path d="M157.306 109.965l-38.612-22.164c-1.838-1.054-3.339-3.92-3.339-6.365v-27.03c0-2.447 1.501-3.582 3.339-2.514l38.612 22.164c1.838 1.055 3.338 3.92 3.338 6.366v27.03c0 2.432-1.5 3.568-3.338 2.513z" fill="#0B8EC7"/><path d="M69.175 28.498s-1.19-1.947-2.973-3.352c-1.784-1.406-3.663-1.216-3.663-1.216l-.054.067c-.514-.135-1.108-.04-1.757.325L27.319 43.607c-1.838 1.054-3.338 3.92-3.338 6.366v27.03c0 .716.149 1.31.378 1.784l-.013.013s.5 1.784 2.527 2.96c3.23 1.865 4.744 1.446 4.744 1.446l.392-6.392L60.728 60.23c1.838-1.055 3.338-3.92 3.338-6.366v-21.19l5.109-4.176z" fill="#15ABEB"/><path d="M32.725 82.8l33.409-19.285c1.838-1.054 3.338-3.92 3.338-6.366V30.12c0-2.446-1.5-3.581-3.338-2.513L32.725 46.89c-1.838 1.055-3.338 3.92-3.338 6.366v27.03c0 2.446 1.5 3.581 3.338 2.514z" fill="#1798CF"/><path d="M156.292 109.06L76.27 60.866c-1.865-1.081-5.149-.933-7.298.297L44.078 75.53l-10.272-6.055c-2.202 2.162-2.621 6.811-2.621 10.325 0 3.528 1.08 4.42 2.838 5.433l81.738 47.194c1.865 1.082 5.149.933 7.298-.297l32.706-18.88c2.149-1.23 2.392-3.122.527-4.19z" fill="#0B8EC7"/><path d="M34.023 73.178l81.738 47.194c1.865 1.081 5.149.933 7.298-.297l32.706-18.881c2.149-1.243 2.379-3.135.527-4.216L74.554 49.784c-1.865-1.081-5.15-.933-7.298.297L34.55 68.961c-2.15 1.244-2.379 3.15-.527 4.217z" fill="#15ABEB"/><g opacity=".5"><path opacity=".5" d="M106.017 74.989L78.879 90.653c-2.068 1.19-5.717 1.04-8.096-.338L40.537 72.854c-2.392-1.379-2.65-3.487-.581-4.677l27.138-15.663c2.068-1.19 5.717-1.041 8.095.338l30.246 17.46c2.379 1.38 2.649 3.488.582 4.677z" fill="#99C7FF"/><path opacity=".5" d="M101.759 73.543l-23.637 13.65c-1.798 1.04-4.974.905-7.055-.297l-26.34-15.218c-2.082-1.203-2.312-3.028-.5-4.068l23.637-13.65c1.797-1.04 4.973-.906 7.055.297l26.34 15.218c2.068 1.203 2.298 3.027.5 4.068z" fill="#B3D9FF"/><path opacity=".5" d="M72.797 69.15c-1.581 0-2.865.676-2.865 1.528 0 .838 1.284 1.527 2.865 1.527 1.581 0 2.865-.676 2.865-1.527-.014-.852-1.284-1.528-2.865-1.528z" fill="#1798CF"/><path opacity=".5" d="M71.094 55.987s-.27 1.42.27 4.433c.527 3.014 1.257 6.46 1.257 6.46s.446-3.892.19-6.379c-.285-2.473-1.717-4.514-1.717-4.514zm7.528 14.299s3.81-2.284 8.325-2.473c4.514-.176 10.271 1.594 10.271 1.594s-7.27-.946-10.271-.648c-3.014.297-8.325 1.527-8.325 1.527zm-30.855-1.582s3.974-1.986 8.501-1.81c4.514.175 10.123 2.392 10.123 2.392s-7.163-1.514-10.19-1.46c-3.041.068-8.434.879-8.434.879zm25.381 5.65s-.473 2.27-.162 5.636c.243 2.594 1.379 5.581 1.379 5.581s-.068-3.054-.176-6.73c-.081-3.19-1.04-4.487-1.04-4.487z" fill="#15ABEB"/></g><g opacity=".57"><path opacity=".57" d="M149.494 100.667l-27.138 15.664c-2.068 1.189-5.717 1.041-8.095-.338L84.014 98.532c-2.392-1.379-2.649-3.487-.581-4.676l27.138-15.664c2.068-1.19 5.717-1.04 8.095.338l30.247 17.461c2.378 1.379 2.649 3.487.581 4.676z" fill="#99C7FF"/><path opacity=".57" d="M145.237 99.221l-23.638 13.65c-1.798 1.041-4.974.906-7.055-.297l-26.34-15.218c-2.082-1.203-2.311-3.027-.5-4.068l23.637-13.65c1.798-1.04 4.974-.905 7.055.297l26.34 15.218c2.068 1.19 2.298 3.027.501 4.068z" fill="#B3D9FF"/><path opacity=".57" d="M116.274 94.829c-1.581 0-2.865.676-2.865 1.527 0 .838 1.284 1.527 2.865 1.527 1.581 0 2.865-.675 2.865-1.527-.013-.851-1.284-1.527-2.865-1.527z" fill="#1798CF"/><path opacity=".57" d="M114.571 81.665s-.27 1.42.271 4.433c.527 3.014 1.257 6.46 1.257 6.46s.446-3.892.189-6.379c-.284-2.486-1.717-4.514-1.717-4.514zm7.528 14.299s3.811-2.284 8.325-2.473c4.514-.176 10.272 1.595 10.272 1.595s-7.271-.947-10.272-.65c-3.014.298-8.325 1.528-8.325 1.528zM91.245 94.37s3.973-1.988 8.5-1.812c4.514.176 10.123 2.392 10.123 2.392s-7.163-1.513-10.19-1.46c-3.027.055-8.433.88-8.433.88zm25.381 5.662s-.473 2.271-.162 5.636c.243 2.595 1.378 5.581 1.378 5.581s-.067-3.054-.175-6.73c-.095-3.203-1.041-4.487-1.041-4.487z" fill="#15ABEB"/></g><path d="M112.436 74.354s-11.812 5.487-18.84 9.555c-7.028 4.054-17.19 11.771-17.19 11.771s11.42-6.852 18.177-10.42c6.771-3.581 17.853-10.906 17.853-10.906z" fill="#1798CF"/><path d="M70.567 49.054c.095 3.716 4 7.609 5.568 8.852 3.163 2.514 6.717 4.257 10.231 6.244 3.73 2.108 10.488 3.946 15.65 1.608 3.487-1.581 4.501-6.257 4.663-8.338.176-2.271-.379-4.339-.703-6.555 2.757-.568 4.041-1.392 3.676-2.487-.405-1.19-1.446-1.338-4-1.27-.365-3.041-1.325-4.65-2.906-7.001-1.23-.825-2.5-1.595-3.676-2.365-5.568-3.703-11.366-7.177-17.123-10.569-2.352-1.378-6.852-3.311-9.596-3.297-.743-.582-1.879-1.23-3.243-1-2.312.378-2.677 2.46-1.65 3.892-1.31 2.351-2.216 11.582-2.162 13.082.027.973.298 2.541.662 4.338 1.068 1.92 2.5 3.5 4.609 4.866z" fill="#F9423E"/><path d="M66.35 54c.487 1.284 2.636 1.433 3.92 1.15 3.973 5.986 10.676 10.987 17.082 13.73 3.73 1.609 13.448 3.73 17.651 2.892.865 1.73 2.797 2.69 3.825 2 1.405-.918.919-2.337.675-3.689 1.284-1 2.893-1.69 3.933-8.514.379-2.447.271-9.38-1.649-11.272.582-.77 1.595-3.054.73-3.973-1.081-1.162-3.297-1.054-4.527-1.014-1.081-2.135-3.109-3.757-5.271-5.203 1.581 2.352 2.541 3.96 2.906 7 2.567-.053 3.595.082 4 1.271.378 1.081-.905 1.906-3.676 2.487.324 2.203.878 4.284.703 6.555-.162 2.067-1.176 6.757-4.663 8.338-5.163 2.352-11.92.514-15.65-1.608-3.514-1.987-7.069-3.73-10.231-6.244-1.568-1.243-5.474-5.136-5.568-8.852-2.108-1.365-3.555-2.946-4.636-4.852.42 2.027.96 4.338 1.46 6.433C67.039 51.77 65.783 52.5 66.35 54zm5.555-29.273c-.365-.365-.878-.662-1.406-.622-.162.014-.283.217-.148.338.432.406.905.703 1.243 1.203.162.243.527.676.798.284.283-.392-.217-.933-.487-1.203zm-1.946 1.878c-.5.136-.946.379-1.27.811-.203.27-.609.906-.338 1.244.216.257.5.08.621-.162.325-.582.554-1.082 1.163-1.433.27-.149.108-.527-.176-.46z" fill="#E52C2C"/><path d="M68.743 44.23c-.163-.487-.527-.852-.69-1.339-.162-.486-.08-1-.216-1.486-.027-.095-.162-.15-.243-.068-.662.824-.081 2.797.932 3.108.122.04.257-.08.217-.216zm3.487 3.27c-.217-.487-.582-.865-.785-1.379-.175-.46-.189-.96-.351-1.433-.04-.108-.162-.108-.216-.027-.69.947-.027 2.852 1.013 3.271.27.108.42-.216.338-.432zm29.678 10.771c-.108-.095-.257-.027-.27.108-.054.568.108 1.068-.041 1.635-.121.487-.473.852-.513 1.352-.014.162.175.284.311.243 1.094-.338 1.283-2.622.513-3.338zm-2.378 6.014c-.609-.067-1.217-.013-1.811-.176-.595-.175-1.068-.527-1.609-.824-.094-.054-.216.04-.189.149.392 1.365 2.581 2.162 3.73 1.338.23-.15.149-.46-.121-.487z" fill="#E52C2C"/><path opacity=".5" d="M79.311 30.011c-2.446-1.04-6.028-2.716-8.46-1.094-4.338 2.905 1.648 9.582 4.784 11.258 3.23 1.716 12.623 5.433 14.069-.663.933-3.878-9.122-8.96-10.393-9.5z" fill="#FF6464"/><path d="M114.531 74.638c.095 3.716 4 7.609 5.568 8.852 3.163 2.514 6.717 4.257 10.231 6.244 3.73 2.108 10.487 3.946 15.65 1.608 3.487-1.581 4.501-6.257 4.663-8.339.175-2.27-.379-4.338-.703-6.554 2.757-.568 4.041-1.392 3.676-2.487-.405-1.19-1.446-1.338-4-1.27-.365-3.041-1.325-4.65-2.906-7.001-1.23-.825-2.5-1.595-3.676-2.365-5.568-3.703-11.366-7.177-17.124-10.569-2.351-1.378-6.852-3.311-9.595-3.298-.743-.58-1.879-1.23-3.244-1-2.311.379-2.676 2.46-1.648 3.893-1.311 2.351-2.217 11.582-2.163 13.082.027.973.297 2.54.662 4.338 1.055 1.906 2.501 3.5 4.609 4.866z" fill="#F9423E"/><path d="M110.314 79.584c.487 1.284 2.636 1.433 3.92 1.149 3.973 5.987 10.676 10.987 17.083 13.731 3.73 1.608 13.447 3.73 17.65 2.892.865 1.73 2.798 2.69 3.825 2 1.405-.919.919-2.338.676-3.69 1.283-1 2.892-1.688 3.932-8.513.379-2.447.271-9.38-1.649-11.272.582-.77 1.595-3.054.73-3.973-1.081-1.163-3.297-1.055-4.527-1.014-1.081-2.135-3.109-3.757-5.271-5.203 1.581 2.351 2.541 3.96 2.906 7 2.568-.053 3.595.082 4 1.27.379 1.082-.905 1.907-3.676 2.488.324 2.203.879 4.284.703 6.554-.162 2.068-1.176 6.758-4.663 8.34-5.163 2.35-11.92.5-15.65-1.61-3.514-1.986-7.068-3.73-10.231-6.243-1.568-1.243-5.473-5.15-5.568-8.852-2.108-1.365-3.554-2.947-4.636-4.852.419 2.027.96 4.338 1.46 6.433-.324 1.122-1.595 1.852-1.014 3.365zm5.542-29.287c-.365-.365-.879-.662-1.406-.621-.162.013-.284.216-.149.337.433.406.906.703 1.244 1.203.162.244.527.676.797.284.284-.378-.216-.932-.486-1.203zm-1.933 1.893c-.5.134-.946.378-1.271.81-.202.27-.608.906-.337 1.243.216.257.5.082.621-.162.325-.58.554-1.08 1.163-1.432.256-.149.094-.54-.176-.46z" fill="#E52C2C"/><path d="M112.693 69.813c-.162-.487-.527-.852-.689-1.338-.162-.487-.081-1-.217-1.487-.027-.094-.162-.148-.243-.067-.662.824-.081 2.797.933 3.108.121.04.27-.094.216-.216zm3.487 3.27c-.217-.486-.581-.864-.784-1.378-.176-.46-.189-.96-.352-1.433-.04-.108-.162-.108-.216-.027-.689.946-.027 2.852 1.014 3.27.27.109.432-.229.338-.432zm29.679 10.758c-.109-.094-.257-.027-.271.109-.054.567.108 1.067-.04 1.635-.122.486-.473.851-.514 1.351-.013.162.176.284.311.243 1.095-.324 1.297-2.608.514-3.338zm-2.365 6.028c-.608-.067-1.217-.013-1.811-.176-.595-.175-1.068-.527-1.609-.824-.094-.054-.216.04-.189.149.392 1.365 2.582 2.162 3.73 1.338.217-.163.135-.46-.121-.487z" fill="#E52C2C"/><path opacity=".5" d="M123.262 55.582c-2.446-1.041-6.028-2.717-8.461-1.081-4.338 2.905 1.649 9.582 4.785 11.257 3.23 1.717 12.623 5.433 14.069-.662.932-3.879-9.123-8.974-10.393-9.514z" fill="#FF6464"/><path d="M165.861 84.53s-1.19-1.945-2.974-3.351c-1.784-1.406-3.662-1.216-3.662-1.216l-.054.067c-.514-.135-1.108-.04-1.757.325L124.005 99.64c-1.838 1.054-3.338 3.92-3.338 6.366v27.03c0 .716.148 1.311.378 1.784l-.013.013s.5 1.784 2.527 2.96c3.23 1.865 4.744 1.446 4.744 1.446l.392-6.393 28.719-16.582c1.838-1.055 3.338-3.92 3.338-6.366V88.707l5.109-4.176z" fill="#15ABEB"/><path d="M129.397 138.847l33.409-19.286c1.838-1.054 3.338-3.919 3.338-6.365v-27.03c0-2.446-1.5-3.581-3.338-2.514l-33.409 19.286c-1.838 1.054-3.338 3.919-3.338 6.365v27.03c.014 2.433 1.514 3.568 3.338 2.514z" fill="#1798CF"/><path d="M129.884 135.712c-.176-.582-.622-.96-.892-1.501a3.344 3.344 0 01-.325-.932c-.054-.325-.013-.649-.135-.973-.081-.203-.324-.243-.459-.054-.419.608-.162 1.676.094 2.311.284.689.717 1.365 1.501 1.432.148.027.256-.148.216-.283zm3.554-1.338c-.311-.446-.851-.595-1.351-.757-.528-.162-1.055-.271-1.609-.176-.148.027-.175.257-.04.324.432.23.905.338 1.365.527.459.19.878.501 1.378.528.217.013.392-.271.257-.446zm27.976-47.938c-.054.04-.054.135-.027.19.203.337.689.445 1.014.648.419.257.743.662 1.176.879.27.135.513-.082.473-.365-.122-.852-1.865-2.068-2.636-1.352zm3.284 3.892c-.04-.202-.365-.202-.405 0-.122.474-.257.947-.514 1.352-.243.392-.622.676-.797 1.108-.068.162 0 .433.229.392 1.19-.149 1.703-1.824 1.487-2.852zm-1.811 20.854c-.067-.216-.365-.162-.378.054-.041.743-.041 1.473-.162 2.216-.095.568-.298 1.082-.217 1.663.027.216.379.311.514.135.757-.987.581-2.946.243-4.068zm-2.297 5.284c-.284-.473-.554-.946-.865-1.378-.122-.162-.433-.068-.352.149.163.486.365.959.568 1.446.189.432.311.932.676 1.256.175.163.567.068.527-.216-.041-.486-.311-.851-.554-1.257zm-2.501 2.974c-.391-.109-.824-.068-1.216-.176-.446-.122-.743-.419-1.135-.595-.108-.054-.297 0-.284.162.122 1.028 1.865 1.852 2.717 1.203.202-.175.202-.513-.082-.594zM33.9 49.486c-.959.447-2.283 1.92-1.891 3.068.08.244.378.27.527.068.297-.433.338-1.014.581-1.473.27-.514.649-.92 1.054-1.311.176-.19-.054-.446-.27-.352zm.744 5.474c-.554-.176-1.162-.081-1.743-.243-.568-.163-1.027-.5-1.568-.717-.135-.054-.297.108-.243.244.446 1.121 2.568 2.054 3.622 1.31a.325.325 0 00-.068-.594zm2.703-8.623c-.324.554-.54 1.176-.784 1.77-.256.663-.648 1.339-.77 2.028-.068.406.419.622.662.284.406-.568.568-1.325.77-1.973.19-.663.365-1.338.379-2.041 0-.135-.19-.176-.257-.068zM32.941 64.46c-.135-.459-.135-.986-.432-1.364-.068-.081-.176-.04-.216.027-.325.419-.19 1.054-.095 1.54.108.528.257 1.244.703 1.595.202.163.621.082.58-.243-.04-.54-.378-1.027-.54-1.554z" fill="#0B8EC7"/><path d="M27.211 78.584c-.243-.42-.69-.662-.946-1.081-.243-.406-.378-.852-.567-1.284-.055-.122-.244-.108-.298 0-.486 1 .311 2.865 1.527 2.879.244 0 .406-.298.284-.514zm97.132 57.52c-.217-.514-.69-.852-1-1.311-.325-.5-.473-1.068-.744-1.582-.162-.297-.554-.135-.581.163-.054.635.257 1.31.595 1.851.297.487.743 1.149 1.351 1.257.189.041.473-.149.379-.378zm37.341-61.399c-.338-.621-.716-1.27-1.324-1.649-.108-.067-.23.04-.203.149.162.635.554 1.176.825 1.77.27.595.405 1.27.878 1.744.108.108.351.068.378-.095.109-.703-.229-1.324-.554-1.919zm2.122-1.73c-.067-.162-.31-.067-.31.081-.014.676.081 1.352.054 2.028-.027.73-.298 1.337-.46 2.04-.067.298.27.473.487.284 1.216-.973.77-3.203.229-4.433z" fill="#1798CF"/><path d="M35.793 83.625c-.257-.419-.649-.73-.92-1.162-.256-.42-.404-.879-.62-1.325-.082-.162-.312-.067-.325.081-.081.933.581 2.379 1.446 2.798.27.135.581-.122.419-.392zm.608-1.189c-.108-.014-.216.108-.121.202.405.338.865.609 1.243 1 .378.379.69.825 1.095 1.19a.18.18 0 00.297-.176c-.243-1.04-1.473-2.04-2.514-2.216zm69.494 39.747c-.541.027-1.054.216-1.595.23-.608 0-1.149-.189-1.73-.284-.162-.027-.297.162-.162.284.851.851 2.757 1.027 3.689.257.19-.162.041-.5-.202-.487zm1.568-.851c-.189-.217-.622.013-.514.297.203.5.433.973.568 1.5.135.514.094 1.095.27 1.595a.347.347 0 00.662 0c.406-1.027-.297-2.635-.986-3.392zm10.514 3.189c-.392-.284-.919-.378-1.365-.554-.473-.176-.919-.459-1.419-.568-.094-.013-.162.068-.121.163.405.892 1.905 1.689 2.851 1.432.23-.054.23-.351.054-.473zm-.175 2.703c-.487-.27-1.054.041-1.582.108-.689.095-1.392 0-2.081.054-.148.014-.189.19-.067.271.608.432 1.351.527 2.094.513.568-.013 1.46-.027 1.717-.622.054-.121.04-.256-.081-.324zm.162 3.406c-.284-.689-.96-1.257-1.555-1.663-.148-.108-.297.095-.229.23.283.622.756 1.406 1.351 1.771.189.135.527-.081.433-.338z" fill="#4283D1"/><path d="M36.847 37.688c1.325-1.149 2.717-3.744 3.676-5.122.014-2.338-3.676-8.123-6.176-10.758.568-1.716-.284-4.555-1.568-6.258-1.284-1.702-3.757-2.96-3.757-2.96l-4.54 2.96s6.067 19.651 12.365 22.138z" fill="#E52C2C"/><path d="M33.05 92.585s-.15 1.23-.528 2.514c-.392 1.284.095 3.081.095 3.081s.284.798 1.473 1.028a4.64 4.64 0 002.014-.054s1.095 1.324 2.527 2.324c1.433 1 4.582 1.798 5.433 1.663 1.379-.217 2.122-1.284 2.014-1.987-.108-.689-1.73-2.622-3.068-3.46-.865-.54-2.838-2.379-3.433-3.014-.986-1.054-1.703-2.216-1.703-2.216l-4.825.121z" fill="#2C1D1B"/><path d="M31.157 37.688s4 10.217 4.622 14.353c.622 4.135 1.865 10.393 2.609 15.596.743 5.203.743 10.285.392 15.366-.135 2.014-.879 7.298-.487 10.163-.432 1.866-4.811 2.095-5.325-.067-.324-1.338-3.676-13.231-4.014-16.975-.338-3.743.541-6.42.541-6.42s-5.46-11.676-7.366-16.271c-1.905-4.595-.608-10.285-.608-10.285l9.636-5.46zm-18.65 65.385s-.743 2.743-.649 4.325c.095 1.581.473 1.959.946 2.5.487.541 1.04.311 1.04.311s.217 3.27 1.771 4.595c1.555 1.324 4.366 1.446 5.663.973 1.298-.487.446-2.825-.824-5.122-1.27-2.298-2.879-4.771-3.284-6.852-3.082-.433-4.663-.73-4.663-.73z" fill="#2C1D1B"/><path d="M16.818 41.918s-1.96 2.77-3.527 7.65c-1.095 3.432-.92 11.65-.92 11.65s-.283 8.095.244 10.892c.527 2.798.473 3.366.473 3.366s-2.243 6.717-1.906 14.65c.352 7.933 1 13.636 1 13.636s.447 1.501 2.487 1.703c1.852.189 3.217-1.094 3.217-1.094s3.405-16.813 4.662-20.638c1.257-3.824 1.73-8.244 1.73-8.244l2.582-18.867s5.095-3.324 2.486-11.73c-1.648-5.258-12.528-2.974-12.528-2.974z" fill="#3F2A28"/><path d="M20.846 15.834c1.054-.338 5.203-1.676 5.622-1.473 2.973 1.473 6.325 7.244 6.757 11.136.176 1.609-.135 8.96-1.095 11.556 1.406.621 1.163 1.905.568 2.69.568.783.96.918 1.27 1.675.582 1.446-.189 2.135-1.202 3.23-1.473 1.595-4.055 2.879-8.285 3.473-4.892.676-8.65-1.351-10.163-3.378-.365-.473-.297-1.73.77-2.42-.81-2.473-1.419-7.203-2.216-10.176-1.203-4.474-2.379-9.799.203-13.177 1.148-1.473 5.473-2.379 7.77-3.136z" fill="#F9423E"/><path d="M26.522 15.334s1.622 1.933 2.784 4.095c1.135 2.109 1.419 4.528 1.419 4.528l-7.177 3.892s-2.527-4.379-4.351-6.541c-1.987-2.365-3.42-3.893-3.42-3.893l-1.256.527s2.689 3.596 3.824 5.704c.581 1.067 2.582 4.216 3.068 6.825.19 1-.419 6.676-.797 9.636-.662 5.257-6.487 4.176-6.487 4.176s-1.473 2.784-2.609 8.596c-.824 4.243-.094 8.757 0 15.217.068 4.933-.716 10.893-.716 10.893s9.825 2.528 14.947 1.65c6.285-1.069 10.853-3.812 12.394-4.853 2.432-1.635 3.297-3.554 3.297-3.554s-2.486-9.393-4.743-18.38c-1.528-6.11-1.852-9.555-2.636-13.745-.5-2.649-1.122-8.312-1.162-11.974-.054-3.663-1.92-9.353-3.136-11.218-1.675-2.581-3.122-3.04-3.122-3.04l-.121 1.46z" fill="#15ABEB"/><path d="M27.82 45.337c-.42.027-2.38 1.69-4.528 2-2.379.338-3.487-.23-4.38-.635.569-.027 2.082.23 4.272-.338 2.175-.567 4.635-1.027 4.635-1.027zm3.608-5.703s-1.298 1.797-3.082 2.865c-1.784 1.068-3.527 1.406-3.527 1.406s1.838-1.446 3-2.365c1.15-.92 3.609-1.906 3.609-1.906zm-8.866 20.353s1.865 4.987 3.54 9.38c.947 2.473 2.42 5.852 2.42 5.852s-2-1.108-3.717-4.866c-1.851-4.095-2.243-10.366-2.243-10.366z" fill="#F4EBEA"/><path d="M20.346 10.482s3.946 3 5.257 5.014c2.216 3.406 2.514 4.42.54 6.298-5.04.717-7.933-2.405-8.798-4.92 1.257-.688 3-6.392 3-6.392z" fill="#FFB9A4"/><path d="M18.345 15.577s.568 2.622 2.284 3.906c2.068 1.554 5.947 1.811 5.947 2.865-1.122 0-1.352.068-1.352.879 0 1.527-.445 1.878-.445 1.878s-3.177-1-5.19-1.838c-2.528-1.054-3.311-5.879-3.311-5.879s.567-1.946 2.067-1.81z" fill="#E52C2C"/><path d="M26.562 16.064s1.636 1.784 2.338 2.595c.703.824.298 2.324.65 3.014.35.675.513 1.135.513 1.135s-1.46-.297-1.744-1.135c-.283-.838-1.743.675-1.743.675l-1.027-.851s1.554-1 1.027-2.068c-.527-1.067-1.406-2.473-1.406-2.473l1.392-.892z" fill="#E52C2C"/><path d="M30.05 8.63c-.068-1.729-.447-3.891-1.771-5.121-1.311-1.217-3.568-1.338-5.271-1.217-2.636.19-4.5 3.109-4.027 6.488.432 3.122 2.513 7.92 5.987 8.582 1.77.337 3.148-1 3.96-2.703.959-2.028 1.189-4.596 1.121-6.028z" fill="#FFC9B6"/><path d="M29.32 5.887s0-.013.013-.013c-.014.027-.014.027-.014.013z" fill="#301333"/><path d="M16.886 6.928c-.054-2.392 1-5.42 3.527-6.38 1.379-.526 4.555-.972 6 .15a1.6 1.6 0 01.406-.392c.811-.541 1.879-.23 2.527.419.46.46.73 1.08.892 1.743 1.379-.784 3.15 1.081 2.541 2.825-.905 2.581-4.5 2.865-6.622 1.784-.31 2.121-2.406 3.905-4.568 3.96-.473 1.121-1.324 2.554-2.676 2.81-.378-2.121-2.027-4.554-2.027-6.92z" fill="#3F2A28"/><path d="M21.643 11.104s-.635-1.379-1.73-.622c-1.081.757.865 3.041.865 3.041l.865-2.42z" fill="#FFC9B6"/><path d="M28.928 38.404s-1.163 2.081-3.528 2.838c-2.365.77-3.878.406-3.878.406s2.635-.838 3.662-1.311c1.027-.46 3.744-1.933 3.744-1.933z" fill="#F4EBEA"/><path d="M14.088 43.905s2.798 2.19 3.582 3.297c.784 1.108.378 2.892.243 5-.135 2.123-2.149 1.569-3.784 1.366-1.622-.203-2.014-.987-1.054-1.365.96-.379 2.216 0 2.216 0s-2.581-1.433-2.743-4.068c-.136-2.622 1.54-4.23 1.54-4.23z" fill="#FFC9B6"/><path d="M.546 37.837c.987-2.23 1.42-2.92 3.068-5.596 1.635-2.69 2.068-3.622 4.095-6.23.716-4.622 2.906-7.42 5.88-7.555 1.797 1.379 3.148 11.38 1.378 14.434-1.42 2.46-2.136 3.136-3.595 3.974-.379.96-1.27 1.743-1.838 2.554 1.027.73 2.23 1.595 3.176 2.297 2.081 1.555 3.405 3.595 3.405 3.595s-.608 1.136-1.54 2.109c-.933.973-1.784 1.797-1.784 1.797s-6.636-1.933-8.596-3.527c-.986-.798-2.122-2.122-2.581-3.487-.365-1.04-1.581-3.203-1.068-4.365z" fill="#E52C2C"/><path d="M75.865 116.061c-.365-.311-.676-.595-.92-.811l-2.5-2.257c-6.798-6.136-13.204-11.934-23.218-21.705-5.406-5.27-10.528-12.582-11.434-30.179-.486-9.46 2.46-17.853 5.514-19.759.879-.554 1.46-.337 1.838-.135 4.271 2.365 11.745 8.217 11.826 8.271.46.365 1.135.284 1.5-.189a1.062 1.062 0 00-.19-1.5c-.31-.243-7.69-6-12.095-8.46-1.257-.703-2.676-.636-4 .189-4.15 2.581-7.015 12.11-6.515 21.678.946 18.34 6.366 26.03 12.083 31.598C57.795 102.6 64.228 108.41 71.04 114.56l2.487 2.257c.256.229.58.513.946.838 2.892 2.54 9.663 8.473 9.176 12.447-.135 1.054-1.08 1.919-2.027 2.919.108.743.081 1.23.013 2.027.203-.054.406-.121.609-.23 2.108-1.081 3.297-2.581 3.527-4.446.608-5.095-6.5-11.325-9.906-14.312z" fill="#593D3D"/><path d="M72.31 70.962l13.867 6.581-16.61 8.704 2.743-15.285z" fill="#C6AFAF"/><path d="M73.094 70.543l13.853 6.581-16.596 8.704 2.743-15.285z" fill="#EFDFDF"/><path d="M86.947 77.124l.46 1.068-17.056 8.974-.433.19-.351-1.109 17.38-9.123z" fill="#C6AFAF"/><path d="M56.39 45.378s2.81 3.162 4.365 5.244C61.742 51.946 64.607 56 64.607 56l-2.811 2.027s-2.825-4.136-4-5.636c-.852-1.081-4.028-4.73-4.028-4.73s.608-2.284 2.622-2.284z" fill="#352221"/><path d="M61.769 57.947c.216.324 1.04.162 1.838-.379.797-.54 1.257-1.23 1.04-1.554-.216-.324-1.04-.162-1.837.378-.798.541-1.257 1.23-1.041 1.555z" fill="#472F2E"/><path d="M62.35 57.703c.135.203.662.108 1.176-.243.513-.338.797-.784.662-1-.135-.203-.662-.108-1.176.243-.513.352-.797.798-.662 1z" fill="#EFDFDF"/><path d="M76.04 77.76l1.825-1.257-13.677-20.056-1.838 1.256L76.04 77.76z" fill="#EFDFDF"/><path d="M70.35 85.828l.379 1.135-.81.392-.352-1.108.784-.419z" fill="#B29A9A"/><path d="M37.834 30.714s3.203.838 5.987 2.852c2.784 2.014 6.095 5.068 6.095 5.068l-3.149 4.216s-5.554-1.608-8.352-3.216c-2.797-1.608-3.433-3.798-3.433-3.798l2.852-5.122z" fill="#E52C2C"/><path d="M49.119 37.89s-1.54-.202-2.744 1.271c-1.067 1.311-.824 3.163.19 3.554.46.19 2.46.717 2.892 1.163.419.446 2.527 3.568 3 3 .54-.662-.243-1.31-.527-2.014-.176-.432.081-1.216.419-1.513.987.703 3.027 2.297 3.027 2.297s3.798-.58 1.406-3.906c-.92-1.27-3.379-1.486-4.69-1.932-1.324-.42-2.973-1.92-2.973-1.92z" fill="#FFC9B6"/><path d="M54.025 134.508l2.122-1.202v.013c.27-.148.635-.148 1.013.081.879.5 1.581 1.865 1.581 3.028 0 .567-.175.986-.446 1.202h-.013c-.04.041-.095.054-.149.082l-2.095 1.189-2.013-4.393z" fill="#281818"/><path d="M53.444 135.819c0 1.163.716 2.528 1.58 3.028.88.5 1.582-.027 1.582-1.203 0-1.162-.716-2.527-1.581-3.027-.865-.501-1.581.027-1.581 1.202z" fill="#3F2A28"/><path d="M54.025 136.279c0 .635.392 1.379.865 1.662.473.271.865-.013.865-.662s-.392-1.378-.865-1.662c-.473-.27-.865.013-.865.662z" fill="#EDEDED"/><path d="M65.756 127.873l2.122-1.203c.27-.149.635-.149 1.013.081.879.5 1.582 1.865 1.582 3.027 0 .568-.176.987-.446 1.203h-.014c-.04.041-.095.054-.149.081l-2.094 1.19-2.014-4.379z" fill="#281818"/><path d="M65.175 129.17c0 1.163.716 2.527 1.581 3.028.879.5 1.581-.028 1.581-1.203 0-1.163-.716-2.528-1.58-3.028-.88-.5-1.582.041-1.582 1.203z" fill="#3F2A28"/><path d="M65.756 129.643c0 .635.392 1.379.865 1.663.473.283.865-.014.865-.663 0-.635-.392-1.378-.865-1.662-.473-.27-.865.013-.865.662z" fill="#EDEDED"/><path d="M34.807 121.697c0-2.893-1.757-6.258-3.933-7.515-.554-.311-1.203-.473-1.716-.473a4.77 4.77 0 00-2.514.703c-1.23.77-1.392 2.649-1.392 2.649l4.406 8.92s1.419.703 2.878-.108c.906-.5 1.46-1.325 1.703-1.771a7.94 7.94 0 00.325-.757 5.36 5.36 0 00.243-1.648z" fill="#281818"/><path d="M25.157 118.196c0 2.892 1.757 6.258 3.933 7.515 2.176 1.256 3.933-.082 3.933-2.974 0-2.892-1.757-6.257-3.933-7.514-2.176-1.257-3.933.068-3.933 2.973z" fill="#3F2A28"/><path d="M25.616 118.777c0 2.149 1.311 4.649 2.92 5.582 1.608.932 2.919-.054 2.919-2.203s-1.311-4.649-2.92-5.582c-1.608-.932-2.919.054-2.919 2.203z" fill="#FFC373"/><path d="M29.333 113.871c-.595-.338-1.149-.513-1.676-.554v-5.162l15.934 2.257c1.54-.068 3.054.135 4.311.608l23.787 3.365v11.663c.135 1.311-.757 2.717-2.636 3.798l-7.717 4.46c-3.203 1.851-8.095 2.054-10.866.446l-17.407-9.947c.203-.595.31-1.284.31-2.081.014-3.541-1.378-7.325-4.04-8.853z" fill="#EDEDED"/><path d="M28.306 113.831c-.622-.352-1.216-.541-1.757-.581v-5.433l16.745 2.365c1.622-.068 3.217.148 4.528.635l25.002 3.541v9.839c.135 1.378-.797 2.851-2.77 3.987l-8.11 4.689c-3.365 1.946-8.5 2.149-11.42.473l-16.704-9.649s-.338-.176-.473-.257v-.46c-.19-3.581-2.379-7.608-5.041-9.149z" fill="#EDEDED"/><path d="M26.55 107.492v-1.824s.31.013.702.04c.473-.635 1.149-1.243 2.068-1.784l8.108-4.69c3.366-1.945 8.501-2.162 11.42-.472l22.016 12.717c.622.365 1.082.784 1.406 1.23l.54-.122-.013 1.514c.122 1.365-.81 2.838-2.77 3.973l-8.11 4.69c-3.365 1.946-8.5 2.162-11.42.473L28.483 110.52c-1.365-.811-2-1.906-1.933-3.028z" fill="#352221"/><path d="M50.525 121.386l-22.016-12.718c-2.92-1.676-2.541-4.649.824-6.595l8.11-4.69c3.364-1.946 8.5-2.162 11.42-.473l22.015 12.718c2.92 1.676 2.54 4.649-.824 6.595l-8.11 4.69c-3.365 1.946-8.5 2.162-11.42.473z" fill="#FFC373"/><path d="M62.026 107.492l-15.191-8.77c-2.014-1.163-5.555-1.014-7.88.324l-5.594 3.23c-1.068.608-1.676 1.378-1.852 2.135-.27-1.027.351-2.176 1.852-3.041l5.595-3.23c2.324-1.338 5.865-1.487 7.879-.324l15.19 8.771c1.095.635 1.487 1.514 1.285 2.419-.15-.568-.568-1.095-1.284-1.514z" fill="#EDEDED"/><path d="M61.471 111.141l-5.595 3.23c-2.324 1.338-5.865 1.487-7.879.325l-15.19-8.771c-.717-.419-1.136-.946-1.285-1.514.176-.757.784-1.514 1.852-2.135l5.595-3.23c2.325-1.339 5.866-1.487 7.88-.325l15.19 8.771c.716.419 1.135.946 1.284 1.514-.19.757-.797 1.514-1.852 2.135z" fill="#EDEDED"/><path d="M54.862 118.642l-16.015-9.244c-2.122-1.23-1.851-3.379.595-4.798l5.892-3.406c2.447-1.419 6.177-1.567 8.299-.338l16.015 9.245c2.122 1.23 1.851 3.378-.595 4.797l-5.892 3.406c-2.447 1.419-6.177 1.568-8.299.338z" fill="#EFDFDF"/><path d="M55.147 116.71l-14.232-8.218c-1.878-1.081-1.648-3 .528-4.257l5.243-3.027c2.176-1.257 5.5-1.392 7.38-.311l14.23 8.217c1.88 1.081 1.65 3-.527 4.257l-5.243 3.028c-2.176 1.27-5.5 1.405-7.38.311z" fill="#15ABEB"/><path d="M67.337 109.857s-3.108.298-5.514 1.919c-2.406 1.609-5.298 4.312-5.298 4.312l-.851-.487s3.122-3.257 5.527-4.581c2.406-1.325 5.312-1.676 5.312-1.676l.824.513zm-3.406-1.946s-3.108.298-5.514 1.919c-2.406 1.622-5.298 4.312-5.298 4.312l-.851-.487s3.122-3.257 5.527-4.581c2.406-1.325 5.312-1.676 5.312-1.676l.824.513zm-3.406-2.013s-3.108.297-5.514 1.919c-2.405 1.621-5.297 4.311-5.297 4.311l-.852-.487s3.122-3.257 5.528-4.595c2.405-1.324 5.311-1.676 5.311-1.676l.824.528zm-3.405-1.947s-3.109.298-5.514 1.92c-2.406 1.621-5.298 4.311-5.298 4.311l-.852-.487s3.122-3.257 5.528-4.581c2.405-1.325 5.311-1.676 5.311-1.676l.825.513zm-3.392-1.946s-3.109.298-5.514 1.919c-2.406 1.622-5.298 4.312-5.298 4.312l-.852-.487s3.122-3.257 5.528-4.595c2.406-1.324 5.311-1.676 5.311-1.676l.825.527z" fill="#EFDFDF"/><path d="M41.483 121.913l-6.757-3.906v-1.879l6.757 3.906v1.879zm0 1.946l-6.757-3.906v-.932l6.757 3.892v.946z" fill="#352221"/><path d="M39.51 100.329c-.392 0-.703.163-.703.365 0 .203.31.365.703.365.392 0 .702-.162.702-.365 0-.202-.324-.365-.702-.365zm2.04-1.202c-.392 0-.702.162-.702.365 0 .202.31.364.702.364.379 0 .703-.162.703-.364 0-.203-.324-.365-.703-.365zm-8.082 4.554c-.392 0-.702.162-.702.365 0 .203.31.365.702.365.392 0 .703-.162.703-.365 0-.203-.31-.365-.703-.365zm2.055-1.189c-.392 0-.703.162-.703.365 0 .202.31.365.703.365.392 0 .703-.163.703-.365 0-.203-.311-.365-.703-.365zm2.054-1.203c-.392 0-.703.162-.703.365 0 .203.311.365.703.365.392 0 .703-.162.703-.365-.014-.189-.325-.365-.703-.365zm6.028-3.339c-.392 0-.703.163-.703.366 0 .202.31.365.703.365.392 0 .702-.163.702-.365 0-.203-.31-.365-.702-.365zm2.892 1.366l-5.109 2.946-1.08-.622 5.108-2.946 1.08.622zm-6.082 3.568l-5.108 2.946-1.068-.622 5.109-2.946 1.067.622zm25.368 19.299c-.325-.257-.784-.284-1.298.014-1 .581-1.81 2.121-1.81 3.459 0 .717.243 1.217.621 1.446v.014l1.42.865 2.364-5.028-1.297-.77z" fill="#3F2A28"/><path d="M67.675 124.413c0 1.338-.81 2.879-1.811 3.46-1 .581-1.811-.041-1.811-1.365 0-1.338.81-2.879 1.811-3.46 1-.581 1.811.04 1.811 1.365z" fill="#493130"/><path d="M77.365 137.509h-.108c-1.595-.027-3.068-.838-4.366-2.379-.743-.878-1.378-1.824-2.054-2.824-1.365-2.014-2.77-4.095-5.244-6.014a1.061 1.061 0 01-.189-1.501 1.059 1.059 0 011.5-.189c2.757 2.122 4.325 4.447 5.717 6.501.649.959 1.257 1.851 1.92 2.649.905 1.067 1.81 1.595 2.77 1.622h.054c1.932 0 4.027-2.001 5.622-3.758a1.082 1.082 0 011.514-.067c.432.405.46 1.081.067 1.514-2.014 2.202-4.446 4.446-7.203 4.446z" fill="#593D3D"/><path d="M166.658 138.306c-.149.163-15.515 16.732-31.963 22.651-4.203 1.514-8.541 1.892-12.893 1.798-1.838-3.298-4.946-6.028-8.568-7.15-6.744-2.108-13.637-1.743-20.935-1.365-4.811.244-9.771.501-15.272.149-21.42-1.378-40.653-11.879-47.761-18.164-6.907-6.122-7.907-13.042-6.542-17.475 1.284-4.176 2.933-6.527 3.852-7.609v-.797c-.81.838-2.825 3.271-4.365 8.258-1.42 4.595-.406 11.744 6.69 18.042 7.149 6.339 26.53 16.921 48.086 18.299 5.527.352 10.514.095 15.34-.148 7.554-.392 14.082-.73 20.744 1.338 3.393 1.054 6.312 3.567 8.109 6.622-2.865-.081-5.743-.352-8.568-.622-8.285-.784-16.123-1.527-21.164 3.311-2.433 2.338-3.041 5.231-1.676 7.947 2.013 3.987 8.095 7.325 16.556 7.325 1.892 0 3.892-.162 6-.527 6.798-1.162 10.893-4.879 11.245-10.177.148-2.257-.406-4.581-1.487-6.703 4.284.054 8.663-.338 12.799-1.825 16.569-5.96 32.03-22.624 32.179-22.799l-.406-.379zm-43.626 31.652c-.338 5.041-4.271 8.569-10.798 9.69-11.299 1.933-19.624-1.811-21.99-6.514-1.27-2.527-.716-5.135 1.569-7.325 3.054-2.933 7.095-3.743 11.798-3.743 2.771 0 5.784.283 8.947.581 2.852.27 5.865.554 8.92.621 1.108 2.109 1.703 4.433 1.554 6.69z" fill="#593D3D"/></svg>